<svg width="812" height="988" viewBox="0 0 812 988" fill="none" xmlns="http://www.w3.org/2000/svg">
<path d="M3.98438 15.6484V14.2422C3.28125 14.1536 2.70833 13.9974 2.26562 13.7734C1.82812 13.5443 1.44792 13.1771 1.125 12.6719C0.807292 12.1667 0.622396 11.5495 0.570312 10.8203L1.98438 10.5547C2.09375 11.3099 2.28646 11.8646 2.5625 12.2188C2.95833 12.7188 3.43229 12.9974 3.98438 13.0547V8.57812C3.40625 8.46875 2.8151 8.24479 2.21094 7.90625C1.76302 7.65625 1.41667 7.3099 1.17188 6.86719C0.932292 6.42448 0.8125 5.92188 0.8125 5.35938C0.8125 4.35938 1.16667 3.54948 1.875 2.92969C2.34896 2.51302 3.05208 2.25781 3.98438 2.16406V1.49219H4.8125V2.16406C5.63021 2.24219 6.27865 2.48177 6.75781 2.88281C7.3724 3.39323 7.74219 4.09375 7.86719 4.98438L6.41406 5.20312C6.33073 4.65104 6.15625 4.22917 5.89062 3.9375C5.63021 3.64062 5.27083 3.44531 4.8125 3.35156V7.40625C5.52083 7.58333 5.98958 7.72135 6.21875 7.82031C6.65625 8.01302 7.01302 8.2474 7.28906 8.52344C7.5651 8.79948 7.77604 9.1276 7.92188 9.50781C8.07292 9.88802 8.14844 10.2995 8.14844 10.7422C8.14844 11.7161 7.83854 12.5286 7.21875 13.1797C6.59896 13.8307 5.79688 14.1797 4.8125 14.2266V15.6484H3.98438ZM3.98438 3.33594C3.4375 3.41927 3.00521 3.63802 2.6875 3.99219C2.375 4.34635 2.21875 4.76562 2.21875 5.25C2.21875 5.72917 2.35156 6.13021 2.61719 6.45312C2.88802 6.77604 3.34375 7.03385 3.98438 7.22656V3.33594ZM4.8125 13.0547C5.35938 12.987 5.8099 12.75 6.16406 12.3438C6.52344 11.9375 6.70312 11.4349 6.70312 10.8359C6.70312 10.3255 6.57552 9.91667 6.32031 9.60938C6.07031 9.29688 5.56771 9.01823 4.8125 8.77344V13.0547ZM9.57031 8.35156C9.57031 6.9974 9.70833 5.90885 9.98438 5.08594C10.2656 4.25781 10.6797 3.61979 11.2266 3.17188C11.7786 2.72396 12.4714 2.5 13.3047 2.5C13.9193 2.5 14.4583 2.625 14.9219 2.875C15.3854 3.11979 15.7682 3.47656 16.0703 3.94531C16.3724 4.40885 16.6094 4.97656 16.7812 5.64844C16.9531 6.3151 17.0391 7.21615 17.0391 8.35156C17.0391 9.69531 16.901 10.7812 16.625 11.6094C16.349 12.4323 15.9349 13.0703 15.3828 13.5234C14.8359 13.9714 14.1432 14.1953 13.3047 14.1953C12.2005 14.1953 11.3333 13.7995 10.7031 13.0078C9.94792 12.0547 9.57031 10.5026 9.57031 8.35156ZM11.0156 8.35156C11.0156 10.2318 11.2344 11.4844 11.6719 12.1094C12.1146 12.7292 12.6589 13.0391 13.3047 13.0391C13.9505 13.0391 14.4922 12.7266 14.9297 12.1016C15.3724 11.4766 15.5938 10.2266 15.5938 8.35156C15.5938 6.46615 15.3724 5.21354 14.9297 4.59375C14.4922 3.97396 13.9453 3.66406 13.2891 3.66406C12.6432 3.66406 12.1276 3.9375 11.7422 4.48438C11.2578 5.18229 11.0156 6.47135 11.0156 8.35156Z" transform="translate(22 950) scale(2)" fill="#A5A5A5"/>
<path d="M3.98438 15.6484V14.2422C3.28125 14.1536 2.70833 13.9974 2.26562 13.7734C1.82812 13.5443 1.44792 13.1771 1.125 12.6719C0.807292 12.1667 0.622396 11.5495 0.570312 10.8203L1.98438 10.5547C2.09375 11.3099 2.28646 11.8646 2.5625 12.2188C2.95833 12.7188 3.43229 12.9974 3.98438 13.0547V8.57812C3.40625 8.46875 2.8151 8.24479 2.21094 7.90625C1.76302 7.65625 1.41667 7.3099 1.17188 6.86719C0.932292 6.42448 0.8125 5.92188 0.8125 5.35938C0.8125 4.35938 1.16667 3.54948 1.875 2.92969C2.34896 2.51302 3.05208 2.25781 3.98438 2.16406V1.49219H4.8125V2.16406C5.63021 2.24219 6.27865 2.48177 6.75781 2.88281C7.3724 3.39323 7.74219 4.09375 7.86719 4.98438L6.41406 5.20312C6.33073 4.65104 6.15625 4.22917 5.89062 3.9375C5.63021 3.64062 5.27083 3.44531 4.8125 3.35156V7.40625C5.52083 7.58333 5.98958 7.72135 6.21875 7.82031C6.65625 8.01302 7.01302 8.2474 7.28906 8.52344C7.5651 8.79948 7.77604 9.1276 7.92188 9.50781C8.07292 9.88802 8.14844 10.2995 8.14844 10.7422C8.14844 11.7161 7.83854 12.5286 7.21875 13.1797C6.59896 13.8307 5.79688 14.1797 4.8125 14.2266V15.6484H3.98438ZM3.98438 3.33594C3.4375 3.41927 3.00521 3.63802 2.6875 3.99219C2.375 4.34635 2.21875 4.76562 2.21875 5.25C2.21875 5.72917 2.35156 6.13021 2.61719 6.45312C2.88802 6.77604 3.34375 7.03385 3.98438 7.22656V3.33594ZM4.8125 13.0547C5.35938 12.987 5.8099 12.75 6.16406 12.3438C6.52344 11.9375 6.70312 11.4349 6.70312 10.8359C6.70312 10.3255 6.57552 9.91667 6.32031 9.60938C6.07031 9.29688 5.56771 9.01823 4.8125 8.77344V13.0547ZM16.8672 5.35156L15.4688 5.46094C15.3438 4.90885 15.1667 4.50781 14.9375 4.25781C14.5573 3.85677 14.0885 3.65625 13.5312 3.65625C13.0833 3.65625 12.6901 3.78125 12.3516 4.03125C11.9089 4.35417 11.5599 4.82552 11.3047 5.44531C11.0495 6.0651 10.9167 6.94792 10.9062 8.09375C11.2448 7.57812 11.6589 7.19531 12.1484 6.94531C12.638 6.69531 13.151 6.57031 13.6875 6.57031C14.625 6.57031 15.4219 6.91667 16.0781 7.60938C16.7396 8.29688 17.0703 9.1875 17.0703 10.2812C17.0703 11 16.9141 11.6693 16.6016 12.2891C16.2943 12.9036 15.8698 13.375 15.3281 13.7031C14.7865 14.0312 14.1719 14.1953 13.4844 14.1953C12.3125 14.1953 11.3568 13.7656 10.6172 12.9062C9.8776 12.0417 9.50781 10.6198 9.50781 8.64062C9.50781 6.42708 9.91667 4.81771 10.7344 3.8125C11.4479 2.9375 12.4089 2.5 13.6172 2.5C14.5182 2.5 15.2552 2.7526 15.8281 3.25781C16.4062 3.76302 16.7526 4.46094 16.8672 5.35156ZM11.125 10.2891C11.125 10.7734 11.2266 11.237 11.4297 11.6797C11.638 12.1224 11.9271 12.4609 12.2969 12.6953C12.6667 12.9245 13.0547 13.0391 13.4609 13.0391C14.0547 13.0391 14.5651 12.7995 14.9922 12.3203C15.4193 11.8411 15.6328 11.1901 15.6328 10.3672C15.6328 9.57552 15.4219 8.95312 15 8.5C14.5781 8.04167 14.0469 7.8125 13.4062 7.8125C12.7708 7.8125 12.2318 8.04167 11.7891 8.5C11.3464 8.95312 11.125 9.54948 11.125 10.2891ZM18.4766 8.35156C18.4766 6.9974 18.6146 5.90885 18.8906 5.08594C19.1719 4.25781 19.5859 3.61979 20.1328 3.17188C20.6849 2.72396 21.3776 2.5 22.2109 2.5C22.8255 2.5 23.3646 2.625 23.8281 2.875C24.2917 3.11979 24.6745 3.47656 24.9766 3.94531C25.2786 4.40885 25.5156 4.97656 25.6875 5.64844C25.8594 6.3151 25.9453 7.21615 25.9453 8.35156C25.9453 9.69531 25.8073 10.7812 25.5312 11.6094C25.2552 12.4323 24.8411 13.0703 24.2891 13.5234C23.7422 13.9714 23.0495 14.1953 22.2109 14.1953C21.1068 14.1953 20.2396 13.7995 19.6094 13.0078C18.8542 12.0547 18.4766 10.5026 18.4766 8.35156ZM19.9219 8.35156C19.9219 10.2318 20.1406 11.4844 20.5781 12.1094C21.0208 12.7292 21.5651 13.0391 22.2109 13.0391C22.8568 13.0391 23.3984 12.7266 23.8359 12.1016C24.2786 11.4766 24.5 10.2266 24.5 8.35156C24.5 6.46615 24.2786 5.21354 23.8359 4.59375C23.3984 3.97396 22.8516 3.66406 22.1953 3.66406C21.5495 3.66406 21.0339 3.9375 20.6484 4.48438C20.1641 5.18229 19.9219 6.47135 19.9219 8.35156ZM27.3828 8.35156C27.3828 6.9974 27.5208 5.90885 27.7969 5.08594C28.0781 4.25781 28.4922 3.61979 29.0391 3.17188C29.5911 2.72396 30.2839 2.5 31.1172 2.5C31.7318 2.5 32.2708 2.625 32.7344 2.875C33.1979 3.11979 33.5807 3.47656 33.8828 3.94531C34.1849 4.40885 34.4219 4.97656 34.5938 5.64844C34.7656 6.3151 34.8516 7.21615 34.8516 8.35156C34.8516 9.69531 34.7135 10.7812 34.4375 11.6094C34.1615 12.4323 33.7474 13.0703 33.1953 13.5234C32.6484 13.9714 31.9557 14.1953 31.1172 14.1953C30.013 14.1953 29.1458 13.7995 28.5156 13.0078C27.7604 12.0547 27.3828 10.5026 27.3828 8.35156ZM28.8281 8.35156C28.8281 10.2318 29.0469 11.4844 29.4844 12.1094C29.9271 12.7292 30.4714 13.0391 31.1172 13.0391C31.763 13.0391 32.3047 12.7266 32.7422 12.1016C33.1849 11.4766 33.4062 10.2266 33.4062 8.35156C33.4062 6.46615 33.1849 5.21354 32.7422 4.59375C32.3047 3.97396 31.7578 3.66406 31.1016 3.66406C30.4557 3.66406 29.9401 3.9375 29.5547 4.48438C29.0703 5.18229 28.8281 6.47135 28.8281 8.35156ZM36.6875 14V2.54688H38.0938V9.07812L41.4219 5.70312H43.2422L40.0703 8.78125L43.5625 14H41.8281L39.0859 9.75781L38.0938 10.7109V14H36.6875Z" transform="translate(724 950) scale(2)" fill="#A5A5A5"/>
<g opacity="0.8" transform="translate(40) scale(2)">
<path fill-rule="evenodd" clip-rule="evenodd" d="M0 463C0 463 156.136 359.206 217 282C277.864 204.794 365 0 365 0V463" fill="url(#paint0_linear)"/>
<path fill-rule="evenodd" clip-rule="evenodd" d="M0 463C0 463 156.136 359.206 217 282C277.864 204.794 365 0 365 0V463" fill="url(#paint1_linear)"/>
</g>
<g style="mix-blend-mode:multiply" transform="translate(2 924) scale(2)">
<path d="M401.5 1H0" stroke="#DFDFDF" stroke-linecap="square"/>
</g>
<defs>
<linearGradient id="paint0_linear" x2="1" gradientUnits="userSpaceOnUse" gradientTransform="translate(228.477 179.41) scale(254.716 323.105) rotate(59.1273)">
<stop stop-color="#23C7DF"/>
<stop offset="1" stop-color="#2500CF"/>
</linearGradient>
<linearGradient id="paint1_linear" x2="1" gradientUnits="userSpaceOnUse" gradientTransform="translate(130.891 226.313) scale(287.983 365.304) rotate(40.3849)">
<stop stop-color="white" stop-opacity="0.01"/>
<stop offset="1" stop-color="white"/>
</linearGradient>
</defs>
</svg>
