<svg width="29" height="23" viewBox="0 0 29 23" fill="none" xmlns="http://www.w3.org/2000/svg">
<path d="M14.4175 17.022C13.2308 17.022 12.0708 16.6701 11.0841 16.0109C10.0974 15.3516 9.32833 14.4145 8.87421 13.3181C8.42008 12.2218 8.30126 11.0154 8.53277 9.85149C8.76428 8.68761 9.33573 7.61851 10.1748 6.7794C11.014 5.94028 12.0831 5.36884 13.2469 5.13732C14.4108 4.90581 15.6172 5.02463 16.7136 5.47876C17.8099 5.93289 18.747 6.70192 19.4063 7.68861C20.0656 8.67531 20.4175 9.83535 20.4175 11.022C20.4175 12.6133 19.7853 14.1395 18.6601 15.2647C17.5349 16.3899 16.0088 17.022 14.4175 17.022ZM14.4175 7.02204C13.6264 7.02204 12.853 7.25663 12.1952 7.69616C11.5374 8.13568 11.0247 8.7604 10.722 9.4913C10.4192 10.2222 10.34 11.0265 10.4943 11.8024C10.6487 12.5783 11.0296 13.2911 11.5891 13.8505C12.1485 14.4099 12.8612 14.7908 13.6371 14.9452C14.413 15.0995 15.2173 15.0203 15.9482 14.7176C16.6791 14.4148 17.3038 13.9021 17.7434 13.2443C18.1829 12.5865 18.4175 11.8132 18.4175 11.022C18.4175 9.96117 17.9961 8.94376 17.2459 8.19361C16.4958 7.44346 15.4783 7.02204 14.4175 7.02204Z" fill="#FFFAFA"/>
<path d="M14.4175 22.022C11.1908 22.0075 8.05363 20.9598 5.46579 19.0324C2.87795 17.105 0.975569 14.3994 0.0375028 11.312C-0.0125009 11.1219 -0.0125009 10.9221 0.0375028 10.732C0.957517 7.63224 2.85455 4.91272 5.44587 2.97878C8.03719 1.04483 11.1841 0 14.4175 0C17.6509 0 20.7978 1.04483 23.3891 2.97878C25.9805 4.91272 27.8775 7.63224 28.7975 10.732C28.8475 10.9221 28.8475 11.1219 28.7975 11.312C27.8594 14.3994 25.9571 17.105 23.3692 19.0324C20.7814 20.9598 17.6442 22.0075 14.4175 22.022ZM2.0475 11.022C2.89284 13.6376 4.54551 15.9179 6.76808 17.5354C8.99064 19.1528 11.6687 20.0241 14.4175 20.0241C17.1663 20.0241 19.8444 19.1528 22.0669 17.5354C24.2895 15.9179 25.9422 13.6376 26.7875 11.022C25.9422 8.40644 24.2895 6.12611 22.0669 4.50867C19.8444 2.89122 17.1663 2.01991 14.4175 2.01991C11.6687 2.01991 8.99064 2.89122 6.76808 4.50867C4.54551 6.12611 2.89284 8.40644 2.0475 11.022Z" fill="#FFFAFA"/>
<path d="M14.4175 22.022C11.1908 22.0075 8.05363 20.9598 5.46579 19.0324C2.87795 17.105 0.975569 14.3994 0.0375028 11.312C-0.0125009 11.1219 -0.0125009 10.9221 0.0375028 10.732C0.957517 7.63224 2.85455 4.91272 5.44587 2.97878C8.03719 1.04483 11.1841 0 14.4175 0C17.6509 0 20.7978 1.04483 23.3891 2.97878C25.9805 4.91272 27.8775 7.63224 28.7975 10.732C28.8475 10.9221 28.8475 11.1219 28.7975 11.312C27.8594 14.3994 25.9571 17.105 23.3692 19.0324C20.7814 20.9598 17.6442 22.0075 14.4175 22.022ZM2.0475 11.022C2.89284 13.6376 4.54551 15.9179 6.76808 17.5354C8.99064 19.1528 11.6687 20.0241 14.4175 20.0241C17.1663 20.0241 19.8444 19.1528 22.0669 17.5354C24.2895 15.9179 25.9422 13.6376 26.7875 11.022C25.9422 8.40644 24.2895 6.12611 22.0669 4.50867C19.8444 2.89122 17.1663 2.01991 14.4175 2.01991C11.6687 2.01991 8.99064 2.89122 6.76808 4.50867C4.54551 6.12611 2.89284 8.40644 2.0475 11.022Z" fill="#FFFAFA"/>
</svg>
