<svg width="375" height="390" viewBox="0 0 375 390" fill="none" xmlns="http://www.w3.org/2000/svg">
  <path fill-rule="evenodd" clip-rule="evenodd" d="M0 244H306V390H0V244Z" fill="white"/>
  <path fill-rule="evenodd" clip-rule="evenodd" d="M0 130H147V244H0V130Z" fill="white"/>
  <path fill-rule="evenodd" clip-rule="evenodd" d="M0 0H375V141H0V0Z" fill="white"/>
  <path d="M29.576 115H50.056V70.456L74.888 95.2879L99.72 70.456V115H120.2V23.0959L74.888 68.536L29.576 23.0959V115Z" fill="#1B1B1D"/>
  <path d="M177.902 115H197.23V51H177.902V54.84C174.19 51.768 169.07 49.976 163.822 49.976C144.878 49.976 132.846 65.464 132.846 83C132.846 100.536 144.878 116.024 163.822 116.024C169.07 116.024 174.19 114.36 177.902 111.288V115ZM167.022 98.36C157.806 98.36 152.302 91.448 152.302 83C152.302 74.552 157.806 67.64 167.022 67.64C171.758 67.64 175.214 69.56 177.902 73.016V93.112C175.214 96.568 171.758 98.36 167.022 98.36Z" fill="#1B1B1D"/>
  <path d="M212.302 115H231.63V83.128L255.31 115H278.094L253.006 81.336L274.766 51H252.494L231.63 80.184V24.1199H212.302V115Z" fill="#1B1B1D"/>
  <path d="M308.98 116.024C321.652 116.024 332.02 109.88 337.908 100.664L322.548 90.296C319.988 95.032 315.636 98.36 308.852 98.36C303.092 98.36 295.796 95.032 294.9 86.456H339.828C340.084 84.536 340.212 82.616 340.212 80.824C340.212 60.6 325.62 49.976 309.364 49.976C289.652 49.976 276.34 64.184 276.34 83C276.34 102.712 292.084 116.024 308.98 116.024ZM308.212 65.464C314.484 65.464 320.116 68.408 321.14 75.192H295.028C296.82 67.512 303.604 65.464 308.212 65.464Z" fill="#1B1B1D"/>
  <path d="M29.32 165.912H47.24C48.904 163.992 49.8 161.432 49.8 158.616C49.8 152.216 44.68 147.096 38.28 147.096C31.88 147.096 26.76 152.216 26.76 158.616C26.76 161.432 27.656 163.992 29.32 165.912ZM28.552 239H47.88V175H28.552V239Z" fill="#1B1B1D"/>
  <path d="M58.188 191.896H66.508V219.288C66.508 231.448 74.06 239 86.092 239H103.756V221.336H93.26C88.012 221.336 85.836 219.16 85.836 213.784V191.896H101.836L106.06 175H85.836V155.8L66.508 165.4V175H53.964L58.188 191.896Z" fill="#1B1B1D"/>
  <path d="M78.472 363H102.92L73.352 324.472C83.848 320.376 90.888 310.52 90.888 299.128C90.888 284.28 78.728 272.12 63.88 272.12H29.576V363H50.056V326.136H50.312L78.472 363ZM50.056 308.856V290.808H61.576C67.08 290.808 71.048 294.904 71.048 299.896C71.048 304.888 67.08 308.856 61.576 308.856H50.056Z" fill="#1B1B1D"/>
  <path d="M133.98 364.024C146.652 364.024 157.02 357.88 162.908 348.664L147.548 338.296C144.988 343.032 140.636 346.36 133.852 346.36C128.092 346.36 120.796 343.032 119.9 334.456H164.828C165.084 332.536 165.212 330.616 165.212 328.824C165.212 308.6 150.62 297.976 134.364 297.976C114.652 297.976 101.34 312.184 101.34 331C101.34 350.712 117.084 364.024 133.98 364.024ZM133.212 313.464C139.484 313.464 145.116 316.408 146.14 323.192H120.028C121.82 315.512 128.604 313.464 133.212 313.464Z" fill="#1B1B1D"/>
  <path d="M218.027 363H237.355V299H218.027V302.84C214.315 299.768 209.195 297.976 203.947 297.976C185.003 297.976 172.971 313.464 172.971 331C172.971 348.536 185.003 364.024 203.947 364.024C209.195 364.024 214.315 362.36 218.027 359.288V363ZM207.147 346.36C197.931 346.36 192.427 339.448 192.427 331C192.427 322.552 197.931 315.64 207.147 315.64C211.883 315.64 215.339 317.56 218.027 321.016V341.112C215.339 344.568 211.883 346.36 207.147 346.36Z" fill="#1B1B1D"/>
  <path d="M252.427 363H271.755V272.12H252.427V363Z" fill="#1B1B1D"/>
</svg>
