<svg width="200" height="200" viewBox="0 0 200 200" fill="none" xmlns="http://www.w3.org/2000/svg">
<path d="M85.2123 173.572C83.5316 173.268 81.8813 173.837 80.7454 174.955L82.171 176.621C82.8083 175.911 83.7899 175.505 84.8369 175.695C86.4212 175.982 87.3882 177.508 87.1103 179.08C86.8324 180.651 85.4023 181.744 83.8181 181.458C82.7711 181.268 81.9893 180.543 81.6348 179.654L79.7265 180.717C80.4091 182.164 81.762 183.276 83.4427 183.581C86.198 184.079 88.8408 182.238 89.3283 179.481C89.8158 176.724 87.9676 174.07 85.2123 173.572Z" fill="white"/>
<path d="M70.2029 169.128L67.7139 168.151L69.2148 173.267C67.9857 173.266 66.8829 173.991 66.4366 175.154C65.8549 176.67 66.6165 178.398 68.1282 178.992L71.6206 180.363L75.1809 171.083L73.0959 170.264L71.6517 174.028L71.6256 174.018L70.2029 169.128ZM70.9747 175.793L70.2677 177.636L69.0949 177.175C68.5345 176.955 68.291 176.379 68.4866 175.869C68.6821 175.359 69.2416 175.112 69.8019 175.332L70.9747 175.793Z" fill="white"/>
<path d="M62.4634 165.265L57.2351 162.008L56.0849 163.898L59.412 165.97L58.5385 167.405L55.9244 165.777L54.8033 167.618L57.4175 169.247L56.544 170.682L53.2169 168.609L52.0667 170.499L57.295 173.756L62.4634 165.265Z" fill="white"/>
<path d="M52.5417 158.55L50.8169 156.95L49.2595 157.606L46.5696 155.113L47.0799 153.486L45.3551 151.887L42.2001 162.668L52.5417 158.55ZM47.3806 158.346L45.3017 159.244L46.0048 157.071L47.3806 158.346Z" fill="white"/>
<path d="M40.3527 145.722L39.0187 143.922L32.8623 148.593L31.4366 146.67L29.6745 148.007L33.8515 153.642L35.6137 152.305L34.1963 150.393L40.3527 145.722Z" fill="white"/>
<path d="M34.0133 135.876L32.9773 133.89L24.2089 138.571L25.245 140.557L34.0133 135.876Z" fill="white"/>
<path d="M28.7812 123.31L17.7935 122.022L18.5636 124.392L23.9589 124.914L19.922 128.573L20.6921 130.943L28.7812 123.31Z" fill="white"/>
<path d="M25.9839 112.456L25.2116 106.345L23.0179 106.628L23.5094 110.517L21.8433 110.733L21.4571 107.677L19.3189 107.954L19.7051 111.01L18.039 111.225L17.5475 107.336L15.3538 107.62L16.1261 113.731L25.9839 112.456Z" fill="white"/>
<path d="M26.2627 86.8936C26.5775 85.0726 25.6575 83.5734 23.8929 83.2611C22.5419 83.022 21.4272 83.6352 20.5869 84.8797L20.2619 85.3625C19.707 86.1884 19.3574 86.5673 18.8473 86.477C18.4061 86.399 18.2386 85.9712 18.303 85.5987C18.3817 85.1435 18.5582 84.862 19.2507 84.4727L17.9367 82.7047C16.8286 83.3616 16.4235 84.143 16.2351 85.2328C15.9656 86.7917 16.8365 88.4102 18.546 88.7127C19.8694 88.9469 21.0992 88.3257 22.0162 86.9667L22.3597 86.4588C22.875 85.697 23.2056 85.4285 23.6468 85.5066C24.1017 85.5871 24.2998 85.9207 24.1876 86.5691C24.0708 87.245 23.4115 87.8534 22.662 88.1616L23.7382 90.0723C25.1234 89.6208 25.9908 88.4663 26.2627 86.8936Z" fill="white"/>
<path d="M28.4691 76.8933L29.2714 74.8019L25.6487 73.3795L27.0728 69.6672L30.6956 71.0897L31.4979 68.9983L22.2455 65.3654L21.4432 67.4568L25.066 68.8793L23.6419 72.5915L20.0191 71.169L19.2168 73.2604L28.4691 76.8933Z" fill="white"/>
<path d="M35.6539 57.4032C34.7671 58.747 32.9941 59.0192 31.6716 58.1259C30.349 57.2326 29.9177 55.4716 30.8044 54.1278C31.6912 52.784 33.4642 52.5118 34.7868 53.4051C36.1094 54.2984 36.5407 56.0594 35.6539 57.4032ZM37.4406 58.6099C38.9828 56.2729 38.3486 53.091 36.0283 51.5238C33.7079 49.9566 30.56 50.584 29.0178 52.921C27.4756 55.258 28.1098 58.44 30.4301 60.0072C32.7504 61.5744 35.8984 60.947 37.4406 58.6099Z" fill="white"/>
<path d="M46.4494 47.3092L44.4596 41.3068L50.25 43.7078L45.9209 33.9627L44.2645 35.5324L46.3138 40.0126L41.4446 38.0502L43.0619 43.0941L38.7769 40.7324L37.1205 42.302L46.4494 47.3092Z" fill="white"/>
<path d="M62.369 34.8261L64.6541 33.4374L59.7389 31.4936C60.4912 30.5121 60.5989 29.1853 59.9627 28.114C59.1336 26.7176 57.318 26.2647 55.9302 27.1081L52.7239 29.0567L57.7988 37.6036L59.713 36.4403L57.6544 32.9734L57.6784 32.9588L62.369 34.8261ZM56.6895 31.3482L55.6816 29.6509L56.7584 28.9965C57.2728 28.6839 57.8725 28.8437 58.1512 29.3132C58.43 29.7826 58.2807 30.3812 57.7662 30.6939L56.6895 31.3482Z" fill="white"/>
<path d="M70.0431 30.9076L75.8021 28.7214L75.0329 26.6475L71.3681 28.0387L70.7839 26.4635L73.6634 25.3704L72.9137 23.349L70.0342 24.4421L69.45 22.8669L73.1148 21.4757L72.3456 19.4018L66.5866 21.5879L70.0431 30.9076Z" fill="white"/>
<path d="M82.6145 26.8042L88.6717 25.6839L88.2784 23.5072L84.4237 24.2201L84.125 22.5669L87.1536 22.0067L86.7702 19.8851L83.7416 20.4452L83.4428 18.792L87.2975 18.0791L86.9041 15.9023L80.8468 17.0227L82.6145 26.8042Z" fill="white"/>
<path d="M95.5123 25.0514L101.616 25.0038L101.599 22.7779L97.7352 22.808L97.6763 15.0942L95.4363 15.1117L95.5123 25.0514Z" fill="white"/>
</svg>
