<svg width="201" height="200" viewBox="0 0 201 200" fill="none" xmlns="http://www.w3.org/2000/svg">
<path d="M33.0644 133.29C32.2793 131.617 30.6683 130.919 29.0461 131.681C27.804 132.263 27.2432 133.408 27.2684 134.912L27.2789 135.494C27.2979 136.491 27.2288 137.003 26.7599 137.223C26.3543 137.413 25.9723 137.159 25.8118 136.817C25.6155 136.399 25.5987 136.066 25.9423 135.348L23.8551 134.658C23.3248 135.834 23.4408 136.708 23.9107 137.709C24.5827 139.141 26.2219 139.965 27.7934 139.227C29.0101 138.657 29.6605 137.439 29.6325 135.797L29.6227 135.183C29.6081 134.262 29.7248 133.852 30.1303 133.662C30.5486 133.465 30.9016 133.624 31.1811 134.22C31.4725 134.841 31.2816 135.719 30.8449 136.404L32.8193 137.349C33.6938 136.18 33.7424 134.735 33.0644 133.29Z" fill="white"/>
<path d="M29.2596 124.258L28.7271 122.082L23.9948 123.24L25.9873 119.956L22.7035 117.964L27.4358 116.806L26.9034 114.63L17.1395 117.019L23.1452 120.652L19.4957 126.647L29.2596 124.258Z" fill="white"/>
<path d="M26.0303 107.586L26.0032 105.346L21.1315 105.405L23.8144 102.656L21.0657 99.9733L25.9373 99.9142L25.9101 97.6744L15.8589 97.7963L20.8886 102.692L15.979 107.708L26.0303 107.586Z" fill="white"/>
<path d="M29.7964 78.4529C30.3649 76.6945 29.664 75.0849 27.9589 74.5336C26.6534 74.1116 25.4622 74.5651 24.454 75.6811L24.0639 76.1141C23.3976 76.8551 22.9977 77.182 22.5048 77.0226C22.0786 76.8848 21.9727 76.4386 22.089 76.0789C22.2311 75.6393 22.4457 75.385 23.1869 75.0949L22.1333 73.1653C20.9425 73.6631 20.431 74.3806 20.0908 75.433C19.6041 76.9383 20.2396 78.6592 21.8914 79.1932C23.1703 79.6066 24.4767 79.1608 25.5769 77.9422L25.989 77.4869C26.607 76.8039 26.9725 76.5836 27.3988 76.7214C27.8384 76.8635 27.9877 77.2208 27.7853 77.8469C27.5743 78.4996 26.8351 79.011 26.0489 79.213L26.8466 81.2512C28.2832 80.9946 29.3055 79.9715 29.7964 78.4529Z" fill="white"/>
<path d="M33.3723 68.961L34.4585 67.002L31.0547 65.1147L32.9827 61.6374L36.3865 63.5247L37.4727 61.5657L28.7795 56.7457L27.6933 58.7047L31.0971 60.592L29.1692 64.0693L25.7653 62.182L24.6791 64.1411L33.3723 68.961Z" fill="white"/>
<path d="M43.3576 50.546C42.2889 51.7502 40.4857 51.7784 39.292 50.719C38.0983 49.6596 37.912 47.8658 38.9806 46.6616C40.0493 45.4574 41.8525 45.4293 43.0462 46.4886C44.2399 47.548 44.4262 49.3418 43.3576 50.546ZM44.9701 51.9771C46.8287 49.8828 46.6366 46.6613 44.5423 44.8028C42.4481 42.9442 39.2266 43.1363 37.3681 45.2306C35.5095 47.3248 35.7016 50.5463 37.7958 52.4048C39.8901 54.2634 43.1116 54.0713 44.9701 51.9771Z" fill="white"/>
<path d="M55.7222 41.9877L54.5736 35.7972L60.007 38.9783L57.0479 28.773L55.1805 30.0846L56.5997 34.7848L52.0228 32.1655L52.9336 37.3596L48.9939 34.4297L47.1265 35.7413L55.7222 41.9877Z" fill="white"/>
<path d="M73.7559 31.7937L76.2185 30.7517L71.598 28.131C72.4807 27.2711 72.7698 25.9783 72.2842 24.8308C71.6514 23.3351 69.9083 22.6285 68.4126 23.2614L64.9572 24.7235L68.8306 33.8777L70.8936 33.0048L69.3224 29.2916L69.3482 29.2806L73.7559 31.7937ZM68.5859 27.551L67.8167 25.733L68.9771 25.242C69.5315 25.0074 70.1057 25.2509 70.3185 25.7537C70.5313 26.2566 70.3007 26.8254 69.7463 27.06L68.5859 27.551Z" fill="white"/>
<path d="M82.1018 29.0611L88.1169 27.7328L87.6399 25.5729L83.8121 26.4181L83.4499 24.7776L86.4574 24.1135L85.9926 22.0082L82.985 22.6723L82.6228 21.0319L86.4506 20.1866L85.9736 18.0266L79.9585 19.3549L82.1018 29.0611Z" fill="white"/>
<path d="M95.0232 26.8882L101.178 26.6316L101.086 24.4215L97.1691 24.5848L97.0991 22.9063L100.176 22.7779L100.087 20.6238L97.0092 20.7522L96.9392 19.0736L100.856 18.9103L100.764 16.7002L94.609 16.9569L95.0232 26.8882Z" fill="white"/>
<path d="M108.346 27.0308L114.395 27.8492L114.694 25.6433L110.865 25.1252L111.899 17.4809L109.679 17.1805L108.346 27.0308Z" fill="white"/>
</svg>
