<svg width="200" height="200" viewBox="0 0 200 200" fill="none" xmlns="http://www.w3.org/2000/svg">
<path d="M91.0836 171.308L87.8018 176.681L85.885 170.684L81.2674 180.254L83.5332 180.526L85.6178 176.08L87.2729 181.087L90.0659 176.614L91.0393 181.427L93.305 181.699L91.0836 171.308Z" fill="white"/>
<path d="M77.1699 168.982L74.9586 168.181L73.7626 169.385L70.3141 168.136L70.1676 166.445L67.9563 165.643L69.138 176.763L77.1699 168.982ZM72.3001 170.791L70.7122 172.42L70.5364 170.152L72.3001 170.791Z" fill="white"/>
<path d="M60.8344 161.807L58.9185 160.647L54.9146 167.257L52.867 166.016L51.721 167.908L57.7202 171.542L58.8662 169.65L56.8305 168.417L60.8344 161.807Z" fill="white"/>
<path d="M48.2869 152.339C47.0235 151.189 45.32 150.794 43.7603 151.135L44.0807 153.3C45 153.039 46.049 153.217 46.8361 153.933C48.027 155.017 48.033 156.82 46.959 158.001C45.885 159.181 44.089 159.346 42.8981 158.262C42.111 157.546 41.8345 156.519 42.0081 155.579L39.8224 155.464C39.6297 157.049 40.1838 158.708 41.4473 159.857C43.5184 161.741 46.7421 161.589 48.6263 159.518C50.5105 157.446 50.3581 154.223 48.2869 152.339Z" fill="white"/>
<path d="M40.8696 144.702L39.5719 142.876L36.3996 145.131L34.0961 141.89L37.2684 139.635L35.9706 137.809L27.8687 143.568L29.1665 145.394L32.3388 143.139L34.6423 146.38L31.47 148.635L32.7677 150.46L40.8696 144.702Z" fill="white"/>
<path d="M28.1223 119.696C27.5985 117.924 26.1111 116.991 24.3926 117.499C23.0769 117.888 22.3498 118.935 22.148 120.425L22.0705 121.003C21.9391 121.991 21.7936 122.486 21.2968 122.633C20.8672 122.76 20.5278 122.452 20.4207 122.089C20.2897 121.646 20.3233 121.315 20.7712 120.657L18.8121 119.659C18.1103 120.743 18.0933 121.624 18.4068 122.684C18.8552 124.201 20.3514 125.263 22.0162 124.771C23.3051 124.39 24.1316 123.284 24.3515 121.657L24.4344 121.049C24.5589 120.136 24.7361 119.748 25.1657 119.621C25.6088 119.49 25.9338 119.7 26.1203 120.331C26.3147 120.989 25.9935 121.829 25.4586 122.439L27.2679 123.671C28.3087 122.648 28.5746 121.227 28.1223 119.696Z" fill="white"/>
<path d="M25.7814 109.879L25.5916 107.647L21.7136 107.977L21.3767 104.016L25.2547 103.686L25.0648 101.454L15.1606 102.296L15.3504 104.528L19.2284 104.198L19.5654 108.16L15.6874 108.49L15.8772 110.722L25.7814 109.879Z" fill="white"/>
<path d="M23.9219 88.7538C23.6932 90.3475 22.2037 91.3642 20.6239 91.1376C19.0441 90.9109 17.9006 89.5163 18.1292 87.9226C18.3579 86.329 19.8474 85.3122 21.4272 85.5389C23.0071 85.7656 24.1506 87.1601 23.9219 88.7538ZM26.0561 89.06C26.4538 86.2884 24.519 83.7054 21.7474 83.3078C18.9758 82.9101 16.3928 84.8448 15.9951 87.6164C15.5974 90.388 17.5322 92.971 20.3038 93.3687C23.0754 93.7664 25.6584 91.8317 26.0561 89.06Z" fill="white"/>
<path d="M29.6097 74.8898L25.2869 70.3121L31.5771 70.0374L23.5557 63.0689L22.6982 65.1837L26.44 68.3625L21.1741 68.6446L24.7567 72.5142L19.8576 72.1897L19.0002 74.3045L29.6097 74.8898Z" fill="white"/>
<path d="M39.1543 56.935L40.6795 54.7387L35.3736 54.9915C35.6604 53.793 35.2141 52.5457 34.1907 51.835C32.8567 50.9087 31.0057 51.2425 30.0794 52.5764L27.9394 55.6583L36.1039 61.3278L37.3816 59.4879L34.0697 57.1882L34.0857 57.1652L39.1543 56.935ZM32.5173 56.1101L30.8959 54.9842L31.6146 53.9493C31.9579 53.4548 32.5735 53.3539 33.0219 53.6653C33.4704 53.9767 33.5794 54.5807 33.236 55.0752L32.5173 56.1101Z" fill="white"/>
<path d="M44.7612 50.1778L49.1642 45.8697L47.6172 44.2887L44.8153 47.0301L43.6403 45.8293L45.8418 43.6753L44.334 42.1342L42.1325 44.2883L40.9576 43.0875L43.7595 40.346L42.2125 38.7649L37.8095 43.0729L44.7612 50.1778Z" fill="white"/>
<path d="M54.5111 41.5555L59.6091 38.0977L58.3674 36.2671L55.1233 38.4675L54.1802 37.0771L56.7292 35.3482L55.519 33.5639L52.97 35.2928L52.027 33.9024L55.2712 31.7021L54.0295 29.8714L48.9315 33.3292L54.5111 41.5555Z" fill="white"/>
<path d="M65.9548 34.672L71.5496 32.2314L70.6595 30.191L67.1179 31.736L64.0335 24.6655L61.9804 25.5611L65.9548 34.672Z" fill="white"/>
</svg>
