<svg width="168" height="16" viewBox="0 0 168 16" fill="none" xmlns="http://www.w3.org/2000/svg">
<path d="M1.81297 15.8114H0V0.188721H7.21318C8.91002 0.188721 10.252 0.64784 11.2585 1.55979C12.2456 2.47174 12.736 3.69187 12.736 5.21388C12.736 6.75476 12.2392 7.98117 11.2456 8.88054C10.252 9.7862 8.91002 10.239 7.21318 10.239H1.81297V15.8114ZM1.81297 1.86168V8.58495H7.09059C8.34871 8.58495 9.30358 8.28935 9.94877 7.68558C10.594 7.08809 10.9165 6.26419 10.9165 5.22017C10.9165 4.17614 10.594 3.35224 9.94877 2.75476C9.30358 2.15727 8.34871 1.85539 7.09059 1.85539H1.81297V1.86168Z" fill="black"/>
<path d="M21.8589 15.8114H20.0459V0.188721H27.7172C29.3495 0.188721 30.6528 0.628972 31.6399 1.50948C32.627 2.3774 33.1174 3.55979 33.1174 5.06922C33.1174 7.01891 32.2851 8.34595 30.627 9.05664C30.156 9.26419 29.6979 9.40885 29.2463 9.50319L33.4593 15.8051H31.3044L27.4333 9.81136H21.8653V15.8114H21.8589ZM21.8589 8.13841H27.401C29.1108 8.13841 30.2915 7.61639 30.9366 6.57866C31.1818 6.18872 31.2979 5.67929 31.2979 5.06922C31.2979 4.07551 30.9495 3.29564 30.2592 2.72331C29.5624 2.15098 28.6462 1.86168 27.4978 1.86168H21.8589V8.13841Z" fill="black"/>
<path d="M48.189 0C50.5762 0 52.5376 0.779874 54.0731 2.33333C55.5764 3.84277 56.3248 5.72956 56.3248 7.99371C56.3248 10.2579 55.5764 12.1447 54.0731 13.6541C52.5376 15.2138 50.5762 15.9874 48.189 15.9874C45.8018 15.9874 43.8405 15.2075 42.3049 13.6541C40.8016 12.1447 40.0532 10.2579 40.0532 7.99371C40.0532 5.72956 40.8016 3.84277 42.3049 2.33333C43.8405 0.779874 45.8018 0 48.189 0ZM48.189 14.2767C50.0923 14.2767 51.6343 13.673 52.815 12.4591C53.9441 11.2956 54.5118 9.81132 54.5118 8C54.5118 6.18868 53.9441 4.7044 52.815 3.54088C51.6343 2.32704 50.0988 1.72327 48.189 1.72327C46.2857 1.72327 44.7437 2.32704 43.563 3.54088C42.434 4.7044 41.8662 6.18868 41.8662 8C41.8662 9.81132 42.434 11.2956 43.563 12.4591C44.7437 13.6667 46.2857 14.2767 48.189 14.2767Z" fill="black"/>
<path d="M76.3125 4.3208C76.3125 6.03778 75.5964 7.20759 74.1576 7.83652C75.4802 8.26419 76.3835 9.03778 76.8674 10.1699C77.0416 10.6101 77.1319 11.1195 77.1319 11.7044C77.1319 13.5912 76.1061 14.8491 74.0608 15.478C73.3834 15.6982 72.5834 15.8114 71.6672 15.8114H64.0669V0.188721H71.2543C72.9834 0.188721 74.2931 0.64784 75.2028 1.55979C75.9448 2.28306 76.3125 3.2013 76.3125 4.3208ZM65.8799 7.16985H71.2543C72.7382 7.16985 73.7318 6.673 74.2286 5.68558C74.4028 5.33966 74.4931 4.9686 74.4931 4.56608C74.4931 4.16356 74.435 3.81136 74.3253 3.50319C74.2092 3.19501 74.035 2.92457 73.7898 2.69187C73.2543 2.13841 72.4737 1.86797 71.4414 1.86797H65.8734V7.16985H65.8799ZM71.8607 14.1321C72.9769 14.1321 73.8286 13.9057 74.4286 13.4592C75.0222 13.0126 75.3254 12.3774 75.3254 11.5598C75.3254 10.7736 75.0351 10.1258 74.4544 9.62268C73.8092 9.05665 72.8801 8.77363 71.6736 8.77363H65.8863V14.1321H71.8607Z" fill="black"/>
<path d="M86.7451 15.8114H84.9321V0.188721H86.7451V15.8114Z" fill="black"/>
<path d="M96.4744 14.1573H106.933V15.8114H94.2485V14.1384L104.707 1.84281H94.3969V0.188721H106.933V1.88683L96.4744 14.1573Z" fill="black"/>
<path d="M128.302 0.188721V15.8051H126.198L116.301 2.61639V15.8051H114.488V0.188721H116.592L126.489 13.3334V0.188721H128.302Z" fill="black"/>
<path d="M138.883 1.88683V7.12583H147.793V8.8491H138.883V14.1132H148.857V15.8114H137.07V0.188721H148.857V1.88683H138.883Z" fill="black"/>
<path d="M168 1.88683H162.406V15.8051H160.593V1.88683H155V0.188721H168V1.88683Z" fill="black"/>
</svg>
