<svg width="152" height="35" viewBox="0 0 152 35" fill="none" xmlns="http://www.w3.org/2000/svg">
<path d="M68.5858 10.1372H44.9715L43.8301 12.98H52.0544L47.2544 25.4904H54.1012L58.9012 12.98H67.4444L68.5858 10.1372Z" fill="#4F4F4F"/>
<path d="M76.9895 10.1372H70.1841L69.0879 12.98H75.8933L76.9895 10.1372Z" fill="#4F4F4F"/>
<path d="M68.5384 14.4421L64.1714 25.4902H70.9768L75.3438 14.4421H68.5384Z" fill="#4F4F4F"/>
<path d="M101.546 13.5446C101.517 13.3754 101.328 11.5803 97.1713 10.6752C94.6247 10.0533 89.5649 9.6388 81.191 10.3975L75.2495 25.4902H81.9388L84.3181 19.4318C84.3181 19.4318 87.2584 19.39 87.8311 19.506C88.3191 19.6049 90.2714 19.6771 90.6611 21.668C91.035 23.5734 91.2633 24.9653 91.6156 25.4902H98.5942C98.5942 25.4902 98.2202 25.0414 98.0215 24.0982C97.8699 23.3794 97.3799 20.6336 96.9568 19.9661C96.5612 19.3405 95.8311 18.6198 94.3531 18.308C94.3452 18.3004 94.3452 18.2509 94.3452 18.2509C94.3452 18.2509 98.3383 17.7565 100.417 16.0604C101.78 14.9004 101.576 13.7138 101.546 13.5446ZM94.4889 14.463C94.298 16.5757 89.801 16.8856 89.2756 16.9332C88.7501 16.9807 85.3533 16.9655 85.3533 16.9655L87.0045 12.7079C87.5595 12.6147 89.8089 12.5957 90.4958 12.6185C91.1826 12.6414 94.6483 12.8581 94.4889 14.463Z" fill="#4F4F4F"/>
<path d="M152 10.1217H143.902C143.902 10.1217 141.072 12.3332 140.379 12.8714C139.687 13.4095 137.179 15.621 137.179 15.621H137.063C137.063 15.621 135.778 13.3943 135.461 12.8714C135.221 12.4739 133.662 10.1198 133.662 10.1198H126.479L132.053 17.6519L120.243 25.4387L121.343 22.6568H108.537L109.979 18.9925H121.307L122.427 16.1611H111.095L112.361 12.9493H124.371L125.491 10.1179H113.476H109.79H106.697L100.645 25.4863H104.524H107.425H120.17H120.225H128.323C128.323 25.4863 131.143 23.271 131.856 22.6986C132.568 22.1262 135.302 19.7835 135.302 19.7835H135.418C135.51 20.0383 137.069 22.3392 137.256 22.6035C137.443 22.8678 139.285 25.4977 139.285 25.4977H146.506L140.405 17.6633L152 10.1217Z" fill="#4F4F4F"/>
<path d="M20.6271 0C15.097 0 8.54742 2.92269 8.15184 10.0801C7.9885 13.482 10.4229 15.0736 12.3988 15.009C14.3747 14.9462 16.1833 14.4043 20.9892 10.3026C23.2269 8.45811 27.9678 6.67636 30.6345 6.93116C33.0335 7.15935 34.0569 7.44078 35.5723 8.36303C35.5723 8.36113 32.6753 0.384114 20.6271 0Z" fill="#4F4F4F"/>
<path d="M25.8736 19.9912C23.8977 20.0539 22.0891 20.5958 17.2832 24.6975C15.0456 26.542 10.3046 28.3238 7.63796 28.069C5.23894 27.8408 4.21557 27.5593 2.7002 26.6371C2.7002 26.6371 5.59712 34.6141 17.6434 34.9982C23.1735 34.9982 29.7231 32.0755 30.1186 24.9181C30.2859 21.5162 27.8495 19.9265 25.8736 19.9912Z" fill="#4F4F4F"/>
<path d="M38.1895 17.1557C38.1245 14.3775 37.5971 9.09881 32.0237 9.01324C27.942 8.90675 22.7622 12.0671 19.1194 14.6951C16.5491 16.4255 12.6269 18.8956 9.54102 19.7095C8.9762 19.6657 8.47238 19.5345 8.02761 19.3273C7.47853 19.0059 7.01211 18.6389 6.61851 18.2396C4.74692 16.0452 4.69182 11.9188 5.38653 9.32319C7.77374 2.19617 13.4574 0.319336 13.4574 0.319336C6.48468 1.70557 2.16685 8.01683 1.05295 11.9587C0.454672 13.7481 -1.8853 21.7518 3.2532 25.3628C5.36095 26.6996 9.48591 25.745 11.9007 24.6212C14.3154 23.4974 16.3779 22.4154 19.3614 20.1468C21.7309 18.4088 26.8675 15.7143 28.5777 15.2694C28.6151 15.2598 28.6525 15.2503 28.6918 15.2408C28.6879 15.2446 28.6839 15.2484 28.68 15.2541C29.2822 15.2598 29.8156 15.412 30.2899 15.6744C30.3981 15.739 30.5063 15.8037 30.6067 15.8721C30.6106 15.8759 30.6165 15.8778 30.6205 15.8817C30.6559 15.9045 30.6874 15.9292 30.7208 15.9539C33.1277 17.7794 33.6532 22.7539 32.8778 25.6461C30.4906 32.777 24.8069 34.6519 24.8069 34.6519C31.9056 33.2409 35.9302 27.2301 37.1287 23.2863C37.1976 23.0296 37.2547 22.7843 37.3078 22.5428C37.2625 22.79 37.2114 23.0125 37.1582 23.2007C37.1582 23.1988 38.2564 20.1468 38.1895 17.1557Z" fill="#4F4F4F"/>
</svg>
