<?xml version="1.0" encoding="utf-8"?>
<!-- Generator: Adobe Illustrator 23.0.2, SVG Export Plug-In . SVG Version: 6.00 Build 0)  -->
<svg version="1.1" id="Layer_1" xmlns="http://www.w3.org/2000/svg" xmlns:xlink="http://www.w3.org/1999/xlink" x="0px" y="0px"
	 viewBox="0 0 1085 420" style="enable-background:new 0 0 1085 420;" xml:space="preserve">
<style type="text/css">
	.st0{fill:#D0D0D0;}
	.st1{fill:#C3C3C3;}
	.st2{fill:#B9B9B9;}
	.st3{enable-background:new    ;}
	.st4{fill:#FFFFFF;}
</style>
<circle id="Ellipse_5" class="st0" cx="875" cy="210" r="210"/>
<circle id="Ellipse_4" class="st1" cx="542.5" cy="210" r="210"/>
<circle id="Ellipse_6" class="st2" cx="210" cy="210" r="210"/>
<g class="st3">
	<path class="st4" d="M109.03,195.31h16.71v2.79h-13.74v8.73h13v2.79h-13v8.91h13.74v2.79h-16.71V195.31z"/>
	<path class="st4" d="M130.4,202.74h2.41l0.37,2.04h0.19c0,0,1.86-2.41,5.57-2.41c4.27,0,7.43,3.16,7.43,7.8v11.14h-2.79v-11.14
		c0-2.97-2.23-5.2-5.01-5.2c-2.97,0-5.39,2.41-5.39,5.2v11.14h-2.79V202.74z"/>
	<path class="st4" d="M148.6,202.74h2.97l5.57,15.6h0.74l5.57-15.6h2.97l-6.69,18.57h-4.46L148.6,202.74z"/>
	<path class="st4" d="M169.41,195.68h3.16v3.16h-3.16V195.68z M169.6,202.74h2.79v18.57h-2.79V202.74z"/>
	<path class="st4" d="M177.77,202.74h2.41l0.37,1.86h0.19c0.74-1.11,1.49-1.86,3.53-1.86h3.16v2.6h-2.79c-2.6,0-4.09,1.49-4.09,4.09
		v11.89h-2.79V202.74z"/>
	<path class="st4" d="M188.54,212.02c0-5.76,3.9-9.66,8.91-9.66c5.02,0,8.91,3.9,8.91,9.66c0,5.76-3.9,9.66-8.91,9.66
		C192.44,221.68,188.54,217.78,188.54,212.02z M203.59,212.02c0-4.27-2.79-7.06-6.13-7.06s-6.13,2.79-6.13,7.06s2.79,7.06,6.13,7.06
		S203.59,216.29,203.59,212.02z"/>
	<path class="st4" d="M210.46,202.74h2.41l0.37,2.04h0.19c0,0,1.86-2.41,5.57-2.41c4.27,0,7.43,3.16,7.43,7.8v11.14h-2.79v-11.14
		c0-2.97-2.23-5.2-5.01-5.2c-2.97,0-5.39,2.41-5.39,5.2v11.14h-2.79V202.74z"/>
	<path class="st4" d="M231.64,202.74h2.41l0.37,2.04h0.19c0,0,1.86-2.41,4.83-2.41c3.9,0,5.39,3.16,5.39,3.16h0.19
		c0,0,2.04-3.16,6.13-3.16c3.9,0,6.69,2.97,6.69,7.24v11.7h-2.79v-11.7c0-2.79-1.67-4.64-4.27-4.64c-2.41,0-4.64,2.04-4.64,4.64
		v11.7h-2.79v-11.7c0-2.79-1.67-4.64-4.27-4.64c-2.41,0-4.64,2.04-4.64,4.64v11.7h-2.79V202.74z"/>
	<path class="st4" d="M278.82,216.11c-1.3,3.53-4.09,5.57-7.99,5.57c-5.01,0-8.91-3.9-8.91-9.66c0-5.76,3.9-9.66,8.91-9.66
		c4.83,0,8.54,3.71,8.54,8.91c0,1.49-0.19,2.04-0.19,2.04h-14.49c0.37,3.53,3.01,5.76,6.13,5.76c2.23,0,4.09-1.11,5.02-2.97H278.82z
		 M276.59,210.72c-0.19-3.34-2.6-5.76-5.76-5.76c-3.34,0-5.76,2.41-6.13,5.76H276.59z"/>
	<path class="st4" d="M283.47,202.74h2.41l0.37,2.04h0.19c0,0,1.86-2.41,5.57-2.41c4.27,0,7.43,3.16,7.43,7.8v11.14h-2.79v-11.14
		c0-2.97-2.23-5.2-5.01-5.2c-2.97,0-5.39,2.41-5.39,5.2v11.14h-2.79V202.74z"/>
	<path class="st4" d="M305.2,205.34h-2.97v-2.6h2.97v-5.2h2.79v5.2h4.27v2.6h-4.27v12.26c0,0.74,0.37,1.11,1.11,1.11h3.16v2.6h-3.71
		c-2.04,0-3.34-1.3-3.34-3.16V205.34z"/>
</g>
<g class="st3">
	<path class="st4" d="M510.92,198.09h-8.54v-2.79h20.06v2.79h-8.54v23.21h-2.97V198.09z"/>
	<path class="st4" d="M525.97,195.68h3.16v3.16h-3.16V195.68z M526.15,202.74h2.79v18.57h-2.79V202.74z"/>
	<path class="st4" d="M534.32,202.74h2.41l0.37,2.04h0.19c0,0,1.86-2.41,4.83-2.41c3.9,0,5.39,3.16,5.39,3.16h0.19
		c0,0,2.04-3.16,6.13-3.16c3.9,0,6.69,2.97,6.69,7.24v11.7h-2.79v-11.7c0-2.79-1.67-4.64-4.27-4.64c-2.41,0-4.64,2.04-4.64,4.64
		v11.7h-2.79v-11.7c0-2.79-1.67-4.64-4.27-4.64c-2.41,0-4.64,2.04-4.64,4.64v11.7h-2.79V202.74z"/>
	<path class="st4" d="M581.51,216.11c-1.3,3.53-4.09,5.57-7.99,5.57c-5.02,0-8.92-3.9-8.92-9.66c0-5.76,3.9-9.66,8.92-9.66
		c4.83,0,8.54,3.71,8.54,8.91c0,1.49-0.19,2.04-0.19,2.04h-14.49c0.37,3.53,3.01,5.76,6.13,5.76c2.23,0,4.08-1.11,5.01-2.97H581.51z
		 M579.28,210.72c-0.18-3.34-2.6-5.76-5.76-5.76c-3.34,0-5.76,2.41-6.13,5.76H579.28z"/>
</g>
<g class="st3">
	<path class="st4" d="M822.43,195.31h8.73c7.24,0,12.44,5.39,12.44,13s-5.2,13-12.44,13h-8.73V195.31z M831.15,218.52
		c5.39,0,9.47-4.09,9.47-10.21s-4.09-10.21-9.47-10.21h-5.76v20.43H831.15z"/>
	<path class="st4" d="M863.85,216.11c-1.3,3.53-4.09,5.57-7.99,5.57c-5.02,0-8.92-3.9-8.92-9.66c0-5.76,3.9-9.66,8.92-9.66
		c4.83,0,8.54,3.71,8.54,8.91c0,1.49-0.19,2.04-0.19,2.04h-14.49c0.37,3.53,3.01,5.76,6.13,5.76c2.23,0,4.08-1.11,5.01-2.97H863.85z
		 M861.62,210.72c-0.18-3.34-2.6-5.76-5.76-5.76c-3.34,0-5.76,2.41-6.13,5.76H861.62z"/>
	<path class="st4" d="M869.05,205.34h-2.97v-2.6h2.97v-5.2h2.79v5.2h4.27v2.6h-4.27v12.26c0,0.74,0.37,1.11,1.11,1.11h3.16v2.6
		h-3.72c-2.04,0-3.34-1.3-3.34-3.16V205.34z"/>
	<path class="st4" d="M891.34,219.08h-0.19c0,0-1.67,2.6-5.76,2.6c-3.9,0-6.5-2.41-6.5-5.76c0-3.53,2.23-5.94,7.43-5.94h5.01v-0.56
		c0-2.79-1.67-4.46-4.46-4.46s-4.46,1.49-4.64,3.16h-2.79c0.18-2.97,2.79-5.76,7.43-5.76c4.46,0,7.24,2.6,7.24,7.06v11.89h-2.41
		L891.34,219.08z M891.34,212.58h-5.01c-3.34,0-4.64,1.49-4.64,3.34s1.3,3.16,3.71,3.16c3.72,0,5.94-2.23,5.94-5.76V212.58z"/>
	<path class="st4" d="M899.33,195.68h3.16v3.16h-3.16V195.68z M899.52,202.74h2.79v18.57h-2.79V202.74z"/>
	<path class="st4" d="M907.88,195.31h2.79v26h-2.79V195.31z"/>
	<path class="st4" d="M917.35,215.92c0,1.67,1.67,3.16,4.64,3.16s4.46-1.3,4.46-2.79c0-1.49-0.93-2.41-3.16-2.79l-3.16-0.56
		c-3.34-0.56-5.2-2.23-5.2-5.2c0-2.97,2.23-5.39,6.87-5.39c4.46,0,7.24,2.79,7.24,5.76h-2.79c0-1.67-1.67-3.16-4.46-3.16
		s-4.09,1.3-4.09,2.79c0,1.3,0.74,2.19,2.97,2.6l3.16,0.56c3.71,0.67,5.39,2.41,5.39,5.39c0,2.97-2.41,5.39-7.24,5.39
		c-4.64,0-7.43-2.79-7.43-5.76H917.35z"/>
</g>
</svg>
