<?xml version="1.0" encoding="utf-8"?>
<!-- Generator: Adobe Illustrator 23.0.3, SVG Export Plug-In . SVG Version: 6.00 Build 0)  -->
<svg version="1.1" id="Layer_1" xmlns="http://www.w3.org/2000/svg" xmlns:xlink="http://www.w3.org/1999/xlink" x="0px" y="0px"
	 viewBox="0 0 708.66 248.15" style="enable-background:new 0 0 708.66 248.15;" xml:space="preserve">
<style type="text/css">
	.st0{fill:#FFFFFF;}
</style>
<g>
	<g>
		<polygon class="st0" points="171.81,8.94 3.93,23.72 45.46,231.07 117.76,239.21 90.14,100.83 141.77,95.9 171.81,151.87 
			201.85,95.9 253.48,100.83 225.86,239.21 298.16,231.07 339.69,23.72 		"/>
	</g>
	<g>
		<path class="st0" d="M454.3,105.72c-1.08,1.74-2.32,3.32-3.73,4.73c-5.31,5.48-12.36,8.63-19.83,8.88h-0.5c-0.17,0-0.33,0-0.5,0
			c-7.47-0.25-14.52-3.4-19.83-8.88c-5.48-5.64-8.55-13.11-8.55-21.16c0-7.97,3.07-15.43,8.55-21.16c5.31-5.39,12.36-8.55,19.83-8.8
			h1c7.47,0.25,14.52,3.4,19.83,8.8c1.41,1.49,2.66,3.07,3.73,4.81l-8.96,4.07c-3.49-4.73-8.96-7.8-15.1-7.97
			c-10.62,0.25-19.17,9.29-19.17,20.25c0,11.04,8.55,20,19.17,20.33c6.14-0.17,11.62-3.24,15.1-7.97L454.3,105.72z"/>
		<path class="st0" d="M465.09,60.08h9.71v58.25h-9.71V60.08z"/>
		<path class="st0" d="M520.85,69.79h-13.61v48.54h-9.71V69.79h-13.61v-9.71h36.92V69.79z"/>
		<path class="st0" d="M567.23,60.08h10.87l-20.08,40.91v17.34h-9.71v-17.67l-20-40.58h10.87l14.11,28.63L567.23,60.08z"/>
		<path class="st0" d="M411.07,191.6h21.41v9.71h-31.12v-58.25h9.71V191.6z"/>
		<path class="st0" d="M483.92,201.31l-2.99-7.55c-3.32,0.91-7.88,1.74-13.77,1.74s-10.54-0.83-13.86-1.74l-2.99,7.55h-10.37
			l22.57-58.25h8.88l22.99,58.25H483.92z M467.16,185.79c4.15,0,7.63-0.5,10.21-1.16l-10.37-26.3l-10.21,26.3
			C459.44,185.3,462.93,185.79,467.16,185.79z"/>
		<path class="st0" d="M545.74,143.23v58.08h-7.22l-26.14-37.67v37.67h-9.71v-58h7.47l25.89,37.42v-37.51H545.74z"/>
		<path class="st0" d="M606.98,188.7c-1.08,1.74-2.32,3.32-3.73,4.73c-5.31,5.48-12.36,8.63-19.83,8.88h-0.5c-0.17,0-0.33,0-0.5,0
			c-7.47-0.25-14.52-3.4-19.83-8.88c-5.48-5.64-8.55-13.11-8.55-21.16c0-7.97,3.07-15.43,8.55-21.16c5.31-5.39,12.36-8.55,19.83-8.8
			h1c7.47,0.25,14.52,3.4,19.83,8.8c1.41,1.49,2.66,3.07,3.73,4.81l-8.96,4.07c-3.49-4.73-8.96-7.8-15.1-7.97
			c-10.62,0.25-19.17,9.29-19.17,20.25c0,11.04,8.55,20,19.17,20.33c6.14-0.17,11.62-3.24,15.1-7.97L606.98,188.7z"/>
		<path class="st0" d="M626.65,191.6h24.31v9.71h-34.02v-58.25h33.03v9.71h-23.32v18.75h16.51v9.71h-16.51V191.6z"/>
		<path class="st0" d="M692.04,180.82c-1.24,0.91-2.66,1.66-4.15,2.32l10.79,18.17h-11.29l-9.79-16.51c-1.25,0-2.49-0.08-3.73-0.25
			c-1.16-0.08-2.24-0.25-3.24-0.42v17.18h-9.71v-55.93l3.32-1.08c0.17-0.08,4.31-1.49,9.63-1.99c7.55-0.75,13.69,0.5,18.17,3.73
			c2.49,1.83,4.4,4.15,5.73,6.97c1.33,2.99,1.99,6.47,1.99,10.46c0,3.9-0.66,7.47-1.99,10.37
			C696.44,176.67,694.53,179.07,692.04,180.82z M690.05,163.47c0-4.65-1.16-7.72-3.65-9.54c-1.74-1.25-5.15-2.57-11.62-1.99
			c-1.49,0.17-2.99,0.41-4.15,0.66v21.66c1.25,0.25,2.74,0.5,4.4,0.66c3.49,0.33,8.3,0.25,11.37-1.99
			C688.88,171.19,690.05,168.04,690.05,163.47z"/>
	</g>
</g>
</svg>
