<svg width="1412" height="1334" viewBox="0 0 1412 1334" fill="none" xmlns="http://www.w3.org/2000/svg">
<g opacity="0.05">
<path d="M475.551 838.344L464.094 902.314C470.292 901.563 476.491 900.623 482.783 899.59L490.578 871.691L475.551 838.344Z" fill="black"/>
<path d="M876.383 315.872L865.019 305.727L849.335 305.163L847.457 308.545L870.842 325.547L876.383 315.872Z" fill="black"/>
<path d="M901.645 271.908L887.934 263.924L899.203 276.042L901.645 271.908Z" fill="black"/>
<path d="M910.472 256.411L887.557 236.309L878.354 252.935L902.865 269.656L910.472 256.411Z" fill="black"/>
<path d="M867.178 272.943L865.77 275.574L873.564 279.425L867.178 272.943Z" fill="black"/>
<path d="M881.829 306.29L865.863 305.727L877.884 313.241L881.829 306.29Z" fill="black"/>
<path d="M416.387 830.358L397.041 873.287V874.039L396.947 873.475L382.578 905.413C390.373 905.883 398.919 906.071 408.029 905.977L430.193 865.678L432.729 832.519C427.376 831.861 421.928 831.11 416.387 830.358Z" fill="black"/>
<path d="M881.359 283.276H881.171L889.436 293.139L897.418 279.236L885.867 262.704L876.1 257.067L869.432 268.997L881.171 283.182L881.359 283.276Z" fill="black"/>
<path d="M388.964 825.942C376.379 823.782 362.856 821.434 347.923 818.991C347.923 818.991 325.947 826.224 321.627 847.454C317.213 868.683 324.351 892.543 344.354 899.964C350.741 902.312 363.795 904.379 380.887 905.412L395.444 865.02L388.964 825.942ZM348.956 831.766C328.577 840.69 327.262 870.28 327.262 870.28C322.097 841.724 347.36 827.164 347.36 827.164L382.578 833.363L383.329 837.497L348.956 831.766Z" fill="black"/>
<path d="M825.95 347.245L824.26 350.251L832.994 354.478L825.95 347.245Z" fill="black"/>
<path d="M427.282 905.508L430.006 869.061L415.543 905.977C419.393 905.79 423.338 905.602 427.282 905.508Z" fill="black"/>
<path d="M888.498 294.735L875.725 281.678L864.174 278.391L860.887 284.309L885.398 300.09L888.498 294.735Z" fill="black"/>
<path d="M840.884 358.329H840.696L847.364 366.314L855.44 352.224L845.298 337.851L834.591 331.558L828.205 343.206L840.696 358.235L840.884 358.329Z" fill="black"/>
<path d="M476.118 835.149L475.93 836.088L508.8 894.141C509.457 893.953 510.209 893.765 510.866 893.671L513.026 831.485C507.109 832.894 500.723 833.928 493.774 834.491C487.763 834.961 481.94 835.149 476.118 835.149Z" fill="black"/>
<path d="M924.937 231.33L906.342 230.673L920.335 239.315L924.937 231.33Z" fill="black"/>
<path d="M918.55 242.319L905.59 230.671L891.033 230.107L888.779 234.147L913.197 251.807L918.55 242.319Z" fill="black"/>
<path d="M859.008 287.787L850.273 303.474L884.458 301.22L859.008 287.787Z" fill="black"/>
<path d="M868.211 329.962L846.235 310.705L836.938 327.426L860.51 343.489L868.211 329.962Z" fill="black"/>
<path d="M408.497 829.138C404.74 828.575 400.89 827.917 396.945 827.26L397.039 860.795L408.497 829.138Z" fill="black"/>
<path d="M859.103 345.836L847.363 338.979L857.037 349.405L859.103 345.836Z" fill="black"/>
<path d="M928.035 225.976L937.896 208.786C939.587 205.686 942.029 203.15 944.94 201.271L955.458 194.508C958.276 192.629 960.624 190.187 962.314 187.275L964.756 182.954C967.292 178.351 966.071 172.621 961.845 169.521L960.718 168.675C952.453 162.57 943.437 157.497 933.952 153.552L932.637 152.988C927.847 150.922 922.212 152.894 919.677 157.403L917.235 161.724C915.545 164.636 914.605 168.018 914.511 171.4L914.136 183.893C914.042 187.369 913.103 190.844 911.318 193.85L902.396 209.913L927.472 226.164L928.035 225.976ZM907.468 209.35L906.341 208.692L915.638 191.408L917.705 191.596L907.468 209.35ZM916.484 183.236L917.141 183.423C917.141 183.423 918.08 183.799 918.268 183.799L917.986 165.669L917.705 164.824L923.152 168.488C925.593 170.084 930.477 173.278 936.769 176.754C938.741 177.881 940.62 178.821 942.404 179.854L946.067 172.339C944.189 171.4 942.968 170.366 940.995 169.239C935.173 165.951 930.477 162.664 927.566 160.503C924.279 158.061 922.682 155.994 922.682 155.994L928.129 159.658C930.571 161.254 935.454 164.448 941.747 167.924C947.945 171.4 953.298 174.03 955.834 175.251L961.845 177.975C961.845 177.975 960.624 178.539 959.966 178.257L955.928 186.429L956.867 186.899C956.867 186.899 954.237 186.617 950.481 185.114C947.1 183.705 941.841 181.451 936.018 178.163C933.858 176.942 931.604 175.627 929.35 174.124L922.212 186.805C924.56 188.402 926.908 189.905 929.35 191.314C933.294 193.475 936.675 195.071 938.929 195.917C941.465 196.95 942.31 197.514 942.404 197.514L942.874 198.077C942.874 198.077 940.526 197.326 937.99 196.387C935.642 195.541 932.074 194.132 928.129 191.878C924.185 189.623 921.086 187.369 919.207 185.866C917.047 184.081 916.484 183.236 916.484 183.236Z" fill="black"/>
<path d="M900.425 213.199L892.066 228.323L925.031 226.162L900.425 213.199Z" fill="black"/>
<path d="M488.137 898.649C492.551 897.804 496.965 896.958 501.379 895.925L490.954 872.723L488.137 898.649Z" fill="black"/>
<path d="M440.71 833.366L430.379 905.227C438.456 904.758 446.72 904.194 455.266 903.255L473.674 835.057C462.686 835.151 451.792 834.493 440.71 833.366Z" fill="black"/>
<path d="M899.484 871.691L907.279 899.59C913.572 900.623 919.77 901.563 925.968 902.314L914.511 838.344L899.484 871.691Z" fill="black"/>
<path d="M513.682 315.872L519.223 325.547L542.607 308.545L540.635 305.163L524.951 305.727L513.682 315.872Z" fill="black"/>
<path d="M490.768 276.042L502.132 263.924L488.326 271.908L490.768 276.042Z" fill="black"/>
<path d="M487.105 269.656L511.711 252.935L502.413 236.309L479.498 256.411L487.105 269.656Z" fill="black"/>
<path d="M524.295 275.574L522.792 272.943L516.406 279.425L524.295 275.574Z" fill="black"/>
<path d="M512.087 313.241L524.108 305.727L508.143 306.29L512.087 313.241Z" fill="black"/>
<path d="M992.93 874.039V873.287L973.584 830.358C968.043 831.204 962.596 831.955 957.148 832.519L959.684 865.678L981.848 905.977C990.958 906.071 999.598 905.789 1007.3 905.413L992.93 873.475V874.039Z" fill="black"/>
<path d="M492.553 279.236L500.536 293.139L508.8 283.276H508.612L508.8 283.182L520.539 268.997L513.965 257.067L504.104 262.704L492.553 279.236Z" fill="black"/>
<path d="M1068.34 847.362C1063.93 826.132 1042.05 818.899 1042.05 818.899C1027.12 821.342 1013.69 823.69 1001.01 825.851L994.434 864.834L1008.99 905.227C1026.08 904.193 1039.14 902.127 1045.52 899.778C1065.62 892.451 1072.76 868.686 1068.34 847.362ZM1062.71 870.376C1062.71 870.376 1061.49 840.786 1041.02 831.863L1006.55 837.593L1007.3 833.459L1042.52 827.26C1042.61 827.26 1067.87 841.82 1062.71 870.376Z" fill="black"/>
<path d="M565.713 350.251L564.022 347.245L556.979 354.478L565.713 350.251Z" fill="black"/>
<path d="M962.69 905.509C966.635 905.697 970.579 905.791 974.336 905.885L959.967 868.968L962.69 905.509Z" fill="black"/>
<path d="M501.473 294.735L504.572 300.09L529.084 284.309L525.797 278.391L514.245 281.678L501.473 294.735Z" fill="black"/>
<path d="M534.533 352.224L542.61 366.314L549.278 358.329H549.184L549.372 358.235L561.862 343.206L555.382 331.558L544.676 337.851L534.533 352.224Z" fill="black"/>
<path d="M913.854 835.15C908.031 835.056 902.115 834.868 896.104 834.399C889.154 833.929 882.768 832.802 876.852 831.393L879.012 893.578C879.669 893.766 880.42 893.954 881.078 894.048L913.948 835.995L913.854 835.15Z" fill="black"/>
<path d="M469.637 239.315L483.63 230.673L465.035 231.33L469.637 239.315Z" fill="black"/>
<path d="M471.422 242.319L476.869 251.807L501.193 234.147L499.033 230.107L484.476 230.671L471.422 242.319Z" fill="black"/>
<path d="M539.697 303.474L531.057 287.787L505.512 301.22L539.697 303.474Z" fill="black"/>
<path d="M529.461 343.489L553.033 327.426L543.736 310.705L521.76 329.962L529.461 343.489Z" fill="black"/>
<path d="M993.024 827.26C989.08 827.917 985.229 828.575 981.473 829.138L992.93 860.795L993.024 827.26Z" fill="black"/>
<path d="M532.935 349.405L542.609 338.979L530.869 345.836L532.935 349.405Z" fill="black"/>
<path d="M843.135 817.585C833.838 811.855 826.231 803.776 820.784 794.383L711.279 607.168C737.575 559.637 756.264 524.88 756.264 524.88L846.328 368.101L835.152 356.641L822.662 353.071L734.1 512.387L694.938 579.363L655.775 512.387L567.213 353.071L554.723 356.641L543.641 368.101L633.705 524.88C633.705 524.88 652.488 559.637 678.69 607.168L569.28 794.383C563.739 803.776 556.131 811.855 546.928 817.585C540.26 821.718 531.62 826.039 521.007 829.327L513.494 893.016C515.748 892.452 518.096 891.794 520.35 891.137C520.35 891.137 535.846 884.655 551.53 871.88C570.688 856.287 641.97 731.821 695.125 636.382C748.281 731.821 819.657 856.287 838.721 871.88C854.405 884.655 869.901 891.137 869.901 891.137C872.155 891.794 874.409 892.358 876.757 893.016L869.244 829.327C858.443 826.133 849.803 821.718 843.135 817.585ZM549.182 368.477L553.126 365.471C553.126 365.471 615.204 479.791 683.292 599.466L681.696 602.284C612.95 482.797 549.182 368.477 549.182 368.477ZM691.838 630.84C625.816 745.16 559.7 856.005 544.862 868.123C529.178 880.898 529.272 880.146 529.272 880.146L530.774 869.344C530.774 869.344 538.006 868.968 544.204 862.111C569.843 833.836 630.7 732.197 690.43 628.116C691.463 626.331 692.496 624.546 693.529 622.762C694.092 621.822 694.562 620.977 695.125 620.038C699.07 613.18 702.92 606.323 706.865 599.466C774.859 479.697 836.937 365.377 836.937 365.377L840.881 368.383C840.881 368.383 777.113 482.703 708.367 602.19C704.423 609.047 700.479 615.81 696.534 622.668C695.971 623.607 695.501 624.453 694.938 625.392C693.905 627.271 692.872 629.055 691.838 630.84ZM845.108 868.123C830.269 856.005 764.153 745.066 698.131 630.84C698.6 629.901 699.164 629.055 699.633 628.116C759.269 732.197 820.22 833.836 845.859 862.111C852.057 868.968 859.289 869.344 859.289 869.344L860.791 880.146C860.697 880.146 860.791 880.992 845.108 868.123Z" fill="black"/>
<path d="M427.658 187.085C429.349 189.997 431.697 192.533 434.514 194.318L445.033 201.082C447.944 202.96 450.386 205.591 452.076 208.597L461.937 225.787H462.501L487.576 209.536L478.654 193.473C476.87 190.467 475.931 186.991 475.837 183.516L475.461 171.022C475.367 167.64 474.428 164.353 472.737 161.347L470.296 157.026C467.76 152.423 462.125 150.544 457.335 152.611L456.021 153.174C446.535 157.12 437.519 162.192 429.255 168.298L428.128 169.143C423.902 172.243 422.681 177.973 425.216 182.576L427.658 187.085ZM483.632 208.69L482.505 209.348L472.268 191.688L474.334 191.5L483.632 208.69ZM434.044 175.249C436.674 174.028 441.933 171.398 448.132 167.922C454.33 164.447 459.308 161.253 461.749 159.656L467.196 155.992C467.196 155.992 465.6 158.153 462.313 160.501C459.402 162.662 454.706 165.95 448.883 169.237C446.911 170.365 445.596 171.398 443.812 172.337L447.474 179.852C449.259 178.913 451.137 177.879 453.109 176.752C459.308 173.277 464.285 170.083 466.727 168.486L472.174 164.822L471.892 165.668L471.61 183.797C471.798 183.703 472.737 183.422 472.737 183.422L473.395 183.234C473.395 183.234 472.831 184.079 470.671 185.77C468.793 187.273 465.694 189.621 461.749 191.782C457.805 193.943 454.236 195.446 451.888 196.291C449.259 197.23 447.005 197.982 447.005 197.982L447.474 197.418C447.474 197.418 448.413 196.855 450.949 195.821C453.203 194.882 456.678 193.379 460.528 191.218C462.97 189.903 465.318 188.4 467.666 186.709L460.528 173.934C458.181 175.437 456.021 176.752 453.861 177.973C448.038 181.261 442.779 183.61 439.398 184.925C435.641 186.428 433.011 186.709 433.011 186.709L433.951 186.24L429.912 178.067C429.255 178.349 428.034 177.786 428.034 177.786L434.044 175.249Z" fill="black"/>
<path d="M497.999 228.323L489.547 213.199L465.035 226.162L497.999 228.323Z" fill="black"/>
<path d="M888.592 895.925C893.006 896.864 897.42 897.804 901.834 898.649L899.016 872.723L888.592 895.925Z" fill="black"/>
<path d="M916.297 835.151L934.704 903.348C943.156 904.194 951.515 904.851 959.592 905.321L949.261 833.46C938.179 834.493 927.285 835.151 916.297 835.151Z" fill="black"/>
</g>
<path opacity="0.1" fill-rule="evenodd" clip-rule="evenodd" d="M706 1334C283.674 1140.59 21.5573 807.46 0 271.474C493.367 -90.4912 918.633 -90.4912 1412 271.474C1390.44 807.958 1128.33 1140.59 706 1334ZM706 1250.47C1098.93 1060.04 1306.17 752.271 1335.08 309.261C893.646 -1.9888 518.354 -1.9888 76.9202 309.261C105.826 752.271 313.07 1060.04 706 1250.47Z" fill="#EC7B23"/>
</svg>
