<svg width="211" height="240" viewBox="0 0 211 240" fill="none" xmlns="http://www.w3.org/2000/svg">
<path fill-rule="evenodd" clip-rule="evenodd" d="M102.931 206.446C37.9475 177.18 3.85986 126.931 0.940004 55.1569L0.804199 51.3543L3.85986 49.1135C74.6833 -2.15372 137.019 -2.15372 207.842 49.1135L210.898 51.3543L210.762 55.1569C207.842 126.931 173.755 177.18 108.771 206.446L105.851 207.736L102.931 206.446Z" fill="#260E0C"/>
<path fill-rule="evenodd" clip-rule="evenodd" d="M105.853 199.995C47.3196 173.58 10.9912 128.085 8.00342 54.8847C76.3824 5.45087 135.323 5.45087 203.702 54.8847C200.714 128.153 164.385 173.58 105.853 199.995ZM105.853 188.587C160.311 162.58 189.034 120.547 193.041 60.0454C131.86 17.5377 79.8454 17.5377 18.6643 60.0454C22.6706 120.547 51.3938 162.58 105.853 188.587Z" fill="#EC7B23"/>
<path fill-rule="evenodd" clip-rule="evenodd" d="M105.852 179.488C154.064 155.45 179.664 118.035 184.281 64.3909C129.143 27.2476 82.6294 27.2476 27.4917 64.3909C32.0412 117.967 57.6409 155.45 105.852 179.488Z" fill="#D04F27"/>
<path d="M175.247 72.1325L168.117 54.5454C165.333 46.8044 158.814 40.2178 154.401 35.125C156.098 36.2115 157.728 37.3658 159.222 38.656C168.728 33.3595 169.883 16.5194 163.16 9.11792C162.753 18.4207 145.302 17.1984 142.178 25.5506C143.332 26.705 144.351 27.8593 145.302 29.1495C122.69 12.3773 88.9416 12.3773 66.3297 29.1495C67.2803 27.8593 68.3668 26.705 69.4532 25.5506C66.3297 17.1984 48.8784 18.4207 48.471 9.11792C41.7486 16.5194 42.9029 33.3595 52.4094 38.656C53.9712 37.4337 55.6009 36.2115 57.2306 35.125C46.5018 47.5514 39.2361 71.046 42.5634 89.5837C43.7857 87.0713 46.9092 84.423 49.4896 83.4045C49.3538 98.8865 55.1256 113.01 64.0889 118.986C64.021 116.541 65.0395 112.264 66.6013 109.547C67.4161 111.381 68.4347 113.146 69.7249 114.912C83.2377 128.492 80.5215 116.745 76.1757 108.597C71.5583 105.609 68.3668 101.059 67.0766 96.1025C60.5579 89.4479 57.5701 77.9043 59.6751 69.6879C57.0948 71.9967 55.533 74.3733 52.9527 78.5154C51.7304 68.5336 54.3786 50.607 65.7185 40.6931C62.3234 45.5822 58.1812 60.1814 58.5887 65.0705C60.8295 62.3544 62.595 60.4531 66.0581 59.1629C63.4098 66.9718 64.0889 77.9722 67.5519 84.8984C69.1816 80.8921 72.5768 77.429 78.0091 75.4598C76.1078 77.0215 74.6139 78.8549 73.6633 80.7562C75.0892 84.9663 79.7746 88.6331 83.9167 90.3986C79.0956 89.6516 75.0892 87.8861 72.1694 85.3058C71.8978 86.7997 71.8299 88.2935 71.9657 89.7874C76.2436 95.0839 83.7809 98.9544 88.9416 100.312C83.1698 100.177 77.9412 98.547 73.867 96.3062C78.077 104.59 88.5342 109.955 100.621 103.164C97.2937 102.01 94.5097 99.4976 94.7134 95.2197C92.4726 92.8431 92.2689 86.4601 93.7627 84.1514C92.6084 102.078 119.023 102.078 117.869 84.1514C119.362 86.4601 119.159 92.7752 116.918 95.2197C117.122 99.4297 114.338 102.01 111.01 103.164C123.097 109.887 133.554 104.59 137.764 96.3062C133.758 98.547 128.461 100.177 122.69 100.312C127.782 98.9544 135.32 95.0839 139.666 89.7874C139.801 88.2935 139.733 86.7997 139.462 85.3058C136.542 87.8861 132.468 89.7195 127.715 90.3986C131.857 88.701 136.542 85.0342 137.968 80.7562C136.949 78.8549 135.523 77.0215 133.622 75.4598C139.054 77.429 142.382 80.8921 144.079 84.8984C147.61 77.9722 148.221 66.9718 145.573 59.1629C149.036 60.4531 150.802 62.2865 153.043 65.0705C153.518 60.1135 149.308 45.5822 145.913 40.6931C157.253 50.607 159.901 68.4657 158.679 78.5154C156.098 74.3733 154.536 71.9967 151.956 69.6879C154.061 77.9043 151.073 89.4479 144.555 96.1025C143.264 100.992 140.073 105.609 135.456 108.597C131.11 116.745 128.394 128.492 141.906 114.912C143.129 113.146 144.215 111.381 145.03 109.547C146.592 112.264 147.61 116.474 147.542 118.986C156.438 113.01 162.277 98.8865 162.142 83.4045C164.79 84.423 167.846 87.0713 169.068 89.5837C169.951 84.8305 175.654 77.2932 175.247 72.1325Z" fill="#FAC94F"/>
<path fill-rule="evenodd" clip-rule="evenodd" d="M86.2284 68.6695C82.5616 69.688 79.7775 71.0461 77.8762 74.9166C79.9133 73.1511 82.5616 71.9968 85.2098 72.0647C84.3271 72.6758 83.5801 73.7623 83.3764 75.1882C87.7901 70.0955 94.5126 71.1819 97.7041 74.3055C97.7041 74.3055 96.4818 70.2992 93.0866 69.0769C89.6914 67.7867 86.2284 68.6695 86.2284 68.6695ZM125.477 68.6695C129.143 69.688 131.928 71.0461 133.829 74.9166C131.792 73.1511 129.143 71.9968 126.495 72.0647C127.378 72.6758 128.125 73.7623 128.329 75.1882C123.915 70.0955 117.192 71.1819 114.001 74.3055C114.001 74.3055 115.223 70.2992 118.618 69.0769C122.014 67.7867 125.477 68.6695 125.477 68.6695ZM167.509 11.97C169.003 21.4086 162.416 32.4769 155.218 35.872L160.854 41.3722C170.497 36.0758 174.367 21.7481 167.509 11.97ZM147.41 43.0019C149.786 48.57 150.805 58.6198 149.854 65.5459L146.595 60.7927C147.138 68.4658 144.829 76.5463 139.804 81.2317C139.804 81.2317 144.014 90.7382 143.675 90.3307C143.335 89.9233 147.477 84.6268 148.496 78.5155C149.515 72.4042 151.008 66.4966 151.008 66.4966L156.848 71.5893C156.848 71.5893 155.218 57.6691 153.453 53.527C151.552 49.4528 147.41 43.0019 147.41 43.0019ZM124.051 76.3426C118.007 77.2932 114.748 84.8985 115.563 88.5652C116.853 88.2257 117.668 86.4602 117.871 84.4231C117.871 84.4231 119.705 89.7875 116.445 93.7938C113.254 97.8001 105.785 99.4977 105.785 99.4977C105.785 99.4977 98.3152 97.8001 95.1237 93.7938C91.9323 89.7875 93.6978 84.4231 93.6978 84.4231C93.9694 86.4602 94.7842 88.2257 96.0065 88.5652C96.8892 84.8985 93.562 77.3612 87.5185 76.3426L91.5248 76.071L96.4818 77.8365C101.167 81.7749 105.173 81.1637 105.717 72.9474C106.26 81.1637 110.266 81.7749 114.952 77.8365L119.909 76.071L124.051 76.3426ZM44.196 11.97C42.7021 21.4086 49.2888 32.4769 56.4866 35.872L50.8506 41.3722C41.2083 36.0758 37.2698 21.7481 44.196 11.97ZM64.2955 43.0019C61.9189 48.57 60.9003 58.6198 61.851 65.5459L65.1103 60.7927C64.5671 68.4658 66.8758 76.5463 71.9007 81.2317C71.9007 81.2317 67.6907 90.7382 68.0302 90.3307C68.3697 89.9233 64.2276 84.6268 63.209 78.5155C62.1905 72.4042 60.6966 66.4966 60.6966 66.4966L54.8569 71.5893C54.8569 71.5893 56.4866 57.6691 58.2521 53.527C60.1534 49.4528 64.2955 43.0019 64.2955 43.0019Z" fill="#D04F27"/>
<path fill-rule="evenodd" clip-rule="evenodd" d="M48.4736 9.11792C45.6896 21.9517 62.9371 19.7109 67.4866 27.7235L71.3571 24.8716C72.5115 14.4144 56.2146 11.3587 48.4736 9.11792ZM75.2276 23.6493C94.7839 16.3157 116.853 16.3157 136.409 23.6493C117.192 9.93276 94.5123 9.93276 75.2276 23.6493ZM87.0429 41.0326C98.7902 36.4152 112.982 36.4152 124.661 41.0326L114.748 35.3966L117.464 33.7669L105.852 31.3903L94.2407 33.7669L96.9568 35.3966L87.0429 41.0326ZM74.6844 36.0077C83.9872 32.2731 93.6974 28.7421 105.852 28.6063C118.007 28.7421 127.649 32.2731 137.02 36.0077C137.02 36.0077 135.866 34.3781 129.89 31.3903C123.915 28.4025 120.655 27.1124 120.655 27.1124L124.661 26.2296C124.661 26.2296 123.507 25.6185 117.667 24.0567C111.76 22.427 105.852 21.6801 105.852 21.6801C105.852 21.6801 99.9446 22.427 94.1048 23.9888C88.2651 25.5506 87.1108 26.1617 87.1108 26.1617L91.1171 27.0445C91.1171 27.0445 87.8577 28.4025 81.8822 31.3224C75.9067 34.3781 74.6844 36.0077 74.6844 36.0077ZM163.231 9.11792C166.015 21.9517 148.767 19.7109 144.218 27.7235L140.347 24.8716C139.193 14.4144 155.49 11.3587 163.231 9.11792ZM117.803 87.8182C116.377 93.3184 111.217 95.8308 105.852 95.7629C100.488 95.8308 95.395 93.3184 93.9011 87.8182C93.7653 96.0345 100.556 100.72 105.852 99.905C111.149 100.652 117.939 95.9666 117.803 87.8182ZM114.001 74.3054C113.254 70.0275 114.408 65.9532 117.532 63.305C114.34 64.3915 109.587 64.731 107.618 67.2434C108.433 58.8913 121.266 57.1258 113.05 46.9402C118.958 45.718 123.575 50.1317 129.007 48.1625C125.341 47.5514 120.995 45.7859 119.976 43.8846C122.556 46.6007 145.644 43.5451 142.928 53.3232C141.977 56.7184 138.785 59.9098 133.693 59.7061C139.125 60.7247 142.724 58.6876 144.286 57.0579C143.063 66.0212 134.44 69.4842 126.563 68.6694L118.822 68.941L115.291 71.7251L114.001 74.3054ZM97.7037 74.3054C98.4507 70.0275 97.2963 65.9532 94.1728 63.305C97.3642 64.3915 102.117 64.731 104.087 67.2434C103.272 58.8913 90.4381 57.1258 98.6544 46.9402C92.7468 45.718 88.1293 50.1317 82.697 48.1625C86.3638 47.5514 90.7097 45.7859 91.7282 43.8846C89.1479 46.6007 66.0607 43.5451 68.7768 53.3232C69.7275 56.7184 72.9189 59.9098 78.0117 59.7061C72.5794 60.7247 68.9805 58.6876 67.4187 57.0579C68.641 66.0212 77.2648 69.4842 85.1416 68.6694L92.8826 68.941L96.3457 71.5213L97.7037 74.3054Z" fill="white"/>
<path d="M120.926 153.278C122.012 151.308 123.031 149.543 123.914 148.049C123.982 147.913 124.05 147.845 124.117 147.71C124.864 145.876 125.476 143.771 125.815 141.53C110.808 154.025 100.827 154.025 85.8198 141.53C87.3816 151.24 93.2892 156.944 98.0425 160C97.4313 158.846 97.4313 157.488 97.635 156.333C100.962 162.445 110.74 162.445 114.068 156.333C114.271 157.488 114.271 158.846 113.66 160C116.037 158.506 118.685 156.333 120.926 153.278Z" fill="#EC7B23"/>
<path fill-rule="evenodd" clip-rule="evenodd" d="M94.4449 111.041C93.2226 116.541 93.7658 124.69 95.2597 127.949C89.8274 123.739 87.3829 118.103 87.1792 111.924C89.42 111.924 91.8645 111.652 94.4449 111.041Z" fill="white"/>
<path fill-rule="evenodd" clip-rule="evenodd" d="M46.9791 46.8037C52.1397 39.538 49.2199 42.5937 57.2325 35.1243C52.683 45.5135 50.9854 51.0816 50.3063 57.872C52.7509 52.5755 58.5227 45.6493 63.4796 43.8159C63.4796 43.8159 58.1152 54.5447 56.9609 61.5388C55.7386 68.5328 54.8559 71.5885 54.8559 71.5885L63.1401 64.3907C63.1401 64.3907 60.3561 76.6134 64.4303 84.0149C68.5045 91.3485 69.1156 90.1941 69.1156 90.1941C69.1156 90.1941 69.591 83.8112 71.8997 81.2308C79.2333 73.1503 82.4247 82.7926 86.7027 85.6446C85.8199 84.2186 85.3446 82.9284 85.2767 81.4345C87.9249 86.052 91.2522 84.9655 93.5609 88.9718C93.8325 89.5151 96.4808 96.0338 96.4808 96.0338L105.851 100.448L115.222 96.0338C115.222 96.0338 117.87 89.5151 118.142 88.9718C120.383 84.9655 123.71 86.1199 126.426 81.4345C126.358 82.8605 125.883 84.2186 125 85.6446C129.278 82.7926 132.47 73.0824 139.803 81.2308C142.112 83.8112 142.587 90.1941 142.587 90.1941C142.587 90.1941 143.198 91.4164 147.273 84.0149C151.347 76.6813 148.563 64.3907 148.563 64.3907L156.847 71.5885C156.847 71.5885 155.964 68.5328 154.742 61.5388C153.52 54.5447 148.223 43.8159 148.223 43.8159C153.18 45.6493 158.952 52.5755 161.397 57.872C160.718 51.0816 159.02 45.5135 154.47 35.1243C162.551 42.5937 159.563 39.538 164.724 46.8037C164.724 46.8037 174.774 67.7859 177.761 82.521C180.749 97.2561 164.249 112.602 153.995 123.127C143.742 133.652 131.723 131.276 129.075 126.115C126.358 121.022 130.568 108.596 130.568 108.596C130.568 108.596 116.241 108.528 111.827 106.627C107.481 104.725 105.851 105.744 105.851 105.744C105.851 105.744 104.222 104.793 99.876 106.627C95.5301 108.528 81.1346 108.596 81.1346 108.596C81.1346 108.596 85.3446 121.022 82.6284 126.115C79.9123 131.208 67.8934 133.652 57.7078 123.127C47.4544 112.602 30.9538 97.2561 33.9416 82.521C36.9293 67.8538 46.9791 46.8037 46.9791 46.8037Z" fill="white"/>
<path fill-rule="evenodd" clip-rule="evenodd" d="M117.259 111.041C118.481 116.541 117.938 124.69 116.444 127.949C121.876 123.739 124.321 118.103 124.524 111.924C122.284 111.924 119.839 111.652 117.259 111.041Z" fill="white"/>
<path fill-rule="evenodd" clip-rule="evenodd" d="M73.7328 80.8923C72.5785 97.8682 88.4 103.708 97.7707 98.6831L105.919 100.992L114.068 98.6831C123.438 103.708 139.192 97.8682 138.105 80.8923C138.105 80.8923 139.939 81.2319 141.501 84.2196C143.13 87.2074 143.47 91.3495 140.822 98.2078C138.173 105.066 130.636 108.665 123.71 109.616C116.784 110.566 105.987 105.813 105.987 105.813C105.987 105.813 95.1904 110.634 88.2642 109.616C81.338 108.665 73.7328 104.998 71.1525 98.2078C68.5042 91.3495 68.9117 87.2074 70.4734 84.2196C71.8994 81.2319 73.7328 80.8923 73.7328 80.8923ZM162.143 47.2122C169.069 62.9658 167.644 78.1762 165.131 91.8248L162.143 83.948C160.514 97.6645 151.822 111.585 144.624 115.455L145.1 109.548C141.161 115.387 132.673 120.888 132.605 111.042C132.605 111.042 127.648 118.918 129.482 124.622C131.315 130.326 132.469 136.981 143.47 128.696C154.47 120.412 171.582 104.794 175.52 92.6397C179.459 80.4849 172.94 63.3732 169.816 56.2433C166.557 49.1135 162.143 47.2122 162.143 47.2122ZM117.259 111.042C118.481 116.542 117.938 124.69 116.444 127.95C120.043 121.295 120.722 115.184 120.722 111.721C119.636 111.517 118.481 111.313 117.259 111.042ZM49.4912 47.2122C42.5651 62.9658 43.991 78.1762 46.5035 91.8248L49.4912 83.948C51.1209 97.6645 59.8126 111.585 67.0104 115.455L66.535 109.548C70.4734 115.387 78.9614 120.888 79.0293 111.042C79.0293 111.042 83.9863 118.918 82.1529 124.622C80.3195 130.326 79.1651 136.981 68.1647 128.696C57.1643 120.412 40.0526 104.794 36.1142 92.6397C32.1758 80.4849 38.6946 63.3732 41.8181 56.2433C45.1454 49.1135 49.4912 47.2122 49.4912 47.2122ZM94.4434 111.042C93.2211 116.542 93.7644 124.69 95.2583 127.95C91.6594 121.295 90.9803 115.184 90.9803 111.721C92.0668 111.517 93.2211 111.313 94.4434 111.042Z" fill="#D1CACA"/>
<path fill-rule="evenodd" clip-rule="evenodd" d="M83.3083 54.07C82.4935 56.854 82.9009 58.8233 84.0552 60.3171C80.1168 59.0949 75.3636 58.9591 70.0671 60.5888C75.4315 61.9468 73.8697 68.194 84.6664 68.6014C82.9009 68.9409 81.2033 70.299 80.3206 71.4533C83.3762 69.4162 94.0371 67.7865 97.7718 74.3053C97.0928 70.8422 94.6482 66.9038 90.9135 63.916C96.0063 65.1383 101.982 65.4099 104.155 67.2433C100.692 60.4529 85.7528 62.6938 83.3083 54.07ZM133.693 61.3357C131.112 61.0641 125.952 62.6938 124.73 65.0025C128.6 67.6507 133.964 66.021 133.693 61.3357ZM77.9439 61.3357C80.5243 61.0641 85.6849 62.6938 86.9072 65.0025C83.1046 67.6507 77.7402 66.021 77.9439 61.3357ZM101.642 117.085C102.389 124.826 92.2716 135.622 105.852 135.622C119.433 135.622 109.315 124.893 110.062 117.085C106.871 118.375 105.852 123.943 105.852 126.591C105.852 124.011 104.834 118.375 101.642 117.085ZM85.8207 141.53C87.3825 151.24 93.2901 156.944 98.0434 160C97.4323 158.845 97.4323 157.487 97.636 156.333C100.963 162.444 110.741 162.444 114.069 156.333C114.272 157.487 114.272 158.845 113.661 160C118.414 157.012 124.322 151.308 125.884 141.53C110.809 154.092 100.827 154.092 85.8207 141.53ZM93.2901 141.734C91.6605 139.493 90.8456 134.604 93.2901 131.005C93.4939 133.517 94.5803 137.184 96.889 138.746C96.9569 138.135 114.68 138.135 114.748 138.746C117.056 137.184 118.143 133.517 118.347 131.005C120.791 134.604 120.044 139.493 118.347 141.734C111.217 147.098 100.488 147.098 93.2901 141.734ZM97.1607 110.158C97.0248 112.06 97.2965 114.368 98.1792 116.066C98.4508 115.387 98.7224 114.708 99.2657 114.029C101.71 113.418 109.994 113.418 112.439 114.029C112.982 114.708 113.254 115.319 113.525 116.066C114.408 114.301 114.68 112.06 114.544 110.158C107.075 107.442 104.358 107.51 97.1607 110.158ZM117.26 111.041C118.482 116.541 117.939 124.69 116.445 127.949C121.878 123.739 124.322 118.103 124.526 111.924C122.285 111.924 119.84 111.652 117.26 111.041ZM94.4445 111.041C93.2222 116.541 93.7655 124.69 95.2594 127.949C89.8271 123.739 87.3825 118.103 87.1788 111.924C89.4196 111.924 91.8642 111.652 94.4445 111.041ZM92.5432 25.8221C94.8519 25.9579 97.7039 26.4332 100.556 27.2481C89.4196 28.9457 80.1168 32.2729 71.2894 39.1312C76.3821 32.952 82.154 29.3531 87.043 27.9271C85.7528 27.8592 83.2404 28.0629 80.728 28.4703C96.5495 17.4021 115.155 17.4021 130.977 28.4703C128.396 28.0629 125.952 27.8592 124.662 27.9271C129.551 29.3531 135.322 32.952 140.415 39.1312C131.588 32.2729 122.285 28.9457 111.149 27.2481C114.001 26.5011 116.853 25.9579 119.161 25.8221C110.809 22.4948 100.895 22.4948 92.5432 25.8221ZM57.2333 35.1249C46.5045 47.5513 39.2389 71.0459 42.5661 89.5836C43.7884 87.0712 46.912 84.4229 49.4923 83.4044C49.3565 98.8864 55.1283 113.01 64.0916 118.986C64.0237 116.541 65.0422 112.263 66.604 109.547C67.4189 111.381 68.4374 113.146 69.7276 114.912C83.2404 128.492 80.5243 116.745 76.1784 108.597C71.561 105.609 68.3695 101.059 67.0793 96.1023C60.5606 89.4478 57.5728 77.9042 59.6779 69.6878C57.0975 71.9966 55.5357 74.3732 52.9554 78.5153C51.7331 68.5335 54.3814 50.6069 65.7213 40.693C62.3261 45.5821 58.184 60.1813 58.5914 65.0704C60.8322 62.3542 62.5977 60.4529 66.0608 59.1628C63.4125 66.9717 64.0916 77.9721 67.5547 84.8982C69.1844 80.8919 72.5795 77.4288 78.0118 75.4596C76.1105 77.0214 74.6167 78.8548 73.666 80.7561C75.092 84.9661 79.7773 88.6329 83.9194 90.3984C79.0983 89.6515 75.092 87.886 72.1721 85.3057C71.9005 86.7995 71.8326 88.2934 71.9684 89.7873C76.2463 95.0838 83.7836 98.9543 88.9443 100.312C83.1725 100.177 77.9439 98.5469 73.8697 96.306C78.0797 104.59 88.5369 109.955 100.624 103.164C97.2965 102.01 94.5124 99.4975 94.7161 95.2196C92.4753 92.843 92.2716 86.46 93.7655 84.1513C92.6111 102.078 119.026 102.078 117.871 84.1513C119.365 86.46 119.161 92.7751 116.921 95.2196C117.124 99.4296 114.34 102.01 111.013 103.164C123.1 109.887 133.557 104.59 137.767 96.306C133.761 98.5469 128.464 100.177 122.692 100.312C127.785 98.9543 135.322 95.0838 139.668 89.7873C139.804 88.2934 139.736 86.7995 139.465 85.3057C136.545 87.886 132.471 89.7194 127.717 90.3984C131.859 88.7008 136.545 85.034 137.971 80.7561C136.952 78.8548 135.526 77.0214 133.625 75.4596C139.057 77.4288 142.384 80.8919 144.082 84.8982C147.613 77.9721 148.224 66.9717 145.576 59.1628C149.039 60.4529 150.804 62.2863 153.045 65.0704C153.521 60.1134 149.311 45.5821 145.915 40.693C157.255 50.6069 159.904 68.4656 158.681 78.5153C156.101 74.3732 154.539 71.9966 151.959 69.6878C154.064 77.9042 151.076 89.4478 144.557 96.1023C143.267 100.991 140.076 105.609 135.458 108.597C131.112 116.745 128.396 128.492 141.909 114.912C143.131 113.146 144.218 111.381 145.033 109.547C146.594 112.263 147.613 116.473 147.545 118.986C156.441 113.01 162.28 98.8864 162.144 83.4044C164.793 84.4229 167.848 87.0712 169.071 89.5836C172.398 71.0459 165.064 47.5513 154.403 35.1249C156.101 36.2114 157.731 37.3657 159.225 38.6559C168.731 33.3594 169.885 16.5193 163.163 9.11782C162.756 18.4206 145.304 17.1983 142.181 25.5505C143.335 26.7048 144.354 27.8592 145.304 29.1494C122.692 12.3772 88.9443 12.3772 66.3324 29.1494C67.2831 27.8592 68.3695 26.7048 69.456 25.5505C66.3324 17.1983 48.8812 18.4206 48.4738 9.11782C41.7513 16.5193 42.9057 33.3594 52.4122 38.6559C53.974 37.4336 55.6036 36.2114 57.2333 35.1249ZM163.502 42.3227C184.96 62.8296 191.547 97.3246 175.997 120.955C175.454 117.492 174.095 115.93 171.719 113.689C162.756 131.208 147.749 135.826 133.285 144.246C123.779 149.814 134.983 162.58 120.316 169.778C121.674 168.08 122.353 165.228 122.421 163.055C117.192 175.142 94.5803 175.142 89.3517 163.055C89.4196 165.16 90.0987 168.012 91.4567 169.778C76.7896 162.512 87.9937 149.746 78.4872 144.246C64.0237 135.826 49.017 131.208 40.0537 113.689C37.6771 115.998 36.319 117.492 35.7758 120.955C20.2259 97.3246 26.8125 62.7617 48.27 42.3227C32.3127 33.7668 32.3806 8.50668 47.3194 0.154541C58.7272 9.32153 75.2278 4.9757 84.5985 15.5687C99.8089 8.8462 112.032 8.8462 127.242 15.5687C136.613 4.9757 153.113 9.32153 164.521 0.154541C179.324 8.50668 179.392 33.7668 163.502 42.3227ZM92.1358 35.8718C90.3703 35.5323 87.8579 35.3965 85.617 35.6681C100.42 27.995 111.285 27.995 126.088 35.6681C123.847 35.4644 121.334 35.5323 119.569 35.8718C123.168 37.3657 129.822 42.6622 132.335 47.755C127.038 42.3906 118.822 37.4336 108.093 35.4644C109.519 34.7175 111.081 34.1742 112.507 34.0384C107.822 32.6804 103.883 32.6804 99.2657 34.0384C100.692 34.1742 102.321 34.7175 103.679 35.4644C92.9506 37.4336 84.7343 42.3906 79.4378 47.755C81.9502 42.6622 88.5369 37.3657 92.1358 35.8718ZM117.464 45.5821C110.13 41.7794 101.574 41.7794 94.2408 45.5821C101.031 38.8596 110.673 38.8596 117.464 45.5821ZM114.001 74.3053C114.68 70.8422 117.056 66.9038 120.859 63.916C115.766 65.1383 109.791 65.4099 107.618 67.2433C111.013 60.5209 125.952 62.7617 128.396 54.1379C129.211 56.922 128.804 58.8912 127.649 60.385C131.588 59.1628 136.341 59.027 141.638 60.6566C136.273 62.0147 137.835 68.2619 127.038 68.6693C128.804 69.0088 130.501 70.3669 131.384 71.5212C128.396 69.4162 117.735 67.7865 114.001 74.3053ZM109.927 88.2934C112.099 80.145 118.143 76.2745 124.05 76.3424C116.242 73.6941 110.538 76.7498 109.927 88.2934ZM101.71 88.2934C99.5373 80.145 93.4939 76.2745 87.5862 76.3424C95.4631 73.6941 101.167 76.7498 101.71 88.2934Z" fill="#260E0C"/>
<path fill-rule="evenodd" clip-rule="evenodd" d="M85.8198 141.53C87.3816 151.24 93.2892 156.944 98.0425 160C97.4313 158.846 97.4313 157.488 97.635 156.333C100.962 162.445 110.74 162.445 114.068 156.333C114.271 157.488 114.271 158.846 113.66 160C118.414 157.012 124.321 151.308 125.883 141.53C110.808 154.092 100.827 154.092 85.8198 141.53Z" fill="#D1CACA"/>
<path fill-rule="evenodd" clip-rule="evenodd" d="M125.881 141.53C110.875 154.024 100.893 154.024 85.8862 141.53C96.0718 159.728 115.628 159.728 125.881 141.53Z" fill="white"/>
<path fill-rule="evenodd" clip-rule="evenodd" d="M97.1615 110.159C97.0257 112.06 97.2973 114.369 98.18 116.067C98.4516 115.388 98.7233 114.708 99.2665 114.029C101.711 113.418 109.995 113.418 112.44 114.029C112.983 114.708 113.255 115.32 113.526 116.067C114.409 114.301 114.681 112.06 114.545 110.159C107.075 107.443 104.359 107.511 97.1615 110.159Z" fill="#D1CACA"/>
<path fill-rule="evenodd" clip-rule="evenodd" d="M97.2261 112.874C97.3619 114.029 97.7014 115.115 98.1767 116.066C98.4483 115.387 98.72 114.708 99.2632 114.029C101.708 113.418 109.992 113.418 112.436 114.029C112.98 114.708 113.251 115.319 113.523 116.066C113.998 115.115 114.338 113.961 114.474 112.874C107.072 110.158 104.356 110.294 97.2261 112.874Z" fill="white"/>
<path fill-rule="evenodd" clip-rule="evenodd" d="M101.64 117.085C102.387 124.826 92.2691 135.623 105.85 135.623C119.431 135.623 109.313 124.894 110.06 117.085C106.868 118.375 105.85 123.943 105.85 126.592C105.85 124.011 104.831 118.375 101.64 117.085Z" fill="#EC7B23"/>
<path fill-rule="evenodd" clip-rule="evenodd" d="M101.641 117.085C101.845 119.462 101.03 122.178 100.215 124.758C101.437 127.067 103.542 128.561 105.851 128.832C108.092 128.561 110.265 127.067 111.487 124.758C110.672 122.178 109.857 119.529 110.061 117.085C106.869 118.375 105.851 123.943 105.851 126.591C105.851 124.011 104.832 118.375 101.641 117.085Z" fill="#D04F27"/>
<path fill-rule="evenodd" clip-rule="evenodd" d="M133.693 61.336C131.113 61.0643 125.952 62.694 124.73 65.0028C128.6 67.651 133.965 66.0213 133.693 61.336Z" fill="white"/>
<path fill-rule="evenodd" clip-rule="evenodd" d="M77.9431 61.3357C80.5235 61.0641 85.6842 62.6938 86.9064 65.0025C83.1038 67.6508 77.7394 66.0211 77.9431 61.3357Z" fill="white"/>
<path fill-rule="evenodd" clip-rule="evenodd" d="M93.2889 141.733C91.6592 139.492 90.8444 134.603 93.2889 131.004C93.4926 133.517 94.5791 137.184 96.8878 138.745C96.9557 138.134 114.679 138.134 114.746 138.745C117.055 137.184 118.142 133.517 118.345 131.004C120.79 134.603 120.043 139.492 118.345 141.733C111.215 147.098 100.487 147.098 93.2889 141.733Z" fill="#D1CACA"/>
<path fill-rule="evenodd" clip-rule="evenodd" d="M91.7964 134.943C92.0001 133.585 92.4075 132.227 93.2903 131.005C93.494 133.517 94.5804 137.184 96.8892 138.746C96.9571 138.135 114.68 138.135 114.748 138.746C117.057 137.184 118.143 133.517 118.347 131.005C119.162 132.227 119.637 133.585 119.841 134.943C119.637 136.573 119.094 137.999 118.347 138.949C111.149 144.314 100.352 144.314 93.1545 138.949C92.5433 137.999 92.0001 136.573 91.7964 134.943Z" fill="white"/>
<path d="M28.4683 174.62H181.07V228.164H28.4683V174.62Z" fill="#260E0C"/>
<path d="M45.4643 172.268L38.8299 166.686H15.312V173.687L18.7894 174.602V190.845L15.312 191.76V198.714H31.7379V191.806L28.2606 190.89V187.688H38.8299L45.4643 182.151V172.268ZM34.8035 174.602L35.9931 175.563V178.765L34.8035 179.772H28.2606V174.602H34.8035Z" fill="url(#paint0_linear)"/>
<path d="M75.7285 192.995V172.268L69.0483 166.686H55.4592L48.779 172.268V192.995L55.6879 198.714H68.7738C69.9329 197.769 71.092 196.823 72.2511 195.878C73.4102 194.902 74.5693 193.941 75.7285 192.995ZM65.0676 174.602L66.303 175.563V189.792L65.0219 190.845H59.4856L58.2044 189.792V175.563L59.4398 174.602H65.0676Z" fill="url(#paint1_linear)"/>
<path d="M129.878 173.687V166.686H117.57V173.687L119.492 174.602L115.969 188.557L112.034 174.602L114.276 173.687V166.686H97.7582V173.687L99.9087 174.602L96.1111 188.557L92.3592 174.602L94.4639 173.687V166.686H79.0904V173.687L81.8814 174.602L88.0583 198.714H100.732L104.713 184.576L108.511 198.714H120.453L127.041 174.602L129.878 173.687Z" fill="url(#paint2_linear)"/>
<path d="M160.967 177.942V166.686H132.737V173.687L136.214 174.602V190.845L132.737 191.76V198.714H161.013V187.505H154.242L153.326 190.845H145.64V185.263H153.326V179.772H145.64V174.602H153.326L154.242 177.942H160.967Z" fill="url(#paint3_linear)"/>
<path d="M177.946 174.602H184.443L185.541 175.517V178.903L184.443 179.818H177.946V174.602ZM181.423 198.714V191.76L177.946 190.845V186.223H180.325L187.646 198.714H196.339V191.302L193.914 190.845L190.437 185.308L194.967 181.465V171.902L188.79 166.686H164.997V173.687L168.475 174.602V190.845L164.997 191.76V198.714H181.423Z" fill="url(#paint4_linear)"/>
<path fill-rule="evenodd" clip-rule="evenodd" d="M48.7771 172.268L55.4572 166.686H69.0464L75.7265 172.268V192.995C74.5674 193.941 73.4083 194.902 72.2492 195.878L68.7718 198.715H55.686L48.7771 192.995V172.268ZM45.4624 182.151V172.268L38.8279 166.686H15.3101V173.687L18.7874 174.602V190.845L15.3101 191.76V198.715H31.736V191.806L28.2586 190.89V187.688H38.8279L45.4624 182.151ZM36.6442 192.596H40.6069L43.8688 189.874V195.304L53.9181 203.623H70.5199L75.3815 199.657L75.4108 199.632C76.5506 198.672 77.6901 197.728 78.8292 196.798L80.6348 195.325V189.522L84.2469 203.623H95.0771L96.0804 207.355L97.096 203.623H104.447L104.6 203.082L104.745 203.623H115.115L116.228 207.571L117.225 203.623H124.198L127.827 190.341V203.623H201.246V187.234L196.929 186.419L196.854 186.299L199.873 183.737V169.623L190.583 161.778H74.1802V164.58L70.8271 161.778H53.6765L47.1249 167.253L40.6181 161.778H10.4019V177.47L13.8792 178.386V187.061L10.4019 187.976V203.623H36.6442V192.596ZM79.0884 173.687L81.8794 174.602L88.0563 198.715H100.73L104.711 184.576L108.509 198.715H120.451L127.039 174.602L129.876 173.687V166.686H117.568V173.687L119.49 174.602L115.967 188.557L112.032 174.602L114.274 173.687V166.686H97.7563V173.687L99.9068 174.602L96.1091 188.557L92.3573 174.602L94.462 173.687V166.686H79.0884V173.687ZM131.074 178.458L128.523 187.793L131.304 187.061V178.386L131.3 178.385L131.074 178.458ZM136.212 174.602V190.845L132.735 191.76V198.715H161.011V187.505H154.24L153.325 190.845H145.638V185.263H153.325V179.772H145.638V174.602H153.325L154.24 177.942H160.966V166.686H132.735V173.687L136.212 174.602ZM164.996 191.76V198.715H181.421V191.76L177.944 190.845V186.224H180.323L187.644 198.715H196.337V191.302L193.912 190.845L190.435 185.308L194.965 181.465V171.902L188.788 166.686H164.996V173.687L168.473 174.602V190.845L164.996 191.76ZM34.8015 179.772H28.2586V174.602H34.8015L35.9912 175.563V178.766L34.8015 179.772ZM59.4379 174.602L58.2025 175.563V189.792L59.4837 190.845H65.02L66.3011 189.792V175.563L65.0657 174.602H59.4379ZM184.441 174.602H177.944V179.818H184.441L185.539 178.903V175.517L184.441 174.602Z" fill="#260E0C"/>
<path d="M45.8552 212.026V205.64H32.1235V212.026L34.0017 212.861V217.577H26.948V212.861L28.868 212.026V205.64H15.1362V212.026L18.3083 212.861V227.678L15.1362 228.513V234.857H28.868V228.513L26.948 227.678V222.586H34.0017V227.678L32.1235 228.513V234.857H45.8552V228.513L42.6832 227.678V212.861L45.8552 212.026Z" fill="url(#paint5_linear)"/>
<path d="M74.2024 229.64V210.732L68.1087 205.64H55.7125L49.6188 210.732V229.64L55.9212 234.857H67.8582C68.9156 233.994 69.9729 233.132 71.0303 232.269C72.0877 231.379 73.145 230.502 74.2024 229.64ZM64.4775 212.861L65.6044 213.738V226.718L64.4357 227.678H59.3855L58.2168 226.718V213.738L59.3437 212.861H64.4775Z" fill="url(#paint6_linear)"/>
<path d="M102.073 210.398L96.3968 205.64H84.3345L77.8652 211.025V229.264L84.585 234.857H96.1463C97.1202 234.05 98.108 233.243 99.1097 232.436C100.111 231.601 101.099 230.767 102.073 229.932V224.631H94.2681L93.4334 227.678H87.7153L86.4632 226.676V213.821L87.6736 212.861H93.4334L94.2681 215.908H102.073V210.398Z" fill="url(#paint7_linear)"/>
<path d="M136.296 212.026V205.64H122.355V212.026L124.401 212.861L117.889 218.537V212.861L119.893 212.026V205.64H105.785V212.026L108.958 212.861V227.678L105.785 228.513V234.857H119.976V228.513L117.889 227.678V224.631L121.228 221.835L124.484 227.678L122.397 228.513V234.857H136.296V228.513L133.332 227.678L127.531 216.784L132.247 212.861L136.296 212.026Z" fill="url(#paint8_linear)"/>
<path d="M165.042 215.908V205.64H139.29V212.026L142.462 212.861V227.678L139.29 228.513V234.857H165.084V224.631H158.907L158.072 227.678H151.06V222.586H158.072V217.577H151.06V212.861H158.072L158.907 215.908H165.042Z" fill="url(#paint9_linear)"/>
<path d="M195.681 212.026V205.64H184.119V212.026L185.872 212.861L182.617 217.744L179.403 212.861L181.114 212.026V205.64H167.633V212.026L170.179 212.861L177.316 222.377V227.678L173.727 228.513V234.857H189.504V228.513L185.956 227.678V222.335L193.01 212.861L195.681 212.026Z" fill="url(#paint10_linear)"/>
<path fill-rule="evenodd" clip-rule="evenodd" d="M42.6812 212.862V227.679L45.8533 228.513V234.858H32.1216V228.513L33.9998 227.679V222.587H26.9461V227.679L28.866 228.513V234.858H15.1343V228.513L18.3064 227.679V212.862L15.1343 212.027V205.641H28.866V212.027L26.9461 212.862V217.578H33.9998V212.862L32.1216 212.027V205.641H45.8533V212.027L42.6812 212.862ZM50.7615 200.733V203.38L53.9298 200.733H69.8875L76.2097 206.016L82.5574 200.733H98.1799L100.875 202.992V200.733H200.587V215.636L195.993 217.071L190.971 223.817L194.41 224.626V239.766H100.875V237.322C100.338 237.761 99.8048 238.199 99.2759 238.637L97.9136 239.766H82.8077L76.2497 234.308C75.5633 234.874 74.8767 235.446 74.1899 236.024L74.1607 236.049L69.6044 239.766H54.1513L50.7615 236.96V239.766H10.2261V224.73L13.3981 223.895V216.645L10.2261 215.811V200.733H50.7615ZM55.9193 234.858H67.8563L71.0284 232.27C71.6706 231.729 72.3128 231.193 72.955 230.663C73.3702 230.32 73.7853 229.979 74.2004 229.64V210.733L68.1067 205.641H55.7106L49.6169 210.733V229.64L55.9193 234.858ZM84.583 234.858H96.1444C97.1183 234.051 98.1061 233.244 99.1078 232.437C99.7019 231.942 100.291 231.447 100.875 230.952C101.276 230.612 101.675 230.272 102.071 229.933V224.632H94.2662L93.4314 227.679H87.7134L86.4612 226.677V213.822L87.6716 212.862H93.4314L94.2662 215.909H102.071V210.399L96.3948 205.641H84.3326L77.8633 211.025V229.265L84.583 234.858ZM105.784 228.513V234.858H119.974V228.513L117.888 227.679V224.632L121.227 221.835L124.482 227.679L122.395 228.513V234.858H136.294V228.513L133.33 227.679L127.529 216.785L132.245 212.862L136.294 212.027V205.641H122.353V212.027L124.399 212.862L117.888 218.538V212.862L119.891 212.027V205.641H105.784V212.027L108.956 212.862V227.679L105.784 228.513ZM133.739 218.004L134.44 217.421L137.552 216.779V223.769L136.678 223.522L133.739 218.004ZM139.288 228.513V234.858H165.082V224.632H158.905L158.07 227.679H151.058V222.587H158.07V217.578H151.058V212.862H158.07L158.905 215.909H165.04V205.641H139.288V212.027L142.46 212.862V227.679L139.288 228.513ZM169.99 220.793V224.343L172.257 223.816L169.99 220.793ZM177.314 227.679L173.725 228.513V234.858H189.502V228.513L185.954 227.679V222.336L193.008 212.862L195.679 212.027V205.641H184.118V212.027L185.871 212.862L182.615 217.745L179.401 212.862L181.112 212.027V205.641H167.631V212.027L170.177 212.862L177.314 222.378V227.679ZM59.3418 212.862L58.2149 213.738V226.719L59.3835 227.679H64.4338L65.6025 226.719V213.738L64.4755 212.862H59.3418Z" fill="#260E0C"/>
<defs>
<linearGradient id="paint0_linear" x1="105.217" y1="160.787" x2="105.217" y2="208.993" gradientUnits="userSpaceOnUse">
<stop stop-color="#D04F27"/>
<stop offset="1" stop-color="#EC7B23"/>
</linearGradient>
<linearGradient id="paint1_linear" x1="105.217" y1="160.787" x2="105.217" y2="208.993" gradientUnits="userSpaceOnUse">
<stop stop-color="#D04F27"/>
<stop offset="1" stop-color="#EC7B23"/>
</linearGradient>
<linearGradient id="paint2_linear" x1="105.217" y1="160.787" x2="105.217" y2="208.993" gradientUnits="userSpaceOnUse">
<stop stop-color="#D04F27"/>
<stop offset="1" stop-color="#EC7B23"/>
</linearGradient>
<linearGradient id="paint3_linear" x1="105.217" y1="160.787" x2="105.217" y2="208.993" gradientUnits="userSpaceOnUse">
<stop stop-color="#D04F27"/>
<stop offset="1" stop-color="#EC7B23"/>
</linearGradient>
<linearGradient id="paint4_linear" x1="105.217" y1="160.787" x2="105.217" y2="208.993" gradientUnits="userSpaceOnUse">
<stop stop-color="#D04F27"/>
<stop offset="1" stop-color="#EC7B23"/>
</linearGradient>
<linearGradient id="paint5_linear" x1="105.217" y1="200.499" x2="105.217" y2="248.705" gradientUnits="userSpaceOnUse">
<stop stop-color="#D04F27"/>
<stop offset="1" stop-color="#EC7B23"/>
</linearGradient>
<linearGradient id="paint6_linear" x1="105.217" y1="200.499" x2="105.217" y2="248.705" gradientUnits="userSpaceOnUse">
<stop stop-color="#D04F27"/>
<stop offset="1" stop-color="#EC7B23"/>
</linearGradient>
<linearGradient id="paint7_linear" x1="105.217" y1="200.499" x2="105.217" y2="248.705" gradientUnits="userSpaceOnUse">
<stop stop-color="#D04F27"/>
<stop offset="1" stop-color="#EC7B23"/>
</linearGradient>
<linearGradient id="paint8_linear" x1="105.217" y1="200.499" x2="105.217" y2="248.705" gradientUnits="userSpaceOnUse">
<stop stop-color="#D04F27"/>
<stop offset="1" stop-color="#EC7B23"/>
</linearGradient>
<linearGradient id="paint9_linear" x1="105.217" y1="200.499" x2="105.217" y2="248.705" gradientUnits="userSpaceOnUse">
<stop stop-color="#D04F27"/>
<stop offset="1" stop-color="#EC7B23"/>
</linearGradient>
<linearGradient id="paint10_linear" x1="105.217" y1="200.499" x2="105.217" y2="248.705" gradientUnits="userSpaceOnUse">
<stop stop-color="#D04F27"/>
<stop offset="1" stop-color="#EC7B23"/>
</linearGradient>
</defs>
</svg>
