<svg width="34" height="34" viewBox="0 0 34 34" fill="none" xmlns="http://www.w3.org/2000/svg">
<path fill-rule="evenodd" clip-rule="evenodd" d="M14.7281 16.8496L8.71767 10.8392C8.13188 10.2534 8.13188 9.30367 8.71766 8.71788C9.30345 8.1321 10.2532 8.1321 10.839 8.71788L16.8494 14.7283L22.8598 8.71788C23.4456 8.1321 24.3953 8.13209 24.9811 8.71788C25.5669 9.30367 25.5669 10.2534 24.9811 10.8392L18.9707 16.8496L24.9811 22.86C25.5669 23.4458 25.5669 24.3955 24.9811 24.9813C24.3953 25.5671 23.4456 25.5671 22.8598 24.9813L16.8494 18.9709L10.839 24.9813C10.2532 25.5671 9.30345 25.5671 8.71767 24.9813C8.13188 24.3956 8.13188 23.4458 8.71767 22.86L14.7281 16.8496Z" fill="url(#paint0_linear)"/>
<defs>
<linearGradient id="paint0_linear" x1="7.21547" y1="14.0971" x2="26.447" y2="19.5297" gradientUnits="userSpaceOnUse">
<stop stop-color="#D04F27"/>
<stop offset="1" stop-color="#EC7B23"/>
</linearGradient>
</defs>
</svg>
