<svg width="42" height="42" viewBox="0 0 42 42" fill="none" xmlns="http://www.w3.org/2000/svg">
<path d="M17.2389 19.2896C17.5957 19.0312 17.768 18.6047 17.768 18.0182C17.7803 17.7393 17.7229 17.4645 17.5998 17.2143C17.4891 17.0133 17.325 16.8451 17.124 16.7262C16.9156 16.5998 16.6842 16.5161 16.4432 16.4801C16.1807 16.4309 15.9141 16.4062 15.6516 16.4104H12.7682V19.6793H15.8895C16.4268 19.6834 16.882 19.5521 17.2389 19.2896ZM17.7229 22.2428C17.3209 21.9352 16.7836 21.7834 16.115 21.7834H12.76V25.6389H16.0494C16.357 25.6389 16.64 25.6102 16.9148 25.5527C17.1748 25.5019 17.4227 25.4016 17.6449 25.2574C17.8541 25.1221 18.0223 24.9375 18.1494 24.6996C18.2725 24.4617 18.334 24.1582 18.334 23.7932C18.334 23.0672 18.1289 22.5545 17.7229 22.2428ZM21 2.625C10.8527 2.625 2.625 10.8527 2.625 21C2.625 31.1473 10.8527 39.375 21 39.375C31.1473 39.375 39.375 31.1473 39.375 21C39.375 10.8527 31.1473 2.625 21 2.625ZM24.5478 14.3924H30.2244V15.7746H24.5478V14.3924ZM21 25.7906C20.7345 26.2946 20.3554 26.7299 19.8926 27.0621C19.4086 27.3984 18.8713 27.6445 18.3012 27.7881C17.7047 27.9479 17.0894 28.0266 16.4719 28.0219H9.67969V14.0314H16.2832C16.9518 14.0314 17.5588 14.093 18.1125 14.2078C18.6621 14.3227 19.1297 14.5195 19.5234 14.7861C19.9131 15.0527 20.2207 15.4096 20.4381 15.8525C20.6514 16.2914 20.7621 16.841 20.7621 17.4932C20.7621 18.1986 20.6021 18.7811 20.2822 19.2527C19.9582 19.7244 19.4906 20.1059 18.8549 20.4053C19.7203 20.6514 20.3561 21.0902 20.7744 21.7055C21.201 22.3289 21.4102 23.0754 21.4102 23.9531C21.4102 24.6668 21.2748 25.2779 21 25.7906ZM32.4352 23.625H25.118C25.118 24.4207 25.3928 25.1836 25.807 25.5937C26.2254 25.9998 26.8242 26.2049 27.6076 26.2049C28.1736 26.2049 28.6535 26.0613 29.0637 25.7783C29.4697 25.4953 29.7158 25.1959 29.8061 24.8842H32.2588C31.865 26.1023 31.2662 26.9719 30.4541 27.4969C29.6502 28.0219 28.6658 28.2844 27.5215 28.2844C26.7217 28.2844 26.0039 28.1531 25.36 27.9029C24.7406 27.6609 24.1828 27.2918 23.7234 26.816C23.2705 26.3274 22.9204 25.7527 22.6939 25.1262C22.4437 24.433 22.3207 23.7029 22.3289 22.9687C22.3289 22.21 22.4561 21.5045 22.7021 20.8482C23.1738 19.5727 24.1541 18.5514 25.4051 18.0223C26.0736 17.7434 26.7914 17.6039 27.5174 17.6121C28.3787 17.6121 29.1252 17.7762 29.7732 18.1125C30.3971 18.4337 30.9388 18.894 31.3564 19.4578C31.7707 20.0197 32.0619 20.6596 32.2465 21.3814C32.4228 22.091 32.4844 22.8375 32.4352 23.625ZM27.4312 19.7039C26.9883 19.7039 26.615 19.7818 26.3279 19.9336C26.0408 20.0854 25.8029 20.274 25.6225 20.4914C25.4506 20.7013 25.3236 20.9442 25.2492 21.2051C25.1836 21.4225 25.1385 21.6439 25.1221 21.8695H29.6543C29.5887 21.16 29.3426 20.635 29.0145 20.2658C28.6699 19.9008 28.1162 19.7039 27.4312 19.7039Z" fill="#A247FA"/>
</svg>
