<svg width="30" height="29" viewBox="0 0 30 29" fill="none" xmlns="http://www.w3.org/2000/svg">
<path d="M14.8569 10.5664C12.8089 10.5664 11.1376 12.2378 11.1376 14.2857C11.1376 16.3337 12.8089 18.0051 14.8569 18.0051C16.9049 18.0051 18.5762 16.3337 18.5762 14.2857C18.5762 12.2378 16.9049 10.5664 14.8569 10.5664ZM26.0121 14.2857C26.0121 12.7456 26.026 11.2193 25.9395 9.68195C25.853 7.89623 25.4457 6.31141 24.1399 5.00561C22.8313 3.69701 21.2492 3.29244 19.4635 3.20594C17.9233 3.11945 16.3971 3.1334 14.8597 3.1334C13.3195 3.1334 11.7933 3.11945 10.2559 3.20594C8.47021 3.29244 6.88539 3.6998 5.57958 5.00561C4.27099 6.3142 3.86641 7.89623 3.77992 9.68195C3.69342 11.2221 3.70737 12.7484 3.70737 14.2857C3.70737 15.8231 3.69342 17.3521 3.77992 18.8895C3.86641 20.6753 4.27378 22.2601 5.57958 23.5659C6.88818 24.8745 8.47021 25.279 10.2559 25.3655C11.7961 25.452 13.3223 25.4381 14.8597 25.4381C16.3999 25.4381 17.9261 25.452 19.4635 25.3655C21.2492 25.279 22.834 24.8717 24.1399 23.5659C25.4484 22.2573 25.853 20.6753 25.9395 18.8895C26.0288 17.3521 26.0121 15.8259 26.0121 14.2857ZM14.8569 20.0084C11.6901 20.0084 9.13427 17.4526 9.13427 14.2857C9.13427 11.1189 11.6901 8.56309 14.8569 8.56309C18.0238 8.56309 20.5796 11.1189 20.5796 14.2857C20.5796 17.4526 18.0238 20.0084 14.8569 20.0084ZM20.814 9.66521C20.0746 9.66521 19.4775 9.06811 19.4775 8.32871C19.4775 7.58931 20.0746 6.99222 20.814 6.99222C21.5534 6.99222 22.1505 7.58931 22.1505 8.32871C22.1507 8.50428 22.1163 8.67818 22.0492 8.84043C21.9821 9.00268 21.8836 9.1501 21.7595 9.27425C21.6353 9.3984 21.4879 9.49683 21.3257 9.56392C21.1634 9.63101 20.9895 9.66543 20.814 9.66521Z" fill="#A247FA"/>
</svg>
