<svg width="100" height="29" viewBox="0 0 100 29" fill="none" xmlns="http://www.w3.org/2000/svg">
<path d="M3.03901 26.1904V14.4597H0V10.2361H3.03901V6.62855C3.03901 3.79373 4.83417 1.19043 8.97058 1.19043C10.6454 1.19043 11.8838 1.3543 11.8838 1.3543L11.7862 5.29845C11.7862 5.29845 10.5232 5.2859 9.14498 5.2859C7.65332 5.2859 7.41434 5.98753 7.41434 7.15205V10.2361H11.9048L11.7094 14.4597H7.41434V26.1904H3.03901Z" fill="#B9B9BB" fill-opacity="0.8"/>
<path d="M42.8572 10.5664C40.8092 10.5664 39.1379 12.2378 39.1379 14.2857C39.1379 16.3337 40.8092 18.0051 42.8572 18.0051C44.9052 18.0051 46.5765 16.3337 46.5765 14.2857C46.5765 12.2378 44.9052 10.5664 42.8572 10.5664ZM54.0123 14.2857C54.0123 12.7456 54.0263 11.2193 53.9398 9.68195C53.8533 7.89623 53.4459 6.31141 52.1401 5.00561C50.8315 3.69701 49.2495 3.29244 47.4638 3.20594C45.9236 3.11945 44.3973 3.1334 42.86 3.1334C41.3198 3.1334 39.7936 3.11945 38.2562 3.20594C36.4705 3.29244 34.8856 3.6998 33.5798 5.00561C32.2712 6.3142 31.8667 7.89623 31.7802 9.68195C31.6937 11.2221 31.7076 12.7484 31.7076 14.2857C31.7076 15.8231 31.6937 17.3521 31.7802 18.8895C31.8667 20.6753 32.274 22.2601 33.5798 23.5659C34.8884 24.8745 36.4705 25.279 38.2562 25.3655C39.7963 25.452 41.3226 25.4381 42.86 25.4381C44.4001 25.4381 45.9264 25.452 47.4638 25.3655C49.2495 25.279 50.8343 24.8717 52.1401 23.5659C53.4487 22.2573 53.8533 20.6753 53.9398 18.8895C54.029 17.3521 54.0123 15.8259 54.0123 14.2857ZM42.8572 20.0084C39.6903 20.0084 37.1345 17.4526 37.1345 14.2857C37.1345 11.1189 39.6903 8.56309 42.8572 8.56309C46.024 8.56309 48.5798 11.1189 48.5798 14.2857C48.5798 17.4526 46.024 20.0084 42.8572 20.0084ZM48.8142 9.66521C48.0748 9.66521 47.4777 9.06811 47.4777 8.32871C47.4777 7.58931 48.0748 6.99222 48.8142 6.99222C49.5536 6.99222 50.1507 7.58931 50.1507 8.32871C50.1509 8.50428 50.1165 8.67818 50.0494 8.84043C49.9823 9.00268 49.8839 9.1501 49.7597 9.27425C49.6356 9.3984 49.4882 9.49683 49.3259 9.56392C49.1637 9.63101 48.9898 9.66543 48.8142 9.66521Z" fill="#99999A"/>
<path d="M83.1555 13.1221C83.3983 12.9464 83.5155 12.6562 83.5155 12.2572C83.5238 12.0675 83.4848 11.8805 83.4011 11.7103C83.3257 11.5736 83.2141 11.4592 83.0774 11.3783C82.9356 11.2923 82.7782 11.2354 82.6142 11.2109C82.4357 11.1774 82.2543 11.1606 82.0757 11.1634H80.1142V13.3872H82.2375C82.6031 13.39 82.9128 13.3007 83.1555 13.1221ZM83.4848 15.1311C83.2113 14.9218 82.8458 14.8186 82.391 14.8186H80.1086V17.4413H82.3464C82.5556 17.4413 82.7482 17.4218 82.9351 17.3827C83.112 17.3482 83.2806 17.28 83.4317 17.1818C83.574 17.0898 83.6884 16.9642 83.7749 16.8024C83.8586 16.6406 83.9005 16.4341 83.9005 16.1858C83.9005 15.6919 83.761 15.3431 83.4848 15.1311ZM85.7141 1.78564C78.8112 1.78564 73.2141 7.38274 73.2141 14.2856C73.2141 21.1885 78.8112 26.7856 85.7141 26.7856C92.617 26.7856 98.2141 21.1885 98.2141 14.2856C98.2141 7.38274 92.617 1.78564 85.7141 1.78564ZM88.1276 9.79067H91.9892V10.731H88.1276V9.79067ZM85.7141 17.5446C85.5335 17.8874 85.2756 18.1836 84.9608 18.4095C84.6315 18.6383 84.266 18.8057 83.8782 18.9034C83.4724 19.0121 83.0538 19.0656 82.6338 19.0624H78.0132V9.54513H82.5054C82.9602 9.54513 83.3732 9.58698 83.7498 9.66511C84.1237 9.74323 84.4418 9.87716 84.7096 10.0585C84.9747 10.2399 85.184 10.4826 85.3319 10.784C85.4769 11.0825 85.5523 11.4564 85.5523 11.9C85.5523 12.38 85.4435 12.7762 85.2258 13.097C85.0054 13.4179 84.6873 13.6774 84.2548 13.8811C84.8436 14.0485 85.2761 14.347 85.5607 14.7656C85.8508 15.1897 85.9931 15.6975 85.9931 16.2946C85.9931 16.7801 85.9011 17.1958 85.7141 17.5446ZM93.4931 16.0714H88.5155C88.5155 16.6127 88.7024 17.1316 88.9842 17.4106C89.2688 17.6869 89.6762 17.8264 90.2091 17.8264C90.5941 17.8264 90.9206 17.7287 91.1996 17.5362C91.4758 17.3437 91.6432 17.14 91.7046 16.9279H93.3731C93.1053 17.7566 92.6979 18.3481 92.1455 18.7053C91.5986 19.0624 90.929 19.241 90.1505 19.241C89.6064 19.241 89.1181 19.1517 88.6801 18.9815C88.2588 18.8169 87.8793 18.5658 87.5668 18.2421C87.2587 17.9097 87.0205 17.5188 86.8665 17.0926C86.6963 16.621 86.6125 16.1244 86.6181 15.6249C86.6181 15.1087 86.7046 14.6288 86.872 14.1824C87.1929 13.3147 87.8598 12.6199 88.7108 12.26C89.1656 12.0702 89.6538 11.9754 90.1477 11.981C90.7336 11.981 91.2415 12.0926 91.6823 12.3214C92.1067 12.5398 92.4752 12.853 92.7593 13.2365C93.0411 13.6188 93.2392 14.0541 93.3648 14.5451C93.4848 15.0278 93.5266 15.5356 93.4931 16.0714ZM90.0891 13.4039C89.7878 13.4039 89.5339 13.457 89.3386 13.5602C89.1432 13.6634 88.9814 13.7918 88.8586 13.9397C88.7417 14.0824 88.6553 14.2477 88.6047 14.4252C88.5601 14.573 88.5294 14.7237 88.5182 14.8772H91.6014C91.5567 14.3945 91.3893 14.0373 91.1661 13.7862C90.9317 13.5379 90.5551 13.4039 90.0891 13.4039Z" fill="#99999A"/>
</svg>
