<svg xmlns="http://www.w3.org/2000/svg">
<defs>
<font id="Aktifo-A-Medium" horiz-adv-x="595" >
  <font-face 
    font-family="Aktifo-A Medium"
    font-weight="500"
    font-stretch="normal"
    units-per-em="1000"
    panose-1="2 0 6 0 0 0 0 0 0 0"
    ascent="785"
    descent="-215"
    x-height="518"
    cap-height="725"
    bbox="-74 -238 1401 988"
    underline-thickness="50"
    underline-position="-200"
    unicode-range="U+000D-2212"
  />
<missing-glyph horiz-adv-x="1012" 
d="M675 662q0 27 18.5 45t45.5 18t45 -18t18 -45t-18 -44t-45 -17t-45.5 17t-18.5 44zM840 662q0 27 18.5 45t45.5 18q26 0 44.5 -18t18.5 -45q0 -26 -18.5 -43.5t-44.5 -17.5q-27 0 -45.5 17t-18.5 44zM199 601q42 0 42 61q0 60 -42 60q-43 0 -43 -60q0 -61 43 -61zM43 631
h61v-28h20v28h15v18h-15v72h-25l-56 -74v-16zM256 631h62v-28h20v28h16v18h-16v72h-26l-56 -74v-16zM199 618q-23 0 -23 44q0 43 23 43q22 0 22 -43q0 -44 -22 -44zM65 649l39 53v-53h-39zM278 649l40 53v-53h-40zM739 653l24 -26l10 10l-25 25l25 26l-10 10l-24 -26l-26 26
l-9 -10l26 -26l-26 -25l9 -10zM904 653l25 -26l9 10l-27 25l27 26l-9 10l-25 -26l-26 26l-9 -10l26 -26l-26 -25l9 -10zM968 470v-21h-925v21h925zM187 277h19v121h-19v-121zM449 277h18v45q0 24 23 24q19 0 19 -19v-50h18v53q0 34 -30 34q-18 0 -30 -16v50h-18v-121z
M165 339h-66v-16h46q-2 -31 -38 -31q-40 0 -40 42q0 20 10.5 32.5t29.5 12.5q12 0 22 -6.5t12 -15.5h21q-4 18 -18.5 29t-36.5 11q-27 0 -44 -17t-17 -44q0 -29 16.5 -45.5t44.5 -16.5q26 0 42 15.5t16 40.5v9zM758 395v-87l-60 87h-22v-118h20v87l60 -87h22v118h-20z
M926 277h18v68h24v16h-24v23l-18 -1v-22h-25v-16h25v-68zM387 364q-21 0 -34 -16l-2 13h-16v-118h19v44q13 -13 31 -13q20 0 32 12.5t12 32.5q0 19 -12 32t-30 13zM584 274q16 0 25.5 8t9.5 21q0 18 -23 23l-18 2q-12 4 -12 9q0 11 16 11t18 -12h18q0 13 -10 20.5t-26 7.5
q-15 0 -24.5 -7.5t-9.5 -20.5q0 -18 26 -24l15 -2q11 -3 11 -11q0 -10 -16 -10q-19 0 -19 14h-18q2 -29 37 -29zM797 319q0 -20 13.5 -32.5t34.5 -12.5q20 0 33.5 12.5t13.5 32.5q0 19 -13.5 32t-33.5 13q-21 0 -34.5 -12.5t-13.5 -32.5zM221 361l39 -69l-28 -49h22l65 118

<glyph glyph-name="fi" unicode="fi" horiz-adv-x="682" 
d="M623 702q0 -30 -20.5 -48.5t-52.5 -18.5q-33 0 -53.5 18.5t-20.5 48.5q0 29 20.5 47t53.5 18q32 0 52.5 -18t20.5 -47zM602 0h-104v430h-243v-430h-104v430h-125v88h125v68q0 67 36 118q36 52 132 52q34 0 67 -6v-82q-24 2 -35 2q-53 0 -74.5 -20.5t-21.5 -68.5v-63h347
v-518z" />
    <glyph glyph-name="fl" unicode="fl" horiz-adv-x="684" 
d="M603 750v-750h-104v430h-244v-430h-104v430h-125v88h125v68q0 67 36 118q36 52 132 52q34 0 67 -6v-82q-24 2 -35 2q-53 0 -74.5 -20.5t-21.5 -68.5v-63h244v232h104z" />
    <glyph glyph-name="T_J" unicode="TJ" horiz-adv-x="1076" 
d="M993 219q0 -107 -65.5 -168t-174.5 -61q-106 0 -168.5 61t-62.5 164v35l107 10v-44q0 -63 33.5 -95.5t93.5 -32.5t94.5 35t34.5 93v414h-333v1h-196v-631h-109v631h-229v94h975v-506z" />
    <glyph glyph-name="T_T" unicode="TT" horiz-adv-x="1012" 
d="M993 631h-227v-631h-109v631h-301v-631h-109v631h-229v94h975v-94z" />
    <glyph glyph-name="T_j" unicode="Tj" horiz-adv-x="874" 
d="M816 684q0 -30 -21 -49t-54 -19q-35 0 -55.5 19t-20.5 49t20.5 48t55.5 18q33 0 54 -19t21 -47zM363 630v-630h-109v630h-236v95h573v-95h-228zM685 518h103v-539q0 -94 -48.5 -140.5t-137.5 -46.5q-35 0 -78 8v80h47q61 0 87.5 25t26.5 77v536z" />
    <glyph glyph-name="f_f" unicode="ff" horiz-adv-x="771" 
d="M753 518v-88h-150v-430h-104v430h-244v-430h-104v430h-125v88h125v68q0 67 36 118q36 52 132 52q34 0 67 -6v-82q-24 2 -35 2q-53 0 -74.5 -20.5t-21.5 -68.5v-63h244v68q0 67 36 118q36 52 132 52q34 0 67 -6v-82q-24 2 -35 2q-53 0 -74.5 -20.5t-21.5 -68.5v-63h150z
" />
    <glyph glyph-name="f_f_i" unicode="ffi" horiz-adv-x="1013" 
d="M956 701q0 -30 -20.5 -49t-53.5 -19q-35 0 -55.5 19t-20.5 49t20.5 48t55.5 18q33 0 53.5 -19t20.5 -47zM934 0h-105v430h-226v-430h-104v430h-244v-430h-104v430h-125v88h125v68q0 67 36 118q36 52 132 52q34 0 67 -6v-82q-24 2 -35 2q-53 0 -74.5 -20.5t-21.5 -68.5
v-63h244v68q0 67 36 118q36 52 132 52q34 0 67 -6v-82q-24 2 -35 2q-53 0 -74.5 -20.5t-21.5 -68.5v-63h331v-518z" />
    <glyph glyph-name="f_f_l" unicode="ffl" horiz-adv-x="1029" 
d="M949 750v-750h-105v430h-241v-430h-104v430h-244v-430h-104v430h-125v88h125v68q0 67 36 118q36 52 132 52q34 0 67 -6v-82q-24 2 -35 2q-53 0 -74.5 -20.5t-21.5 -68.5v-63h244v68q0 67 36 118q36 52 132 52q34 0 67 -6v-82q-24 2 -35 2q-53 0 -74.5 -20.5t-21.5 -68.5
v-63h241v232h105z" />
    <glyph glyph-name="f_t" unicode="ft" horiz-adv-x="767" 
d="M592 430v-263q0 -47 21 -67t70 -20q8 0 40 2v-81q-38 -8 -83 -8q-64 0 -99.5 25.5t-44.5 63.5q-8 37 -8 74v274h-233v-430h-104v430h-125v88h125v68q0 67 36 118q36 52 132 52q34 0 67 -6v-82q-24 2 -35 2q-53 0 -74.5 -20.5t-21.5 -68.5v-63h233v172h104v-172h140v-88
h-140z" />
    <glyph glyph-name="g_j" unicode="gj" horiz-adv-x="837" 
d="M779 701q0 -30 -20.5 -49t-54.5 -19q-35 0 -55.5 19t-20.5 49t20.5 48t55.5 18q33 0 54 -19t21 -47zM541 -55q0 -148 -181 -148h-164q-187 0 -187 142q0 72 49 110.5t132 38.5h16v84q-75 12 -118 58.5t-43 114.5q0 83 60.5 133t155.5 50h271v-78l-115 15q50 -45 50 -118
q0 -71 -45 -118t-123 -58v-83h65q85 0 131 -37t46 -106zM648 518h103v-718h-103v718zM256 246q53 0 83 27.5t30 73.5q0 48 -30.5 74.5t-82.5 26.5q-53 0 -83.5 -28t-30.5 -74q0 -47 31 -73.5t83 -26.5zM438 -49q0 69 -90 69h-147q-90 0 -90 -71t93 -71h144q90 0 90 73z" />
    <glyph glyph-name="j_j" unicode="jj" horiz-adv-x="542" 
d="M67 701q0 28 21.5 47t54.5 19q34 0 54.5 -18.5t20.5 -47.5q0 -30 -20 -49t-55 -19t-55.5 19t-20.5 49zM333 701q0 30 20.5 48t55.5 18q33 0 54 -19t21 -47q0 -30 -20.5 -49t-54.5 -19q-35 0 -55.5 19t-20.5 49zM-74 -200v80h47q62 0 88 25t26 77v536h104v-539
q0 -94 -49 -140.5t-138 -46.5q-35 0 -78 8zM353 518h103v-718h-103v718z" />
    <glyph glyph-name="t_f" unicode="tf" horiz-adv-x="770" 
d="M751 518v-88h-149v-430h-105v430h-248v-263q0 -47 21 -67t70 -20q8 0 40 2v-81q-38 -8 -83 -8q-64 0 -99.5 25.5t-44.5 63.5q-8 37 -8 74v274h-122v88h122v172h104v-172h248v68q0 67 36 118q36 52 132 52q35 0 68 -6v-82q-24 2 -35 2q-53 0 -74.5 -20.5t-21.5 -68.5v-63
h149z" />
    <glyph glyph-name="t_i" unicode="ti" horiz-adv-x="698" 
d="M641 701q0 -30 -20.5 -49t-53.5 -19q-35 0 -55.5 19t-20.5 49t20.5 48t55.5 18q33 0 53.5 -19t20.5 -47zM619 0h-105v430h-265v-263q0 -47 21 -67t70 -20q8 0 40 2v-81q-38 -8 -83 -8q-64 0 -99.5 25.5t-44.5 63.5q-8 37 -8 74v274h-122v88h122v172h104v-172h370v-518z
" />
    <glyph glyph-name="t_t" unicode="tt" horiz-adv-x="762" 
d="M588 430v-263q0 -47 20.5 -67t69.5 -20q7 0 41 2v-81q-38 -8 -83 -8q-65 0 -100.5 25.5t-44.5 63.5q-8 37 -8 74v274h-234v-263q0 -47 21 -67t70 -20q8 0 40 2v-81q-38 -8 -83 -8q-64 0 -99.5 25.5t-44.5 63.5q-8 37 -8 74v274h-122v88h122v172h104v-172h234v172h105
v-172h139v-88h-139z" />
    <glyph glyph-name=".notdef" horiz-adv-x="1012" 
d="M675 662q0 27 18.5 45t45.5 18t45 -18t18 -45t-18 -44t-45 -17t-45.5 17t-18.5 44zM840 662q0 27 18.5 45t45.5 18q26 0 44.5 -18t18.5 -45q0 -26 -18.5 -43.5t-44.5 -17.5q-27 0 -45.5 17t-18.5 44zM199 601q42 0 42 61q0 60 -42 60q-43 0 -43 -60q0 -61 43 -61zM43 631
h61v-28h20v28h15v18h-15v72h-25l-56 -74v-16zM256 631h62v-28h20v28h16v18h-16v72h-26l-56 -74v-16zM199 618q-23 0 -23 44q0 43 23 43q22 0 22 -43q0 -44 -22 -44zM65 649l39 53v-53h-39zM278 649l40 53v-53h-40zM739 653l24 -26l10 10l-25 25l25 26l-10 10l-24 -26l-26 26
l-9 -10l26 -26l-26 -25l9 -10zM904 653l25 -26l9 10l-27 25l27 26l-9 10l-25 -26l-26 26l-9 -10l26 -26l-26 -25l9 -10zM968 470v-21h-925v21h925zM187 277h19v121h-19v-121zM449 277h18v45q0 24 23 24q19 0 19 -19v-50h18v53q0 34 -30 34q-18 0 -30 -16v50h-18v-121z
M165 339h-66v-16h46q-2 -31 -38 -31q-40 0 -40 42q0 20 10.5 32.5t29.5 12.5q12 0 22 -6.5t12 -15.5h21q-4 18 -18.5 29t-36.5 11q-27 0 -44 -17t-17 -44q0 -29 16.5 -45.5t44.5 -16.5q26 0 42 15.5t16 40.5v9zM758 395v-87l-60 87h-22v-118h20v87l60 -87h22v118h-20z
M926 277h18v68h24v16h-24v23l-18 -1v-22h-25v-16h25v-68zM387 364q-21 0 -34 -16l-2 13h-16v-118h19v44q13 -13 31 -13q20 0 32 12.5t12 32.5q0 19 -12 32t-30 13zM584 274q16 0 25.5 8t9.5 21q0 18 -23 23l-18 2q-12 4 -12 9q0 11 16 11t18 -12h18q0 13 -10 20.5t-26 7.5
q-15 0 -24.5 -7.5t-9.5 -20.5q0 -18 26 -24l15 -2q11 -3 11 -11q0 -10 -16 -10q-19 0 -19 14h-18q2 -29 37 -29zM797 319q0 -20 13.5 -32.5t34.5 -12.5q20 0 33.5 12.5t13.5 32.5q0 19 -13.5 32t-33.5 13q-21 0 -34.5 -12.5t-13.5 -32.5zM221 361l39 -69l-28 -49h22l65 118
h-22l-27 -51l-27 51h-22zM381 290q-12 0 -19.5 7.5t-7.5 20.5v2q0 26 27 26q29 0 29 -27q0 -29 -29 -29zM817 319q0 27 28 27q27 0 27 -27q0 -12 -7.5 -20.5t-19.5 -8.5q-28 0 -28 29zM535 201v-49q-12 12 -33 12q-42 0 -42 -43q0 -20 11 -32.5t30 -12.5q22 0 34 16l1 -15
h17v124h-18zM52 77h20v53h59v17h-59v33h65v17h-85v-120zM584 118h12l4 79h-22zM145 121q0 -19 13.5 -32t33.5 -13q21 0 34.5 12.5t13.5 32.5t-13.5 31.5t-34.5 11.5t-34 -11.5t-13 -31.5zM362 77h18v46q0 26 23 26q19 0 19 -19v-53h18v55q0 32 -30 32q-23 0 -30 -13l-1 12
h-17v-86zM289 76q20 0 29 16l1 -15h17v86h-18v-49q0 -21 -24 -21q-17 0 -17 20v50h-19v-53q0 -34 31 -34zM165 121q0 12 7.5 20t19.5 8q28 0 28 -28t-28 -28q-12 0 -19.5 7.5t-7.5 20.5zM506 93q-12 0 -20 7.5t-8 20.5q0 12 7.5 20t20.5 8q29 0 29 -27v-3q0 -26 -29 -26z
M589 76q12 0 12 14q0 12 -12 12q-13 0 -13 -12q0 -5 4 -9.5t9 -4.5zM968 22v-21h-925v21h925z" />
    <glyph glyph-name=".null" horiz-adv-x="0" 
 />
    <glyph glyph-name="nonmarkingreturn" horiz-adv-x="333" 
 />
    <glyph glyph-name="CR" unicode="&#xd;" horiz-adv-x="232" 
 />
    <glyph glyph-name="space" unicode=" " horiz-adv-x="225" 
 />
    <glyph glyph-name="exclam" unicode="!" horiz-adv-x="299" 
d="M93 725h114l-25 -488h-64zM75 65q0 31 21.5 51t53.5 20q31 0 52.5 -20.5t21.5 -50.5q0 -31 -21.5 -51.5t-52.5 -20.5q-32 0 -53.5 20.5t-21.5 51.5z" />
    <glyph glyph-name="quotedbl" unicode="&#x22;" horiz-adv-x="390" 
d="M79 453l-34 213q-2 14 -2 15q0 24 14.5 38t38.5 14t39 -14t15 -38q0 -12 -1 -15l-36 -213h-34zM275 453l-34 213q-2 14 -2 15q0 24 14.5 38t38.5 14t39 -14t15 -38q0 -12 -1 -15l-36 -213h-34z" />
    <glyph glyph-name="numbersign" unicode="#" horiz-adv-x="767" 
d="M604 481l-50 -208h123l-17 -78h-125l-46 -195h-85l46 195h-222l-46 -195h-85l47 195h-94l17 78h95l50 208h-122l17 77h124l45 189h84l-45 -189l222 1l45 188h85l-45 -188h95l-17 -78h-96zM519 481h-222l-50 -208h222z" />
    <glyph glyph-name="dollar" unicode="$" horiz-adv-x="596" 
d="M331 37v-83h-64v84q-100 8 -161 63t-65 142h102q2 -57 45 -89.5t115 -32.5q67 0 105.5 28t38.5 75q0 36 -25 59t-70 30l-117 18q-84 13 -131.5 56.5t-47.5 113.5q0 82 57.5 135t153.5 59v85h64v-85q92 -7 146.5 -58.5t56.5 -132.5h-99q-2 51 -40 80.5t-102 29.5
q-61 0 -95 -26.5t-34 -72.5q0 -76 97 -89l120 -19q86 -14 130 -59t44 -116q0 -83 -61 -135.5t-163 -59.5z" />
    <glyph glyph-name="percent" unicode="%" horiz-adv-x="876" 
d="M38 568q0 73 49.5 120t122.5 47t122.5 -47t49.5 -120t-49.5 -121t-122.5 -48t-122.5 48t-49.5 121zM628 725h86l-465 -725h-86zM300 568q0 41 -25.5 67t-64.5 26t-65 -26t-26 -67q0 -42 26 -68.5t65 -26.5t64.5 26.5t25.5 68.5zM495 157q0 74 49.5 121.5t122.5 47.5
t122 -47.5t49 -121.5q0 -73 -49 -120t-122 -47q-74 0 -123 47t-49 120zM757 157q0 42 -25.5 68.5t-64.5 26.5t-65 -26.5t-26 -68.5q0 -41 26 -67t65 -26t64.5 26t25.5 67z" />
    <glyph glyph-name="ampersand" unicode="&#x26;" horiz-adv-x="777" 
d="M668 340l-61 -145l140 -195h-129l-76 105q-34 -53 -97 -84t-138 -31q-108 0 -175.5 62.5t-67.5 164.5q0 95 60 159q60 66 161 87l-122 169v93h448v-90h-321l254 -353l54 145h149v-87h-79zM488 181l-153 213q-76 -14 -118 -58.5t-42 -110.5q0 -63 39.5 -102t105.5 -39
q56 0 100.5 26t67.5 71z" />
    <glyph glyph-name="quotesingle" unicode="'" horiz-adv-x="194" 
d="M79 453l-34 213q-2 14 -2 15q0 24 14.5 38t38.5 14t39.5 -13.5t15.5 -37.5q0 -2 -2 -16l-36 -213h-34z" />
    <glyph glyph-name="parenleft" unicode="(" horiz-adv-x="446" 
d="M427 764v-83q-121 -28 -193 -133.5t-72 -251.5q0 -147 72 -252.5t193 -133.5v-82q-163 27 -263.5 155.5t-100.5 312.5q0 182 100.5 310.5t263.5 157.5z" />
    <glyph glyph-name="parenright" unicode=")" horiz-adv-x="427" 
d="M0 -172v82q121 28 193 133.5t72 252.5q0 146 -72 251.5t-193 133.5v83q163 -29 263.5 -157.5t100.5 -310.5q0 -184 -100.5 -312.5t-263.5 -155.5z" />
    <glyph glyph-name="asterisk" unicode="*" horiz-adv-x="443" 
d="M412 560q0 -25 -29 -23l-133 12l102 -87q12 -9 12 -20q0 -9 -7 -17q-7 -7 -17 -7t-21 11l-86 104l12 -134q2 -13 -4.5 -21t-18.5 -8q-11 0 -17.5 8t-5.5 21l11 133l-85 -103q-11 -11 -21 -11t-17 7t-7 17q0 11 12 20l102 87l-133 -12q-29 -2 -29 23q0 24 29 22l133 -10
l-102 85q-12 9 -12 20q0 9 8 17q7 7 15 7q10 0 21 -11l86 -101l-11 132q-1 13 5.5 21t17.5 8q25 0 23 -29l-12 -133l86 102q11 11 21 11q9 0 16 -7q8 -8 8 -16q0 -10 -12 -21l-102 -85l133 10q13 2 21 -4t8 -18z" />
    <glyph glyph-name="plus" unicode="+" horiz-adv-x="651" 
d="M371 84h-92v206h-201v88h201v199h92v-199h202v-88h-202v-206z" />
    <glyph glyph-name="comma" unicode="," horiz-adv-x="229" 
d="M102 -1q-31 4 -48.5 22t-17.5 45q0 32 21 51.5t54 19.5q32 0 53 -19.5t21 -50.5q0 -29 -22 -60l-76 -113l-47 33z" />
    <glyph glyph-name="hyphen" unicode="-" horiz-adv-x="491" 
d="M56 325h380v-93h-380v93z" />
    <glyph glyph-name="period" unicode="." horiz-adv-x="223" 
d="M37 66q0 31 21.5 51t53.5 20t53 -20t21 -51q0 -32 -21 -53t-53 -21t-53.5 21t-21.5 53z" />
    <glyph glyph-name="slash" unicode="/" horiz-adv-x="404" 
d="M311 725h93l-311 -725h-93z" />
    <glyph glyph-name="zero" unicode="0" horiz-adv-x="632" 
d="M58 357q0 178 66.5 270.5t192.5 92.5q124 0 190.5 -95t66.5 -270q0 -177 -67 -271t-190 -94q-127 0 -193 94.5t-66 272.5zM465 355q0 274 -148 274q-150 0 -150 -272q0 -275 150 -275q148 0 148 273z" />
    <glyph glyph-name="one" unicode="1" horiz-adv-x="493" 
d="M55 586l226 124h82v-710h-104v589l-204 -108v105z" />
    <glyph glyph-name="two" unicode="2" horiz-adv-x="600" 
d="M548 93v-93h-485v69l220 210q59 55 87 86.5t44 63.5q18 35 18 71q0 57 -39 92.5t-100 35.5q-63 0 -101 -41t-35 -105l-101 6q-1 103 66 167.5t176 64.5q107 0 174.5 -60.5t67.5 -154.5q0 -98 -90 -195q-39 -44 -105 -105l-131 -123q64 11 152 11h182z" />
    <glyph glyph-name="three" unicode="3" horiz-adv-x="624" 
d="M561 223q0 -104 -72.5 -168.5t-187.5 -64.5q-113 0 -184 62.5t-71 163.5h105q1 -59 43 -97.5t107 -38.5q66 0 108.5 40.5t42.5 105.5q0 63 -42.5 100t-107.5 37q-50 0 -82 -19l-39 64l208 210h-297v92h429v-92l-178 -178q95 -2 156.5 -62t61.5 -155z" />
    <glyph glyph-name="four" unicode="4" horiz-adv-x="654" 
d="M32 261l335 449h143v-438h102v-92h-102v-180h-104v180h-374v81zM406 272v341l-257 -341h257z" />
    <glyph glyph-name="five" unicode="5" horiz-adv-x="628" 
d="M574 234q0 -108 -74.5 -176t-193.5 -68q-114 0 -184.5 63t-70.5 164h102q2 -64 43 -100t109 -36q72 0 116 41.5t44 108.5t-42.5 108.5t-111.5 41.5q-45 0 -82.5 -18.5t-55.5 -49.5h-99l59 397h401v-93h-317l-30 -190q61 45 142 45q106 0 175.5 -66t69.5 -172z" />
    <glyph glyph-name="six" unicode="6" horiz-adv-x="644" 
d="M586 231q0 -106 -74 -173.5t-191 -67.5q-120 0 -191.5 70t-71.5 175q0 89 53 173q14 23 58 86l155 216h132l-200 -257q39 15 86 15q107 0 175.5 -66.5t68.5 -170.5zM478 230q0 67 -43.5 108t-113.5 41t-112 -40.5t-42 -107.5t42.5 -108t113.5 -41q69 0 112 40.5t43 107.5
z" />
    <glyph glyph-name="seven" unicode="7" horiz-adv-x="567" 
d="M544 710v-82l-54 -79q-94 -137 -135 -207q-40 -70 -61 -149q-20 -80 -20 -193h-111q0 127 24 214q25 87 72 165q44 73 162 239h-398v92h521z" />
    <glyph glyph-name="eight" unicode="8" horiz-adv-x="636" 
d="M574 206q0 -98 -70 -157.5t-186 -59.5t-186 60.5t-70 156.5q0 64 32.5 114.5t88.5 73.5q-85 48 -85 145q0 83 59.5 132t160.5 49t160.5 -49.5t59.5 -131.5q0 -100 -85 -145q56 -22 88.5 -73t32.5 -115zM203 530q0 -45 31.5 -73t83.5 -28t83.5 28t31.5 73q0 46 -32 73.5
t-84 27.5q-51 0 -82.5 -27.5t-31.5 -73.5zM465 212q0 57 -40.5 93.5t-106.5 36.5t-107 -36.5t-41 -93.5q0 -59 40.5 -95.5t107.5 -36.5t107 36.5t40 95.5z" />
    <glyph glyph-name="nine" unicode="9" horiz-adv-x="644" 
d="M586 476q0 -89 -54 -176q-21 -34 -57 -84l-155 -216h-132l197 257q-40 -14 -84 -14q-108 0 -175.5 66t-67.5 170q0 106 74 173.5t192 67.5q120 0 191 -70t71 -174zM323 332q70 0 112.5 40t42.5 107t-43 108.5t-114 41.5q-69 0 -112 -41t-43 -108t43 -107.5t114 -40.5z
" />
    <glyph glyph-name="colon" unicode=":" horiz-adv-x="285" 
d="M68 466q0 31 21.5 51.5t53.5 20.5t53 -20.5t21 -51.5t-21 -52t-53 -21t-53.5 21t-21.5 52zM68 105q0 31 21.5 51.5t53.5 20.5t53 -20.5t21 -51.5q0 -32 -21 -52.5t-53 -20.5t-53.5 20.5t-21.5 52.5z" />
    <glyph glyph-name="semicolon" unicode=";" horiz-adv-x="296" 
d="M74 470q0 31 21.5 51t53.5 20t53 -20t21 -51q0 -32 -21 -53t-53 -21t-53.5 21t-21.5 53zM138 42q-30 4 -47.5 22t-17.5 45q0 32 21 51.5t54 19.5q32 0 53 -19.5t21 -50.5q0 -26 -22 -60l-77 -113l-46 33z" />
    <glyph glyph-name="less" unicode="&#x3c;" horiz-adv-x="468" 
d="M50 250v111l289 187v-115l-193 -127l193 -137v-116z" />
    <glyph glyph-name="equal" unicode="=" horiz-adv-x="543" 
d="M75 459h392v-87h-392v87zM75 225h392v-87h-392v87z" />
    <glyph glyph-name="greater" unicode="&#x3e;" horiz-adv-x="467" 
d="M81 168l194 137l-194 127v115l290 -186v-112l-290 -196v115z" />
    <glyph glyph-name="question" unicode="?" horiz-adv-x="559" 
d="M209 399h49q71 0 110 34t39 92q0 53 -35.5 85.5t-93.5 32.5q-59 0 -94.5 -32.5t-34.5 -84.5h-101q1 94 65.5 151.5t166.5 57.5t166.5 -57.5t64.5 -147.5q0 -85 -56 -139q-55 -54 -148 -60v-107h-98v175zM184 67q0 32 22 52.5t55 20.5t55 -20.5t22 -52.5t-22 -53t-55 -21
t-55 21t-22 53z" />
    <glyph glyph-name="at" unicode="@" horiz-adv-x="947" 
d="M635 506v-234q0 -88 79 -88q58 0 91 48.5t33 132.5q0 146 -100 237t-257 91q-164 2 -268.5 -100t-102.5 -265q0 -165 103.5 -261t272.5 -96q133 0 244 55v-64q-99 -51 -247 -51q-193 -2 -317 115t-122 302q-2 186 121 306.5t315 118.5q183 2 304 -106.5t119 -272.5
q0 -111 -53 -179t-137 -68q-51 0 -86.5 24.5t-43.5 64.5q-19 -33 -58 -52t-85 -19q-78 0 -127 52t-49 131q0 82 50 133.5t125 51.5q40 0 77.5 -16.5t58.5 -43.5l3 53h57zM575 335q0 52 -37 86.5t-91 34.5q-52 0 -85.5 -35.5t-33.5 -91.5q0 -55 33 -91t86 -36t91 35
q37 34 37 87v11z" />
    <glyph glyph-name="A" unicode="A" horiz-adv-x="735" 
d="M533 164h-334l-60 -164h-120l281 725h130l286 -725h-123zM501 251l-135 366l-135 -366h270z" />
    <glyph glyph-name="B" unicode="B" horiz-adv-x="703" 
d="M649 202q0 -92 -62 -147t-176 -55h-325v725h318q102 0 161 -52.5t59 -140.5q0 -50 -26 -92t-71 -65q57 -18 89.5 -64.5t32.5 -108.5zM193 411h184q67 0 101 30.5t34 85.5q0 52 -31 80t-88 28h-200v-224zM535 208q0 58 -34.5 88.5t-97.5 30.5h-210v-237h204
q67 0 102.5 31.5t35.5 86.5z" />
    <glyph glyph-name="C" unicode="C" horiz-adv-x="808" 
d="M415 735q132 0 225 -69t114 -182h-116q-20 71 -80 111t-142 40q-112 0 -180 -75t-68 -197q0 -123 67.5 -198t178.5 -75q83 0 143.5 41t80.5 110h116q-21 -113 -114 -182t-225 -69q-160 -2 -261.5 103t-99.5 270q0 166 100 269t261 103z" />
    <glyph glyph-name="D" unicode="D" horiz-adv-x="770" 
d="M86 725h260q175 0 273 -98t98 -264q0 -172 -99.5 -267.5t-271.5 -95.5h-260v725zM354 98q118 0 182 72q66 72 66 192q0 123 -67.5 194t-180.5 71h-159v-529h159z" />
    <glyph glyph-name="E" unicode="E" horiz-adv-x="658" 
d="M86 725h512v-98h-403v-218h373v-93h-373v-219h403v-97h-512v725z" />
    <glyph glyph-name="F" unicode="F" horiz-adv-x="636" 
d="M86 725h504v-98h-395v-212h372v-94h-372v-321h-109v725z" />
    <glyph glyph-name="G" unicode="G" horiz-adv-x="826" 
d="M772 322q0 -149 -97 -240.5t-254 -91.5q-166 0 -266.5 102t-100.5 269q0 166 100 270t264 104q130 0 221 -65.5t111 -171.5h-112q-19 63 -79 101t-139 38q-114 0 -183.5 -76t-69.5 -200q0 -125 70 -200.5t185 -75.5q102 0 170 58.5t69 148.5h-296v85h403q4 -21 4 -55z
" />
    <glyph glyph-name="H" unicode="H" horiz-adv-x="762" 
d="M86 725h109v-307h372v307h108v-725h-108v323h-372v-323h-109v725z" />
    <glyph glyph-name="I" unicode="I" horiz-adv-x="282" 
d="M86 0v725h109v-725h-109z" />
    <glyph glyph-name="J" unicode="J" horiz-adv-x="583" 
d="M499 219q0 -107 -65 -168t-174 -61q-108 0 -169 61q-62 62 -63 164v35l108 10v-44q0 -63 33.5 -95.5t92.5 -32.5q60 0 94.5 35t34.5 93v414h-332v95h440v-506z" />
    <glyph glyph-name="K" unicode="K" horiz-adv-x="721" 
d="M566 0l-237 321l-134 -155v-166h-109v725h109v-401l349 401h134l-275 -319l297 -406h-134z" />
    <glyph glyph-name="L" unicode="L" horiz-adv-x="628" 
d="M86 725h109v-625h386v-100h-495v725z" />
    <glyph glyph-name="M" unicode="M" horiz-adv-x="939" 
d="M86 725h123l263 -420l259 420h121v-725h-108v222q0 158 8 352l-254 -406h-53l-257 406q7 -197 7 -352v-222h-109v725z" />
    <glyph glyph-name="N" unicode="N" horiz-adv-x="773" 
d="M686 725v-725h-114l-377 553v-553h-109v725h115l376 -551v551h109z" />
    <glyph glyph-name="O" unicode="O" horiz-adv-x="853" 
d="M426 736q163 2 269 -104t104 -269q2 -164 -104 -269.5t-269 -103.5q-164 0 -268 104t-104 269q-2 163 103.5 269t268.5 104zM426 90q114 0 186.5 76t72.5 197t-72.5 197t-186.5 76q-113 0 -185.5 -76.5t-72.5 -196.5q0 -121 72 -197t186 -76z" />
    <glyph glyph-name="P" unicode="P" horiz-adv-x="688" 
d="M650 493q0 -108 -71.5 -169t-193.5 -60h-190v-264h-109v725h299q122 0 193.5 -63.5t71.5 -168.5zM536 492q0 65 -41.5 99t-114.5 34h-185v-265h185q76 0 116 34.5t40 97.5z" />
    <glyph glyph-name="Q" unicode="Q" horiz-adv-x="846" 
d="M541 5l226 -208h-149l-184 193h-8q-164 0 -268 104t-104 269q-2 163 103.5 269t268.5 104q163 2 269 -104t104 -269q0 -136 -70 -230q-69 -95 -188 -128zM426 90q114 0 186.5 76t72.5 197t-72.5 197t-186.5 76q-113 0 -185.5 -76.5t-72.5 -196.5q0 -121 72 -197t186 -76z
" />
    <glyph glyph-name="R" unicode="R" horiz-adv-x="710" 
d="M689 0h-135l-234 278h-125v-278h-109v725h330q115 0 182.5 -60.5t67.5 -158.5q0 -95 -59.5 -153.5t-161.5 -64.5zM407 370q68 0 106.5 34.5t38.5 94.5q0 59 -39 93t-106 34h-212v-256h212z" />
    <glyph glyph-name="S" unicode="S" horiz-adv-x="673" 
d="M54 212h112q5 -60 53 -94.5t126 -34.5q75 0 117.5 32t42.5 87q0 54 -35 74q-33 20 -78 28l-133 22q-199 35 -199 193q0 97 74 156.5t195 59.5t195 -61t76 -160h-110q-4 60 -48.5 94.5t-118.5 34.5q-67 0 -108 -30.5t-41 -81.5q0 -83 116 -103l134 -21q96 -15 145.5 -68
t49.5 -131q0 -98 -75.5 -158t-201.5 -60q-125 0 -202.5 60.5t-85.5 161.5z" />
    <glyph glyph-name="T" unicode="T" horiz-adv-x="602" 
d="M583 631h-227v-631h-109v631h-229v94h565v-94z" />
    <glyph glyph-name="U" unicode="U" horiz-adv-x="737" 
d="M82 725h109v-459q0 -85 47 -130.5t130 -45.5q87 0 132.5 46.5t45.5 129.5v459h108v-466q0 -126 -76.5 -197.5t-209.5 -71.5t-209.5 72.5t-76.5 196.5v466z" />
    <glyph glyph-name="V" unicode="V" horiz-adv-x="714" 
d="M134 725l224 -615l223 615h122l-277 -725h-134l-281 725h123z" />
    <glyph glyph-name="W" unicode="W" horiz-adv-x="1012" 
d="M138 725l147 -603l160 603h126l162 -605l139 605h119l-179 -725h-151l-152 579l-150 -579h-150l-188 725h117z" />
    <glyph glyph-name="X" unicode="X" horiz-adv-x="705" 
d="M276 361l-255 364h132l200 -294l203 294h128l-252 -364l256 -361h-131l-205 286l-201 -286h-127z" />
    <glyph glyph-name="Y" unicode="Y" horiz-adv-x="653" 
d="M651 725l-268 -404v-321h-109v321l-272 404h126l201 -309l200 309h122z" />
    <glyph glyph-name="Z" unicode="Z" horiz-adv-x="601" 
d="M566 640l-386 -542h381v-98h-524v85l387 543h-389v97h531v-85z" />
    <glyph glyph-name="bracketleft" unicode="[" horiz-adv-x="348" 
d="M98 814h228v-86h-128v-736h128v-86h-228v908z" />
    <glyph glyph-name="backslash" unicode="\" horiz-adv-x="374" 
d="M294 0l-311 725h94l310 -725h-93z" />
    <glyph glyph-name="bracketright" unicode="]" horiz-adv-x="348" 
d="M22 -8h128v736h-128v86h228v-908h-228v86z" />
    <glyph glyph-name="asciicircum" unicode="^" horiz-adv-x="434" 
d="M216 637l-93 -167h-88l145 255h74l145 -255h-90z" />
    <glyph glyph-name="underscore" unicode="_" horiz-adv-x="387" 
d="M0 0h387v-79h-387v79z" />
    <glyph glyph-name="grave" unicode="`" horiz-adv-x="446" 
d="M111 834l45 73l185 -128l-34 -54z" />
    <glyph glyph-name="a" unicode="a" 
d="M53 137q0 136 189 156l173 19v18q0 55 -32.5 84.5t-89.5 29.5q-59 0 -94 -27.5t-32 -73.5h-99q0 84 64.5 134.5t168.5 50.5q101 0 160 -55t59 -161v-312h-93l-6 96q-22 -47 -78 -76.5t-123 -29.5q-75 0 -121 40.5t-46 106.5zM415 225v20l-151 -19q-106 -13 -106 -80
q0 -34 24.5 -53.5t69.5 -19.5q70 0 116.5 48.5t46.5 103.5z" />
    <glyph glyph-name="b" unicode="b" horiz-adv-x="685" 
d="M640 259q0 -121 -72 -195t-189 -74q-66 0 -118.5 23.5t-79.5 64.5l-7 -78h-93v750h104v-313q27 42 80.5 66.5t118.5 24.5q114 0 185 -74t71 -195zM533 259q0 82 -46.5 131t-124.5 49q-77 0 -127 -47t-50 -128v-13q0 -80 48.5 -126t127.5 -46t125.5 48t46.5 132z" />
    <glyph glyph-name="c" unicode="c" horiz-adv-x="616" 
d="M314 528q100 0 170 -52q70 -51 87 -134h-106q-15 44 -55.5 69t-95.5 25q-74 0 -118 -48.5t-44 -128.5q0 -81 44 -129.5t119 -48.5q56 0 95.5 25.5t54.5 68.5h106q-17 -85 -86 -135q-71 -50 -169 -50q-120 0 -195.5 74.5t-75.5 194.5t75.5 194.5t193.5 74.5z" />
    <glyph glyph-name="d" unicode="d" horiz-adv-x="679" 
d="M603 750v-750h-92l-8 84q-26 -44 -79.5 -69t-121.5 -25q-116 0 -186.5 74.5t-70.5 192.5q0 122 73.5 196.5t191.5 74.5q128 0 189 -80v302h104zM499 251v13q0 79 -48 127t-126 48q-81 0 -127.5 -49t-46.5 -132t47 -131t125 -48q79 0 127.5 46t48.5 126z" />
    <glyph glyph-name="e" unicode="e" horiz-adv-x="611" 
d="M566 154q-22 -77 -88.5 -120.5t-160.5 -43.5q-123 0 -197.5 74t-74.5 195q0 119 74 194t192 75q110 0 179.5 -65t69.5 -169q0 -12 -5 -44h-404v-12q0 -76 44.5 -119t121.5 -43q52 0 90.5 21t54.5 57h104zM154 322h298q1 51 -41 86q-41 35 -103 35q-60 0 -102 -33t-52 -88
z" />
    <glyph glyph-name="f" unicode="f" horiz-adv-x="423" 
d="M386 750v-82q-24 2 -35 2q-53 0 -74.5 -20.5t-21.5 -68.5v-63h150v-88h-150v-430h-104v430h-125v88h125v68q0 67 36 118q36 52 132 52q34 0 67 -6z" />
    <glyph glyph-name="g" unicode="g" horiz-adv-x="559" 
d="M541 -55q0 -148 -181 -148h-164q-187 0 -187 142q0 72 49 110.5t132 38.5h16v84q-75 12 -118 58.5t-43 114.5q0 83 60.5 133t155.5 50h271v-78l-115 15q50 -45 50 -118q0 -71 -45 -118t-123 -58v-83h65q85 0 131 -37t46 -106zM256 246q53 0 83 27.5t30 73.5
q0 48 -30.5 74.5t-82.5 26.5q-53 0 -83.5 -28t-30.5 -74q0 -47 31 -73.5t83 -26.5zM438 -49q0 69 -90 69h-147q-90 0 -90 -71t93 -71h144q90 0 90 73z" />
    <glyph glyph-name="h" unicode="h" horiz-adv-x="626" 
d="M81 750h104l-1 -315q25 45 70.5 69t103.5 24q92 0 142 -53t50 -150v-325h-105v313q0 61 -30.5 93t-85.5 32q-66 0 -105 -43.5t-39 -117.5v-277h-104v750z" />
    <glyph glyph-name="i" unicode="i" horiz-adv-x="265" 
d="M58 701q0 30 20.5 48t55.5 18q33 0 53.5 -19t20.5 -47q0 -30 -20.5 -49t-53.5 -19q-35 0 -55.5 19t-20.5 49zM81 518h105v-518h-105v518z" />
    <glyph glyph-name="j" unicode="j" horiz-adv-x="277" 
d="M67 701q0 28 21.5 47t54.5 19q34 0 54.5 -18.5t20.5 -47.5q0 -30 -20 -49t-55 -19t-55.5 19t-20.5 49zM-74 -200v80h47q62 0 88 25t26 77v536h104v-539q0 -94 -49 -140.5t-138 -46.5q-35 0 -78 8z" />
    <glyph glyph-name="k" unicode="k" horiz-adv-x="603" 
d="M81 750h104v-477l260 245h128l-210 -205l217 -313h-120l-171 240l-104 -99v-141h-104v750z" />
    <glyph glyph-name="l" unicode="l" horiz-adv-x="266" 
d="M81 750h104v-750h-104v750z" />
    <glyph glyph-name="m" unicode="m" horiz-adv-x="906" 
d="M830 340v-340h-105v331q0 107 -100 107q-57 0 -88 -38t-31 -105v-295h-103v319q0 119 -101 119q-56 0 -86.5 -36t-30.5 -99v-303h-104v518h91l8 -69q50 79 149 79q55 0 96 -25.5t57 -70.5q20 44 65.5 70t104.5 26q84 0 131 -50t47 -138z" />
    <glyph glyph-name="n" unicode="n" horiz-adv-x="626" 
d="M81 518h93l11 -83q24 43 70.5 68t102.5 25q92 0 142 -53t50 -150v-325h-105v313q0 61 -30.5 93t-85.5 32q-66 0 -105 -43.5t-39 -117.5v-277h-104v518z" />
    <glyph glyph-name="o" unicode="o" horiz-adv-x="650" 
d="M325 528q122 0 201 -75t79 -194t-79 -194t-201 -75q-123 0 -201.5 74.5t-78.5 194.5t78.5 194.5t201.5 74.5zM326 81q78 0 125 48.5t47 129.5t-47 129.5t-125 48.5q-79 0 -126.5 -49t-47.5 -130t47.5 -129t126.5 -48z" />
    <glyph glyph-name="p" unicode="p" horiz-adv-x="685" 
d="M640 261q0 -122 -73.5 -196.5t-191.5 -74.5q-126 0 -190 79v-269h-104v718h93l7 -81q29 42 82.5 66.5t118.5 24.5q114 0 186 -74t72 -193zM533 259q0 82 -46.5 131t-124.5 49q-79 0 -128 -46.5t-49 -126.5v-13q0 -78 48 -126t127 -48t126 48t47 132z" />
    <glyph glyph-name="q" unicode="q" horiz-adv-x="679" 
d="M603 518v-718h-104v281q-27 -42 -80.5 -66.5t-118.5 -24.5q-114 0 -184.5 74.5t-70.5 193.5q0 121 73 195.5t191 74.5q63 0 114.5 -23t79.5 -63l8 76h92zM499 253v13q0 80 -48.5 126.5t-127.5 46.5q-78 0 -125 -48.5t-47 -132.5q0 -82 45.5 -130.5t125.5 -48.5
q77 0 127 47t50 127z" />
    <glyph glyph-name="r" unicode="r" horiz-adv-x="381" 
d="M360 521v-97q-18 2 -32 2q-70 0 -106.5 -46t-36.5 -123v-257h-104v518h91l11 -85q18 45 55.5 69t86.5 24q22 0 35 -5z" />
    <glyph glyph-name="s" unicode="s" horiz-adv-x="532" 
d="M51 155h99q3 -41 35 -63.5t86 -22.5q51 0 79 20t28 55q0 55 -69 68l-98 17q-153 25 -153 141q0 71 56 114.5t148 43.5q91 0 148 -43.5t60 -115.5h-96q-2 38 -32 59t-79 21q-46 0 -73.5 -19t-27.5 -52q0 -50 75 -62l106 -18q69 -12 104.5 -50t35.5 -95q0 -73 -58.5 -118
t-153.5 -45q-97 0 -156.5 45t-63.5 120z" />
    <glyph glyph-name="t" unicode="t" horiz-adv-x="424" 
d="M145 156v274h-122v88h122v172h104v-172h140v-88h-140v-263q0 -47 21 -67t70 -20q8 0 40 2v-81q-38 -8 -83 -8q-64 0 -99.5 25.5t-44.5 63.5q-8 37 -8 74z" />
    <glyph glyph-name="u" unicode="u" horiz-adv-x="620" 
d="M76 188v330h104v-310q0 -48 23 -89q22 -40 94 -40q66 0 104.5 40.5t38.5 103.5v295h104v-518h-93l-12 86q-20 -43 -69 -69.5t-105 -26.5q-91 0 -140 53t-49 145z" />
    <glyph glyph-name="v" unicode="v" horiz-adv-x="557" 
d="M543 518l-204 -518h-121l-203 518h113l152 -422l151 422h112z" />
    <glyph glyph-name="w" unicode="w" horiz-adv-x="809" 
d="M132 518l109 -415l107 415h113l110 -415l107 415h107l-149 -518h-125l-106 392l-106 -392h-124l-152 518h109z" />
    <glyph glyph-name="x" unicode="x" horiz-adv-x="549" 
d="M203 259l-185 259h119l136 -194l139 194h117l-187 -259l190 -259h-119l-141 193l-139 -193h-116z" />
    <glyph glyph-name="y" unicode="y" horiz-adv-x="617" 
d="M540 518v-517q0 -97 -65.5 -154t-176.5 -57q-104 0 -165 47t-66 131h103q4 -45 38 -69.5t89 -24.5q66 0 102.5 32.5t36.5 89.5v128q-53 -86 -170 -86q-92 0 -142 54t-50 150v276h104v-263q0 -64 30.5 -96t86.5 -32q65 0 103 40.5t38 103.5v247h104z" />
    <glyph glyph-name="z" unicode="z" horiz-adv-x="514" 
d="M470 87v-87h-414v77l281 353h-282v88h412v-79l-284 -352h287z" />
    <glyph glyph-name="braceleft" unicode="{" horiz-adv-x="426" 
d="M80 351q55 0 83 19.5t24 58.5l-19 189q-1 5 -1 21q0 58 37 89t107 31h93v-87h-72q-35 0 -51.5 -13.5t-16.5 -44.5l1 -13l19 -194q1 -3 1 -16q0 -76 -77 -89v-3q77 -18 77 -89q0 -13 -1 -17l-19 -199q-4 -38 13 -54.5t54 -16.5h72v-87h-93q-144 0 -144 120q0 17 1 22
l19 193q4 39 -24 58.5t-83 19.5v102z" />
    <glyph glyph-name="bar" unicode="|" horiz-adv-x="292" 
d="M98 750h96v-788h-96v788z" />
    <glyph glyph-name="braceright" unicode="}" horiz-adv-x="425" 
d="M237 183l1 -11l18 -195q1 -5 1 -23q0 -118 -144 -118h-91v87h71q67 0 67 57q0 11 -1 14l-18 199q-1 4 -1 17q0 36 20.5 59t56.5 30v3q-77 15 -77 89q0 13 1 17l18 193q1 3 1 14q0 57 -67 57h-71v87h91q70 0 107 -30.5t37 -87.5q0 -18 -1 -23l-18 -189q-4 -38 23.5 -57.5
t82.5 -19.5v-102q-50 0 -78.5 -17t-28.5 -50z" />
    <glyph glyph-name="asciitilde" unicode="~" horiz-adv-x="498" 
d="M173 384q35 0 78 -18q40 -17 67 -17q56 0 66 48h52q1 -62 -29.5 -97t-84.5 -35q-32 0 -85 21q-46 18 -65 18q-50 0 -57 -48h-54q-2 60 28 94t84 34z" />
    <glyph glyph-name="uni00A0" unicode="&#xa0;" horiz-adv-x="225" 
 />
    <glyph glyph-name="exclamdown" unicode="&#xa1;" horiz-adv-x="299" 
d="M224 659q0 -31 -21 -51t-53 -20t-53.5 20t-21.5 51q0 32 21.5 53t53.5 21t53 -21t21 -53zM190 488l22 -488h-123l22 488h79z" />
    <glyph glyph-name="cent" unicode="&#xa2;" horiz-adv-x="611" 
d="M272 100q-104 13 -165.5 81.5t-61.5 173.5q0 107 62 175q63 69 165 79v98h63v-96q90 -8 150.5 -55.5t73.5 -121.5h-103q-12 36 -45.5 59t-78.5 27v-331q47 4 80 27t44 59h103q-15 -74 -75.5 -121.5t-148.5 -55.5v-98h-63v100zM275 520q-59 -11 -92 -54t-33 -110
t33.5 -111.5t91.5 -55.5v331z" />
    <glyph glyph-name="sterling" unicode="&#xa3;" 
d="M568 91v-91h-500v96q67 0 107 30.5t40 85.5q0 44 -26 107h-110v77h74q-37 72 -37 135q0 96 68 150t189 54q91 0 162 -30v-93q-81 32 -165 32q-71 0 -110 -29t-39 -88q0 -46 39 -131h205v-77h-174q20 -57 20 -104q0 -83 -56 -124h313z" />
    <glyph glyph-name="currency" unicode="&#xa4;" horiz-adv-x="601" 
d="M122 203q-45 59 -45 130q0 73 45 131l-76 64l58 57l66 -73q57 39 130 39q74 0 131 -39l66 74l59 -58l-74 -64q47 -62 47 -132q0 -71 -46 -129l74 -64l-59 -58l-66 75q-59 -41 -131 -41q-71 0 -130 41l-66 -75l-59 58zM301 200q58 1 96.5 39t38.5 95q0 58 -38.5 95
t-97.5 37q-58 0 -95.5 -36.5t-38.5 -95.5q0 -60 37.5 -97t97.5 -37z" />
    <glyph glyph-name="yen" unicode="&#xa5;" horiz-adv-x="633" 
d="M419 379h139v-77h-186v-97h186v-77h-186v-128h-110v128h-187v77h187v97h-187v77h140l-202 346h121l183 -328l179 328h124z" />
    <glyph glyph-name="brokenbar" unicode="&#xa6;" horiz-adv-x="292" 
d="M98 750h96v-317h-96v317zM98 273h96v-314h-96v314z" />
    <glyph glyph-name="section" unicode="&#xa7;" horiz-adv-x="578" 
d="M498 75q0 -71 -56 -113q-55 -43 -147 -43t-150 44t-64 117h104q13 -79 109 -79q43 0 70 18.5t27 48.5q0 26 -17 41t-54 24l-83 21q-140 35 -140 143q0 39 20 71t56 50q-76 37 -76 117q0 68 53.5 110t139.5 42q88 0 141.5 -42.5t54.5 -111.5h-101q-2 34 -27.5 53.5
t-68.5 19.5q-41 0 -63.5 -17.5t-22.5 -45.5t18.5 -41t61.5 -23l73 -18q142 -34 142 -150q0 -76 -71 -119q71 -36 71 -117zM392 304q0 33 -27.5 50t-72.5 17q-44 0 -66 -16.5t-22 -44.5q0 -34 28.5 -52t75.5 -18q40 0 62 17t22 47z" />
    <glyph glyph-name="dieresis" unicode="&#xa8;" horiz-adv-x="506" 
d="M73 806q0 29 20.5 48t52.5 19q31 0 51.5 -19t20.5 -48t-20.5 -48t-51.5 -19q-32 0 -52.5 19t-20.5 48zM288 806q0 29 20.5 48t52.5 19q31 0 51.5 -19t20.5 -48t-20.5 -48t-51.5 -19q-32 0 -52.5 19t-20.5 48z" />
    <glyph glyph-name="copyright" unicode="&#xa9;" horiz-adv-x="871" 
d="M435 701q164 2 275.5 -103.5t109.5 -266.5q3 -162 -109 -268.5t-276 -103.5q-164 -2 -276 103.5t-110 266.5q-2 162 110 268t276 104zM435 -5q146 -2 246 93.5t98 241.5q2 146 -97.5 241.5t-246.5 93.5q-146 2 -246 -94t-98 -242q-2 -145 98 -240.5t246 -93.5zM437 585
q95 0 163 -51q67 -49 79 -139h-75q-12 56 -55.5 89t-107.5 33q-83 0 -132.5 -51t-49.5 -136t48.5 -136.5t131.5 -51.5q64 0 108 33t57 89h75q-12 -88 -80 -139q-67 -51 -163 -51q-111 0 -182.5 71.5t-71.5 184.5t71.5 184t183.5 71z" />
    <glyph glyph-name="ordfeminine" unicode="&#xaa;" horiz-adv-x="425" 
d="M43 471q0 56 45.5 86.5t124.5 30.5h77v14q0 35 -21.5 53t-58.5 18q-36 0 -59 -16.5t-25 -43.5h-72q4 55 47.5 88.5t112.5 33.5q71 0 111 -36.5t40 -101.5v-224h-67l-4 56q-15 -28 -51.5 -45.5t-78.5 -17.5q-55 0 -88 28.5t-33 76.5zM290 529v9h-69q-49 0 -76 -16.5
t-27 -45.5q0 -23 17 -36t48 -13q47 0 77 28t30 74z" />
    <glyph glyph-name="guillemotleft" unicode="&#xab;" horiz-adv-x="571" 
d="M205 474h93l-115 -206l115 -206h-93l-125 206zM410 474h93l-115 -206l115 -206h-93l-125 206z" />
    <glyph glyph-name="logicalnot" unicode="&#xac;" horiz-adv-x="625" 
d="M463 308h-406v90h491v-252h-85v162z" />
    <glyph glyph-name="registered" unicode="&#xae;" horiz-adv-x="700" 
d="M648 441q0 -126 -85 -207.5t-214 -81.5q-126 -2 -212.5 81.5t-84.5 207.5q-2 124 84.5 207.5t212.5 81.5q126 2 213.5 -81.5t85.5 -207.5zM608 441q0 110 -73.5 180.5t-185.5 70.5q-110 0 -184 -70.5t-74 -181.5t74 -181t186 -70q110 0 183.5 70.5t73.5 181.5zM389 410
l109 -130h-65l-104 124h-53v-124h-52v329h149q53 0 84 -27.5t31 -72.5q0 -43 -27 -69.5t-72 -29.5zM368 449q30 0 47 15t17 42q0 54 -64 54h-92v-111h92z" />
    <glyph glyph-name="overscore" unicode="&#xaf;" horiz-adv-x="514" 
d="M70 834h374v-77h-374v77z" />
    <glyph glyph-name="degree" unicode="&#xb0;" horiz-adv-x="373" 
d="M186 731q69 0 113 -42q44 -41 44 -106t-45 -107q-44 -41 -112 -41q-67 0 -113 41q-44 42 -44 108q0 64 44 105q43 42 113 42zM186 501q37 0 60.5 23.5t23.5 60.5q0 36 -23.5 58t-60.5 22t-60.5 -22.5t-23.5 -58.5q0 -37 23.5 -60t60.5 -23z" />
    <glyph glyph-name="plusminus" unicode="&#xb1;" horiz-adv-x="670" 
d="M381 175h-92v170h-206v85h206v169h92v-169h206v-85h-206v-170zM83 85h504v-85h-504v85z" />
    <glyph glyph-name="uni00B2" unicode="&#xb2;" horiz-adv-x="494" 
d="M446 201v-80h-390v58q166 128 230 212q62 83 62 145q0 48 -28 75.5t-74 27.5q-47 0 -74.5 -26.5t-27.5 -70.5q0 -15 1 -19h-90q-5 88 49 142t145 54q86 0 138 -49q53 -50 53 -128q0 -79 -58.5 -162.5t-187.5 -180.5l43 2h209z" />
    <glyph glyph-name="uni00B3" unicode="&#xb3;" horiz-adv-x="500" 
d="M450 305q0 -85 -60.5 -138.5t-155.5 -53.5t-154 52t-59 136h90q1 -48 35.5 -79t87.5 -31q54 0 88.5 33t34.5 84q0 52 -34.5 82.5t-87.5 30.5q-41 0 -70 -17l-32 56l169 170h-243v80h358v-78l-147 -146q80 -2 130 -52t50 -129z" />
    <glyph glyph-name="acute" unicode="&#xb4;" horiz-adv-x="445" 
d="M157 779l186 128l44 -73l-196 -109z" />
    <glyph glyph-name="paragraph" unicode="&#xb6;" horiz-adv-x="636" 
d="M519 -43h-81v693h-128v-693h-83v395q-98 0 -152.5 49.5t-54.5 135.5q0 88 61.5 138t166.5 50h345v-75h-74v-693z" />
    <glyph glyph-name="middot" unicode="&#xb7;" horiz-adv-x="322" 
d="M160 357q36 0 61.5 -24.5t25.5 -59.5q0 -34 -26 -58t-61 -24t-60 24t-25 58q0 35 25 59.5t60 24.5z" />
    <glyph glyph-name="cedilla" unicode="&#xb8;" horiz-adv-x="372" 
d="M275 -107q0 -38 -29.5 -59t-74.5 -21q-48 0 -77 20v50q25 -20 64 -20q53 0 53 35q0 32 -47 32q-22 0 -42 -7v23l48 81h42v-26l-22 -36q35 2 60 -17.5t25 -54.5z" />
    <glyph glyph-name="uni00B9" unicode="&#xb9;" horiz-adv-x="423" 
d="M55 606l189 104h75v-589h-95v481l-169 -90v94z" />
    <glyph glyph-name="ordmasculine" unicode="&#xba;" horiz-adv-x="473" 
d="M236 735q85 0 139 -51t54 -133q0 -83 -54 -134t-139 -51t-139 51t-54 134q0 82 54 133t139 51zM237 431q53 0 84.5 33t31.5 87t-32 86.5t-84 32.5q-53 0 -85 -32.5t-32 -87.5q0 -54 32 -86.5t85 -32.5z" />
    <glyph glyph-name="guillemotright" unicode="&#xbb;" horiz-adv-x="570" 
d="M161 62h-93l115 206l-115 206h93l125 -206zM366 62h-93l115 206l-115 206h93l124 -206z" />
    <glyph glyph-name="onequarter" unicode="&#xbc;" horiz-adv-x="1168" 
d="M49 615l172 95h69v-533h-88v432l-153 -81v87zM779 725h84l-483 -748h-83zM699 198l246 335h119v-323h75v-78h-75v-132h-88v132h-277v66zM976 210v239l-178 -239h178z" />
    <glyph glyph-name="onehalf" unicode="&#xbd;" horiz-adv-x="1216" 
d="M49 615l172 95h69v-533h-88v432l-153 -81v87zM779 725h84l-483 -748h-83zM1175 78v-78h-357v56q150 117 206 190q56 74 56 127q0 42 -24 65.5t-65 23.5t-65 -24t-24 -63l1 -13h-86q-5 80 44 129t133 49q80 0 128 -44.5t48 -116.5q0 -70 -51 -143t-165 -160l41 2h180z" />
    <glyph glyph-name="threequarters" unicode="&#xbe;" horiz-adv-x="1217" 
d="M410 346q0 -79 -55 -128t-143 -49q-87 0 -142 47q-53 48 -53 125h88q1 -42 30.5 -68.5t75.5 -26.5t76.5 28.5t30.5 73.5t-30 71t-76 26q-33 0 -63 -15l-32 53l151 149h-216v78h328v-75l-129 -127q70 -2 114.5 -47t44.5 -115zM828 725h84l-483 -748h-83zM748 198l246 335
h119v-323h75v-78h-75v-132h-88v132h-277v66zM1025 210v239l-178 -239h178z" />
    <glyph glyph-name="questiondown" unicode="&#xbf;" horiz-adv-x="557" 
d="M370 515q0 -31 -22 -51.5t-54 -20.5t-53.5 20.5t-21.5 51.5t21.5 52t53.5 21t54 -21t22 -52zM345 180h-53q-64 0 -102.5 -35t-38.5 -92q0 -53 35 -85t93 -32q59 0 95.5 32t36.5 85h97q0 -92 -65 -149.5t-167 -57.5q-103 0 -165 55.5t-62 146.5q0 83 56 138.5t144 58.5
v111h96v-176z" />
    <glyph glyph-name="Agrave" unicode="&#xc0;" horiz-adv-x="735" 
d="M533 164h-334l-60 -164h-120l281 725h130l286 -725h-123zM501 251l-135 366l-135 -366h270zM172 889l45 73l185 -128l-34 -54z" />
    <glyph glyph-name="Aacute" unicode="&#xc1;" horiz-adv-x="735" 
d="M533 164h-334l-60 -164h-120l281 725h130l286 -725h-123zM501 251l-135 366l-135 -366h270zM328 834l186 128l44 -73l-196 -109z" />
    <glyph glyph-name="Acircumflex" unicode="&#xc2;" horiz-adv-x="735" 
d="M533 164h-334l-60 -164h-120l281 725h130l286 -725h-123zM501 251l-135 366l-135 -366h270zM329 949h71l126 -122l-59 -56l-102 108l-104 -108l-58 56z" />
    <glyph glyph-name="Atilde" unicode="&#xc3;" horiz-adv-x="735" 
d="M533 164h-334l-60 -164h-120l281 725h130l286 -725h-123zM501 251l-135 366l-135 -366h270zM360 812q-40 18 -61 18q-31 0 -58 -34l-45 31q40 80 106 80q26 0 76 -21q34 -16 53 -16q34 0 58 34l46 -32q-41 -80 -104 -80q-28 0 -71 20z" />
    <glyph glyph-name="Adieresis" unicode="&#xc4;" horiz-adv-x="735" 
d="M533 164h-334l-60 -164h-120l281 725h130l286 -725h-123zM501 251l-135 366l-135 -366h270zM184 862q0 29 20.5 48t52.5 19q31 0 51.5 -19t20.5 -48t-20.5 -48t-51.5 -19q-32 0 -52.5 19t-20.5 48zM399 862q0 29 20.5 48t52.5 19q31 0 51.5 -19t20.5 -48t-20.5 -48
t-51.5 -19q-32 0 -52.5 19t-20.5 48z" />
    <glyph glyph-name="Aring" unicode="&#xc5;" horiz-adv-x="735" 
d="M533 164h-334l-60 -164h-120l274 707q-51 32 -51 94q0 50 34 82.5t89 32.5q54 0 88 -32t34 -83q0 -63 -50 -94l279 -707h-123zM302 801q0 -25 18 -43t45 -18t44.5 17t17.5 44t-17.5 44t-44.5 17q-28 0 -45.5 -17.5t-17.5 -43.5zM501 251l-135 366l-135 -366h270z" />
    <glyph glyph-name="AE" unicode="&#xc6;" horiz-adv-x="976" 
d="M544 627v-218h272v-93h-272v-218h371v-98h-478v191h-241l-63 -191h-114l252 725h644v-98h-371zM340 627l-114 -346h211v346h-97z" />
    <glyph glyph-name="Ccedilla" unicode="&#xc7;" horiz-adv-x="808" 
d="M638 241h116q-19 -104 -101 -172q-80 -66 -199 -77l-20 -33q35 2 60 -17.5t25 -54.5q0 -38 -29.5 -59t-74.5 -21q-48 0 -77 20v50q25 -20 64 -20q53 0 53 35q0 32 -47 32q-22 0 -42 -7v23l30 50q-154 6 -248 109t-94 264q0 166 100 269t261 103q132 0 225 -69t114 -182
h-116q-20 71 -80 111t-142 40q-112 0 -180 -75t-68 -197q0 -123 67.5 -198t178.5 -75q83 0 143.5 41t80.5 110z" />
    <glyph glyph-name="Egrave" unicode="&#xc8;" horiz-adv-x="658" 
d="M86 725h512v-98h-403v-218h373v-93h-373v-219h403v-97h-512v725zM140 889l45 73l185 -128l-34 -54z" />
    <glyph glyph-name="Eacute" unicode="&#xc9;" horiz-adv-x="658" 
d="M86 725h512v-98h-403v-218h373v-93h-373v-219h403v-97h-512v725zM296 834l186 128l44 -73l-196 -109z" />
    <glyph glyph-name="Ecircumflex" unicode="&#xca;" horiz-adv-x="658" 
d="M86 725h512v-98h-403v-218h373v-93h-373v-219h403v-97h-512v725zM298 949h71l126 -122l-59 -56l-102 108l-104 -108l-58 56z" />
    <glyph glyph-name="Edieresis" unicode="&#xcb;" horiz-adv-x="658" 
d="M86 725h512v-98h-403v-218h373v-93h-373v-219h403v-97h-512v725zM153 862q0 29 20.5 48t52.5 19q31 0 51.5 -19t20.5 -48t-20.5 -48t-51.5 -19q-32 0 -52.5 19t-20.5 48zM368 862q0 29 20.5 48t52.5 19q31 0 51.5 -19t20.5 -48t-20.5 -48t-51.5 -19q-32 0 -52.5 19
t-20.5 48z" />
    <glyph glyph-name="Igrave" unicode="&#xcc;" horiz-adv-x="282" 
d="M86 0v725h109v-725h-109zM-53 889l45 73l185 -128l-34 -54z" />
    <glyph glyph-name="Iacute" unicode="&#xcd;" horiz-adv-x="282" 
d="M86 0v725h109v-725h-109zM103 834l186 128l44 -73l-196 -109z" />
    <glyph glyph-name="Icircumflex" unicode="&#xce;" horiz-adv-x="282" 
d="M86 0v725h109v-725h-109zM105 949h71l126 -122l-59 -56l-102 108l-104 -108l-58 56z" />
    <glyph glyph-name="Idieresis" unicode="&#xcf;" horiz-adv-x="282" 
d="M86 0v725h109v-725h-109zM-40 862q0 29 20.5 48t52.5 19q31 0 51.5 -19t20.5 -48t-20.5 -48t-51.5 -19q-32 0 -52.5 19t-20.5 48zM175 862q0 29 20.5 48t52.5 19q31 0 51.5 -19t20.5 -48t-20.5 -48t-51.5 -19q-32 0 -52.5 19t-20.5 48z" />
    <glyph glyph-name="Eth" unicode="&#xd0;" horiz-adv-x="770" 
d="M717 363q0 -172 -99.5 -267.5t-271.5 -95.5h-260v322h-88v89h88v314h260q175 0 273 -98t98 -264zM602 362q0 123 -67.5 194t-180.5 71h-159v-216h138v-89h-138v-224h159q118 0 182 72q66 72 66 192z" />
    <glyph glyph-name="Ntilde" unicode="&#xd1;" horiz-adv-x="773" 
d="M686 725v-725h-114l-377 553v-553h-109v725h115l376 -551v551h109zM378 812q-40 18 -61 18q-31 0 -58 -34l-45 31q40 80 106 80q26 0 76 -21q34 -16 53 -16q34 0 58 34l46 -32q-41 -80 -104 -80q-28 0 -71 20z" />
    <glyph glyph-name="Ograve" unicode="&#xd2;" horiz-adv-x="853" 
d="M426 736q163 2 269 -104t104 -269q2 -164 -104 -269.5t-269 -103.5q-164 0 -268 104t-104 269q-2 163 103.5 269t268.5 104zM426 90q114 0 186.5 76t72.5 197t-72.5 197t-186.5 76q-113 0 -185.5 -76.5t-72.5 -196.5q0 -121 72 -197t186 -76zM233 889l45 73l185 -128
l-34 -54z" />
    <glyph glyph-name="Oacute" unicode="&#xd3;" horiz-adv-x="853" 
d="M426 736q163 2 269 -104t104 -269q2 -164 -104 -269.5t-269 -103.5q-164 0 -268 104t-104 269q-2 163 103.5 269t268.5 104zM426 90q114 0 186.5 76t72.5 197t-72.5 197t-186.5 76q-113 0 -185.5 -76.5t-72.5 -196.5q0 -121 72 -197t186 -76zM389 834l186 128l44 -73
l-196 -109z" />
    <glyph glyph-name="Ocircumflex" unicode="&#xd4;" horiz-adv-x="853" 
d="M426 736q163 2 269 -104t104 -269q2 -164 -104 -269.5t-269 -103.5q-164 0 -268 104t-104 269q-2 163 103.5 269t268.5 104zM426 90q114 0 186.5 76t72.5 197t-72.5 197t-186.5 76q-113 0 -185.5 -76.5t-72.5 -196.5q0 -121 72 -197t186 -76zM391 949h71l126 -122
l-59 -56l-102 108l-104 -108l-58 56z" />
    <glyph glyph-name="Otilde" unicode="&#xd5;" horiz-adv-x="853" 
d="M426 736q163 2 269 -104t104 -269q2 -164 -104 -269.5t-269 -103.5q-164 0 -268 104t-104 269q-2 163 103.5 269t268.5 104zM426 90q114 0 186.5 76t72.5 197t-72.5 197t-186.5 76q-113 0 -185.5 -76.5t-72.5 -196.5q0 -121 72 -197t186 -76zM421 812q-41 18 -61 18
q-31 0 -58 -34l-45 31q40 80 106 80q26 0 76 -21q34 -16 53 -16q34 0 58 34l46 -32q-41 -80 -104 -80q-28 0 -71 20z" />
    <glyph glyph-name="Odieresis" unicode="&#xd6;" horiz-adv-x="853" 
d="M426 736q163 2 269 -104t104 -269q2 -164 -104 -269.5t-269 -103.5q-164 0 -268 104t-104 269q-2 163 103.5 269t268.5 104zM426 90q114 0 186.5 76t72.5 197t-72.5 197t-186.5 76q-113 0 -185.5 -76.5t-72.5 -196.5q0 -121 72 -197t186 -76zM246 862q0 29 20.5 48
t52.5 19q31 0 51.5 -19t20.5 -48t-20.5 -48t-51.5 -19q-32 0 -52.5 19t-20.5 48zM461 862q0 29 20.5 48t52.5 19q31 0 51.5 -19t20.5 -48t-20.5 -48t-51.5 -19q-32 0 -52.5 19t-20.5 48z" />
    <glyph glyph-name="multiply" unicode="&#xd7;" horiz-adv-x="593" 
d="M85 183l148 148l-150 151l63 63l151 -151l150 150l62 -63l-147 -148l148 -151l-63 -62l-149 150l-151 -150z" />
    <glyph glyph-name="Oslash" unicode="&#xd8;" horiz-adv-x="853" 
d="M799 363q2 -164 -104 -269.5t-269 -103.5q-164 0 -268 104t-104 269q-2 163 103.5 269t268.5 104q163 2 269 -104t104 -269zM168 363q0 -59 20 -113l429 305q-70 81 -191 81q-113 0 -185.5 -76.5t-72.5 -196.5zM685 363q0 65 -21 117l-431 -307q74 -83 193 -83
q114 0 186.5 76t72.5 197z" />
    <glyph glyph-name="Ugrave" unicode="&#xd9;" horiz-adv-x="737" 
d="M82 725h109v-459q0 -85 47 -130.5t130 -45.5q87 0 132.5 46.5t45.5 129.5v459h108v-466q0 -126 -76.5 -197.5t-209.5 -71.5t-209.5 72.5t-76.5 196.5v466zM175 889l45 73l185 -128l-34 -54z" />
    <glyph glyph-name="Uacute" unicode="&#xda;" horiz-adv-x="737" 
d="M82 725h109v-459q0 -85 47 -130.5t130 -45.5q87 0 132.5 46.5t45.5 129.5v459h108v-466q0 -126 -76.5 -197.5t-209.5 -71.5t-209.5 72.5t-76.5 196.5v466zM331 834l186 128l44 -73l-196 -109z" />
    <glyph glyph-name="Ucircumflex" unicode="&#xdb;" horiz-adv-x="737" 
d="M82 725h109v-459q0 -85 47 -130.5t130 -45.5q87 0 132.5 46.5t45.5 129.5v459h108v-466q0 -126 -76.5 -197.5t-209.5 -71.5t-209.5 72.5t-76.5 196.5v466zM333 949h71l126 -122l-59 -56l-102 108l-104 -108l-58 56z" />
    <glyph glyph-name="Udieresis" unicode="&#xdc;" horiz-adv-x="737" 
d="M82 725h109v-459q0 -85 47 -130.5t130 -45.5q87 0 132.5 46.5t45.5 129.5v459h108v-466q0 -126 -76.5 -197.5t-209.5 -71.5t-209.5 72.5t-76.5 196.5v466zM188 862q0 29 20.5 48t52.5 19q31 0 51.5 -19t20.5 -48t-20.5 -48t-51.5 -19q-32 0 -52.5 19t-20.5 48zM403 862
q0 29 20.5 48t52.5 19q31 0 51.5 -19t20.5 -48t-20.5 -48t-51.5 -19q-32 0 -52.5 19t-20.5 48z" />
    <glyph glyph-name="Yacute" unicode="&#xdd;" horiz-adv-x="653" 
d="M651 725l-268 -404v-321h-109v321l-272 404h126l201 -309l200 309h122zM290 834l186 128l44 -73l-196 -109z" />
    <glyph glyph-name="Thorn" unicode="&#xde;" horiz-adv-x="672" 
d="M86 750h109v-141h181q121 0 189.5 -63.5t68.5 -172.5q0 -108 -70.5 -172t-186.5 -64l-182 2v-139h-109v750zM363 235q76 0 116.5 36.5t40.5 101.5q0 67 -41.5 102.5t-115.5 35.5h-168v-276h168z" />
    <glyph glyph-name="germandbls" unicode="&#xdf;" horiz-adv-x="616" 
d="M567 31q0 -107 -74 -172.5t-196 -65.5q-40 0 -80 8v83q40 -8 67 -8q83 0 130.5 42.5t47.5 114.5q0 70 -45 110.5t-119 38.5l-36 63l149 185h-226v-430h-104v577q0 73 36 126q38 53 134 53q32 0 65 -6v-83q-22 2 -33 2q-54 0 -76 -21.5t-22 -70.5v-59h348v-82l-152 -180
q84 -13 135 -74t51 -151z" />
    <glyph glyph-name="agrave" unicode="&#xe0;" 
d="M53 137q0 136 189 156l173 19v18q0 55 -32.5 84.5t-89.5 29.5q-59 0 -94 -27.5t-32 -73.5h-99q0 84 64.5 134.5t168.5 50.5q101 0 160 -55t59 -161v-312h-93l-6 96q-22 -47 -78 -76.5t-123 -29.5q-75 0 -121 40.5t-46 106.5zM415 225v20l-151 -19q-106 -13 -106 -80
q0 -34 24.5 -53.5t69.5 -19.5q70 0 116.5 48.5t46.5 103.5zM102 682l45 73l185 -128l-34 -54z" />
    <glyph glyph-name="aacute" unicode="&#xe1;" 
d="M53 137q0 136 189 156l173 19v18q0 55 -32.5 84.5t-89.5 29.5q-59 0 -94 -27.5t-32 -73.5h-99q0 84 64.5 134.5t168.5 50.5q101 0 160 -55t59 -161v-312h-93l-6 96q-22 -47 -78 -76.5t-123 -29.5q-75 0 -121 40.5t-46 106.5zM415 225v20l-151 -19q-106 -13 -106 -80
q0 -34 24.5 -53.5t69.5 -19.5q70 0 116.5 48.5t46.5 103.5zM258 627l186 128l44 -73l-196 -109z" />
    <glyph glyph-name="acircumflex" unicode="&#xe2;" 
d="M53 137q0 136 189 156l173 19v18q0 55 -32.5 84.5t-89.5 29.5q-59 0 -94 -27.5t-32 -73.5h-99q0 84 64.5 134.5t168.5 50.5q101 0 160 -55t59 -161v-312h-93l-6 96q-22 -47 -78 -76.5t-123 -29.5q-75 0 -121 40.5t-46 106.5zM415 225v20l-151 -19q-106 -13 -106 -80
q0 -34 24.5 -53.5t69.5 -19.5q70 0 116.5 48.5t46.5 103.5zM260 742h71l126 -122l-59 -56l-102 108l-104 -108l-58 56z" />
    <glyph glyph-name="atilde" unicode="&#xe3;" 
d="M53 137q0 136 189 156l173 19v18q0 55 -32.5 84.5t-89.5 29.5q-59 0 -94 -27.5t-32 -73.5h-99q0 84 64.5 134.5t168.5 50.5q101 0 160 -55t59 -161v-312h-93l-6 96q-22 -47 -78 -76.5t-123 -29.5q-75 0 -121 40.5t-46 106.5zM415 225v20l-151 -19q-106 -13 -106 -80
q0 -34 24.5 -53.5t69.5 -19.5q70 0 116.5 48.5t46.5 103.5zM290 604q-40 18 -61 18q-31 0 -58 -34l-45 31q40 80 106 80q26 0 76 -21q34 -16 53 -16q34 0 58 34l46 -32q-41 -80 -104 -80q-28 0 -71 20z" />
    <glyph glyph-name="adieresis" unicode="&#xe4;" 
d="M53 137q0 136 189 156l173 19v18q0 55 -32.5 84.5t-89.5 29.5q-59 0 -94 -27.5t-32 -73.5h-99q0 84 64.5 134.5t168.5 50.5q101 0 160 -55t59 -161v-312h-93l-6 96q-22 -47 -78 -76.5t-123 -29.5q-75 0 -121 40.5t-46 106.5zM415 225v20l-151 -19q-106 -13 -106 -80
q0 -34 24.5 -53.5t69.5 -19.5q70 0 116.5 48.5t46.5 103.5zM115 655q0 29 20.5 48t52.5 19q31 0 51.5 -19t20.5 -48t-20.5 -48t-51.5 -19q-32 0 -52.5 19t-20.5 48zM330 655q0 29 20.5 48t52.5 19q31 0 51.5 -19t20.5 -48t-20.5 -48t-51.5 -19q-32 0 -52.5 19t-20.5 48z" />
    <glyph glyph-name="aring" unicode="&#xe5;" 
d="M520 312v-312h-93l-6 96q-22 -47 -78 -76.5t-123 -29.5q-75 0 -121 40.5t-46 106.5q0 136 189 156l173 19v18q0 55 -32.5 84.5t-89.5 29.5q-59 0 -94 -27.5t-32 -73.5h-99q1 62 37 106.5t100 64.5q-33 33 -33 80q0 50 34 82.5t89 32.5q54 0 88 -32t34 -83q0 -47 -31 -78
q134 -43 134 -204zM232 594q0 -25 18 -43t45 -18t44.5 17.5t17.5 43.5t-17.5 43.5t-44.5 17.5q-28 0 -45.5 -17.5t-17.5 -43.5zM415 245l-151 -19q-106 -13 -106 -80q0 -34 24.5 -53.5t69.5 -19.5q70 0 116.5 48.5t46.5 103.5v20z" />
    <glyph glyph-name="ae" unicode="&#xe6;" horiz-adv-x="947" 
d="M266 307h125v25q0 52 -32 81.5t-86 29.5q-51 0 -83 -24t-37 -64h-100q6 79 68 126t156 47q62 0 110.5 -25t71.5 -68q68 93 198 93q111 0 181 -65.5t70 -170.5q0 -28 -5 -58h-402q0 -74 44 -116t117 -42q51 0 88.5 20.5t53.5 56.5h105q-21 -76 -87 -119.5t-161 -43.5
q-78 0 -138 31.5t-85 85.5q-27 -56 -84.5 -86.5t-128.5 -30.5q-85 0 -136 42.5t-51 112.5q0 77 60.5 119.5t167.5 42.5zM802 308q-1 61 -41 99t-104 38q-65 0 -107.5 -38t-47.5 -99h300zM245 75q66 0 106.5 39t40.5 103v17h-121q-62 0 -94.5 -22t-32.5 -61q0 -35 27 -55.5
t74 -20.5z" />
    <glyph glyph-name="ccedilla" unicode="&#xe7;" horiz-adv-x="616" 
d="M465 175h106q-15 -77 -75.5 -126.5t-148.5 -57.5l-18 -29q35 2 60 -17.5t25 -54.5q0 -38 -29.5 -59t-74.5 -21q-48 0 -77 20v50q25 -20 64 -20q53 0 53 35q0 32 -47 32q-22 0 -42 -7v23l28 48q-108 8 -176 81.5t-68 186.5q0 120 75.5 194.5t193.5 74.5q100 0 170 -52
q70 -51 87 -134h-106q-15 44 -55.5 69t-95.5 25q-74 0 -118 -48.5t-44 -128.5q0 -81 44 -129.5t119 -48.5q56 0 95.5 25.5t54.5 68.5z" />
    <glyph glyph-name="egrave" unicode="&#xe8;" horiz-adv-x="611" 
d="M566 154q-22 -77 -88.5 -120.5t-160.5 -43.5q-123 0 -197.5 74t-74.5 195q0 119 74 194t192 75q110 0 179.5 -65t69.5 -169q0 -12 -5 -44h-404v-12q0 -76 44.5 -119t121.5 -43q52 0 90.5 21t54.5 57h104zM154 322h298q1 51 -41 86q-41 35 -103 35q-60 0 -102 -33t-52 -88
zM121 682l45 73l185 -128l-34 -54z" />
    <glyph glyph-name="eacute" unicode="&#xe9;" horiz-adv-x="611" 
d="M566 154q-22 -77 -88.5 -120.5t-160.5 -43.5q-123 0 -197.5 74t-74.5 195q0 119 74 194t192 75q110 0 179.5 -65t69.5 -169q0 -12 -5 -44h-404v-12q0 -76 44.5 -119t121.5 -43q52 0 90.5 21t54.5 57h104zM154 322h298q1 51 -41 86q-41 35 -103 35q-60 0 -102 -33t-52 -88
zM277 627l186 128l44 -73l-196 -109z" />
    <glyph glyph-name="ecircumflex" unicode="&#xea;" horiz-adv-x="611" 
d="M566 154q-22 -77 -88.5 -120.5t-160.5 -43.5q-123 0 -197.5 74t-74.5 195q0 119 74 194t192 75q110 0 179.5 -65t69.5 -169q0 -12 -5 -44h-404v-12q0 -76 44.5 -119t121.5 -43q52 0 90.5 21t54.5 57h104zM154 322h298q1 51 -41 86q-41 35 -103 35q-60 0 -102 -33t-52 -88
zM279 742h71l126 -122l-59 -56l-102 108l-104 -108l-58 56z" />
    <glyph glyph-name="edieresis" unicode="&#xeb;" horiz-adv-x="611" 
d="M566 154q-22 -77 -88.5 -120.5t-160.5 -43.5q-123 0 -197.5 74t-74.5 195q0 119 74 194t192 75q110 0 179.5 -65t69.5 -169q0 -12 -5 -44h-404v-12q0 -76 44.5 -119t121.5 -43q52 0 90.5 21t54.5 57h104zM154 322h298q1 51 -41 86q-41 35 -103 35q-60 0 -102 -33t-52 -88
zM134 655q0 29 20.5 48t52.5 19q31 0 51.5 -19t20.5 -48t-20.5 -48t-51.5 -19q-32 0 -52.5 19t-20.5 48zM349 655q0 29 20.5 48t52.5 19q31 0 51.5 -19t20.5 -48t-20.5 -48t-51.5 -19q-32 0 -52.5 19t-20.5 48z" />
    <glyph glyph-name="igrave" unicode="&#xec;" horiz-adv-x="269" 
d="M83 518h103v-518h-103v518zM-57 682l45 73l185 -128l-34 -54z" />
    <glyph glyph-name="iacute" unicode="&#xed;" horiz-adv-x="269" 
d="M83 518h103v-518h-103v518zM98 627l186 128l44 -73l-196 -109z" />
    <glyph glyph-name="icircumflex" unicode="&#xee;" horiz-adv-x="269" 
d="M83 518h103v-518h-103v518zM99 742h71l126 -122l-59 -56l-102 108l-104 -108l-58 56z" />
    <glyph glyph-name="idieresis" unicode="&#xef;" horiz-adv-x="269" 
d="M83 518h103v-518h-103v518zM-40 655q0 29 20.5 48t52.5 19q31 0 51.5 -19t20.5 -48t-20.5 -48t-51.5 -19q-32 0 -52.5 19t-20.5 48zM175 655q0 29 20.5 48t52.5 19q31 0 51.5 -19t20.5 -48t-20.5 -48t-51.5 -19q-32 0 -52.5 19t-20.5 48z" />
    <glyph glyph-name="eth" unicode="&#xf0;" horiz-adv-x="599" 
d="M558 233q0 -103 -70 -173t-188 -70q-114 0 -186 67t-72 172q0 103 69 169.5t174 66.5q43 0 73 -10l-95 121l-136 -48v63l98 35l-97 124h132l64 -89l142 50v-63l-105 -37l88 -123q43 -62 55 -82q20 -31 37 -78q17 -46 17 -95zM454 231q0 70 -42 111.5t-111 41.5
q-70 0 -112.5 -42.5t-42.5 -111.5t42 -111t111 -42q70 0 112.5 42.5t42.5 111.5z" />
    <glyph glyph-name="ntilde" unicode="&#xf1;" horiz-adv-x="626" 
d="M81 518h93l11 -83q24 43 70.5 68t102.5 25q92 0 142 -53t50 -150v-325h-105v313q0 61 -30.5 93t-85.5 32q-66 0 -105 -43.5t-39 -117.5v-277h-104v518zM307 604q-40 18 -61 18q-31 0 -58 -34l-45 31q40 80 106 80q26 0 76 -21q34 -16 53 -16q34 0 58 34l46 -32
q-41 -80 -104 -80q-28 0 -71 20z" />
    <glyph glyph-name="ograve" unicode="&#xf2;" horiz-adv-x="650" 
d="M325 528q122 0 201 -75t79 -194t-79 -194t-201 -75q-123 0 -201.5 74.5t-78.5 194.5t78.5 194.5t201.5 74.5zM326 81q78 0 125 48.5t47 129.5t-47 129.5t-125 48.5q-79 0 -126.5 -49t-47.5 -130t47.5 -129t126.5 -48zM132 682l45 73l185 -128l-34 -54z" />
    <glyph glyph-name="oacute" unicode="&#xf3;" horiz-adv-x="650" 
d="M325 528q122 0 201 -75t79 -194t-79 -194t-201 -75q-123 0 -201.5 74.5t-78.5 194.5t78.5 194.5t201.5 74.5zM326 81q78 0 125 48.5t47 129.5t-47 129.5t-125 48.5q-79 0 -126.5 -49t-47.5 -130t47.5 -129t126.5 -48zM288 627l186 128l44 -73l-196 -109z" />
    <glyph glyph-name="ocircumflex" unicode="&#xf4;" horiz-adv-x="650" 
d="M325 528q122 0 201 -75t79 -194t-79 -194t-201 -75q-123 0 -201.5 74.5t-78.5 194.5t78.5 194.5t201.5 74.5zM326 81q78 0 125 48.5t47 129.5t-47 129.5t-125 48.5q-79 0 -126.5 -49t-47.5 -130t47.5 -129t126.5 -48zM289 742h71l126 -122l-59 -56l-102 108l-104 -108
l-58 56z" />
    <glyph glyph-name="otilde" unicode="&#xf5;" horiz-adv-x="650" 
d="M325 528q122 0 201 -75t79 -194t-79 -194t-201 -75q-123 0 -201.5 74.5t-78.5 194.5t78.5 194.5t201.5 74.5zM326 81q78 0 125 48.5t47 129.5t-47 129.5t-125 48.5q-79 0 -126.5 -49t-47.5 -130t47.5 -129t126.5 -48zM320 604q-41 18 -61 18q-31 0 -58 -34l-45 31
q40 80 106 80q26 0 76 -21q34 -16 53 -16q34 0 58 34l46 -32q-41 -80 -104 -80q-28 0 -71 20z" />
    <glyph glyph-name="odieresis" unicode="&#xf6;" horiz-adv-x="650" 
d="M325 528q122 0 201 -75t79 -194t-79 -194t-201 -75q-123 0 -201.5 74.5t-78.5 194.5t78.5 194.5t201.5 74.5zM326 81q78 0 125 48.5t47 129.5t-47 129.5t-125 48.5q-79 0 -126.5 -49t-47.5 -130t47.5 -129t126.5 -48zM144 655q0 29 20.5 48t52.5 19q31 0 51.5 -19
t20.5 -48t-20.5 -48t-51.5 -19q-32 0 -52.5 19t-20.5 48zM359 655q0 29 20.5 48t52.5 19q31 0 51.5 -19t20.5 -48t-20.5 -48t-51.5 -19q-32 0 -52.5 19t-20.5 48z" />
    <glyph glyph-name="divide" unicode="&#xf7;" horiz-adv-x="598" 
d="M227 523q0 30 20 49.5t51 19.5t51.5 -19.5t20.5 -49.5q0 -31 -20.5 -50.5t-51.5 -19.5t-51 19.5t-20 50.5zM72 362h455v-87h-455v87zM227 116q0 30 20 49.5t51 19.5t51.5 -19.5t20.5 -49.5q0 -31 -20.5 -50.5t-51.5 -19.5t-51 19.5t-20 50.5z" />
    <glyph glyph-name="oslash" unicode="&#xf8;" horiz-adv-x="647" 
d="M564 410q42 -64 42 -151q0 -119 -79 -194t-201 -75q-130 0 -208 80l-55 -41l-31 39l54 41q-41 67 -41 150q0 119 79 194t202 75q127 0 206 -79l53 40l30 -40zM170 173l282 215q-46 49 -125 49t-127 -49t-48 -130q0 -49 18 -85zM481 347l-283 -216q48 -50 128 -50
q79 0 126 48.5t47 129.5q0 51 -18 88z" />
    <glyph glyph-name="ugrave" unicode="&#xf9;" horiz-adv-x="620" 
d="M76 188v330h104v-310q0 -48 23 -89q22 -40 94 -40q66 0 104.5 40.5t38.5 103.5v295h104v-518h-93l-12 86q-20 -43 -69 -69.5t-105 -26.5q-91 0 -140 53t-49 145zM117 682l45 73l185 -128l-34 -54z" />
    <glyph glyph-name="uacute" unicode="&#xfa;" horiz-adv-x="620" 
d="M76 188v330h104v-310q0 -48 23 -89q22 -40 94 -40q66 0 104.5 40.5t38.5 103.5v295h104v-518h-93l-12 86q-20 -43 -69 -69.5t-105 -26.5q-91 0 -140 53t-49 145zM273 627l186 128l44 -73l-196 -109z" />
    <glyph glyph-name="ucircumflex" unicode="&#xfb;" horiz-adv-x="620" 
d="M76 188v330h104v-310q0 -48 23 -89q22 -40 94 -40q66 0 104.5 40.5t38.5 103.5v295h104v-518h-93l-12 86q-20 -43 -69 -69.5t-105 -26.5q-91 0 -140 53t-49 145zM275 742h71l126 -122l-59 -56l-102 108l-104 -108l-58 56z" />
    <glyph glyph-name="udieresis" unicode="&#xfc;" horiz-adv-x="620" 
d="M76 188v330h104v-310q0 -48 23 -89q22 -40 94 -40q66 0 104.5 40.5t38.5 103.5v295h104v-518h-93l-12 86q-20 -43 -69 -69.5t-105 -26.5q-91 0 -140 53t-49 145zM130 655q0 29 20.5 48t52.5 19q31 0 51.5 -19t20.5 -48t-20.5 -48t-51.5 -19q-32 0 -52.5 19t-20.5 48z
M345 655q0 29 20.5 48t52.5 19q31 0 51.5 -19t20.5 -48t-20.5 -48t-51.5 -19q-32 0 -52.5 19t-20.5 48z" />
    <glyph glyph-name="yacute" unicode="&#xfd;" horiz-adv-x="617" 
d="M540 518v-517q0 -97 -65.5 -154t-176.5 -57q-104 0 -165 47t-66 131h103q4 -45 38 -69.5t89 -24.5q66 0 102.5 32.5t36.5 89.5v128q-53 -86 -170 -86q-92 0 -142 54t-50 150v276h104v-263q0 -64 30.5 -96t86.5 -32q65 0 103 40.5t38 103.5v247h104zM269 627l186 128
l44 -73l-196 -109z" />
    <glyph glyph-name="thorn" unicode="&#xfe;" horiz-adv-x="684" 
d="M640 261q0 -122 -73.5 -196.5t-191.5 -74.5q-126 0 -190 79v-269h-104v950h104v-308q30 40 82 63t115 23q114 0 186 -74t72 -193zM533 259q0 82 -46.5 131t-124.5 49q-79 0 -128 -46.5t-49 -126.5v-13q0 -78 48 -126t127 -48t126 48t47 132z" />
    <glyph glyph-name="ydieresis" unicode="&#xff;" horiz-adv-x="617" 
d="M540 518v-517q0 -97 -65.5 -154t-176.5 -57q-104 0 -165 47t-66 131h103q4 -45 38 -69.5t89 -24.5q66 0 102.5 32.5t36.5 89.5v128q-53 -86 -170 -86q-92 0 -142 54t-50 150v276h104v-263q0 -64 30.5 -96t86.5 -32q65 0 103 40.5t38 103.5v247h104zM126 655q0 29 20.5 48
t52.5 19q31 0 51.5 -19t20.5 -48t-20.5 -48t-51.5 -19q-32 0 -52.5 19t-20.5 48zM341 655q0 29 20.5 48t52.5 19q31 0 51.5 -19t20.5 -48t-20.5 -48t-51.5 -19q-32 0 -52.5 19t-20.5 48z" />
    <glyph glyph-name="Amacron" unicode="&#x100;" horiz-adv-x="735" 
d="M533 164h-334l-60 -164h-120l281 725h130l286 -725h-123zM501 251l-135 366l-135 -366h270zM178 890h374v-77h-374v77z" />
    <glyph glyph-name="amacron" unicode="&#x101;" 
d="M53 137q0 136 189 156l173 19v18q0 55 -32.5 84.5t-89.5 29.5q-59 0 -94 -27.5t-32 -73.5h-99q0 84 64.5 134.5t168.5 50.5q101 0 160 -55t59 -161v-312h-93l-6 96q-22 -47 -78 -76.5t-123 -29.5q-75 0 -121 40.5t-46 106.5zM415 225v20l-151 -19q-106 -13 -106 -80
q0 -34 24.5 -53.5t69.5 -19.5q70 0 116.5 48.5t46.5 103.5zM108 683h374v-77h-374v77z" />
    <glyph glyph-name="Abreve" unicode="&#x102;" horiz-adv-x="735" 
d="M533 164h-334l-60 -164h-120l281 725h130l286 -725h-123zM501 251l-135 366l-135 -366h270zM365 781q-69 0 -112 41t-43 107h71q0 -36 24 -59.5t60 -23.5t59.5 23.5t23.5 59.5h71q0 -66 -42.5 -107t-111.5 -41z" />
    <glyph glyph-name="abreve" unicode="&#x103;" 
d="M53 137q0 136 189 156l173 19v18q0 55 -32.5 84.5t-89.5 29.5q-59 0 -94 -27.5t-32 -73.5h-99q0 84 64.5 134.5t168.5 50.5q101 0 160 -55t59 -161v-312h-93l-6 96q-22 -47 -78 -76.5t-123 -29.5q-75 0 -121 40.5t-46 106.5zM415 225v20l-151 -19q-106 -13 -106 -80
q0 -34 24.5 -53.5t69.5 -19.5q70 0 116.5 48.5t46.5 103.5zM295 574q-69 0 -112 41t-43 107h71q0 -36 24 -59.5t60 -23.5t59.5 23.5t23.5 59.5h71q0 -66 -42.5 -107t-111.5 -41z" />
    <glyph glyph-name="Aogonek" unicode="&#x104;" horiz-adv-x="735" 
d="M722 -115v-54q-24 -9 -54 -9q-45 0 -70.5 22.5t-25.5 59.5q0 57 57 96h-36l-60 164h-334l-60 -164h-120l281 725h130l283 -718l4 -7q-81 -32 -81 -81q0 -40 49 -40q21 0 37 6zM501 251l-135 366l-135 -366h270z" />
    <glyph glyph-name="aogonek" unicode="&#x105;" 
d="M525 -115v-54q-24 -9 -54 -9q-45 0 -70.5 22.5t-25.5 59.5q0 57 57 96h-5l-6 96q-22 -47 -78 -76.5t-123 -29.5q-75 0 -121 40.5t-46 106.5q0 136 189 156l173 19v18q0 55 -32.5 84.5t-89.5 29.5q-59 0 -94 -27.5t-32 -73.5h-99q0 84 64.5 134.5t168.5 50.5
q101 0 160 -55t59 -161v-312q-81 -32 -81 -81q0 -40 49 -40q20 0 37 6zM415 245l-151 -19q-106 -13 -106 -80q0 -34 24.5 -53.5t69.5 -19.5q70 0 116.5 48.5t46.5 103.5v20z" />
    <glyph glyph-name="Cacute" unicode="&#x106;" horiz-adv-x="808" 
d="M415 735q132 0 225 -69t114 -182h-116q-20 71 -80 111t-142 40q-112 0 -180 -75t-68 -197q0 -123 67.5 -198t178.5 -75q83 0 143.5 41t80.5 110h116q-21 -113 -114 -182t-225 -69q-160 -2 -261.5 103t-99.5 270q0 166 100 269t261 103zM376 834l186 128l44 -73l-196 -109
z" />
    <glyph glyph-name="cacute" unicode="&#x107;" horiz-adv-x="616" 
d="M314 528q100 0 170 -52q70 -51 87 -134h-106q-15 44 -55.5 69t-95.5 25q-74 0 -118 -48.5t-44 -128.5q0 -81 44 -129.5t119 -48.5q56 0 95.5 25.5t54.5 68.5h106q-17 -85 -86 -135q-71 -50 -169 -50q-120 0 -195.5 74.5t-75.5 194.5t75.5 194.5t193.5 74.5zM277 627
l186 128l44 -73l-196 -109z" />
    <glyph glyph-name="Cdotaccent" unicode="&#x10a;" horiz-adv-x="808" 
d="M415 735q132 0 225 -69t114 -182h-116q-20 71 -80 111t-142 40q-112 0 -180 -75t-68 -197q0 -123 67.5 -198t178.5 -75q83 0 143.5 41t80.5 110h116q-21 -113 -114 -182t-225 -69q-160 -2 -261.5 103t-99.5 270q0 166 100 269t261 103zM340 862q0 29 20.5 48t52.5 19
q31 0 51.5 -19t20.5 -48t-20.5 -48t-51.5 -19q-32 0 -52.5 19t-20.5 48z" />
    <glyph glyph-name="cdotaccent" unicode="&#x10b;" horiz-adv-x="616" 
d="M314 528q100 0 170 -52q70 -51 87 -134h-106q-15 44 -55.5 69t-95.5 25q-74 0 -118 -48.5t-44 -128.5q0 -81 44 -129.5t119 -48.5q56 0 95.5 25.5t54.5 68.5h106q-17 -85 -86 -135q-71 -50 -169 -50q-120 0 -195.5 74.5t-75.5 194.5t75.5 194.5t193.5 74.5zM241 655
q0 29 20.5 48t52.5 19q31 0 51.5 -19t20.5 -48t-20.5 -48t-51.5 -19q-32 0 -52.5 19t-20.5 48z" />
    <glyph glyph-name="Ccaron" unicode="&#x10c;" horiz-adv-x="808" 
d="M415 735q132 0 225 -69t114 -182h-116q-20 71 -80 111t-142 40q-112 0 -180 -75t-68 -197q0 -123 67.5 -198t178.5 -75q83 0 143.5 41t80.5 110h116q-21 -113 -114 -182t-225 -69q-160 -2 -261.5 103t-99.5 270q0 166 100 269t261 103zM310 956l104 -108l102 108l59 -56
l-126 -122h-71l-126 122z" />
    <glyph glyph-name="ccaron" unicode="&#x10d;" horiz-adv-x="616" 
d="M314 528q100 0 170 -52q70 -51 87 -134h-106q-15 44 -55.5 69t-95.5 25q-74 0 -118 -48.5t-44 -128.5q0 -81 44 -129.5t119 -48.5q56 0 95.5 25.5t54.5 68.5h106q-17 -85 -86 -135q-71 -50 -169 -50q-120 0 -195.5 74.5t-75.5 194.5t75.5 194.5t193.5 74.5zM211 748
l104 -108l102 108l59 -56l-126 -122h-71l-126 122z" />
    <glyph glyph-name="Dcaron" unicode="&#x10e;" horiz-adv-x="770" 
d="M86 725h260q175 0 273 -98t98 -264q0 -172 -99.5 -267.5t-271.5 -95.5h-260v725zM354 98q118 0 182 72q66 72 66 192q0 123 -67.5 194t-180.5 71h-159v-529h159zM203 956l104 -108l102 108l59 -56l-126 -122h-71l-126 122z" />
    <glyph glyph-name="dcaron" unicode="&#x10f;" horiz-adv-x="789" 
d="M603 750v-750h-92l-8 84q-26 -44 -79.5 -69t-121.5 -25q-116 0 -186.5 74.5t-70.5 192.5q0 122 73.5 196.5t191.5 74.5q128 0 189 -80v302h104zM499 251v13q0 79 -48 127t-126 48q-81 0 -127.5 -49t-46.5 -132t47 -131t125 -48q79 0 127.5 46t48.5 126zM744 622
q-31 4 -48.5 22t-17.5 45q0 32 21 51.5t54 19.5q32 0 53 -19.5t21 -50.5q0 -29 -22 -60l-76 -113l-47 33z" />
    <glyph glyph-name="Dcroat" unicode="&#x110;" horiz-adv-x="770" 
d="M717 363q0 -172 -99.5 -267.5t-271.5 -95.5h-260v322h-88v89h88v314h260q175 0 273 -98t98 -264zM602 362q0 123 -67.5 194t-180.5 71h-159v-216h138v-89h-138v-224h159q118 0 182 72q66 72 66 192z" />
    <glyph glyph-name="dslash" unicode="&#x111;" horiz-adv-x="679" 
d="M692 582h-89v-582h-92l-8 84q-26 -44 -79.5 -69t-121.5 -25q-116 0 -186.5 74.5t-70.5 192.5q0 122 73.5 196.5t191.5 74.5q128 0 189 -80v134h-166v83h166v85h104v-85h89v-83zM499 251v13q0 79 -48 127t-126 48q-81 0 -127.5 -49t-46.5 -132t47 -131t125 -48
q79 0 127.5 46t48.5 126z" />
    <glyph glyph-name="Emacron" unicode="&#x112;" horiz-adv-x="658" 
d="M86 725h512v-98h-403v-218h373v-93h-373v-219h403v-97h-512v725zM146 890h374v-77h-374v77z" />
    <glyph glyph-name="emacron" unicode="&#x113;" horiz-adv-x="611" 
d="M566 154q-22 -77 -88.5 -120.5t-160.5 -43.5q-123 0 -197.5 74t-74.5 195q0 119 74 194t192 75q110 0 179.5 -65t69.5 -169q0 -12 -5 -44h-404v-12q0 -76 44.5 -119t121.5 -43q52 0 90.5 21t54.5 57h104zM154 322h298q1 51 -41 86q-41 35 -103 35q-60 0 -102 -33t-52 -88
zM127 683h374v-77h-374v77z" />
    <glyph glyph-name="Edotaccent" unicode="&#x116;" horiz-adv-x="658" 
d="M86 725h512v-98h-403v-218h373v-93h-373v-219h403v-97h-512v725zM260 862q0 29 20.5 48t52.5 19q31 0 51.5 -19t20.5 -48t-20.5 -48t-51.5 -19q-32 0 -52.5 19t-20.5 48z" />
    <glyph glyph-name="edotaccent" unicode="&#x117;" horiz-adv-x="611" 
d="M566 154q-22 -77 -88.5 -120.5t-160.5 -43.5q-123 0 -197.5 74t-74.5 195q0 119 74 194t192 75q110 0 179.5 -65t69.5 -169q0 -12 -5 -44h-404v-12q0 -76 44.5 -119t121.5 -43q52 0 90.5 21t54.5 57h104zM154 322h298q1 51 -41 86q-41 35 -103 35q-60 0 -102 -33t-52 -88
zM241 655q0 29 20.5 48t52.5 19q31 0 51.5 -19t20.5 -48t-20.5 -48t-51.5 -19q-32 0 -52.5 19t-20.5 48z" />
    <glyph glyph-name="Eogonek" unicode="&#x118;" horiz-adv-x="658" 
d="M603 -115v-54q-24 -9 -54 -9q-45 0 -70.5 22.5t-25.5 59.5q0 57 57 96h-424v725h512v-98h-403v-218h373v-93h-373v-219h403v-97q-81 -32 -81 -81q0 -40 49 -40q20 0 37 6z" />
    <glyph glyph-name="eogonek" unicode="&#x119;" horiz-adv-x="611" 
d="M290 -69q0 -40 49 -40q20 0 37 6v-54q-24 -9 -54 -9q-45 0 -70.5 22.5t-25.5 59.5q0 46 35 78q-100 17 -158 88t-58 177q0 119 74 194t192 75q110 0 179.5 -65t69.5 -169q0 -12 -5 -44h-404v-12q0 -76 44.5 -119t121.5 -43q52 0 90.5 21t54.5 57h104q-21 -75 -85 -118.5
t-154 -45.5q-37 -25 -37 -59zM154 322h298q1 51 -41 86q-41 35 -103 35q-60 0 -102 -33t-52 -88z" />
    <glyph glyph-name="Ecaron" unicode="&#x11a;" horiz-adv-x="658" 
d="M86 725h512v-98h-403v-218h373v-93h-373v-219h403v-97h-512v725zM230 956l104 -108l102 108l59 -56l-126 -122h-71l-126 122z" />
    <glyph glyph-name="ecaron" unicode="&#x11b;" horiz-adv-x="611" 
d="M566 154q-22 -77 -88.5 -120.5t-160.5 -43.5q-123 0 -197.5 74t-74.5 195q0 119 74 194t192 75q110 0 179.5 -65t69.5 -169q0 -12 -5 -44h-404v-12q0 -76 44.5 -119t121.5 -43q52 0 90.5 21t54.5 57h104zM154 322h298q1 51 -41 86q-41 35 -103 35q-60 0 -102 -33t-52 -88
zM211 748l104 -108l102 108l59 -56l-126 -122h-71l-126 122z" />
    <glyph glyph-name="Gbreve" unicode="&#x11e;" horiz-adv-x="826" 
d="M772 322q0 -149 -97 -240.5t-254 -91.5q-166 0 -266.5 102t-100.5 269q0 166 100 270t264 104q130 0 221 -65.5t111 -171.5h-112q-19 63 -79 101t-139 38q-114 0 -183.5 -76t-69.5 -200q0 -125 70 -200.5t185 -75.5q102 0 170 58.5t69 148.5h-296v85h403q4 -21 4 -55z
M411 781q-69 0 -112 41t-43 107h71q0 -36 24 -59.5t60 -23.5t59.5 23.5t23.5 59.5h71q0 -66 -42.5 -107t-111.5 -41z" />
    <glyph glyph-name="gbreve" unicode="&#x11f;" horiz-adv-x="559" 
d="M541 -55q0 -148 -181 -148h-164q-187 0 -187 142q0 72 49 110.5t132 38.5h16v84q-75 12 -118 58.5t-43 114.5q0 83 60.5 133t155.5 50h271v-78l-115 15q50 -45 50 -118q0 -71 -45 -118t-123 -58v-83h65q85 0 131 -37t46 -106zM256 246q53 0 83 27.5t30 73.5
q0 48 -30.5 74.5t-82.5 26.5q-53 0 -83.5 -28t-30.5 -74q0 -47 31 -73.5t83 -26.5zM438 -49q0 69 -90 69h-147q-90 0 -90 -71t93 -71h144q90 0 90 73zM263 577q-69 0 -112 41t-43 107h71q0 -36 24 -59.5t60 -23.5t59.5 23.5t23.5 59.5h71q0 -66 -42.5 -107t-111.5 -41z" />
    <glyph glyph-name="Gdotaccent" unicode="&#x120;" horiz-adv-x="826" 
d="M772 322q0 -149 -97 -240.5t-254 -91.5q-166 0 -266.5 102t-100.5 269q0 166 100 270t264 104q130 0 221 -65.5t111 -171.5h-112q-19 63 -79 101t-139 38q-114 0 -183.5 -76t-69.5 -200q0 -125 70 -200.5t185 -75.5q102 0 170 58.5t69 148.5h-296v85h403q4 -21 4 -55z
M338 862q0 29 20.5 48t52.5 19q31 0 51.5 -19t20.5 -48t-20.5 -48t-51.5 -19q-32 0 -52.5 19t-20.5 48z" />
    <glyph glyph-name="gdotaccent" unicode="&#x121;" horiz-adv-x="559" 
d="M541 -55q0 -148 -181 -148h-164q-187 0 -187 142q0 72 49 110.5t132 38.5h16v84q-75 12 -118 58.5t-43 114.5q0 83 60.5 133t155.5 50h271v-78l-115 15q50 -45 50 -118q0 -71 -45 -118t-123 -58v-83h65q85 0 131 -37t46 -106zM256 246q53 0 83 27.5t30 73.5
q0 48 -30.5 74.5t-82.5 26.5q-53 0 -83.5 -28t-30.5 -74q0 -47 31 -73.5t83 -26.5zM438 -49q0 69 -90 69h-147q-90 0 -90 -71t93 -71h144q90 0 90 73zM190 658q0 29 20.5 48t52.5 19q31 0 51.5 -19t20.5 -48t-20.5 -48t-51.5 -19q-32 0 -52.5 19t-20.5 48z" />
    <glyph glyph-name="uni0122" unicode="&#x122;" horiz-adv-x="826" 
d="M772 322q0 -149 -97 -240.5t-254 -91.5q-166 0 -266.5 102t-100.5 269q0 166 100 270t264 104q130 0 221 -65.5t111 -171.5h-112q-19 63 -79 101t-139 38q-114 0 -183.5 -76t-69.5 -200q0 -125 70 -200.5t185 -75.5q102 0 170 58.5t69 148.5h-296v85h403q4 -21 4 -55z
M453 -153q-24 3 -37.5 17t-13.5 34q0 25 16.5 40.5t41.5 15.5q24 0 41 -15t17 -39q0 -20 -17 -46l-61 -90l-35 24z" />
    <glyph glyph-name="uni0123" unicode="&#x123;" horiz-adv-x="559" 
d="M541 -55q0 -148 -181 -148h-164q-187 0 -187 142q0 72 49 110.5t132 38.5h16v84q-75 12 -118 58.5t-43 114.5q0 83 60.5 133t155.5 50h271v-78l-115 15q50 -45 50 -118q0 -71 -45 -118t-123 -58v-83h65q85 0 131 -37t46 -106zM256 246q53 0 83 27.5t30 73.5
q0 48 -30.5 74.5t-82.5 26.5q-53 0 -83.5 -28t-30.5 -74q0 -47 31 -73.5t83 -26.5zM438 -49q0 69 -90 69h-147q-90 0 -90 -71t93 -71h144q90 0 90 73zM269 689q24 -3 37.5 -17t13.5 -34q0 -24 -16.5 -39.5t-40.5 -15.5t-40.5 15t-16.5 39q0 19 17 45l60 89l34 -25z" />
    <glyph glyph-name="Hbar" unicode="&#x126;" horiz-adv-x="762" 
d="M765 565h-90v-565h-108v323h-372v-323h-109v565h-73v83h73v77h109v-77h372v77h108v-77h90v-83zM567 565h-372v-147h372v147z" />
    <glyph glyph-name="hbar" unicode="&#x127;" horiz-adv-x="626" 
d="M550 325v-325h-105v313q0 61 -30.5 93t-85.5 32q-66 0 -105 -43.5t-39 -117.5v-277h-104v585h-81v84h81v81h104v-81h174v-84h-175v-150q25 45 70.5 69t103.5 24q92 0 142 -53t50 -150z" />
    <glyph glyph-name="Imacron" unicode="&#x12a;" horiz-adv-x="282" 
d="M86 0v725h109v-725h-109zM-47 890h374v-77h-374v77z" />
    <glyph glyph-name="imacron" unicode="&#x12b;" horiz-adv-x="269" 
d="M83 518h103v-518h-103v518zM-52 683h374v-77h-374v77z" />
    <glyph glyph-name="Iogonek" unicode="&#x12e;" horiz-adv-x="282" 
d="M200 -115v-54q-24 -9 -54 -9q-45 0 -70.5 22.5t-25.5 59.5q0 57 57 96h-21v725h109v-725q-81 -32 -81 -81q0 -40 49 -40q21 0 37 6z" />
    <glyph glyph-name="iogonek" unicode="&#x12f;" horiz-adv-x="269" 
d="M62 655q0 29 20.5 48t52.5 19q31 0 51.5 -19t20.5 -48t-20.5 -48t-51.5 -19q-32 0 -52.5 19t-20.5 48zM153 -121q21 0 37 6v-54q-24 -9 -54 -9q-45 0 -70.5 22.5t-25.5 59.5q0 57 57 96h-14v518h103v-518h-1q-81 -32 -81 -81q0 -40 49 -40z" />
    <glyph glyph-name="Idot" unicode="&#x130;" horiz-adv-x="282" 
d="M86 0v725h109v-725h-109zM67 862q0 29 20.5 48t52.5 19q31 0 51.5 -19t20.5 -48t-20.5 -48t-51.5 -19q-32 0 -52.5 19t-20.5 48z" />
    <glyph glyph-name="dotlessi" unicode="&#x131;" horiz-adv-x="269" 
d="M83 518h103v-518h-103v518z" />
    <glyph glyph-name="uni0136" unicode="&#x136;" horiz-adv-x="721" 
d="M566 0l-237 321l-134 -155v-166h-109v725h109v-401l349 401h134l-275 -319l297 -406h-134zM361 -149q-24 3 -37.5 17t-13.5 34q0 25 16.5 40.5t41.5 15.5q24 0 41 -15t17 -39q0 -20 -17 -46l-61 -90l-35 24z" />
    <glyph glyph-name="uni0137" unicode="&#x137;" horiz-adv-x="603" 
d="M81 750h104v-477l260 245h128l-210 -205l217 -313h-120l-171 240l-104 -99v-141h-104v750zM308 -149q-24 3 -37.5 17t-13.5 34q0 25 16.5 40.5t41.5 15.5q24 0 41 -15t17 -39q0 -20 -17 -46l-61 -90l-35 24z" />
    <glyph glyph-name="Lacute" unicode="&#x139;" horiz-adv-x="628" 
d="M86 725h109v-625h386v-100h-495v725zM151 834l186 128l44 -73l-196 -109z" />
    <glyph glyph-name="lacute" unicode="&#x13a;" horiz-adv-x="266" 
d="M81 750h104v-750h-104v750zM95 860l186 128l44 -73l-196 -109z" />
    <glyph glyph-name="uni013B" unicode="&#x13b;" horiz-adv-x="628" 
d="M86 725h109v-625h386v-100h-495v725zM307 -149q-24 3 -37.5 17t-13.5 34q0 25 16.5 40.5t41.5 15.5q24 0 41 -15t17 -39q0 -20 -17 -46l-61 -90l-35 24z" />
    <glyph glyph-name="uni013C" unicode="&#x13c;" horiz-adv-x="266" 
d="M81 750h104v-750h-104v750zM126 -149q-24 3 -37.5 17t-13.5 34q0 25 16.5 40.5t41.5 15.5q24 0 41 -15t17 -39q0 -20 -17 -46l-61 -90l-35 24z" />
    <glyph glyph-name="Lcaron" unicode="&#x13d;" horiz-adv-x="628" 
d="M404 611q-29 4 -45.5 21t-16.5 42q0 30 20 48.5t50 18.5t50 -18.5t20 -47.5q0 -25 -21 -56l-71 -106l-44 31zM86 725h109v-625h386v-100h-495v725z" />
    <glyph glyph-name="lcaron" unicode="&#x13e;" horiz-adv-x="373" 
d="M335 631q-29 4 -46 21.5t-17 42.5q0 30 20.5 49t51.5 19t51.5 -18.5t20.5 -48.5q0 -24 -22 -58l-73 -108l-45 32zM81 750h104v-750h-104v750z" />
    <glyph glyph-name="Ldot" unicode="&#x13f;" horiz-adv-x="628" 
d="M86 725h109v-625h386v-100h-495v725zM378 454q34 0 59 -24t25 -57q0 -32 -25 -55.5t-59 -23.5q-33 0 -57 23.5t-24 55.5q0 34 24 57.5t57 23.5z" />
    <glyph glyph-name="Lslash" unicode="&#x141;" horiz-adv-x="628" 
d="M581 100v-100h-495v295l-86 -29v94l86 29v336h109v-300l177 59v-94l-177 -59v-231h386z" />
    <glyph glyph-name="lslash" unicode="&#x142;" horiz-adv-x="266" 
d="M268 374l-83 -28v-346h-104v310l-83 -28v94l83 28v346h104v-310l83 28v-94z" />
    <glyph glyph-name="Nacute" unicode="&#x143;" horiz-adv-x="773" 
d="M686 725v-725h-114l-377 553v-553h-109v725h115l376 -551v551h109zM347 834l186 128l44 -73l-196 -109z" />
    <glyph glyph-name="nacute" unicode="&#x144;" horiz-adv-x="626" 
d="M81 518h93l11 -83q24 43 70.5 68t102.5 25q92 0 142 -53t50 -150v-325h-105v313q0 61 -30.5 93t-85.5 32q-66 0 -105 -43.5t-39 -117.5v-277h-104v518zM275 627l186 128l44 -73l-196 -109z" />
    <glyph glyph-name="uni0145" unicode="&#x145;" horiz-adv-x="773" 
d="M686 725v-725h-114l-377 553v-553h-109v725h115l376 -551v551h109zM377 -149q-24 3 -37.5 17t-13.5 34q0 25 16.5 40.5t41.5 15.5q24 0 41 -15t17 -39q0 -20 -17 -46l-61 -90l-35 24z" />
    <glyph glyph-name="uni0146" unicode="&#x146;" horiz-adv-x="626" 
d="M81 518h93l11 -83q24 43 70.5 68t102.5 25q92 0 142 -53t50 -150v-325h-105v313q0 61 -30.5 93t-85.5 32q-66 0 -105 -43.5t-39 -117.5v-277h-104v518zM305 -149q-24 3 -37.5 17t-13.5 34q0 25 16.5 40.5t41.5 15.5q24 0 41 -15t17 -39q0 -20 -17 -46l-61 -90l-35 24z
" />
    <glyph glyph-name="Ncaron" unicode="&#x147;" horiz-adv-x="773" 
d="M686 725v-725h-114l-377 553v-553h-109v725h115l376 -551v551h109zM280 956l104 -108l102 108l59 -56l-126 -122h-71l-126 122z" />
    <glyph glyph-name="ncaron" unicode="&#x148;" horiz-adv-x="626" 
d="M81 518h93l11 -83q24 43 70.5 68t102.5 25q92 0 142 -53t50 -150v-325h-105v313q0 61 -30.5 93t-85.5 32q-66 0 -105 -43.5t-39 -117.5v-277h-104v518zM208 748l104 -108l102 108l59 -56l-126 -122h-71l-126 122z" />
    <glyph glyph-name="Eng" unicode="&#x14a;" horiz-adv-x="773" 
d="M686 725v-760q0 -85 -48 -129t-136 -44q-37 0 -80 8v80h56q55 0 78 21.5t23 65.5v33h-7l-377 553v-553h-109v725h115l376 -551v551h109z" />
    <glyph glyph-name="eng" unicode="&#x14b;" horiz-adv-x="626" 
d="M550 325v-360q0 -83 -48 -127.5t-133 -44.5q-33 0 -73 9v78q42 -3 46 -3q103 0 103 92v344q0 61 -30.5 93t-85.5 32q-66 0 -105 -43.5t-39 -117.5v-277h-104v518h93l11 -83q24 43 70.5 68t102.5 25q92 0 142 -53t50 -150z" />
    <glyph glyph-name="Omacron" unicode="&#x14c;" horiz-adv-x="853" 
d="M426 736q163 2 269 -104t104 -269q2 -164 -104 -269.5t-269 -103.5q-164 0 -268 104t-104 269q-2 163 103.5 269t268.5 104zM426 90q114 0 186.5 76t72.5 197t-72.5 197t-186.5 76q-113 0 -185.5 -76.5t-72.5 -196.5q0 -121 72 -197t186 -76zM239 890h374v-77h-374v77z
" />
    <glyph glyph-name="omacron" unicode="&#x14d;" horiz-adv-x="650" 
d="M325 528q122 0 201 -75t79 -194t-79 -194t-201 -75q-123 0 -201.5 74.5t-78.5 194.5t78.5 194.5t201.5 74.5zM326 81q78 0 125 48.5t47 129.5t-47 129.5t-125 48.5q-79 0 -126.5 -49t-47.5 -130t47.5 -129t126.5 -48zM138 683h374v-77h-374v77z" />
    <glyph glyph-name="Ohungarumlaut" unicode="&#x150;" horiz-adv-x="853" 
d="M426 736q163 2 269 -104t104 -269q2 -164 -104 -269.5t-269 -103.5q-164 0 -268 104t-104 269q-2 163 103.5 269t268.5 104zM426 90q114 0 186.5 76t72.5 197t-72.5 197t-186.5 76q-113 0 -185.5 -76.5t-72.5 -196.5q0 -121 72 -197t186 -76zM292 828l163 156l55 -64
l-175 -140zM483 834l187 128l43 -73l-195 -109z" />
    <glyph glyph-name="ohungarumlaut" unicode="&#x151;" horiz-adv-x="650" 
d="M325 528q122 0 201 -75t79 -194t-79 -194t-201 -75q-123 0 -201.5 74.5t-78.5 194.5t78.5 194.5t201.5 74.5zM326 81q78 0 125 48.5t47 129.5t-47 129.5t-125 48.5q-79 0 -126.5 -49t-47.5 -130t47.5 -129t126.5 -48zM190 621l163 156l55 -64l-175 -140zM381 627l187 128
l43 -73l-195 -109z" />
    <glyph glyph-name="OE" unicode="&#x152;" horiz-adv-x="1004" 
d="M427 725h516v-98h-371v-218h272v-93h-272v-218h371v-98h-517q-166 -2 -270 99.5t-102 263.5q0 163 102.5 262.5t270.5 99.5zM423 98h42v529h-42q-114 0 -184.5 -73t-70.5 -191q0 -117 70.5 -191t184.5 -74z" />
    <glyph glyph-name="oe" unicode="&#x153;" horiz-adv-x="1082" 
d="M1037 154q-21 -77 -88 -120.5t-161 -43.5q-155 0 -229 113q-37 -54 -97.5 -83.5t-136.5 -29.5q-123 0 -201.5 74.5t-78.5 194.5t78.5 194.5t201.5 74.5q76 0 136.5 -29.5t97.5 -83.5q74 113 223 113q110 0 179.5 -65t69.5 -169q0 -13 -4 -44h-405v-12q0 -76 44.5 -119
t121.5 -43q52 0 90.5 21t54.5 57h104zM625 322h299q0 51 -41 86t-103 35q-60 0 -102.5 -33t-52.5 -88zM498 259q0 81 -47 129.5t-125 48.5q-79 0 -126.5 -49t-47.5 -130t47.5 -129t126.5 -48q78 0 125 48.5t47 129.5z" />
    <glyph glyph-name="Racute" unicode="&#x154;" horiz-adv-x="710" 
d="M689 0h-135l-234 278h-125v-278h-109v725h330q115 0 182.5 -60.5t67.5 -158.5q0 -95 -59.5 -153.5t-161.5 -64.5zM407 370q68 0 106.5 34.5t38.5 94.5q0 59 -39 93t-106 34h-212v-256h212zM295 834l186 128l44 -73l-196 -109z" />
    <glyph glyph-name="racute" unicode="&#x155;" horiz-adv-x="381" 
d="M360 521v-97q-18 2 -32 2q-70 0 -106.5 -46t-36.5 -123v-257h-104v518h91l11 -85q18 45 55.5 69t86.5 24q22 0 35 -5zM99 627l186 128l44 -73l-196 -109z" />
    <glyph glyph-name="uni0156" unicode="&#x156;" horiz-adv-x="710" 
d="M689 0h-135l-234 278h-125v-278h-109v725h330q115 0 182.5 -60.5t67.5 -158.5q0 -95 -59.5 -153.5t-161.5 -64.5zM407 370q68 0 106.5 34.5t38.5 94.5q0 59 -39 93t-106 34h-212v-256h212zM351 -149q-24 3 -37.5 17t-13.5 34q0 25 16.5 40.5t41.5 15.5q24 0 41 -15
t17 -39q0 -20 -17 -46l-61 -90l-35 24z" />
    <glyph glyph-name="uni0157" unicode="&#x157;" horiz-adv-x="381" 
d="M360 521v-97q-18 2 -32 2q-70 0 -106.5 -46t-36.5 -123v-257h-104v518h91l11 -85q18 45 55.5 69t86.5 24q22 0 35 -5zM138 -153q-24 3 -37.5 17t-13.5 34q0 25 16.5 40.5t41.5 15.5q24 0 41 -15t17 -39q0 -20 -17 -46l-61 -90l-35 24z" />
    <glyph glyph-name="Rcaron" unicode="&#x158;" horiz-adv-x="710" 
d="M689 0h-135l-234 278h-125v-278h-109v725h330q115 0 182.5 -60.5t67.5 -158.5q0 -95 -59.5 -153.5t-161.5 -64.5zM407 370q68 0 106.5 34.5t38.5 94.5q0 59 -39 93t-106 34h-212v-256h212zM228 956l104 -108l102 108l59 -56l-126 -122h-71l-126 122z" />
    <glyph glyph-name="rcaron" unicode="&#x159;" horiz-adv-x="381" 
d="M360 521v-97q-18 2 -32 2q-70 0 -106.5 -46t-36.5 -123v-257h-104v518h91l11 -85q18 45 55.5 69t86.5 24q22 0 35 -5zM32 748l104 -108l102 108l59 -56l-126 -122h-71l-126 122z" />
    <glyph glyph-name="Sacute" unicode="&#x15a;" horiz-adv-x="673" 
d="M54 212h112q5 -60 53 -94.5t126 -34.5q75 0 117.5 32t42.5 87q0 54 -35 74q-33 20 -78 28l-133 22q-199 35 -199 193q0 97 74 156.5t195 59.5t195 -61t76 -160h-110q-4 60 -48.5 94.5t-118.5 34.5q-67 0 -108 -30.5t-41 -81.5q0 -83 116 -103l134 -21q96 -15 145.5 -68
t49.5 -131q0 -98 -75.5 -158t-201.5 -60q-125 0 -202.5 60.5t-85.5 161.5zM294 834l186 128l44 -73l-196 -109z" />
    <glyph glyph-name="sacute" unicode="&#x15b;" horiz-adv-x="532" 
d="M51 155h99q3 -41 35 -63.5t86 -22.5q51 0 79 20t28 55q0 55 -69 68l-98 17q-153 25 -153 141q0 71 56 114.5t148 43.5q91 0 148 -43.5t60 -115.5h-96q-2 38 -32 59t-79 21q-46 0 -73.5 -19t-27.5 -52q0 -50 75 -62l106 -18q69 -12 104.5 -50t35.5 -95q0 -73 -58.5 -118
t-153.5 -45q-97 0 -156.5 45t-63.5 120zM228 627l186 128l44 -73l-196 -109z" />
    <glyph glyph-name="Scedilla" unicode="&#x15e;" horiz-adv-x="673" 
d="M367 -9l-16 -26q35 2 60 -17.5t25 -54.5q0 -38 -29.5 -59t-74.5 -21q-48 0 -77 20v50q25 -20 64 -20q53 0 53 35q0 32 -47 32q-22 0 -42 -7v23l27 45q-113 8 -181 67t-75 154h112q5 -60 53 -94.5t126 -34.5q75 0 117.5 32t42.5 87q0 54 -35 74q-33 20 -78 28l-133 22
q-199 35 -199 193q0 97 74 156.5t195 59.5t195 -61t76 -160h-110q-4 60 -48.5 94.5t-118.5 34.5q-67 0 -108 -30.5t-41 -81.5q0 -83 116 -103l134 -21q96 -15 145.5 -68t49.5 -131q0 -93 -68.5 -152t-183.5 -65z" />
    <glyph glyph-name="scedilla" unicode="&#x15f;" horiz-adv-x="532" 
d="M311 -8l-20 -33q35 2 60 -17.5t25 -54.5q0 -38 -29.5 -59t-74.5 -21q-48 0 -77 20v50q25 -20 64 -20q53 0 53 35q0 32 -47 32q-22 0 -42 -7v23l30 50q-90 4 -144 48.5t-58 116.5h99q3 -41 35 -63.5t86 -22.5q51 0 79 20t28 55q0 55 -69 68l-98 17q-153 25 -153 141
q0 71 56 114.5t148 43.5q91 0 148 -43.5t60 -115.5h-96q-2 38 -32 59t-79 21q-46 0 -73.5 -19t-27.5 -52q0 -50 75 -62l106 -18q69 -12 104.5 -50t35.5 -95q0 -65 -46.5 -108t-125.5 -53z" />
    <glyph glyph-name="Scaron" unicode="&#x160;" horiz-adv-x="673" 
d="M54 212h112q5 -60 53 -94.5t126 -34.5q75 0 117.5 32t42.5 87q0 54 -35 74q-33 20 -78 28l-133 22q-199 35 -199 193q0 97 74 156.5t195 59.5t195 -61t76 -160h-110q-4 60 -48.5 94.5t-118.5 34.5q-67 0 -108 -30.5t-41 -81.5q0 -83 116 -103l134 -21q96 -15 145.5 -68
t49.5 -131q0 -98 -75.5 -158t-201.5 -60q-125 0 -202.5 60.5t-85.5 161.5zM228 956l104 -108l102 108l59 -56l-126 -122h-71l-126 122z" />
    <glyph glyph-name="scaron" unicode="&#x161;" horiz-adv-x="532" 
d="M51 155h99q3 -41 35 -63.5t86 -22.5q51 0 79 20t28 55q0 55 -69 68l-98 17q-153 25 -153 141q0 71 56 114.5t148 43.5q91 0 148 -43.5t60 -115.5h-96q-2 38 -32 59t-79 21q-46 0 -73.5 -19t-27.5 -52q0 -50 75 -62l106 -18q69 -12 104.5 -50t35.5 -95q0 -73 -58.5 -118
t-153.5 -45q-97 0 -156.5 45t-63.5 120zM161 748l104 -108l102 108l59 -56l-126 -122h-71l-126 122z" />
    <glyph glyph-name="uni0162" unicode="&#x162;" horiz-adv-x="602" 
d="M342 0l-21 -35q35 2 60 -17.5t25 -54.5q0 -38 -29.5 -59t-74.5 -21q-48 0 -77 20v50q25 -20 64 -20q53 0 53 35q0 32 -47 32q-22 0 -42 -7v23l32 54h-38v631h-229v94h565v-94h-227v-631h-14z" />
    <glyph glyph-name="uni0163" unicode="&#x163;" horiz-adv-x="424" 
d="M249 430v-263q0 -47 21 -67t70 -20q8 0 40 2v-81q-26 -7 -64 -8l-20 -32q35 2 60 -17.5t25 -54.5q0 -38 -29.5 -59t-74.5 -21q-48 0 -77 20v50q25 -20 64 -20q53 0 53 35q0 32 -47 32q-22 0 -42 -7v23l32 54q-38 7 -62.5 23t-35.5 40.5t-14 45.5t-3 51v274h-122v88h122
v172h104v-172h140v-88h-140z" />
    <glyph glyph-name="Tcaron" unicode="&#x164;" horiz-adv-x="602" 
d="M583 631h-227v-631h-109v631h-229v94h565v-94zM198 956l104 -108l102 108l59 -56l-126 -122h-71l-126 122z" />
    <glyph glyph-name="tcaron" unicode="&#x165;" horiz-adv-x="420" 
d="M369 657q-27 4 -42 19.5t-15 38.5q0 28 18.5 45.5t46.5 17.5t46.5 -17t18.5 -44q0 -25 -19 -53l-67 -99l-41 29zM145 156v274h-122v88h122v172h104v-172h140v-88h-140v-263q0 -47 21 -67t70 -20q8 0 40 2v-81q-38 -8 -83 -8q-64 0 -99.5 25.5t-44.5 63.5q-8 37 -8 74z
" />
    <glyph glyph-name="Tbar" unicode="&#x166;" horiz-adv-x="602" 
d="M356 631v-230h118v-91h-118v-310h-109v310h-114v91h114v230h-229v94h565v-94h-227z" />
    <glyph glyph-name="tbar" unicode="&#x167;" horiz-adv-x="424" 
d="M249 231v-64q0 -47 21 -67t70 -20q8 0 40 2v-81q-38 -8 -83 -8q-64 0 -99.5 25.5t-44.5 63.5q-8 37 -8 74v75h-123v93h123v106h-122v88h122v172h104v-172h140v-88h-140v-106h148v-93h-148z" />
    <glyph glyph-name="Umacron" unicode="&#x16a;" horiz-adv-x="737" 
d="M82 725h109v-459q0 -85 47 -130.5t130 -45.5q87 0 132.5 46.5t45.5 129.5v459h108v-466q0 -126 -76.5 -197.5t-209.5 -71.5t-209.5 72.5t-76.5 196.5v466zM181 890h374v-77h-374v77z" />
    <glyph glyph-name="umacron" unicode="&#x16b;" horiz-adv-x="620" 
d="M76 188v330h104v-310q0 -48 23 -89q22 -40 94 -40q66 0 104.5 40.5t38.5 103.5v295h104v-518h-93l-12 86q-20 -43 -69 -69.5t-105 -26.5q-91 0 -140 53t-49 145zM123 683h374v-77h-374v77z" />
    <glyph glyph-name="Uring" unicode="&#x16e;" horiz-adv-x="737" 
d="M82 725h109v-459q0 -85 47 -130.5t130 -45.5q87 0 132.5 46.5t45.5 129.5v459h108v-466q0 -126 -76.5 -197.5t-209.5 -71.5t-209.5 72.5t-76.5 196.5v466zM369 686q-53 0 -88 33t-35 82q0 50 34 82.5t89 32.5q54 0 88 -32t34 -83q0 -49 -34.5 -82t-87.5 -33zM369 862
q-28 0 -45.5 -17.5t-17.5 -43.5q0 -25 18 -43t45 -18t44.5 17t17.5 44t-17.5 44t-44.5 17z" />
    <glyph glyph-name="uring" unicode="&#x16f;" horiz-adv-x="620" 
d="M76 188v330h104v-310q0 -48 23 -89q22 -40 94 -40q66 0 104.5 40.5t38.5 103.5v295h104v-518h-93l-12 86q-20 -43 -69 -69.5t-105 -26.5q-91 0 -140 53t-49 145zM311 479q-53 0 -88 33t-35 82q0 50 34 82.5t89 32.5q54 0 88 -32t34 -83q0 -49 -34.5 -82t-87.5 -33z
M311 655q-28 0 -45.5 -17.5t-17.5 -43.5q0 -25 18 -43t45 -18t44.5 17.5t17.5 43.5t-17.5 43.5t-44.5 17.5z" />
    <glyph glyph-name="Uhungarumlaut" unicode="&#x170;" horiz-adv-x="737" 
d="M82 725h109v-459q0 -85 47 -130.5t130 -45.5q87 0 132.5 46.5t45.5 129.5v459h108v-466q0 -126 -76.5 -197.5t-209.5 -71.5t-209.5 72.5t-76.5 196.5v466zM234 828l163 156l55 -64l-175 -140zM425 834l187 128l43 -73l-195 -109z" />
    <glyph glyph-name="uhungarumlaut" unicode="&#x171;" horiz-adv-x="620" 
d="M76 188v330h104v-310q0 -48 23 -89q22 -40 94 -40q66 0 104.5 40.5t38.5 103.5v295h104v-518h-93l-12 86q-20 -43 -69 -69.5t-105 -26.5q-91 0 -140 53t-49 145zM176 621l163 156l55 -64l-175 -140zM367 627l187 128l43 -73l-195 -109z" />
    <glyph glyph-name="Uogonek" unicode="&#x172;" horiz-adv-x="737" 
d="M654 725v-466q0 -120 -70 -191t-192 -77q-59 -29 -59 -72q0 -40 49 -40q20 0 37 6v-54q-24 -9 -54 -9q-45 0 -70.5 22.5t-25.5 59.5q0 51 47 89q-111 14 -172.5 84.5t-61.5 181.5v466h109v-459q0 -85 47 -130.5t130 -45.5q87 0 132.5 46.5t45.5 129.5v459h108z" />
    <glyph glyph-name="uogonek" unicode="&#x173;" horiz-adv-x="620" 
d="M549 -115v-54q-24 -9 -54 -9q-45 0 -70.5 22.5t-25.5 59.5q0 57 57 96h-5l-12 86q-20 -43 -69 -69.5t-105 -26.5q-91 0 -140 53t-49 145v330h104v-310q0 -48 23 -89q22 -40 94 -40q66 0 104.5 40.5t38.5 103.5v295h104v-518q-81 -32 -81 -81q0 -40 49 -40q20 0 37 6z" />
    <glyph glyph-name="Wcircumflex" unicode="&#x174;" horiz-adv-x="1012" 
d="M138 725l147 -603l160 603h126l162 -605l139 605h119l-179 -725h-151l-152 579l-150 -579h-150l-188 725h117zM470 949h71l126 -122l-59 -56l-102 108l-104 -108l-58 56z" />
    <glyph glyph-name="wcircumflex" unicode="&#x175;" horiz-adv-x="809" 
d="M132 518l109 -415l107 415h113l110 -415l107 415h107l-149 -518h-125l-106 392l-106 -392h-124l-152 518h109zM368 742h71l126 -122l-59 -56l-102 108l-104 -108l-58 56z" />
    <glyph glyph-name="Ycircumflex" unicode="&#x176;" horiz-adv-x="653" 
d="M651 725l-268 -404v-321h-109v321l-272 404h126l201 -309l200 309h122zM291 949h71l126 -122l-59 -56l-102 108l-104 -108l-58 56z" />
    <glyph glyph-name="ycircumflex" unicode="&#x177;" horiz-adv-x="617" 
d="M540 518v-517q0 -97 -65.5 -154t-176.5 -57q-104 0 -165 47t-66 131h103q4 -45 38 -69.5t89 -24.5q66 0 102.5 32.5t36.5 89.5v128q-53 -86 -170 -86q-92 0 -142 54t-50 150v276h104v-263q0 -64 30.5 -96t86.5 -32q65 0 103 40.5t38 103.5v247h104zM271 742h71l126 -122
l-59 -56l-102 108l-104 -108l-58 56z" />
    <glyph glyph-name="Ydieresis" unicode="&#x178;" horiz-adv-x="653" 
d="M651 725l-268 -404v-321h-109v321l-272 404h126l201 -309l200 309h122zM146 862q0 29 20.5 48t52.5 19q31 0 51.5 -19t20.5 -48t-20.5 -48t-51.5 -19q-32 0 -52.5 19t-20.5 48zM361 862q0 29 20.5 48t52.5 19q31 0 51.5 -19t20.5 -48t-20.5 -48t-51.5 -19q-32 0 -52.5 19
t-20.5 48z" />
    <glyph glyph-name="Zacute" unicode="&#x179;" horiz-adv-x="601" 
d="M566 640l-386 -542h381v-98h-524v85l387 543h-389v97h531v-85zM264 834l186 128l44 -73l-196 -109z" />
    <glyph glyph-name="zacute" unicode="&#x17a;" horiz-adv-x="514" 
d="M470 87v-87h-414v77l281 353h-282v88h412v-79l-284 -352h287zM224 627l186 128l44 -73l-196 -109z" />
    <glyph glyph-name="Zdotaccent" unicode="&#x17b;" horiz-adv-x="601" 
d="M566 640l-386 -542h381v-98h-524v85l387 543h-389v97h531v-85zM227 862q0 29 20.5 48t52.5 19q31 0 51.5 -19t20.5 -48t-20.5 -48t-51.5 -19q-32 0 -52.5 19t-20.5 48z" />
    <glyph glyph-name="zdotaccent" unicode="&#x17c;" horiz-adv-x="514" 
d="M470 87v-87h-414v77l281 353h-282v88h412v-79l-284 -352h287zM188 655q0 29 20.5 48t52.5 19q31 0 51.5 -19t20.5 -48t-20.5 -48t-51.5 -19q-32 0 -52.5 19t-20.5 48z" />
    <glyph glyph-name="Zcaron" unicode="&#x17d;" horiz-adv-x="601" 
d="M566 640l-386 -542h381v-98h-524v85l387 543h-389v97h531v-85zM197 956l104 -108l102 108l59 -56l-126 -122h-71l-126 122z" />
    <glyph glyph-name="zcaron" unicode="&#x17e;" horiz-adv-x="514" 
d="M470 87v-87h-414v77l281 353h-282v88h412v-79l-284 -352h287zM157 748l104 -108l102 108l59 -56l-126 -122h-71l-126 122z" />
    <glyph glyph-name="florin" unicode="&#x192;" horiz-adv-x="613" 
d="M387 519l-14 -63h192v-85h-210l-58 -276q-35 -174 -204 -174q-56 0 -94 9v87q22 -6 66 -6q61 0 91 29t45 93l51 238h-144v85h162l19 93q38 186 219 186q44 0 84 -8v-86q-38 7 -66 7q-38 -1 -63 -10t-40 -29t-21.5 -38t-14.5 -52z" />
    <glyph glyph-name="uni0199" unicode="&#x199;" horiz-adv-x="603" 
d="M365 311l215 -311h-120l-170 239l-105 -101v-138h-104v583q0 72 37 122q38 51 132 51q32 0 66 -6v-83q-22 2 -33 2q-54 0 -76 -21.5t-22 -73.5v-305l266 249h129z" />
    <glyph glyph-name="Aringacute" unicode="&#x1fa;" horiz-adv-x="735" 
d="M533 164h-334l-60 -164h-120l270 697q-36 31 -36 80q0 72 92 110l146 63l24 -58l-80 -31q45 -27 45 -85q0 -51 -38 -81l274 -695h-123zM314 778q0 -22 14.5 -36.5t36.5 -14.5q24 0 38.5 14t14.5 37t-14.5 36.5t-38.5 13.5q-23 0 -37 -14t-14 -36zM501 251l-135 366
l-135 -366h270z" />
    <glyph glyph-name="aringacute" unicode="&#x1fb;" 
d="M520 312v-312h-93l-6 96q-22 -47 -78 -76.5t-123 -29.5q-75 0 -121 40.5t-46 106.5q0 136 189 156l173 19v18q0 55 -32.5 84.5t-89.5 29.5q-59 0 -94 -27.5t-32 -73.5h-99q1 62 37.5 107t100.5 65q-21 25 -21 64q0 69 91 110l147 63l24 -58l-80 -31q44 -31 44 -85
q0 -38 -21 -63q130 -43 130 -203zM245 579q0 -23 14.5 -37t37.5 -14q24 0 39 14t15 37t-15 37t-39 14q-23 0 -37.5 -14t-14.5 -37zM415 245l-151 -19q-106 -13 -106 -80q0 -34 24.5 -53.5t69.5 -19.5q70 0 116.5 48.5t46.5 103.5v20z" />
    <glyph glyph-name="AEacute" unicode="&#x1fc;" horiz-adv-x="976" 
d="M544 627v-218h272v-93h-272v-218h371v-98h-478v191h-241l-63 -191h-114l252 725h644v-98h-371zM340 627l-114 -346h211v346h-97zM481 834l186 128l44 -73l-196 -109z" />
    <glyph glyph-name="aeacute" unicode="&#x1fd;" horiz-adv-x="947" 
d="M266 307h125v25q0 52 -32 81.5t-86 29.5q-51 0 -83 -24t-37 -64h-100q6 79 68 126t156 47q62 0 110.5 -25t71.5 -68q68 93 198 93q111 0 181 -65.5t70 -170.5q0 -28 -5 -58h-402q0 -74 44 -116t117 -42q51 0 88.5 20.5t53.5 56.5h105q-21 -76 -87 -119.5t-161 -43.5
q-78 0 -138 31.5t-85 85.5q-27 -56 -84.5 -86.5t-128.5 -30.5q-85 0 -136 42.5t-51 112.5q0 77 60.5 119.5t167.5 42.5zM802 308q-1 61 -41 99t-104 38q-65 0 -107.5 -38t-47.5 -99h300zM245 75q66 0 106.5 39t40.5 103v17h-121q-62 0 -94.5 -22t-32.5 -61q0 -35 27 -55.5
t74 -20.5zM421 627l186 128l44 -73l-196 -109z" />
    <glyph glyph-name="uni0218" unicode="&#x218;" horiz-adv-x="673" 
d="M54 212h112q5 -60 53 -94.5t126 -34.5q75 0 117.5 32t42.5 87q0 54 -35 74q-33 20 -78 28l-133 22q-199 35 -199 193q0 97 74 156.5t195 59.5t195 -61t76 -160h-110q-4 60 -48.5 94.5t-118.5 34.5q-67 0 -108 -30.5t-41 -81.5q0 -83 116 -103l134 -21q96 -15 145.5 -68
t49.5 -131q0 -98 -75.5 -158t-201.5 -60q-125 0 -202.5 60.5t-85.5 161.5zM324 -149q-24 3 -37.5 17t-13.5 34q0 25 16.5 40.5t41.5 15.5q24 0 41 -15t17 -39q0 -20 -17 -46l-61 -90l-35 24z" />
    <glyph glyph-name="uni0219" unicode="&#x219;" horiz-adv-x="532" 
d="M51 155h99q3 -41 35 -63.5t86 -22.5q51 0 79 20t28 55q0 55 -69 68l-98 17q-153 25 -153 141q0 71 56 114.5t148 43.5q91 0 148 -43.5t60 -115.5h-96q-2 38 -32 59t-79 21q-46 0 -73.5 -19t-27.5 -52q0 -50 75 -62l106 -18q69 -12 104.5 -50t35.5 -95q0 -73 -58.5 -118
t-153.5 -45q-97 0 -156.5 45t-63.5 120zM264 -155q-24 3 -37.5 17t-13.5 34q0 25 16.5 40.5t41.5 15.5q24 0 41 -15t17 -39q0 -20 -17 -46l-61 -90l-35 24z" />
    <glyph glyph-name="uni021A" unicode="&#x21a;" horiz-adv-x="602" 
d="M583 631h-227v-631h-109v631h-229v94h565v-94zM294 -149q-24 3 -37.5 17t-13.5 34q0 25 16.5 40.5t41.5 15.5q24 0 41 -15t17 -39q0 -20 -17 -46l-61 -90l-35 24z" />
    <glyph glyph-name="uni021B" unicode="&#x21b;" horiz-adv-x="424" 
d="M145 156v274h-122v88h122v172h104v-172h140v-88h-140v-263q0 -47 21 -67t70 -20q8 0 40 2v-81q-38 -8 -83 -8q-64 0 -99.5 25.5t-44.5 63.5q-8 37 -8 74zM269 -152q-24 3 -37.5 17t-13.5 34q0 25 16.5 40.5t41.5 15.5q24 0 41 -15t17 -39q0 -20 -17 -46l-61 -90l-35 24z
" />
    <glyph glyph-name="uni02BC" unicode="&#x2bc;" horiz-adv-x="600" 
 />
    <glyph glyph-name="circumflex" unicode="&#x2c6;" horiz-adv-x="507" 
d="M218 907h71l126 -122l-59 -56l-102 108l-104 -108l-58 56z" />
    <glyph glyph-name="ring" unicode="&#x2da;" horiz-adv-x="432" 
d="M216 666q-53 0 -88 33t-35 82q0 50 34 82.5t89 32.5q54 0 88 -32t34 -83q0 -49 -34.5 -82t-87.5 -33zM216 842q-28 0 -45.5 -17.5t-17.5 -43.5q0 -25 18 -43t45 -18q28 0 45 17t17 44t-17 44t-45 17z" />
    <glyph glyph-name="tilde" unicode="&#x2dc;" horiz-adv-x="473" 
d="M231 749q-41 18 -61 18q-31 0 -58 -34l-45 31q40 80 106 80q26 0 76 -21q34 -16 53 -16q34 0 58 34l46 -32q-41 -80 -104 -80q-28 0 -71 20z" />
    <glyph glyph-name="uni0400" unicode="&#x400;" horiz-adv-x="658" 
d="M86 725h512v-98h-403v-218h373v-93h-373v-219h403v-97h-512v725zM141 889l45 73l185 -128l-34 -54z" />
    <glyph glyph-name="uni0401" unicode="&#x401;" horiz-adv-x="658" 
d="M86 725h512v-98h-403v-218h373v-93h-373v-219h403v-97h-512v725zM159 862q0 29 20.5 48t52.5 19q31 0 51.5 -19t20.5 -48t-20.5 -48t-51.5 -19q-32 0 -52.5 19t-20.5 48zM374 862q0 29 20.5 48t52.5 19q31 0 51.5 -19t20.5 -48t-20.5 -48t-51.5 -19q-32 0 -52.5 19
t-20.5 48z" />
    <glyph glyph-name="uni0402" unicode="&#x402;" horiz-adv-x="707" 
d="M631 235v-231q0 -97 -53 -154.5t-145 -57.5q-30 0 -67 8v81q15 -3 32 -3q124 0 124 132v220q0 63 -32 96.5t-90 33.5q-68 0 -110.5 -44t-42.5 -114v-202h-109v630h-127v95h388v-95h-152l-1 -265q27 41 76 64t108 23q95 0 148 -57.5t53 -159.5z" />
    <glyph glyph-name="uni0403" unicode="&#x403;" horiz-adv-x="530" 
d="M86 725h426v-95h-317v-630h-109v725zM218 835l186 128l44 -73l-196 -109z" />
    <glyph glyph-name="uni0404" unicode="&#x404;" horiz-adv-x="808" 
d="M638 241h116q-21 -113 -114 -182t-225 -69q-160 -2 -261.5 103t-99.5 270q0 166 100 269t261 103q132 0 225 -69t114 -182h-116q-20 71 -80 111t-142 40q-104 0 -169.5 -62.5t-76.5 -170.5h340v-78h-340q11 -109 76 -171q68 -63 168 -63q83 0 143.5 41t80.5 110z" />
    <glyph glyph-name="uni0405" unicode="&#x405;" horiz-adv-x="673" 
d="M54 212h112q5 -60 53 -94.5t126 -34.5q75 0 117.5 32t42.5 87q0 54 -35 74q-33 20 -78 28l-133 22q-199 35 -199 193q0 97 74 156.5t195 59.5t195 -61t76 -160h-110q-4 60 -48.5 94.5t-118.5 34.5q-67 0 -108 -30.5t-41 -81.5q0 -83 116 -103l134 -21q96 -15 145.5 -68
t49.5 -131q0 -98 -75.5 -158t-201.5 -60q-125 0 -202.5 60.5t-85.5 161.5z" />
    <glyph glyph-name="uni0406" unicode="&#x406;" horiz-adv-x="282" 
d="M86 0v725h109v-725h-109z" />
    <glyph glyph-name="uni0407" unicode="&#x407;" horiz-adv-x="282" 
d="M86 0v725h109v-725h-109zM-34 862q0 29 20.5 48t52.5 19q31 0 51.5 -19t20.5 -48t-20.5 -48t-51.5 -19q-32 0 -52.5 19t-20.5 48zM181 862q0 29 20.5 48t52.5 19q31 0 51.5 -19t20.5 -48t-20.5 -48t-51.5 -19q-32 0 -52.5 19t-20.5 48z" />
    <glyph glyph-name="uni0408" unicode="&#x408;" horiz-adv-x="583" 
d="M499 219q0 -107 -65 -168t-174 -61q-108 0 -169 61q-62 62 -63 164v35l108 10v-44q0 -63 33.5 -95.5t92.5 -32.5q60 0 94.5 35t34.5 93v414h-332v95h440v-506z" />
    <glyph glyph-name="uni0409" unicode="&#x409;" horiz-adv-x="1145" 
d="M1091 215q0 -99 -65.5 -157t-174.5 -58h-259v629h-338v-477q0 -159 -164 -159q-41 0 -62 4v86h37q80 0 80 74v568h556v-299h150q113 0 176.5 -56t63.5 -155zM975 214q0 57 -36 89t-101 32h-137v-244h137q65 0 101 33t36 90z" />
    <glyph glyph-name="uni040A" unicode="&#x40a;" horiz-adv-x="1119" 
d="M1065 215q0 -99 -65.5 -157t-174.5 -58h-258v335h-372v-335h-109v725h109v-299h372v299h109v-299h149q113 0 176.5 -56t63.5 -155zM950 214q0 56 -36.5 88.5t-101.5 32.5h-136v-244h136q65 0 101.5 33t36.5 90z" />
    <glyph glyph-name="uni040B" unicode="&#x40b;" horiz-adv-x="707" 
d="M631 237v-237h-108v229q0 64 -33.5 97.5t-91.5 33.5q-66 0 -108.5 -43.5t-42.5 -114.5v-202h-108v630h-128v95h388v-95h-152l-1 -265q26 41 74.5 64t105.5 23q96 0 150.5 -58t54.5 -157z" />
    <glyph glyph-name="uni040C" unicode="&#x40c;" horiz-adv-x="674" 
d="M86 725h109v-322h22q50 0 78 18t50 61l74 141q28 57 69 84t108 27q35 0 62 -7v-90q-20 4 -42 4q-47 -2 -66 -17t-42 -55l-66 -118q-39 -69 -83 -90l302 -361h-140l-275 333q-16 -3 -51 -3v-330h-109v725zM267 833l186 128l44 -73l-196 -109z" />
    <glyph glyph-name="uni040D" unicode="&#x40d;" horiz-adv-x="773" 
d="M686 725v-725h-109v553l-381 -553h-110v725h109v-552l382 552h109zM197 889l45 73l185 -128l-34 -54z" />
    <glyph glyph-name="uni040E" unicode="&#x40e;" horiz-adv-x="644" 
d="M133 725l199 -358l193 358h121l-397 -725h-117l142 257l-263 468h122zM310 782q-69 0 -112 41t-43 107h71q0 -36 24 -59.5t60 -23.5t59.5 23.5t23.5 59.5h71q0 -66 -42.5 -107t-111.5 -41z" />
    <glyph glyph-name="uni040F" unicode="&#x40f;" horiz-adv-x="762" 
d="M675 0h-240v-118h-108v118h-241v725h109v-627h372v627h108v-725z" />
    <glyph glyph-name="uni0410" unicode="&#x410;" horiz-adv-x="735" 
d="M533 164h-334l-60 -164h-120l281 725h130l286 -725h-123zM501 251l-135 366l-135 -366h270z" />
    <glyph glyph-name="uni0411" unicode="&#x411;" horiz-adv-x="679" 
d="M86 725h469v-92h-362v-220h200q111 0 172 -55.5t61 -151.5q0 -98 -63 -152t-170 -54h-307v725zM378 88q65 0 99.5 31t34.5 88q0 58 -35 88t-99 30h-185v-237h185z" />
    <glyph glyph-name="uni0412" unicode="&#x412;" horiz-adv-x="703" 
d="M649 202q0 -92 -62 -147t-176 -55h-325v725h318q102 0 161 -52.5t59 -140.5q0 -50 -26 -92t-71 -65q57 -18 89.5 -64.5t32.5 -108.5zM193 411h184q67 0 101 30.5t34 85.5q0 52 -31 80t-88 28h-200v-224zM535 208q0 58 -34.5 88.5t-97.5 30.5h-210v-237h204
q67 0 102.5 31.5t35.5 86.5z" />
    <glyph glyph-name="uni0413" unicode="&#x413;" horiz-adv-x="530" 
d="M86 725h426v-95h-317v-630h-109v725z" />
    <glyph glyph-name="uni0414" unicode="&#x414;" horiz-adv-x="785" 
d="M744 94v-214h-108v120h-490v-120h-108v214q88 12 125 75t37 184v372h461v-631h83zM206 94h347v536h-249v-254q0 -114 -23.5 -181t-74.5 -101z" />
    <glyph glyph-name="uni0415" unicode="&#x415;" horiz-adv-x="658" 
d="M86 725h512v-98h-403v-218h373v-93h-373v-219h403v-97h-512v725z" />
    <glyph glyph-name="uni0416" unicode="&#x416;" horiz-adv-x="1012" 
d="M307 361q-26 13 -43.5 32t-37.5 58l-65 118q-16 28 -25 39.5t-29.5 21.5t-53.5 11q-24 0 -41 -4v90q27 7 61 7q66 0 107 -27t69 -84l69 -134q24 -47 50.5 -66t64.5 -19h18v321h109v-321h19q41 0 66 19t49 66l69 134q28 57 68.5 84t106.5 27q35 0 62 -7v-90q-20 4 -41 4
q-33 -1 -53.5 -11t-29.5 -21.5t-26 -39.5l-64 -118q-21 -39 -38.5 -58t-43.5 -32l297 -361h-136l-267 333q-12 -3 -38 -3v-330h-109v330q-25 0 -37 3l-267 -333h-137z" />
    <glyph glyph-name="uni0417" unicode="&#x417;" horiz-adv-x="629" 
d="M166 202q4 -55 43.5 -89t101.5 -34q69 0 111.5 37t42.5 96q0 55 -38 86.5t-99 31.5h-80v82h76q56 0 90.5 31t34.5 83q0 54 -36.5 86.5t-98.5 32.5q-61 0 -98.5 -32.5t-40.5 -88.5h-109q2 95 69 153t181 58q110 0 176.5 -55t66.5 -142q0 -55 -25.5 -97t-71.5 -64
q53 -19 83.5 -65.5t30.5 -108.5q0 -94 -72.5 -154t-190.5 -60q-114 0 -184 58.5t-73 154.5h110z" />
    <glyph glyph-name="uni0418" unicode="&#x418;" horiz-adv-x="773" 
d="M686 725v-725h-109v553l-381 -553h-110v725h109v-552l382 552h109z" />
    <glyph glyph-name="uni0419" unicode="&#x419;" horiz-adv-x="773" 
d="M234 929h71q0 -36 24 -59.5t60 -23.5t59.5 23.5t23.5 59.5h71q0 -66 -42.5 -107t-111.5 -41t-112 41t-43 107zM686 725v-725h-109v547l-381 -547h-110v725h109v-546l382 546h109z" />
    <glyph glyph-name="uni041A" unicode="&#x41a;" horiz-adv-x="674" 
d="M86 725h109v-322h22q50 0 78 18t50 61l74 141q28 57 69 84t108 27q35 0 62 -7v-90q-20 4 -42 4q-47 -2 -66 -17t-42 -55l-66 -118q-39 -69 -83 -90l302 -361h-140l-275 333q-16 -3 -51 -3v-330h-109v725z" />
    <glyph glyph-name="uni041B" unicode="&#x41b;" horiz-adv-x="788" 
d="M28 -3v86h37q80 0 80 74v568h556v-725h-108v629h-339v-477q0 -159 -164 -159q-41 0 -62 4z" />
    <glyph glyph-name="uni041C" unicode="&#x41c;" horiz-adv-x="939" 
d="M86 725h123l263 -420l259 420h121v-725h-108v222q0 158 8 352l-254 -406h-53l-257 406q7 -197 7 -352v-222h-109v725z" />
    <glyph glyph-name="uni041D" unicode="&#x41d;" horiz-adv-x="762" 
d="M86 725h109v-307h372v307h108v-725h-108v323h-372v-323h-109v725z" />
    <glyph glyph-name="uni041E" unicode="&#x41e;" horiz-adv-x="853" 
d="M426 736q163 2 269 -104t104 -269q2 -164 -104 -269.5t-269 -103.5q-164 0 -268 104t-104 269q-2 163 103.5 269t268.5 104zM426 90q114 0 186.5 76t72.5 197t-72.5 197t-186.5 76q-113 0 -185.5 -76.5t-72.5 -196.5q0 -121 72 -197t186 -76z" />
    <glyph glyph-name="uni041F" unicode="&#x41f;" horiz-adv-x="762" 
d="M86 725h589v-725h-108v625h-372v-625h-109v725z" />
    <glyph glyph-name="uni0420" unicode="&#x420;" horiz-adv-x="688" 
d="M650 493q0 -108 -71.5 -169t-193.5 -60h-190v-264h-109v725h299q122 0 193.5 -63.5t71.5 -168.5zM536 492q0 65 -41.5 99t-114.5 34h-185v-265h185q76 0 116 34.5t40 97.5z" />
    <glyph glyph-name="uni0421" unicode="&#x421;" horiz-adv-x="808" 
d="M415 735q132 0 225 -69t114 -182h-116q-20 71 -80 111t-142 40q-112 0 -180 -75t-68 -197q0 -123 67.5 -198t178.5 -75q83 0 143.5 41t80.5 110h116q-21 -113 -114 -182t-225 -69q-160 -2 -261.5 103t-99.5 270q0 166 100 269t261 103z" />
    <glyph glyph-name="uni0422" unicode="&#x422;" horiz-adv-x="602" 
d="M583 631h-227v-631h-109v631h-229v94h565v-94z" />
    <glyph glyph-name="uni0423" unicode="&#x423;" horiz-adv-x="657" 
d="M133 725l199 -358l193 358h121l-397 -725h-117l142 257l-263 468h122z" />
    <glyph glyph-name="uni0424" unicode="&#x424;" horiz-adv-x="835" 
d="M465 80v-80h-94v80q-149 6 -233 83t-84 200q0 127 85 200q86 75 232 83v79h94v-79q149 -7 232.5 -83.5t83.5 -199.5q0 -126 -85 -200.5t-231 -82.5zM671 363q0 82 -56 131t-154 53v-368q100 4 155 53.5t55 130.5zM374 179v368q-99 -4 -154.5 -53.5t-55.5 -130.5
q0 -83 56 -132t154 -52z" />
    <glyph glyph-name="uni0425" unicode="&#x425;" horiz-adv-x="705" 
d="M276 361l-255 364h132l200 -294l203 294h128l-252 -364l256 -361h-131l-205 286l-201 -286h-127z" />
    <glyph glyph-name="uni0426" unicode="&#x426;" horiz-adv-x="804" 
d="M82 725h109v-627h372v627h108v-627h92v-216h-108v118h-573v725z" />
    <glyph glyph-name="uni0427" unicode="&#x427;" horiz-adv-x="670" 
d="M587 725v-725h-109v292q-80 -41 -177 -41q-227 0 -227 231v243h108v-232q0 -74 37 -108t112 -34q74 0 147 37v337h109z" />
    <glyph glyph-name="uni0428" unicode="&#x428;" horiz-adv-x="1049" 
d="M86 725h109v-625h275v625h109v-625h274v625h109v-725h-876v725z" />
    <glyph glyph-name="uni0429" unicode="&#x429;" horiz-adv-x="1095" 
d="M86 725h109v-625h275v625h109v-627h274v627h109v-627h92v-216h-108v118h-860v725z" />
    <glyph glyph-name="uni042A" unicode="&#x42a;" horiz-adv-x="811" 
d="M766 230q0 -108 -66 -169q-64 -61 -174 -61h-285v630h-223v95h332v-267h176q112 0 176 -61.5t64 -166.5zM653 228q0 64 -36.5 99t-103.5 35h-163v-266h163q67 0 103.5 34.5t36.5 97.5z" />
    <glyph glyph-name="uni042B" unicode="&#x42b;" horiz-adv-x="895" 
d="M80 725h109v-267h176q112 0 176 -61.5t64 -166.5q0 -106 -66 -168t-174 -62h-285v725zM699 725h109v-725h-109v725zM352 96q66 0 102.5 34.5t36.5 97.5q0 64 -36.5 99t-102.5 35h-163v-266h163z" />
    <glyph glyph-name="uni042C" unicode="&#x42c;" horiz-adv-x="650" 
d="M612 230q0 -106 -66 -168t-174 -62h-286v725h109v-267h177q111 0 176 -62q64 -61 64 -166zM498 228q0 64 -36.5 99t-102.5 35h-164v-266h164q66 0 102.5 34.5t36.5 97.5z" />
    <glyph glyph-name="uni042D" unicode="&#x42d;" horiz-adv-x="807" 
d="M753 362q0 -174 -98.5 -273t-262.5 -99q-132 0 -223.5 68.5t-114.5 182.5h115q20 -69 80 -110t144 -41q108 0 172 61.5t73 172.5h-331v78h331q-9 111 -74 172t-173 61q-83 0 -142 -40t-80 -111h-115q23 113 115.5 182t224.5 69q166 0 262.5 -102t96.5 -271z" />
    <glyph glyph-name="uni042E" unicode="&#x42e;" horiz-adv-x="1124" 
d="M1070 363q2 -164 -104 -269.5t-269 -103.5q-153 0 -254.5 89.5t-116.5 237.5l-131 -1v-316h-109v725h109v-317h131q14 146 116 237t255 91q163 2 269 -104t104 -269zM956 363q0 121 -72.5 197t-186.5 76t-186.5 -76.5t-72.5 -196.5t72.5 -196.5t186.5 -76.5t186.5 76
t72.5 197z" />
    <glyph glyph-name="uni042F" unicode="&#x42f;" horiz-adv-x="712" 
d="M626 725v-725h-109v274h-214l-138 -274h-120l149 292q-67 24 -105.5 79t-38.5 130q0 103 65 163.5t181 60.5h330zM517 626h-209q-68 0 -106 -33t-38 -95t38.5 -97.5t108.5 -35.5h206v261z" />
    <glyph glyph-name="uni0430" unicode="&#x430;" 
d="M53 137q0 136 189 156l173 19v18q0 55 -32.5 84.5t-89.5 29.5q-59 0 -94 -27.5t-32 -73.5h-99q0 84 64.5 134.5t168.5 50.5q101 0 160 -55t59 -161v-312h-93l-6 96q-22 -47 -78 -76.5t-123 -29.5q-75 0 -121 40.5t-46 106.5zM415 225v20l-151 -19q-106 -13 -106 -80
q0 -34 24.5 -53.5t69.5 -19.5q70 0 116.5 48.5t46.5 103.5z" />
    <glyph glyph-name="uni0431" unicode="&#x431;" horiz-adv-x="646" 
d="M602 249q0 -115 -77.5 -187t-199.5 -72q-135 0 -208 91q-72 91 -72 249q0 187 98 296t271 109q92 0 163 -27v-92q-78 28 -159 28q-122 0 -195 -69.5t-84 -193.5q26 56 82 87.5t128 31.5q109 0 181 -70t72 -181zM495 250q0 76 -46.5 119.5t-122.5 43.5q-77 0 -123 -45.5
t-46 -120.5t46.5 -120.5t122.5 -45.5t122.5 46t46.5 123z" />
    <glyph glyph-name="uni0432" unicode="&#x432;" horiz-adv-x="560" 
d="M511 144q0 -64 -44 -104t-126 -40h-267v518h261q74 0 117.5 -38t43.5 -102q0 -75 -67 -111q38 -12 60 -45.5t22 -77.5zM175 302h133q41 0 63 19.5t22 52.5q0 31 -21.5 48.5t-57.5 17.5h-139v-138zM407 152q0 37 -25 55.5t-64 18.5h-143v-148h143q89 0 89 74z" />
    <glyph glyph-name="uni0433" unicode="&#x433;" horiz-adv-x="430" 
d="M81 518h327v-88h-223v-430h-104v518z" />
    <glyph glyph-name="uni0434" unicode="&#x434;" horiz-adv-x="683" 
d="M630 85v-195h-97v110h-377v-110h-97v195q120 24 120 170v263h374v-433h77zM190 85h261v347h-174v-172q0 -128 -87 -175z" />
    <glyph glyph-name="uni0435" unicode="&#x435;" horiz-adv-x="611" 
d="M566 154q-22 -77 -88.5 -120.5t-160.5 -43.5q-123 0 -197.5 74t-74.5 195q0 119 74 194t192 75q110 0 179.5 -65t69.5 -169q0 -12 -5 -44h-404v-12q0 -76 44.5 -119t121.5 -43q52 0 90.5 21t54.5 57h104zM154 322h298q1 51 -41 86q-41 35 -103 35q-60 0 -102 -33t-52 -88
z" />
    <glyph glyph-name="uni0436" unicode="&#x436;" horiz-adv-x="789" 
d="M223 250q-43 16 -63 64l-32 76q-18 48 -72 48q-15 0 -30 -3l-1 84q21 7 54 7q55 0 83 -21.5t47 -66.5l43 -97q25 -51 76 -51h15v228h103v-228h15q55 0 76 51l43 97q19 45 47 66.5t83 21.5q33 0 54 -7l-1 -84q-15 3 -30 3q-31 0 -46.5 -11t-25.5 -37l-32 -76
q-21 -49 -63 -65l195 -249h-117l-183 240h-15v-240h-103v240h-15l-183 -240h-117z" />
    <glyph glyph-name="uni0437" unicode="&#x437;" horiz-adv-x="506" 
d="M151 148q3 -34 30 -55t71 -21q47 0 73.5 22t26.5 59q0 36 -25.5 56.5t-66.5 20.5h-63v69h58q39 0 63 20t24 54t-23.5 53t-64.5 19q-42 0 -68 -19.5t-27 -54.5h-98q1 71 54 113t141 42q85 0 136.5 -39t51.5 -103q0 -39 -19.5 -69.5t-52.5 -44.5q41 -14 63 -46.5t22 -77.5
q0 -70 -55.5 -112.5t-147.5 -42.5q-91 0 -145.5 42t-57.5 115h100z" />
    <glyph glyph-name="uni0438" unicode="&#x438;" horiz-adv-x="606" 
d="M530 518v-518h-103v359l-248 -359h-103v518h104v-361l248 361h102z" />
    <glyph glyph-name="uni0439" unicode="&#x439;" horiz-adv-x="610" 
d="M530 518v-518h-103v359l-248 -359h-103v518h104v-361l248 361h102zM308 574q-69 0 -112 41t-43 107h71q0 -36 24 -59.5t60 -23.5t59.5 23.5t23.5 59.5h71q0 -66 -42.5 -107t-111.5 -41z" />
    <glyph glyph-name="uni043A" unicode="&#x43a;" horiz-adv-x="552" 
d="M81 518h104v-229h15q57 0 86 60l44 89q39 88 136 88q31 0 52 -7v-88q-18 3 -28 3q-30 0 -45.5 -11.5t-28.5 -38.5l-39 -68q-26 -48 -63 -63l214 -253h-134l-184 221l-25 -1v-220h-104v518z" />
    <glyph glyph-name="uni043B" unicode="&#x43b;" horiz-adv-x="604" 
d="M23 -3v82q5 -1 27 -1q54 0 54 48v392h419v-518h-104v427h-209v-307q0 -127 -131 -127q-36 0 -56 4z" />
    <glyph glyph-name="uni043C" unicode="&#x43c;" horiz-adv-x="727" 
d="M81 518h119l168 -284l162 284h121v-518h-101v131q0 110 4 249l-183 -305h-8l-186 303q5 -150 5 -247v-131h-101v518z" />
    <glyph glyph-name="uni043D" unicode="&#x43d;" horiz-adv-x="598" 
d="M522 518v-518h-104v215h-233v-215h-104v518h104v-215h233v215h104z" />
    <glyph glyph-name="uni043E" unicode="&#x43e;" horiz-adv-x="650" 
d="M325 528q122 0 201 -75t79 -194t-79 -194t-201 -75q-123 0 -201.5 74.5t-78.5 194.5t78.5 194.5t201.5 74.5zM326 81q78 0 125 48.5t47 129.5t-47 129.5t-125 48.5q-79 0 -126.5 -49t-47.5 -130t47.5 -129t126.5 -48z" />
    <glyph glyph-name="uni043F" unicode="&#x43f;" horiz-adv-x="598" 
d="M81 518h441v-518h-104v430h-233v-430h-104v518z" />
    <glyph glyph-name="uni0440" unicode="&#x440;" horiz-adv-x="685" 
d="M640 261q0 -122 -73.5 -196.5t-191.5 -74.5q-126 0 -190 79v-269h-104v718h93l7 -81q29 42 82.5 66.5t118.5 24.5q114 0 186 -74t72 -193zM533 259q0 82 -46.5 131t-124.5 49q-79 0 -128 -46.5t-49 -126.5v-13q0 -78 48 -126t127 -48t126 48t47 132z" />
    <glyph glyph-name="uni0441" unicode="&#x441;" horiz-adv-x="616" 
d="M314 528q100 0 170 -52q70 -51 87 -134h-106q-15 44 -55.5 69t-95.5 25q-74 0 -118 -48.5t-44 -128.5q0 -81 44 -129.5t119 -48.5q56 0 95.5 25.5t54.5 68.5h106q-17 -85 -86 -135q-71 -50 -169 -50q-120 0 -195.5 74.5t-75.5 194.5t75.5 194.5t193.5 74.5z" />
    <glyph glyph-name="uni0442" unicode="&#x442;" horiz-adv-x="486" 
d="M19 518h448v-88h-172v-430h-104v430h-172v88z" />
    <glyph glyph-name="uni0443" unicode="&#x443;" horiz-adv-x="617" 
d="M540 518v-517q0 -97 -65.5 -154t-176.5 -57q-104 0 -165 47t-66 131h103q4 -45 38 -69.5t89 -24.5q66 0 102.5 32.5t36.5 89.5v128q-53 -86 -170 -86q-92 0 -142 54t-50 150v276h104v-263q0 -64 30.5 -96t86.5 -32q65 0 103 40.5t38 103.5v247h104z" />
    <glyph glyph-name="uni0444" unicode="&#x444;" horiz-adv-x="736" 
d="M418 -8v-192h-99v192q-129 11 -201.5 82t-72.5 185t72.5 184t201.5 82v200h99v-200q129 -12 201.5 -83t72.5 -184q0 -114 -72.5 -184t-201.5 -82zM589 259q0 78 -47 123.5t-134 53.5v-354q87 8 134 54t47 123zM328 82v354q-88 -9 -134.5 -55t-46.5 -123t47 -122.5
t134 -53.5z" />
    <glyph glyph-name="uni0445" unicode="&#x445;" horiz-adv-x="549" 
d="M203 259l-185 259h119l136 -194l139 194h117l-187 -259l190 -259h-119l-141 193l-139 -193h-116z" />
    <glyph glyph-name="uni0446" unicode="&#x446;" horiz-adv-x="644" 
d="M81 518h104v-431h233v431h104v-431h77v-197h-96v110h-422v518z" />
    <glyph glyph-name="uni0447" unicode="&#x447;" horiz-adv-x="573" 
d="M496 518v-518h-104v184q-70 -34 -138 -34q-93 0 -140 49.5t-47 140.5v178h104v-174q0 -106 113 -106q57 0 108 24v256h104z" />
    <glyph glyph-name="uni0448" unicode="&#x448;" horiz-adv-x="858" 
d="M81 518h103v-431h196v431h103v-431h196v431h103v-518h-701v518z" />
    <glyph glyph-name="uni0449" unicode="&#x449;" horiz-adv-x="904" 
d="M81 518h103v-431h196v431h103v-431h196v431h103v-431h77v-197h-96v110h-682v518z" />
    <glyph glyph-name="uni044A" unicode="&#x44a;" horiz-adv-x="590" 
d="M559 165q0 -73 -49.5 -119t-130.5 -46h-233v431h-123v87h230v-188h126q81 0 130.5 -45.5t49.5 -119.5zM447 166q0 38 -24.5 60t-65.5 22h-104v-164h103q42 0 66.5 22t24.5 60z" />
    <glyph glyph-name="uni044B" unicode="&#x44b;" horiz-adv-x="757" 
d="M81 518h107v-188h125q82 0 131 -45.5t49 -119.5q0 -73 -49.5 -119t-130.5 -46h-232v518zM569 518h108v-518h-108v518zM291 84q42 0 66.5 22t24.5 60t-24.5 60t-66.5 22h-103v-164h103z" />
    <glyph glyph-name="uni044C" unicode="&#x44c;" horiz-adv-x="529" 
d="M184 518v-188h126q81 0 130.5 -45.5t49.5 -119.5q0 -73 -49.5 -119t-130.5 -46h-229v518h103zM184 84h103q42 0 67 22t25 60t-24.5 60t-66.5 22h-104v-164z" />
    <glyph glyph-name="uni044D" unicode="&#x44d;" horiz-adv-x="613" 
d="M570 259q0 -120 -75.5 -194.5t-195.5 -74.5q-98 0 -169 50q-69 50 -86 135h106q15 -43 54.5 -68.5t95.5 -25.5q66 0 109 39t52 106h-217v66h217q-9 66 -51.5 105t-108.5 39q-55 0 -95.5 -25t-55.5 -69h-106q17 84 86 134q70 52 171 52q118 0 193.5 -74.5t75.5 -194.5z
" />
    <glyph glyph-name="uni044E" unicode="&#x44e;" horiz-adv-x="866" 
d="M822 259q0 -119 -79 -194t-202 -75q-111 0 -187.5 62.5t-89.5 164.5h-84v-217h-99v518h99v-217h84q13 102 89.5 164.5t187.5 62.5q123 0 202 -75t79 -194zM715 259q0 81 -47.5 129.5t-125.5 48.5q-79 0 -126.5 -49t-47.5 -130t47.5 -129t126.5 -48t126 49t47 129z" />
    <glyph glyph-name="uni044F" unicode="&#x44f;" horiz-adv-x="556" 
d="M481 518v-518h-107v185h-82l-154 -185h-121l165 197q-67 8 -107 50.5t-40 108.5q0 73 50.5 117.5t136.5 44.5h259zM374 429h-136q-41 0 -66.5 -22t-25.5 -58q0 -39 24.5 -61t66.5 -22h137v163z" />
    <glyph glyph-name="uni0450" unicode="&#x450;" horiz-adv-x="611" 
d="M566 154q-22 -77 -88.5 -120.5t-160.5 -43.5q-123 0 -197.5 74t-74.5 195q0 119 74 194t192 75q110 0 179.5 -65t69.5 -169q0 -12 -5 -44h-404v-12q0 -76 44.5 -119t121.5 -43q52 0 90.5 21t54.5 57h104zM154 322h298q1 51 -41 86q-41 35 -103 35q-60 0 -102 -33t-52 -88
zM122 682l45 73l185 -128l-34 -54z" />
    <glyph glyph-name="uni0451" unicode="&#x451;" horiz-adv-x="611" 
d="M566 154q-22 -77 -88.5 -120.5t-160.5 -43.5q-123 0 -197.5 74t-74.5 195q0 119 74 194t192 75q110 0 179.5 -65t69.5 -169q0 -12 -5 -44h-404v-12q0 -76 44.5 -119t121.5 -43q52 0 90.5 21t54.5 57h104zM154 322h298q1 51 -41 86q-41 35 -103 35q-60 0 -102 -33t-52 -88
zM140 655q0 29 20.5 48t52.5 19q31 0 51.5 -19t20.5 -48t-20.5 -48t-51.5 -19q-32 0 -52.5 19t-20.5 48zM355 655q0 29 20.5 48t52.5 19q31 0 51.5 -19t20.5 -48t-20.5 -48t-51.5 -19q-32 0 -52.5 19t-20.5 48z" />
    <glyph glyph-name="uni0452" unicode="&#x452;" horiz-adv-x="652" 
d="M576 296v-290q0 -101 -51.5 -157.5t-142.5 -56.5q-30 0 -67 8v79q15 -3 33 -3q126 0 124 130v290q-1 142 -115 142q-65 0 -103.5 -43t-38.5 -114v-281h-104v603h-88v68h88v79h104v-79h163v-68h-163l-1 -163q24 42 70 65t103 23q92 0 140.5 -59t48.5 -173z" />
    <glyph glyph-name="uni0453" unicode="&#x453;" horiz-adv-x="430" 
d="M81 518h327v-88h-223v-430h-104v518zM146 627l186 128l44 -73l-196 -109z" />
    <glyph glyph-name="uni0454" unicode="&#x454;" horiz-adv-x="613" 
d="M465 175h106q-17 -85 -86 -135q-71 -50 -169 -50q-120 0 -195.5 74.5t-75.5 194.5t75.5 194.5t193.5 74.5q100 0 170 -52q70 -51 87 -134h-106q-15 44 -55.5 69t-95.5 25q-66 0 -108.5 -39t-51.5 -105h215v-66h-215q9 -67 52 -106t109 -39q56 0 95.5 25.5t54.5 68.5z" />
    <glyph glyph-name="uni0455" unicode="&#x455;" horiz-adv-x="532" 
d="M51 155h99q3 -41 35 -63.5t86 -22.5q51 0 79 20t28 55q0 55 -69 68l-98 17q-153 25 -153 141q0 71 56 114.5t148 43.5q91 0 148 -43.5t60 -115.5h-96q-2 38 -32 59t-79 21q-46 0 -73.5 -19t-27.5 -52q0 -50 75 -62l106 -18q69 -12 104.5 -50t35.5 -95q0 -73 -58.5 -118
t-153.5 -45q-97 0 -156.5 45t-63.5 120z" />
    <glyph glyph-name="uni0456" unicode="&#x456;" horiz-adv-x="265" 
d="M58 701q0 30 20.5 48t55.5 18q33 0 53.5 -19t20.5 -47q0 -30 -20.5 -49t-53.5 -19q-35 0 -55.5 19t-20.5 49zM81 518h105v-518h-105v518z" />
    <glyph glyph-name="uni0457" unicode="&#x457;" horiz-adv-x="269" 
d="M83 518h103v-518h-103v518zM-40 655q0 29 20.5 48t52.5 19q31 0 51.5 -19t20.5 -48t-20.5 -48t-51.5 -19q-32 0 -52.5 19t-20.5 48zM175 655q0 29 20.5 48t52.5 19q31 0 51.5 -19t20.5 -48t-20.5 -48t-51.5 -19q-32 0 -52.5 19t-20.5 48z" />
    <glyph glyph-name="uni0458" unicode="&#x458;" horiz-adv-x="277" 
d="M67 701q0 28 21.5 47t54.5 19q34 0 54.5 -18.5t20.5 -47.5q0 -30 -20 -49t-55 -19t-55.5 19t-20.5 49zM-74 -200v80h47q62 0 88 25t26 77v536h104v-539q0 -94 -49 -140.5t-138 -46.5q-35 0 -78 8z" />
    <glyph glyph-name="uni0459" unicode="&#x459;" horiz-adv-x="861" 
d="M821 165q0 -73 -49.5 -119t-130.5 -46h-222v429h-209v-309q0 -127 -131 -127q-36 0 -56 4v82q5 -1 27 -1q54 0 54 48v392h416v-188h121q81 0 130.5 -45.5t49.5 -119.5zM710 166q0 38 -24.5 60t-66.5 22h-99v-164h99q42 0 66.5 22t24.5 60z" />
    <glyph glyph-name="uni045A" unicode="&#x45a;" horiz-adv-x="863" 
d="M81 518h104v-215h233v215h104v-188h121q81 0 130.5 -45.5t49.5 -119.5q0 -73 -49.5 -119t-130.5 -46h-225v215h-233v-215h-104v518zM621 84q42 0 66.5 22t24.5 60t-24.5 60t-66.5 22h-99v-164h99z" />
    <glyph glyph-name="uni045B" unicode="&#x45b;" horiz-adv-x="652" 
d="M576 326v-326h-104v316q0 60 -30 91t-85 31q-65 0 -103.5 -43t-38.5 -114v-281h-104v606h-88v68h88v76h104v-76h163v-68h-163l-1 -166q24 42 69.5 65t102.5 23q91 0 140.5 -52.5t49.5 -149.5z" />
    <glyph glyph-name="uni045C" unicode="&#x45c;" horiz-adv-x="552" 
d="M81 518h104v-229h15q57 0 86 60l44 89q39 88 136 88q31 0 52 -7v-88q-18 3 -28 3q-30 0 -45.5 -11.5t-28.5 -38.5l-39 -68q-26 -48 -63 -63l214 -253h-134l-184 221l-25 -1v-220h-104v518zM190 628l186 128l44 -73l-196 -109z" />
    <glyph glyph-name="uni045D" unicode="&#x45d;" horiz-adv-x="606" 
d="M530 518v-518h-103v359l-248 -359h-103v518h104v-361l248 361h102zM131 683l45 73l185 -128l-34 -54z" />
    <glyph glyph-name="uni045E" unicode="&#x45e;" horiz-adv-x="617" 
d="M540 518v-517q0 -97 -65.5 -154t-176.5 -57q-104 0 -165 47t-66 131h103q4 -45 38 -69.5t89 -24.5q66 0 102.5 32.5t36.5 89.5v128q-53 -86 -170 -86q-92 0 -142 54t-50 150v276h104v-263q0 -64 30.5 -96t86.5 -32q65 0 103 40.5t38 103.5v247h104zM307 574
q-69 0 -112 41t-43 107h71q0 -36 24 -59.5t60 -23.5t59.5 23.5t23.5 59.5h71q0 -66 -42.5 -107t-111.5 -41z" />
    <glyph glyph-name="uni045F" unicode="&#x45f;" horiz-adv-x="599" 
d="M522 0h-172v-110h-96v110h-173v518h104v-431h233v431h104v-518z" />
    <glyph glyph-name="uni0462" unicode="&#x462;" horiz-adv-x="756" 
d="M702 227q0 -105 -66 -166q-64 -61 -174 -61h-285v632h-159v93h439v-93h-171v-180h176q112 0 176 -60.5t64 -164.5zM589 227q0 62 -36.5 96.5t-103.5 34.5h-163v-262h163q67 0 103.5 34.5t36.5 96.5z" />
    <glyph glyph-name="uni0463" unicode="&#x463;" 
d="M550 165q0 -73 -49.5 -119t-130.5 -46h-230v489h-117v72h117v189h105v-189h130v-72h-130v-159h125q81 0 130.5 -45.5t49.5 -119.5zM438 166q0 38 -24.5 60t-65.5 22h-103v-164h103q41 0 65.5 22t24.5 60z" />
    <glyph glyph-name="uni0464" unicode="&#x464;" horiz-adv-x="1062" 
d="M892 241h116q-21 -113 -114 -182t-225 -69q-150 0 -247.5 89.5t-111.5 237.5h-115v-317h-109v725h109v-317h115q14 148 111.5 237.5t247.5 89.5q132 0 225 -69t114 -182h-116q-20 71 -80 111t-142 40q-104 0 -169.5 -62.5t-76.5 -170.5h340v-78h-340q11 -109 76 -171
q68 -63 168 -63q83 0 143.5 41t80.5 110z" />
    <glyph glyph-name="uni0465" unicode="&#x465;" horiz-adv-x="813" 
d="M664 175h107q-17 -84 -87 -135q-71 -50 -169 -50q-108 0 -182 62.5t-86 164.5h-67v-217h-99v518h99v-217h67q12 102 85.5 164.5t181.5 62.5q99 0 170.5 -51.5t86.5 -134.5h-107q-15 44 -55.5 69t-95.5 25q-66 0 -108.5 -39t-51.5 -105h215v-66h-215q9 -67 52 -106
t109 -39q56 0 95.5 25.5t54.5 68.5z" />
    <glyph glyph-name="uni0466" unicode="&#x466;" horiz-adv-x="735" 
d="M533 164h-119v-164h-91v164h-124l-60 -164h-120l281 725h130l286 -725h-123zM501 251l-135 366l-135 -366h270z" />
    <glyph glyph-name="uni0467" unicode="&#x467;" horiz-adv-x="547" 
d="M388 100h-86v-100h-65v100h-80l-36 -100h-108l200 518h121l200 -518h-110zM362 174l-89 248l-90 -248h179z" />
    <glyph glyph-name="uni0468" unicode="&#x468;" horiz-adv-x="999" 
d="M797 164h-119v-164h-91v164h-124l-60 -164h-120l64 165h-152v-165h-109v725h109v-472h186l183 472h130l286 -725h-123zM765 251l-135 366l-135 -366h270z" />
    <glyph glyph-name="uni0469" unicode="&#x469;" horiz-adv-x="777" 
d="M81 518h99v-338h126l132 338h120l201 -518h-111l-38 106h-85l3 -106h-69l3 106h-78l-38 -106h-109l42 108h-99v-108h-99v518zM585 180l-88 241l-88 -241h176z" />
    <glyph glyph-name="uni046A" unicode="&#x46a;" horiz-adv-x="806" 
d="M115 248q25 69 59 101.5t90 40.5l-217 248v87h716v-87l-217 -248q58 -8 91 -41t58 -101l94 -248h-113l-80 220q-23 62 -48.5 85.5t-67.5 23.5h-21v-329h-109v329h-20q-42 0 -67.5 -23.5t-48.5 -85.5l-81 -220h-112zM381 400h48l204 238h-457z" />
    <glyph glyph-name="uni046B" unicode="&#x46b;" horiz-adv-x="665" 
d="M95 178q21 53 47 75t74 26l-146 161v78h525v-78l-146 -161q47 -4 74 -26.5t47 -74.5l72 -178h-103l-63 154q-16 38 -33.5 53.5t-43.5 15.5h-15v-223h-103v223h-15q-26 0 -43.5 -15t-34.5 -54l-62 -154h-103zM324 286h17l132 154h-282z" />
    <glyph glyph-name="uni046C" unicode="&#x46c;" horiz-adv-x="1041" 
d="M1025 0h-113l-80 220q-24 61 -50 85t-66 24h-21v-329h-109v329h-21q-40 0 -66 -24t-50 -85l-80 -220h-113l94 248q18 47 36 73h-191v-321h-109v725h109v-317h289l-201 230v87h715v-87l-217 -248q58 -8 91 -41t59 -101zM869 638h-457l205 -238h47z" />
    <glyph glyph-name="uni046D" unicode="&#x46d;" horiz-adv-x="886" 
d="M856 0h-103l-63 154q-16 38 -33.5 53.5t-43.5 15.5h-15v-223h-103v223h-15q-26 0 -43.5 -15t-34.5 -54l-62 -154h-103l72 178q10 25 20 43h-149v-221h-99v518h99v-240h240l10 1l-146 161v78h525v-78l-146 -161q47 -4 74 -26.5t47 -74.5zM687 440h-282l133 -154h17z" />
    <glyph glyph-name="uni0472" unicode="&#x472;" horiz-adv-x="853" 
d="M799 363q2 -164 -104 -269.5t-269 -103.5q-164 0 -268 104t-104 269q-2 163 103.5 269t268.5 104q163 2 269 -104t104 -269zM170 403h513q-12 105 -82.5 169t-174.5 64q-103 0 -173.5 -64.5t-82.5 -168.5zM683 324h-513q12 -106 82 -170t174 -64t174.5 64t82.5 170z" />
    <glyph glyph-name="uni0473" unicode="&#x473;" horiz-adv-x="647" 
d="M605 259q0 -119 -79 -194t-201 -75q-123 0 -201.5 74.5t-78.5 194.5t78.5 194.5t201.5 74.5q122 0 201 -75t79 -194zM155 293h341q-10 67 -55.5 105.5t-114.5 38.5t-115 -39t-56 -105zM496 226h-342q10 -67 56 -106t116 -39q69 0 114.5 39t55.5 106z" />
    <glyph glyph-name="uni0474" unicode="&#x474;" horiz-adv-x="762" 
d="M138 725l220 -615l172 477q30 86 66.5 117t108.5 31q33 0 56 -6v-101q-11 4 -32 4q-40 0 -59.5 -19.5t-38.5 -70.5l-204 -542h-136l-277 725h124z" />
    <glyph glyph-name="uni0475" unicode="&#x475;" horiz-adv-x="577" 
d="M124 518l144 -424l111 323q20 60 50 84t82 24q28 0 45 -4v-89q-9 3 -21 3q-28 0 -42 -13.5t-25 -43.5l-141 -378h-117l-195 518h109z" />
    <glyph glyph-name="uni0476" unicode="&#x476;" horiz-adv-x="762" 
d="M328 939l66 48l122 -180l-51 -37zM139 919l59 57l142 -167l-45 -41zM138 725l220 -615l172 477q30 86 66.5 117t108.5 31q33 0 56 -6v-101q-11 4 -32 4q-40 0 -59.5 -19.5t-38.5 -70.5l-204 -542h-136l-277 725h124z" />
    <glyph glyph-name="uni0477" unicode="&#x477;" horiz-adv-x="577" 
d="M243 744l66 48l122 -180l-51 -36zM54 725l59 57l142 -167l-45 -42zM124 518l144 -424l111 323q20 60 50 84t82 24q28 0 45 -4v-89q-9 3 -21 3q-28 0 -42 -13.5t-25 -43.5l-141 -378h-117l-195 518h109z" />
    <glyph glyph-name="uni0478" unicode="&#x478;" horiz-adv-x="1422" 
d="M426 736q163 2 269 -104t104 -269q2 -164 -104 -269.5t-269 -103.5q-164 0 -268 104t-104 269q-2 163 103.5 269t268.5 104zM426 90q114 0 186.5 76t72.5 197t-72.5 197t-186.5 76q-113 0 -185.5 -76.5t-72.5 -196.5q0 -121 72 -197t186 -76zM957 518l147 -410l120 321
q21 54 50.5 75.5t80.5 21.5q26 0 46 -4v-89q-11 3 -22 3q-28 0 -43.5 -13.5t-27.5 -43.5l-230 -579h-105l74 198l-203 520h113z" />
    <glyph glyph-name="uni0479" unicode="&#x479;" horiz-adv-x="1196" 
d="M325 528q122 0 201 -75t79 -194t-79 -194t-201 -75q-123 0 -201.5 74.5t-78.5 194.5t78.5 194.5t201.5 74.5zM730 518l148 -410l120 321q20 54 50 75.5t81 21.5q28 0 45 -4v-89q-9 3 -21 3q-28 0 -43 -13.5t-28 -43.5l-230 -579h-106l75 198l-203 520h112zM326 81
q78 0 125 48.5t47 129.5t-47 129.5t-125 48.5q-79 0 -126.5 -49t-47.5 -130t47.5 -129t126.5 -48z" />
    <glyph glyph-name="uni0488" unicode="&#x488;" horiz-adv-x="600" 
 />
    <glyph glyph-name="uni0489" unicode="&#x489;" horiz-adv-x="600" 
 />
    <glyph glyph-name="uni048A" unicode="&#x48a;" horiz-adv-x="784" 
d="M234 929h71q0 -36 24 -59.5t60 -23.5t59.5 23.5t23.5 59.5h71q0 -66 -42.5 -107t-111.5 -41t-112 41t-43 107zM741 86l-29 -209h-92l17 123h-60v547l-381 -547h-110v725h109v-546l382 546h109v-639h55z" />
    <glyph glyph-name="uni048B" unicode="&#x48b;" horiz-adv-x="624" 
d="M154 722h71q0 -36 23.5 -59t59.5 -23t60 23t24 59h70q0 -66 -42.5 -107t-111.5 -41t-111.5 41t-42.5 107zM591 93l-29 -203h-87l15 110h-63v359l-248 -359h-103v518h104v-361l248 361h102v-425h61z" />
    <glyph glyph-name="uni048C" unicode="&#x48c;" horiz-adv-x="705" 
d="M667 232q0 -105 -71.5 -168.5t-193.5 -63.5h-299v569h-93v63h93v93h109v-93h180v-63h-180v-108h190q122 1 193.5 -60t71.5 -169zM553 233q0 63 -40 97.5t-116 34.5h-185v-265h185q73 0 114.5 34t41.5 99z" />
    <glyph glyph-name="uni048D" unicode="&#x48d;" horiz-adv-x="578" 
d="M533 165q0 -73 -49.5 -119t-130.5 -46h-229v459h-101v72h101v219h104v-219h147v-72h-147v-129h125q82 0 131 -45.5t49 -119.5zM422 166q0 38 -24.5 60t-66.5 22h-103v-164h103q42 0 66.5 22t24.5 60z" />
    <glyph glyph-name="uni048E" unicode="&#x48e;" horiz-adv-x="688" 
d="M510 284l57 -114l-61 -32l-65 129q-27 -3 -56 -3h-190v-264h-109v725h299q122 0 193.5 -63.5t71.5 -168.5q0 -76 -36.5 -130t-103.5 -79zM536 492q0 65 -41.5 99t-114.5 34h-185v-265h185h14l-48 96l62 32l56 -113q72 31 72 117z" />
    <glyph glyph-name="uni048F" unicode="&#x48f;" horiz-adv-x="684" 
d="M520 28l45 -89l-59 -30l-47 92q-42 -11 -84 -11q-126 0 -190 79v-269h-104v718h93l7 -81q29 42 82.5 66.5t118.5 24.5q114 0 186 -74t72 -193q0 -78 -31.5 -138.5t-88.5 -94.5zM533 259q0 82 -46.5 131t-124.5 49q-79 0 -128 -46.5t-49 -126.5v-13q0 -78 48 -126t127 -48
q34 0 56 7l-53 106l59 30l53 -105q58 49 58 142z" />
    <glyph glyph-name="uni0490" unicode="&#x490;" horiz-adv-x="531" 
d="M506 828v-198h-316v-630h-109v725h333v103h92z" />
    <glyph glyph-name="uni0491" unicode="&#x491;" horiz-adv-x="436" 
d="M415 625v-195h-230v-430h-104v518h246v107h88z" />
    <glyph glyph-name="uni0492" unicode="&#x492;" horiz-adv-x="624" 
d="M262 630v-227h280v-86h-280v-317h-109v317h-83v86h83v322h426v-95h-317z" />
    <glyph glyph-name="uni0493" unicode="&#x493;" horiz-adv-x="435" 
d="M190 430v-144h162v-77h-162v-209h-104v209h-63v77h63v232h328v-88h-224z" />
    <glyph glyph-name="uni0494" unicode="&#x494;" horiz-adv-x="658" 
d="M578 235v-227q0 -100 -52.5 -158t-145.5 -58q-32 0 -66 8v83q14 -3 32 -3q67 0 95.5 33t28.5 97v220q0 63 -32.5 96.5t-90.5 33.5q-68 0 -110.5 -44t-42.5 -114v-202h-108v725h389v-87h-281l-1 -273q59 87 184 87q95 0 148 -57.5t53 -159.5z" />
    <glyph glyph-name="uni0495" unicode="&#x495;" horiz-adv-x="634" 
d="M589 89q0 -112 -70.5 -179.5t-186.5 -67.5q-35 0 -64 7v82q28 -5 49 -5q74 0 119 44.5t45 116.5q0 68 -40 109.5t-106 41.5q-61 0 -99 -35.5t-38 -95.5v-107h-105v518h326v-94h-221l-1 -168q52 73 163 73q103 0 166 -66.5t63 -173.5z" />
    <glyph glyph-name="uni0496" unicode="&#x496;" horiz-adv-x="1021" 
d="M1006 0v-123h-95v123h-41l-267 333q-12 -3 -38 -3v-330h-109v330q-26 0 -38 3l-267 -333h-136l297 361q-26 13 -43.5 32t-38.5 58l-64 118q-16 28 -25 39.5t-29.5 21.5t-53.5 11q-22 0 -42 -4v90q27 7 62 7q67 0 107.5 -27t67.5 -84l70 -134q24 -47 50.5 -66t63.5 -19h19
v321h109v-321h19q40 0 65 19t49 66l70 134q27 57 67.5 84t107.5 27q35 0 62 -7v-90q-20 4 -42 4q-47 -2 -66 -17t-42 -55l-64 -118q-21 -39 -38.5 -58t-43.5 -32z" />
    <glyph glyph-name="uni0497" unicode="&#x497;" horiz-adv-x="804" 
d="M776 94v-204h-85v110h-47l-183 240h-15v-240h-103v240h-15l-183 -240h-117l195 250q-43 16 -63 64l-32 76q-18 48 -72 48q-15 0 -30 -3l-1 84q21 7 54 7q55 0 83 -21.5t47 -66.5l43 -97q25 -51 76 -51h15v228h103v-228h15q55 0 76 51l43 97q19 45 47 66.5t83 21.5
q33 0 54 -7l-1 -84q-15 3 -30 3q-31 0 -46.5 -11t-25.5 -37l-32 -76q-21 -49 -63 -65l125 -160v5h85z" />
    <glyph glyph-name="uni0498" unicode="&#x498;" horiz-adv-x="629" 
d="M355 -9l-21 -32q36 2 60.5 -16.5t24.5 -55.5q0 -38 -29 -59t-74 -21q-46 0 -78 20v50q25 -20 64 -20q53 0 53 35q0 32 -47 32q-22 0 -42 -7v23l29 49q-106 4 -171 62q-63 58 -68 151h110q4 -55 43.5 -89t101.5 -34q69 0 111.5 37t42.5 96q0 55 -38 86.5t-99 31.5h-80v82
h76q56 0 90.5 31t34.5 83q0 54 -36.5 86.5t-98.5 32.5q-61 0 -98.5 -32.5t-40.5 -88.5h-109q2 95 69 153t181 58q110 0 176.5 -55t66.5 -142q0 -55 -25.5 -97t-71.5 -64q53 -19 83.5 -65.5t30.5 -108.5q0 -85 -60 -144q-59 -57 -161 -68z" />
    <glyph glyph-name="uni0499" unicode="&#x499;" horiz-adv-x="506" 
d="M289 -7l-17 -28q35 2 60 -17t25 -56q0 -38 -29.5 -59t-74.5 -21q-48 0 -77 20v50q25 -20 64 -20q53 0 53 35q0 32 -48 32q-19 0 -41 -6v23l27 46q-81 5 -129 46.5t-51 109.5h100q3 -34 30 -55t71 -21q47 0 73.5 22t26.5 59q0 36 -25.5 56.5t-66.5 20.5h-63v69h58
q39 0 63 20t24 54t-23.5 53t-64.5 19q-42 0 -68 -19.5t-27 -54.5h-98q1 71 54 113t141 42q85 0 136.5 -39t51.5 -103q0 -39 -19.5 -69.5t-52.5 -44.5q41 -14 63 -46.5t22 -77.5q0 -64 -45 -104.5t-123 -48.5z" />
    <glyph glyph-name="uni049A" unicode="&#x49a;" horiz-adv-x="697" 
d="M668 0v-118h-101v118h-46l-275 333q-16 -3 -51 -3v-330h-109v725h109v-322h22q50 0 78 18t50 61l74 141q28 57 69 84t108 27q35 0 62 -7v-90q-20 4 -42 4q-47 -2 -66 -17t-42 -55l-66 -118q-39 -69 -83 -90l302 -361h7z" />
    <glyph glyph-name="uni049B" unicode="&#x49b;" horiz-adv-x="560" 
d="M535 93v-203h-84v110h-57l-184 221l-25 -1v-220h-104v518h104v-229h15q57 0 86 60l44 89q39 88 136 88q31 0 52 -7v-88q-18 3 -28 3q-30 0 -45.5 -11.5t-28.5 -38.5l-39 -68q-26 -48 -63 -63l137 -162v2h84z" />
    <glyph glyph-name="uni049C" unicode="&#x49c;" horiz-adv-x="698" 
d="M531 0l-266 331v-128h-31v128q-8 -1 -39 -1v-330h-109v725h109v-322h32h7v115h31v-112q30 6 51 24t39 52l74 141q28 57 69 84t108 27q35 0 62 -7v-90q-20 4 -42 4q-47 -2 -66 -17t-42 -55l-66 -118q-37 -66 -79 -88l298 -363h-140z" />
    <glyph glyph-name="uni049D" unicode="&#x49d;" horiz-adv-x="572" 
d="M548 0h-130l-172 221h-2v-85h-34v84h-25v-220h-104v518h104v-229h25v74h34v-71q38 9 62 57l44 89q39 88 136 88q31 0 52 -7v-88q-18 3 -28 3q-30 0 -45.5 -11.5t-28.5 -38.5l-39 -68q-25 -46 -54 -60z" />
    <glyph glyph-name="uni049E" unicode="&#x49e;" horiz-adv-x="675" 
d="M670 0h-139l-275 333q-18 -3 -51 -3v-330h-109v568h-84v73h84v84h109v-84h95v-73h-95v-165h22q49 0 77 17.5t50 61.5l75 141q28 57 69 84t107 27q35 0 62 -7v-90q-20 4 -41 4q-34 -2 -54 -11t-28.5 -20t-26.5 -41l-66 -118q-21 -39 -39 -58.5t-44 -31.5z" />
    <glyph glyph-name="uni049F" unicode="&#x49f;" 
d="M571 0h-133l-185 221l-25 -1v-220h-104v578h-101v71h101v84h104v-84h123v-71h-123v-289h15q57 0 86 60l45 89q39 88 135 88q32 0 52 -7v-88q-15 3 -28 3q-29 0 -43.5 -11t-30.5 -39l-39 -68q-25 -48 -63 -63z" />
    <glyph glyph-name="uni04A0" unicode="&#x4a0;" horiz-adv-x="766" 
d="M761 0h-140l-275 333q-16 -3 -51 -3v-330h-109v638h-168v87h277v-322h22q50 0 78 18t50 61l74 141q28 57 69 84t108 27q35 0 62 -7v-90q-20 4 -42 4q-47 -2 -66 -17t-42 -55l-66 -118q-39 -69 -83 -90z" />
    <glyph glyph-name="uni04A1" unicode="&#x4a1;" horiz-adv-x="635" 
d="M611 0h-133l-184 221l-26 -1v-220h-104v430h-141v88h245v-229h16q56 0 85 60l45 89q39 88 136 88q31 0 52 -7v-88q-18 3 -29 3q-29 0 -43.5 -11t-30.5 -39l-39 -68q-24 -49 -62 -63z" />
    <glyph glyph-name="uni04A2" unicode="&#x4a2;" horiz-adv-x="777" 
d="M737 86v-209h-92v123h-78v323h-372v-323h-109v725h109v-307h372v307h108v-639h62z" />
    <glyph glyph-name="uni04A3" unicode="&#x4a3;" horiz-adv-x="626" 
d="M586 93v-203h-87v110h-81v215h-233v-215h-104v518h104v-215h233v215h104v-425h64z" />
    <glyph glyph-name="uni04A4" unicode="&#x4a4;" horiz-adv-x="893" 
d="M806 725v-725h-109v323h-371v-323h-109v630h-199v95h308v-307h371v307h109z" />
    <glyph glyph-name="uni04A5" unicode="&#x4a5;" horiz-adv-x="767" 
d="M81 518h104v-215h233v215h328v-94h-224v-424h-104v215h-233v-215h-104v518z" />
    <glyph glyph-name="uni04A6" unicode="&#x4a6;" horiz-adv-x="1102" 
d="M1026 235v-231q0 -97 -53 -154.5t-145 -57.5q-32 0 -66 8v81q14 -3 32 -3q124 0 124 132v220q0 63 -32.5 96.5t-90.5 33.5q-68 0 -110.5 -44t-42.5 -114v-202h-109v625h-329v-625h-109v725h547v-359q27 41 76 63.5t107 22.5q95 0 148 -57.5t53 -159.5z" />
    <glyph glyph-name="uni04A7" unicode="&#x4a7;" horiz-adv-x="958" 
d="M81 518h441v-247q54 74 165 74q101 0 164 -69t63 -181q0 -118 -70.5 -189t-186.5 -71q-36 0 -64 7v83q23 -6 49 -6q75 0 119.5 47t44.5 126q0 75 -39 118.5t-104 43.5q-63 0 -102 -40.5t-39 -106.5v-107h-105v430h-232v-430h-104v518z" />
    <glyph glyph-name="uni04A8" unicode="&#x4a8;" horiz-adv-x="869" 
d="M471 759q85 0 140 -16v-97q-54 16 -129 16q-144 0 -228.5 -78t-84.5 -211q0 -117 67 -197t178 -90q7 -1 31 -1q34 0 67 5q-49 47 -76.5 113t-27.5 137q0 103 56.5 165t150.5 62q92 0 149 -60t57 -158q0 -77 -32.5 -147t-87.5 -115q35 -11 69 -11q37 0 73 9v-83
q-41 -12 -96 -12q-83 0 -145 33q-75 -33 -173 -33q-164 -2 -270.5 106t-104.5 277q0 175 114.5 280.5t302.5 105.5zM610 117q50 35 80 95t30 126q0 62 -28.5 99t-77.5 37q-48 0 -77 -37t-29 -100t27.5 -122.5t74.5 -97.5z" />
    <glyph glyph-name="uni04A9" unicode="&#x4a9;" horiz-adv-x="648" 
d="M351 527q53 0 94 -10v-78q-35 9 -78 9q-97 0 -157 -54t-60 -142q0 -86 53.5 -138t146.5 -50h5q10 0 17 4q-40 27 -64 72.5t-24 94.5q0 69 44.5 112t116.5 43q70 0 113 -42.5t43 -111.5q0 -50 -24 -95.5t-64 -75.5q17 -4 41 -4q26 0 64 7v-69q-28 -9 -74 -9q-70 0 -111 23
q-49 -23 -123 -23q-120 0 -192.5 71.5t-72.5 188.5q0 124 84.5 200.5t221.5 76.5zM443 91q33 25 52.5 61.5t19.5 74.5t-19.5 60.5t-52.5 22.5q-34 0 -53.5 -22.5t-19.5 -61.5q0 -38 20 -75t53 -60z" />
    <glyph glyph-name="uni04AA" unicode="&#x4aa;" horiz-adv-x="808" 
d="M638 241h116q-19 -104 -101 -172q-80 -66 -199 -77l-20 -33q35 2 60 -17.5t25 -54.5q0 -38 -29.5 -59t-74.5 -21q-48 0 -77 20v50q25 -20 64 -20q53 0 53 35q0 32 -47 32q-22 0 -42 -7v23l30 50q-154 6 -248 109t-94 264q0 166 100 269t261 103q132 0 225 -69t114 -182
h-116q-20 71 -80 111t-142 40q-112 0 -180 -75t-68 -197q0 -123 67.5 -198t178.5 -75q83 0 143.5 41t80.5 110z" />
    <glyph glyph-name="uni04AB" unicode="&#x4ab;" horiz-adv-x="616" 
d="M465 175h106q-15 -77 -75.5 -126.5t-148.5 -57.5l-18 -29q35 2 60 -17.5t25 -54.5q0 -38 -29.5 -59t-74.5 -21q-48 0 -77 20v50q25 -20 64 -20q53 0 53 35q0 32 -47 32q-22 0 -42 -7v23l28 48q-108 8 -176 81.5t-68 186.5q0 120 75.5 194.5t193.5 74.5q100 0 170 -52
q70 -51 87 -134h-106q-15 44 -55.5 69t-95.5 25q-74 0 -118 -48.5t-44 -128.5q0 -81 44 -129.5t119 -48.5q56 0 95.5 25.5t54.5 68.5z" />
    <glyph glyph-name="uni04AC" unicode="&#x4ac;" horiz-adv-x="613" 
d="M359 630v-544h64v-209h-94v123h-79v630h-235v95h579v-95h-235z" />
    <glyph glyph-name="uni04AD" unicode="&#x4ad;" horiz-adv-x="500" 
d="M302 430v-349h67v-191h-87v110h-84v430h-172v88h448v-88h-172z" />
    <glyph glyph-name="uni04AE" unicode="&#x4ae;" horiz-adv-x="653" 
d="M651 725l-268 -404v-321h-109v321l-272 404h126l201 -309l200 309h122z" />
    <glyph glyph-name="uni04AF" unicode="&#x4af;" horiz-adv-x="540" 
d="M524 518l-201 -518v-180h-105v180l-202 518h110l144 -410l144 410h110z" />
    <glyph glyph-name="uni04B0" unicode="&#x4b0;" horiz-adv-x="653" 
d="M421 378h124v-89h-162v-289h-109v289h-161v89h123l-234 347h126l201 -309l200 309h122z" />
    <glyph glyph-name="uni04B1" unicode="&#x4b1;" horiz-adv-x="551" 
d="M321 0h105v-78h-105v-102h-104v102h-104v78h104v20l-202 498h109l145 -397l144 397h109l-201 -498v-20z" />
    <glyph glyph-name="uni04B2" unicode="&#x4b2;" horiz-adv-x="705" 
d="M688 0v-123h-92v123h-39l-205 286l-201 -286h-127l252 361l-255 364h132l200 -294l203 294h128l-252 -364z" />
    <glyph glyph-name="uni04B3" unicode="&#x4b3;" horiz-adv-x="581" 
d="M560 81v-191h-88v110h-59l-141 193l-139 -193h-116l186 259l-185 259h119l136 -194l139 194h117l-187 -259l131 -178h87z" />
    <glyph glyph-name="uni04B4" unicode="&#x4b4;" horiz-adv-x="946" 
d="M34 725h520v-95h-205v-530h378v625h109v-625h82v-218h-107v118h-571v630h-206v95z" />
    <glyph glyph-name="uni04B5" unicode="&#x4b5;" horiz-adv-x="743" 
d="M699 87v-197h-96v110h-436v430h-145v88h395v-88h-146v-343h247v431h104v-431h77z" />
    <glyph glyph-name="uni04B6" unicode="&#x4b6;" horiz-adv-x="698" 
d="M660 86v-209h-94v123h-79v292q-80 -41 -177 -41q-114 0 -171 59.5t-57 171.5v243h109v-232q0 -74 36.5 -108t111.5 -34t148 37v337h109v-639h64z" />
    <glyph glyph-name="uni04B7" unicode="&#x4b7;" horiz-adv-x="604" 
d="M560 93v-203h-88v110h-80v184q-70 -34 -138 -34q-93 0 -140 49.5t-47 140.5v178h104v-174q0 -106 113 -106q57 0 108 24v256h104v-425h64z" />
    <glyph glyph-name="uni04B8" unicode="&#x4b8;" horiz-adv-x="678" 
d="M596 725v-725h-109v292q-56 -28 -121 -37v-111h-54v107h-2q-114 0 -171 59.5t-57 171.5v243h109v-232q0 -131 121 -141v133h54v-133q61 7 121 36v337h109z" />
    <glyph glyph-name="uni04B9" unicode="&#x4b9;" horiz-adv-x="573" 
d="M496 518v-518h-104v184q-45 -22 -92 -30v-81h-36v77h-10q-93 0 -140 49.5t-47 140.5v178h104v-174q0 -98 93 -105v94h36v-95q47 3 92 24v256h104z" />
    <glyph glyph-name="uni04BA" unicode="&#x4ba;" horiz-adv-x="668" 
d="M596 250v-250h-108v234q0 140 -145 140q-71 0 -148 -37v-337h-109v725h109v-297q85 42 183 42q106 0 162 -57t56 -163z" />
    <glyph glyph-name="uni04BB" unicode="&#x4bb;" horiz-adv-x="626" 
d="M81 750h104l-1 -315q25 45 70.5 69t103.5 24q92 0 142 -53t50 -150v-325h-105v313q0 61 -30.5 93t-85.5 32q-66 0 -105 -43.5t-39 -117.5v-277h-104v750z" />
    <glyph glyph-name="uni04BC" unicode="&#x4bc;" horiz-adv-x="944" 
d="M887 364h-626l34 -2q-1 -6 -1 -26q0 -111 69.5 -180.5t181.5 -69.5q79 0 143 38q63 39 85 103h114q-25 -106 -120.5 -171.5t-223.5 -65.5q-164 0 -264.5 103t-100.5 271h-14q-75 0 -114.5 32t-39.5 90q0 39 13 77h70q-6 -24 -6 -48q0 -37 20.5 -53t63.5 -16h14
q23 132 119.5 210.5t238.5 78.5q151 2 250.5 -88.5t97.5 -228.5q0 -23 -4 -54zM774 447q-7 90 -69 142t-161 52q-101 0 -167.5 -52t-81.5 -142h479z" />
    <glyph glyph-name="uni04BD" unicode="&#x4bd;" horiz-adv-x="729" 
d="M684 154q-22 -77 -88.5 -120.5t-160.5 -43.5q-120 0 -195 71t-78 187h-2q-66 0 -101 29.5t-35 81.5q0 37 12 72h64q-7 -27 -7 -47q0 -61 75 -61q20 94 90.5 149.5t172.5 55.5q112 0 182 -65t70 -169q0 -26 -4 -46h-411v-10q0 -76 45 -119t122 -43q52 0 90.5 21t54.5 57
h104zM271 322h305q0 53 -41 87t-106 34q-63 0 -105 -32.5t-53 -88.5z" />
    <glyph glyph-name="uni04BE" unicode="&#x4be;" horiz-adv-x="944" 
d="M887 364h-599l4 -22q0 -115 69.5 -185.5t183.5 -70.5q79 0 143 38q63 39 85 103h114q-23 -93 -99 -156q-77 -62 -184 -77q-65 -32 -65 -74q0 -40 50 -40q15 0 37 5v-54q-26 -9 -54 -9q-45 0 -71 23t-26 60q0 50 44 86q-155 8 -248 109.5t-93 263.5h-14q-75 0 -114.5 32
t-39.5 90q0 39 13 77h70q-6 -24 -6 -48q0 -37 20.5 -53t63.5 -16h14q23 132 119.5 210.5t238.5 78.5q151 2 250.5 -88.5t97.5 -228.5q0 -23 -4 -54zM774 447q-7 90 -69 142t-161 52q-101 0 -167.5 -52t-81.5 -142h479z" />
    <glyph glyph-name="uni04BF" unicode="&#x4bf;" horiz-adv-x="729" 
d="M414 -81q0 -40 49 -40q21 0 37 6v-54q-26 -9 -54 -9q-45 0 -70.5 22.5t-25.5 59.5q0 54 46 88q-104 12 -167 81q-62 68 -67 175h-2q-66 0 -101 29.5t-35 81.5q0 37 12 72h64q-7 -27 -7 -47q0 -61 75 -61q20 94 90.5 149.5t172.5 55.5q112 0 182 -65t70 -169q0 -26 -4 -46
h-411v-10q0 -76 45 -119t122 -43q52 0 90.5 21t54.5 57h104q-19 -68 -74 -110.5t-134 -51.5q-62 -29 -62 -73zM271 322h305q0 53 -41 87t-106 34q-63 0 -105 -32.5t-53 -88.5z" />
    <glyph glyph-name="uni04C0" unicode="&#x4c0;" horiz-adv-x="282" 
d="M86 0v725h109v-725h-109z" />
    <glyph glyph-name="uni04C1" unicode="&#x4c1;" horiz-adv-x="1012" 
d="M307 361q-26 13 -43.5 32t-37.5 58l-65 118q-16 28 -25 39.5t-29.5 21.5t-53.5 11q-24 0 -41 -4v90q27 7 61 7q66 0 107 -27t69 -84l69 -134q24 -47 50.5 -66t64.5 -19h18v321h109v-321h19q41 0 66 19t49 66l69 134q28 57 68.5 84t106.5 27q35 0 62 -7v-90q-20 4 -41 4
q-33 -1 -53.5 -11t-29.5 -21.5t-26 -39.5l-64 -118q-21 -39 -38.5 -58t-43.5 -32l297 -361h-136l-267 333q-12 -3 -38 -3v-330h-109v330q-25 0 -37 3l-267 -333h-137zM507 782q-69 0 -112 41t-43 107h71q0 -36 24 -59.5t60 -23.5t59.5 23.5t23.5 59.5h71q0 -66 -42.5 -107
t-111.5 -41z" />
    <glyph glyph-name="uni04C2" unicode="&#x4c2;" horiz-adv-x="786" 
d="M223 250q-43 16 -63 64l-32 76q-18 48 -72 48q-15 0 -30 -3l-1 84q21 7 54 7q55 0 83 -21.5t47 -66.5l43 -97q25 -51 76 -51h15v228h103v-228h15q55 0 76 51l43 97q19 45 47 66.5t83 21.5q33 0 54 -7l-1 -84q-15 3 -30 3q-31 0 -46.5 -11t-25.5 -37l-32 -76
q-21 -49 -63 -65l195 -249h-117l-183 240h-15v-240h-103v240h-15l-183 -240h-117zM395 575q-69 0 -112 41t-43 107h71q0 -36 24 -59.5t60 -23.5t59.5 23.5t23.5 59.5h71q0 -66 -42.5 -107t-111.5 -41z" />
    <glyph glyph-name="uni04C3" unicode="&#x4c3;" horiz-adv-x="600" 
d="M100 725h109v-298h10q67 0 112 82l63 114q27 54 62.5 82t109.5 30q34 0 61 -6v-91q-12 3 -35 3q-40 0 -62.5 -15.5t-43.5 -49.5l-46 -74q-24 -40 -41 -58.5t-39 -27.5l30 5q116 5 184 -54q69 -57 69 -161q0 -97 -64 -155.5t-170 -58.5q-34 0 -79 8v79q27 -7 60 -7
q65 0 103.5 37t38.5 100q0 66 -43 101t-121 35h-159v-345h-109v725z" />
    <glyph glyph-name="uni04C4" unicode="&#x4c4;" horiz-adv-x="589" 
d="M554 71q0 -103 -71 -166t-186 -63q-36 0 -64 7v82q28 -5 50 -5q77 0 120 40t43 110q0 68 -42 106t-117 38h-101v-220h-105v518h105v-227h14q79 0 115 77l40 85q38 89 135 89q26 0 53 -7v-88q-18 3 -30 3q-29 0 -44 -11.5t-29 -38.5l-32 -59q-24 -47 -51 -59
q88 -6 142.5 -63t54.5 -148z" />
    <glyph glyph-name="uni04C5" unicode="&#x4c5;" horiz-adv-x="810" 
d="M771 86l-29 -209h-91l17 123h-75v629h-339v-477q0 -159 -164 -159q-41 0 -62 4v86h37q80 0 80 74v568h556v-639h70z" />
    <glyph glyph-name="uni04C6" unicode="&#x4c6;" horiz-adv-x="636" 
d="M591 93l-28 -203h-87l15 110h-72v427h-209v-307q0 -127 -131 -127q-36 0 -56 4v82q5 -1 27 -1q54 0 54 48v392h419v-425h68z" />
    <glyph glyph-name="uni04C7" unicode="&#x4c7;" horiz-adv-x="762" 
d="M86 725h109v-307h372v307h108v-739q0 -92 -51 -143t-139 -51q-32 0 -74 8v80q10 -1 43 -1q113 0 113 112v332h-372v-323h-109v725z" />
    <glyph glyph-name="uni04C8" unicode="&#x4c8;" horiz-adv-x="598" 
d="M522 518v-512q0 -101 -51.5 -157.5t-142.5 -56.5q-30 0 -67 8v79q15 -3 33 -3q124 0 124 130v209h-233v-215h-104v518h104v-215h233v215h104z" />
    <glyph glyph-name="uni04C9" unicode="&#x4c9;" horiz-adv-x="777" 
d="M741 86l-29 -209h-92l17 123h-70v323h-372v-323h-109v725h109v-307h372v307h108v-639h66z" />
    <glyph glyph-name="uni04CA" unicode="&#x4ca;" horiz-adv-x="629" 
d="M591 93l-29 -203h-87l15 110h-72v215h-233v-215h-104v518h104v-215h233v215h104v-425h69z" />
    <glyph glyph-name="uni04CB" unicode="&#x4cb;" horiz-adv-x="679" 
d="M82 725h109v-232q0 -74 36.5 -108t111.5 -34q71 0 148 37v337h109v-725h-107v-123h-91v200h89v215q-87 -41 -177 -41q-114 0 -171 59.5t-57 171.5v243z" />
    <glyph glyph-name="uni04CC" unicode="&#x4cc;" horiz-adv-x="573" 
d="M496 0h-61v-110h-101v181h58v113q-70 -34 -138 -34q-93 0 -140 49.5t-47 140.5v178h104v-174q0 -106 113 -106q57 0 108 24v256h104v-518z" />
    <glyph glyph-name="uni04CD" unicode="&#x4cd;" horiz-adv-x="954" 
d="M916 86l-29 -209h-91l17 123h-69v222q0 158 8 352l-254 -406h-53l-257 406q7 -197 7 -352v-222h-109v725h123l263 -420l259 420h121v-639h64z" />
    <glyph glyph-name="uni04CE" unicode="&#x4ce;" horiz-adv-x="758" 
d="M720 93l-28 -203h-88l16 110h-70v131q0 110 4 249l-183 -305h-8l-186 303q5 -150 5 -247v-131h-101v518h119l168 -284l162 284h121v-425h69z" />
    <glyph glyph-name="uni04CF" unicode="&#x4cf;" horiz-adv-x="266" 
d="M81 750h104v-750h-104v750z" />
    <glyph glyph-name="uni04D0" unicode="&#x4d0;" horiz-adv-x="735" 
d="M533 164h-334l-60 -164h-120l281 725h130l286 -725h-123zM501 251l-135 366l-135 -366h270zM365 781q-69 0 -112 41t-43 107h71q0 -36 24 -59.5t60 -23.5t59.5 23.5t23.5 59.5h71q0 -66 -42.5 -107t-111.5 -41z" />
    <glyph glyph-name="uni04D1" unicode="&#x4d1;" 
d="M53 137q0 136 189 156l173 19v18q0 55 -32.5 84.5t-89.5 29.5q-59 0 -94 -27.5t-32 -73.5h-99q0 84 64.5 134.5t168.5 50.5q101 0 160 -55t59 -161v-312h-93l-6 96q-22 -47 -78 -76.5t-123 -29.5q-75 0 -121 40.5t-46 106.5zM415 225v20l-151 -19q-106 -13 -106 -80
q0 -34 24.5 -53.5t69.5 -19.5q70 0 116.5 48.5t46.5 103.5zM295 574q-69 0 -112 41t-43 107h71q0 -36 24 -59.5t60 -23.5t59.5 23.5t23.5 59.5h71q0 -66 -42.5 -107t-111.5 -41z" />
    <glyph glyph-name="uni04D2" unicode="&#x4d2;" horiz-adv-x="735" 
d="M533 164h-334l-60 -164h-120l281 725h130l286 -725h-123zM501 251l-135 366l-135 -366h270zM190 862q0 29 20.5 48t52.5 19q31 0 51.5 -19t20.5 -48t-20.5 -48t-51.5 -19q-32 0 -52.5 19t-20.5 48zM405 862q0 29 20.5 48t52.5 19q31 0 51.5 -19t20.5 -48t-20.5 -48
t-51.5 -19q-32 0 -52.5 19t-20.5 48z" />
    <glyph glyph-name="uni04D3" unicode="&#x4d3;" 
d="M53 137q0 136 189 156l173 19v18q0 55 -32.5 84.5t-89.5 29.5q-59 0 -94 -27.5t-32 -73.5h-99q0 84 64.5 134.5t168.5 50.5q101 0 160 -55t59 -161v-312h-93l-6 96q-22 -47 -78 -76.5t-123 -29.5q-75 0 -121 40.5t-46 106.5zM415 225v20l-151 -19q-106 -13 -106 -80
q0 -34 24.5 -53.5t69.5 -19.5q70 0 116.5 48.5t46.5 103.5zM121 655q0 29 20.5 48t52.5 19q31 0 51.5 -19t20.5 -48t-20.5 -48t-51.5 -19q-32 0 -52.5 19t-20.5 48zM336 655q0 29 20.5 48t52.5 19q31 0 51.5 -19t20.5 -48t-20.5 -48t-51.5 -19q-32 0 -52.5 19t-20.5 48z" />
    <glyph glyph-name="uni04D4" unicode="&#x4d4;" horiz-adv-x="976" 
d="M544 627v-218h272v-93h-272v-218h371v-98h-478v191h-241l-63 -191h-114l252 725h644v-98h-371zM340 627l-114 -346h211v346h-97z" />
    <glyph glyph-name="uni04D5" unicode="&#x4d5;" horiz-adv-x="947" 
d="M266 307h125v25q0 52 -32 81.5t-86 29.5q-51 0 -83 -24t-37 -64h-100q6 79 68 126t156 47q62 0 110.5 -25t71.5 -68q68 93 198 93q111 0 181 -65.5t70 -170.5q0 -28 -5 -58h-402q0 -74 44 -116t117 -42q51 0 88.5 20.5t53.5 56.5h105q-21 -76 -87 -119.5t-161 -43.5
q-78 0 -138 31.5t-85 85.5q-27 -56 -84.5 -86.5t-128.5 -30.5q-85 0 -136 42.5t-51 112.5q0 77 60.5 119.5t167.5 42.5zM802 308q-1 61 -41 99t-104 38q-65 0 -107.5 -38t-47.5 -99h300zM245 75q66 0 106.5 39t40.5 103v17h-121q-62 0 -94.5 -22t-32.5 -61q0 -35 27 -55.5
t74 -20.5z" />
    <glyph glyph-name="uni04D6" unicode="&#x4d6;" horiz-adv-x="658" 
d="M86 725h512v-98h-403v-218h373v-93h-373v-219h403v-97h-512v725zM333 781q-69 0 -112 41t-43 107h71q0 -36 24 -59.5t60 -23.5t59.5 23.5t23.5 59.5h71q0 -66 -42.5 -107t-111.5 -41z" />
    <glyph glyph-name="uni04D7" unicode="&#x4d7;" horiz-adv-x="611" 
d="M566 154q-22 -77 -88.5 -120.5t-160.5 -43.5q-123 0 -197.5 74t-74.5 195q0 119 74 194t192 75q110 0 179.5 -65t69.5 -169q0 -12 -5 -44h-404v-12q0 -76 44.5 -119t121.5 -43q52 0 90.5 21t54.5 57h104zM154 322h298q1 51 -41 86q-41 35 -103 35q-60 0 -102 -33t-52 -88
zM314 574q-69 0 -112 41t-43 107h71q0 -36 24 -59.5t60 -23.5t59.5 23.5t23.5 59.5h71q0 -66 -42.5 -107t-111.5 -41z" />
    <glyph glyph-name="uni04D8" unicode="&#x4d8;" horiz-adv-x="820" 
d="M767 360q0 -164 -101.5 -267t-264.5 -103q-152 0 -249.5 90.5t-97.5 229.5q0 31 4 51h599l-5 22q0 115 -69 185.5t-183 70.5q-81 0 -144 -39q-63 -38 -84 -102h-115q25 106 120.5 171.5t223.5 65.5q164 0 265 -103t101 -272zM649 278h-480q6 -87 70 -140.5t161 -53.5
q100 0 167 52.5t82 141.5z" />
    <glyph glyph-name="uni04D9" unicode="&#x4d9;" horiz-adv-x="611" 
d="M566 259q0 -119 -74 -194t-192 -75q-110 0 -179.5 65t-69.5 169q0 12 5 44h404v12q0 76 -44.5 119t-121.5 43q-52 0 -90.5 -21t-54.5 -57h-104q22 77 88.5 120.5t160.5 43.5q123 0 197.5 -74t74.5 -195zM457 196h-298q-1 -52 40 -87q41 -34 104 -34q60 0 102 33t52 88z
" />
    <glyph glyph-name="uni04DA" unicode="&#x4da;" horiz-adv-x="820" 
d="M767 360q0 -164 -101.5 -267t-264.5 -103q-152 0 -249.5 90.5t-97.5 229.5q0 31 4 51h599l-5 22q0 115 -69 185.5t-183 70.5q-81 0 -144 -39q-63 -38 -84 -102h-115q25 106 120.5 171.5t223.5 65.5q164 0 265 -103t101 -272zM649 278h-480q6 -87 70 -140.5t161 -53.5
q100 0 167 52.5t82 141.5zM229 861q0 29 20.5 48t52.5 19q31 0 51.5 -19t20.5 -48t-20.5 -48t-51.5 -19q-32 0 -52.5 19t-20.5 48zM444 861q0 29 20.5 48t52.5 19q31 0 51.5 -19t20.5 -48t-20.5 -48t-51.5 -19q-32 0 -52.5 19t-20.5 48z" />
    <glyph glyph-name="uni04DB" unicode="&#x4db;" horiz-adv-x="611" 
d="M566 259q0 -119 -74 -194t-192 -75q-110 0 -179.5 65t-69.5 169q0 12 5 44h404v12q0 76 -44.5 119t-121.5 43q-52 0 -90.5 -21t-54.5 -57h-104q22 77 88.5 120.5t160.5 43.5q123 0 197.5 -74t74.5 -195zM457 196h-298q-1 -52 40 -87q41 -34 104 -34q60 0 102 33t52 88z
M124 658q0 29 20.5 48t52.5 19q31 0 51.5 -19t20.5 -48t-20.5 -48t-51.5 -19q-32 0 -52.5 19t-20.5 48zM339 658q0 29 20.5 48t52.5 19q31 0 51.5 -19t20.5 -48t-20.5 -48t-51.5 -19q-32 0 -52.5 19t-20.5 48z" />
    <glyph glyph-name="uni04DC" unicode="&#x4dc;" horiz-adv-x="1012" 
d="M307 361q-26 13 -43.5 32t-37.5 58l-65 118q-16 28 -25 39.5t-29.5 21.5t-53.5 11q-24 0 -41 -4v90q27 7 61 7q66 0 107 -27t69 -84l69 -134q24 -47 50.5 -66t64.5 -19h18v321h109v-321h19q41 0 66 19t49 66l69 134q28 57 68.5 84t106.5 27q35 0 62 -7v-90q-20 4 -41 4
q-33 -1 -53.5 -11t-29.5 -21.5t-26 -39.5l-64 -118q-21 -39 -38.5 -58t-43.5 -32l297 -361h-136l-267 333q-12 -3 -38 -3v-330h-109v330q-25 0 -37 3l-267 -333h-137zM326 861q0 29 20.5 48t52.5 19q31 0 51.5 -19t20.5 -48t-20.5 -48t-51.5 -19q-32 0 -52.5 19t-20.5 48z
M541 861q0 29 20.5 48t52.5 19q31 0 51.5 -19t20.5 -48t-20.5 -48t-51.5 -19q-32 0 -52.5 19t-20.5 48z" />
    <glyph glyph-name="uni04DD" unicode="&#x4dd;" horiz-adv-x="789" 
d="M223 250q-43 16 -63 64l-32 76q-18 48 -72 48q-15 0 -30 -3l-1 84q21 7 54 7q55 0 83 -21.5t47 -66.5l43 -97q25 -51 76 -51h15v228h103v-228h15q55 0 76 51l43 97q19 45 47 66.5t83 21.5q33 0 54 -7l-1 -84q-15 3 -30 3q-31 0 -46.5 -11t-25.5 -37l-32 -76
q-21 -49 -63 -65l195 -249h-117l-183 240h-15v-240h-103v240h-15l-183 -240h-117zM215 656q0 29 20.5 48t52.5 19q31 0 51.5 -19t20.5 -48t-20.5 -48t-51.5 -19q-32 0 -52.5 19t-20.5 48zM430 656q0 29 20.5 48t52.5 19q31 0 51.5 -19t20.5 -48t-20.5 -48t-51.5 -19
q-32 0 -52.5 19t-20.5 48z" />
    <glyph glyph-name="uni04DE" unicode="&#x4de;" horiz-adv-x="629" 
d="M166 202q4 -55 43.5 -89t101.5 -34q69 0 111.5 37t42.5 96q0 55 -38 86.5t-99 31.5h-80v82h76q56 0 90.5 31t34.5 83q0 54 -36.5 86.5t-98.5 32.5q-61 0 -98.5 -32.5t-40.5 -88.5h-109q2 95 69 153t181 58q110 0 176.5 -55t66.5 -142q0 -55 -25.5 -97t-71.5 -64
q53 -19 83.5 -65.5t30.5 -108.5q0 -94 -72.5 -154t-190.5 -60q-114 0 -184 58.5t-73 154.5h110zM136 861q0 29 20.5 48t52.5 19q31 0 51.5 -19t20.5 -48t-20.5 -48t-51.5 -19q-32 0 -52.5 19t-20.5 48zM351 861q0 29 20.5 48t52.5 19q31 0 51.5 -19t20.5 -48t-20.5 -48
t-51.5 -19q-32 0 -52.5 19t-20.5 48z" />
    <glyph glyph-name="uni04DF" unicode="&#x4df;" horiz-adv-x="506" 
d="M151 148q3 -34 30 -55t71 -21q47 0 73.5 22t26.5 59q0 36 -25.5 56.5t-66.5 20.5h-63v69h58q39 0 63 20t24 54t-23.5 53t-64.5 19q-42 0 -68 -19.5t-27 -54.5h-98q1 71 54 113t141 42q85 0 136.5 -39t51.5 -103q0 -39 -19.5 -69.5t-52.5 -44.5q41 -14 63 -46.5t22 -77.5
q0 -70 -55.5 -112.5t-147.5 -42.5q-91 0 -145.5 42t-57.5 115h100zM65 656q0 29 20.5 48t52.5 19q31 0 51.5 -19t20.5 -48t-20.5 -48t-51.5 -19q-32 0 -52.5 19t-20.5 48zM280 656q0 29 20.5 48t52.5 19q31 0 51.5 -19t20.5 -48t-20.5 -48t-51.5 -19q-32 0 -52.5 19
t-20.5 48z" />
    <glyph glyph-name="uni04E0" unicode="&#x4e0;" horiz-adv-x="603" 
d="M547 228q0 -107 -73.5 -172.5t-191.5 -65.5q-117 0 -188.5 63.5t-71.5 167.5h107q1 -61 43.5 -100t109.5 -39t111 41.5t44 107.5t-45 102q-44 37 -109 37q-49 0 -84 -18l-39 65l211 213h-303v95h439v-93l-183 -183q98 -2 160.5 -62.5t62.5 -158.5z" />
    <glyph glyph-name="uni04E1" unicode="&#x4e1;" horiz-adv-x="623" 
d="M574 31q0 -105 -74.5 -171t-190.5 -66q-115 0 -186.5 64t-71.5 167h103q1 -62 44.5 -102t110.5 -40q68 0 113 42t45 109t-46 104q-46 38 -110 38q-50 0 -84 -18l-38 63l212 205h-304v92h436v-91l-183 -174q99 -2 161.5 -63.5t62.5 -158.5z" />
    <glyph glyph-name="uni04E2" unicode="&#x4e2;" horiz-adv-x="773" 
d="M686 725v-725h-109v553l-381 -553h-110v725h109v-552l382 552h109zM202 890h374v-77h-374v77z" />
    <glyph glyph-name="uni04E3" unicode="&#x4e3;" horiz-adv-x="606" 
d="M530 518v-518h-103v359l-248 -359h-103v518h104v-361l248 361h102zM106 684h374v-77h-374v77z" />
    <glyph glyph-name="uni04E4" unicode="&#x4e4;" horiz-adv-x="773" 
d="M686 725v-725h-109v553l-381 -553h-110v725h109v-552l382 552h109zM214 862q0 29 20.5 48t52.5 19q31 0 51.5 -19t20.5 -48t-20.5 -48t-51.5 -19q-32 0 -52.5 19t-20.5 48zM429 862q0 29 20.5 48t52.5 19q31 0 51.5 -19t20.5 -48t-20.5 -48t-51.5 -19q-32 0 -52.5 19
t-20.5 48z" />
    <glyph glyph-name="uni04E5" unicode="&#x4e5;" horiz-adv-x="606" 
d="M530 518v-518h-103v359l-248 -359h-103v518h104v-361l248 361h102zM123 655q0 29 20.5 48t52.5 19q31 0 51.5 -19t20.5 -48t-20.5 -48t-51.5 -19q-32 0 -52.5 19t-20.5 48zM338 655q0 29 20.5 48t52.5 19q31 0 51.5 -19t20.5 -48t-20.5 -48t-51.5 -19q-32 0 -52.5 19
t-20.5 48z" />
    <glyph glyph-name="uni04E6" unicode="&#x4e6;" horiz-adv-x="853" 
d="M426 736q163 2 269 -104t104 -269q2 -164 -104 -269.5t-269 -103.5q-164 0 -268 104t-104 269q-2 163 103.5 269t268.5 104zM426 90q114 0 186.5 76t72.5 197t-72.5 197t-186.5 76q-113 0 -185.5 -76.5t-72.5 -196.5q0 -121 72 -197t186 -76zM252 862q0 29 20.5 48
t52.5 19q31 0 51.5 -19t20.5 -48t-20.5 -48t-51.5 -19q-32 0 -52.5 19t-20.5 48zM467 862q0 29 20.5 48t52.5 19q31 0 51.5 -19t20.5 -48t-20.5 -48t-51.5 -19q-32 0 -52.5 19t-20.5 48z" />
    <glyph glyph-name="uni04E7" unicode="&#x4e7;" horiz-adv-x="650" 
d="M325 528q122 0 201 -75t79 -194t-79 -194t-201 -75q-123 0 -201.5 74.5t-78.5 194.5t78.5 194.5t201.5 74.5zM326 81q78 0 125 48.5t47 129.5t-47 129.5t-125 48.5q-79 0 -126.5 -49t-47.5 -130t47.5 -129t126.5 -48zM150 655q0 29 20.5 48t52.5 19q31 0 51.5 -19
t20.5 -48t-20.5 -48t-51.5 -19q-32 0 -52.5 19t-20.5 48zM365 655q0 29 20.5 48t52.5 19q31 0 51.5 -19t20.5 -48t-20.5 -48t-51.5 -19q-32 0 -52.5 19t-20.5 48z" />
    <glyph glyph-name="uni04E8" unicode="&#x4e8;" horiz-adv-x="853" 
d="M799 363q2 -164 -104 -269.5t-269 -103.5q-164 0 -268 104t-104 269q-2 163 103.5 269t268.5 104q163 2 269 -104t104 -269zM170 403h513q-12 105 -82.5 169t-174.5 64q-103 0 -173.5 -64.5t-82.5 -168.5zM683 324h-513q12 -106 82 -170t174 -64t174.5 64t82.5 170z" />
    <glyph glyph-name="uni04E9" unicode="&#x4e9;" horiz-adv-x="647" 
d="M605 259q0 -119 -79 -194t-201 -75q-123 0 -201.5 74.5t-78.5 194.5t78.5 194.5t201.5 74.5q122 0 201 -75t79 -194zM155 293h341q-10 67 -55.5 105.5t-114.5 38.5t-115 -39t-56 -105zM496 226h-342q10 -67 56 -106t116 -39q69 0 114.5 39t55.5 106z" />
    <glyph glyph-name="uni04EA" unicode="&#x4ea;" horiz-adv-x="853" 
d="M799 363q2 -164 -104 -269.5t-269 -103.5q-164 0 -268 104t-104 269q-2 163 103.5 269t268.5 104q163 2 269 -104t104 -269zM170 403h513q-12 105 -82.5 169t-174.5 64q-103 0 -173.5 -64.5t-82.5 -168.5zM683 324h-513q12 -106 82 -170t174 -64t174.5 64t82.5 170z
M252 862q0 29 20.5 48t52.5 19q31 0 51.5 -19t20.5 -48t-20.5 -48t-51.5 -19q-32 0 -52.5 19t-20.5 48zM467 862q0 29 20.5 48t52.5 19q31 0 51.5 -19t20.5 -48t-20.5 -48t-51.5 -19q-32 0 -52.5 19t-20.5 48z" />
    <glyph glyph-name="uni04EB" unicode="&#x4eb;" horiz-adv-x="647" 
d="M605 259q0 -119 -79 -194t-201 -75q-123 0 -201.5 74.5t-78.5 194.5t78.5 194.5t201.5 74.5q122 0 201 -75t79 -194zM155 293h341q-10 67 -55.5 105.5t-114.5 38.5t-115 -39t-56 -105zM496 226h-342q10 -67 56 -106t116 -39q69 0 114.5 39t55.5 106zM150 655
q0 29 20.5 48t52.5 19q31 0 51.5 -19t20.5 -48t-20.5 -48t-51.5 -19q-32 0 -52.5 19t-20.5 48zM365 655q0 29 20.5 48t52.5 19q31 0 51.5 -19t20.5 -48t-20.5 -48t-51.5 -19q-32 0 -52.5 19t-20.5 48z" />
    <glyph glyph-name="uni04EC" unicode="&#x4ec;" horiz-adv-x="807" 
d="M753 362q0 -174 -98.5 -273t-262.5 -99q-132 0 -223.5 68.5t-114.5 182.5h115q20 -69 80 -110t144 -41q108 0 172 61.5t73 172.5h-331v78h331q-9 111 -74 172t-173 61q-83 0 -142 -40t-80 -111h-115q23 113 115.5 182t224.5 69q166 0 262.5 -102t96.5 -271zM222 862
q0 29 20.5 48t52.5 19q31 0 51.5 -19t20.5 -48t-20.5 -48t-51.5 -19q-32 0 -52.5 19t-20.5 48zM437 862q0 29 20.5 48t52.5 19q31 0 51.5 -19t20.5 -48t-20.5 -48t-51.5 -19q-32 0 -52.5 19t-20.5 48z" />
    <glyph glyph-name="uni04ED" unicode="&#x4ed;" horiz-adv-x="613" 
d="M570 259q0 -120 -75.5 -194.5t-195.5 -74.5q-98 0 -169 50q-69 50 -86 135h106q15 -43 54.5 -68.5t95.5 -25.5q66 0 109 39t52 106h-217v66h217q-9 66 -51.5 105t-108.5 39q-55 0 -95.5 -25t-55.5 -69h-106q17 84 86 134q70 52 171 52q118 0 193.5 -74.5t75.5 -194.5z
M126 655q0 29 20.5 48t52.5 19q31 0 51.5 -19t20.5 -48t-20.5 -48t-51.5 -19q-32 0 -52.5 19t-20.5 48zM341 655q0 29 20.5 48t52.5 19q31 0 51.5 -19t20.5 -48t-20.5 -48t-51.5 -19q-32 0 -52.5 19t-20.5 48z" />
    <glyph glyph-name="uni04EE" unicode="&#x4ee;" horiz-adv-x="657" 
d="M133 725l199 -358l193 358h121l-397 -725h-117l142 257l-263 468h122zM142 890h374v-77h-374v77z" />
    <glyph glyph-name="uni04EF" unicode="&#x4ef;" horiz-adv-x="617" 
d="M540 518v-517q0 -97 -65.5 -154t-176.5 -57q-104 0 -165 47t-66 131h103q4 -45 38 -69.5t89 -24.5q66 0 102.5 32.5t36.5 89.5v128q-53 -86 -170 -86q-92 0 -142 54t-50 150v276h104v-263q0 -64 30.5 -96t86.5 -32q65 0 103 40.5t38 103.5v247h104zM120 683h374v-77h-374
v77z" />
    <glyph glyph-name="uni04F0" unicode="&#x4f0;" horiz-adv-x="657" 
d="M133 725l199 -358l193 358h121l-397 -725h-117l142 257l-263 468h122zM149 867q0 29 20.5 48t52.5 19q31 0 51.5 -19t20.5 -48t-20.5 -48t-51.5 -19q-32 0 -52.5 19t-20.5 48zM364 867q0 29 20.5 48t52.5 19q31 0 51.5 -19t20.5 -48t-20.5 -48t-51.5 -19q-32 0 -52.5 19
t-20.5 48z" />
    <glyph glyph-name="uni04F1" unicode="&#x4f1;" horiz-adv-x="617" 
d="M540 518v-517q0 -97 -65.5 -154t-176.5 -57q-104 0 -165 47t-66 131h103q4 -45 38 -69.5t89 -24.5q66 0 102.5 32.5t36.5 89.5v128q-53 -86 -170 -86q-92 0 -142 54t-50 150v276h104v-263q0 -64 30.5 -96t86.5 -32q65 0 103 40.5t38 103.5v247h104zM132 655q0 29 20.5 48
t52.5 19q31 0 51.5 -19t20.5 -48t-20.5 -48t-51.5 -19q-32 0 -52.5 19t-20.5 48zM347 655q0 29 20.5 48t52.5 19q31 0 51.5 -19t20.5 -48t-20.5 -48t-51.5 -19q-32 0 -52.5 19t-20.5 48z" />
    <glyph glyph-name="uni04F2" unicode="&#x4f2;" horiz-adv-x="657" 
d="M133 725l199 -358l193 358h121l-397 -725h-117l142 257l-263 468h122zM141 828l163 156l55 -64l-175 -140zM332 834l187 128l43 -73l-195 -109z" />
    <glyph glyph-name="uni04F3" unicode="&#x4f3;" horiz-adv-x="617" 
d="M540 518v-517q0 -97 -65.5 -154t-176.5 -57q-104 0 -165 47t-66 131h103q4 -45 38 -69.5t89 -24.5q66 0 102.5 32.5t36.5 89.5v128q-53 -86 -170 -86q-92 0 -142 54t-50 150v276h104v-263q0 -64 30.5 -96t86.5 -32q65 0 103 40.5t38 103.5v247h104zM171 621l163 156
l55 -64l-175 -140zM362 627l187 128l43 -73l-195 -109z" />
    <glyph glyph-name="uni04F4" unicode="&#x4f4;" horiz-adv-x="670" 
d="M587 725v-725h-109v292q-80 -41 -177 -41q-227 0 -227 231v243h108v-232q0 -74 37 -108t112 -34q74 0 147 37v337h109zM151 867q0 29 20.5 48t52.5 19q31 0 51.5 -19t20.5 -48t-20.5 -48t-51.5 -19q-32 0 -52.5 19t-20.5 48zM366 867q0 29 20.5 48t52.5 19q31 0 51.5 -19
t20.5 -48t-20.5 -48t-51.5 -19q-32 0 -52.5 19t-20.5 48z" />
    <glyph glyph-name="uni04F5" unicode="&#x4f5;" horiz-adv-x="573" 
d="M496 518v-518h-104v184q-70 -34 -138 -34q-93 0 -140 49.5t-47 140.5v178h104v-174q0 -106 113 -106q57 0 108 24v256h104zM110 655q0 29 20.5 48t52.5 19q31 0 51.5 -19t20.5 -48t-20.5 -48t-51.5 -19q-32 0 -52.5 19t-20.5 48zM325 655q0 29 20.5 48t52.5 19
q31 0 51.5 -19t20.5 -48t-20.5 -48t-51.5 -19q-32 0 -52.5 19t-20.5 48z" />
    <glyph glyph-name="uni04F6" unicode="&#x4f6;" horiz-adv-x="600" 
d="M86 725h426v-95h-317v-546h86v-207h-92v123h-103v725z" />
    <glyph glyph-name="uni04F7" unicode="&#x4f7;" horiz-adv-x="430" 
d="M185 430v-337h64v-203h-88v110h-80v518h327v-88h-223z" />
    <glyph glyph-name="uni04F8" unicode="&#x4f8;" horiz-adv-x="895" 
d="M80 725h109v-267h176q112 0 176 -61.5t64 -166.5q0 -106 -66 -168t-174 -62h-285v725zM699 725h109v-725h-109v725zM352 96q66 0 102.5 34.5t36.5 97.5q0 64 -36.5 99t-102.5 35h-163v-266h163zM260 867q0 29 20.5 48t52.5 19q31 0 51.5 -19t20.5 -48t-20.5 -48
t-51.5 -19q-32 0 -52.5 19t-20.5 48zM475 867q0 29 20.5 48t52.5 19q31 0 51.5 -19t20.5 -48t-20.5 -48t-51.5 -19q-32 0 -52.5 19t-20.5 48z" />
    <glyph glyph-name="uni04F9" unicode="&#x4f9;" horiz-adv-x="757" 
d="M81 518h107v-188h125q82 0 131 -45.5t49 -119.5q0 -73 -49.5 -119t-130.5 -46h-232v518zM569 518h108v-518h-108v518zM291 84q42 0 66.5 22t24.5 60t-24.5 60t-66.5 22h-103v-164h103zM199 655q0 29 20.5 48t52.5 19q31 0 51.5 -19t20.5 -48t-20.5 -48t-51.5 -19
q-32 0 -52.5 19t-20.5 48zM414 655q0 29 20.5 48t52.5 19q31 0 51.5 -19t20.5 -48t-20.5 -48t-51.5 -19q-32 0 -52.5 19t-20.5 48z" />
    <glyph glyph-name="uni04FA" unicode="&#x4fa;" horiz-adv-x="607" 
d="M245 630v-227h280v-86h-280v-330q0 -98 -51 -147.5t-144 -49.5q-34 0 -82 9v85h50q64 0 91 25.5t27 80.5v327h-83v86h83v322h426v-95h-317z" />
    <glyph glyph-name="uni04FB" unicode="&#x4fb;" horiz-adv-x="454" 
d="M210 430v-144h161v-77h-161v-291q0 -61 -35 -94t-96 -33q-36 0 -56 5v81q5 -1 24 -1q58 0 58 58v275h-77v77h77v232h328v-88h-223z" />
    <glyph glyph-name="uni04FC" unicode="&#x4fc;" horiz-adv-x="673" 
d="M437 -200v69q5 -1 22 -1q78 0 78 63q0 32 -26 75l-177 282l-181 -288h-123l226 360l-235 365h127l184 -295l181 295h124l-227 -362l186 -297q49 -76 49 -138q0 -60 -40.5 -97.5t-108.5 -37.5q-30 0 -59 7z" />
    <glyph glyph-name="uni04FD" unicode="&#x4fd;" horiz-adv-x="564" 
d="M353 -143v56q5 -1 16 -1q59 0 59 42q0 25 -19 53l-131 189l-134 -196h-113l176 257l-184 261h117l136 -202l134 202h115l-177 -258l139 -203q38 -55 38 -100q0 -49 -33.5 -77.5t-89.5 -28.5q-24 0 -49 6z" />
    <glyph glyph-name="uni04FE" unicode="&#x4fe;" horiz-adv-x="705" 
d="M688 0h-131l-205 286l-201 -286h-127l223 320h-163v86h160l-223 319h132l200 -294l203 294h128l-221 -319h162v-86h-164z" />
    <glyph glyph-name="uni04FF" unicode="&#x4ff;" horiz-adv-x="549" 
d="M532 0h-119l-141 193l-139 -193h-116l162 225h-144v68h144l-161 225h119l136 -194l139 194h117l-162 -225h147v-68h-147z" />
    <glyph glyph-name="uni0510" unicode="&#x510;" horiz-adv-x="600" 
d="M318 -11q-117 0 -189.5 60t-72.5 154q0 62 30 108.5t83 65.5q-46 22 -71.5 64t-25.5 97q0 87 66.5 142t176.5 55q113 0 180.5 -57t70.5 -154h-110q-3 56 -40 88.5t-99 32.5t-98.5 -32.5t-36.5 -86.5q0 -51 35 -82.5t90 -31.5h77v-82h-81q-61 0 -98.5 -31.5t-37.5 -86.5
q0 -59 42.5 -96t110.5 -37q62 0 101.5 33.5t43.5 89.5h111q-5 -97 -74.5 -155t-183.5 -58z" />
    <glyph glyph-name="uni0511" unicode="&#x511;" horiz-adv-x="501" 
d="M250 -9q-92 0 -147.5 42.5t-55.5 112.5q0 44 22.5 77t63.5 47q-34 14 -53.5 44.5t-19.5 69.5q0 64 51.5 103t136.5 39q88 0 141.5 -41.5t54.5 -113.5h-99q-1 35 -26.5 54.5t-67.5 19.5q-41 0 -65 -19t-24 -53t24 -54t63 -20h58v-69h-63q-41 0 -66.5 -20.5t-25.5 -56.5
q0 -37 27 -59t74 -22q44 0 70.5 21t29.5 55h101q-3 -73 -57.5 -115t-146.5 -42z" />
    <glyph glyph-name="uni0512" unicode="&#x512;" horiz-adv-x="801" 
d="M28 80q8 -1 33 -1q50 0 73.5 21.5t23.5 67.5v557h556v-758q0 -85 -45.5 -128.5t-130.5 -43.5q-25 0 -62 5v82q8 -1 33 -1q50 0 73.5 21.5t23.5 67.5l-1 659h-338v-464q0 -85 -46 -128.5t-131 -43.5q-25 0 -62 5v82z" />
    <glyph glyph-name="uni0513" unicode="&#x513;" horiz-adv-x="599" 
d="M523 518v-512q0 -101 -52 -157.5t-143 -56.5q-29 0 -66 8v79q14 -3 33 -3q124 0 124 130v421h-209v-307q0 -127 -131 -127q-36 0 -56 4v82q5 -1 27 -1q54 0 54 48v392h419z" />
    <glyph glyph-name="uni051C" unicode="&#x51c;" horiz-adv-x="1012" 
d="M138 725l147 -603l160 603h126l162 -605l139 605h119l-179 -725h-151l-152 579l-150 -579h-150l-188 725h117z" />
    <glyph glyph-name="uni051D" unicode="&#x51d;" horiz-adv-x="809" 
d="M132 518l109 -415l107 415h113l110 -415l107 415h107l-149 -518h-125l-106 392l-106 -392h-124l-152 518h109z" />
    <glyph glyph-name="uni0524" unicode="&#x524;" horiz-adv-x="777" 
d="M737 86v-209h-92v123h-78v625h-372v-625h-109v725h589v-639h62z" />
    <glyph glyph-name="uni0525" unicode="&#x525;" horiz-adv-x="626" 
d="M586 93v-203h-87v110h-81v430h-233v-430h-104v518h441v-425h64z" />
    <glyph glyph-name="uni0526" unicode="&#x526;" horiz-adv-x="653" 
d="M633 86v-209h-94v123h-75v234q0 140 -145 140q-71 0 -148 -37v-337h-109v725h109v-297q85 42 183 42q106 0 162 -57t56 -163v-164h61z" />
    <glyph glyph-name="uni0527" unicode="&#x527;" horiz-adv-x="654" 
d="M614 81v-191h-87v110h-82v313q0 61 -30.5 93t-85.5 32q-66 0 -105 -43.5t-39 -117.5v-277h-104v750h104l-1 -315q25 45 70.5 69t103.5 24q92 0 142 -53t50 -150v-244h64z" />
    <glyph glyph-name="Wgrave" unicode="&#x1e80;" horiz-adv-x="1012" 
d="M138 725l147 -603l160 603h126l162 -605l139 605h119l-179 -725h-151l-152 579l-150 -579h-150l-188 725h117zM313 889l45 73l185 -128l-34 -54z" />
    <glyph glyph-name="wgrave" unicode="&#x1e81;" horiz-adv-x="809" 
d="M132 518l109 -415l107 415h113l110 -415l107 415h107l-149 -518h-125l-106 392l-106 -392h-124l-152 518h109zM211 682l45 73l185 -128l-34 -54z" />
    <glyph glyph-name="Wacute" unicode="&#x1e82;" horiz-adv-x="1012" 
d="M138 725l147 -603l160 603h126l162 -605l139 605h119l-179 -725h-151l-152 579l-150 -579h-150l-188 725h117zM468 834l186 128l44 -73l-196 -109z" />
    <glyph glyph-name="wacute" unicode="&#x1e83;" horiz-adv-x="809" 
d="M132 518l109 -415l107 415h113l110 -415l107 415h107l-149 -518h-125l-106 392l-106 -392h-124l-152 518h109zM366 627l186 128l44 -73l-196 -109z" />
    <glyph glyph-name="Wdieresis" unicode="&#x1e84;" horiz-adv-x="1012" 
d="M138 725l147 -603l160 603h126l162 -605l139 605h119l-179 -725h-151l-152 579l-150 -579h-150l-188 725h117zM325 862q0 29 20.5 48t52.5 19q31 0 51.5 -19t20.5 -48t-20.5 -48t-51.5 -19q-32 0 -52.5 19t-20.5 48zM540 862q0 29 20.5 48t52.5 19q31 0 51.5 -19
t20.5 -48t-20.5 -48t-51.5 -19q-32 0 -52.5 19t-20.5 48z" />
    <glyph glyph-name="wdieresis" unicode="&#x1e85;" horiz-adv-x="809" 
d="M132 518l109 -415l107 415h113l110 -415l107 415h107l-149 -518h-125l-106 392l-106 -392h-124l-152 518h109zM223 655q0 29 20.5 48t52.5 19q31 0 51.5 -19t20.5 -48t-20.5 -48t-51.5 -19q-32 0 -52.5 19t-20.5 48zM438 655q0 29 20.5 48t52.5 19q31 0 51.5 -19
t20.5 -48t-20.5 -48t-51.5 -19q-32 0 -52.5 19t-20.5 48z" />
    <glyph glyph-name="Ygrave" unicode="&#x1ef2;" horiz-adv-x="653" 
d="M651 725l-268 -404v-321h-109v321l-272 404h126l201 -309l200 309h122zM134 889l45 73l185 -128l-34 -54z" />
    <glyph glyph-name="ygrave" unicode="&#x1ef3;" horiz-adv-x="617" 
d="M540 518v-517q0 -97 -65.5 -154t-176.5 -57q-104 0 -165 47t-66 131h103q4 -45 38 -69.5t89 -24.5q66 0 102.5 32.5t36.5 89.5v128q-53 -86 -170 -86q-92 0 -142 54t-50 150v276h104v-263q0 -64 30.5 -96t86.5 -32q65 0 103 40.5t38 103.5v247h104zM114 682l45 73
l185 -128l-34 -54z" />
    <glyph glyph-name="endash" unicode="&#x2013;" horiz-adv-x="689" 
d="M56 325h578v-93h-578v93z" />
    <glyph glyph-name="emdash" unicode="&#x2014;" horiz-adv-x="889" 
d="M56 325h777v-93h-777v93z" />
    <glyph glyph-name="quoteleft" unicode="&#x2018;" horiz-adv-x="246" 
d="M126 599q30 -1 48 -20t18 -49q0 -32 -21 -51.5t-54 -19.5t-54 19.5t-21 50.5q0 28 22 62l97 143l50 -34z" />
    <glyph glyph-name="quoteright" unicode="&#x2019;" horiz-adv-x="246" 
d="M120 589q-30 1 -48 20t-18 49q0 32 21 51.5t54 19.5t54 -19.5t21 -50.5q0 -28 -22 -62l-97 -143l-50 34z" />
    <glyph glyph-name="quotesinglbase" unicode="&#x201a;" horiz-adv-x="219" 
d="M76 -1q-31 4 -48.5 22t-17.5 45q0 32 21 51.5t54 19.5q32 0 53 -19.5t21 -50.5q0 -29 -22 -60l-76 -113l-47 33z" />
    <glyph glyph-name="quotedblleft" unicode="&#x201c;" horiz-adv-x="456" 
d="M127 591q29 -1 47 -20t18 -49q0 -32 -21 -51.5t-54 -19.5q-32 0 -53 19.5t-21 50.5q0 28 22 62l96 143l50 -34zM335 591q30 -1 48 -20t18 -49q0 -32 -21 -51.5t-54 -19.5t-54 19.5t-21 50.5q0 28 22 62l97 143l50 -34z" />
    <glyph glyph-name="quotedblright" unicode="&#x201d;" horiz-adv-x="456" 
d="M121 585q-30 1 -48 20t-18 49q0 32 21 51.5t54 19.5q32 0 53.5 -19.5t21.5 -50.5q0 -28 -22 -62l-97 -143l-50 34zM329 585q-30 1 -48 20t-18 49q0 32 21 51.5t54 19.5t54 -19.5t21 -50.5q0 -28 -22 -62l-97 -143l-50 34z" />
    <glyph glyph-name="quotedblbase" unicode="&#x201e;" horiz-adv-x="421" 
d="M277 -1q-31 4 -48.5 22t-17.5 45q0 32 21 51.5t54 19.5q32 0 53 -19.5t21 -50.5q0 -29 -22 -60l-76 -113l-47 33zM76 -1q-31 4 -48.5 22t-17.5 45q0 32 21 51.5t54 19.5q32 0 53 -19.5t21 -50.5q0 -29 -22 -60l-76 -113l-47 33z" />
    <glyph glyph-name="dagger" unicode="&#x2020;" horiz-adv-x="424" 
d="M253 122h-81v416h-124v73h124v114h81v-114h124v-73h-124v-416z" />
    <glyph glyph-name="daggerdbl" unicode="&#x2021;" horiz-adv-x="424" 
d="M252 538v-230h125v-72h-125v-114h-81v114h-123v72h123v230h-123v73h123v114h81v-114h125v-73h-125z" />
    <glyph glyph-name="bullet" unicode="&#x2022;" horiz-adv-x="428" 
d="M212 407q58 0 99 -40t41 -98q0 -56 -41 -94.5t-99 -38.5q-56 0 -97 38q-40 37 -40 95t40 98t97 40z" />
    <glyph glyph-name="ellipsis" unicode="&#x2026;" horiz-adv-x="691" 
d="M42 66q0 31 21.5 51t53.5 20t53.5 -20t21.5 -51q0 -32 -21.5 -53t-53.5 -21t-53.5 21t-21.5 53zM271 66q0 31 21.5 51t53.5 20t53 -20t21 -51q0 -32 -21 -53t-53 -21t-53.5 21t-21.5 53zM500 66q0 31 21 51t53 20t53.5 -20t21.5 -51q0 -32 -21.5 -53t-53.5 -21t-53 21
t-21 53z" />
    <glyph glyph-name="perthousand" unicode="&#x2030;" horiz-adv-x="1284" 
d="M38 568q0 73 49.5 120t122.5 47t122.5 -47t49.5 -120t-49.5 -121t-122.5 -48t-122.5 48t-49.5 121zM628 725h86l-465 -725h-86zM300 568q0 41 -25.5 67t-64.5 26t-65 -26t-26 -67q0 -42 26 -68.5t65 -26.5t64.5 26.5t25.5 68.5zM495 157q0 74 49.5 121.5t122.5 47.5
t122 -47.5t49 -121.5q0 -73 -49 -120t-122 -47q-74 0 -123 47t-49 120zM901 157q0 73 50 121t123 48t122.5 -48t49.5 -121t-49.5 -120t-122.5 -47t-123 47t-50 120zM757 157q0 42 -25.5 68.5t-64.5 26.5t-65 -26.5t-26 -68.5q0 -41 26 -67t65 -26t64.5 26t25.5 67zM1164 157
q0 42 -25.5 68.5t-64.5 26.5t-65 -26.5t-26 -68.5q0 -41 26 -67t65 -26t64.5 26t25.5 67z" />
    <glyph glyph-name="minute" unicode="&#x2032;" horiz-adv-x="194" 
d="M79 453l-34 213q-2 14 -2 15q0 24 14.5 38t38.5 14t39.5 -13.5t15.5 -37.5q0 -2 -2 -16l-36 -213h-34z" />
    <glyph glyph-name="second" unicode="&#x2033;" horiz-adv-x="390" 
d="M79 453l-34 213q-2 14 -2 15q0 24 14.5 38t38.5 14t39 -14t15 -38q0 -12 -1 -15l-36 -213h-34zM275 453l-34 213q-2 14 -2 15q0 24 14.5 38t38.5 14t39 -14t15 -38q0 -12 -1 -15l-36 -213h-34z" />
    <glyph glyph-name="guilsinglleft" unicode="&#x2039;" horiz-adv-x="372" 
d="M206 474h98l-116 -206l116 -206h-98l-126 206z" />
    <glyph glyph-name="guilsinglright" unicode="&#x203a;" horiz-adv-x="372" 
d="M166 62h-98l117 206l-117 206h98l126 -206z" />
    <glyph glyph-name="fraction" unicode="&#x2044;" horiz-adv-x="534" 
d="M464 725h84l-483 -748h-83z" />
    <glyph glyph-name="uni2074" unicode="&#x2074;" horiz-adv-x="545" 
d="M27 339l276 371h123v-361h84v-80h-84v-148h-89v148h-310v70zM337 349v277l-209 -277h209z" />
    <glyph glyph-name="uni20A9" unicode="&#x20a9;" horiz-adv-x="841" 
d="M733 452l-21 -127h97v-69h-108l-42 -256h-134l-102 559l-100 -559h-133l-45 256h-113v69h101l-22 127h-79v68h67l-33 187h106l91 -582l103 582h113l105 -583l83 583h108l-31 -187h65v-68h-76z" />
    <glyph glyph-name="uni20AA" unicode="&#x20aa;" horiz-adv-x="758" 
d="M83 707h235q186 0 186 -187v-347h-92v333q0 59 -27.5 85.5t-82.5 26.5h-119v-618h-100v707zM251 187v347h92v-333q0 -59 27.5 -85.5t82.5 -26.5h119v618h100v-707h-235q-186 0 -186 187z" />
    <glyph glyph-name="Euro" unicode="&#x20ac;" 
d="M254 490h254l-10 -71h-263q-4 -23 -4 -59q0 -6 2 -44h258l-10 -71h-233q27 -79 89 -122t151 -44q52 0 80 7v-87q-53 -8 -86 -8q-134 0 -224 67.5t-120 186.5h-72v71h61q-2 38 -2 43q0 31 3 60h-62v71h77q33 112 121 174.5t215 63.5q51 0 89 -7v-89q-18 8 -79 8
q-86 0 -146.5 -39t-88.5 -111z" />
    <glyph glyph-name="uni20AE" unicode="&#x20ae;" horiz-adv-x="613" 
d="M358 616v-153l131 52v-72l-131 -52v-80l131 52v-71l-131 -52v-240h-106v198l-132 -52v71l132 52v80l-132 -53v72l132 53v195h-204v91h513v-91h-203z" />
    <glyph glyph-name="uni20B4" unicode="&#x20b4;" horiz-adv-x="646" 
d="M49 431h361q47 29 47 81q0 50 -35 79.5t-94 29.5q-64 0 -103.5 -36t-40.5 -96h-109q3 100 72.5 160t179.5 60q105 0 171 -53t66 -135q0 -53 -33 -90h66v-47h-548v47zM49 320h548v-48h-369q-43 -31 -43 -85q0 -52 33.5 -81t95.5 -29q71 0 110 40t37 107h109
q0 -108 -69.5 -171t-190.5 -63q-107 0 -169.5 51t-62.5 131q0 61 39 100h-68v48z" />
    <glyph glyph-name="uni20B8" unicode="&#x20b8;" horiz-adv-x="609" 
d="M561 707v-85h-513v85h513zM48 516h513v-91h-204v-425h-105v425h-204v91z" />
    <glyph glyph-name="uni20B9" unicode="&#x20b9;" horiz-adv-x="588" 
d="M534 643h-140q54 -47 65 -134h75v-66h-75q-8 -94 -74.5 -145.5t-173.5 -48.5l226 -249h-125l-244 262v71h139q65 0 102 29t43 81h-284v66h283q-14 108 -144 108h-139v90h466v-64z" />
    <glyph glyph-name="uni20BA" unicode="&#x20ba;" horiz-adv-x="701" 
d="M654 294q-2 -141 -92 -218q-88 -76 -240 -76h-97v245l-132 -53v71l132 53v80l-132 -53v72l132 52v240h106v-198l131 52v-71l-131 -52v-80l131 52v-71l-131 -52v-198q102 0 162.5 55.5t62.5 149.5h98z" />
    <glyph glyph-name="uni20BD" unicode="&#x20bd;" horiz-adv-x="635" 
d="M218 245v-76h175v-70h-175v-99h-109v99h-64v70h64v77h-64v69h64v392h242q118 0 182 -62t64 -172q0 -105 -67 -166.5t-179 -61.5h-133zM342 612h-124v-274h124q70 0 106.5 36t36.5 101q0 67 -37.5 102t-105.5 35z" />
    <glyph glyph-name="uni2113" unicode="&#x2113;" horiz-adv-x="451" 
d="M123 161l2 53q-35 -14 -94 -24v82q47 10 91 30v248q0 82 37.5 128.5t106.5 46.5q65 0 101.5 -42.5t36.5 -115.5q0 -90 -52 -172q-52 -84 -139 -140v-77q0 -96 90 -96q41 0 81 21v-86q-41 -22 -102 -22q-77 0 -118 44t-41 122zM312 562q0 39 -12.5 59.5t-34.5 20.5
q-52 0 -52 -86v-197q47 39 73 92.5t26 110.5z" />
    <glyph glyph-name="uni2116" unicode="&#x2116;" horiz-adv-x="1324" 
d="M531 725h106v-725h-106l-338 539v-539h-107v725h107l338 -541v541zM1244 417q0 -102 -69 -167.5t-177 -65.5q-110 0 -178.5 65t-68.5 168q0 102 69.5 168t177.5 66q107 0 176.5 -66t69.5 -168zM1139 417q0 65 -39 105t-102 40q-62 0 -101.5 -40.5t-39.5 -104.5
q0 -65 39 -105t102 -40q62 0 101.5 40.5t39.5 104.5zM840 87h316v-87h-316v87z" />
    <glyph glyph-name="trademark" unicode="&#x2122;" horiz-adv-x="734" 
d="M11 725h265v-60h-99v-269h-67v269h-99v60zM330 725h84l88 -238l89 238h84v-329h-64v76q0 76 2 154l-80 -206h-62l-83 213q6 -57 6 -161v-76h-64v329z" />
    <glyph glyph-name="arrowup" unicode="&#x2191;" horiz-adv-x="564" 
d="M235 465h-161l209 184l207 -184h-163v-365h-92v365z" />
    <glyph glyph-name="arrowdown" unicode="&#x2193;" horiz-adv-x="564" 
d="M327 649v-365h163l-207 -184l-209 184h161v365h92z" />
    <glyph glyph-name="minus" unicode="&#x2212;" horiz-adv-x="566" 
d="M494 376v-86h-422v86h422z" />
    <glyph glyph-name="i.loclTRK" horiz-adv-x="269" 
d="M83 518h103v-518h-103v518zM62 655q0 29 20.5 48t52.5 19q31 0 51.5 -19t20.5 -48t-20.5 -48t-51.5 -19q-32 0 -52.5 19t-20.5 48z" />
    <glyph glyph-name="germandbls.calt" horiz-adv-x="610" 
d="M325 -7q-33 0 -76 8v94q30 -8 61 -8q67 0 106.5 39t39.5 104q0 67 -41 104t-111 37h-33v86h30q49 0 77 28t28 75q0 48 -29.5 76.5t-78.5 28.5q-53 0 -82.5 -34.5t-29.5 -90.5v-540h-105v542q1 101 59.5 159.5t159.5 58.5q98 0 156 -52t58 -138q0 -56 -26 -96.5t-70 -53.5
q68 -17 108 -72.5t40 -130.5q0 -98 -68 -161t-173 -63z" />
    <glyph glyph-name="uni0414.loclBGR" horiz-adv-x="785" 
d="M744 94v-214h-108v120h-490v-120h-108v214q88 12 125 75t37 184v372h461v-631h83zM206 94h347v536h-249v-254q0 -114 -23.5 -181t-74.5 -101z" />
    <glyph glyph-name="uni041B.loclBGR" horiz-adv-x="775" 
d="M15 -3v86h36q80 0 80 74v568h557v-725h-109v629h-339v-477q0 -159 -164 -159q-40 0 -61 4z" />
    <glyph glyph-name="uni0424.loclBGR" horiz-adv-x="877" 
d="M486 84v-84h-94v83q-150 11 -238 82q-87 73 -87 198q0 127 89 198q88 72 236 81v83h94v-83q152 -10 238 -82.5t86 -196.5q0 -127 -89 -199q-89 -71 -235 -80zM392 187v352q-102 -9 -157 -55t-55 -121q0 -76 56 -122t156 -54zM697 363q0 75 -55.5 121t-155.5 55v-352
q101 9 156 55.5t55 120.5z" />
    <glyph glyph-name="uni0432.loclBGR" horiz-adv-x="564" 
d="M518 144q0 -64 -44 -104t-126 -40h-267v518h260q74 0 117.5 -38t43.5 -102q0 -75 -67 -111q39 -12 61 -45t22 -78zM181 302h134q40 0 62.5 19.5t22.5 52.5q0 31 -21.5 48.5t-57.5 17.5h-140v-138zM413 152q0 37 -24.5 55.5t-63.5 18.5h-144v-148h143q89 0 89 74z" />
    <glyph glyph-name="uni0433.loclBGR" horiz-adv-x="427" 
d="M81 518h327v-88h-223v-430h-104v518z" />
    <glyph glyph-name="uni0434.loclBGR" horiz-adv-x="683" 
d="M630 85v-195h-97v110h-377v-110h-97v195q120 24 120 170v263h374v-433h77zM190 85h261v347h-174v-172q0 -128 -87 -175z" />
    <glyph glyph-name="uni0436.loclBGR" horiz-adv-x="789" 
d="M223 250q-44 18 -63 64l-32 76q-20 48 -72 48q-15 0 -30 -3l-1 84q21 7 54 7q54 0 82.5 -22t47.5 -66l43 -97q25 -51 76 -51h15v228h103v-228h15q53 0 76 51l43 97q19 44 47.5 66t82.5 22q33 0 54 -7l-1 -84q-15 3 -30 3q-31 0 -46.5 -11t-25.5 -37l-32 -76
q-21 -49 -63 -65l195 -249h-117l-183 240h-15v-240h-103v240h-15l-183 -240h-117z" />
    <glyph glyph-name="uni0437.loclBGR" horiz-adv-x="500" 
d="M148 148q3 -34 29.5 -55t70.5 -21q47 0 74 22t27 59q0 36 -25.5 56.5t-66.5 20.5h-63v69h58q39 0 63 20t24 54t-24 53t-65 19q-42 0 -67.5 -19.5t-26.5 -54.5h-99q1 72 54.5 113.5t141.5 41.5q85 0 136.5 -39t51.5 -103q0 -39 -19.5 -69.5t-53.5 -44.5q41 -14 63.5 -47
t22.5 -77q0 -70 -55.5 -112.5t-147.5 -42.5t-146.5 42t-57.5 115h101z" />
    <glyph glyph-name="uni0438.loclBGR" horiz-adv-x="610" 
d="M535 518v-518h-104v358l-247 -358h-103v518h104v-359l248 359h102z" />
    <glyph glyph-name="uni0439.loclBGR" horiz-adv-x="610" 
d="M535 518v-518h-104v358l-247 -358h-103v518h104v-359l248 359h102z" />
    <glyph glyph-name="uni045D.loclBGR" horiz-adv-x="610" 
d="M535 518v-518h-104v358l-247 -358h-103v518h104v-359l248 359h102zM142 703l45 73l185 -128l-34 -54z" />
    <glyph glyph-name="uni043A.loclBGR" horiz-adv-x="550" 
d="M81 518h104v-229h15q57 0 86 60l44 89q43 88 136 88q31 0 52 -7v-88q-18 3 -28 3q-30 0 -45 -11.5t-29 -38.5l-39 -68q-26 -48 -63 -63l214 -253h-134l-184 221l-25 -1v-220h-104v518z" />
    <glyph glyph-name="uni043B.loclBGR" horiz-adv-x="601" 
d="M26 -3v82q5 -1 27 -1q54 0 54 48v392h413v-518h-101v432h-209v-312q0 -127 -131 -127q-33 0 -53 4z" />
    <glyph glyph-name="uni043F.loclBGR" horiz-adv-x="598" 
d="M81 518h441v-518h-104v430h-233v-430h-104v518z" />
    <glyph glyph-name="uni0442.loclBGR" horiz-adv-x="506" 
d="M23 518h448v-88h-172v-430h-104v430h-172v88z" />
    <glyph glyph-name="uni0446.loclBGR" horiz-adv-x="626" 
d="M81 518h104v-431h233v431h104v-431h77v-197h-96v110h-422v518z" />
    <glyph glyph-name="uni0448.loclBGR" horiz-adv-x="858" 
d="M81 518h103v-431h196v431h103v-431h196v431h103v-518h-701v518z" />
    <glyph glyph-name="uni0449.loclBGR" horiz-adv-x="896" 
d="M81 518h103v-431h196v431h103v-431h196v431h103v-431h77v-197h-96v110h-682v518z" />
    <glyph glyph-name="uni044C.loclBGR" horiz-adv-x="537" 
d="M187 518v-188h126q81 0 130.5 -45.5t49.5 -119.5q0 -73 -49.5 -119t-130.5 -46h-232v518h106zM187 84h103q42 0 67 22t25 60t-24.5 60t-66.5 22h-104v-164z" />
    <glyph glyph-name="uni044A.loclBGR" horiz-adv-x="603" 
d="M559 165q0 -73 -49.5 -119t-130.5 -46h-233v431h-123v87h230v-188h126q81 0 130.5 -45.5t49.5 -119.5zM447 166q0 38 -24.5 60t-65.5 22h-104v-164h103q42 0 66.5 22t24.5 60z" />
    <glyph glyph-name="uni044E.loclBGR" horiz-adv-x="863" 
d="M820 259q0 -119 -79 -194t-201 -75q-112 0 -188.5 62t-89.5 165h-82v-217h-99v518h99v-217h82q13 103 89.5 165t188.5 62q122 0 201 -75t79 -194zM713 259q0 81 -47 129.5t-125 48.5q-79 0 -127 -49t-48 -130t48 -129t126 -48q79 0 126 48.5t47 129.5z" />
    <glyph glyph-name="uni0431.loclSRB" horiz-adv-x="619" 
d="M596 249q0 -115 -77.5 -187t-199.5 -72q-134 0 -207 91t-73 249q0 187 98 296t272 109q92 0 163 -27v-92q-78 28 -159 28q-122 0 -195 -69t-85 -193q27 55 83 86.5t128 31.5q110 0 181 -70t71 -181zM490 250q0 76 -46.5 119.5t-122.5 43.5q-78 0 -124 -45.5t-46 -120.5
t46.5 -120.5t123.5 -45.5q76 0 122.5 46t46.5 123z" />
    <glyph glyph-name="zero.dnom" horiz-adv-x="466" 
d="M37 268q0 133 51 202.5t146 69.5q93 0 144 -72t51 -202q0 -133 -51.5 -203.5t-144.5 -70.5q-96 0 -146 72t-50 204zM337 266q0 197 -104 197t-104 -195q0 -198 103 -198q105 0 105 196z" />
    <glyph glyph-name="one.dnom" horiz-adv-x="383" 
d="M49 438l172 95h69v-533h-88v432l-153 -81v87z" />
    <glyph glyph-name="two.dnom" horiz-adv-x="446" 
d="M405 78v-78h-357v56q150 117 206 190q56 74 56 127q0 42 -24 65.5t-65 23.5t-65 -24t-24 -63l1 -13h-86q-5 80 44 129t133 49q80 0 128 -44.5t48 -116.5q0 -70 -51 -143t-165 -160l41 2h180z" />
    <glyph glyph-name="three.dnom" horiz-adv-x="452" 
d="M410 169q0 -79 -55 -128t-143 -49q-87 0 -142 47q-53 48 -53 125h88q1 -42 30.5 -68.5t75.5 -26.5t76.5 28.5t30.5 73.5t-30 71t-76 26q-33 0 -63 -15l-32 53l151 149h-216v78h328v-75l-129 -127q70 -2 114.5 -47t44.5 -115z" />
    <glyph glyph-name="four.dnom" horiz-adv-x="492" 
d="M23 198l246 335h119v-323h75v-78h-75v-132h-88v132h-277v66zM300 210v239l-178 -239h178z" />
    <glyph glyph-name="five.dnom" horiz-adv-x="471" 
d="M434 176q0 -81 -56.5 -132.5t-146.5 -51.5q-87 0 -140.5 47t-55.5 125h88q1 -44 30.5 -69.5t75.5 -25.5q51 0 81.5 29t30.5 76t-29.5 76t-78.5 29q-31 0 -57.5 -13.5t-38.5 -35.5h-84l44 303h306v-78h-235l-21 -130q43 31 103 31q80 0 132 -50t52 -130z" />
    <glyph glyph-name="six.dnom" horiz-adv-x="475" 
d="M445 175q0 -80 -56.5 -131t-146.5 -51q-91 0 -145.5 53t-54.5 132q0 66 39 130q15 24 45 66l115 159h111l-148 -189q26 9 57 9q81 0 132.5 -50t51.5 -128zM353 174q0 47 -30.5 76t-80.5 29q-49 0 -78.5 -28.5t-29.5 -75.5t30 -76t80 -29q49 0 79 28.5t30 75.5z" />
    <glyph glyph-name="seven.dnom" horiz-adv-x="424" 
d="M391 533v-69l-43 -68q-57 -90 -88 -149q-27 -49 -42 -108q-14 -61 -14 -139h-94q0 152 63 270q36 63 99 160l17 25h-255v78h357z" />
    <glyph glyph-name="eight.dnom" horiz-adv-x="471" 
d="M430 156q0 -74 -53.5 -119t-141.5 -45q-89 0 -142.5 45t-53.5 118q0 48 24.5 86t66.5 55q-64 33 -64 108q0 62 45.5 99t123.5 37t123.5 -37.5t45.5 -99.5q0 -72 -63 -108q40 -16 64.5 -53.5t24.5 -85.5zM153 397q0 -32 23 -51.5t59 -19.5q37 0 59 19.5t22 51.5
q0 31 -22.5 49.5t-58.5 18.5q-37 0 -59.5 -18.5t-22.5 -49.5zM340 161q0 41 -29.5 67t-75.5 26q-47 0 -76.5 -26.5t-29.5 -66.5q0 -41 29.5 -66.5t76.5 -25.5t76 25.5t29 66.5z" />
    <glyph glyph-name="nine.dnom" horiz-adv-x="475" 
d="M441 354q0 -50 -19 -91.5t-65 -103.5l-115 -159h-110l147 189q-25 -9 -58 -9q-81 0 -132 49.5t-51 128.5q0 80 56.5 131t146.5 51q92 0 146 -53t54 -133zM240 254q49 0 79 28.5t30 75.5t-30 76t-80 29q-49 0 -79 -28.5t-30 -75.5t30.5 -76t79.5 -29z" />
    <glyph glyph-name="zero.numr" horiz-adv-x="466" 
d="M37 445q0 134 51 203.5t146 69.5q93 0 144 -72t51 -202q0 -134 -51.5 -204t-144.5 -70q-96 0 -146 71.5t-50 203.5zM337 444q0 197 -104 197t-104 -195q0 -199 103 -199q105 0 105 197z" />
    <glyph glyph-name="one.numr" horiz-adv-x="383" 
d="M49 615l172 95h69v-533h-88v432l-153 -81v87z" />
    <glyph glyph-name="two.numr" horiz-adv-x="446" 
d="M405 255v-78h-357v56q150 117 206 190q56 74 56 127q0 42 -24 65.5t-65 23.5t-65 -24t-24 -63l1 -13h-86q-5 80 44 129t133 49q80 0 128 -44.5t48 -116.5q0 -70 -51 -143t-165 -160l41 2h180z" />
    <glyph glyph-name="three.numr" horiz-adv-x="452" 
d="M410 346q0 -79 -55 -128t-143 -49q-87 0 -142 47q-53 48 -53 125h88q1 -42 30.5 -68.5t75.5 -26.5t76.5 28.5t30.5 73.5t-30 71t-76 26q-33 0 -63 -15l-32 53l151 149h-216v78h328v-75l-129 -127q70 -2 114.5 -47t44.5 -115z" />
    <glyph glyph-name="four.numr" horiz-adv-x="492" 
d="M23 375l246 335h119v-323h75v-78h-75v-132h-88v132h-277v66zM300 387v239l-178 -239h178z" />
    <glyph glyph-name="five.numr" horiz-adv-x="471" 
d="M434 353q0 -81 -56.5 -132.5t-146.5 -51.5q-87 0 -140.5 47t-55.5 125h88q1 -44 30.5 -69.5t75.5 -25.5q51 0 81.5 29t30.5 76t-29.5 76t-78.5 29q-31 0 -57.5 -13.5t-38.5 -35.5h-84l44 303h306v-78h-235l-21 -130q43 31 103 31q80 0 132 -50t52 -130z" />
    <glyph glyph-name="six.numr" horiz-adv-x="475" 
d="M445 352q0 -80 -56.5 -131t-146.5 -51q-91 0 -145.5 53t-54.5 132q0 66 39 130q15 24 45 66l115 159h111l-148 -189q26 9 57 9q81 0 132.5 -50t51.5 -128zM353 351q0 47 -30.5 76t-80.5 29q-49 0 -78.5 -28.5t-29.5 -75.5t30 -76t80 -29q49 0 79 28.5t30 75.5z" />
    <glyph glyph-name="seven.numr" horiz-adv-x="424" 
d="M391 710v-69l-43 -68q-57 -90 -88 -149q-27 -50 -42 -108q-14 -61 -14 -139h-94q0 152 63 270q36 63 99 160l17 25h-255v78h357z" />
    <glyph glyph-name="eight.numr" horiz-adv-x="471" 
d="M430 333q0 -74 -53 -118.5t-142 -44.5q-90 0 -143 44.5t-53 117.5q0 48 24.5 86t66.5 55q-64 33 -64 108q0 62 45.5 99t123.5 37q77 0 123 -37.5t46 -98.5q0 -75 -64 -109q41 -16 65.5 -53.5t24.5 -85.5zM153 574q0 -32 23 -51.5t59 -19.5t58.5 20t22.5 51t-22.5 50
t-58.5 19q-37 0 -59.5 -19t-22.5 -50zM340 338q0 41 -29.5 67t-75.5 26q-47 0 -76.5 -26t-29.5 -67t29.5 -66.5t76.5 -25.5t76 25.5t29 66.5z" />
    <glyph glyph-name="nine.numr" horiz-adv-x="475" 
d="M441 527q0 -51 -19 -92.5t-65 -103.5l-115 -159h-110l146 189q-26 -9 -57 -9q-81 0 -132 49.5t-51 128.5q0 80 56.5 131t146.5 51q92 0 146 -52.5t54 -132.5zM240 426q49 0 79 28.5t30 75.5q0 48 -30 77t-80 29q-49 0 -79 -29t-30 -76t30.5 -76t79.5 -29z" />
    </font>
</defs>
</svg>
