<svg xmlns="http://www.w3.org/2000/svg">
<defs>
<font id="Aktifo-A-Book" horiz-adv-x="594" >
  <font-face 
    font-family="Aktifo-A Book"
    font-weight="400"
    font-stretch="normal"
    units-per-em="1000"
    panose-1="2 0 5 0 0 0 0 0 0 0"
    ascent="784"
    descent="-216"
    x-height="513"
    cap-height="725"
    bbox="-65 -227 1392 970"
    underline-thickness="50"
    underline-position="-200"
    unicode-range="U+000D-2212"
  />
<missing-glyph horiz-adv-x="1013" 
d="M676 662q0 27 18.5 45t45.5 18t45 -18t18 -45t-18 -44t-45 -17t-45.5 17t-18.5 44zM841 662q0 27 18.5 45t45.5 18q26 0 44.5 -18t18.5 -45q0 -26 -18.5 -43.5t-44.5 -17.5q-27 0 -45.5 17t-18.5 44zM200 601q42 0 42 61q0 60 -42 60q-43 0 -43 -60q0 -61 43 -61zM44 631
h61v-28h20v28h15v18h-15v72h-25l-56 -74v-16zM257 631h62v-28h20v28h16v18h-16v72h-26l-56 -74v-16zM200 618q-23 0 -23 44q0 43 23 43q22 0 22 -43q0 -44 -22 -44zM66 649l39 53v-53h-39zM279 649l40 53v-53h-40zM740 653l24 -26l10 10l-25 25l25 26l-10 10l-24 -26l-26 26
l-9 -10l26 -26l-26 -25l9 -10zM905 653l25 -26l9 10l-27 25l27 26l-9 10l-25 -26l-26 26l-9 -10l26 -26l-26 -25l9 -10zM969 470v-21h-925v21h925zM188 277h19v121h-19v-121zM450 277h18v45q0 24 23 24q19 0 19 -19v-50h18v53q0 34 -30 34q-18 0 -30 -16v50h-18v-121z
M166 339h-66v-16h46q-2 -31 -38 -31q-40 0 -40 42q0 20 10.5 32.5t29.5 12.5q28 0 34 -22h21q-4 18 -18.5 29t-36.5 11q-27 0 -44 -17t-17 -44q0 -29 16.5 -45.5t44.5 -16.5q26 0 42 15.5t16 40.5v9zM759 395v-87l-60 87h-22v-118h20v87l60 -87h22v118h-20zM927 277h18v68
h24v16h-24v23l-18 -1v-22h-25v-16h25v-68zM388 364q-21 0 -34 -16l-2 13h-16v-118h19v44q13 -13 31 -13q20 0 32 12.5t12 32.5q0 19 -12 32t-30 13zM585 274q16 0 25.5 8t9.5 21q0 18 -23 23l-18 2q-12 4 -12 9q0 11 16 11q17 0 18 -12h18q0 13 -10 20.5t-26 7.5
q-15 0 -24.5 -7.5t-9.5 -20.5q0 -18 26 -24l15 -2q11 -3 11 -11q0 -10 -16 -10q-19 0 -19 14h-18q2 -29 37 -29zM798 319q0 -20 13.5 -32.5t34.5 -12.5q20 0 33.5 12.5t13.5 32.5q0 19 -13.5 32t-33.5 13q-21 0 -34.5 -12.5t-13.5 -32.5zM222 361l39 -69l-28 -49h22l65 118

<glyph glyph-name="fi" unicode="fi" horiz-adv-x="667" 
d="M601 706q0 -25 -18 -41.5t-44 -16.5q-28 0 -46.5 16.5t-18.5 41.5t18.5 41t46.5 16q26 0 44 -16t18 -41zM580 0h-83v442h-257v-442h-83v442h-129v71h129v79q0 63 31 113q32 51 129 51q27 0 61 -6v-65q-18 2 -33 2q-59 0 -82 -22.5t-23 -75.5v-76h340v-513z" />
    <glyph glyph-name="fl" unicode="fl" horiz-adv-x="670" 
d="M582 750v-750h-83v442h-259v-442h-83v442h-129v71h129v79q0 63 31 113q32 51 129 51q27 0 61 -6v-65q-18 2 -33 2q-59 0 -82 -22.5t-23 -75.5v-76h259v237h83z" />
    <glyph glyph-name="T_J" unicode="TJ" horiz-adv-x="1059" 
d="M969 208q0 -102 -63.5 -160t-165.5 -58t-161 58.5t-60 157.5v36l84 8v-43q0 -68 37 -103.5t102 -35.5q66 0 104 38t38 101v444h-541v-651h-86v651h-238v74h950v-517z" />
    <glyph glyph-name="T_T" unicode="TT" horiz-adv-x="1009" 
d="M990 651h-236v-651h-86v651h-325v-651h-86v651h-238v74h971v-74z" />
    <glyph glyph-name="T_j" unicode="Tj" horiz-adv-x="855" 
d="M789 685q0 -26 -18.5 -42.5t-46.5 -16.5t-46.5 16.5t-18.5 42.5q0 25 18.5 41.5t46.5 16.5t46.5 -16.5t18.5 -41.5zM346 651v-651h-86v651h-241v74h564v-74h-237zM678 513h82v-550q0 -85 -45.5 -128t-127.5 -43q-27 0 -70 8v63h44q64 0 90.5 25t26.5 78v547z" />
    <glyph glyph-name="f_f" unicode="ff" horiz-adv-x="764" 
d="M743 513v-71h-158v-442h-83v442h-262v-442h-83v442h-129v71h129v79q0 63 31 113q32 51 129 51q27 0 61 -6v-65q-18 2 -33 2q-59 0 -82 -22.5t-23 -75.5v-76h262v79q0 63 31 113q31 51 129 51q26 0 61 -6v-65q-18 2 -33 2q-59 0 -82 -22.5t-23 -75.5v-76h158z" />
    <glyph glyph-name="f_f_i" unicode="ffi" horiz-adv-x="992" 
d="M927 706q0 -26 -17.5 -42.5t-45.5 -16.5q-29 0 -47 16.5t-18 42.5q0 24 18 40.5t47 16.5q27 0 45 -16.5t18 -40.5zM905 0h-83v442h-237v-442h-83v442h-262v-442h-83v442h-129v71h129v79q0 63 31 113q32 51 129 51q27 0 61 -6v-65q-18 2 -33 2q-59 0 -82 -22.5t-23 -75.5
v-76h262v79q0 63 31 113q31 51 129 51q26 0 61 -6v-65q-18 2 -33 2q-59 0 -82 -22.5t-23 -75.5v-76h320v-513z" />
    <glyph glyph-name="f_f_l" unicode="ffl" horiz-adv-x="1015" 
d="M926 750v-750h-82v442h-259v-442h-83v442h-262v-442h-83v442h-129v71h129v79q0 63 31 113q32 51 129 51q27 0 61 -6v-65q-18 2 -33 2q-59 0 -82 -22.5t-23 -75.5v-76h262v79q0 63 31 113q31 51 129 51q26 0 61 -6v-65q-18 2 -33 2q-59 0 -82 -22.5t-23 -75.5v-76h259v237
h82z" />
    <glyph glyph-name="f_t" unicode="ft" horiz-adv-x="762" 
d="M575 442v-288q0 -50 22.5 -70.5t73.5 -20.5q10 0 42 2v-65q-39 -7 -76 -7q-61 0 -95 24.5t-43 61.5q-7 31 -7 71v292h-252v-442h-83v442h-129v71h129v79q0 63 31 113q32 51 129 51q27 0 61 -6v-65q-18 2 -33 2q-59 0 -82 -22.5t-23 -75.5v-76h252v177h83v-177h147v-71
h-147z" />
    <glyph glyph-name="g_j" unicode="gj" horiz-adv-x="828" 
d="M761 706q0 -26 -18 -42.5t-46 -16.5q-29 0 -47 16.5t-18 42.5q0 24 18 40.5t47 16.5q28 0 46 -16.5t18 -40.5zM531 -56q0 -71 -45.5 -108.5t-130.5 -37.5h-159q-91 0 -137.5 36.5t-46.5 105.5t48 107t128 38h23v91q-75 11 -118 56.5t-43 113.5q0 79 58 128t147 49h265
v-66l-118 13q55 -46 55 -122q0 -71 -46.5 -117.5t-124.5 -55.5v-90h70q84 0 129.5 -37t45.5 -104zM651 513h82v-713h-82v713zM254 236q57 0 90.5 30.5t33.5 81.5t-34 81t-91 30q-58 0 -91.5 -30.5t-33.5 -81.5t34.5 -81t91.5 -30zM449 -53q0 80 -103 80h-149
q-51 0 -77.5 -21.5t-26.5 -60.5q0 -81 107 -81h146q103 0 103 83z" />
    <glyph glyph-name="j_j" unicode="jj" horiz-adv-x="535" 
d="M78 706q0 24 18 40.5t47 16.5q28 0 46 -16.5t18 -40.5q0 -26 -18 -42.5t-46 -16.5q-29 0 -47 16.5t-18 42.5zM339 706q0 24 18 40.5t47 16.5q28 0 46 -16.5t18 -40.5q0 -26 -18 -42.5t-46 -16.5q-29 0 -47 16.5t-18 42.5zM-65 -200v63h44q64 0 91 25t27 78v547h82v-550
q0 -85 -45.5 -128t-127.5 -43q-28 0 -71 8zM358 513h82v-713h-82v713z" />
    <glyph glyph-name="t_f" unicode="tf" horiz-adv-x="758" 
d="M737 513v-71h-158v-442h-83v442h-259v-288q0 -49 23 -70t74 -21q9 0 41 2v-65q-39 -7 -75 -7q-61 0 -95 24.5t-43 61.5q-7 31 -7 71v292h-128v71h128v177h82v-177h259v79q0 63 31 113q31 51 129 51q26 0 61 -6v-65q-22 2 -33 2q-59 0 -82 -22.5t-23 -75.5v-76h158z" />
    <glyph glyph-name="t_i" unicode="ti" horiz-adv-x="690" 
d="M625 706q0 -26 -18 -42.5t-46 -16.5t-46.5 16.5t-18.5 42.5q0 24 18.5 40.5t46.5 16.5t46 -16.5t18 -40.5zM602 0h-82v442h-283v-288q0 -49 23 -70t74 -21q9 0 41 2v-65q-39 -7 -75 -7q-61 0 -95 24.5t-43 61.5q-7 31 -7 71v292h-128v71h128v177h82v-177h365v-513z" />
    <glyph glyph-name="t_t" unicode="tt" horiz-adv-x="758" 
d="M570 442v-288q0 -49 23 -70t74 -21q9 0 41 2v-65q-39 -7 -75 -7q-61 0 -95 24.5t-43 61.5q-7 31 -7 71v292h-251v-288q0 -49 23 -70t74 -21q9 0 41 2v-65q-39 -7 -75 -7q-61 0 -95 24.5t-43 61.5q-7 31 -7 71v292h-128v71h128v177h82v-177h251v177h82v-177h148v-71h-148z
" />
    <glyph glyph-name=".notdef" horiz-adv-x="1013" 
d="M676 662q0 27 18.5 45t45.5 18t45 -18t18 -45t-18 -44t-45 -17t-45.5 17t-18.5 44zM841 662q0 27 18.5 45t45.5 18q26 0 44.5 -18t18.5 -45q0 -26 -18.5 -43.5t-44.5 -17.5q-27 0 -45.5 17t-18.5 44zM200 601q42 0 42 61q0 60 -42 60q-43 0 -43 -60q0 -61 43 -61zM44 631
h61v-28h20v28h15v18h-15v72h-25l-56 -74v-16zM257 631h62v-28h20v28h16v18h-16v72h-26l-56 -74v-16zM200 618q-23 0 -23 44q0 43 23 43q22 0 22 -43q0 -44 -22 -44zM66 649l39 53v-53h-39zM279 649l40 53v-53h-40zM740 653l24 -26l10 10l-25 25l25 26l-10 10l-24 -26l-26 26
l-9 -10l26 -26l-26 -25l9 -10zM905 653l25 -26l9 10l-27 25l27 26l-9 10l-25 -26l-26 26l-9 -10l26 -26l-26 -25l9 -10zM969 470v-21h-925v21h925zM188 277h19v121h-19v-121zM450 277h18v45q0 24 23 24q19 0 19 -19v-50h18v53q0 34 -30 34q-18 0 -30 -16v50h-18v-121z
M166 339h-66v-16h46q-2 -31 -38 -31q-40 0 -40 42q0 20 10.5 32.5t29.5 12.5q28 0 34 -22h21q-4 18 -18.5 29t-36.5 11q-27 0 -44 -17t-17 -44q0 -29 16.5 -45.5t44.5 -16.5q26 0 42 15.5t16 40.5v9zM759 395v-87l-60 87h-22v-118h20v87l60 -87h22v118h-20zM927 277h18v68
h24v16h-24v23l-18 -1v-22h-25v-16h25v-68zM388 364q-21 0 -34 -16l-2 13h-16v-118h19v44q13 -13 31 -13q20 0 32 12.5t12 32.5q0 19 -12 32t-30 13zM585 274q16 0 25.5 8t9.5 21q0 18 -23 23l-18 2q-12 4 -12 9q0 11 16 11q17 0 18 -12h18q0 13 -10 20.5t-26 7.5
q-15 0 -24.5 -7.5t-9.5 -20.5q0 -18 26 -24l15 -2q11 -3 11 -11q0 -10 -16 -10q-19 0 -19 14h-18q2 -29 37 -29zM798 319q0 -20 13.5 -32.5t34.5 -12.5q20 0 33.5 12.5t13.5 32.5q0 19 -13.5 32t-33.5 13q-21 0 -34.5 -12.5t-13.5 -32.5zM222 361l39 -69l-28 -49h22l65 118
h-22l-27 -51l-27 51h-22zM382 290q-12 0 -19.5 7.5t-7.5 20.5v2q0 26 27 26q29 0 29 -27q0 -29 -29 -29zM818 319q0 27 28 27q27 0 27 -27q0 -12 -7.5 -20.5t-19.5 -8.5q-28 0 -28 29zM536 201v-49q-12 12 -33 12q-42 0 -42 -43q0 -20 11 -32.5t30 -12.5q22 0 34 16l1 -15
h17v124h-18zM53 77h20v53h59v17h-59v33h65v17h-85v-120zM585 118h12l4 79h-22zM146 121q0 -19 13.5 -32t33.5 -13q21 0 34.5 12.5t13.5 32.5t-13.5 31.5t-34.5 11.5t-34 -11.5t-13 -31.5zM363 77h18v46q0 26 23 26q19 0 19 -19v-53h18v55q0 32 -30 32q-23 0 -30 -13l-1 12
h-17v-86zM290 76q20 0 29 16l1 -15h17v86h-18v-49q0 -21 -24 -21q-17 0 -17 20v50h-19v-53q0 -34 31 -34zM166 121q0 12 7.5 20t19.5 8q28 0 28 -28t-28 -28q-12 0 -19.5 7.5t-7.5 20.5zM507 93q-12 0 -20 7.5t-8 20.5q0 12 7.5 20t20.5 8q29 0 29 -27v-3q0 -26 -29 -26z
M590 76q12 0 12 14q0 12 -12 12q-13 0 -13 -12q0 -5 4 -9.5t9 -4.5zM969 22v-21h-925v21h925z" />
    <glyph glyph-name=".null" horiz-adv-x="0" 
 />
    <glyph glyph-name="nonmarkingreturn" horiz-adv-x="333" 
 />
    <glyph glyph-name="CR" unicode="&#xd;" horiz-adv-x="249" 
 />
    <glyph glyph-name="space" unicode=" " horiz-adv-x="230" 
 />
    <glyph glyph-name="exclam" unicode="!" horiz-adv-x="303" 
d="M107 725h91l-21 -498h-49zM88 55q0 26 18.5 43.5t46.5 17.5q26 0 44 -17.5t18 -43.5t-18 -44t-44 -18q-28 0 -46.5 18t-18.5 44z" />
    <glyph glyph-name="quotedbl" unicode="&#x22;" horiz-adv-x="367" 
d="M77 470l-30 201q-1 3 -1 11q0 21 12 32.5t33 11.5t33.5 -12t12.5 -33q0 -7 -1 -10l-31 -201h-28zM262 470l-30 201q-1 3 -1 11q0 21 12 32.5t33 11.5t33.5 -12t12.5 -33q0 -7 -1 -10l-31 -201h-28z" />
    <glyph glyph-name="numbersign" unicode="#" horiz-adv-x="770" 
d="M601 492l-55 -229h127l-13 -64h-129l-48 -199h-71l48 199h-237l-48 -199h-71l48 199h-95l14 64h96l55 229h-125l14 64h127l45 189h71l-45 -189h237l45 189h71l-45 -189h96l-13 -64h-99zM530 492h-237l-55 -229h237z" />
    <glyph glyph-name="dollar" unicode="$" horiz-adv-x="602" 
d="M330 35v-85h-56v85q-100 8 -161 62.5t-65 141.5h81q2 -63 49.5 -99.5t128.5 -36.5q75 0 118.5 31.5t43.5 84.5q0 84 -108 101l-122 18q-84 13 -128.5 56.5t-44.5 110.5q0 81 57 132t151 57v86h56v-86q91 -7 146.5 -57.5t58.5 -130.5h-79q-3 56 -46 89t-113 33
q-68 0 -106.5 -30t-38.5 -82q0 -54 32 -74q33 -19 74 -27l125 -19q84 -14 127.5 -58t43.5 -112q0 -81 -61 -133t-163 -58z" />
    <glyph glyph-name="percent" unicode="%" horiz-adv-x="866" 
d="M44 573q0 71 47.5 116.5t118.5 45.5t118 -45.5t47 -116.5t-47 -116.5t-118 -45.5t-118.5 45.5t-47.5 116.5zM634 725h77l-473 -725h-77zM307 573q0 45 -27.5 73.5t-69.5 28.5t-70 -28.5t-28 -73.5t28 -73.5t70 -28.5t69.5 28.5t27.5 73.5zM491 152q0 71 47.5 116.5
t118.5 45.5t118.5 -45.5t47.5 -116.5t-47.5 -116.5t-118.5 -45.5t-118.5 45.5t-47.5 116.5zM754 152q0 45 -27.5 73.5t-69.5 28.5t-69.5 -28.5t-27.5 -73.5t27.5 -73.5t69.5 -28.5t69.5 28.5t27.5 73.5z" />
    <glyph glyph-name="ampersand" unicode="&#x26;" horiz-adv-x="767" 
d="M658 349l-60 -156l139 -193h-103l-85 118q-34 -59 -98.5 -93.5t-142.5 -34.5q-107 0 -173 62.5t-66 163.5q0 96 63 162q62 66 169 86l-132 183v78h436l-1 -72h-337l281 -390l54 155h135v-69h-79zM505 179l-164 228q-87 -13 -136 -62t-49 -124q0 -70 44 -113t116 -43
q63 0 113.5 31t75.5 83z" />
    <glyph glyph-name="quotesingle" unicode="'" horiz-adv-x="182" 
d="M77 470l-30 201q-1 3 -1 12q0 20 12.5 31.5t32.5 11.5q21 0 33.5 -12t12.5 -33q0 -7 -1 -10l-31 -201h-28z" />
    <glyph glyph-name="parenleft" unicode="(" horiz-adv-x="435" 
d="M412 752v-66q-120 -30 -192 -135.5t-72 -254.5t72 -255.5t192 -134.5v-67q-155 27 -250 152.5t-95 304.5t95 304t250 152z" />
    <glyph glyph-name="parenright" unicode=")" horiz-adv-x="412" 
d="M0 -161v67q119 29 191.5 135.5t72.5 254.5q0 149 -72 254.5t-192 135.5v66q155 -27 250 -152t95 -304t-95 -304.5t-250 -152.5z" />
    <glyph glyph-name="asterisk" unicode="*" horiz-adv-x="447" 
d="M392 580q21 0 21 -20q0 -23 -26 -21l-137 10l104 -90q11 -8 11 -18q0 -9 -7 -16q-8 -6 -15 -6q-11 0 -18 10l-91 107l11 -140q2 -26 -22 -26q-22 0 -20 26l10 139l-90 -106q-9 -10 -19 -10q-8 0 -15 6q-6 7 -6 15q0 10 10 19l105 90l-139 -10q-12 -1 -19 5t-7 16
q0 22 26 20l141 -9l-107 90q-11 9 -11 18q0 8 7 15q8 7 15 7q9 0 18 -11l91 -105l-10 139v5q0 21 20 21q24 0 22 -26l-11 -140l91 106q9 10 18 10q7 0 15 -6q7 -6 7 -15t-10 -18l-106 -90l138 9h5z" />
    <glyph glyph-name="plus" unicode="+" horiz-adv-x="657" 
d="M365 84h-75v213h-206v71h206v202h75v-202h207v-71h-207v-213z" />
    <glyph glyph-name="comma" unicode="," horiz-adv-x="217" 
d="M98 -3q-27 4 -42.5 20t-15.5 38q0 27 18 44t46 17q27 0 45 -16.5t18 -41.5q0 -22 -18 -51l-70 -103l-37 27z" />
    <glyph glyph-name="hyphen" unicode="-" horiz-adv-x="484" 
d="M58 316h367v-74h-367v74z" />
    <glyph glyph-name="period" unicode="." horiz-adv-x="210" 
d="M42 55q0 26 18 43.5t45 17.5q26 0 44.5 -17.5t18.5 -43.5t-18.5 -44t-44.5 -18q-27 0 -45 18t-18 44z" />
    <glyph glyph-name="slash" unicode="/" horiz-adv-x="394" 
d="M315 725h79l-315 -725h-79z" />
    <glyph glyph-name="zero" unicode="0" horiz-adv-x="632" 
d="M65 357q0 178 64 270.5t187 92.5q120 0 185.5 -94t65.5 -270q0 -177 -65.5 -271.5t-185.5 -94.5q-123 0 -187 94t-64 273zM483 356q0 292 -167 292q-166 0 -166 -292q0 -293 166 -293q167 0 167 293z" />
    <glyph glyph-name="one" unicode="1" horiz-adv-x="485" 
d="M58 588l221 122h63v-710h-81v613l-203 -108v83z" />
    <glyph glyph-name="two" unicode="2" horiz-adv-x="597" 
d="M540 74v-74h-470v55l224 219q59 56 88.5 90.5t46.5 69.5q18 36 18 75q0 62 -44 101q-43 39 -109 39q-71 0 -113 -46q-42 -44 -40 -115l-77 5q0 103 64.5 165t169.5 62q102 0 168 -59.5t66 -149.5q0 -96 -90 -193q-46 -49 -111 -112l-146 -141q57 9 144 9h211z" />
    <glyph glyph-name="three" unicode="3" horiz-adv-x="621" 
d="M550 219q0 -101 -71.5 -165t-182.5 -64q-108 0 -176.5 61.5t-68.5 160.5h81q2 -66 47 -109q47 -42 118 -42q74 0 121 44q47 45 47 117t-48 112t-118 40q-49 0 -80 -16l-30 51l221 228h-315v73h416v-77l-193 -197q102 2 167 -59t65 -158z" />
    <glyph glyph-name="four" unicode="4" horiz-adv-x="649" 
d="M34 254l348 456h116v-450h105v-73h-105v-187h-81v187h-383v67zM417 260v379l-291 -379h291z" />
    <glyph glyph-name="five" unicode="5" horiz-adv-x="628" 
d="M566 231q0 -106 -72.5 -173.5t-188.5 -67.5q-111 0 -179.5 62t-68.5 163h79q1 -71 46 -112.5t121 -41.5q81 0 130 46.5t49 121.5q0 76 -47.5 122t-124.5 46q-49 0 -90.5 -20t-61.5 -53h-78l59 386h391v-73h-324l-34 -218q63 50 150 50q105 0 174.5 -66.5t69.5 -171.5z
" />
    <glyph glyph-name="six" unicode="6" horiz-adv-x="644" 
d="M579 227q0 -105 -72 -171t-186 -66q-117 0 -186.5 69.5t-69.5 169.5q0 85 54 173q23 34 57 84l159 224h103l-203 -268q46 20 101 20q108 0 175.5 -66t67.5 -169zM495 227q0 74 -48 119t-126 45q-79 0 -125.5 -44.5t-46.5 -118.5q0 -75 47.5 -120.5t126.5 -45.5
q77 0 124.5 45.5t47.5 119.5z" />
    <glyph glyph-name="seven" unicode="7" horiz-adv-x="565" 
d="M541 710v-65l-62 -90q-94 -137 -138 -212q-41 -72 -62 -150q-20 -82 -20 -193h-85q0 124 24 209q24 88 72 167q52 86 159 238l16 23h-421v73h517z" />
    <glyph glyph-name="eight" unicode="8" horiz-adv-x="635" 
d="M565 204q0 -96 -68 -155.5t-180 -59.5t-179.5 60t-67.5 155q0 64 33.5 115.5t89.5 74.5q-87 48 -87 146q0 83 57.5 131.5t154.5 48.5q96 0 153.5 -49.5t57.5 -130.5q0 -97 -85 -146q55 -23 88 -74.5t33 -115.5zM190 536q0 -50 35.5 -82t92.5 -32t92 32t35 82
q0 51 -35.5 82t-92.5 31t-92 -30.5t-35 -82.5zM480 208q0 64 -45 104.5t-117 40.5t-117.5 -40.5t-45.5 -104.5q0 -65 45 -106t118 -41t117.5 40.5t44.5 106.5z" />
    <glyph glyph-name="nine" unicode="9" horiz-adv-x="644" 
d="M579 481q0 -86 -53 -171q-21 -36 -57 -86l-159 -224h-103l199 267q-45 -19 -98 -19q-108 0 -175.5 66t-67.5 169t72 170t186 67q118 0 187 -69t69 -170zM324 319q78 0 124.5 44.5t46.5 118.5q0 75 -47.5 120.5t-126.5 45.5q-77 0 -124.5 -45t-47.5 -119t48 -119.5
t127 -45.5z" />
    <glyph glyph-name="colon" unicode=":" horiz-adv-x="286" 
d="M80 467q0 26 18.5 43.5t45.5 17.5t45 -17.5t18 -43.5t-18 -44t-45 -18t-45.5 18t-18.5 44zM80 99q0 26 18.5 43.5t45.5 17.5t45 -17.5t18 -43.5q0 -27 -18 -44.5t-45 -17.5t-45.5 17.5t-18.5 44.5z" />
    <glyph glyph-name="semicolon" unicode=";" horiz-adv-x="299" 
d="M87 471q0 26 18 43.5t46 17.5q26 0 44 -17.5t18 -43.5t-18 -44t-44 -18q-28 0 -46 18t-18 44zM144 46q-27 4 -42.5 19.5t-15.5 37.5q0 27 18 44t46 17q27 0 45 -16.5t18 -41.5q0 -26 -18 -51l-70 -103l-37 27z" />
    <glyph glyph-name="less" unicode="&#x3c;" horiz-adv-x="483" 
d="M48 277v87l289 191v-96l-208 -139l208 -154v-96z" />
    <glyph glyph-name="equal" unicode="=" horiz-adv-x="550" 
d="M80 447h388v-71h-388v71zM80 217h388v-71h-388v71z" />
    <glyph glyph-name="greater" unicode="&#x3e;" horiz-adv-x="483" 
d="M88 166l207 154l-207 139v96l288 -191v-88l-288 -206v96z" />
    <glyph glyph-name="question" unicode="?" horiz-adv-x="556" 
d="M214 390h47q75 0 118 37.5t43 101.5q0 60 -40 96t-105 36q-66 0 -106.5 -36t-39.5 -96h-80q2 92 64.5 149t162.5 57q101 0 164 -56.5t63 -146.5q0 -87 -58 -141q-58 -55 -152 -59v-119h-81v177zM190 58q0 27 19 45t47 18t47.5 -18t19.5 -45q0 -28 -19 -46.5t-48 -18.5
q-28 0 -47 18.5t-19 46.5z" />
    <glyph glyph-name="at" unicode="@" horiz-adv-x="947" 
d="M633 504v-236q0 -89 80 -89q60 0 94 51t34 136q0 147 -101 239.5t-260 92.5q-166 0 -270 -101.5t-104 -267.5q0 -167 104.5 -265t273.5 -98q134 0 247 55v-58q-100 -51 -248 -51q-192 -2 -315 114.5t-121 301.5q-2 185 120 305.5t313 118.5q181 2 301.5 -106.5
t117.5 -271.5q0 -110 -52 -177.5t-135 -67.5q-51 0 -84.5 24t-41.5 64q-19 -34 -58 -54t-86 -20q-78 0 -126 51.5t-48 132.5t50 132.5t124 51.5q42 0 79.5 -16.5t57.5 -45.5l3 55h51zM579 333q0 55 -37.5 91.5t-92.5 36.5t-90 -37.5t-35 -96.5q0 -58 35 -95t90 -37t92 36
q38 38 38 91v11z" />
    <glyph glyph-name="A" unicode="A" horiz-adv-x="724" 
d="M536 180h-350l-69 -180h-93l286 725h101l289 -725h-95zM510 250l-149 391l-149 -391h298z" />
    <glyph glyph-name="B" unicode="B" horiz-adv-x="702" 
d="M642 201q0 -92 -62 -146.5t-174 -54.5h-312v725h306q99 0 156.5 -52t57.5 -139q0 -49 -26.5 -92t-71.5 -67q58 -18 92 -65t34 -109zM177 404h199q75 0 113 34t38 95q0 56 -34 87t-97 31h-219v-247zM553 203q0 65 -38 98t-108 33h-230v-260h223q74 0 113.5 34.5t39.5 94.5
z" />
    <glyph glyph-name="C" unicode="C" horiz-adv-x="816" 
d="M419 735q132 0 224 -68.5t113 -180.5h-90q-23 79 -88.5 124t-155.5 45q-123 0 -198 -80.5t-75 -211.5t74.5 -211.5t195.5 -80.5q93 0 159 45.5t88 123.5h90q-21 -112 -113.5 -181t-223.5 -69q-160 -2 -260.5 103t-98.5 270q0 166 99 269t260 103z" />
    <glyph glyph-name="D" unicode="D" horiz-adv-x="767" 
d="M94 725h243q174 0 272.5 -98t98.5 -264q0 -171 -100 -267t-271 -96h-243v725zM352 79q121 0 193.5 77.5t72.5 205.5q0 129 -73 207t-193 78h-173v-568h173z" />
    <glyph glyph-name="E" unicode="E" horiz-adv-x="666" 
d="M94 725h508v-78h-423v-247h393v-74h-393v-248h423v-78h-508v725z" />
    <glyph glyph-name="F" unicode="F" horiz-adv-x="641" 
d="M94 725h498v-78h-413v-236h391v-77h-391v-334h-85v725z" />
    <glyph glyph-name="G" unicode="G" horiz-adv-x="828" 
d="M60 361q0 167 99 270.5t261 103.5q126 0 216 -64t111 -168h-88q-23 69 -88 111q-64 43 -150 43q-123 0 -197.5 -81.5t-74.5 -214.5t74.5 -214t199.5 -81q111 0 185 65t74 165l7 4h-326v70h402q4 -31 4 -52q0 -146 -95.5 -237t-250.5 -91q-165 0 -264 101.5t-99 269.5z
" />
    <glyph glyph-name="H" unicode="H" horiz-adv-x="762" 
d="M94 725h85v-315h403v315h85v-725h-85v332h-403v-332h-85v725z" />
    <glyph glyph-name="I" unicode="I" horiz-adv-x="274" 
d="M94 0v725h85v-725h-85z" />
    <glyph glyph-name="J" unicode="J" horiz-adv-x="568" 
d="M478 208q0 -102 -64 -160t-166 -58t-160.5 58.5t-59.5 157.5v36l84 8v-43q0 -68 37 -103.5t102 -35.5q66 0 104 38t38 101v444h-339v74h424v-517z" />
    <glyph glyph-name="K" unicode="K" horiz-adv-x="708" 
d="M578 0l-250 343l-149 -171v-172h-85v725h85v-431l377 431h104l-275 -316l297 -409h-104z" />
    <glyph glyph-name="L" unicode="L" horiz-adv-x="637" 
d="M94 725h85v-646h406v-79h-491v725z" />
    <glyph glyph-name="M" unicode="M" horiz-adv-x="931" 
d="M94 725h98l276 -437l272 437h97v-725h-85v251q0 155 9 362l-273 -435h-41l-276 435q8 -198 8 -362v-251h-85v725z" />
    <glyph glyph-name="N" unicode="N" horiz-adv-x="772" 
d="M678 725v-725h-92l-407 594v-594h-85v725h92l407 -591v591h85z" />
    <glyph glyph-name="O" unicode="O" horiz-adv-x="862" 
d="M431 736q161 2 267 -104t104 -269q2 -163 -104 -269t-267 -104q-161 -2 -267 104t-104 269q-2 163 104 269t267 104zM431 71q124 0 203 82t79 210t-79 210t-203 82t-203 -82t-79 -210t79 -210t203 -82z" />
    <glyph glyph-name="P" unicode="P" horiz-adv-x="681" 
d="M641 498q0 -106 -71 -165q-72 -59 -189 -58l-202 1v-276h-85v725h287q121 0 190.5 -61.5t69.5 -165.5zM552 498q0 72 -46 110t-127 38h-200v-295h200q84 0 128.5 39t44.5 108z" />
    <glyph glyph-name="Q" unicode="Q" horiz-adv-x="853" 
d="M527 1l222 -202h-120l-188 191h-10q-161 -2 -267 104t-104 269q-2 163 104 269t267 104q161 2 267 -104t104 -269q0 -138 -75 -235.5t-200 -126.5zM431 71q124 0 203 82t79 210t-79 210t-203 82t-203 -82t-79 -210t79 -210t203 -82z" />
    <glyph glyph-name="R" unicode="R" horiz-adv-x="705" 
d="M680 0h-107l-249 291h-145v-291h-85v725h323q109 0 175 -59t66 -154q0 -98 -63 -155t-172 -59zM410 366q75 0 117 38t42 104q0 65 -43 102t-116 37h-231v-281h231z" />
    <glyph glyph-name="S" unicode="S" horiz-adv-x="676" 
d="M60 211h87q6 -67 59 -106.5t140 -39.5q84 0 132.5 36.5t48.5 97.5t-39 84t-87 32l-140 23q-97 15 -145 64t-48 123q0 94 72 152t189 58q119 0 192.5 -60t74.5 -159h-86q-5 66 -55 105.5t-131 39.5q-75 0 -121 -34t-46 -93q0 -96 125 -116l141 -23q96 -15 144.5 -65.5
t48.5 -127.5q0 -96 -74.5 -154t-197.5 -58q-124 0 -201 60t-83 161z" />
    <glyph glyph-name="T" unicode="T" horiz-adv-x="598" 
d="M579 651h-236v-651h-86v651h-238v74h560v-74z" />
    <glyph glyph-name="U" unicode="U" horiz-adv-x="737" 
d="M89 725h85v-461q0 -95 51.5 -145t142.5 -50q95 0 145 51.5t50 143.5v461h85v-468q0 -126 -76 -196q-76 -71 -204 -71q-131 0 -205 72t-74 195v468z" />
    <glyph glyph-name="V" unicode="V" horiz-adv-x="706" 
d="M114 725l240 -638l239 638h95l-282 -725h-104l-283 725h95z" />
    <glyph glyph-name="W" unicode="W" horiz-adv-x="997" 
d="M115 725l163 -628l173 628h104l173 -629l154 629h92l-187 -725h-115l-169 618l-168 -618h-115l-197 725h92z" />
    <glyph glyph-name="X" unicode="X" horiz-adv-x="694" 
d="M287 362l-258 363h104l216 -310l219 310h102l-259 -363l261 -362h-105l-219 304l-218 -304h-100z" />
    <glyph glyph-name="Y" unicode="Y" horiz-adv-x="637" 
d="M627 725l-264 -395v-330h-85v330l-268 395h99l212 -319l211 319h95z" />
    <glyph glyph-name="Z" unicode="Z" horiz-adv-x="601" 
d="M565 658l-415 -580h410v-78h-523v67l414 581h-415v77h529v-67z" />
    <glyph glyph-name="bracketleft" unicode="[" horiz-adv-x="337" 
d="M108 802h204v-65h-127v-747h127v-67h-204v879z" />
    <glyph glyph-name="backslash" unicode="\" horiz-adv-x="379" 
d="M306 0l-314 725h79l314 -725h-79z" />
    <glyph glyph-name="bracketright" unicode="]" horiz-adv-x="337" 
d="M25 -10h127v747h-127v65h204v-879h-204v67z" />
    <glyph glyph-name="asciicircum" unicode="^" horiz-adv-x="415" 
d="M207 651l-98 -179h-75l143 253h63l141 -253h-76z" />
    <glyph glyph-name="underscore" unicode="_" horiz-adv-x="370" 
d="M0 0h370v-64h-370v64z" />
    <glyph glyph-name="grave" unicode="`" horiz-adv-x="412" 
d="M125 826l37 60l169 -115l-29 -46z" />
    <glyph glyph-name="a" unicode="a" 
d="M59 134q0 134 189 154l181 21v18q0 62 -36 94.5t-99 32.5q-67 0 -105.5 -30t-34.5 -83h-79q2 84 62 133q61 49 161 49q99 0 156 -53.5t57 -156.5v-313h-74l-5 103q-23 -52 -80 -82q-58 -31 -126 -31q-74 0 -120 39q-47 41 -47 105zM429 228v22l-165 -20q-64 -9 -92 -31
t-28 -59q0 -38 28 -59.5t77 -21.5q78 0 128 53.5t52 115.5z" />
    <glyph glyph-name="b" unicode="b" horiz-adv-x="677" 
d="M628 257q0 -119 -71 -193t-186 -74q-69 0 -123 25.5t-79 69.5l-6 -85h-75v750h83v-326q27 45 81.5 72t122.5 27q112 0 182.5 -74t70.5 -192zM543 257q0 89 -48.5 141t-134.5 52q-82 0 -135.5 -50.5t-53.5 -136.5v-14q0 -87 52 -136.5t137 -49.5t134 51.5t49 142.5z" />
    <glyph glyph-name="c" unicode="c" horiz-adv-x="613" 
d="M313 523q97 0 164 -49q69 -50 87 -129h-86q-16 48 -60.5 76t-104.5 28q-82 0 -130 -52.5t-48 -140.5q0 -87 48.5 -139.5t130.5 -52.5q62 0 105 27.5t59 75.5h86q-19 -81 -87.5 -129t-162.5 -48q-116 0 -190.5 74t-74.5 193q0 118 74 192t190 74z" />
    <glyph glyph-name="d" unicode="d" horiz-adv-x="671" 
d="M588 750v-750h-75l-6 91q-24 -46 -79 -73.5t-124 -27.5q-116 0 -185.5 74t-69.5 191q0 120 73 194t188 74q132 0 196 -88v315h82zM506 249v14q0 85 -51.5 136t-135.5 51q-86 0 -135 -52.5t-49 -142.5q0 -89 49.5 -140.5t131.5 -51.5q85 0 137.5 50t52.5 136z" />
    <glyph glyph-name="e" unicode="e" horiz-adv-x="607" 
d="M558 149q-22 -74 -87 -116.5t-155 -42.5q-120 0 -193.5 73.5t-73.5 193.5q0 118 73 192t188 74q107 0 174 -63t67 -164q0 -16 -3 -40h-413v-15q0 -86 48.5 -133.5t132.5 -47.5q57 0 99 23.5t59 65.5h84zM138 317h328q0 58 -44.5 96.5t-113.5 38.5q-66 0 -112.5 -37
t-57.5 -98z" />
    <glyph glyph-name="f" unicode="f" horiz-adv-x="419" 
d="M378 750v-65q-18 2 -33 2q-59 0 -82 -22.5t-23 -75.5v-76h158v-71h-158v-442h-83v442h-129v71h129v79q0 63 31 113q32 51 129 51q27 0 61 -6z" />
    <glyph glyph-name="g" unicode="g" horiz-adv-x="551" 
d="M531 -56q0 -71 -45.5 -108.5t-130.5 -37.5h-159q-91 0 -137.5 36.5t-46.5 105.5t48 107t128 38h23v91q-75 11 -118 56.5t-43 113.5q0 79 58 128t147 49h265v-66l-118 13q55 -46 55 -122q0 -71 -46.5 -117.5t-124.5 -55.5v-90h70q84 0 129.5 -37t45.5 -104zM254 236
q57 0 90.5 30.5t33.5 81.5t-34 81t-91 30q-58 0 -91.5 -30.5t-33.5 -81.5t34.5 -81t91.5 -30zM449 -53q0 80 -103 80h-149q-51 0 -77.5 -21.5t-26.5 -60.5q0 -81 107 -81h146q103 0 103 83z" />
    <glyph glyph-name="h" unicode="h" horiz-adv-x="622" 
d="M88 750h83l-1 -326q25 48 71.5 73.5t106.5 25.5q92 0 141.5 -53t49.5 -150v-320h-82v314q0 67 -33.5 101.5t-93.5 34.5q-72 0 -115.5 -48t-43.5 -128v-274h-83v750z" />
    <glyph glyph-name="i" unicode="i" horiz-adv-x="259" 
d="M66 706q0 24 18 40.5t47 16.5q27 0 45 -16.5t18 -40.5q0 -26 -17.5 -42.5t-45.5 -16.5q-29 0 -47 16.5t-18 42.5zM89 513h83v-513h-83v513z" />
    <glyph glyph-name="j" unicode="j" horiz-adv-x="274" 
d="M78 706q0 24 18 40.5t47 16.5q28 0 46 -16.5t18 -40.5q0 -26 -18 -42.5t-46 -16.5q-29 0 -47 16.5t-18 42.5zM-65 -200v63h44q64 0 91 25t27 78v547h82v-550q0 -85 -45.5 -128t-127.5 -43q-28 0 -71 8z" />
    <glyph glyph-name="k" unicode="k" horiz-adv-x="593" 
d="M88 750h83v-498l283 261h102l-211 -200l219 -313h-93l-184 256l-116 -108v-148h-83v750z" />
    <glyph glyph-name="l" unicode="l" horiz-adv-x="259" 
d="M88 750h83v-750h-83v750z" />
    <glyph glyph-name="m" unicode="m" horiz-adv-x="899" 
d="M816 338v-338h-82v334q0 116 -109 116q-65 0 -98.5 -41.5t-33.5 -118.5v-290h-82v318q0 132 -110 132q-62 0 -96 -40.5t-34 -110.5v-299h-83v513h73l7 -72q46 82 151 82q57 0 97.5 -27t55.5 -75q19 47 64.5 74.5t105.5 27.5q84 0 129 -48.5t45 -136.5z" />
    <glyph glyph-name="n" unicode="n" horiz-adv-x="622" 
d="M88 513h72l11 -89q24 47 71.5 73t105.5 26q92 0 141.5 -53t49.5 -150v-320h-82v314q0 67 -33.5 101.5t-93.5 34.5q-72 0 -115.5 -48t-43.5 -128v-274h-83v513z" />
    <glyph glyph-name="o" unicode="o" horiz-adv-x="648" 
d="M324 523q119 0 197 -74.5t78 -191.5q0 -118 -77.5 -192.5t-197.5 -74.5t-197.5 74.5t-77.5 192.5q0 117 78 191.5t197 74.5zM325 64q85 0 136.5 53t51.5 140t-51.5 140t-136.5 53t-138 -53q-52 -52 -52 -141q0 -87 52 -139.5t138 -52.5z" />
    <glyph glyph-name="p" unicode="p" horiz-adv-x="677" 
d="M628 259q0 -120 -73 -194.5t-188 -74.5q-132 0 -196 88v-278h-83v713h76l6 -88q27 45 81 71.5t122 26.5q112 0 183.5 -73.5t71.5 -190.5zM543 258q0 88 -49.5 140t-133.5 52q-85 0 -137 -49.5t-52 -136.5v-14q0 -84 51 -135.5t136 -51.5t135 51.5t50 143.5z" />
    <glyph glyph-name="q" unicode="q" horiz-adv-x="671" 
d="M588 513v-713h-82v289q-27 -45 -81.5 -72t-122.5 -27q-113 0 -183 73.5t-70 192.5t72 193t188 74q65 0 118 -25t81 -67l5 82h75zM506 250v14q0 87 -53 137q-52 49 -136 49t-133 -51.5t-49 -142.5q0 -89 48.5 -141t133.5 -52q82 0 135.5 50.5t53.5 136.5z" />
    <glyph glyph-name="r" unicode="r" horiz-adv-x="372" 
d="M349 516v-77q-16 2 -32 2q-69 0 -107.5 -45.5t-38.5 -122.5v-273h-83v513h73l10 -87q37 94 144 94q22 0 34 -4z" />
    <glyph glyph-name="s" unicode="s" horiz-adv-x="532" 
d="M57 151h81q3 -45 39.5 -70t94.5 -25q57 0 89 23t32 62q0 64 -77 77l-101 17q-149 26 -149 136q0 69 54 110.5t142 41.5q90 0 144.5 -41t57.5 -113h-78q-2 42 -35.5 65.5t-87.5 23.5q-51 0 -82.5 -22.5t-31.5 -59.5q0 -31 21 -46t62 -23l110 -19q65 -11 99.5 -48.5
t34.5 -92.5q0 -71 -56 -114t-149 -43q-94 0 -151.5 43.5t-62.5 117.5z" />
    <glyph glyph-name="t" unicode="t" horiz-adv-x="425" 
d="M155 150v292h-128v71h128v177h82v-177h148v-71h-148v-288q0 -49 23 -70t74 -21q9 0 41 2v-65q-39 -7 -75 -7q-61 0 -95 24.5t-43 61.5q-7 31 -7 71z" />
    <glyph glyph-name="u" unicode="u" horiz-adv-x="616" 
d="M83 185v328h82v-309q0 -142 127 -142q73 0 116 46t43 112v293h83v-513h-72l-11 95q-20 -47 -70.5 -76t-110.5 -29q-91 0 -139 52t-48 143z" />
    <glyph glyph-name="v" unicode="v" horiz-adv-x="544" 
d="M526 513l-205 -513h-97l-206 513h92l164 -435l163 435h89z" />
    <glyph glyph-name="w" unicode="w" horiz-adv-x="802" 
d="M117 513l120 -432l118 432h93l120 -432l118 432h87l-152 -513h-102l-118 413l-115 -413h-102l-155 513h88z" />
    <glyph glyph-name="x" unicode="x" horiz-adv-x="535" 
d="M210 258l-187 255h97l146 -203l148 203h95l-190 -255l195 -258h-97l-153 204l-150 -204h-94z" />
    <glyph glyph-name="y" unicode="y" horiz-adv-x="611" 
d="M527 513v-518q0 -92 -63.5 -148.5t-167.5 -56.5q-98 0 -157 46.5t-64 126.5h81q5 -50 42 -77.5t97 -27.5q69 0 109 36.5t40 98.5v144q-53 -98 -176 -98q-89 0 -138.5 52.5t-49.5 145.5v276h82v-264q0 -69 33.5 -103.5t93.5 -34.5q73 0 114 45.5t41 112.5v244h83z" />
    <glyph glyph-name="z" unicode="z" horiz-adv-x="519" 
d="M468 70v-70h-406v62l301 380h-301v71h403v-65l-304 -378h307z" />
    <glyph glyph-name="braceleft" unicode="{" horiz-adv-x="409" 
d="M87 341q52 0 79 19.5t24 54.5l-18 201q-1 5 -1 21q0 54 35 82t99 28h79v-68h-68q-69 0 -69 -61q0 -12 1 -15l18 -208l1 -13q0 -33 -19.5 -53.5t-52.5 -26.5v-2q37 -6 56 -30t15 -63l-18 -214q-1 -3 -1 -14q0 -62 69 -62h68v-69h-79q-134 0 -134 111q0 15 1 20l18 208
q4 36 -24.5 55t-78.5 19v80z" />
    <glyph glyph-name="bar" unicode="|" horiz-adv-x="297" 
d="M108 750h82v-783h-82v783z" />
    <glyph glyph-name="braceright" unicode="}" horiz-adv-x="408" 
d="M218 188l19 -209q1 -4 1 -18q0 -113 -135 -113h-78v69h68q75 0 68 75l-19 215q-6 80 72 93v3q-79 13 -72 93l19 207q4 39 -12.5 57.5t-55.5 18.5h-68v68h78q64 0 99.5 -29t35.5 -83q0 -15 -1 -19l-19 -201q-3 -35 24.5 -54.5t79.5 -19.5v-80q-52 0 -80 -18.5t-24 -54.5z
" />
    <glyph glyph-name="asciitilde" unicode="~" horiz-adv-x="498" 
d="M176 381q30 0 74 -18q42 -16 68 -16q55 0 67 50h45q-1 -57 -30 -88.5t-80 -31.5q-32 0 -81 20q-43 17 -65 17q-51 0 -60 -49h-46q-1 53 29 84.5t79 31.5z" />
    <glyph glyph-name="uni00A0" unicode="&#xa0;" horiz-adv-x="230" 
 />
    <glyph glyph-name="exclamdown" unicode="&#xa1;" horiz-adv-x="304" 
d="M215 670q0 -26 -18 -43.5t-44 -17.5q-28 0 -46 17.5t-18 43.5t18 44t46 18q26 0 44 -18t18 -44zM184 499l18 -499h-99l18 499h63z" />
    <glyph glyph-name="cent" unicode="&#xa2;" horiz-adv-x="611" 
d="M277 97q-103 12 -166 81q-62 70 -62 176q0 108 63 177t165 81v97h56v-96q88 -7 148.5 -52.5t76.5 -118.5h-84q-29 87 -143 98v-371q53 4 91 30t52 68h84q-17 -74 -77.5 -119.5t-147.5 -52.5v-95h-56v97zM278 539q-66 -11 -105 -60t-39 -124t38.5 -124.5t105.5 -60.5v369z
" />
    <glyph glyph-name="sterling" unicode="&#xa3;" horiz-adv-x="599" 
d="M568 73v-73h-491v80q67 0 109.5 36.5t42.5 98.5q0 58 -25 107h-113v66h79q-45 92 -45 151q0 91 66 143.5t185 52.5q88 0 161 -30v-75q-78 34 -166 34q-76 0 -118.5 -32t-42.5 -94q0 -44 39 -131l9 -19h209v-66h-182q20 -55 20 -106q0 -96 -67 -143h330z" />
    <glyph glyph-name="currency" unicode="&#xa4;" horiz-adv-x="603" 
d="M127 203q-45 57 -45 129q0 74 45 131l-74 62l52 50l64 -71q55 41 130 41q74 0 135 -42l64 74l52 -52l-73 -62q47 -59 47 -132q0 -71 -45 -128l73 -62l-54 -51l-63 73q-59 -44 -134 -44q-74 0 -131 43l-63 -72l-55 50zM300 189q64 0 106 41t42 104q0 62 -42 102
q-40 40 -105 40q-64 0 -104.5 -39.5t-40.5 -104.5q0 -63 41 -104q41 -39 103 -39z" />
    <glyph glyph-name="yen" unicode="&#xa5;" horiz-adv-x="632" 
d="M398 378h156v-64h-194v-110h194v-65h-194v-139h-86v139h-196v65h196v110h-196v64h158l-213 347h95l199 -336l197 336h95z" />
    <glyph glyph-name="brokenbar" unicode="&#xa6;" horiz-adv-x="297" 
d="M108 750h82v-299h-82v299zM108 266h82v-299h-82v299z" />
    <glyph glyph-name="section" unicode="&#xa7;" horiz-adv-x="603" 
d="M507 72q0 -69 -56 -111q-55 -43 -143 -43q-90 0 -147 44t-63 116h82q16 -90 126 -90q51 0 82 21t31 56q0 30 -20 47.5t-62 26.5l-80 21q-143 32 -143 141q0 80 81 120q-81 35 -81 116q0 67 52 107.5t136 40.5q86 0 138 -41t54 -109h-81q-4 40 -33 61.5t-79 21.5
q-48 0 -73.5 -19t-25.5 -53q0 -31 21 -46.5t71 -27.5l67 -16q146 -35 146 -148q0 -36 -20 -67.5t-55 -50.5q75 -36 75 -118zM420 303q0 38 -31.5 57t-84.5 19q-51 0 -76.5 -19t-25.5 -49q0 -38 33.5 -58.5t88.5 -20.5q45 0 70.5 19t25.5 52z" />
    <glyph glyph-name="dieresis" unicode="&#xa8;" horiz-adv-x="462" 
d="M67 800q0 25 18 41.5t45 16.5t45 -16.5t18 -41.5t-18 -41.5t-45 -16.5t-45 16.5t-18 41.5zM269 800q0 25 18.5 41.5t45.5 16.5q26 0 44 -16.5t18 -41.5t-18 -41.5t-44 -16.5q-27 0 -45.5 16.5t-18.5 41.5z" />
    <glyph glyph-name="copyright" unicode="&#xa9;" horiz-adv-x="885" 
d="M442 704q166 2 277 -103t109 -267q3 -163 -109 -268.5t-278 -103.5q-167 -2 -278 103t-109 267q-2 162 110 268t278 104zM441 -8q149 -2 252 95.5t101 245.5q2 148 -101 245.5t-252 95.5q-149 2 -251.5 -96t-100.5 -246q-2 -148 100.5 -245t251.5 -95zM443 591
q93 0 161 -50t83 -138h-65q-14 60 -60.5 95t-114.5 35q-90 0 -142.5 -55t-52.5 -146q0 -90 52 -145t143 -55q68 0 114.5 35t60.5 95h65q-15 -88 -83 -138t-161 -50q-112 0 -184.5 72.5t-72.5 186.5t72.5 186t184.5 72z" />
    <glyph glyph-name="ordfeminine" unicode="&#xaa;" horiz-adv-x="423" 
d="M44 470q0 56 46 86.5t128 30.5h80v16q0 39 -23.5 59.5t-65.5 20.5q-41 0 -67 -18.5t-28 -49.5h-60q4 54 47 87t110 33q70 0 109.5 -36t39.5 -99v-227h-56l-4 60q-15 -29 -53 -48t-82 -19q-55 0 -88 28.5t-33 75.5zM298 534v10h-75q-55 0 -85.5 -18.5t-30.5 -52.5
q0 -25 19.5 -40t52.5 -15q53 0 86 32t33 84z" />
    <glyph glyph-name="guillemotleft" unicode="&#xab;" horiz-adv-x="557" 
d="M213 472h75l-115 -204l115 -203h-75l-126 203zM405 472h75l-115 -204l115 -203h-75l-126 203z" />
    <glyph glyph-name="logicalnot" unicode="&#xac;" horiz-adv-x="634" 
d="M479 318h-421v75h493v-244h-72v169z" />
    <glyph glyph-name="registered" unicode="&#xae;" horiz-adv-x="710" 
d="M652 442q0 -126 -85 -208t-213 -82q-126 0 -211.5 82t-85.5 208t85 207t212 81q128 0 213 -81t85 -207zM616 442q0 110 -75.5 182t-186.5 72q-110 0 -185 -72.5t-75 -183.5t75 -182.5t188 -71.5q109 0 184 72.5t75 183.5zM386 413l115 -136h-55l-111 131h-61v-131h-44
v333h149q51 0 81.5 -27t30.5 -72t-28.5 -71t-76.5 -27zM375 446q33 0 51 17t18 46t-18 44.5t-51 15.5h-101v-123h101z" />
    <glyph glyph-name="overscore" unicode="&#xaf;" horiz-adv-x="490" 
d="M65 822h360v-63h-360v63z" />
    <glyph glyph-name="degree" unicode="&#xb0;" horiz-adv-x="369" 
d="M184 731q68 0 110.5 -40t42.5 -103q0 -64 -42.5 -104t-110.5 -40t-110.5 40t-42.5 104q0 63 42.5 103t110.5 40zM184 499q41 0 66 25.5t25 65.5q0 39 -25 63t-66 24t-66 -24t-25 -64t25 -65t66 -25z" />
    <glyph glyph-name="plusminus" unicode="&#xb1;" horiz-adv-x="681" 
d="M378 168h-75v178h-213v68h213v178h75v-178h213v-68h-213v-178zM90 68h501v-68h-501v68z" />
    <glyph glyph-name="uni00B2" unicode="&#xb2;" horiz-adv-x="494" 
d="M442 187v-66h-379v47q169 134 234 219q64 85 64 154q0 52 -31 83t-83 31q-51 0 -81.5 -30t-30.5 -79q0 -15 1 -19h-73q-6 86 46.5 139t141.5 53q83 0 133.5 -48t50.5 -126q0 -163 -261 -360l35 2h233z" />
    <glyph glyph-name="uni00B3" unicode="&#xb3;" horiz-adv-x="502" 
d="M444 303q0 -84 -59.5 -137t-150.5 -53t-148.5 51t-57.5 134h72q0 -53 38 -87.5t97 -34.5q58 0 96 36t38 93q0 58 -38 91t-96 33q-42 0 -67 -14l-26 45l180 185h-257v65h347v-68l-158 -160q84 2 137 -48t53 -131z" />
    <glyph glyph-name="acute" unicode="&#xb4;" horiz-adv-x="412" 
d="M148 771l168 115l38 -60l-177 -101z" />
    <glyph glyph-name="paragraph" unicode="&#xb6;" horiz-adv-x="620" 
d="M504 -42h-71v704h-135v-704h-72v408q-98 0 -150.5 47.5t-52.5 131.5t59 132t159 48h339v-63h-76v-704z" />
    <glyph glyph-name="middot" unicode="&#xb7;" horiz-adv-x="324" 
d="M161 347q31 0 55 -22t24 -52t-24 -51t-55 -21q-32 0 -54.5 21t-22.5 51q0 31 22.5 52.5t54.5 21.5z" />
    <glyph glyph-name="cedilla" unicode="&#xb8;" horiz-adv-x="327" 
d="M248 -107q0 -35 -27.5 -54.5t-70.5 -19.5q-45 0 -73 19v43q21 -21 65 -21q54 0 54 35q0 34 -50 34q-19 0 -43 -6v19l46 85h35v-26l-22 -39q35 3 60.5 -15.5t25.5 -53.5z" />
    <glyph glyph-name="uni00B9" unicode="&#xb9;" horiz-adv-x="416" 
d="M56 608l186 102h61v-589h-78v498l-169 -90v79z" />
    <glyph glyph-name="ordmasculine" unicode="&#xba;" horiz-adv-x="470" 
d="M235 735q84 0 137.5 -51.5t53.5 -132.5q0 -83 -53.5 -134t-137.5 -51t-137.5 51t-53.5 134q0 81 53.5 132.5t137.5 51.5zM236 420q57 0 91.5 36t34.5 95t-34.5 94.5t-91.5 35.5q-58 0 -93 -35.5t-35 -94.5t35 -95t93 -36z" />
    <glyph glyph-name="guillemotright" unicode="&#xbb;" horiz-adv-x="556" 
d="M152 65h-76l116 203l-116 204h76l125 -204zM344 65h-76l116 203l-116 204h76l125 -204z" />
    <glyph glyph-name="onequarter" unicode="&#xbc;" horiz-adv-x="1145" 
d="M51 617l168 93h56v-533h-72v449l-152 -80v71zM780 725h74l-491 -748h-74zM681 193l255 340h99v-333h77v-63h-77v-137h-71v137h-283v56zM964 200v268l-203 -268h203z" />
    <glyph glyph-name="onehalf" unicode="&#xbd;" horiz-adv-x="1209" 
d="M51 617l168 93h56v-533h-72v449l-152 -80v71zM780 725h74l-491 -748h-74zM1162 63v-63h-345v46q150 117 210 196q58 76 58 136q0 45 -27.5 72t-72.5 27t-72 -26t-27 -69q0 -13 1 -17h-71q-4 79 43 127q48 48 128 48q77 0 124 -43.5t47 -114.5q0 -144 -232 -320l34 1h202z
" />
    <glyph glyph-name="threequarters" unicode="&#xbe;" horiz-adv-x="1201" 
d="M405 343q0 -77 -54 -125.5t-140 -48.5q-84 0 -136 46t-52 123h71q1 -47 34 -77t84 -30t84.5 32t33.5 82t-33 79t-85 29q-35 0 -60 -13l-27 44l160 162h-228v64h318v-64l-140 -141q76 1 123 -44.5t47 -117.5zM836 725h74l-491 -748h-74zM737 193l255 340h99v-333h77v-63
h-77v-137h-71v137h-283v56zM1020 200v268l-203 -268h203z" />
    <glyph glyph-name="questiondown" unicode="&#xbf;" horiz-adv-x="555" 
d="M360 524q0 -26 -18.5 -44t-46.5 -18q-27 0 -46.5 18t-19.5 44q0 28 19 46t47 18t46.5 -18t18.5 -46zM337 191h-49q-69 0 -112 -39t-43 -102q0 -60 39.5 -95.5t104.5 -35.5q66 0 107 36.5t40 96.5h79q0 -92 -63.5 -149t-165.5 -57q-99 0 -161 55.5t-62 145.5
q0 86 58 142.5t148 57.5v121h80v-177z" />
    <glyph glyph-name="Agrave" unicode="&#xc0;" horiz-adv-x="724" 
d="M536 180h-350l-69 -180h-93l286 725h101l289 -725h-95zM510 250l-149 391l-149 -391h298zM187 884l37 60l169 -115l-29 -46z" />
    <glyph glyph-name="Aacute" unicode="&#xc1;" horiz-adv-x="724" 
d="M536 180h-350l-69 -180h-93l286 725h101l289 -725h-95zM510 250l-149 391l-149 -391h298zM329 829l168 115l38 -60l-177 -101z" />
    <glyph glyph-name="Acircumflex" unicode="&#xc2;" horiz-adv-x="724" 
d="M536 180h-350l-69 -180h-93l286 725h101l289 -725h-95zM510 250l-149 391l-149 -391h298zM329 937h63l116 -113l-49 -45l-99 102l-100 -102l-48 45z" />
    <glyph glyph-name="Atilde" unicode="&#xc3;" horiz-adv-x="724" 
d="M536 180h-350l-69 -180h-93l286 725h101l289 -725h-95zM510 250l-149 391l-149 -391h298zM356 816q-47 18 -64 18q-18 0 -29.5 -7t-26.5 -26l-37 26q21 37 44 54t55 17q31 0 76 -21q37 -17 54 -17q30 0 56 33l38 -27q-42 -70 -94 -70q-24 0 -72 20z" />
    <glyph glyph-name="Adieresis" unicode="&#xc4;" horiz-adv-x="724" 
d="M536 180h-350l-69 -180h-93l286 725h101l289 -725h-95zM510 250l-149 391l-149 -391h298zM196 859q0 25 18 41.5t45 16.5t45 -16.5t18 -41.5t-18 -41.5t-45 -16.5t-45 16.5t-18 41.5zM398 859q0 25 18.5 41.5t45.5 16.5q26 0 44 -16.5t18 -41.5t-18 -41.5t-44 -16.5
q-27 0 -45.5 16.5t-18.5 41.5z" />
    <glyph glyph-name="Aring" unicode="&#xc5;" horiz-adv-x="724" 
d="M536 180h-350l-69 -180h-93l278 706q-57 31 -57 95q0 48 32 78.5t83 30.5q53 0 84.5 -30t31.5 -79q0 -64 -57 -95l281 -706h-95zM296 801q0 -27 18 -45t46 -18q29 0 47 18t18 45t-18 45t-47 18q-28 0 -46 -18t-18 -45zM510 250l-149 391l-149 -391h298z" />
    <glyph glyph-name="AE" unicode="&#xc6;" horiz-adv-x="970" 
d="M516 647v-247h290v-74h-290v-247h390v-79h-473v204h-249l-70 -204h-90l259 725h623v-78h-390zM334 647l-126 -370h225v370h-99z" />
    <glyph glyph-name="Ccedilla" unicode="&#xc7;" horiz-adv-x="816" 
d="M666 240h90q-20 -104 -100 -171q-80 -66 -199 -77l-21 -37q35 3 60.5 -15.5t25.5 -53.5t-27.5 -54.5t-70.5 -19.5q-45 0 -73 19v43q21 -21 65 -21q54 0 54 35q0 34 -50 34q-19 0 -43 -6v19l30 55q-156 4 -251.5 107t-95.5 266q0 166 99 269t260 103q132 0 224 -68.5
t113 -180.5h-90q-23 79 -88.5 124t-155.5 45q-123 0 -198 -80.5t-75 -211.5t74.5 -211.5t195.5 -80.5q93 0 159 45.5t88 123.5z" />
    <glyph glyph-name="Egrave" unicode="&#xc8;" horiz-adv-x="666" 
d="M94 725h508v-78h-423v-247h393v-74h-393v-248h423v-78h-508v725zM163 884l37 60l169 -115l-29 -46z" />
    <glyph glyph-name="Eacute" unicode="&#xc9;" horiz-adv-x="666" 
d="M94 725h508v-78h-423v-247h393v-74h-393v-248h423v-78h-508v725zM306 829l168 115l38 -60l-177 -101z" />
    <glyph glyph-name="Ecircumflex" unicode="&#xca;" horiz-adv-x="666" 
d="M94 725h508v-78h-423v-247h393v-74h-393v-248h423v-78h-508v725zM305 937h63l116 -113l-49 -45l-99 102l-100 -102l-48 45z" />
    <glyph glyph-name="Edieresis" unicode="&#xcb;" horiz-adv-x="666" 
d="M94 725h508v-78h-423v-247h393v-74h-393v-248h423v-78h-508v725zM172 859q0 25 18 41.5t45 16.5t45 -16.5t18 -41.5t-18 -41.5t-45 -16.5t-45 16.5t-18 41.5zM374 859q0 25 18.5 41.5t45.5 16.5q26 0 44 -16.5t18 -41.5t-18 -41.5t-44 -16.5q-27 0 -45.5 16.5t-18.5 41.5
z" />
    <glyph glyph-name="Igrave" unicode="&#xcc;" horiz-adv-x="274" 
d="M94 0v725h85v-725h-85zM-38 884l37 60l169 -115l-29 -46z" />
    <glyph glyph-name="Iacute" unicode="&#xcd;" horiz-adv-x="274" 
d="M94 0v725h85v-725h-85zM104 829l168 115l38 -60l-177 -101z" />
    <glyph glyph-name="Icircumflex" unicode="&#xce;" horiz-adv-x="274" 
d="M94 0v725h85v-725h-85zM104 937h63l116 -113l-49 -45l-99 102l-100 -102l-48 45z" />
    <glyph glyph-name="Idieresis" unicode="&#xcf;" horiz-adv-x="274" 
d="M94 0v725h85v-725h-85zM-29 859q0 25 18 41.5t45 16.5t45 -16.5t18 -41.5t-18 -41.5t-45 -16.5t-45 16.5t-18 41.5zM173 859q0 25 18.5 41.5t45.5 16.5q26 0 44 -16.5t18 -41.5t-18 -41.5t-44 -16.5q-27 0 -45.5 16.5t-18.5 41.5z" />
    <glyph glyph-name="Eth" unicode="&#xd0;" horiz-adv-x="767" 
d="M708 363q0 -171 -100 -267t-271 -96h-243v329h-97v72h97v324h243q174 0 272.5 -98t98.5 -264zM618 362q0 129 -73 207t-193 78h-173v-246h138v-72h-138v-250h173q121 0 193.5 77.5t72.5 205.5z" />
    <glyph glyph-name="Ntilde" unicode="&#xd1;" horiz-adv-x="772" 
d="M678 725v-725h-92l-407 594v-594h-85v725h92l407 -591v591h85zM378 816q-47 18 -64 18q-18 0 -29.5 -7t-26.5 -26l-37 26q21 37 44 54t55 17q31 0 76 -21q37 -17 54 -17q30 0 56 33l38 -27q-42 -70 -94 -70q-24 0 -72 20z" />
    <glyph glyph-name="Ograve" unicode="&#xd2;" horiz-adv-x="862" 
d="M431 736q161 2 267 -104t104 -269q2 -163 -104 -269t-267 -104q-161 -2 -267 104t-104 269q-2 163 104 269t267 104zM431 71q124 0 203 82t79 210t-79 210t-203 82t-203 -82t-79 -210t79 -210t203 -82zM257 884l37 60l169 -115l-29 -46z" />
    <glyph glyph-name="Oacute" unicode="&#xd3;" horiz-adv-x="862" 
d="M431 736q161 2 267 -104t104 -269q2 -163 -104 -269t-267 -104q-161 -2 -267 104t-104 269q-2 163 104 269t267 104zM431 71q124 0 203 82t79 210t-79 210t-203 82t-203 -82t-79 -210t79 -210t203 -82zM399 829l168 115l38 -60l-177 -101z" />
    <glyph glyph-name="Ocircumflex" unicode="&#xd4;" horiz-adv-x="862" 
d="M431 736q161 2 267 -104t104 -269q2 -163 -104 -269t-267 -104q-161 -2 -267 104t-104 269q-2 163 104 269t267 104zM431 71q124 0 203 82t79 210t-79 210t-203 82t-203 -82t-79 -210t79 -210t203 -82zM399 937h63l116 -113l-49 -45l-99 102l-100 -102l-48 45z" />
    <glyph glyph-name="Otilde" unicode="&#xd5;" horiz-adv-x="862" 
d="M431 736q161 2 267 -104t104 -269q2 -163 -104 -269t-267 -104q-161 -2 -267 104t-104 269q-2 163 104 269t267 104zM431 71q124 0 203 82t79 210t-79 210t-203 82t-203 -82t-79 -210t79 -210t203 -82zM426 816q-47 18 -64 18q-18 0 -29.5 -7t-26.5 -26l-37 26
q21 37 44 54t55 17q31 0 76 -21q37 -17 54 -17q30 0 56 33l38 -27q-42 -70 -94 -70q-24 0 -72 20z" />
    <glyph glyph-name="Odieresis" unicode="&#xd6;" horiz-adv-x="862" 
d="M431 736q161 2 267 -104t104 -269q2 -163 -104 -269t-267 -104q-161 -2 -267 104t-104 269q-2 163 104 269t267 104zM431 71q124 0 203 82t79 210t-79 210t-203 82t-203 -82t-79 -210t79 -210t203 -82zM266 859q0 25 18 41.5t45 16.5t45 -16.5t18 -41.5t-18 -41.5
t-45 -16.5t-45 16.5t-18 41.5zM468 859q0 25 18.5 41.5t45.5 16.5q26 0 44 -16.5t18 -41.5t-18 -41.5t-44 -16.5q-27 0 -45.5 16.5t-18.5 41.5z" />
    <glyph glyph-name="multiply" unicode="&#xd7;" horiz-adv-x="583" 
d="M87 179l151 150l-151 152l52 52l152 -152l152 152l53 -52l-149 -150l149 -152l-53 -52l-150 152l-154 -152z" />
    <glyph glyph-name="Oslash" unicode="&#xd8;" horiz-adv-x="862" 
d="M802 363q2 -163 -104 -269t-267 -104q-161 -2 -267 104t-104 269q-2 163 104 269t267 104q161 2 267 -104t104 -269zM149 363q0 -75 27 -133l469 331q-80 94 -214 94q-124 0 -203 -82t-79 -210zM713 363q0 74 -29 137l-471 -331q81 -98 218 -98q124 0 203 82t79 210z" />
    <glyph glyph-name="Ugrave" unicode="&#xd9;" horiz-adv-x="737" 
d="M89 725h85v-461q0 -95 51.5 -145t142.5 -50q95 0 145 51.5t50 143.5v461h85v-468q0 -126 -76 -196q-76 -71 -204 -71q-131 0 -205 72t-74 195v468zM194 884l37 60l169 -115l-29 -46z" />
    <glyph glyph-name="Uacute" unicode="&#xda;" horiz-adv-x="737" 
d="M89 725h85v-461q0 -95 51.5 -145t142.5 -50q95 0 145 51.5t50 143.5v461h85v-468q0 -126 -76 -196q-76 -71 -204 -71q-131 0 -205 72t-74 195v468zM337 829l168 115l38 -60l-177 -101z" />
    <glyph glyph-name="Ucircumflex" unicode="&#xdb;" horiz-adv-x="737" 
d="M89 725h85v-461q0 -95 51.5 -145t142.5 -50q95 0 145 51.5t50 143.5v461h85v-468q0 -126 -76 -196q-76 -71 -204 -71q-131 0 -205 72t-74 195v468zM337 937h63l116 -113l-49 -45l-99 102l-100 -102l-48 45z" />
    <glyph glyph-name="Udieresis" unicode="&#xdc;" horiz-adv-x="737" 
d="M89 725h85v-461q0 -95 51.5 -145t142.5 -50q95 0 145 51.5t50 143.5v461h85v-468q0 -126 -76 -196q-76 -71 -204 -71q-131 0 -205 72t-74 195v468zM204 859q0 25 18 41.5t45 16.5t45 -16.5t18 -41.5t-18 -41.5t-45 -16.5t-45 16.5t-18 41.5zM406 859q0 25 18.5 41.5
t45.5 16.5q26 0 44 -16.5t18 -41.5t-18 -41.5t-44 -16.5q-27 0 -45.5 16.5t-18.5 41.5z" />
    <glyph glyph-name="Yacute" unicode="&#xdd;" horiz-adv-x="637" 
d="M627 725l-264 -395v-330h-85v330l-268 395h99l212 -319l211 319h95zM288 829l168 115l38 -60l-177 -101z" />
    <glyph glyph-name="Thorn" unicode="&#xde;" horiz-adv-x="668" 
d="M94 750h85v-147h195q119 0 186.5 -62t67.5 -169q0 -105 -69.5 -168t-183.5 -61l-196 1v-144h-85v750zM368 221q83 0 127 40t44 111q0 74 -45 113.5t-126 39.5h-189v-304h189z" />
    <glyph glyph-name="germandbls" unicode="&#xdf;" horiz-adv-x="603" 
d="M547 30q0 -106 -73 -171.5t-191 -65.5q-24 0 -74 8v67q32 -7 65 -7q87 0 138.5 46t51.5 124q0 75 -48.5 119.5t-127.5 43.5l-29 52l157 196h-245v-442h-83v587q0 64 32 117q31 52 128 52q26 0 61 -6v-65q-18 2 -32 2q-59 0 -82.5 -23t-23.5 -77v-74h345v-67l-158 -190
q86 -13 137.5 -74.5t51.5 -151.5z" />
    <glyph glyph-name="agrave" unicode="&#xe0;" 
d="M59 134q0 134 189 154l181 21v18q0 62 -36 94.5t-99 32.5q-67 0 -105.5 -30t-34.5 -83h-79q2 84 62 133q61 49 161 49q99 0 156 -53.5t57 -156.5v-313h-74l-5 103q-23 -52 -80 -82q-58 -31 -126 -31q-74 0 -120 39q-47 41 -47 105zM429 228v22l-165 -20q-64 -9 -92 -31
t-28 -59q0 -38 28 -59.5t77 -21.5q78 0 128 53.5t52 115.5zM120 671l37 60l169 -115l-29 -46z" />
    <glyph glyph-name="aacute" unicode="&#xe1;" 
d="M59 134q0 134 189 154l181 21v18q0 62 -36 94.5t-99 32.5q-67 0 -105.5 -30t-34.5 -83h-79q2 84 62 133q61 49 161 49q99 0 156 -53.5t57 -156.5v-313h-74l-5 103q-23 -52 -80 -82q-58 -31 -126 -31q-74 0 -120 39q-47 41 -47 105zM429 228v22l-165 -20q-64 -9 -92 -31
t-28 -59q0 -38 28 -59.5t77 -21.5q78 0 128 53.5t52 115.5zM263 616l168 115l38 -60l-177 -101z" />
    <glyph glyph-name="acircumflex" unicode="&#xe2;" 
d="M59 134q0 134 189 154l181 21v18q0 62 -36 94.5t-99 32.5q-67 0 -105.5 -30t-34.5 -83h-79q2 84 62 133q61 49 161 49q99 0 156 -53.5t57 -156.5v-313h-74l-5 103q-23 -52 -80 -82q-58 -31 -126 -31q-74 0 -120 39q-47 41 -47 105zM429 228v22l-165 -20q-64 -9 -92 -31
t-28 -59q0 -38 28 -59.5t77 -21.5q78 0 128 53.5t52 115.5zM263 725h63l116 -113l-49 -45l-99 102l-100 -102l-48 45z" />
    <glyph glyph-name="atilde" unicode="&#xe3;" 
d="M59 134q0 134 189 154l181 21v18q0 62 -36 94.5t-99 32.5q-67 0 -105.5 -30t-34.5 -83h-79q2 84 62 133q61 49 161 49q99 0 156 -53.5t57 -156.5v-313h-74l-5 103q-23 -52 -80 -82q-58 -31 -126 -31q-74 0 -120 39q-47 41 -47 105zM429 228v22l-165 -20q-64 -9 -92 -31
t-28 -59q0 -38 28 -59.5t77 -21.5q78 0 128 53.5t52 115.5zM290 604q-46 18 -64 18t-29.5 -7t-26.5 -26l-37 26q21 37 44 54t55 17q31 0 76 -21q37 -17 54 -17q30 0 56 33l38 -27q-42 -70 -94 -70q-24 0 -72 20z" />
    <glyph glyph-name="adieresis" unicode="&#xe4;" 
d="M59 134q0 134 189 154l181 21v18q0 62 -36 94.5t-99 32.5q-67 0 -105.5 -30t-34.5 -83h-79q2 84 62 133q61 49 161 49q99 0 156 -53.5t57 -156.5v-313h-74l-5 103q-23 -52 -80 -82q-58 -31 -126 -31q-74 0 -120 39q-47 41 -47 105zM429 228v22l-165 -20q-64 -9 -92 -31
t-28 -59q0 -38 28 -59.5t77 -21.5q78 0 128 53.5t52 115.5zM130 646q0 25 18 41.5t45 16.5t45 -16.5t18 -41.5t-18 -41.5t-45 -16.5t-45 16.5t-18 41.5zM332 646q0 25 18.5 41.5t45.5 16.5q26 0 44 -16.5t18 -41.5t-18 -41.5t-44 -16.5q-27 0 -45.5 16.5t-18.5 41.5z" />
    <glyph glyph-name="aring" unicode="&#xe5;" 
d="M511 313v-313h-74l-5 103q-23 -52 -80 -82q-58 -31 -126 -31q-74 0 -120 39q-47 41 -47 105q0 134 189 154l181 21v18q0 62 -36 94.5t-99 32.5q-67 0 -105.5 -30t-34.5 -83h-79q1 63 37 107.5t99 62.5q-32 32 -32 77q0 48 32 78.5t83 30.5q53 0 84.5 -30t31.5 -79
q0 -45 -31 -76q132 -40 132 -199zM230 588q0 -26 18 -44.5t46 -18.5q29 0 47 18t18 45t-18 45t-47 18q-28 0 -46 -18t-18 -45zM429 250l-165 -20q-64 -9 -92 -31t-28 -59q0 -38 28 -59.5t77 -21.5q78 0 128 53.5t52 115.5v22z" />
    <glyph glyph-name="ae" unicode="&#xe6;" horiz-adv-x="958" 
d="M271 301h136v27q0 59 -36 92.5t-97 33.5q-59 0 -95 -26.5t-41 -72.5h-78q5 77 65 122q59 46 152 46q64 0 114 -28t72 -75q68 103 204 103q109 0 177 -64t68 -168q0 -33 -3 -52h-415q0 -83 48.5 -131t129.5 -48q56 0 97.5 24t59.5 64h84q-21 -74 -85.5 -116t-155.5 -42
q-80 0 -141 34t-87 92q-26 -60 -84.5 -93t-132.5 -33q-83 0 -133 41.5t-50 110.5q0 75 60.5 117t166.5 42zM828 301q0 69 -44 111.5t-116 42.5t-119.5 -42.5t-54.5 -111.5h334zM241 60q75 0 121 44.5t46 116.5v17h-135q-70 0 -107.5 -24t-37.5 -68q0 -40 30.5 -63t82.5 -23z
" />
    <glyph glyph-name="ccedilla" unicode="&#xe7;" horiz-adv-x="613" 
d="M478 167h86q-17 -74 -76 -121t-144 -55l-18 -31q35 3 60.5 -15.5t25.5 -53.5t-27.5 -54.5t-70.5 -19.5q-45 0 -73 19v43q21 -21 65 -21q54 0 54 35q0 34 -50 34q-19 0 -43 -6v19l27 51q-108 6 -176.5 79t-68.5 187q0 118 74 192t190 74q97 0 164 -49q69 -50 87 -129h-86
q-16 48 -60.5 76t-104.5 28q-82 0 -130 -52.5t-48 -140.5q0 -87 48.5 -139.5t130.5 -52.5q62 0 105 27.5t59 75.5z" />
    <glyph glyph-name="egrave" unicode="&#xe8;" horiz-adv-x="607" 
d="M558 149q-22 -74 -87 -116.5t-155 -42.5q-120 0 -193.5 73.5t-73.5 193.5q0 118 73 192t188 74q107 0 174 -63t67 -164q0 -16 -3 -40h-413v-15q0 -86 48.5 -133.5t132.5 -47.5q57 0 99 23.5t59 65.5h84zM138 317h328q0 58 -44.5 96.5t-113.5 38.5q-66 0 -112.5 -37
t-57.5 -98zM140 671l37 60l169 -115l-29 -46z" />
    <glyph glyph-name="eacute" unicode="&#xe9;" horiz-adv-x="607" 
d="M558 149q-22 -74 -87 -116.5t-155 -42.5q-120 0 -193.5 73.5t-73.5 193.5q0 118 73 192t188 74q107 0 174 -63t67 -164q0 -16 -3 -40h-413v-15q0 -86 48.5 -133.5t132.5 -47.5q57 0 99 23.5t59 65.5h84zM138 317h328q0 58 -44.5 96.5t-113.5 38.5q-66 0 -112.5 -37
t-57.5 -98zM283 616l168 115l38 -60l-177 -101z" />
    <glyph glyph-name="ecircumflex" unicode="&#xea;" horiz-adv-x="607" 
d="M558 149q-22 -74 -87 -116.5t-155 -42.5q-120 0 -193.5 73.5t-73.5 193.5q0 118 73 192t188 74q107 0 174 -63t67 -164q0 -16 -3 -40h-413v-15q0 -86 48.5 -133.5t132.5 -47.5q57 0 99 23.5t59 65.5h84zM138 317h328q0 58 -44.5 96.5t-113.5 38.5q-66 0 -112.5 -37
t-57.5 -98zM282 725h63l116 -113l-49 -45l-99 102l-100 -102l-48 45z" />
    <glyph glyph-name="edieresis" unicode="&#xeb;" horiz-adv-x="607" 
d="M558 149q-22 -74 -87 -116.5t-155 -42.5q-120 0 -193.5 73.5t-73.5 193.5q0 118 73 192t188 74q107 0 174 -63t67 -164q0 -16 -3 -40h-413v-15q0 -86 48.5 -133.5t132.5 -47.5q57 0 99 23.5t59 65.5h84zM138 317h328q0 58 -44.5 96.5t-113.5 38.5q-66 0 -112.5 -37
t-57.5 -98zM149 646q0 25 18 41.5t45 16.5t45 -16.5t18 -41.5t-18 -41.5t-45 -16.5t-45 16.5t-18 41.5zM351 646q0 25 18.5 41.5t45.5 16.5q26 0 44 -16.5t18 -41.5t-18 -41.5t-44 -16.5q-27 0 -45.5 16.5t-18.5 41.5z" />
    <glyph glyph-name="igrave" unicode="&#xec;" horiz-adv-x="261" 
d="M89 513h83v-513h-83v513zM-43 671l37 60l169 -115l-29 -46z" />
    <glyph glyph-name="iacute" unicode="&#xed;" horiz-adv-x="261" 
d="M89 513h83v-513h-83v513zM100 616l168 115l38 -60l-177 -101z" />
    <glyph glyph-name="icircumflex" unicode="&#xee;" horiz-adv-x="261" 
d="M89 513h83v-513h-83v513zM100 725h63l116 -113l-49 -45l-99 102l-100 -102l-48 45z" />
    <glyph glyph-name="idieresis" unicode="&#xef;" horiz-adv-x="261" 
d="M89 513h83v-513h-83v513zM-31 646q0 25 18 41.5t45 16.5t45 -16.5t18 -41.5t-18 -41.5t-45 -16.5t-45 16.5t-18 41.5zM171 646q0 25 18.5 41.5t45.5 16.5q26 0 44 -16.5t18 -41.5t-18 -41.5t-44 -16.5q-27 0 -45.5 16.5t-18.5 41.5z" />
    <glyph glyph-name="eth" unicode="&#xf0;" horiz-adv-x="595" 
d="M549 229q0 -100 -68.5 -169.5t-182.5 -69.5q-111 0 -181.5 66t-70.5 170q0 102 68 168.5t172 66.5q46 0 88 -14l-102 137l-129 -46v55l96 34l-92 123h102l68 -95l139 49v-55l-108 -38l91 -128q38 -55 56 -84q20 -31 38 -78q16 -42 16 -92zM467 228q0 76 -46 121t-122 45
t-123.5 -46t-47.5 -121t47 -121.5t122 -46.5q77 0 123.5 47t46.5 122z" />
    <glyph glyph-name="ntilde" unicode="&#xf1;" horiz-adv-x="622" 
d="M88 513h72l11 -89q24 47 71.5 73t105.5 26q92 0 141.5 -53t49.5 -150v-320h-82v314q0 67 -33.5 101.5t-93.5 34.5q-72 0 -115.5 -48t-43.5 -128v-274h-83v513zM306 604q-46 18 -64 18t-29.5 -7t-26.5 -26l-37 26q21 37 44 54t55 17q31 0 76 -21q37 -17 54 -17q30 0 56 33
l38 -27q-42 -70 -94 -70q-24 0 -72 20z" />
    <glyph glyph-name="ograve" unicode="&#xf2;" horiz-adv-x="648" 
d="M324 523q119 0 197 -74.5t78 -191.5q0 -118 -77.5 -192.5t-197.5 -74.5t-197.5 74.5t-77.5 192.5q0 117 78 191.5t197 74.5zM325 64q85 0 136.5 53t51.5 140t-51.5 140t-136.5 53t-138 -53q-52 -52 -52 -141q0 -87 52 -139.5t138 -52.5zM150 671l37 60l169 -115l-29 -46z
" />
    <glyph glyph-name="oacute" unicode="&#xf3;" horiz-adv-x="648" 
d="M324 523q119 0 197 -74.5t78 -191.5q0 -118 -77.5 -192.5t-197.5 -74.5t-197.5 74.5t-77.5 192.5q0 117 78 191.5t197 74.5zM325 64q85 0 136.5 53t51.5 140t-51.5 140t-136.5 53t-138 -53q-52 -52 -52 -141q0 -87 52 -139.5t138 -52.5zM293 616l168 115l38 -60
l-177 -101z" />
    <glyph glyph-name="ocircumflex" unicode="&#xf4;" horiz-adv-x="648" 
d="M324 523q119 0 197 -74.5t78 -191.5q0 -118 -77.5 -192.5t-197.5 -74.5t-197.5 74.5t-77.5 192.5q0 117 78 191.5t197 74.5zM325 64q85 0 136.5 53t51.5 140t-51.5 140t-136.5 53t-138 -53q-52 -52 -52 -141q0 -87 52 -139.5t138 -52.5zM293 725h63l116 -113l-49 -45
l-99 102l-100 -102l-48 45z" />
    <glyph glyph-name="otilde" unicode="&#xf5;" horiz-adv-x="648" 
d="M324 523q119 0 197 -74.5t78 -191.5q0 -118 -77.5 -192.5t-197.5 -74.5t-197.5 74.5t-77.5 192.5q0 117 78 191.5t197 74.5zM325 64q85 0 136.5 53t51.5 140t-51.5 140t-136.5 53t-138 -53q-52 -52 -52 -141q0 -87 52 -139.5t138 -52.5zM320 604q-46 18 -64 18t-29.5 -7
t-26.5 -26l-37 26q21 37 44 54t55 17q31 0 76 -21q37 -17 54 -17q30 0 56 33l38 -27q-42 -70 -94 -70q-24 0 -72 20z" />
    <glyph glyph-name="odieresis" unicode="&#xf6;" horiz-adv-x="648" 
d="M324 523q119 0 197 -74.5t78 -191.5q0 -118 -77.5 -192.5t-197.5 -74.5t-197.5 74.5t-77.5 192.5q0 117 78 191.5t197 74.5zM325 64q85 0 136.5 53t51.5 140t-51.5 140t-136.5 53t-138 -53q-52 -52 -52 -141q0 -87 52 -139.5t138 -52.5zM160 646q0 25 18 41.5t45 16.5
t45 -16.5t18 -41.5t-18 -41.5t-45 -16.5t-45 16.5t-18 41.5zM362 646q0 25 18.5 41.5t45.5 16.5q26 0 44 -16.5t18 -41.5t-18 -41.5t-44 -16.5q-27 0 -45.5 16.5t-18.5 41.5z" />
    <glyph glyph-name="divide" unicode="&#xf7;" horiz-adv-x="596" 
d="M234 518q0 25 18 42t44 17t44 -17t18 -42q0 -26 -18 -43.5t-44 -17.5t-44 17.5t-18 43.5zM76 354h444v-71h-444v71zM234 121q0 25 18 42t44 17t44 -17t18 -42q0 -26 -18 -43.5t-44 -17.5t-44 17.5t-18 43.5z" />
    <glyph glyph-name="oslash" unicode="&#xf8;" horiz-adv-x="647" 
d="M558 406q42 -64 42 -149q0 -118 -77.5 -192.5t-197.5 -74.5q-126 0 -206 82l-54 -41l-28 36l54 41q-41 65 -41 149q0 117 78 191.5t197 74.5q128 0 204 -81l53 40l28 -36zM157 159l309 234q-52 57 -141 57q-85 0 -137 -53t-52 -141q0 -56 21 -97zM492 356l-309 -235
q52 -57 143 -57q85 0 136.5 53t51.5 140q0 56 -22 99z" />
    <glyph glyph-name="ugrave" unicode="&#xf9;" horiz-adv-x="616" 
d="M83 185v328h82v-309q0 -142 127 -142q73 0 116 46t43 112v293h83v-513h-72l-11 95q-20 -47 -70.5 -76t-110.5 -29q-91 0 -139 52t-48 143zM134 671l37 60l169 -115l-29 -46z" />
    <glyph glyph-name="uacute" unicode="&#xfa;" horiz-adv-x="616" 
d="M83 185v328h82v-309q0 -142 127 -142q73 0 116 46t43 112v293h83v-513h-72l-11 95q-20 -47 -70.5 -76t-110.5 -29q-91 0 -139 52t-48 143zM277 616l168 115l38 -60l-177 -101z" />
    <glyph glyph-name="ucircumflex" unicode="&#xfb;" horiz-adv-x="616" 
d="M83 185v328h82v-309q0 -142 127 -142q73 0 116 46t43 112v293h83v-513h-72l-11 95q-20 -47 -70.5 -76t-110.5 -29q-91 0 -139 52t-48 143zM277 725h63l116 -113l-49 -45l-99 102l-100 -102l-48 45z" />
    <glyph glyph-name="udieresis" unicode="&#xfc;" horiz-adv-x="616" 
d="M83 185v328h82v-309q0 -142 127 -142q73 0 116 46t43 112v293h83v-513h-72l-11 95q-20 -47 -70.5 -76t-110.5 -29q-91 0 -139 52t-48 143zM144 646q0 25 18 41.5t45 16.5t45 -16.5t18 -41.5t-18 -41.5t-45 -16.5t-45 16.5t-18 41.5zM346 646q0 25 18.5 41.5t45.5 16.5
q26 0 44 -16.5t18 -41.5t-18 -41.5t-44 -16.5q-27 0 -45.5 16.5t-18.5 41.5z" />
    <glyph glyph-name="yacute" unicode="&#xfd;" horiz-adv-x="611" 
d="M527 513v-518q0 -92 -63.5 -148.5t-167.5 -56.5q-98 0 -157 46.5t-64 126.5h81q5 -50 42 -77.5t97 -27.5q69 0 109 36.5t40 98.5v144q-53 -98 -176 -98q-89 0 -138.5 52.5t-49.5 145.5v276h82v-264q0 -69 33.5 -103.5t93.5 -34.5q73 0 114 45.5t41 112.5v244h83zM272 616
l168 115l38 -60l-177 -101z" />
    <glyph glyph-name="thorn" unicode="&#xfe;" horiz-adv-x="678" 
d="M628 259q0 -120 -73 -194.5t-188 -74.5q-132 0 -196 88v-278h-83v950h83v-323q28 45 81.5 70.5t120.5 25.5q112 0 183.5 -73.5t71.5 -190.5zM543 258q0 88 -49.5 140t-133.5 52q-85 0 -137 -49.5t-52 -136.5v-14q0 -84 51 -135.5t136 -51.5t135 51.5t50 143.5z" />
    <glyph glyph-name="ydieresis" unicode="&#xff;" horiz-adv-x="611" 
d="M527 513v-518q0 -92 -63.5 -148.5t-167.5 -56.5q-98 0 -157 46.5t-64 126.5h81q5 -50 42 -77.5t97 -27.5q69 0 109 36.5t40 98.5v144q-53 -98 -176 -98q-89 0 -138.5 52.5t-49.5 145.5v276h82v-264q0 -69 33.5 -103.5t93.5 -34.5q73 0 114 45.5t41 112.5v244h83zM139 646
q0 25 18 41.5t45 16.5t45 -16.5t18 -41.5t-18 -41.5t-45 -16.5t-45 16.5t-18 41.5zM341 646q0 25 18.5 41.5t45.5 16.5q26 0 44 -16.5t18 -41.5t-18 -41.5t-44 -16.5q-27 0 -45.5 16.5t-18.5 41.5z" />
    <glyph glyph-name="Amacron" unicode="&#x100;" horiz-adv-x="724" 
d="M536 180h-350l-69 -180h-93l286 725h101l289 -725h-95zM510 250l-149 391l-149 -391h298zM181 881h360v-63h-360v63z" />
    <glyph glyph-name="amacron" unicode="&#x101;" 
d="M59 134q0 134 189 154l181 21v18q0 62 -36 94.5t-99 32.5q-67 0 -105.5 -30t-34.5 -83h-79q2 84 62 133q61 49 161 49q99 0 156 -53.5t57 -156.5v-313h-74l-5 103q-23 -52 -80 -82q-58 -31 -126 -31q-74 0 -120 39q-47 41 -47 105zM429 228v22l-165 -20q-64 -9 -92 -31
t-28 -59q0 -38 28 -59.5t77 -21.5q78 0 128 53.5t52 115.5zM114 668h360v-63h-360v63z" />
    <glyph glyph-name="Abreve" unicode="&#x102;" horiz-adv-x="724" 
d="M536 180h-350l-69 -180h-93l286 725h101l289 -725h-95zM510 250l-149 391l-149 -391h298zM360 784q-66 0 -107.5 39.5t-41.5 101.5h61q0 -38 25.5 -62t62.5 -24t63 24t26 62h60q0 -62 -41.5 -101.5t-107.5 -39.5z" />
    <glyph glyph-name="abreve" unicode="&#x103;" 
d="M59 134q0 134 189 154l181 21v18q0 62 -36 94.5t-99 32.5q-67 0 -105.5 -30t-34.5 -83h-79q2 84 62 133q61 49 161 49q99 0 156 -53.5t57 -156.5v-313h-74l-5 103q-23 -52 -80 -82q-58 -31 -126 -31q-74 0 -120 39q-47 41 -47 105zM429 228v22l-165 -20q-64 -9 -92 -31
t-28 -59q0 -38 28 -59.5t77 -21.5q78 0 128 53.5t52 115.5zM294 571q-66 0 -107.5 39.5t-41.5 101.5h61q0 -38 25.5 -62t62.5 -24t63 24t26 62h60q0 -62 -41.5 -101.5t-107.5 -39.5z" />
    <glyph glyph-name="Aogonek" unicode="&#x104;" horiz-adv-x="724" 
d="M708 -121v-45q-27 -8 -49 -8q-42 0 -67 21.5t-25 57.5q0 58 58 95h-20l-69 180h-350l-69 -180h-93l286 725h101l289 -725q-80 -35 -80 -83q0 -44 52 -44q14 0 36 6zM510 250l-149 391l-149 -391h298z" />
    <glyph glyph-name="aogonek" unicode="&#x105;" 
d="M519 -121v-45q-27 -8 -49 -8q-42 0 -67 21.5t-25 57.5q0 58 59 96l-5 102q-23 -52 -80 -82q-58 -31 -126 -31q-74 0 -120 39q-47 41 -47 105q0 134 189 154l181 21v18q0 62 -36 94.5t-99 32.5q-67 0 -105.5 -30t-34.5 -83h-79q2 84 62 133q61 49 161 49q99 0 156 -53.5
t57 -156.5v-313q-80 -35 -80 -83q0 -44 52 -44q13 0 36 6zM429 250l-165 -20q-64 -9 -92 -31t-28 -59q0 -38 28 -59.5t77 -21.5q78 0 128 53.5t52 115.5v22z" />
    <glyph glyph-name="Cacute" unicode="&#x106;" horiz-adv-x="816" 
d="M419 735q132 0 224 -68.5t113 -180.5h-90q-23 79 -88.5 124t-155.5 45q-123 0 -198 -80.5t-75 -211.5t74.5 -211.5t195.5 -80.5q93 0 159 45.5t88 123.5h90q-21 -112 -113.5 -181t-223.5 -69q-160 -2 -260.5 103t-98.5 270q0 166 99 269t260 103zM389 829l168 115l38 -60
l-177 -101z" />
    <glyph glyph-name="cacute" unicode="&#x107;" horiz-adv-x="613" 
d="M313 523q97 0 164 -49q69 -50 87 -129h-86q-16 48 -60.5 76t-104.5 28q-82 0 -130 -52.5t-48 -140.5q0 -87 48.5 -139.5t130.5 -52.5q62 0 105 27.5t59 75.5h86q-19 -81 -87.5 -129t-162.5 -48q-116 0 -190.5 74t-74.5 193q0 118 74 192t190 74zM282 616l168 115l38 -60
l-177 -101z" />
    <glyph glyph-name="Cdotaccent" unicode="&#x10a;" horiz-adv-x="816" 
d="M419 735q132 0 224 -68.5t113 -180.5h-90q-23 79 -88.5 124t-155.5 45q-123 0 -198 -80.5t-75 -211.5t74.5 -211.5t195.5 -80.5q93 0 159 45.5t88 123.5h90q-21 -112 -113.5 -181t-223.5 -69q-160 -2 -260.5 103t-98.5 270q0 166 99 269t260 103zM357 859q0 25 18 41.5
t45 16.5t45 -16.5t18 -41.5t-18 -41.5t-45 -16.5t-45 16.5t-18 41.5z" />
    <glyph glyph-name="cdotaccent" unicode="&#x10b;" horiz-adv-x="613" 
d="M313 523q97 0 164 -49q69 -50 87 -129h-86q-16 48 -60.5 76t-104.5 28q-82 0 -130 -52.5t-48 -140.5q0 -87 48.5 -139.5t130.5 -52.5q62 0 105 27.5t59 75.5h86q-19 -81 -87.5 -129t-162.5 -48q-116 0 -190.5 74t-74.5 193q0 118 74 192t190 74zM250 646q0 25 18 41.5
t45 16.5t45 -16.5t18 -41.5t-18 -41.5t-45 -16.5t-45 16.5t-18 41.5z" />
    <glyph glyph-name="Ccaron" unicode="&#x10c;" horiz-adv-x="816" 
d="M419 735q132 0 224 -68.5t113 -180.5h-90q-23 79 -88.5 124t-155.5 45q-123 0 -198 -80.5t-75 -211.5t74.5 -211.5t195.5 -80.5q93 0 159 45.5t88 123.5h90q-21 -112 -113.5 -181t-223.5 -69q-160 -2 -260.5 103t-98.5 270q0 166 99 269t260 103zM319 940l100 -102
l99 102l49 -45l-116 -113h-63l-117 113z" />
    <glyph glyph-name="ccaron" unicode="&#x10d;" horiz-adv-x="613" 
d="M313 523q97 0 164 -49q69 -50 87 -129h-86q-16 48 -60.5 76t-104.5 28q-82 0 -130 -52.5t-48 -140.5q0 -87 48.5 -139.5t130.5 -52.5q62 0 105 27.5t59 75.5h86q-19 -81 -87.5 -129t-162.5 -48q-116 0 -190.5 74t-74.5 193q0 118 74 192t190 74zM213 728l100 -102l99 102
l49 -45l-116 -113h-63l-117 113z" />
    <glyph glyph-name="Dcaron" unicode="&#x10e;" horiz-adv-x="767" 
d="M94 725h243q174 0 272.5 -98t98.5 -264q0 -171 -100 -267t-271 -96h-243v725zM352 79q121 0 193.5 77.5t72.5 205.5q0 129 -73 207t-193 78h-173v-568h173zM205 940l100 -102l99 102l49 -45l-116 -113h-63l-117 113z" />
    <glyph glyph-name="dcaron" unicode="&#x10f;" horiz-adv-x="784" 
d="M588 750v-750h-75l-6 91q-24 -46 -79 -73.5t-124 -27.5q-116 0 -185.5 74t-69.5 191q0 120 73 194t188 74q132 0 196 -88v315h82zM506 249v14q0 85 -51.5 136t-135.5 51q-86 0 -135 -52.5t-49 -142.5q0 -89 49.5 -140.5t131.5 -51.5q85 0 137.5 50t52.5 136zM727 640
q-27 4 -42.5 20t-15.5 38q0 27 18 44t46 17q27 0 45 -16.5t18 -41.5q0 -23 -18 -51l-70 -103l-37 27z" />
    <glyph glyph-name="Dcroat" unicode="&#x110;" horiz-adv-x="767" 
d="M708 363q0 -171 -100 -267t-271 -96h-243v329h-97v72h97v324h243q174 0 272.5 -98t98.5 -264zM618 362q0 129 -73 207t-193 78h-173v-246h138v-72h-138v-250h173q121 0 193.5 77.5t72.5 205.5z" />
    <glyph glyph-name="dslash" unicode="&#x111;" horiz-adv-x="671" 
d="M681 583h-93v-583h-75l-6 91q-24 -46 -79 -73.5t-124 -27.5q-116 0 -185.5 74t-69.5 191q0 120 73 194t188 74q132 0 196 -88v148h-177v68h177v99h82v-99h93v-68zM506 249v14q0 85 -51.5 136t-135.5 51q-86 0 -135 -52.5t-49 -142.5q0 -89 49.5 -140.5t131.5 -51.5
q85 0 137.5 50t52.5 136z" />
    <glyph glyph-name="Emacron" unicode="&#x112;" horiz-adv-x="666" 
d="M94 725h508v-78h-423v-247h393v-74h-393v-248h423v-78h-508v725zM157 881h360v-63h-360v63z" />
    <glyph glyph-name="emacron" unicode="&#x113;" horiz-adv-x="607" 
d="M558 149q-22 -74 -87 -116.5t-155 -42.5q-120 0 -193.5 73.5t-73.5 193.5q0 118 73 192t188 74q107 0 174 -63t67 -164q0 -16 -3 -40h-413v-15q0 -86 48.5 -133.5t132.5 -47.5q57 0 99 23.5t59 65.5h84zM138 317h328q0 58 -44.5 96.5t-113.5 38.5q-66 0 -112.5 -37
t-57.5 -98zM134 668h360v-63h-360v63z" />
    <glyph glyph-name="Edotaccent" unicode="&#x116;" horiz-adv-x="666" 
d="M94 725h508v-78h-423v-247h393v-74h-393v-248h423v-78h-508v725zM274 859q0 25 18 41.5t45 16.5t45 -16.5t18 -41.5t-18 -41.5t-45 -16.5t-45 16.5t-18 41.5z" />
    <glyph glyph-name="edotaccent" unicode="&#x117;" horiz-adv-x="607" 
d="M558 149q-22 -74 -87 -116.5t-155 -42.5q-120 0 -193.5 73.5t-73.5 193.5q0 118 73 192t188 74q107 0 174 -63t67 -164q0 -16 -3 -40h-413v-15q0 -86 48.5 -133.5t132.5 -47.5q57 0 99 23.5t59 65.5h84zM138 317h328q0 58 -44.5 96.5t-113.5 38.5q-66 0 -112.5 -37
t-57.5 -98zM251 646q0 25 18 41.5t45 16.5t45 -16.5t18 -41.5t-18 -41.5t-45 -16.5t-45 16.5t-18 41.5z" />
    <glyph glyph-name="Eogonek" unicode="&#x118;" horiz-adv-x="666" 
d="M610 -121v-45q-27 -8 -49 -8q-42 0 -67 21.5t-25 57.5q0 58 58 95h-433v725h508v-78h-423v-247h393v-74h-393v-248h423v-78q-80 -35 -80 -83q0 -44 52 -44q14 0 36 6z" />
    <glyph glyph-name="eogonek" unicode="&#x119;" horiz-adv-x="607" 
d="M291 -66q0 -44 52 -44q13 0 36 6v-45q-27 -8 -49 -8q-42 0 -67 21.5t-25 57.5q0 40 29 72q-100 13 -159 85q-59 73 -59 178q0 118 73 192t188 74q107 0 174 -63t67 -164q0 -16 -3 -40h-413v-15q0 -86 48.5 -133.5t132.5 -47.5q57 0 99 23.5t59 65.5h84
q-21 -73 -84.5 -115t-151.5 -44q-31 -24 -31 -56zM138 317h328q0 58 -44.5 96.5t-113.5 38.5q-66 0 -112.5 -37t-57.5 -98z" />
    <glyph glyph-name="Ecaron" unicode="&#x11a;" horiz-adv-x="666" 
d="M94 725h508v-78h-423v-247h393v-74h-393v-248h423v-78h-508v725zM236 940l100 -102l99 102l49 -45l-116 -113h-63l-117 113z" />
    <glyph glyph-name="ecaron" unicode="&#x11b;" horiz-adv-x="607" 
d="M558 149q-22 -74 -87 -116.5t-155 -42.5q-120 0 -193.5 73.5t-73.5 193.5q0 118 73 192t188 74q107 0 174 -63t67 -164q0 -16 -3 -40h-413v-15q0 -86 48.5 -133.5t132.5 -47.5q57 0 99 23.5t59 65.5h84zM138 317h328q0 58 -44.5 96.5t-113.5 38.5q-66 0 -112.5 -37
t-57.5 -98zM213 728l100 -102l99 102l49 -45l-116 -113h-63l-117 113z" />
    <glyph glyph-name="Gbreve" unicode="&#x11e;" horiz-adv-x="828" 
d="M60 361q0 167 99 270.5t261 103.5q126 0 216 -64t111 -168h-88q-23 69 -88 111q-64 43 -150 43q-123 0 -197.5 -81.5t-74.5 -214.5t74.5 -214t199.5 -81q111 0 185 65t74 165l7 4h-326v70h402q4 -31 4 -52q0 -146 -95.5 -237t-250.5 -91q-165 0 -264 101.5t-99 269.5z
M412 784q-66 0 -107.5 39.5t-41.5 101.5h61q0 -38 25.5 -62t62.5 -24t63 24t26 62h60q0 -62 -41.5 -101.5t-107.5 -39.5z" />
    <glyph glyph-name="gbreve" unicode="&#x11f;" horiz-adv-x="551" 
d="M531 -56q0 -71 -45.5 -108.5t-130.5 -37.5h-159q-91 0 -137.5 36.5t-46.5 105.5t48 107t128 38h23v91q-75 11 -118 56.5t-43 113.5q0 79 58 128t147 49h265v-66l-118 13q55 -46 55 -122q0 -71 -46.5 -117.5t-124.5 -55.5v-90h70q84 0 129.5 -37t45.5 -104zM254 236
q57 0 90.5 30.5t33.5 81.5t-34 81t-91 30q-58 0 -91.5 -30.5t-33.5 -81.5t34.5 -81t91.5 -30zM449 -53q0 80 -103 80h-149q-51 0 -77.5 -21.5t-26.5 -60.5q0 -81 107 -81h146q103 0 103 83zM255 573q-66 0 -107.5 39.5t-41.5 101.5h61q0 -38 25.5 -62t62.5 -24t63 24t26 62
h60q0 -62 -41.5 -101.5t-107.5 -39.5z" />
    <glyph glyph-name="Gdotaccent" unicode="&#x120;" horiz-adv-x="828" 
d="M60 361q0 167 99 270.5t261 103.5q126 0 216 -64t111 -168h-88q-23 69 -88 111q-64 43 -150 43q-123 0 -197.5 -81.5t-74.5 -214.5t74.5 -214t199.5 -81q111 0 185 65t74 165l7 4h-326v70h402q4 -31 4 -52q0 -146 -95.5 -237t-250.5 -91q-165 0 -264 101.5t-99 269.5z
M350 859q0 25 18 41.5t45 16.5t45 -16.5t18 -41.5t-18 -41.5t-45 -16.5t-45 16.5t-18 41.5z" />
    <glyph glyph-name="gdotaccent" unicode="&#x121;" horiz-adv-x="551" 
d="M531 -56q0 -71 -45.5 -108.5t-130.5 -37.5h-159q-91 0 -137.5 36.5t-46.5 105.5t48 107t128 38h23v91q-75 11 -118 56.5t-43 113.5q0 79 58 128t147 49h265v-66l-118 13q55 -46 55 -122q0 -71 -46.5 -117.5t-124.5 -55.5v-90h70q84 0 129.5 -37t45.5 -104zM254 236
q57 0 90.5 30.5t33.5 81.5t-34 81t-91 30q-58 0 -91.5 -30.5t-33.5 -81.5t34.5 -81t91.5 -30zM449 -53q0 80 -103 80h-149q-51 0 -77.5 -21.5t-26.5 -60.5q0 -81 107 -81h146q103 0 103 83zM193 648q0 25 18 41.5t45 16.5t45 -16.5t18 -41.5t-18 -41.5t-45 -16.5t-45 16.5
t-18 41.5z" />
    <glyph glyph-name="uni0122" unicode="&#x122;" horiz-adv-x="828" 
d="M60 361q0 167 99 270.5t261 103.5q126 0 216 -64t111 -168h-88q-23 69 -88 111q-64 43 -150 43q-123 0 -197.5 -81.5t-74.5 -214.5t74.5 -214t199.5 -81q111 0 185 65t74 165l7 4h-326v70h402q4 -31 4 -52q0 -146 -95.5 -237t-250.5 -91q-165 0 -264 101.5t-99 269.5z
M447 -146q-23 3 -36 16.5t-13 31.5q0 23 15 37t39 14q22 0 37.5 -14t15.5 -35q0 -18 -15 -41l-59 -88l-31 21z" />
    <glyph glyph-name="uni0123" unicode="&#x123;" horiz-adv-x="551" 
d="M531 -56q0 -71 -45.5 -108.5t-130.5 -37.5h-159q-91 0 -137.5 36.5t-46.5 105.5t48 107t128 38h23v91q-75 11 -118 56.5t-43 113.5q0 79 58 128t147 49h265v-66l-118 13q55 -46 55 -122q0 -71 -46.5 -117.5t-124.5 -55.5v-90h70q84 0 129.5 -37t45.5 -104zM254 236
q57 0 90.5 30.5t33.5 81.5t-34 81t-91 30q-58 0 -91.5 -30.5t-33.5 -81.5t34.5 -81t91.5 -30zM449 -53q0 80 -103 80h-149q-51 0 -77.5 -21.5t-26.5 -60.5q0 -81 107 -81h146q103 0 103 83zM261 684q23 -3 35.5 -16t12.5 -31q0 -23 -15 -37t-38 -14q-22 0 -37 13.5t-15 34.5
q0 18 14 41l59 88l31 -21z" />
    <glyph glyph-name="Hbar" unicode="&#x126;" horiz-adv-x="762" 
d="M751 576h-84v-576h-85v332h-403v-332h-85v576h-80v67h80v82h85v-82h403v82h85v-82h84v-67zM582 576h-403v-166h403v166z" />
    <glyph glyph-name="hbar" unicode="&#x127;" horiz-adv-x="622" 
d="M539 320v-320h-82v314q0 67 -33.5 101.5t-93.5 34.5q-72 0 -115.5 -48t-43.5 -128v-274h-83v587h-88v69h88v94h83v-94h181v-69h-181l-1 -163q25 48 71.5 73.5t106.5 25.5q92 0 141.5 -53t49.5 -150z" />
    <glyph glyph-name="Imacron" unicode="&#x12a;" horiz-adv-x="274" 
d="M94 0v725h85v-725h-85zM-44 881h360v-63h-360v63z" />
    <glyph glyph-name="imacron" unicode="&#x12b;" horiz-adv-x="261" 
d="M89 513h83v-513h-83v513zM-49 668h360v-63h-360v63z" />
    <glyph glyph-name="Iogonek" unicode="&#x12e;" horiz-adv-x="274" 
d="M185 -121v-45q-27 -8 -49 -8q-42 0 -67 21.5t-25 57.5q0 58 58 95h-8v725h85v-725h-2q-80 -35 -80 -83q0 -44 52 -44q13 0 36 6z" />
    <glyph glyph-name="iogonek" unicode="&#x12f;" horiz-adv-x="261" 
d="M194 646q0 -25 -18 -41.5t-45 -16.5t-45 16.5t-18 41.5t18 41.5t45 16.5t45 -16.5t18 -41.5zM141 -127q13 0 36 6v-45q-27 -8 -49 -8q-42 0 -67 21.5t-25 57.5q0 58 58 95h-5v513h83v-513h-3q-80 -35 -80 -83q0 -44 52 -44z" />
    <glyph glyph-name="Idot" unicode="&#x130;" horiz-adv-x="274" 
d="M94 0v725h85v-725h-85zM73 859q0 25 18 41.5t45 16.5t45 -16.5t18 -41.5t-18 -41.5t-45 -16.5t-45 16.5t-18 41.5z" />
    <glyph glyph-name="dotlessi" unicode="&#x131;" horiz-adv-x="261" 
d="M89 513h83v-513h-83v513z" />
    <glyph glyph-name="uni0136" unicode="&#x136;" horiz-adv-x="708" 
d="M578 0l-250 343l-149 -171v-172h-85v725h85v-431l377 431h104l-275 -316l297 -409h-104zM366 -142q-23 3 -36 16.5t-13 31.5q0 23 15 37t39 14q22 0 37.5 -14t15.5 -35q0 -18 -15 -41l-59 -88l-31 21z" />
    <glyph glyph-name="uni0137" unicode="&#x137;" horiz-adv-x="593" 
d="M88 750h83v-498l283 261h102l-211 -200l219 -313h-93l-184 256l-116 -108v-148h-83v750zM308 -142q-23 3 -36 16.5t-13 31.5q0 23 15 37t39 14q22 0 37.5 -14t15.5 -35q0 -18 -15 -41l-59 -88l-31 21z" />
    <glyph glyph-name="Lacute" unicode="&#x139;" horiz-adv-x="637" 
d="M94 725h85v-646h406v-79h-491v725zM164 829l168 115l38 -60l-177 -101z" />
    <glyph glyph-name="lacute" unicode="&#x13a;" horiz-adv-x="259" 
d="M88 750h83v-750h-83v750zM98 855l168 115l38 -60l-177 -101z" />
    <glyph glyph-name="uni013B" unicode="&#x13b;" horiz-adv-x="637" 
d="M94 725h85v-646h406v-79h-491v725zM310 -142q-23 3 -36 16.5t-13 31.5q0 23 15 37t39 14q22 0 37.5 -14t15.5 -35q0 -18 -15 -41l-59 -88l-31 21z" />
    <glyph glyph-name="uni013C" unicode="&#x13c;" horiz-adv-x="259" 
d="M88 750h83v-750h-83v750zM125 -142q-23 3 -36 16.5t-13 31.5q0 23 15 37t39 14q22 0 37.5 -14t15.5 -35q0 -18 -15 -41l-59 -88l-31 21z" />
    <glyph glyph-name="Lcaron" unicode="&#x13d;" horiz-adv-x="637" 
d="M395 624q-27 4 -41.5 19t-14.5 37q0 26 17.5 42t44.5 16q26 0 43.5 -16t17.5 -40q0 -20 -17 -49l-68 -100l-36 26zM94 725h85v-646h406v-79h-491v725z" />
    <glyph glyph-name="lcaron" unicode="&#x13e;" horiz-adv-x="374" 
d="M320 645q-26 4 -41 19.5t-15 37.5q0 27 17.5 43.5t44.5 16.5q26 0 44 -16.5t18 -41.5q0 -22 -18 -49l-68 -101l-36 26zM88 750h83v-750h-83v750z" />
    <glyph glyph-name="Ldot" unicode="&#x13f;" horiz-adv-x="637" 
d="M94 725h85v-646h406v-79h-491v725zM366 442q31 0 54.5 -21.5t23.5 -51.5t-23.5 -51t-54.5 -21q-32 0 -54 21t-22 51q0 31 22 52t54 21z" />
    <glyph glyph-name="Lslash" unicode="&#x141;" horiz-adv-x="637" 
d="M585 79v-79h-491v313l-94 -31v75l94 31v337h85v-309l180 59v-76l-180 -59v-261h406z" />
    <glyph glyph-name="lslash" unicode="&#x142;" horiz-adv-x="260" 
d="M260 383l-89 -31v-352h-82v324l-89 -31v75l89 30v352h82v-323l89 30v-74z" />
    <glyph glyph-name="Nacute" unicode="&#x143;" horiz-adv-x="772" 
d="M678 725v-725h-92l-407 594v-594h-85v725h92l407 -591v591h85zM351 829l168 115l38 -60l-177 -101z" />
    <glyph glyph-name="nacute" unicode="&#x144;" horiz-adv-x="622" 
d="M88 513h72l11 -89q24 47 71.5 73t105.5 26q92 0 141.5 -53t49.5 -150v-320h-82v314q0 67 -33.5 101.5t-93.5 34.5q-72 0 -115.5 -48t-43.5 -128v-274h-83v513zM279 616l168 115l38 -60l-177 -101z" />
    <glyph glyph-name="uni0145" unicode="&#x145;" horiz-adv-x="772" 
d="M678 725v-725h-92l-407 594v-594h-85v725h92l407 -591v591h85zM377 -142q-23 3 -36 16.5t-13 31.5q0 23 15 37t39 14q22 0 37.5 -14t15.5 -35q0 -18 -15 -41l-59 -88l-31 21z" />
    <glyph glyph-name="uni0146" unicode="&#x146;" horiz-adv-x="622" 
d="M88 513h72l11 -89q24 47 71.5 73t105.5 26q92 0 141.5 -53t49.5 -150v-320h-82v314q0 67 -33.5 101.5t-93.5 34.5q-72 0 -115.5 -48t-43.5 -128v-274h-83v513zM306 -142q-23 3 -36 16.5t-13 31.5q0 23 15 37t39 14q22 0 37.5 -14t15.5 -35q0 -18 -15 -41l-59 -88l-31 21z
" />
    <glyph glyph-name="Ncaron" unicode="&#x147;" horiz-adv-x="772" 
d="M678 725v-725h-92l-407 594v-594h-85v725h92l407 -591v591h85zM282 940l100 -102l99 102l49 -45l-116 -113h-63l-117 113z" />
    <glyph glyph-name="ncaron" unicode="&#x148;" horiz-adv-x="622" 
d="M88 513h72l11 -89q24 47 71.5 73t105.5 26q92 0 141.5 -53t49.5 -150v-320h-82v314q0 67 -33.5 101.5t-93.5 34.5q-72 0 -115.5 -48t-43.5 -128v-274h-83v513zM210 728l100 -102l99 102l49 -45l-116 -113h-63l-117 113z" />
    <glyph glyph-name="Eng" unicode="&#x14a;" horiz-adv-x="772" 
d="M678 725v-768q0 -82 -45 -123.5t-127 -41.5q-28 0 -71 8v63h48q60 0 85.5 23t25.5 72v42h-8l-407 594v-594h-85v725h92l407 -591v591h85z" />
    <glyph glyph-name="eng" unicode="&#x14b;" horiz-adv-x="622" 
d="M539 320v-363q0 -79 -45 -121.5t-125 -42.5q-28 0 -68 8v62q38 -2 44 -2q112 0 112 99v354q0 67 -33.5 101.5t-93.5 34.5q-72 0 -115.5 -48t-43.5 -128v-274h-83v513h72l11 -89q24 47 71.5 73t105.5 26q92 0 141.5 -53t49.5 -150z" />
    <glyph glyph-name="Omacron" unicode="&#x14c;" horiz-adv-x="862" 
d="M431 736q161 2 267 -104t104 -269q2 -163 -104 -269t-267 -104q-161 -2 -267 104t-104 269q-2 163 104 269t267 104zM431 71q124 0 203 82t79 210t-79 210t-203 82t-203 -82t-79 -210t79 -210t203 -82zM251 881h360v-63h-360v63z" />
    <glyph glyph-name="omacron" unicode="&#x14d;" horiz-adv-x="648" 
d="M324 523q119 0 197 -74.5t78 -191.5q0 -118 -77.5 -192.5t-197.5 -74.5t-197.5 74.5t-77.5 192.5q0 117 78 191.5t197 74.5zM325 64q85 0 136.5 53t51.5 140t-51.5 140t-136.5 53t-138 -53q-52 -52 -52 -141q0 -87 52 -139.5t138 -52.5zM144 668h360v-63h-360v63z" />
    <glyph glyph-name="Ohungarumlaut" unicode="&#x150;" horiz-adv-x="862" 
d="M431 736q161 2 267 -104t104 -269q2 -163 -104 -269t-267 -104q-161 -2 -267 104t-104 269q-2 163 104 269t267 104zM431 71q124 0 203 82t79 210t-79 210t-203 82t-203 -82t-79 -210t79 -210t203 -82zM313 824l148 140l46 -52l-158 -129zM483 829l170 115l36 -60
l-177 -101z" />
    <glyph glyph-name="ohungarumlaut" unicode="&#x151;" horiz-adv-x="648" 
d="M324 523q119 0 197 -74.5t78 -191.5q0 -118 -77.5 -192.5t-197.5 -74.5t-197.5 74.5t-77.5 192.5q0 117 78 191.5t197 74.5zM325 64q85 0 136.5 53t51.5 140t-51.5 140t-136.5 53t-138 -53q-52 -52 -52 -141q0 -87 52 -139.5t138 -52.5zM206 611l148 140l46 -52
l-158 -129zM376 616l170 115l36 -60l-177 -101z" />
    <glyph glyph-name="OE" unicode="&#x152;" horiz-adv-x="1012" 
d="M430 725h518v-78h-390v-247h289v-74h-289v-247h390v-79h-519q-166 0 -267.5 100t-101.5 263t102 262.5t268 99.5zM428 79h46v568h-46q-125 0 -201.5 -78.5t-76.5 -205.5t76.5 -205.5t201.5 -78.5z" />
    <glyph glyph-name="oe" unicode="&#x153;" horiz-adv-x="1083" 
d="M1033 149q-22 -74 -87 -116.5t-155 -42.5q-77 0 -137 32.5t-93 90.5q-35 -58 -97 -90.5t-140 -32.5q-120 0 -197.5 74.5t-77.5 192.5q0 117 78 191.5t197 74.5q78 0 140 -32.5t97 -90.5q33 58 91.5 90.5t132.5 32.5q107 0 174.5 -63t67.5 -164q0 -12 -4 -40h-413v-15
q0 -86 48.5 -133.5t132.5 -47.5q57 0 99 23.5t60 65.5h83zM613 317h328q1 58 -44.5 96.5t-113.5 38.5q-66 0 -112.5 -37t-57.5 -98zM513 257q0 87 -51.5 140t-136.5 53t-138 -53q-52 -52 -52 -141q0 -87 52 -139.5t138 -52.5q85 0 136.5 53t51.5 140z" />
    <glyph glyph-name="Racute" unicode="&#x154;" horiz-adv-x="705" 
d="M680 0h-107l-249 291h-145v-291h-85v725h323q109 0 175 -59t66 -154q0 -98 -63 -155t-172 -59zM410 366q75 0 117 38t42 104q0 65 -43 102t-116 37h-231v-281h231zM290 829l168 115l38 -60l-177 -101z" />
    <glyph glyph-name="racute" unicode="&#x155;" horiz-adv-x="372" 
d="M349 516v-77q-16 2 -32 2q-69 0 -107.5 -45.5t-38.5 -122.5v-273h-83v513h73l10 -87q37 94 144 94q22 0 34 -4zM98 616l168 115l38 -60l-177 -101z" />
    <glyph glyph-name="uni0156" unicode="&#x156;" horiz-adv-x="705" 
d="M680 0h-107l-249 291h-145v-291h-85v725h323q109 0 175 -59t66 -154q0 -98 -63 -155t-172 -59zM410 366q75 0 117 38t42 104q0 65 -43 102t-116 37h-231v-281h231zM352 -142q-23 3 -36 16.5t-13 31.5q0 23 15 37t39 14q22 0 37.5 -14t15.5 -35q0 -18 -15 -41l-59 -88
l-31 21z" />
    <glyph glyph-name="uni0157" unicode="&#x157;" horiz-adv-x="372" 
d="M349 516v-77q-16 2 -32 2q-69 0 -107.5 -45.5t-38.5 -122.5v-273h-83v513h73l10 -87q37 94 144 94q22 0 34 -4zM136 -143q-23 3 -36 16.5t-13 31.5q0 23 15 37t39 14q22 0 37.5 -14t15.5 -35q0 -19 -15 -41l-59 -88l-31 21z" />
    <glyph glyph-name="Rcaron" unicode="&#x158;" horiz-adv-x="705" 
d="M680 0h-107l-249 291h-145v-291h-85v725h323q109 0 175 -59t66 -154q0 -98 -63 -155t-172 -59zM410 366q75 0 117 38t42 104q0 65 -43 102t-116 37h-231v-281h231zM221 940l100 -102l99 102l49 -45l-116 -113h-63l-117 113z" />
    <glyph glyph-name="rcaron" unicode="&#x159;" horiz-adv-x="372" 
d="M349 516v-77q-16 2 -32 2q-69 0 -107.5 -45.5t-38.5 -122.5v-273h-83v513h73l10 -87q37 94 144 94q22 0 34 -4zM29 728l100 -102l99 102l49 -45l-116 -113h-63l-117 113z" />
    <glyph glyph-name="Sacute" unicode="&#x15a;" horiz-adv-x="676" 
d="M60 211h87q6 -67 59 -106.5t140 -39.5q84 0 132.5 36.5t48.5 97.5t-39 84t-87 32l-140 23q-97 15 -145 64t-48 123q0 94 72 152t189 58q119 0 192.5 -60t74.5 -159h-86q-5 66 -55 105.5t-131 39.5q-75 0 -121 -34t-46 -93q0 -96 125 -116l141 -23q96 -15 144.5 -65.5
t48.5 -127.5q0 -96 -74.5 -154t-197.5 -58q-124 0 -201 60t-83 161zM300 829l168 115l38 -60l-177 -101z" />
    <glyph glyph-name="sacute" unicode="&#x15b;" horiz-adv-x="532" 
d="M57 151h81q3 -45 39.5 -70t94.5 -25q57 0 89 23t32 62q0 64 -77 77l-101 17q-149 26 -149 136q0 69 54 110.5t142 41.5q90 0 144.5 -41t57.5 -113h-78q-2 42 -35.5 65.5t-87.5 23.5q-51 0 -82.5 -22.5t-31.5 -59.5q0 -31 21 -46t62 -23l110 -19q65 -11 99.5 -48.5
t34.5 -92.5q0 -71 -56 -114t-149 -43q-94 0 -151.5 43.5t-62.5 117.5zM235 616l168 115l38 -60l-177 -101z" />
    <glyph glyph-name="Scedilla" unicode="&#x15e;" horiz-adv-x="676" 
d="M362 -10l-16 -28q35 3 60.5 -15.5t25.5 -53.5t-27.5 -54.5t-70.5 -19.5q-45 0 -73 19v43q21 -21 65 -21q54 0 54 35q0 34 -50 34q-19 0 -43 -6v19l27 49q-113 7 -180.5 65.5t-73.5 154.5h87q6 -67 59 -106.5t140 -39.5q84 0 132.5 36.5t48.5 97.5t-39 84t-87 32l-140 23
q-97 15 -145 64t-48 123q0 94 72 152t189 58q119 0 192.5 -60t74.5 -159h-86q-5 66 -55 105.5t-131 39.5q-75 0 -121 -34t-46 -93q0 -96 125 -116l141 -23q96 -15 144.5 -65.5t48.5 -127.5q0 -92 -69 -150t-185 -62z" />
    <glyph glyph-name="scedilla" unicode="&#x15f;" horiz-adv-x="532" 
d="M308 -8l-21 -37q35 3 60.5 -15.5t25.5 -53.5t-27.5 -54.5t-70.5 -19.5q-45 0 -73 19v43q21 -21 65 -21q54 0 54 35q0 34 -50 34q-19 0 -43 -6v19l30 55q-89 4 -143 47t-58 114h81q3 -45 39.5 -70t94.5 -25q57 0 89 23t32 62q0 64 -77 77l-101 17q-149 26 -149 136
q0 69 54 110.5t142 41.5q90 0 144.5 -41t57.5 -113h-78q-2 42 -35.5 65.5t-87.5 23.5q-51 0 -82.5 -22.5t-31.5 -59.5q0 -31 21 -46t62 -23l110 -19q65 -11 99.5 -48.5t34.5 -92.5q0 -63 -45.5 -105t-122.5 -50z" />
    <glyph glyph-name="Scaron" unicode="&#x160;" horiz-adv-x="676" 
d="M60 211h87q6 -67 59 -106.5t140 -39.5q84 0 132.5 36.5t48.5 97.5t-39 84t-87 32l-140 23q-97 15 -145 64t-48 123q0 94 72 152t189 58q119 0 192.5 -60t74.5 -159h-86q-5 66 -55 105.5t-131 39.5q-75 0 -121 -34t-46 -93q0 -96 125 -116l141 -23q96 -15 144.5 -65.5
t48.5 -127.5q0 -96 -74.5 -154t-197.5 -58q-124 0 -201 60t-83 161zM231 940l100 -102l99 102l49 -45l-116 -113h-63l-117 113z" />
    <glyph glyph-name="scaron" unicode="&#x161;" horiz-adv-x="532" 
d="M57 151h81q3 -45 39.5 -70t94.5 -25q57 0 89 23t32 62q0 64 -77 77l-101 17q-149 26 -149 136q0 69 54 110.5t142 41.5q90 0 144.5 -41t57.5 -113h-78q-2 42 -35.5 65.5t-87.5 23.5q-51 0 -82.5 -22.5t-31.5 -59.5q0 -31 21 -46t62 -23l110 -19q65 -11 99.5 -48.5
t34.5 -92.5q0 -71 -56 -114t-149 -43q-94 0 -151.5 43.5t-62.5 117.5zM165 728l100 -102l99 102l49 -45l-116 -113h-63l-117 113z" />
    <glyph glyph-name="uni0162" unicode="&#x162;" horiz-adv-x="598" 
d="M335 0l-21 -38q35 3 60.5 -15.5t25.5 -53.5t-27.5 -54.5t-70.5 -19.5q-45 0 -73 19v43q21 -21 65 -21q54 0 54 35q0 34 -50 34q-19 0 -43 -6v19l31 58h-29v651h-238v74h560v-74h-236v-651h-8z" />
    <glyph glyph-name="uni0163" unicode="&#x163;" horiz-adv-x="425" 
d="M237 442v-288q0 -49 23 -70t74 -21q9 0 41 2v-65q-33 -5 -65 -7l-19 -33q35 3 60.5 -15.5t25.5 -53.5t-27.5 -54.5t-70.5 -19.5q-45 0 -73 19v43q21 -21 65 -21q54 0 54 35q0 34 -50 34q-19 0 -43 -6v19l30 56q-36 7 -59 22.5t-32.5 39t-12.5 43.5t-3 49v292h-128v71h128
v177h82v-177h148v-71h-148z" />
    <glyph glyph-name="Tcaron" unicode="&#x164;" horiz-adv-x="598" 
d="M579 651h-236v-651h-86v651h-238v74h560v-74zM199 940l100 -102l99 102l49 -45l-116 -113h-63l-117 113z" />
    <glyph glyph-name="tcaron" unicode="&#x165;" horiz-adv-x="414" 
d="M363 659q-26 4 -40.5 19.5t-14.5 36.5q0 26 17 42t44 16q26 0 43.5 -15.5t17.5 -40.5q0 -19 -17 -48l-67 -99l-36 25zM155 150v292h-128v71h128v177h82v-177h148v-71h-148v-288q0 -49 23 -70t74 -21q9 0 41 2v-65q-39 -7 -75 -7q-61 0 -95 24.5t-43 61.5q-7 31 -7 71z
" />
    <glyph glyph-name="Tbar" unicode="&#x166;" horiz-adv-x="598" 
d="M343 651v-258h121v-71h-121v-322h-86v322h-119v71h119v258h-238v74h560v-74h-236z" />
    <glyph glyph-name="tbar" unicode="&#x167;" horiz-adv-x="425" 
d="M237 240v-86q0 -49 23 -70t74 -21q9 0 41 2v-65q-39 -7 -75 -7q-61 0 -95 24.5t-43 61.5q-7 31 -7 71v90h-129v74h129v128h-128v71h128v177h82v-177h148v-71h-148v-128h152v-74h-152z" />
    <glyph glyph-name="Umacron" unicode="&#x16a;" horiz-adv-x="737" 
d="M89 725h85v-461q0 -95 51.5 -145t142.5 -50q95 0 145 51.5t50 143.5v461h85v-468q0 -126 -76 -196q-76 -71 -204 -71q-131 0 -205 72t-74 195v468zM188 881h360v-63h-360v63z" />
    <glyph glyph-name="umacron" unicode="&#x16b;" horiz-adv-x="616" 
d="M83 185v328h82v-309q0 -142 127 -142q73 0 116 46t43 112v293h83v-513h-72l-11 95q-20 -47 -70.5 -76t-110.5 -29q-91 0 -139 52t-48 143zM128 668h360v-63h-360v63z" />
    <glyph glyph-name="Uring" unicode="&#x16e;" horiz-adv-x="737" 
d="M89 725h85v-461q0 -95 51.5 -145t142.5 -50q95 0 145 51.5t50 143.5v461h85v-468q0 -126 -76 -196q-76 -71 -204 -71q-131 0 -205 72t-74 195v468zM367 692q-48 0 -81.5 31t-33.5 78q0 48 32 78.5t83 30.5q53 0 84.5 -30t31.5 -79q0 -47 -33 -78t-83 -31zM367 864
q-28 0 -46 -18t-18 -45t18.5 -45t45.5 -18q29 0 47 18t18 45t-18 45t-47 18z" />
    <glyph glyph-name="uring" unicode="&#x16f;" horiz-adv-x="616" 
d="M83 185v328h82v-309q0 -142 127 -142q73 0 116 46t43 112v293h83v-513h-72l-11 95q-20 -47 -70.5 -76t-110.5 -29q-91 0 -139 52t-48 143zM307 479q-48 0 -81.5 31t-33.5 78q0 48 32 78.5t83 30.5q53 0 84.5 -30t31.5 -79q0 -47 -33 -78t-83 -31zM307 651q-28 0 -46 -18
t-18 -45q0 -26 18.5 -44.5t45.5 -18.5q29 0 47 18t18 45t-18 45t-47 18z" />
    <glyph glyph-name="Uhungarumlaut" unicode="&#x170;" horiz-adv-x="737" 
d="M89 725h85v-461q0 -95 51.5 -145t142.5 -50q95 0 145 51.5t50 143.5v461h85v-468q0 -126 -76 -196q-76 -71 -204 -71q-131 0 -205 72t-74 195v468zM250 824l148 140l46 -52l-158 -129zM420 829l170 115l36 -60l-177 -101z" />
    <glyph glyph-name="uhungarumlaut" unicode="&#x171;" horiz-adv-x="616" 
d="M83 185v328h82v-309q0 -142 127 -142q73 0 116 46t43 112v293h83v-513h-72l-11 95q-20 -47 -70.5 -76t-110.5 -29q-91 0 -139 52t-48 143zM190 611l148 140l46 -52l-158 -129zM360 616l170 115l36 -60l-177 -101z" />
    <glyph glyph-name="Uogonek" unicode="&#x172;" horiz-adv-x="737" 
d="M648 725v-468q0 -120 -70.5 -191t-194.5 -76q-59 -30 -59 -73q0 -44 52 -44q14 0 36 6v-45q-27 -8 -49 -8q-42 0 -67 21.5t-25 57.5q0 52 48 88q-109 13 -169.5 83t-60.5 181v468h85v-461q0 -95 51.5 -145t142.5 -50q95 0 145 51.5t50 143.5v461h85z" />
    <glyph glyph-name="uogonek" unicode="&#x173;" horiz-adv-x="616" 
d="M541 -121v-45q-27 -8 -49 -8q-42 0 -67 21.5t-25 57.5q0 59 62 98l-11 92q-20 -47 -70.5 -76t-110.5 -29q-91 0 -139 52t-48 143v328h82v-309q0 -142 127 -142q73 0 116 46t43 112v293h83v-513h-1q-80 -35 -80 -83q0 -44 52 -44q13 0 36 6z" />
    <glyph glyph-name="Wcircumflex" unicode="&#x174;" horiz-adv-x="997" 
d="M115 725l163 -628l173 628h104l173 -629l154 629h92l-187 -725h-115l-169 618l-168 -618h-115l-197 725h92zM467 937h63l116 -113l-49 -45l-99 102l-100 -102l-48 45z" />
    <glyph glyph-name="wcircumflex" unicode="&#x175;" horiz-adv-x="802" 
d="M117 513l120 -432l118 432h93l120 -432l118 432h87l-152 -513h-102l-118 413l-115 -413h-102l-155 513h88zM368 725h63l116 -113l-49 -45l-99 102l-100 -102l-48 45z" />
    <glyph glyph-name="Ycircumflex" unicode="&#x176;" horiz-adv-x="637" 
d="M627 725l-264 -395v-330h-85v330l-268 395h99l212 -319l211 319h95zM288 937h63l116 -113l-49 -45l-99 102l-100 -102l-48 45z" />
    <glyph glyph-name="ycircumflex" unicode="&#x177;" horiz-adv-x="611" 
d="M527 513v-518q0 -92 -63.5 -148.5t-167.5 -56.5q-98 0 -157 46.5t-64 126.5h81q5 -50 42 -77.5t97 -27.5q69 0 109 36.5t40 98.5v144q-53 -98 -176 -98q-89 0 -138.5 52.5t-49.5 145.5v276h82v-264q0 -69 33.5 -103.5t93.5 -34.5q73 0 114 45.5t41 112.5v244h83zM272 725
h63l116 -113l-49 -45l-99 102l-100 -102l-48 45z" />
    <glyph glyph-name="Ydieresis" unicode="&#x178;" horiz-adv-x="637" 
d="M627 725l-264 -395v-330h-85v330l-268 395h99l212 -319l211 319h95zM155 859q0 25 18 41.5t45 16.5t45 -16.5t18 -41.5t-18 -41.5t-45 -16.5t-45 16.5t-18 41.5zM357 859q0 25 18.5 41.5t45.5 16.5q26 0 44 -16.5t18 -41.5t-18 -41.5t-44 -16.5q-27 0 -45.5 16.5
t-18.5 41.5z" />
    <glyph glyph-name="Zacute" unicode="&#x179;" horiz-adv-x="601" 
d="M565 658l-415 -580h410v-78h-523v67l414 581h-415v77h529v-67zM270 829l168 115l38 -60l-177 -101z" />
    <glyph glyph-name="zacute" unicode="&#x17a;" horiz-adv-x="519" 
d="M468 70v-70h-406v62l301 380h-301v71h403v-65l-304 -378h307zM232 616l168 115l38 -60l-177 -101z" />
    <glyph glyph-name="Zdotaccent" unicode="&#x17b;" horiz-adv-x="601" 
d="M565 658l-415 -580h410v-78h-523v67l414 581h-415v77h529v-67zM238 859q0 25 18 41.5t45 16.5t45 -16.5t18 -41.5t-18 -41.5t-45 -16.5t-45 16.5t-18 41.5z" />
    <glyph glyph-name="zdotaccent" unicode="&#x17c;" horiz-adv-x="519" 
d="M468 70v-70h-406v62l301 380h-301v71h403v-65l-304 -378h307zM200 646q0 25 18 41.5t45 16.5t45 -16.5t18 -41.5t-18 -41.5t-45 -16.5t-45 16.5t-18 41.5z" />
    <glyph glyph-name="Zcaron" unicode="&#x17d;" horiz-adv-x="601" 
d="M565 658l-415 -580h410v-78h-523v67l414 581h-415v77h529v-67zM201 940l100 -102l99 102l49 -45l-116 -113h-63l-117 113z" />
    <glyph glyph-name="zcaron" unicode="&#x17e;" horiz-adv-x="519" 
d="M468 70v-70h-406v62l301 380h-301v71h403v-65l-304 -378h307zM163 728l100 -102l99 102l49 -45l-116 -113h-63l-117 113z" />
    <glyph glyph-name="florin" unicode="&#x192;" horiz-adv-x="633" 
d="M393 535l-16 -75h197v-68h-211l-64 -305q-15 -71 -55 -117q-41 -47 -136 -47q-59 0 -86 9v69q22 -6 70 -6q59 0 88 29.5t44 95.5l58 272h-147v68h161l21 105q18 89 67.5 129.5t135.5 40.5q50 0 80 -8v-70q-39 7 -70 7q-70 -2 -96 -31.5t-41 -97.5z" />
    <glyph glyph-name="uni0199" unicode="&#x199;" horiz-adv-x="593" 
d="M347 311l217 -311h-93l-183 256l-117 -108v-148h-83v590q0 63 32 115q32 51 127 51q27 0 62 -6v-65q-18 2 -32 2q-59 0 -82.5 -23t-23.5 -78v-336l292 263h101z" />
    <glyph glyph-name="Aringacute" unicode="&#x1fa;" horiz-adv-x="724" 
d="M536 180h-350l-69 -180h-93l274 695q-43 30 -43 83q0 66 86 104l142 61l21 -50l-81 -32q46 -28 46 -84t-46 -83l277 -694h-95zM309 779q0 -23 14.5 -38t37.5 -15q25 0 39.5 15t14.5 38t-14.5 37t-39.5 14q-23 0 -37.5 -14t-14.5 -37zM510 250l-149 391l-149 -391h298z
" />
    <glyph glyph-name="aringacute" unicode="&#x1fb;" 
d="M511 313v-313h-74l-5 103q-23 -52 -80 -82q-58 -31 -126 -31q-74 0 -120 39q-47 41 -47 105q0 134 189 154l181 21v18q0 62 -36 94.5t-99 32.5q-67 0 -105.5 -30t-34.5 -83h-79q1 63 38 108t101 63q-21 27 -21 62q0 69 86 105l142 61l21 -51l-81 -32q46 -26 46 -83
q0 -38 -23 -64q127 -40 127 -197zM246 576q0 -23 15 -38t38 -15q25 0 39.5 14.5t14.5 38.5q0 23 -14.5 37t-39.5 14q-23 0 -38 -14t-15 -37zM429 250l-165 -20q-64 -9 -92 -31t-28 -59q0 -38 28 -59.5t77 -21.5q78 0 128 53.5t52 115.5v22z" />
    <glyph glyph-name="AEacute" unicode="&#x1fc;" horiz-adv-x="970" 
d="M516 647v-247h290v-74h-290v-247h390v-79h-473v204h-249l-70 -204h-90l259 725h623v-78h-390zM334 647l-126 -370h225v370h-99zM476 829l168 115l38 -60l-177 -101z" />
    <glyph glyph-name="aeacute" unicode="&#x1fd;" horiz-adv-x="958" 
d="M271 301h136v27q0 59 -36 92.5t-97 33.5q-59 0 -95 -26.5t-41 -72.5h-78q5 77 65 122q59 46 152 46q64 0 114 -28t72 -75q68 103 204 103q109 0 177 -64t68 -168q0 -33 -3 -52h-415q0 -83 48.5 -131t129.5 -48q56 0 97.5 24t59.5 64h84q-21 -74 -85.5 -116t-155.5 -42
q-80 0 -141 34t-87 92q-26 -60 -84.5 -93t-132.5 -33q-83 0 -133 41.5t-50 110.5q0 75 60.5 117t166.5 42zM828 301q0 69 -44 111.5t-116 42.5t-119.5 -42.5t-54.5 -111.5h334zM241 60q75 0 121 44.5t46 116.5v17h-135q-70 0 -107.5 -24t-37.5 -68q0 -40 30.5 -63t82.5 -23z
M430 616l168 115l38 -60l-177 -101z" />
    <glyph glyph-name="uni0218" unicode="&#x218;" horiz-adv-x="676" 
d="M60 211h87q6 -67 59 -106.5t140 -39.5q84 0 132.5 36.5t48.5 97.5t-39 84t-87 32l-140 23q-97 15 -145 64t-48 123q0 94 72 152t189 58q119 0 192.5 -60t74.5 -159h-86q-5 66 -55 105.5t-131 39.5q-75 0 -121 -34t-46 -93q0 -96 125 -116l141 -23q96 -15 144.5 -65.5
t48.5 -127.5q0 -96 -74.5 -154t-197.5 -58q-124 0 -201 60t-83 161zM326 -142q-23 3 -36 16.5t-13 31.5q0 23 15 37t39 14q22 0 37.5 -14t15.5 -35q0 -18 -15 -41l-59 -88l-31 21z" />
    <glyph glyph-name="uni0219" unicode="&#x219;" horiz-adv-x="532" 
d="M57 151h81q3 -45 39.5 -70t94.5 -25q57 0 89 23t32 62q0 64 -77 77l-101 17q-149 26 -149 136q0 69 54 110.5t142 41.5q90 0 144.5 -41t57.5 -113h-78q-2 42 -35.5 65.5t-87.5 23.5q-51 0 -82.5 -22.5t-31.5 -59.5q0 -31 21 -46t62 -23l110 -19q65 -11 99.5 -48.5
t34.5 -92.5q0 -71 -56 -114t-149 -43q-94 0 -151.5 43.5t-62.5 117.5zM267 -148q-23 3 -36 16.5t-13 31.5q0 23 15 37t39 14q22 0 37.5 -14t15.5 -35q0 -18 -15 -41l-59 -88l-31 21z" />
    <glyph glyph-name="uni021A" unicode="&#x21a;" horiz-adv-x="598" 
d="M579 651h-236v-651h-86v651h-238v74h560v-74zM294 -142q-23 3 -36 16.5t-13 31.5q0 23 15 37t39 14q22 0 37.5 -14t15.5 -35q0 -18 -15 -41l-59 -88l-31 21z" />
    <glyph glyph-name="uni021B" unicode="&#x21b;" horiz-adv-x="425" 
d="M155 150v292h-128v71h128v177h82v-177h148v-71h-148v-288q0 -49 23 -70t74 -21q9 0 41 2v-65q-39 -7 -75 -7q-61 0 -95 24.5t-43 61.5q-7 31 -7 71zM271 -144q-23 3 -36 16.5t-13 31.5q0 23 15 37t39 14q22 0 37.5 -14t15.5 -35q0 -18 -15 -41l-59 -88l-31 21z" />
    <glyph glyph-name="uni02BC" unicode="&#x2bc;" horiz-adv-x="600" 
 />
    <glyph glyph-name="circumflex" unicode="&#x2c6;" horiz-adv-x="488" 
d="M213 886h63l116 -113l-49 -45l-99 102l-100 -102l-48 45z" />
    <glyph glyph-name="ring" unicode="&#x2da;" horiz-adv-x="385" 
d="M192 666q-48 0 -81.5 31t-33.5 78q0 48 32 78.5t83 30.5q53 0 84.5 -30t31.5 -79q0 -47 -33 -78t-83 -31zM192 838q-28 0 -46 -18t-18 -45t18 -45t46 -18q29 0 47 18t18 45t-18 45t-47 18z" />
    <glyph glyph-name="tilde" unicode="&#x2dc;" horiz-adv-x="450" 
d="M221 749q-47 18 -64 18q-18 0 -29.5 -7t-26.5 -26l-37 26q21 37 44 54t55 17q31 0 76 -21q37 -17 54 -17q31 0 56 33l38 -27q-42 -70 -94 -70q-24 0 -72 20z" />
    <glyph glyph-name="uni0400" unicode="&#x400;" horiz-adv-x="666" 
d="M94 725h508v-78h-423v-247h393v-74h-393v-248h423v-78h-508v725zM163 884l37 60l169 -115l-29 -46z" />
    <glyph glyph-name="uni0401" unicode="&#x401;" horiz-adv-x="666" 
d="M94 725h508v-78h-423v-247h393v-74h-393v-248h423v-78h-508v725zM174 859q0 25 18 41.5t45 16.5t45 -16.5t18 -41.5t-18 -41.5t-45 -16.5t-45 16.5t-18 41.5zM376 859q0 25 18.5 41.5t45.5 16.5q26 0 44 -16.5t18 -41.5t-18 -41.5t-44 -16.5q-27 0 -45.5 16.5t-18.5 41.5
z" />
    <glyph glyph-name="uni0402" unicode="&#x402;" horiz-adv-x="698" 
d="M615 234v-238q0 -94 -49 -149t-135 -55q-27 0 -59 8v64q22 -2 33 -2q125 0 125 138v233q0 70 -35.5 106.5t-98.5 36.5q-76 0 -122 -49q-47 -50 -47 -126v-201h-85v651h-131v74h374v-74h-158l-1 -297q26 45 77 70.5t114 25.5q94 0 146 -56.5t52 -159.5z" />
    <glyph glyph-name="uni0403" unicode="&#x403;" horiz-adv-x="528" 
d="M94 725h415v-74h-330v-651h-85v725zM234 830l168 115l38 -60l-177 -101z" />
    <glyph glyph-name="uni0404" unicode="&#x404;" horiz-adv-x="816" 
d="M666 240h90q-21 -112 -113.5 -181t-223.5 -69q-160 -2 -260.5 103t-98.5 270q0 166 99 269t260 103q132 0 224 -68.5t113 -180.5h-90q-23 79 -88.5 124t-155.5 45q-115 0 -189 -71t-83 -188h359v-66h-359q9 -117 82.5 -188t186.5 -71q93 0 159 45.5t88 123.5z" />
    <glyph glyph-name="uni0405" unicode="&#x405;" horiz-adv-x="676" 
d="M60 211h87q6 -67 59 -106.5t140 -39.5q84 0 132.5 36.5t48.5 97.5t-39 84t-87 32l-140 23q-97 15 -145 64t-48 123q0 94 72 152t189 58q119 0 192.5 -60t74.5 -159h-86q-5 66 -55 105.5t-131 39.5q-75 0 -121 -34t-46 -93q0 -96 125 -116l141 -23q96 -15 144.5 -65.5
t48.5 -127.5q0 -96 -74.5 -154t-197.5 -58q-124 0 -201 60t-83 161z" />
    <glyph glyph-name="uni0406" unicode="&#x406;" horiz-adv-x="274" 
d="M94 0v725h85v-725h-85z" />
    <glyph glyph-name="uni0407" unicode="&#x407;" horiz-adv-x="274" 
d="M94 0v725h85v-725h-85zM-27 859q0 25 18 41.5t45 16.5t45 -16.5t18 -41.5t-18 -41.5t-45 -16.5t-45 16.5t-18 41.5zM175 859q0 25 18.5 41.5t45.5 16.5q26 0 44 -16.5t18 -41.5t-18 -41.5t-44 -16.5q-27 0 -45.5 16.5t-18.5 41.5z" />
    <glyph glyph-name="uni0408" unicode="&#x408;" horiz-adv-x="568" 
d="M478 208q0 -102 -64 -160t-166 -58t-160.5 58.5t-59.5 157.5v36l84 8v-43q0 -68 37 -103.5t102 -35.5q66 0 104 38t38 101v444h-339v74h424v-517z" />
    <glyph glyph-name="uni0409" unicode="&#x409;" horiz-adv-x="1144" 
d="M1083 210q0 -97 -64 -154q-65 -56 -169 -56h-247v648h-371v-507q0 -148 -151 -148q-22 0 -53 4v68l36 -1q83 0 83 78v583h542v-311h161q108 0 170.5 -55t62.5 -149zM992 208q0 61 -39.5 96t-110.5 35h-153v-264h153q71 0 110.5 36t39.5 97z" />
    <glyph glyph-name="uni040A" unicode="&#x40a;" horiz-adv-x="1122" 
d="M1062 210q0 -96 -64 -153t-170 -57h-246v339h-403v-339h-85v725h85v-311h403v311h85v-311h161q109 0 171.5 -55t62.5 -149zM970 208q0 61 -39 96t-110 35h-154v-264h154q70 0 109.5 36t39.5 97z" />
    <glyph glyph-name="uni040B" unicode="&#x40b;" horiz-adv-x="698" 
d="M615 236v-236h-84v233q0 70 -36.5 106.5t-99.5 36.5q-73 0 -120.5 -49t-47.5 -126v-201h-84v651h-132v74h374v-74h-158l-1 -297q24 45 74.5 70.5t111.5 25.5q95 0 149 -57.5t54 -156.5z" />
    <glyph glyph-name="uni040C" unicode="&#x40c;" horiz-adv-x="656" 
d="M94 725h85v-327h24q52 0 80.5 17.5t52.5 62.5l82 151q27 53 64.5 79t102.5 26q29 0 57 -6v-70q-20 4 -42 4q-50 -2 -69 -17t-43 -56l-75 -133q-21 -39 -39.5 -58.5t-45.5 -32.5l311 -365h-109l-288 341q-21 -3 -63 -3v-338h-85v725zM268 828l168 115l38 -60l-177 -101z
" />
    <glyph glyph-name="uni040D" unicode="&#x40d;" horiz-adv-x="772" 
d="M678 725v-725h-85v594l-413 -594h-86v725h85v-591l413 591h86zM216 884l37 60l169 -115l-29 -46z" />
    <glyph glyph-name="uni040E" unicode="&#x40e;" horiz-adv-x="622" 
d="M109 725l215 -370l206 370h95l-410 -725h-90l153 270l-264 455h95zM293 784q-66 0 -107.5 39.5t-41.5 101.5h61q0 -38 25.5 -62t62.5 -24t63 24t26 62h60q0 -62 -41.5 -101.5t-107.5 -39.5z" />
    <glyph glyph-name="uni040F" unicode="&#x40f;" horiz-adv-x="762" 
d="M667 0h-244v-119h-85v119h-244v725h85v-646h403v646h85v-725z" />
    <glyph glyph-name="uni0410" unicode="&#x410;" horiz-adv-x="724" 
d="M536 180h-350l-69 -180h-93l286 725h101l289 -725h-95zM510 250l-149 391l-149 -391h298z" />
    <glyph glyph-name="uni0411" unicode="&#x411;" horiz-adv-x="681" 
d="M94 725h451v-73h-368v-246h215q110 0 169.5 -54t59.5 -149q0 -97 -61.5 -150t-167.5 -53h-298v725zM385 73q71 0 108.5 34.5t37.5 95.5q0 64 -38 97t-108 33h-208v-260h208z" />
    <glyph glyph-name="uni0412" unicode="&#x412;" horiz-adv-x="702" 
d="M642 201q0 -92 -62 -146.5t-174 -54.5h-312v725h306q99 0 156.5 -52t57.5 -139q0 -49 -26.5 -92t-71.5 -67q58 -18 92 -65t34 -109zM177 404h199q75 0 113 34t38 95q0 56 -34 87t-97 31h-219v-247zM553 203q0 65 -38 98t-108 33h-230v-260h223q74 0 113.5 34.5t39.5 94.5
z" />
    <glyph glyph-name="uni0413" unicode="&#x413;" horiz-adv-x="528" 
d="M94 725h415v-74h-330v-651h-85v725z" />
    <glyph glyph-name="uni0414" unicode="&#x414;" horiz-adv-x="766" 
d="M722 76v-196h-85v120h-515v-120h-85v196q89 11 127 75.5t38 186.5v387h438v-649h82zM183 76h373v572h-272v-286q0 -116 -24.5 -184t-76.5 -102z" />
    <glyph glyph-name="uni0415" unicode="&#x415;" horiz-adv-x="666" 
d="M94 725h508v-78h-423v-247h393v-74h-393v-248h423v-78h-508v725z" />
    <glyph glyph-name="uni0416" unicode="&#x416;" horiz-adv-x="986" 
d="M321 365q-27 14 -44 33t-39 58l-72 133q-22 40 -42.5 55.5t-70.5 17.5q-22 0 -42 -4v70q29 6 57 6q65 0 102.5 -25.5t63.5 -79.5l75 -143q26 -49 53.5 -68t65.5 -19h22v326h86v-326h22q42 0 68 19t51 68l75 143q26 54 63.5 79.5t102.5 25.5q28 0 57 -6v-70q-20 4 -42 4
q-50 -2 -70.5 -17.5t-42.5 -55.5l-72 -133q-22 -39 -39 -58t-44 -33l308 -365h-107l-284 341q-30 -3 -46 -3v-338h-86v338q-16 0 -46 3l-284 -341h-107z" />
    <glyph glyph-name="uni0417" unicode="&#x417;" horiz-adv-x="629" 
d="M151 196q4 -62 47.5 -99t113.5 -37q76 0 123 41q47 42 47 107q0 62 -42 96t-110 34h-81v67h79q61 0 99.5 35t38.5 92q0 60 -41 96t-110 36t-111 -36.5t-45 -99.5h-86q3 95 68 151t174 56q107 0 172 -54.5t65 -140.5q0 -114 -99 -163q54 -20 84.5 -66t30.5 -109
q0 -93 -70.5 -153t-184.5 -60q-109 0 -176.5 57t-72.5 150h87z" />
    <glyph glyph-name="uni0418" unicode="&#x418;" horiz-adv-x="772" 
d="M678 725v-725h-85v594l-413 -594h-86v725h85v-591l413 591h86z" />
    <glyph glyph-name="uni0419" unicode="&#x419;" horiz-adv-x="772" 
d="M241 924h60q0 -38 25 -61.5t64 -23.5q37 0 63 24.5t26 60.5h59q0 -62 -41 -101t-107 -39t-107.5 39t-41.5 101zM678 725v-725h-85v586l-413 -586h-86v725h85v-582l413 582h86z" />
    <glyph glyph-name="uni041A" unicode="&#x41a;" horiz-adv-x="656" 
d="M94 725h85v-327h24q52 0 80.5 17.5t52.5 62.5l82 151q27 53 64.5 79t102.5 26q29 0 57 -6v-70q-20 4 -42 4q-50 -2 -69 -17t-43 -56l-75 -133q-21 -39 -39.5 -58.5t-45.5 -32.5l311 -365h-109l-288 341q-21 -3 -63 -3v-338h-85v725z" />
    <glyph glyph-name="uni041B" unicode="&#x41b;" horiz-adv-x="783" 
d="M28 -3v68l36 -1q83 0 83 78v583h542v-725h-86v648h-371v-507q0 -148 -151 -148q-22 0 -53 4z" />
    <glyph glyph-name="uni041C" unicode="&#x41c;" horiz-adv-x="931" 
d="M94 725h98l276 -437l272 437h97v-725h-85v251q0 155 9 362l-273 -435h-41l-276 435q8 -198 8 -362v-251h-85v725z" />
    <glyph glyph-name="uni041D" unicode="&#x41d;" horiz-adv-x="762" 
d="M94 725h85v-315h403v315h85v-725h-85v332h-403v-332h-85v725z" />
    <glyph glyph-name="uni041E" unicode="&#x41e;" horiz-adv-x="862" 
d="M431 736q161 2 267 -104t104 -269q2 -163 -104 -269t-267 -104q-161 -2 -267 104t-104 269q-2 163 104 269t267 104zM431 71q124 0 203 82t79 210t-79 210t-203 82t-203 -82t-79 -210t79 -210t203 -82z" />
    <glyph glyph-name="uni041F" unicode="&#x41f;" horiz-adv-x="762" 
d="M94 725h573v-725h-85v644h-403v-644h-85v725z" />
    <glyph glyph-name="uni0420" unicode="&#x420;" horiz-adv-x="681" 
d="M641 498q0 -106 -71 -165q-72 -59 -189 -58l-202 1v-276h-85v725h287q121 0 190.5 -61.5t69.5 -165.5zM552 498q0 72 -46 110t-127 38h-200v-295h200q84 0 128.5 39t44.5 108z" />
    <glyph glyph-name="uni0421" unicode="&#x421;" horiz-adv-x="816" 
d="M419 735q132 0 224 -68.5t113 -180.5h-90q-23 79 -88.5 124t-155.5 45q-123 0 -198 -80.5t-75 -211.5t74.5 -211.5t195.5 -80.5q93 0 159 45.5t88 123.5h90q-21 -112 -113.5 -181t-223.5 -69q-160 -2 -260.5 103t-98.5 270q0 166 99 269t260 103z" />
    <glyph glyph-name="uni0422" unicode="&#x422;" horiz-adv-x="598" 
d="M579 651h-236v-651h-86v651h-238v74h560v-74z" />
    <glyph glyph-name="uni0423" unicode="&#x423;" horiz-adv-x="639" 
d="M109 725l215 -370l206 370h95l-410 -725h-90l153 270l-264 455h95z" />
    <glyph glyph-name="uni0424" unicode="&#x424;" horiz-adv-x="841" 
d="M459 84v-84h-76v84q-152 4 -237.5 79.5t-85.5 199.5q0 127 87 200q88 75 236 79v83h76v-83q151 -4 236.5 -80t85.5 -199q0 -127 -87 -201t-235 -78zM695 363q0 92 -64 145t-174 55v-400q114 2 175 57q63 55 63 143zM384 163v400q-112 -1 -175 -55t-63 -145q0 -92 64 -145
t174 -55z" />
    <glyph glyph-name="uni0425" unicode="&#x425;" horiz-adv-x="694" 
d="M287 362l-258 363h104l216 -310l219 310h102l-259 -363l261 -362h-105l-219 304l-218 -304h-100z" />
    <glyph glyph-name="uni0426" unicode="&#x426;" horiz-adv-x="793" 
d="M89 725h85v-646h403v646h85v-646h87v-198h-85v119h-575v725z" />
    <glyph glyph-name="uni0427" unicode="&#x427;" horiz-adv-x="656" 
d="M566 725v-725h-85v307q-85 -45 -182 -45q-109 0 -164.5 57.5t-55.5 163.5v242h86v-235q0 -77 38.5 -113t118.5 -36q75 0 159 41v343h85z" />
    <glyph glyph-name="uni0428" unicode="&#x428;" horiz-adv-x="1043" 
d="M94 725h85v-644h299v644h86v-644h299v644h86v-725h-855v725z" />
    <glyph glyph-name="uni0429" unicode="&#x429;" horiz-adv-x="1079" 
d="M94 725h85v-644h299v644h86v-646h299v646h86v-646h86v-198h-85v119h-856v725z" />
    <glyph glyph-name="uni042A" unicode="&#x42a;" horiz-adv-x="802" 
d="M753 223q0 -104 -64 -164q-65 -59 -170 -59h-274v651h-226v74h311v-282h189q109 0 171.5 -59.5t62.5 -160.5zM664 221q0 70 -39.5 108t-112.5 38h-182v-291h182q73 0 112.5 37.5t39.5 107.5z" />
    <glyph glyph-name="uni042B" unicode="&#x42b;" horiz-adv-x="871" 
d="M85 725h86v-282h189q109 0 171.5 -59.5t62.5 -160.5q0 -104 -64 -164q-65 -59 -170 -59h-275v725zM691 725h85v-725h-85v725zM353 76q73 0 112.5 37.5t39.5 107.5t-39.5 108t-112.5 38h-182v-291h182z" />
    <glyph glyph-name="uni042C" unicode="&#x42c;" horiz-adv-x="642" 
d="M602 223q0 -104 -64 -164q-65 -59 -170 -59h-274v725h85v-282h189q109 0 171.5 -59.5t62.5 -160.5zM513 221q0 70 -39.5 108t-112.5 38h-182v-291h182q73 0 112.5 37.5t39.5 107.5z" />
    <glyph glyph-name="uni042D" unicode="&#x42d;" horiz-adv-x="815" 
d="M755 363q0 -174 -98 -273.5t-261 -99.5q-130 0 -222.5 69t-113.5 181h89q22 -78 88.5 -123.5t159.5 -45.5q119 0 189.5 68.5t78.5 190.5h-345v66h345q-8 123 -80.5 191t-191.5 68q-90 0 -155.5 -45t-88.5 -124h-89q21 112 113.5 180.5t223.5 68.5q165 0 261.5 -101.5
t96.5 -270.5z" />
    <glyph glyph-name="uni042E" unicode="&#x42e;" horiz-adv-x="1120" 
d="M1060 363q2 -163 -104 -269t-267 -104q-152 0 -254.5 93t-114.5 242h-141v-325h-85v725h85v-325h140q12 151 114 243.5t256 92.5q161 2 267 -104t104 -269zM971 363q0 128 -79 210t-203 82t-203 -82t-79 -210t79 -210t203 -82t203 82t79 210z" />
    <glyph glyph-name="uni042F" unicode="&#x42f;" horiz-adv-x="707" 
d="M613 725v-725h-85v287h-238l-145 -287h-95l153 302q-69 22 -108.5 76.5t-39.5 129.5q0 100 63 158.5t176 58.5h319zM528 647h-225q-75 0 -117 -36t-42 -105q0 -68 43 -107t120 -39h221v287z" />
    <glyph glyph-name="uni0430" unicode="&#x430;" 
d="M59 134q0 134 189 154l181 21v18q0 62 -36 94.5t-99 32.5q-67 0 -105.5 -30t-34.5 -83h-79q2 84 62 133q61 49 161 49q99 0 156 -53.5t57 -156.5v-313h-74l-5 103q-23 -52 -80 -82q-58 -31 -126 -31q-74 0 -120 39q-47 41 -47 105zM429 228v22l-165 -20q-64 -9 -92 -31
t-28 -59q0 -38 28 -59.5t77 -21.5q78 0 128 53.5t52 115.5z" />
    <glyph glyph-name="uni0431" unicode="&#x431;" horiz-adv-x="650" 
d="M600 250q0 -116 -76.5 -188t-198.5 -72q-134 0 -205 92t-71 250q0 187 95.5 295t266.5 108q94 0 163 -28v-74q-80 30 -162 30q-130 0 -206 -78t-84 -217q26 63 85.5 99.5t137.5 36.5q111 0 183 -71t72 -183zM515 251q0 86 -51.5 133.5t-135.5 47.5q-86 0 -136.5 -50
t-50.5 -134q0 -83 51 -134q53 -51 136 -51q84 0 135.5 51.5t51.5 136.5z" />
    <glyph glyph-name="uni0432" unicode="&#x432;" horiz-adv-x="561" 
d="M505 141q0 -63 -44 -102t-123 -39h-258v513h253q71 0 113 -38t42 -99q0 -35 -18 -65t-50 -47q40 -12 62.5 -45t22.5 -78zM160 293h151q46 0 71 21.5t25 59.5q0 34 -23 54t-63 20h-161v-155zM422 147q0 41 -26 62t-70 21h-166v-165h164q46 0 72 21.5t26 60.5z" />
    <glyph glyph-name="uni0433" unicode="&#x433;" horiz-adv-x="425" 
d="M88 513h314v-71h-231v-442h-83v513z" />
    <glyph glyph-name="uni0434" unicode="&#x434;" horiz-adv-x="674" 
d="M614 70v-180h-77v110h-397v-110h-78v180q60 11 92 58t32 120v265h350v-443h78zM173 70h282v373h-189v-191q0 -136 -93 -182z" />
    <glyph glyph-name="uni0435" unicode="&#x435;" horiz-adv-x="607" 
d="M558 149q-22 -74 -87 -116.5t-155 -42.5q-120 0 -193.5 73.5t-73.5 193.5q0 118 73 192t188 74q107 0 174 -63t67 -164q0 -16 -3 -40h-413v-15q0 -86 48.5 -133.5t132.5 -47.5q57 0 99 23.5t59 65.5h84zM138 317h328q0 58 -44.5 96.5t-113.5 38.5q-66 0 -112.5 -37
t-57.5 -98z" />
    <glyph glyph-name="uni0436" unicode="&#x436;" horiz-adv-x="772" 
d="M238 253q-43 16 -64 64l-38 84q-10 25 -26.5 37t-48.5 12q-10 0 -31 -3v68q22 6 49 6q50 0 76 -20t45 -62l47 -101q27 -55 81 -55h17v230h82v-230h17q54 0 81 55l47 101q19 42 45 62t76 20q27 0 49 -6v-68q-21 3 -31 3q-32 0 -48.5 -11.5t-26.5 -37.5l-38 -84
q-21 -50 -63 -65l204 -252h-93l-190 238h-29v-238h-82v238h-29l-189 -238h-94z" />
    <glyph glyph-name="uni0437" unicode="&#x437;" horiz-adv-x="501" 
d="M137 143q4 -39 33.5 -62.5t78.5 -23.5q53 0 83 24.5t30 66.5q0 41 -28.5 63.5t-74.5 22.5h-62v57h58q43 0 69.5 22.5t26.5 60.5t-26.5 59.5t-73.5 21.5t-76 -22.5t-30 -62.5h-79q1 69 52 110t134 41q81 0 131 -38.5t50 -101.5q0 -38 -20 -68.5t-53 -44.5q42 -16 64 -48.5
t22 -75.5q0 -69 -54 -110.5t-141 -41.5q-86 0 -138 40.5t-56 110.5h80z" />
    <glyph glyph-name="uni0438" unicode="&#x438;" horiz-adv-x="599" 
d="M516 513v-513h-82v388l-269 -388h-82v513h82v-385l270 385h81z" />
    <glyph glyph-name="uni0439" unicode="&#x439;" horiz-adv-x="604" 
d="M516 513v-513h-82v388l-269 -388h-82v513h82v-385l270 385h81zM305 572q-66 0 -107.5 39.5t-41.5 101.5h61q0 -38 25.5 -62t62.5 -24t63 24t26 62h60q0 -62 -41.5 -101.5t-107.5 -39.5z" />
    <glyph glyph-name="uni043A" unicode="&#x43a;" horiz-adv-x="538" 
d="M88 513h83v-229h17q60 0 90 58l51 97q39 82 127 82q26 0 48 -6v-70q-21 3 -29 3q-31 0 -46 -11t-31 -39l-47 -80q-26 -50 -60 -64l217 -254h-107l-194 228q-4 -1 -36 -1v-227h-83v513z" />
    <glyph glyph-name="uni043B" unicode="&#x43b;" horiz-adv-x="595" 
d="M24 -4v67h26q56 0 56 50v400h401v-513h-83v441h-234v-332q0 -116 -119 -116q-20 0 -47 3z" />
    <glyph glyph-name="uni043C" unicode="&#x43c;" horiz-adv-x="718" 
d="M88 513h97l178 -305l175 305h97v-513h-80v153q0 154 4 254l-193 -325h-6l-196 323q5 -142 5 -252v-153h-81v513z" />
    <glyph glyph-name="uni043D" unicode="&#x43d;" horiz-adv-x="595" 
d="M512 513v-513h-82v221h-259v-221h-83v513h83v-221h259v221h82z" />
    <glyph glyph-name="uni043E" unicode="&#x43e;" horiz-adv-x="648" 
d="M324 523q119 0 197 -74.5t78 -191.5q0 -118 -77.5 -192.5t-197.5 -74.5t-197.5 74.5t-77.5 192.5q0 117 78 191.5t197 74.5zM325 64q85 0 136.5 53t51.5 140t-51.5 140t-136.5 53t-138 -53q-52 -52 -52 -141q0 -87 52 -139.5t138 -52.5z" />
    <glyph glyph-name="uni043F" unicode="&#x43f;" horiz-adv-x="595" 
d="M88 513h424v-513h-82v442h-259v-442h-83v513z" />
    <glyph glyph-name="uni0440" unicode="&#x440;" horiz-adv-x="677" 
d="M628 259q0 -120 -73 -194.5t-188 -74.5q-132 0 -196 88v-278h-83v713h76l6 -88q27 45 81 71.5t122 26.5q112 0 183.5 -73.5t71.5 -190.5zM543 258q0 88 -49.5 140t-133.5 52q-85 0 -137 -49.5t-52 -136.5v-14q0 -84 51 -135.5t136 -51.5t135 51.5t50 143.5z" />
    <glyph glyph-name="uni0441" unicode="&#x441;" horiz-adv-x="613" 
d="M313 523q97 0 164 -49q69 -50 87 -129h-86q-16 48 -60.5 76t-104.5 28q-82 0 -130 -52.5t-48 -140.5q0 -87 48.5 -139.5t130.5 -52.5q62 0 105 27.5t59 75.5h86q-19 -81 -87.5 -129t-162.5 -48q-116 0 -190.5 74t-74.5 193q0 118 74 192t190 74z" />
    <glyph glyph-name="uni0442" unicode="&#x442;" horiz-adv-x="484" 
d="M20 513h444v-71h-181v-442h-82v442h-181v71z" />
    <glyph glyph-name="uni0443" unicode="&#x443;" horiz-adv-x="611" 
d="M527 513v-518q0 -92 -63.5 -148.5t-167.5 -56.5q-98 0 -157 46.5t-64 126.5h81q5 -50 42 -77.5t97 -27.5q69 0 109 36.5t40 98.5v144q-53 -98 -176 -98q-89 0 -138.5 52.5t-49.5 145.5v276h82v-264q0 -69 33.5 -103.5t93.5 -34.5q73 0 114 45.5t41 112.5v244h83z" />
    <glyph glyph-name="uni0444" unicode="&#x444;" horiz-adv-x="739" 
d="M407 -9v-191h-76v191q-133 10 -207.5 80.5t-74.5 185.5q0 116 75 185.5t207 79.5v203h76v-203q132 -9 207 -80t75 -186q0 -116 -75 -186t-207 -79zM607 256q0 86 -52.5 135t-151.5 57v-383q98 7 151 57t53 134zM336 65v383q-99 -7 -151.5 -56.5t-52.5 -135.5
q0 -85 52.5 -134t151.5 -57z" />
    <glyph glyph-name="uni0445" unicode="&#x445;" horiz-adv-x="535" 
d="M210 258l-187 255h97l146 -203l148 203h95l-190 -255l195 -258h-97l-153 204l-150 -204h-94z" />
    <glyph glyph-name="uni0446" unicode="&#x446;" horiz-adv-x="639" 
d="M88 513h83v-442h259v442h82v-442h79v-181h-77v110h-426v513z" />
    <glyph glyph-name="uni0447" unicode="&#x447;" horiz-adv-x="566" 
d="M482 513v-513h-83v191q-71 -38 -142 -38q-91 0 -136.5 48t-45.5 136v176h81v-176q0 -112 123 -112q65 0 120 27v261h83z" />
    <glyph glyph-name="uni0448" unicode="&#x448;" horiz-adv-x="847" 
d="M88 513h83v-442h214v442h83v-442h214v442h83v-513h-677v513z" />
    <glyph glyph-name="uni0449" unicode="&#x449;" horiz-adv-x="891" 
d="M88 513h83v-442h214v442h83v-442h214v442h83v-442h78v-181h-76v110h-679v513z" />
    <glyph glyph-name="uni044A" unicode="&#x44a;" horiz-adv-x="577" 
d="M544 160q0 -72 -48 -116t-126 -44h-216v443h-127v70h211v-194h132q79 0 126.5 -44t47.5 -115zM457 160q0 42 -27.5 66.5t-73.5 24.5h-118v-182h118q46 0 73.5 24.5t27.5 66.5z" />
    <glyph glyph-name="uni044B" unicode="&#x44b;" horiz-adv-x="736" 
d="M88 513h85v-194h131q79 0 126.5 -44t47.5 -115q0 -72 -48 -116t-126 -44h-216v513zM563 513h84v-513h-84v513zM291 69q45 0 72.5 24.5t27.5 66.5t-27.5 66.5t-72.5 24.5h-118v-182h118z" />
    <glyph glyph-name="uni044C" unicode="&#x44c;" horiz-adv-x="521" 
d="M170 513v-194h132q79 0 126.5 -44t47.5 -115q0 -72 -48 -116t-126 -44h-214v513h82zM170 69h118q46 0 73.5 24.5t27.5 66.5t-27.5 66.5t-73.5 24.5h-118v-182z" />
    <glyph glyph-name="uni044D" unicode="&#x44d;" horiz-adv-x="612" 
d="M564 257q0 -119 -74.5 -193t-190.5 -74q-94 0 -162.5 48t-87.5 129h86q16 -48 59.5 -75.5t105.5 -27.5q74 0 121 44t55 119h-232v59h232q-8 75 -54.5 119t-120.5 44q-61 0 -105.5 -28t-60.5 -76h-86q18 79 87 129q68 49 164 49q116 0 190 -74t74 -192z" />
    <glyph glyph-name="uni044E" unicode="&#x44e;" horiz-adv-x="855" 
d="M806 257q0 -118 -77.5 -192.5t-197.5 -74.5q-110 0 -186 64t-86 168h-91v-222h-80v513h80v-222h91q10 103 86.5 167.5t185.5 64.5q119 0 197 -74.5t78 -191.5zM720 257q0 87 -51.5 140t-136.5 53t-138 -53q-52 -52 -52 -141q0 -87 52 -139.5t138 -52.5q85 0 136.5 53
t51.5 140z" />
    <glyph glyph-name="uni044F" unicode="&#x44f;" horiz-adv-x="548" 
d="M466 513v-513h-83v193h-97l-165 -193h-97l173 201q-73 5 -115 46.5t-42 109.5q0 71 48 113.5t130 42.5h248zM383 442h-155q-46 0 -73.5 -24.5t-27.5 -65.5q0 -42 27.5 -67t73.5 -25h155v182z" />
    <glyph glyph-name="uni0450" unicode="&#x450;" horiz-adv-x="607" 
d="M558 149q-22 -74 -87 -116.5t-155 -42.5q-120 0 -193.5 73.5t-73.5 193.5q0 118 73 192t188 74q107 0 174 -63t67 -164q0 -16 -3 -40h-413v-15q0 -86 48.5 -133.5t132.5 -47.5q57 0 99 23.5t59 65.5h84zM138 317h328q0 58 -44.5 96.5t-113.5 38.5q-66 0 -112.5 -37
t-57.5 -98zM140 671l37 60l169 -115l-29 -46z" />
    <glyph glyph-name="uni0451" unicode="&#x451;" horiz-adv-x="607" 
d="M558 149q-22 -74 -87 -116.5t-155 -42.5q-120 0 -193.5 73.5t-73.5 193.5q0 118 73 192t188 74q107 0 174 -63t67 -164q0 -16 -3 -40h-413v-15q0 -86 48.5 -133.5t132.5 -47.5q57 0 99 23.5t59 65.5h84zM138 317h328q0 58 -44.5 96.5t-113.5 38.5q-66 0 -112.5 -37
t-57.5 -98zM151 646q0 25 18 41.5t45 16.5t45 -16.5t18 -41.5t-18 -41.5t-45 -16.5t-45 16.5t-18 41.5zM353 646q0 25 18.5 41.5t45.5 16.5q26 0 44 -16.5t18 -41.5t-18 -41.5t-44 -16.5q-27 0 -45.5 16.5t-18.5 41.5z" />
    <glyph glyph-name="uni0452" unicode="&#x452;" horiz-adv-x="651" 
d="M568 291v-294q0 -94 -48.5 -149.5t-134.5 -55.5q-25 0 -59 8v63q24 -2 34 -2q126 0 126 137v293q-2 159 -126 159q-72 0 -115 -48t-43 -127v-275h-83v606h-92v60h92v84h83v-84h174v-60h-174l-1 -180q24 47 70.5 72t106.5 25q190 0 190 -232z" />
    <glyph glyph-name="uni0453" unicode="&#x453;" horiz-adv-x="425" 
d="M88 513h314v-71h-231v-442h-83v513zM153 616l168 115l38 -60l-177 -101z" />
    <glyph glyph-name="uni0454" unicode="&#x454;" horiz-adv-x="612" 
d="M478 167h86q-19 -81 -87.5 -129t-162.5 -48q-116 0 -190.5 74t-74.5 193q0 118 74 192t190 74q97 0 164 -49q69 -50 87 -129h-86q-16 48 -60.5 76t-104.5 28q-74 0 -121 -44t-55 -119h232v-59h-232q8 -75 55 -119t122 -44q62 0 105 27.5t59 75.5z" />
    <glyph glyph-name="uni0455" unicode="&#x455;" horiz-adv-x="532" 
d="M57 151h81q3 -45 39.5 -70t94.5 -25q57 0 89 23t32 62q0 64 -77 77l-101 17q-149 26 -149 136q0 69 54 110.5t142 41.5q90 0 144.5 -41t57.5 -113h-78q-2 42 -35.5 65.5t-87.5 23.5q-51 0 -82.5 -22.5t-31.5 -59.5q0 -31 21 -46t62 -23l110 -19q65 -11 99.5 -48.5
t34.5 -92.5q0 -71 -56 -114t-149 -43q-94 0 -151.5 43.5t-62.5 117.5z" />
    <glyph glyph-name="uni0456" unicode="&#x456;" horiz-adv-x="259" 
d="M66 706q0 24 18 40.5t47 16.5q27 0 45 -16.5t18 -40.5q0 -26 -17.5 -42.5t-45.5 -16.5q-29 0 -47 16.5t-18 42.5zM89 513h83v-513h-83v513z" />
    <glyph glyph-name="uni0457" unicode="&#x457;" horiz-adv-x="261" 
d="M89 513h83v-513h-83v513zM-31 646q0 25 18 41.5t45 16.5t45 -16.5t18 -41.5t-18 -41.5t-45 -16.5t-45 16.5t-18 41.5zM171 646q0 25 18.5 41.5t45.5 16.5q26 0 44 -16.5t18 -41.5t-18 -41.5t-44 -16.5q-27 0 -45.5 16.5t-18.5 41.5z" />
    <glyph glyph-name="uni0458" unicode="&#x458;" horiz-adv-x="274" 
d="M78 706q0 24 18 40.5t47 16.5q28 0 46 -16.5t18 -40.5q0 -26 -18 -42.5t-46 -16.5q-29 0 -47 16.5t-18 42.5zM-65 -200v63h44q64 0 91 25t27 78v547h82v-550q0 -85 -45.5 -128t-127.5 -43q-28 0 -71 8z" />
    <glyph glyph-name="uni0459" unicode="&#x459;" horiz-adv-x="850" 
d="M805 160q0 -72 -48 -116t-126 -44h-207v442h-234v-333q0 -116 -119 -116q-20 0 -47 3v67h26q56 0 56 50v400h399v-194h126q79 0 126.5 -44t47.5 -115zM719 160q0 42 -27.5 66.5t-73.5 24.5h-113v-182h112q46 0 74 24.5t28 66.5z" />
    <glyph glyph-name="uni045A" unicode="&#x45a;" horiz-adv-x="857" 
d="M88 513h83v-221h259v221h82v-194h126q79 0 126.5 -44t47.5 -115q0 -72 -48 -116t-126 -44h-208v221h-259v-221h-83v513zM624 69q46 0 74 24.5t28 66.5t-27.5 66.5t-73.5 24.5h-113v-182h112z" />
    <glyph glyph-name="uni045B" unicode="&#x45b;" horiz-adv-x="651" 
d="M568 321v-321h-82v316q0 65 -33.5 99.5t-92.5 34.5q-72 0 -115 -48t-43 -127v-275h-83v609h-92v59h92v82h83v-82h174v-59h-174l-1 -183q24 47 70 72t106 25q91 0 141 -52.5t50 -149.5z" />
    <glyph glyph-name="uni045C" unicode="&#x45c;" horiz-adv-x="538" 
d="M88 513h83v-229h17q60 0 90 58l51 97q39 82 127 82q26 0 48 -6v-70q-21 3 -29 3q-31 0 -46 -11t-31 -39l-47 -80q-26 -50 -60 -64l217 -254h-107l-194 228q-4 -1 -36 -1v-227h-83v513zM197 618l168 115l38 -60l-177 -101z" />
    <glyph glyph-name="uni045D" unicode="&#x45d;" horiz-adv-x="599" 
d="M516 513v-513h-82v388l-269 -388h-82v513h82v-385l270 385h81zM148 673l37 60l169 -115l-29 -46z" />
    <glyph glyph-name="uni045E" unicode="&#x45e;" horiz-adv-x="611" 
d="M527 513v-518q0 -92 -63.5 -148.5t-167.5 -56.5q-98 0 -157 46.5t-64 126.5h81q5 -50 42 -77.5t97 -27.5q69 0 109 36.5t40 98.5v144q-53 -98 -176 -98q-89 0 -138.5 52.5t-49.5 145.5v276h82v-264q0 -69 33.5 -103.5t93.5 -34.5q73 0 114 45.5t41 112.5v244h83zM303 571
q-66 0 -107.5 39.5t-41.5 101.5h61q0 -38 25.5 -62t62.5 -24t63 24t26 62h60q0 -62 -41.5 -101.5t-107.5 -39.5z" />
    <glyph glyph-name="uni045F" unicode="&#x45f;" horiz-adv-x="598" 
d="M512 0h-173v-110h-76v110h-175v513h83v-442h259v442h82v-513z" />
    <glyph glyph-name="uni0462" unicode="&#x462;" horiz-adv-x="740" 
d="M680 222q0 -105 -64 -163q-64 -59 -169 -59h-275v652h-153v73h407v-73h-168v-212h189q108 0 170.5 -59t62.5 -159zM591 220q0 70 -39.5 108t-112.5 38h-181v-290h181q73 0 112.5 37.5t39.5 106.5z" />
    <glyph glyph-name="uni0463" unicode="&#x463;" horiz-adv-x="589" 
d="M540 160q0 -72 -48 -116t-126 -44h-215v487h-124v63h124v200h83v-200h137v-63h-137v-168h132q79 0 126.5 -44t47.5 -115zM452 160q0 42 -27.5 66.5t-72.5 24.5h-118v-182h118q45 0 72.5 24.5t27.5 66.5z" />
    <glyph glyph-name="uni0464" unicode="&#x464;" horiz-adv-x="1066" 
d="M916 240h90q-21 -112 -113.5 -181t-223.5 -69q-151 0 -248.5 92t-109.5 243h-132v-325h-85v725h85v-325h132q11 151 108.5 243t249.5 92q132 0 224 -68.5t113 -180.5h-90q-23 79 -88.5 124t-155.5 45q-115 0 -189 -71t-83 -188h359v-66h-359q9 -117 82.5 -188t186.5 -71
q93 0 159 45.5t88 123.5z" />
    <glyph glyph-name="uni0465" unicode="&#x465;" horiz-adv-x="804" 
d="M670 167h85q-19 -81 -87 -129t-162 -48q-107 0 -180 63.5t-83 168.5h-75v-222h-80v513h80v-222h75q10 105 82 168.5t180 63.5q96 0 164 -49q70 -50 86 -129h-85q-16 48 -61 76t-105 28q-74 0 -120.5 -44t-54.5 -119h232v-59h-232q8 -75 55 -119t121 -44q62 0 105.5 27.5
t59.5 75.5z" />
    <glyph glyph-name="uni0466" unicode="&#x466;" horiz-adv-x="724" 
d="M536 180h-135v-180h-77v180h-138l-69 -180h-93l286 725h101l289 -725h-95zM510 250l-149 391l-149 -391h298z" />
    <glyph glyph-name="uni0467" unicode="&#x467;" horiz-adv-x="539" 
d="M392 106h-99v-106h-58v106h-90l-40 -106h-87l203 513h97l204 -513h-90zM369 168l-100 267l-101 -267h201z" />
    <glyph glyph-name="uni0468" unicode="&#x468;" horiz-adv-x="976" 
d="M788 180h-135v-180h-77v180h-138l-69 -180h-93l71 180h-168v-180h-85v725h85v-474h196l187 474h101l289 -725h-95zM762 250l-149 391l-149 -391h298z" />
    <glyph glyph-name="uni0469" unicode="&#x469;" horiz-adv-x="756" 
d="M88 513h80v-341h128l136 341h97l204 -513h-90l-41 110h-99l2 -110h-59l2 110h-91l-41 -110h-87l44 111h-105v-111h-80v513zM580 172l-100 262l-100 -262h200z" />
    <glyph glyph-name="uni046A" unicode="&#x46a;" horiz-adv-x="781" 
d="M130 254q27 67 59.5 98t85.5 39l-229 264v70h694v-70l-229 -264q54 -8 87 -40t58 -97l102 -254h-89l-87 223q-26 67 -53.5 92t-70.5 25h-22v-340h-86v340h-22q-43 0 -70.5 -25t-53.5 -92l-87 -223h-89zM367 398h52l220 257h-492z" />
    <glyph glyph-name="uni046B" unicode="&#x46b;" horiz-adv-x="646" 
d="M110 185q21 49 47 69.5t72 22.5l-158 172v64h503v-64l-157 -172q46 -3 72 -23t46 -69l81 -185h-81l-71 159q-18 41 -36.5 57t-46.5 16h-17v-232h-82v232h-17q-27 0 -46.5 -16t-37.5 -57l-70 -159h-82zM315 282h15l148 167h-311z" />
    <glyph glyph-name="uni046C" unicode="&#x46c;" horiz-adv-x="999" 
d="M976 0h-89l-87 223q-27 67 -54 92t-71 25h-21v-340h-86v340h-22q-44 0 -71 -25t-53 -92l-87 -223h-89l102 254q19 50 40 76h-209v-330h-85v725h85v-325h306l-221 255v70h694v-70l-229 -264q54 -8 87 -40t58 -97zM857 655h-492l219 -257h53z" />
    <glyph glyph-name="uni046D" unicode="&#x46d;" horiz-adv-x="852" 
d="M819 0h-81l-71 159q-18 41 -36.5 57t-46.5 16h-17v-232h-82v232h-17q-27 0 -46.5 -16t-37.5 -57l-70 -159h-82l81 185q8 19 23 43h-168v-228h-80v513h80v-236h264l-158 172v64h503v-64l-157 -172q46 -3 72 -23t46 -69zM681 449h-311l148 -167h15z" />
    <glyph glyph-name="uni0472" unicode="&#x472;" horiz-adv-x="862" 
d="M802 363q2 -163 -104 -269t-267 -104q-161 -2 -267 104t-104 269q-2 163 104 269t267 104q161 2 267 -104t104 -269zM150 396h562q-11 115 -88.5 187t-192.5 72t-192.5 -72t-88.5 -187zM712 330h-562q11 -115 88.5 -187t192.5 -72t192.5 72t88.5 187z" />
    <glyph glyph-name="uni0473" unicode="&#x473;" horiz-adv-x="646" 
d="M599 257q0 -118 -77.5 -192.5t-197.5 -74.5t-197.5 74.5t-77.5 192.5q0 117 78 191.5t197 74.5t197 -74.5t78 -191.5zM137 287h374q-9 75 -59 119t-127 44q-78 0 -128.5 -44t-59.5 -119zM511 227h-374q8 -75 59 -119t129 -44t128 44t58 119z" />
    <glyph glyph-name="uni0474" unicode="&#x474;" horiz-adv-x="760" 
d="M115 725l239 -638l194 517q27 75 62 103t99 28q25 0 50 -5v-78q-12 4 -34 4q-40 0 -60.5 -19t-38.5 -69l-219 -568h-105l-282 725h95z" />
    <glyph glyph-name="uni0475" unicode="&#x475;" horiz-adv-x="570" 
d="M108 513l154 -436l122 343q20 56 47.5 78t76.5 22q26 0 39 -3v-72q-11 3 -22 3q-28 0 -42.5 -14t-25.5 -46l-147 -388h-95l-197 513h90z" />
    <glyph glyph-name="uni0476" unicode="&#x476;" horiz-adv-x="760" 
d="M327 921l54 41l117 -163l-43 -32zM152 904l50 47l131 -153l-38 -36zM115 725l239 -638l194 517q27 75 62 103t99 28q25 0 50 -5v-78q-12 4 -34 4q-40 0 -60.5 -19t-38.5 -69l-219 -568h-105l-282 725h95z" />
    <glyph glyph-name="uni0477" unicode="&#x477;" horiz-adv-x="570" 
d="M242 732l54 41l117 -163l-43 -32zM67 715l50 47l131 -153l-38 -36zM108 513l154 -436l122 343q20 56 47.5 78t76.5 22q26 0 39 -3v-72q-11 3 -22 3q-28 0 -42.5 -14t-25.5 -46l-147 -388h-95l-197 513h90z" />
    <glyph glyph-name="uni0478" unicode="&#x478;" horiz-adv-x="1415" 
d="M431 736q161 2 267 -104t104 -269q2 -163 -104 -269t-267 -104q-161 -2 -267 104t-104 269q-2 163 104 269t267 104zM431 71q124 0 203 82t79 210t-79 210t-203 82t-203 -82t-79 -210t79 -210t203 -82zM944 513l158 -427l127 341q20 53 47 73t76 20q26 0 40 -3v-72
q-10 3 -22 3q-29 0 -43.5 -13.5t-27.5 -45.5l-232 -589h-85l74 197l-203 516h91z" />
    <glyph glyph-name="uni0479" unicode="&#x479;" horiz-adv-x="1177" 
d="M324 523q119 0 197 -74.5t78 -191.5q0 -118 -77.5 -192.5t-197.5 -74.5t-197.5 74.5t-77.5 192.5q0 117 78 191.5t197 74.5zM706 513l157 -427l128 341q20 53 47 73t76 20q27 0 40 -3v-72q-10 3 -23 3q-28 0 -43 -14t-28 -45l-231 -589h-85l73 197l-202 516h91zM325 64
q85 0 136.5 53t51.5 140t-51.5 140t-136.5 53t-138 -53q-52 -52 -52 -141q0 -87 52 -139.5t138 -52.5z" />
    <glyph glyph-name="uni0488" unicode="&#x488;" horiz-adv-x="600" 
 />
    <glyph glyph-name="uni0489" unicode="&#x489;" horiz-adv-x="600" 
 />
    <glyph glyph-name="uni048A" unicode="&#x48a;" horiz-adv-x="777" 
d="M241 924h60q0 -38 25 -61.5t64 -23.5q37 0 63 24.5t26 60.5h59q0 -62 -41 -101t-107 -39t-107.5 39t-41.5 101zM727 71l-26 -193h-74l17 122h-51v586l-413 -586h-86v725h85v-582l413 582h86v-654h49z" />
    <glyph glyph-name="uni048B" unicode="&#x48b;" horiz-adv-x="612" 
d="M156 713h61q0 -38 25 -62t64 -24q37 0 62.5 24t25.5 62h60q0 -62 -41 -101.5t-107 -39.5q-67 0 -108.5 39.5t-41.5 101.5zM573 77l-26 -187h-72l15 110h-56v388l-269 -388h-82v513h82v-385l270 385h81v-436h57z" />
    <glyph glyph-name="uni048C" unicode="&#x48c;" horiz-adv-x="696" 
d="M656 227q0 -105 -69 -166t-191 -61h-287v567h-96v59h96v99h86v-99h192v-59h-192v-118l201 1q121 1 190.5 -58t69.5 -165zM567 227q0 69 -44 108t-128 39h-200v-295h200q81 0 126.5 38t45.5 110z" />
    <glyph glyph-name="uni048D" unicode="&#x48d;" horiz-adv-x="571" 
d="M521 160q0 -72 -48 -116t-126 -44h-214v457h-106v63h106v230h83v-230h155v-63h-155v-138h131q79 0 126.5 -44t47.5 -115zM434 160q0 42 -27.5 66.5t-72.5 24.5h-118v-182h118q45 0 72.5 24.5t27.5 66.5z" />
    <glyph glyph-name="uni048E" unicode="&#x48e;" horiz-adv-x="681" 
d="M502 294l60 -124l-56 -27l-66 136q-21 -4 -59 -4l-202 1v-276h-85v725h287q121 0 190.5 -61.5t69.5 -165.5q0 -74 -36.5 -127t-102.5 -77zM552 498q0 72 -46 110t-127 38h-200v-295h200q21 0 26 1l-53 110l56 27l59 -123q85 35 85 132z" />
    <glyph glyph-name="uni048F" unicode="&#x48f;" horiz-adv-x="678" 
d="M511 28l45 -92l-53 -26l-45 94q-45 -14 -91 -14q-132 0 -196 88v-278h-83v713h76l6 -88q27 45 81 71.5t122 26.5q112 0 183.5 -73.5t71.5 -190.5q0 -161 -117 -231zM424 73l-54 112l52 26l54 -111q67 50 67 158q0 88 -49.5 140t-133.5 52q-85 0 -137 -49.5t-52 -136.5
v-14q0 -84 51 -135.5t136 -51.5q39 0 66 10z" />
    <glyph glyph-name="uni0490" unicode="&#x490;" horiz-adv-x="526" 
d="M504 827v-176h-330v-651h-86v725h338v102h78z" />
    <glyph glyph-name="uni0491" unicode="&#x491;" horiz-adv-x="429" 
d="M406 615v-173h-235v-442h-83v513h245v102h73z" />
    <glyph glyph-name="uni0492" unicode="&#x492;" horiz-adv-x="633" 
d="M253 651v-252h289v-70h-289v-329h-85v329h-87v70h87v326h415v-74h-330z" />
    <glyph glyph-name="uni0493" unicode="&#x493;" horiz-adv-x="427" 
d="M173 442v-158h170v-66h-170v-218h-83v218h-63v66h63v229h314v-71h-231z" />
    <glyph glyph-name="uni0494" unicode="&#x494;" horiz-adv-x="658" 
d="M567 234v-236q0 -95 -49.5 -150.5t-135.5 -55.5q-27 0 -59 8v65q13 -3 33 -3q125 0 125 138v233q0 70 -35.5 106.5t-97.5 36.5q-75 0 -123 -49q-47 -50 -47 -126v-201h-85v725h375v-70h-290l-1 -301q26 45 77 70.5t114 25.5q94 0 146.5 -56.5t52.5 -159.5z" />
    <glyph glyph-name="uni0495" unicode="&#x495;" horiz-adv-x="621" 
d="M572 93q0 -110 -69 -178t-182 -68q-34 0 -61 7v67q24 -6 51 -6q79 0 127.5 48.5t48.5 128.5q0 75 -43.5 120.5t-114.5 45.5q-66 0 -107.5 -39t-41.5 -102v-117h-84v513h312v-74h-228l-1 -186q51 78 167 78q101 0 163.5 -66t62.5 -172z" />
    <glyph glyph-name="uni0496" unicode="&#x496;" horiz-adv-x="991" 
d="M667 365l309 -365v-122h-78v122h-30l-284 341q-30 -3 -46 -3v-338h-85v338q-19 0 -46 3l-284 -341h-108l309 365q-27 14 -44.5 33t-39.5 58l-72 133q-21 39 -43 56t-70 17q-21 0 -41 -4v70q28 6 57 6q64 0 101.5 -26t63.5 -79l75 -143q26 -49 53 -68t67 -19h22v326h85
v-326h22q42 0 68.5 19.5t50.5 67.5l75 143q28 54 65.5 79.5t100.5 25.5q28 0 57 -6v-70q-20 4 -42 4q-33 0 -55 -10.5t-32 -23t-25 -39.5l-73 -133q-21 -39 -38.5 -58t-44.5 -33z" />
    <glyph glyph-name="uni0497" unicode="&#x497;" horiz-adv-x="779" 
d="M746 79v-189h-70v110h-30l-190 238h-29v-238h-82v238h-29l-189 -238h-94l205 253q-43 16 -64 64l-38 84q-10 25 -26.5 37t-48.5 12q-10 0 -31 -3v68q22 6 49 6q50 0 76 -20t45 -62l47 -101q27 -55 81 -55h17v230h82v-230h17q54 0 81 55l47 101q19 42 45 62t76 20
q27 0 49 -6v-68q-21 3 -31 3q-32 0 -48.5 -11.5t-26.5 -37.5l-38 -84q-21 -50 -63 -65l141 -174v1h70z" />
    <glyph glyph-name="uni0498" unicode="&#x498;" horiz-adv-x="629" 
d="M345 -10l-20 -35q35 3 60.5 -15.5t25.5 -52.5q0 -37 -27.5 -56t-70.5 -19q-45 0 -73 19v43q21 -21 64 -21q55 0 55 36q0 34 -50 34q-19 0 -42 -6v19l29 53q-102 4 -165 61q-63 58 -67 146h87q4 -62 47.5 -99t113.5 -37q76 0 123 41q47 42 47 107q0 62 -42 96t-110 34h-81
v67h79q61 0 99.5 35t38.5 92q0 60 -41 96t-110 36t-111 -36.5t-45 -99.5h-86q3 95 68 151t174 56q107 0 172 -54.5t65 -140.5q0 -114 -99 -163q54 -20 84.5 -66t30.5 -109q0 -86 -61 -144.5t-162 -67.5z" />
    <glyph glyph-name="uni0499" unicode="&#x499;" horiz-adv-x="501" 
d="M281 -7l-18 -31q35 3 60.5 -15.5t25.5 -53.5t-28 -55t-71 -20q-44 0 -72 19v44q21 -21 64 -21q24 0 39.5 9t15.5 26q0 34 -50 34q-19 0 -43 -6v19l27 51q-78 5 -124 44.5t-50 105.5h80q4 -39 33.5 -62.5t78.5 -23.5q53 0 83 24.5t30 66.5q0 41 -28.5 63.5t-74.5 22.5h-62
v57h58q43 0 69.5 22.5t26.5 60.5t-26.5 59.5t-73.5 21.5t-76 -22.5t-30 -62.5h-79q1 69 52 110t134 41q81 0 131 -38.5t50 -101.5q0 -38 -20 -68.5t-53 -44.5q42 -16 64 -48.5t22 -75.5q0 -63 -44.5 -103t-120.5 -48z" />
    <glyph glyph-name="uni049A" unicode="&#x49a;" horiz-adv-x="679" 
d="M328 365l311 -365h3v-119h-80v119h-32l-288 341q-21 -3 -63 -3v-338h-85v725h85v-327h24q52 0 80.5 17.5t52.5 62.5l82 151q27 53 64.5 79t102.5 26q29 0 57 -6v-70q-20 4 -42 4q-50 -2 -69 -17t-43 -56l-75 -133q-21 -39 -39.5 -58.5t-45.5 -32.5z" />
    <glyph glyph-name="uni049B" unicode="&#x49b;" horiz-adv-x="542" 
d="M512 77v-187h-69v110h-42l-194 228q-4 -1 -36 -1v-227h-83v513h83v-229h17q60 0 90 58l51 97q39 82 127 82q26 0 48 -6v-70q-21 3 -29 3q-31 0 -46 -11t-31 -39l-47 -80q-26 -50 -60 -64l152 -178v1h69z" />
    <glyph glyph-name="uni049C" unicode="&#x49c;" horiz-adv-x="677" 
d="M335 366l309 -366h-109l-283 339v-125h-31v125q-9 -1 -42 -1v-338h-85v725h85v-327h29h13v115h31v-111q55 12 89 76l82 151q27 53 64.5 79t102.5 26q28 0 57 -6v-70q-20 4 -42 4q-50 -2 -69 -17t-43 -56l-75 -133q-39 -69 -83 -90z" />
    <glyph glyph-name="uni049D" unicode="&#x49d;" horiz-adv-x="558" 
d="M528 0h-106l-187 228h-2v-90h-35v89h-27v-227h-83v513h83v-229h27v79h35v-76q41 9 65 55l51 97q39 82 127 82q26 0 48 -6v-70q-21 3 -29 3q-31 0 -46 -11t-31 -39l-47 -80q-24 -46 -56 -62z" />
    <glyph glyph-name="uni049E" unicode="&#x49e;" horiz-adv-x="656" 
d="M333 365l311 -365h-110l-288 341q-19 -3 -62 -3v-338h-86v576h-87v62h87v87h86v-87h102v-62h-102v-178h23q53 0 81.5 17.5t52.5 62.5l81 151q29 53 66 79t102 26q28 0 57 -6v-70q-20 4 -42 4q-50 -2 -70.5 -17.5t-42.5 -55.5l-74 -133q-21 -39 -39.5 -58.5t-45.5 -32.5z
" />
    <glyph glyph-name="uni049F" unicode="&#x49f;" horiz-adv-x="585" 
d="M555 0h-108l-193 228q-4 -1 -36 -1v-227h-83v584h-108v61h108v84h83v-84h129v-61h-129v-300h17q60 0 90 58l50 97q39 82 127 82q26 0 48 -6v-70q-18 3 -28 3q-32 0 -47.5 -11.5t-29.5 -38.5l-47 -80q-27 -50 -61 -64z" />
    <glyph glyph-name="uni04A0" unicode="&#x4a0;" horiz-adv-x="751" 
d="M427 365l311 -365h-109l-288 341q-21 -3 -63 -3v-338h-85v655h-174v70h259v-327h24q52 0 80.5 17.5t52.5 62.5l82 151q27 53 64.5 79t102.5 26q28 0 57 -6v-70q-20 4 -42 4q-50 -2 -69 -17t-43 -56l-75 -133q-21 -39 -39.5 -58.5t-45.5 -32.5z" />
    <glyph glyph-name="uni04A1" unicode="&#x4a1;" horiz-adv-x="623" 
d="M593 0h-107l-194 228q-3 -1 -36 -1v-227h-82v442h-147v71h229v-229h17q61 0 91 58l50 97q39 82 127 82q25 0 48 -6v-70q-18 3 -29 3q-31 0 -46 -11t-31 -39l-46 -80q-29 -51 -61 -64z" />
    <glyph glyph-name="uni04A2" unicode="&#x4a2;" horiz-adv-x="769" 
d="M723 71v-193h-73v122h-68v332h-403v-332h-85v725h85v-315h403v315h85v-654h56z" />
    <glyph glyph-name="uni04A3" unicode="&#x4a3;" horiz-adv-x="616" 
d="M570 77v-187h-72v110h-68v221h-259v-221h-83v513h83v-221h259v221h82v-436h58z" />
    <glyph glyph-name="uni04A4" unicode="&#x4a4;" horiz-adv-x="882" 
d="M788 725v-725h-86v332h-402v-332h-86v651h-195v74h281v-315h402v315h86z" />
    <glyph glyph-name="uni04A5" unicode="&#x4a5;" horiz-adv-x="767" 
d="M88 513h83v-221h259v221h313v-74h-231v-439h-82v221h-259v-221h-83v513z" />
    <glyph glyph-name="uni04A6" unicode="&#x4a6;" horiz-adv-x="1097" 
d="M1014 234v-238q0 -94 -49 -149t-135 -55q-26 0 -60 8v64q24 -2 33 -2q126 0 126 138v233q0 70 -35.5 106.5t-98.5 36.5q-76 0 -122 -49q-47 -50 -47 -126v-201h-86v644h-357v-644h-85v725h528v-369q26 44 77 69t113 25q94 0 146 -56.5t52 -159.5z" />
    <glyph glyph-name="uni04A7" unicode="&#x4a7;" horiz-adv-x="954" 
d="M88 513h424v-242q54 80 169 80q99 0 161 -69t62 -181q0 -119 -68.5 -190.5t-181.5 -71.5q-37 0 -61 7v67q23 -6 50 -6q82 0 129.5 51.5t47.5 139.5q0 83 -42.5 131.5t-113.5 48.5q-68 0 -110 -44t-42 -117v-117h-83v442h-258v-442h-83v513z" />
    <glyph glyph-name="uni04A8" unicode="&#x4a8;" horiz-adv-x="876" 
d="M475 760q82 0 144 -17v-80q-65 18 -138 18q-151 0 -240.5 -83t-89.5 -223q0 -135 82.5 -221t216.5 -86q50 0 94 11q-53 47 -84 119t-31 150q0 101 54.5 163.5t144.5 62.5q89 0 144.5 -61t55.5 -159q0 -83 -35.5 -157t-96.5 -122q35 -13 79 -13q39 0 75 9v-71
q-33 -10 -88 -10q-84 0 -145 34q-75 -34 -178 -34q-166 -2 -273.5 106t-105.5 279q-2 173 113 280t302 105zM621 104q55 37 90 104q34 65 34 139q0 67 -32 108.5t-85 41.5t-84.5 -40.5t-31.5 -110.5q0 -68 30 -134t79 -108z" />
    <glyph glyph-name="uni04A9" unicode="&#x4a9;" horiz-adv-x="652" 
d="M349 522q50 0 94 -11v-65q-34 10 -83 10q-101 0 -163.5 -57t-62.5 -149q0 -88 55.5 -143t148.5 -54q22 -1 45 6q-41 30 -66 79t-25 99q0 69 42.5 111.5t112.5 42.5q68 0 109.5 -42t41.5 -111q0 -52 -25.5 -100t-68.5 -81q22 -7 49 -7q26 0 61 7v-59q-29 -8 -67 -8
q-69 0 -110 23q-54 -23 -124 -23q-118 0 -191 71.5t-73 186.5q0 123 82.5 198.5t217.5 75.5zM445 80q37 26 59 67.5t22 83.5t-21.5 67.5t-59.5 25.5q-37 0 -58.5 -25t-21.5 -69q0 -43 22 -84t58 -66z" />
    <glyph glyph-name="uni04AA" unicode="&#x4aa;" horiz-adv-x="816" 
d="M666 240h90q-20 -104 -100 -171q-80 -66 -199 -77l-21 -37q35 3 60.5 -15.5t25.5 -53.5t-27.5 -54.5t-70.5 -19.5q-45 0 -73 19v43q21 -21 65 -21q54 0 54 35q0 34 -50 34q-19 0 -43 -6v19l30 55q-156 4 -251.5 107t-95.5 266q0 166 99 269t260 103q132 0 224 -68.5
t113 -180.5h-90q-23 79 -88.5 124t-155.5 45q-123 0 -198 -80.5t-75 -211.5t74.5 -211.5t195.5 -80.5q93 0 159 45.5t88 123.5z" />
    <glyph glyph-name="uni04AB" unicode="&#x4ab;" horiz-adv-x="613" 
d="M478 167h86q-17 -74 -76 -121t-144 -55l-18 -31q35 3 60.5 -15.5t25.5 -53.5t-27.5 -54.5t-70.5 -19.5q-45 0 -73 19v43q21 -21 65 -21q54 0 54 35q0 34 -50 34q-19 0 -43 -6v19l27 51q-108 6 -176.5 79t-68.5 187q0 118 74 192t190 74q97 0 164 -49q69 -50 87 -129h-86
q-16 48 -60.5 76t-104.5 28q-82 0 -130 -52.5t-48 -140.5q0 -87 48.5 -139.5t130.5 -52.5q62 0 105 27.5t59 75.5z" />
    <glyph glyph-name="uni04AC" unicode="&#x4ac;" horiz-adv-x="606" 
d="M344 651v-580h60v-193h-77v122h-68v651h-242v74h567v-74h-240z" />
    <glyph glyph-name="uni04AD" unicode="&#x4ad;" horiz-adv-x="500" 
d="M292 442v-380h59v-172h-72v110h-70v442h-181v71h444v-71h-180z" />
    <glyph glyph-name="uni04AE" unicode="&#x4ae;" horiz-adv-x="637" 
d="M627 725l-264 -395v-330h-85v330l-268 395h99l212 -319l211 319h95z" />
    <glyph glyph-name="uni04AF" unicode="&#x4af;" horiz-adv-x="525" 
d="M506 513l-202 -513v-175h-82v175l-203 513h90l154 -420l153 420h90z" />
    <glyph glyph-name="uni04B0" unicode="&#x4b0;" horiz-adv-x="637" 
d="M396 379h128v-71h-161v-308h-85v308h-162v71h129l-235 346h99l212 -319l211 319h95z" />
    <glyph glyph-name="uni04B1" unicode="&#x4b1;" horiz-adv-x="538" 
d="M308 0h109v-66h-109v-109h-83v109h-109v66h109v20l-202 493h89l154 -408l154 408h89l-201 -493v-20z" />
    <glyph glyph-name="uni04B2" unicode="&#x4b2;" horiz-adv-x="694" 
d="M672 0v-122h-75v122h-30l-219 304l-218 -304h-100l257 362l-258 363h104l216 -310l219 310h102l-259 -363z" />
    <glyph glyph-name="uni04B3" unicode="&#x4b3;" horiz-adv-x="562" 
d="M539 62v-172h-72v110h-50l-153 204l-150 -204h-94l190 258l-187 255h97l146 -203l148 203h95l-190 -255l148 -196h72z" />
    <glyph glyph-name="uni04B4" unicode="&#x4b4;" horiz-adv-x="936" 
d="M37 725h517v-74h-215v-570h406v644h86v-644h73v-200h-83v119h-567v651h-217v74z" />
    <glyph glyph-name="uni04B5" unicode="&#x4b5;" horiz-adv-x="733" 
d="M684 71v-181h-76v110h-432v442h-153v71h387v-71h-152v-371h265v442h83v-442h78z" />
    <glyph glyph-name="uni04B6" unicode="&#x4b6;" horiz-adv-x="678" 
d="M635 71v-193h-77v122h-68v307q-85 -45 -182 -45q-109 0 -164 57t-55 164v242h85v-235q0 -77 38.5 -113t118.5 -36q79 0 159 41v343h85v-654h60z" />
    <glyph glyph-name="uni04B7" unicode="&#x4b7;" horiz-adv-x="588" 
d="M540 77v-187h-72v110h-69v191q-71 -38 -142 -38q-91 0 -136.5 48t-45.5 136v176h81v-176q0 -112 123 -112q65 0 120 27v261h83v-436h58z" />
    <glyph glyph-name="uni04B8" unicode="&#x4b8;" horiz-adv-x="664" 
d="M575 725v-725h-85v306q-65 -32 -133 -41v-118h-49v115q-109 0 -164 57t-55 164v242h85v-235q0 -71 33 -107t101 -41v138h49v-138q65 4 133 40v343h85z" />
    <glyph glyph-name="uni04B9" unicode="&#x4b9;" horiz-adv-x="566" 
d="M482 513v-513h-83v191q-43 -24 -103 -35v-85h-36v82h-3q-91 0 -136.5 48t-45.5 136v176h81v-176q0 -103 104 -111v102h36v-103q52 3 103 27v261h83z" />
    <glyph glyph-name="uni04BA" unicode="&#x4ba;" horiz-adv-x="652" 
d="M579 245v-245h-86v237q0 75 -38.5 111t-116.5 36q-80 0 -159 -41v-343h-85v725h85v-309q85 45 184 45q105 0 160.5 -56.5t55.5 -159.5z" />
    <glyph glyph-name="uni04BB" unicode="&#x4bb;" horiz-adv-x="622" 
d="M88 750h83l-1 -326q25 48 71.5 73.5t106.5 25.5q92 0 141.5 -53t49.5 -150v-320h-82v314q0 67 -33.5 101.5t-93.5 34.5q-72 0 -115.5 -48t-43.5 -128v-274h-83v750z" />
    <glyph glyph-name="uni04BC" unicode="&#x4bc;" horiz-adv-x="939" 
d="M876 377h-627l17 -20q-5 -130 70.5 -210.5t202.5 -80.5q89 0 156 43t90 114h90q-25 -104 -119 -168.5t-218 -64.5q-161 -2 -262.5 103t-99.5 271v13h-12q-74 0 -112.5 30.5t-38.5 86.5q0 38 12 77h59q-7 -29 -7 -54q0 -40 23 -56.5t69 -16.5h14q23 134 117.5 212.5
t236.5 78.5q148 2 246 -87.5t96 -223.5q0 -24 -3 -47zM789 445q-8 101 -75 158t-175 57q-109 0 -183 -59q-71 -58 -88 -156h521z" />
    <glyph glyph-name="uni04BD" unicode="&#x4bd;" horiz-adv-x="723" 
d="M674 149q-23 -75 -88 -117t-155 -42q-119 0 -192.5 73.5t-73.5 191.5q-67 0 -102 28.5t-35 79.5q0 43 12 72h53q-7 -28 -7 -51q0 -67 84 -67q18 95 87 150q71 56 171 56q108 0 176.5 -63t68.5 -164q0 -10 -4 -41h-419v-14q0 -86 48.5 -133.5t132.5 -47.5q57 0 99.5 24
t59.5 65h84zM253 317h334q2 59 -45 97q-46 38 -115 38t-115.5 -36.5t-58.5 -98.5z" />
    <glyph glyph-name="uni04BE" unicode="&#x4be;" horiz-adv-x="939" 
d="M876 377h-614l3 -31q0 -126 75 -203t199 -77q89 0 156 43t90 114h90q-23 -93 -99 -154q-77 -62 -182 -75q-66 -30 -66 -77q0 -43 52 -43q16 0 36 5v-44q-22 -8 -49 -8q-42 0 -67 21.5t-25 57.5q0 49 44 84q-155 6 -249 109t-94 265v13h-12q-74 0 -112.5 30.5t-38.5 86.5
q0 38 12 77h59q-7 -29 -7 -54q0 -40 23 -56.5t69 -16.5h14q23 134 117.5 212.5t236.5 78.5q148 2 246 -87.5t96 -223.5q0 -24 -3 -47zM789 445q-8 101 -75 158t-175 57q-109 0 -183 -59q-71 -58 -88 -156h521z" />
    <glyph glyph-name="uni04BF" unicode="&#x4bf;" horiz-adv-x="723" 
d="M406 -83q0 -44 52 -44q12 0 36 6v-45q-27 -8 -49 -8q-42 0 -67 21.5t-25 57.5q0 53 46 87q-105 10 -170 81q-62 71 -64 182q-67 0 -102 28.5t-35 79.5q0 43 12 72h53q-7 -28 -7 -51q0 -67 84 -67q18 95 87 150q71 56 171 56q108 0 176.5 -63t68.5 -164q0 -10 -4 -41h-419
v-14q0 -86 48.5 -133.5t132.5 -47.5q57 0 99.5 24t59.5 65h84q-21 -66 -75.5 -107.5t-130.5 -49.5q-62 -30 -62 -75zM253 317h334q2 59 -45 97q-46 38 -115 38t-115.5 -36.5t-58.5 -98.5z" />
    <glyph glyph-name="uni04C0" unicode="&#x4c0;" horiz-adv-x="274" 
d="M94 0v725h85v-725h-85z" />
    <glyph glyph-name="uni04C1" unicode="&#x4c1;" horiz-adv-x="986" 
d="M321 365q-27 14 -44 33t-39 58l-72 133q-22 40 -42.5 55.5t-70.5 17.5q-22 0 -42 -4v70q29 6 57 6q65 0 102.5 -25.5t63.5 -79.5l75 -143q26 -49 53.5 -68t65.5 -19h22v326h86v-326h22q42 0 68 19t51 68l75 143q26 54 63.5 79.5t102.5 25.5q28 0 57 -6v-70q-20 4 -42 4
q-50 -2 -70.5 -17.5t-42.5 -55.5l-72 -133q-22 -39 -39 -58t-44 -33l308 -365h-107l-284 341q-30 -3 -46 -3v-338h-86v338q-16 0 -46 3l-284 -341h-107zM493 784q-66 0 -107.5 39.5t-41.5 101.5h61q0 -38 25.5 -62t62.5 -24t63 24t26 62h60q0 -62 -41.5 -101.5t-107.5 -39.5
z" />
    <glyph glyph-name="uni04C2" unicode="&#x4c2;" horiz-adv-x="770" 
d="M238 253q-43 16 -64 64l-38 84q-10 25 -26.5 37t-48.5 12q-10 0 -31 -3v68q22 6 49 6q50 0 76 -20t45 -62l47 -101q27 -55 81 -55h17v230h82v-230h17q54 0 81 55l47 101q19 42 45 62t76 20q27 0 49 -6v-68q-21 3 -31 3q-32 0 -48.5 -11.5t-26.5 -37.5l-38 -84
q-21 -50 -63 -65l204 -252h-93l-190 238h-29v-238h-82v238h-29l-189 -238h-94zM386 572q-66 0 -107.5 39.5t-41.5 101.5h61q0 -38 25.5 -62t62.5 -24t63 24t26 62h60q0 -62 -41.5 -101.5t-107.5 -39.5z" />
    <glyph glyph-name="uni04C3" unicode="&#x4c3;" horiz-adv-x="600" 
d="M110 725h86v-305h9q40 0 68.5 21.5t54.5 66.5l67 121q18 34 33 53t48.5 35.5t81.5 17.5q31 0 55 -6v-70q-12 3 -34 3q-32 0 -54 -10.5t-33 -22.5t-26 -37l-52 -86q-23 -37 -41 -63q-14 -18 -37 -29l42 3q116 1 182.5 -56t66.5 -157q0 -95 -63 -153.5t-165 -58.5
q-36 0 -76 8v64q27 -7 62 -7q70 0 112.5 40.5t42.5 108.5q0 71 -47 109.5t-131 38.5h-166v-354h-86v725z" />
    <glyph glyph-name="uni04C4" unicode="&#x4c4;" horiz-adv-x="577" 
d="M537 76q0 -103 -69 -166t-181 -63q-37 0 -61 7v67q22 -6 52 -6q81 0 128 44t47 119q0 74 -46 115.5t-129 41.5h-106v-235h-84v513h84v-220h15q87 0 125 77l43 88q37 82 126 82q27 0 49 -6v-70q-18 3 -30 3q-31 0 -45.5 -11t-30.5 -39l-38 -69q-26 -46 -54 -60
q90 -3 147.5 -61t57.5 -151z" />
    <glyph glyph-name="uni04C5" unicode="&#x4c5;" horiz-adv-x="795" 
d="M751 71l-27 -193h-73l16 122h-64v648h-371v-507q0 -148 -151 -148q-22 0 -53 4v68l36 -1q83 0 83 78v583h542v-654h62z" />
    <glyph glyph-name="uni04C6" unicode="&#x4c6;" horiz-adv-x="616" 
d="M567 77l-26 -187h-72l15 110h-60v441h-234v-332q0 -116 -119 -116q-20 0 -47 3v67h26q56 0 56 50v400h401v-436h60z" />
    <glyph glyph-name="uni04C7" unicode="&#x4c7;" horiz-adv-x="762" 
d="M94 725h85v-315h403v315h85v-752q0 -87 -46.5 -134t-128.5 -47q-26 0 -68 8v63l46 -1q112 0 112 114v356h-403v-332h-85v725z" />
    <glyph glyph-name="uni04C8" unicode="&#x4c8;" horiz-adv-x="595" 
d="M512 513v-516q0 -94 -48.5 -149.5t-134.5 -55.5q-25 0 -59 8v63q24 -2 34 -2q126 0 126 137v223h-259v-221h-83v513h83v-221h259v221h82z" />
    <glyph glyph-name="uni04C9" unicode="&#x4c9;" horiz-adv-x="769" 
d="M727 71l-26 -193h-74l17 122h-62v332h-403v-332h-85v725h85v-315h403v315h85v-654h60z" />
    <glyph glyph-name="uni04CA" unicode="&#x4ca;" horiz-adv-x="618" 
d="M573 77l-26 -187h-72l15 110h-60v221h-259v-221h-83v513h83v-221h259v221h82v-436h61z" />
    <glyph glyph-name="uni04CB" unicode="&#x4cb;" horiz-adv-x="665" 
d="M89 725h85v-235q0 -77 38.5 -113t118.5 -36t159 41v343h85v-725h-97v-122h-73v187h85v241q-83 -44 -182 -44q-109 0 -164 57t-55 164v242z" />
    <glyph glyph-name="uni04CC" unicode="&#x4cc;" horiz-adv-x="566" 
d="M482 0h-54v-110h-79v177h50v124q-71 -38 -142 -38q-91 0 -136.5 48t-45.5 136v176h81v-176q0 -112 123 -112q65 0 120 27v261h83v-513z" />
    <glyph glyph-name="uni04CD" unicode="&#x4cd;" horiz-adv-x="938" 
d="M895 71l-26 -193h-74l16 122h-59v251q0 155 9 362l-273 -435h-41l-276 435q8 -198 8 -362v-251h-85v725h98l276 -437l272 437h97v-654h58z" />
    <glyph glyph-name="uni04CE" unicode="&#x4ce;" horiz-adv-x="742" 
d="M697 77l-27 -187h-72l15 110h-58v153q0 154 4 254l-193 -325h-6l-196 323q5 -142 5 -252v-153h-81v513h97l178 -305l175 305h97v-436h62z" />
    <glyph glyph-name="uni04CF" unicode="&#x4cf;" horiz-adv-x="259" 
d="M88 750h83v-750h-83v750z" />
    <glyph glyph-name="uni04D0" unicode="&#x4d0;" horiz-adv-x="724" 
d="M536 180h-350l-69 -180h-93l286 725h101l289 -725h-95zM510 250l-149 391l-149 -391h298zM360 784q-66 0 -107.5 39.5t-41.5 101.5h61q0 -38 25.5 -62t62.5 -24t63 24t26 62h60q0 -62 -41.5 -101.5t-107.5 -39.5z" />
    <glyph glyph-name="uni04D1" unicode="&#x4d1;" 
d="M59 134q0 134 189 154l181 21v18q0 62 -36 94.5t-99 32.5q-67 0 -105.5 -30t-34.5 -83h-79q2 84 62 133q61 49 161 49q99 0 156 -53.5t57 -156.5v-313h-74l-5 103q-23 -52 -80 -82q-58 -31 -126 -31q-74 0 -120 39q-47 41 -47 105zM429 228v22l-165 -20q-64 -9 -92 -31
t-28 -59q0 -38 28 -59.5t77 -21.5q78 0 128 53.5t52 115.5zM294 571q-66 0 -107.5 39.5t-41.5 101.5h61q0 -38 25.5 -62t62.5 -24t63 24t26 62h60q0 -62 -41.5 -101.5t-107.5 -39.5z" />
    <glyph glyph-name="uni04D2" unicode="&#x4d2;" horiz-adv-x="724" 
d="M536 180h-350l-69 -180h-93l286 725h101l289 -725h-95zM510 250l-149 391l-149 -391h298zM198 859q0 25 18 41.5t45 16.5t45 -16.5t18 -41.5t-18 -41.5t-45 -16.5t-45 16.5t-18 41.5zM400 859q0 25 18.5 41.5t45.5 16.5q26 0 44 -16.5t18 -41.5t-18 -41.5t-44 -16.5
q-27 0 -45.5 16.5t-18.5 41.5z" />
    <glyph glyph-name="uni04D3" unicode="&#x4d3;" 
d="M59 134q0 134 189 154l181 21v18q0 62 -36 94.5t-99 32.5q-67 0 -105.5 -30t-34.5 -83h-79q2 84 62 133q61 49 161 49q99 0 156 -53.5t57 -156.5v-313h-74l-5 103q-23 -52 -80 -82q-58 -31 -126 -31q-74 0 -120 39q-47 41 -47 105zM429 228v22l-165 -20q-64 -9 -92 -31
t-28 -59q0 -38 28 -59.5t77 -21.5q78 0 128 53.5t52 115.5zM132 646q0 25 18 41.5t45 16.5t45 -16.5t18 -41.5t-18 -41.5t-45 -16.5t-45 16.5t-18 41.5zM334 646q0 25 18.5 41.5t45.5 16.5q26 0 44 -16.5t18 -41.5t-18 -41.5t-44 -16.5q-27 0 -45.5 16.5t-18.5 41.5z" />
    <glyph glyph-name="uni04D4" unicode="&#x4d4;" horiz-adv-x="970" 
d="M516 647v-247h290v-74h-290v-247h390v-79h-473v204h-249l-70 -204h-90l259 725h623v-78h-390zM334 647l-126 -370h225v370h-99z" />
    <glyph glyph-name="uni04D5" unicode="&#x4d5;" horiz-adv-x="958" 
d="M271 301h136v27q0 59 -36 92.5t-97 33.5q-59 0 -95 -26.5t-41 -72.5h-78q5 77 65 122q59 46 152 46q64 0 114 -28t72 -75q68 103 204 103q109 0 177 -64t68 -168q0 -33 -3 -52h-415q0 -83 48.5 -131t129.5 -48q56 0 97.5 24t59.5 64h84q-21 -74 -85.5 -116t-155.5 -42
q-80 0 -141 34t-87 92q-26 -60 -84.5 -93t-132.5 -33q-83 0 -133 41.5t-50 110.5q0 75 60.5 117t166.5 42zM828 301q0 69 -44 111.5t-116 42.5t-119.5 -42.5t-54.5 -111.5h334zM241 60q75 0 121 44.5t46 116.5v17h-135q-70 0 -107.5 -24t-37.5 -68q0 -40 30.5 -63t82.5 -23z
" />
    <glyph glyph-name="uni04D6" unicode="&#x4d6;" horiz-adv-x="666" 
d="M94 725h508v-78h-423v-247h393v-74h-393v-248h423v-78h-508v725zM336 784q-66 0 -107.5 39.5t-41.5 101.5h61q0 -38 25.5 -62t62.5 -24t63 24t26 62h60q0 -62 -41.5 -101.5t-107.5 -39.5z" />
    <glyph glyph-name="uni04D7" unicode="&#x4d7;" horiz-adv-x="607" 
d="M558 149q-22 -74 -87 -116.5t-155 -42.5q-120 0 -193.5 73.5t-73.5 193.5q0 118 73 192t188 74q107 0 174 -63t67 -164q0 -16 -3 -40h-413v-15q0 -86 48.5 -133.5t132.5 -47.5q57 0 99 23.5t59 65.5h84zM138 317h328q0 58 -44.5 96.5t-113.5 38.5q-66 0 -112.5 -37
t-57.5 -98zM313 571q-66 0 -107.5 39.5t-41.5 101.5h61q0 -38 25.5 -62t62.5 -24t63 24t26 62h60q0 -62 -41.5 -101.5t-107.5 -39.5z" />
    <glyph glyph-name="uni04D8" unicode="&#x4d8;" horiz-adv-x="823" 
d="M763 361q0 -165 -100.5 -268t-260.5 -103q-148 -2 -246 89t-96 227q0 20 3 42h613l-2 31q0 126 -75 203t-199 77q-89 0 -156 -43q-69 -44 -91 -114h-89q25 104 118.5 168.5t218.5 64.5q161 2 262.5 -103t99.5 -271zM671 280h-523q7 -97 76 -156q68 -58 176 -58
q109 0 182 58q72 58 89 156z" />
    <glyph glyph-name="uni04D9" unicode="&#x4d9;" horiz-adv-x="608" 
d="M558 257q0 -119 -73 -193t-188 -74q-106 0 -173.5 63.5t-67.5 164.5q0 15 3 39h413v16q0 84 -48.5 132t-132.5 48q-57 0 -98.5 -24t-59.5 -64h-84q22 74 87 116t156 42q119 0 192.5 -73.5t73.5 -192.5zM469 196h-328q0 -58 44.5 -96.5t113.5 -38.5q66 0 112.5 37t57.5 98
z" />
    <glyph glyph-name="uni04DA" unicode="&#x4da;" horiz-adv-x="823" 
d="M763 361q0 -165 -100.5 -268t-260.5 -103q-148 -2 -246 89t-96 227q0 20 3 42h613l-2 31q0 126 -75 203t-199 77q-89 0 -156 -43q-69 -44 -91 -114h-89q25 104 118.5 168.5t218.5 64.5q161 2 262.5 -103t99.5 -271zM671 280h-523q7 -97 76 -156q68 -58 176 -58
q109 0 182 58q72 58 89 156zM243 857q0 25 18 41.5t45 16.5t45 -16.5t18 -41.5t-18 -41.5t-45 -16.5t-45 16.5t-18 41.5zM445 857q0 25 18.5 41.5t45.5 16.5q26 0 44 -16.5t18 -41.5t-18 -41.5t-44 -16.5q-27 0 -45.5 16.5t-18.5 41.5z" />
    <glyph glyph-name="uni04DB" unicode="&#x4db;" horiz-adv-x="608" 
d="M558 257q0 -119 -73 -193t-188 -74q-106 0 -173.5 63.5t-67.5 164.5q0 15 3 39h413v16q0 84 -48.5 132t-132.5 48q-57 0 -98.5 -24t-59.5 -64h-84q22 74 87 116t156 42q119 0 192.5 -73.5t73.5 -192.5zM469 196h-328q0 -58 44.5 -96.5t113.5 -38.5q66 0 112.5 37t57.5 98
zM139 648q0 25 18 41.5t45 16.5t45 -16.5t18 -41.5t-18 -41.5t-45 -16.5t-45 16.5t-18 41.5zM341 648q0 25 18.5 41.5t45.5 16.5q26 0 44 -16.5t18 -41.5t-18 -41.5t-44 -16.5q-27 0 -45.5 16.5t-18.5 41.5z" />
    <glyph glyph-name="uni04DC" unicode="&#x4dc;" horiz-adv-x="986" 
d="M321 365q-27 14 -44 33t-39 58l-72 133q-22 40 -42.5 55.5t-70.5 17.5q-22 0 -42 -4v70q29 6 57 6q65 0 102.5 -25.5t63.5 -79.5l75 -143q26 -49 53.5 -68t65.5 -19h22v326h86v-326h22q42 0 68 19t51 68l75 143q26 54 63.5 79.5t102.5 25.5q28 0 57 -6v-70q-20 4 -42 4
q-50 -2 -70.5 -17.5t-42.5 -55.5l-72 -133q-22 -39 -39 -58t-44 -33l308 -365h-107l-284 341q-30 -3 -46 -3v-338h-86v338q-16 0 -46 3l-284 -341h-107zM329 858q0 25 18 41.5t45 16.5t45 -16.5t18 -41.5t-18 -41.5t-45 -16.5t-45 16.5t-18 41.5zM531 858q0 25 18.5 41.5
t45.5 16.5q26 0 44 -16.5t18 -41.5t-18 -41.5t-44 -16.5q-27 0 -45.5 16.5t-18.5 41.5z" />
    <glyph glyph-name="uni04DD" unicode="&#x4dd;" horiz-adv-x="772" 
d="M238 253q-43 16 -64 64l-38 84q-10 25 -26.5 37t-48.5 12q-10 0 -31 -3v68q22 6 49 6q50 0 76 -20t45 -62l47 -101q27 -55 81 -55h17v230h82v-230h17q54 0 81 55l47 101q19 42 45 62t76 20q27 0 49 -6v-68q-21 3 -31 3q-32 0 -48.5 -11.5t-26.5 -37.5l-38 -84
q-21 -50 -63 -65l204 -252h-93l-190 238h-29v-238h-82v238h-29l-189 -238h-94zM222 648q0 25 18 41.5t45 16.5t45 -16.5t18 -41.5t-18 -41.5t-45 -16.5t-45 16.5t-18 41.5zM424 648q0 25 18.5 41.5t45.5 16.5q26 0 44 -16.5t18 -41.5t-18 -41.5t-44 -16.5q-27 0 -45.5 16.5
t-18.5 41.5z" />
    <glyph glyph-name="uni04DE" unicode="&#x4de;" horiz-adv-x="629" 
d="M151 196q4 -62 47.5 -99t113.5 -37q76 0 123 41q47 42 47 107q0 62 -42 96t-110 34h-81v67h79q61 0 99.5 35t38.5 92q0 60 -41 96t-110 36t-111 -36.5t-45 -99.5h-86q3 95 68 151t174 56q107 0 172 -54.5t65 -140.5q0 -114 -99 -163q54 -20 84.5 -66t30.5 -109
q0 -93 -70.5 -153t-184.5 -60q-109 0 -176.5 57t-72.5 150h87zM153 858q0 25 18 41.5t45 16.5t45 -16.5t18 -41.5t-18 -41.5t-45 -16.5t-45 16.5t-18 41.5zM355 858q0 25 18.5 41.5t45.5 16.5q26 0 44 -16.5t18 -41.5t-18 -41.5t-44 -16.5q-27 0 -45.5 16.5t-18.5 41.5z" />
    <glyph glyph-name="uni04DF" unicode="&#x4df;" horiz-adv-x="501" 
d="M137 143q4 -39 33.5 -62.5t78.5 -23.5q53 0 83 24.5t30 66.5q0 41 -28.5 63.5t-74.5 22.5h-62v57h58q43 0 69.5 22.5t26.5 60.5t-26.5 59.5t-73.5 21.5t-76 -22.5t-30 -62.5h-79q1 69 52 110t134 41q81 0 131 -38.5t50 -101.5q0 -38 -20 -68.5t-53 -44.5q42 -16 64 -48.5
t22 -75.5q0 -69 -54 -110.5t-141 -41.5q-86 0 -138 40.5t-56 110.5h80zM83 648q0 25 18 41.5t45 16.5t45 -16.5t18 -41.5t-18 -41.5t-45 -16.5t-45 16.5t-18 41.5zM285 648q0 25 18.5 41.5t45.5 16.5q26 0 44 -16.5t18 -41.5t-18 -41.5t-44 -16.5q-27 0 -45.5 16.5
t-18.5 41.5z" />
    <glyph glyph-name="uni04E0" unicode="&#x4e0;" horiz-adv-x="605" 
d="M540 224q0 -103 -72.5 -168.5t-186.5 -65.5q-111 0 -180.5 62.5t-69.5 164.5h82q0 -67 48.5 -111t120.5 -44q75 0 123 45q49 46 49 120q0 73 -49.5 114t-120.5 41q-49 0 -82 -16l-30 52l225 232h-321v75h424v-79l-197 -201q105 2 171 -59.5t66 -161.5z" />
    <glyph glyph-name="uni04E1" unicode="&#x4e1;" horiz-adv-x="622" 
d="M567 27q0 -104 -72.5 -169.5t-186.5 -65.5q-112 0 -181.5 62.5t-69.5 164.5h83q0 -67 48.5 -111t120.5 -44q74 0 123 46t49 119t-49.5 114t-120.5 41q-47 0 -82 -15l-30 51l222 218h-319v76h425v-79l-197 -188q105 2 171 -59.5t66 -160.5z" />
    <glyph glyph-name="uni04E2" unicode="&#x4e2;" horiz-adv-x="772" 
d="M678 725v-725h-85v594l-413 -594h-86v725h85v-591l413 591h86zM210 881h360v-63h-360v63z" />
    <glyph glyph-name="uni04E3" unicode="&#x4e3;" horiz-adv-x="599" 
d="M516 513v-513h-82v388l-269 -388h-82v513h82v-385l270 385h81zM107 669h360v-63h-360v63z" />
    <glyph glyph-name="uni04E4" unicode="&#x4e4;" horiz-adv-x="772" 
d="M678 725v-725h-85v594l-413 -594h-86v725h85v-591l413 591h86zM228 859q0 25 18 41.5t45 16.5t45 -16.5t18 -41.5t-18 -41.5t-45 -16.5t-45 16.5t-18 41.5zM430 859q0 25 18.5 41.5t45.5 16.5q26 0 44 -16.5t18 -41.5t-18 -41.5t-44 -16.5q-27 0 -45.5 16.5t-18.5 41.5z
" />
    <glyph glyph-name="uni04E5" unicode="&#x4e5;" horiz-adv-x="599" 
d="M516 513v-513h-82v388l-269 -388h-82v513h82v-385l270 385h81zM135 647q0 25 18 41.5t45 16.5t45 -16.5t18 -41.5t-18 -41.5t-45 -16.5t-45 16.5t-18 41.5zM337 647q0 25 18.5 41.5t45.5 16.5q26 0 44 -16.5t18 -41.5t-18 -41.5t-44 -16.5q-27 0 -45.5 16.5t-18.5 41.5z
" />
    <glyph glyph-name="uni04E6" unicode="&#x4e6;" horiz-adv-x="862" 
d="M431 736q161 2 267 -104t104 -269q2 -163 -104 -269t-267 -104q-161 -2 -267 104t-104 269q-2 163 104 269t267 104zM431 71q124 0 203 82t79 210t-79 210t-203 82t-203 -82t-79 -210t79 -210t203 -82zM268 859q0 25 18 41.5t45 16.5t45 -16.5t18 -41.5t-18 -41.5
t-45 -16.5t-45 16.5t-18 41.5zM470 859q0 25 18.5 41.5t45.5 16.5q26 0 44 -16.5t18 -41.5t-18 -41.5t-44 -16.5q-27 0 -45.5 16.5t-18.5 41.5z" />
    <glyph glyph-name="uni04E7" unicode="&#x4e7;" horiz-adv-x="648" 
d="M324 523q119 0 197 -74.5t78 -191.5q0 -118 -77.5 -192.5t-197.5 -74.5t-197.5 74.5t-77.5 192.5q0 117 78 191.5t197 74.5zM325 64q85 0 136.5 53t51.5 140t-51.5 140t-136.5 53t-138 -53q-52 -52 -52 -141q0 -87 52 -139.5t138 -52.5zM162 646q0 25 18 41.5t45 16.5
t45 -16.5t18 -41.5t-18 -41.5t-45 -16.5t-45 16.5t-18 41.5zM364 646q0 25 18.5 41.5t45.5 16.5q26 0 44 -16.5t18 -41.5t-18 -41.5t-44 -16.5q-27 0 -45.5 16.5t-18.5 41.5z" />
    <glyph glyph-name="uni04E8" unicode="&#x4e8;" horiz-adv-x="862" 
d="M802 363q2 -163 -104 -269t-267 -104q-161 -2 -267 104t-104 269q-2 163 104 269t267 104q161 2 267 -104t104 -269zM150 396h562q-11 115 -88.5 187t-192.5 72t-192.5 -72t-88.5 -187zM712 330h-562q11 -115 88.5 -187t192.5 -72t192.5 72t88.5 187z" />
    <glyph glyph-name="uni04E9" unicode="&#x4e9;" horiz-adv-x="646" 
d="M599 257q0 -118 -77.5 -192.5t-197.5 -74.5t-197.5 74.5t-77.5 192.5q0 117 78 191.5t197 74.5t197 -74.5t78 -191.5zM137 287h374q-9 75 -59 119t-127 44q-78 0 -128.5 -44t-59.5 -119zM511 227h-374q8 -75 59 -119t129 -44t128 44t58 119z" />
    <glyph glyph-name="uni04EA" unicode="&#x4ea;" horiz-adv-x="862" 
d="M802 363q2 -163 -104 -269t-267 -104q-161 -2 -267 104t-104 269q-2 163 104 269t267 104q161 2 267 -104t104 -269zM150 396h562q-11 115 -88.5 187t-192.5 72t-192.5 -72t-88.5 -187zM712 330h-562q11 -115 88.5 -187t192.5 -72t192.5 72t88.5 187zM268 859
q0 25 18 41.5t45 16.5t45 -16.5t18 -41.5t-18 -41.5t-45 -16.5t-45 16.5t-18 41.5zM470 859q0 25 18.5 41.5t45.5 16.5q26 0 44 -16.5t18 -41.5t-18 -41.5t-44 -16.5q-27 0 -45.5 16.5t-18.5 41.5z" />
    <glyph glyph-name="uni04EB" unicode="&#x4eb;" horiz-adv-x="646" 
d="M599 257q0 -118 -77.5 -192.5t-197.5 -74.5t-197.5 74.5t-77.5 192.5q0 117 78 191.5t197 74.5t197 -74.5t78 -191.5zM137 287h374q-9 75 -59 119t-127 44q-78 0 -128.5 -44t-59.5 -119zM511 227h-374q8 -75 59 -119t129 -44t128 44t58 119zM162 646q0 25 18 41.5
t45 16.5t45 -16.5t18 -41.5t-18 -41.5t-45 -16.5t-45 16.5t-18 41.5zM364 646q0 25 18.5 41.5t45.5 16.5q26 0 44 -16.5t18 -41.5t-18 -41.5t-44 -16.5q-27 0 -45.5 16.5t-18.5 41.5z" />
    <glyph glyph-name="uni04EC" unicode="&#x4ec;" horiz-adv-x="815" 
d="M755 363q0 -174 -98 -273.5t-261 -99.5q-130 0 -222.5 69t-113.5 181h89q22 -78 88.5 -123.5t159.5 -45.5q119 0 189.5 68.5t78.5 190.5h-345v66h345q-8 123 -80.5 191t-191.5 68q-90 0 -155.5 -45t-88.5 -124h-89q21 112 113.5 180.5t223.5 68.5q165 0 261.5 -101.5
t96.5 -270.5zM235 859q0 25 18 41.5t45 16.5t45 -16.5t18 -41.5t-18 -41.5t-45 -16.5t-45 16.5t-18 41.5zM437 859q0 25 18.5 41.5t45.5 16.5q26 0 44 -16.5t18 -41.5t-18 -41.5t-44 -16.5q-27 0 -45.5 16.5t-18.5 41.5z" />
    <glyph glyph-name="uni04ED" unicode="&#x4ed;" horiz-adv-x="612" 
d="M564 257q0 -119 -74.5 -193t-190.5 -74q-94 0 -162.5 48t-87.5 129h86q16 -48 59.5 -75.5t105.5 -27.5q74 0 121 44t55 119h-232v59h232q-8 75 -54.5 119t-120.5 44q-61 0 -105.5 -28t-60.5 -76h-86q18 79 87 129q68 49 164 49q116 0 190 -74t74 -192zM138 646
q0 25 18 41.5t45 16.5t45 -16.5t18 -41.5t-18 -41.5t-45 -16.5t-45 16.5t-18 41.5zM340 646q0 25 18.5 41.5t45.5 16.5q26 0 44 -16.5t18 -41.5t-18 -41.5t-44 -16.5q-27 0 -45.5 16.5t-18.5 41.5z" />
    <glyph glyph-name="uni04EE" unicode="&#x4ee;" horiz-adv-x="639" 
d="M109 725l215 -370l206 370h95l-410 -725h-90l153 270l-264 455h95zM140 881h360v-63h-360v63z" />
    <glyph glyph-name="uni04EF" unicode="&#x4ef;" horiz-adv-x="611" 
d="M527 513v-518q0 -92 -63.5 -148.5t-167.5 -56.5q-98 0 -157 46.5t-64 126.5h81q5 -50 42 -77.5t97 -27.5q69 0 109 36.5t40 98.5v144q-53 -98 -176 -98q-89 0 -138.5 52.5t-49.5 145.5v276h82v-264q0 -69 33.5 -103.5t93.5 -34.5q73 0 114 45.5t41 112.5v244h83zM123 668
h360v-63h-360v63z" />
    <glyph glyph-name="uni04F0" unicode="&#x4f0;" horiz-adv-x="639" 
d="M109 725l215 -370l206 370h95l-410 -725h-90l153 270l-264 455h95zM155 860q0 25 18 41.5t45 16.5t45 -16.5t18 -41.5t-18 -41.5t-45 -16.5t-45 16.5t-18 41.5zM357 860q0 25 18.5 41.5t45.5 16.5q26 0 44 -16.5t18 -41.5t-18 -41.5t-44 -16.5q-27 0 -45.5 16.5
t-18.5 41.5z" />
    <glyph glyph-name="uni04F1" unicode="&#x4f1;" horiz-adv-x="611" 
d="M527 513v-518q0 -92 -63.5 -148.5t-167.5 -56.5q-98 0 -157 46.5t-64 126.5h81q5 -50 42 -77.5t97 -27.5q69 0 109 36.5t40 98.5v144q-53 -98 -176 -98q-89 0 -138.5 52.5t-49.5 145.5v276h82v-264q0 -69 33.5 -103.5t93.5 -34.5q73 0 114 45.5t41 112.5v244h83zM141 646
q0 25 18 41.5t45 16.5t45 -16.5t18 -41.5t-18 -41.5t-45 -16.5t-45 16.5t-18 41.5zM343 646q0 25 18.5 41.5t45.5 16.5q26 0 44 -16.5t18 -41.5t-18 -41.5t-44 -16.5q-27 0 -45.5 16.5t-18.5 41.5z" />
    <glyph glyph-name="uni04F2" unicode="&#x4f2;" horiz-adv-x="639" 
d="M109 725l215 -370l206 370h95l-410 -725h-90l153 270l-264 455h95zM144 824l148 140l46 -52l-158 -129zM314 829l170 115l36 -60l-177 -101z" />
    <glyph glyph-name="uni04F3" unicode="&#x4f3;" horiz-adv-x="611" 
d="M527 513v-518q0 -92 -63.5 -148.5t-167.5 -56.5q-98 0 -157 46.5t-64 126.5h81q5 -50 42 -77.5t97 -27.5q69 0 109 36.5t40 98.5v144q-53 -98 -176 -98q-89 0 -138.5 52.5t-49.5 145.5v276h82v-264q0 -69 33.5 -103.5t93.5 -34.5q73 0 114 45.5t41 112.5v244h83zM186 611
l148 140l46 -52l-158 -129zM356 616l170 115l36 -60l-177 -101z" />
    <glyph glyph-name="uni04F4" unicode="&#x4f4;" horiz-adv-x="656" 
d="M566 725v-725h-85v307q-85 -45 -182 -45q-109 0 -164.5 57.5t-55.5 163.5v242h86v-235q0 -77 38.5 -113t118.5 -36q75 0 159 41v343h85zM159 860q0 25 18 41.5t45 16.5t45 -16.5t18 -41.5t-18 -41.5t-45 -16.5t-45 16.5t-18 41.5zM361 860q0 25 18.5 41.5t45.5 16.5
q26 0 44 -16.5t18 -41.5t-18 -41.5t-44 -16.5q-27 0 -45.5 16.5t-18.5 41.5z" />
    <glyph glyph-name="uni04F5" unicode="&#x4f5;" horiz-adv-x="566" 
d="M482 513v-513h-83v191q-71 -38 -142 -38q-91 0 -136.5 48t-45.5 136v176h81v-176q0 -112 123 -112q65 0 120 27v261h83zM119 647q0 25 18 41.5t45 16.5t45 -16.5t18 -41.5t-18 -41.5t-45 -16.5t-45 16.5t-18 41.5zM321 647q0 25 18.5 41.5t45.5 16.5q26 0 44 -16.5
t18 -41.5t-18 -41.5t-44 -16.5q-27 0 -45.5 16.5t-18.5 41.5z" />
    <glyph glyph-name="uni04F6" unicode="&#x4f6;" horiz-adv-x="600" 
d="M94 725h415v-74h-330v-582h84v-191h-74v122h-95v725z" />
    <glyph glyph-name="uni04F7" unicode="&#x4f7;" horiz-adv-x="425" 
d="M171 442v-365h58v-187h-72v110h-69v513h314v-71h-231z" />
    <glyph glyph-name="uni04F8" unicode="&#x4f8;" horiz-adv-x="871" 
d="M85 725h86v-282h189q109 0 171.5 -59.5t62.5 -160.5q0 -104 -64 -164q-65 -59 -170 -59h-275v725zM691 725h85v-725h-85v725zM353 76q73 0 112.5 37.5t39.5 107.5t-39.5 108t-112.5 38h-182v-291h182zM262 860q0 25 18 41.5t45 16.5t45 -16.5t18 -41.5t-18 -41.5
t-45 -16.5t-45 16.5t-18 41.5zM464 860q0 25 18.5 41.5t45.5 16.5q26 0 44 -16.5t18 -41.5t-18 -41.5t-44 -16.5q-27 0 -45.5 16.5t-18.5 41.5z" />
    <glyph glyph-name="uni04F9" unicode="&#x4f9;" horiz-adv-x="736" 
d="M88 513h85v-194h131q79 0 126.5 -44t47.5 -115q0 -72 -48 -116t-126 -44h-216v513zM563 513h84v-513h-84v513zM291 69q45 0 72.5 24.5t27.5 66.5t-27.5 66.5t-72.5 24.5h-118v-182h118zM204 647q0 25 18 41.5t45 16.5t45 -16.5t18 -41.5t-18 -41.5t-45 -16.5t-45 16.5
t-18 41.5zM406 647q0 25 18.5 41.5t45.5 16.5q26 0 44 -16.5t18 -41.5t-18 -41.5t-44 -16.5q-27 0 -45.5 16.5t-18.5 41.5z" />
    <glyph glyph-name="uni04FA" unicode="&#x4fa;" horiz-adv-x="614" 
d="M235 651v-252h289v-70h-289v-360q0 -89 -47.5 -134t-133.5 -45q-30 0 -73 8v66h46q67 0 94.5 26t27.5 81v358h-86v70h86v326h416v-74h-330z" />
    <glyph glyph-name="uni04FB" unicode="&#x4fb;" horiz-adv-x="448" 
d="M193 442v-158h171v-66h-171v-311q0 -55 -31.5 -85.5t-86.5 -30.5q-30 0 -48 5v65q5 -1 23 -1q32 0 46.5 15t14.5 49v294h-82v66h82v229h314v-71h-232z" />
    <glyph glyph-name="uni04FC" unicode="&#x4fc;" horiz-adv-x="654" 
d="M436 -200v55q4 -1 19 -1q85 0 85 68q0 37 -27 80l-189 304l-191 -306h-96l225 360l-234 365h99l195 -310l191 310h97l-226 -362l195 -315q45 -70 45 -128q0 -56 -37.5 -91t-99.5 -35q-27 0 -51 6z" />
    <glyph glyph-name="uni04FD" unicode="&#x4fd;" horiz-adv-x="542" 
d="M345 -142v46h16q63 0 63 45q0 26 -21 55l-138 204l-141 -208h-92l175 255l-182 258h94l144 -210l141 210h92l-174 -254l144 -215q36 -53 36 -94q0 -44 -31 -70.5t-82 -26.5q-12 0 -44 5z" />
    <glyph glyph-name="uni04FE" unicode="&#x4fe;" horiz-adv-x="694" 
d="M672 0h-105l-219 304l-218 -304h-100l233 328h-178v70h176l-232 327h104l216 -310l219 310h102l-233 -327h177v-70h-178z" />
    <glyph glyph-name="uni04FF" unicode="&#x4ff;" horiz-adv-x="535" 
d="M514 0h-97l-153 204l-150 -204h-94l167 227h-150v59h152l-166 227h97l146 -203l148 203h95l-169 -227h159v-59h-157z" />
    <glyph glyph-name="uni0510" unicode="&#x510;" horiz-adv-x="600" 
d="M320 -11q-115 0 -185.5 60t-70.5 153q0 63 31 109t85 66q-99 49 -99 163q0 86 64.5 140.5t172.5 54.5q109 0 174 -56t68 -151h-86q-3 63 -45 99.5t-111 36.5t-110 -36t-41 -96q0 -57 38.5 -92t99.5 -35h79v-67h-81q-69 0 -111 -34t-42 -96q0 -65 47 -107q49 -41 124 -41
q69 0 113 37.5t48 98.5h86q-3 -93 -71 -150t-177 -57z" />
    <glyph glyph-name="uni0511" unicode="&#x511;" horiz-adv-x="499" 
d="M250 -8q-87 0 -141 41.5t-54 110.5q0 43 22 75.5t64 48.5q-33 14 -53 44.5t-20 68.5q0 63 50 101.5t131 38.5q83 0 133.5 -41t51.5 -110h-78q-1 40 -30 62.5t-77 22.5q-46 0 -72.5 -21.5t-26.5 -59.5t26.5 -60.5t69.5 -22.5h58v-57h-62q-46 0 -74.5 -22.5t-28.5 -63.5
q0 -42 29.5 -66.5t82.5 -24.5q49 0 79 23.5t34 62.5h79q-3 -70 -55 -110.5t-138 -40.5z" />
    <glyph glyph-name="uni0512" unicode="&#x512;" horiz-adv-x="790" 
d="M28 63h34q91 0 91 85v577h542v-775q0 -154 -157 -154q-33 0 -53 4v65h34q91 0 91 86v697h-372v-500q0 -155 -157 -155q-21 0 -53 5v65z" />
    <glyph glyph-name="uni0513" unicode="&#x513;" horiz-adv-x="589" 
d="M507 513v-516q0 -94 -48.5 -149.5t-134.5 -55.5q-27 0 -59 8v63q22 -2 33 -2q126 0 126 137v443h-234v-332q0 -116 -119 -116q-20 0 -47 3v67h26q56 0 56 50v400h401z" />
    <glyph glyph-name="uni051C" unicode="&#x51c;" horiz-adv-x="997" 
d="M115 725l163 -628l173 628h104l173 -629l154 629h92l-187 -725h-115l-169 618l-168 -618h-115l-197 725h92z" />
    <glyph glyph-name="uni051D" unicode="&#x51d;" horiz-adv-x="802" 
d="M117 513l120 -432l118 432h93l120 -432l118 432h87l-152 -513h-102l-118 413l-115 -413h-102l-155 513h88z" />
    <glyph glyph-name="uni0524" unicode="&#x524;" horiz-adv-x="768" 
d="M723 71v-193h-73v122h-68v644h-403v-644h-85v725h573v-654h56z" />
    <glyph glyph-name="uni0525" unicode="&#x525;" horiz-adv-x="616" 
d="M570 77v-187h-72v110h-68v442h-259v-442h-83v513h424v-436h58z" />
    <glyph glyph-name="uni0526" unicode="&#x526;" horiz-adv-x="627" 
d="M607 71v-193h-77v122h-67v237q0 75 -38.5 111t-116.5 36q-80 0 -159 -41v-343h-85v725h85v-309q85 45 184 45q105 0 160.5 -56.5t55.5 -159.5v-174h58z" />
    <glyph glyph-name="uni0527" unicode="&#x527;" horiz-adv-x="643" 
d="M598 62v-172h-73v110h-68v314q0 67 -33.5 101.5t-93.5 34.5q-72 0 -115.5 -48t-43.5 -128v-274h-83v750h83l-1 -326q25 48 71.5 73.5t106.5 25.5q92 0 141.5 -53t49.5 -150v-258h59z" />
    <glyph glyph-name="Wgrave" unicode="&#x1e80;" horiz-adv-x="997" 
d="M115 725l163 -628l173 628h104l173 -629l154 629h92l-187 -725h-115l-169 618l-168 -618h-115l-197 725h92zM324 884l37 60l169 -115l-29 -46z" />
    <glyph glyph-name="wgrave" unicode="&#x1e81;" horiz-adv-x="802" 
d="M117 513l120 -432l118 432h93l120 -432l118 432h87l-152 -513h-102l-118 413l-115 -413h-102l-155 513h88zM226 671l37 60l169 -115l-29 -46z" />
    <glyph glyph-name="Wacute" unicode="&#x1e82;" horiz-adv-x="997" 
d="M115 725l163 -628l173 628h104l173 -629l154 629h92l-187 -725h-115l-169 618l-168 -618h-115l-197 725h92zM467 829l168 115l38 -60l-177 -101z" />
    <glyph glyph-name="wacute" unicode="&#x1e83;" horiz-adv-x="802" 
d="M117 513l120 -432l118 432h93l120 -432l118 432h87l-152 -513h-102l-118 413l-115 -413h-102l-155 513h88zM369 616l168 115l38 -60l-177 -101z" />
    <glyph glyph-name="Wdieresis" unicode="&#x1e84;" horiz-adv-x="997" 
d="M115 725l163 -628l173 628h104l173 -629l154 629h92l-187 -725h-115l-169 618l-168 -618h-115l-197 725h92zM334 859q0 25 18 41.5t45 16.5t45 -16.5t18 -41.5t-18 -41.5t-45 -16.5t-45 16.5t-18 41.5zM536 859q0 25 18.5 41.5t45.5 16.5q26 0 44 -16.5t18 -41.5
t-18 -41.5t-44 -16.5q-27 0 -45.5 16.5t-18.5 41.5z" />
    <glyph glyph-name="wdieresis" unicode="&#x1e85;" horiz-adv-x="802" 
d="M117 513l120 -432l118 432h93l120 -432l118 432h87l-152 -513h-102l-118 413l-115 -413h-102l-155 513h88zM235 646q0 25 18 41.5t45 16.5t45 -16.5t18 -41.5t-18 -41.5t-45 -16.5t-45 16.5t-18 41.5zM437 646q0 25 18.5 41.5t45.5 16.5q26 0 44 -16.5t18 -41.5
t-18 -41.5t-44 -16.5q-27 0 -45.5 16.5t-18.5 41.5z" />
    <glyph glyph-name="Ygrave" unicode="&#x1ef2;" horiz-adv-x="637" 
d="M627 725l-264 -395v-330h-85v330l-268 395h99l212 -319l211 319h95zM145 884l37 60l169 -115l-29 -46z" />
    <glyph glyph-name="ygrave" unicode="&#x1ef3;" horiz-adv-x="611" 
d="M527 513v-518q0 -92 -63.5 -148.5t-167.5 -56.5q-98 0 -157 46.5t-64 126.5h81q5 -50 42 -77.5t97 -27.5q69 0 109 36.5t40 98.5v144q-53 -98 -176 -98q-89 0 -138.5 52.5t-49.5 145.5v276h82v-264q0 -69 33.5 -103.5t93.5 -34.5q73 0 114 45.5t41 112.5v244h83zM129 671
l37 60l169 -115l-29 -46z" />
    <glyph glyph-name="endash" unicode="&#x2013;" horiz-adv-x="670" 
d="M58 316h554v-74h-554v74z" />
    <glyph glyph-name="emdash" unicode="&#x2014;" horiz-adv-x="869" 
d="M58 316h753v-74h-753v74z" />
    <glyph glyph-name="quoteleft" unicode="&#x2018;" horiz-adv-x="235" 
d="M117 598q26 -2 42 -18t16 -41q0 -27 -18 -44t-46 -17q-27 0 -45 16.5t-18 42.5q0 25 18 51l89 132l40 -27z" />
    <glyph glyph-name="quoteright" unicode="&#x2019;" horiz-adv-x="235" 
d="M118 599q-26 2 -42 18t-16 41q0 27 18.5 44t45.5 17t45 -17t18 -43q0 -23 -18 -51l-89 -131l-41 26z" />
    <glyph glyph-name="quotesinglbase" unicode="&#x201a;" horiz-adv-x="204" 
d="M65 -3q-27 4 -42.5 20t-15.5 38q0 27 18 44t46 17q27 0 45 -16.5t18 -41.5q0 -22 -18 -51l-70 -103l-37 27z" />
    <glyph glyph-name="quotedblleft" unicode="&#x201c;" horiz-adv-x="426" 
d="M118 595q26 -1 42 -17.5t16 -41.5q0 -27 -18.5 -44t-45.5 -17t-45.5 17t-18.5 43q0 23 18 51l90 132l40 -27zM308 595q26 -1 42 -17.5t16 -41.5q0 -27 -18.5 -44t-45.5 -17t-45 17t-18 43q0 23 18 51l89 132l40 -27z" />
    <glyph glyph-name="quotedblright" unicode="&#x201d;" horiz-adv-x="426" 
d="M118 597q-26 2 -41.5 18t-15.5 41q0 27 18.5 44t45.5 17t45 -17t18 -43q0 -23 -18 -51l-89 -131l-41 26zM309 597q-26 2 -42 18t-16 41q0 27 18.5 44t45.5 17t45 -17t18 -43q0 -23 -18 -51l-89 -131l-41 26z" />
    <glyph glyph-name="quotedblbase" unicode="&#x201e;" horiz-adv-x="388" 
d="M249 -3q-27 4 -42.5 20t-15.5 38q0 27 18 44t46 17q27 0 45 -16.5t18 -41.5q0 -22 -18 -51l-70 -103l-37 27zM65 -3q-27 4 -42.5 20t-15.5 38q0 27 18 44t46 17q27 0 45 -16.5t18 -41.5q0 -22 -18 -51l-70 -103l-37 27z" />
    <glyph glyph-name="dagger" unicode="&#x2020;" horiz-adv-x="426" 
d="M249 122h-71v425h-126v63h126v115h71v-115h125v-63h-125v-425z" />
    <glyph glyph-name="daggerdbl" unicode="&#x2021;" horiz-adv-x="426" 
d="M247 547v-248h127v-62h-127v-115h-70v115h-125v62h125v248h-125v63h125v115h70v-115h127v-63h-127z" />
    <glyph glyph-name="bullet" unicode="&#x2022;" horiz-adv-x="435" 
d="M215 400q55 0 95.5 -38.5t40.5 -92.5q0 -52 -40.5 -89t-95.5 -37q-53 0 -92 37.5t-39 88.5q0 55 39 93t92 38z" />
    <glyph glyph-name="ellipsis" unicode="&#x2026;" horiz-adv-x="642" 
d="M48 55q0 26 18 43.5t46 17.5q26 0 44.5 -17.5t18.5 -43.5t-18.5 -44t-44.5 -18q-28 0 -46 18t-18 44zM257 55q0 26 18.5 43.5t45.5 17.5t45.5 -17.5t18.5 -43.5t-18.5 -44t-45.5 -18t-45.5 18t-18.5 44zM468 55q0 26 18 43.5t45 17.5t45.5 -17.5t18.5 -43.5t-18.5 -44
t-45.5 -18t-45 18t-18 44z" />
    <glyph glyph-name="perthousand" unicode="&#x2030;" horiz-adv-x="1269" 
d="M44 573q0 71 47.5 116.5t118.5 45.5t118 -45.5t47 -116.5t-47 -116.5t-118 -45.5t-118.5 45.5t-47.5 116.5zM634 725h77l-473 -725h-77zM307 573q0 45 -27.5 73.5t-69.5 28.5t-70 -28.5t-28 -73.5t28 -73.5t70 -28.5t69.5 28.5t27.5 73.5zM491 152q0 71 47.5 116.5
t118.5 45.5t118.5 -45.5t47.5 -116.5t-47.5 -116.5t-118.5 -45.5t-118.5 45.5t-47.5 116.5zM893 152q0 71 48 116.5t119 45.5q70 0 117.5 -46t47.5 -116t-47.5 -116t-117.5 -46q-71 0 -119 45.5t-48 116.5zM754 152q0 45 -27.5 73.5t-69.5 28.5t-69.5 -28.5t-27.5 -73.5
t27.5 -73.5t69.5 -28.5t69.5 28.5t27.5 73.5zM1157 152q0 45 -27.5 73.5t-69.5 28.5t-70.5 -28.5t-28.5 -73.5t28.5 -73.5t70.5 -28.5t69.5 28.5t27.5 73.5z" />
    <glyph glyph-name="minute" unicode="&#x2032;" horiz-adv-x="182" 
d="M77 470l-30 201q-1 3 -1 12q0 20 12.5 31.5t32.5 11.5q21 0 33.5 -12t12.5 -33q0 -7 -1 -10l-31 -201h-28z" />
    <glyph glyph-name="second" unicode="&#x2033;" horiz-adv-x="367" 
d="M77 470l-30 201q-1 3 -1 11q0 21 12 32.5t33 11.5t33.5 -12t12.5 -33q0 -7 -1 -10l-31 -201h-28zM262 470l-30 201q-1 3 -1 11q0 21 12 32.5t33 11.5t33.5 -12t12.5 -33q0 -7 -1 -10l-31 -201h-28z" />
    <glyph glyph-name="guilsinglleft" unicode="&#x2039;" horiz-adv-x="373" 
d="M215 472h81l-118 -204l118 -203h-81l-128 203z" />
    <glyph glyph-name="guilsinglright" unicode="&#x203a;" horiz-adv-x="373" 
d="M158 65h-82l118 203l-118 204h82l128 -204z" />
    <glyph glyph-name="fraction" unicode="&#x2044;" horiz-adv-x="460" 
d="M437 725h74l-491 -748h-74z" />
    <glyph glyph-name="uni2074" unicode="&#x2074;" horiz-adv-x="541" 
d="M29 333l286 377h102v-370h86v-65h-86v-154h-72v154h-316v58zM345 340v306l-234 -306h234z" />
    <glyph glyph-name="uni20A9" unicode="&#x20a9;" horiz-adv-x="827" 
d="M716 456l-24 -140h101v-60h-111l-43 -256h-108l-113 602l-113 -602h-107l-47 256h-118v60h107l-25 140h-82v60h71l-35 192h85l100 -610l115 610h97l115 -611l91 611h86l-32 -192h67v-60h-77z" />
    <glyph glyph-name="uni20AA" unicode="&#x20aa;" horiz-adv-x="720" 
d="M84 709h203q186 0 186 -190v-350h-76v343q0 66 -30.5 95.5t-92.5 29.5h-109v-637h-81v709zM242 189v351h77v-343q0 -67 30.5 -96.5t92.5 -29.5h109v638h80v-709h-203q-186 0 -186 189z" />
    <glyph glyph-name="Euro" unicode="&#x20ac;" horiz-adv-x="600" 
d="M237 490h269l-9 -61h-276q-5 -42 -5 -68q0 -25 3 -49h272l-9 -61h-251q27 -90 93.5 -140t164.5 -50q37 -1 80 7v-70q-46 -7 -82 -7q-135 0 -224 69t-117 191h-71v61h61q-2 42 -2 48q0 27 5 69h-64v61h76q33 114 120.5 177t215.5 63q51 0 82 -7v-71q-22 9 -80 9
q-92 0 -157 -45t-95 -126z" />
    <glyph glyph-name="uni20AE" unicode="&#x20ae;" horiz-adv-x="606" 
d="M343 636v-173l140 59v-61l-140 -59v-85l140 59v-61l-140 -59v-256h-83v221l-141 -59v60l141 60v85l-141 -59v61l141 59v208h-211v73h504v-73h-210z" />
    <glyph glyph-name="uni20B4" unicode="&#x20b4;" horiz-adv-x="640" 
d="M52 431h380q41 32 41 83q0 57 -41 91.5t-108 34.5q-72 0 -117.5 -40t-47.5 -108h-84q3 99 71 158t177 59q104 0 168.5 -52t64.5 -132q0 -57 -36 -94h67v-47h-535v47zM52 318h535v-47h-385q-41 -35 -41 -88q0 -57 39 -90t109 -33q80 0 125 45t43 118h84
q-2 -109 -69.5 -171t-185.5 -62q-104 0 -166 49.5t-62 129.5q0 60 42 102h-68v47z" />
    <glyph glyph-name="uni20B8" unicode="&#x20b8;" horiz-adv-x="601" 
d="M552 709v-71h-503v71h503zM49 519h503v-72h-209v-447h-84v447h-210v72z" />
    <glyph glyph-name="uni20B9" unicode="&#x20b9;" horiz-adv-x="586" 
d="M69 326h139q71 0 111.5 32.5t47.5 91.5h-298v61h297q-7 60 -48 91.5t-110 31.5h-139v75h458v-61h-138q54 -47 64 -137h74v-61h-74q-8 -95 -73 -146t-171 -49l-31 12l254 -267h-103l-260 269v57z" />
    <glyph glyph-name="uni20BA" unicode="&#x20ba;" horiz-adv-x="693" 
d="M647 289q0 -137 -87.5 -213t-233.5 -76h-80v245l-141 -59v61l141 59v85l-141 -59v61l141 59v257h84v-221l140 59v-62l-140 -59v-85l140 59v-60l-140 -59v-210q110 1 173.5 59.5t64.5 158.5h79z" />
    <glyph glyph-name="uni20BD" unicode="&#x20bd;" horiz-adv-x="619" 
d="M196 253v-82h184v-64h-184v-107h-86v107h-65v64h65v82h-65v64h65v392h227q118 0 180 -61t62 -170q0 -106 -66 -166q-67 -59 -176 -59h-141zM333 631h-137v-303h137q78 0 118.5 40t40.5 112q0 74 -42 112.5t-117 38.5z" />
    <glyph glyph-name="uni2113" unicode="&#x2113;" horiz-adv-x="445" 
d="M130 158l1 67q-42 -19 -96 -26v64q52 11 95 32v265q0 78 34 121.5t98 43.5q61 0 94.5 -40.5t33.5 -111.5q0 -91 -51 -176q-48 -82 -136 -139v-94q0 -99 90 -99q36 0 78 20v-72q-39 -18 -91 -18q-74 0 -112 43t-38 120zM315 567q0 45 -14 69t-39 24q-59 0 -59 -101v-220
q54 44 83 104t29 124z" />
    <glyph glyph-name="uni2116" unicode="&#x2116;" horiz-adv-x="1307" 
d="M540 725h83v-725h-83l-363 579v-579h-83v725h83l363 -578v578zM1227 411q0 -101 -69 -166.5t-173 -65.5q-107 0 -175 64.5t-68 167.5q0 101 68.5 167t174.5 66q104 0 173 -66t69 -167zM1143 411q0 72 -44.5 116.5t-113.5 44.5q-70 0 -115 -45t-45 -116t45 -116
q46 -44 115 -44t113 45q45 45 45 115zM834 72h300v-72h-300v72z" />
    <glyph glyph-name="trademark" unicode="&#x2122;" horiz-adv-x="726" 
d="M13 725h262v-53h-101v-275h-60v275h-101v53zM332 725h74l93 -246l93 246h75v-328h-57v85q0 138 1 157l-84 -217h-55l-88 222q5 -52 5 -162v-85h-57v328z" />
    <glyph glyph-name="arrowup" unicode="&#x2191;" horiz-adv-x="538" 
d="M231 473h-151l189 163l189 -163h-153v-365h-74v365z" />
    <glyph glyph-name="arrowdown" unicode="&#x2193;" horiz-adv-x="538" 
d="M305 636v-365h153l-189 -163l-189 163h151v365h74z" />
    <glyph glyph-name="minus" unicode="&#x2212;" horiz-adv-x="569" 
d="M494 367v-70h-418v70h418z" />
    <glyph glyph-name="i.loclTRK" horiz-adv-x="261" 
d="M89 513h83v-513h-83v513zM68 646q0 25 18 41.5t45 16.5t45 -16.5t18 -41.5t-18 -41.5t-45 -16.5t-45 16.5t-18 41.5z" />
    <glyph glyph-name="germandbls.calt" horiz-adv-x="608" 
d="M319 -7q-41 0 -75 8v74q32 -9 65 -9q74 0 118.5 43.5t44.5 114.5q0 72 -46 113t-122 41h-34v70h33q56 0 87 32t31 85q0 54 -34 86.5t-89 32.5q-61 0 -94.5 -39.5t-33.5 -105.5v-539h-82v544q1 97 58 157q56 59 153 59q94 0 150 -52q57 -52 57 -137q0 -56 -25.5 -97.5
t-68.5 -54.5q68 -17 107 -72.5t39 -130.5q0 -97 -67.5 -160t-171.5 -63z" />
    <glyph glyph-name="uni0414.loclBGR" horiz-adv-x="766" 
d="M722 76v-196h-85v120h-515v-120h-85v196q89 11 127 75.5t38 186.5v387h438v-649h82zM183 76h373v572h-272v-286q0 -116 -24.5 -184t-76.5 -102z" />
    <glyph glyph-name="uni041B.loclBGR" horiz-adv-x="773" 
d="M17 -3v68l36 -1q83 0 83 78v583h542v-725h-85v648h-371v-507q0 -148 -151 -148q-23 0 -54 4z" />
    <glyph glyph-name="uni0424.loclBGR" horiz-adv-x="874" 
d="M475 85v-85h-76v85q-148 9 -239 80q-89 71 -89 198t90 198q92 71 238 80v84h76v-84q149 -9 238 -80t89 -198q0 -129 -90 -199q-89 -70 -237 -79zM399 167v392q-114 -8 -176.5 -60t-62.5 -136q0 -85 63.5 -136.5t175.5 -59.5zM714 363q0 85 -63.5 136.5t-175.5 59.5v-392
q114 8 176.5 60t62.5 136z" />
    <glyph glyph-name="uni0432.loclBGR" horiz-adv-x="566" 
d="M513 141q0 -63 -44 -102t-123 -39h-258v513h254q71 0 113 -38t42 -99q0 -75 -69 -112q39 -12 62 -45t23 -78zM169 293h150q46 0 71 21.5t25 59.5q0 34 -23 54t-63 20h-160v-155zM430 147q0 41 -26 62t-70 21h-165v-165h163q46 0 72 21.5t26 60.5z" />
    <glyph glyph-name="uni0433.loclBGR" horiz-adv-x="422" 
d="M88 513h314v-71h-231v-442h-83v513z" />
    <glyph glyph-name="uni0434.loclBGR" horiz-adv-x="674" 
d="M614 70v-180h-77v110h-397v-110h-78v180q60 11 92 58t32 120v265h350v-443h78zM173 70h282v373h-189v-191q0 -136 -93 -182z" />
    <glyph glyph-name="uni0436.loclBGR" horiz-adv-x="772" 
d="M238 253q-43 16 -64 64l-38 84q-11 25 -27.5 37t-47.5 12q-10 0 -31 -3v68q22 6 49 6q49 0 75.5 -20.5t45.5 -61.5l47 -101q27 -55 81 -55h17v230h82v-230h17q56 0 81 55l47 101q19 41 45.5 61.5t75.5 20.5q27 0 49 -6v-68q-21 3 -31 3q-32 0 -47.5 -11.5t-27.5 -37.5
l-38 -84q-21 -50 -63 -65l204 -252h-93l-190 238h-29v-238h-82v238h-29l-189 -238h-94z" />
    <glyph glyph-name="uni0437.loclBGR" horiz-adv-x="496" 
d="M135 143q4 -39 33.5 -62.5t78.5 -23.5q53 0 83 24.5t30 66.5q0 41 -28.5 63.5t-74.5 22.5h-62v57h58q43 0 69.5 22.5t26.5 60.5t-26.5 59.5t-73.5 21.5t-76 -22.5t-31 -62.5h-78q1 69 52 110t134 41q81 0 131 -38.5t50 -101.5q0 -38 -20 -68.5t-53 -44.5q41 -16 63 -48.5
t22 -75.5q0 -69 -53.5 -110.5t-140.5 -41.5q-86 0 -138 40.5t-56 110.5h80z" />
    <glyph glyph-name="uni0438.loclBGR" horiz-adv-x="604" 
d="M522 513v-513h-82v388l-269 -388h-83v513h83v-385l270 385h81z" />
    <glyph glyph-name="uni0439.loclBGR" horiz-adv-x="604" 
d="M522 513v-513h-82v388l-269 -388h-83v513h83v-385l270 385h81z" />
    <glyph glyph-name="uni045D.loclBGR" horiz-adv-x="604" 
d="M522 513v-513h-82v388l-269 -388h-83v513h83v-385l270 385h81zM161 696l37 60l169 -115l-29 -46z" />
    <glyph glyph-name="uni043A.loclBGR" horiz-adv-x="537" 
d="M88 513h83v-229h17q62 0 90 58l51 97q40 82 127 82q26 0 48 -6v-70q-21 3 -29 3q-32 0 -47.5 -11.5t-29.5 -38.5l-47 -80q-26 -50 -60 -64l217 -254h-107l-194 228q-4 -1 -36 -1v-227h-83v513z" />
    <glyph glyph-name="uni043B.loclBGR" 
d="M25 -4v67h27q55 0 55 50v400h398v-513h-81v443h-234v-334q0 -116 -119 -116q-16 0 -46 3z" />
    <glyph glyph-name="uni043F.loclBGR" 
d="M88 513h424v-513h-82v442h-259v-442h-83v513z" />
    <glyph glyph-name="uni0442.loclBGR" horiz-adv-x="511" 
d="M27 513h444v-71h-181v-442h-82v442h-181v71z" />
    <glyph glyph-name="uni0446.loclBGR" horiz-adv-x="619" 
d="M88 513h83v-442h259v442h82v-442h79v-181h-77v110h-426v513z" />
    <glyph glyph-name="uni0448.loclBGR" horiz-adv-x="847" 
d="M88 513h83v-442h214v442h83v-442h214v442h83v-513h-677v513z" />
    <glyph glyph-name="uni0449.loclBGR" horiz-adv-x="876" 
d="M88 513h83v-442h214v442h83v-442h214v442h83v-442h78v-181h-76v110h-679v513z" />
    <glyph glyph-name="uni044C.loclBGR" horiz-adv-x="528" 
d="M172 513v-194h131q80 0 127 -43.5t47 -115.5t-48 -116t-126 -44h-215v513h84zM172 69h118q46 0 73.5 24.5t27.5 66.5t-27.5 66.5t-73.5 24.5h-118v-182z" />
    <glyph glyph-name="uni044A.loclBGR" 
d="M544 160q0 -72 -48 -116t-126 -44h-216v443h-127v70h211v-194h132q79 0 126.5 -44t47.5 -115zM457 160q0 42 -27.5 66.5t-73.5 24.5h-118v-182h118q46 0 73.5 24.5t27.5 66.5z" />
    <glyph glyph-name="uni044E.loclBGR" horiz-adv-x="854" 
d="M805 257q0 -118 -77.5 -192.5t-197.5 -74.5q-110 0 -186 64t-86 168h-90v-222h-80v513h80v-222h90q10 103 86.5 167.5t185.5 64.5q119 0 197 -74.5t78 -191.5zM720 257q0 88 -52 140q-53 53 -137 53q-85 0 -138 -53q-52 -52 -52 -141q0 -87 52 -139.5t138 -52.5
q84 0 137 53q52 52 52 140z" />
    <glyph glyph-name="uni0431.loclSRB" horiz-adv-x="629" 
d="M600 250q0 -116 -76.5 -188t-198.5 -72q-134 0 -205 92t-71 250q0 187 95.5 295t266.5 108q94 0 163 -28v-74q-82 30 -163 30q-129 0 -205 -78t-84 -217q26 63 85.5 99.5t137.5 36.5q111 0 183 -71t72 -183zM515 251q0 86 -51.5 133.5t-135.5 47.5q-86 0 -136.5 -50
t-50.5 -134q0 -83 51 -134q53 -51 136 -51q84 0 135.5 51.5t51.5 136.5z" />
    <glyph glyph-name="zero.dnom" horiz-adv-x="464" 
d="M41 267q0 134 49 203.5t142 69.5q92 0 141.5 -71t49.5 -202q0 -134 -50 -204.5t-141 -70.5q-93 0 -142 71t-49 204zM349 267q0 211 -117 211t-117 -210q0 -213 117 -213t117 212z" />
    <glyph glyph-name="one.dnom" horiz-adv-x="377" 
d="M51 440l168 93h56v-533h-72v449l-152 -80v71z" />
    <glyph glyph-name="two.dnom" horiz-adv-x="446" 
d="M400 63v-63h-345v46q150 117 210 196q58 76 58 136q0 45 -27.5 72t-72.5 27t-72 -26t-27 -69q0 -13 1 -17h-71q-4 79 43 127q48 48 128 48q77 0 124 -43.5t47 -114.5q0 -144 -232 -320l34 1h202z" />
    <glyph glyph-name="three.dnom" horiz-adv-x="454" 
d="M405 166q0 -77 -54 -125.5t-140 -48.5q-84 0 -136 46t-52 123h71q1 -47 34 -77t84 -30t84.5 32t33.5 82t-33 79t-85 29q-35 0 -60 -13l-27 44l160 162h-228v64h318v-64l-140 -141q76 1 123 -44.5t47 -117.5z" />
    <glyph glyph-name="four.dnom" horiz-adv-x="489" 
d="M25 193l255 340h99v-333h77v-63h-77v-137h-71v137h-283v56zM308 200v268l-203 -268h203z" />
    <glyph glyph-name="five.dnom" horiz-adv-x="471" 
d="M428 175q0 -80 -55.5 -131.5t-143.5 -51.5q-83 0 -136 47q-51 46 -53 123h70q1 -50 32.5 -78.5t85.5 -28.5q57 0 91.5 32.5t34.5 85.5t-33.5 85.5t-87.5 32.5q-35 0 -64.5 -14.5t-43.5 -38.5h-67l44 295h298v-64h-240l-24 -151q41 35 109 35q79 0 131 -50t52 -128z" />
    <glyph glyph-name="six.dnom" horiz-adv-x="477" 
d="M442 172q0 -79 -55 -129t-143 -50q-89 0 -142 52.5t-53 128.5q0 65 40 129q14 22 44 65l117 165h90l-150 -196q30 12 69 12q80 0 131.5 -50t51.5 -127zM367 172q0 52 -34 84t-89 32t-88 -32t-33 -84t33.5 -84t88.5 -32t88.5 32t33.5 84z" />
    <glyph glyph-name="seven.dnom" horiz-adv-x="423" 
d="M387 533v-57l-49 -79q-58 -92 -89 -149q-28 -53 -41 -109q-14 -61 -14 -139h-76q0 154 64 271q35 62 100 162q18 28 23 36h-268v64h350z" />
    <glyph glyph-name="eight.dnom" horiz-adv-x="471" 
d="M424 155q0 -73 -52 -118t-138 -45t-137.5 44.5t-51.5 116.5q0 49 25 87.5t68 55.5q-66 35 -66 108q0 62 44 99t118 37q75 0 119 -37t44 -98q0 -73 -64 -110q41 -16 66 -54t25 -86zM144 400q0 -36 25.5 -58.5t64.5 -22.5q41 0 66 22.5t25 58.5t-25.5 57.5t-64.5 21.5
q-41 0 -66 -21.5t-25 -57.5zM351 158q0 46 -32.5 75.5t-84.5 29.5q-51 0 -83.5 -30t-32.5 -75q0 -46 32.5 -75t83.5 -29q52 0 84.5 29t32.5 75z" />
    <glyph glyph-name="nine.dnom" horiz-adv-x="477" 
d="M439 358q0 -49 -18.5 -88.5t-64.5 -105.5l-118 -164h-90l149 195q-30 -12 -68 -12q-80 0 -131 50t-51 127q0 79 55 129.5t142 50.5q89 0 142 -52.5t53 -129.5zM244 245q55 0 87.5 31.5t32.5 83.5q0 54 -33 86t-89 32q-54 0 -88 -32t-34 -84t34 -84.5t90 -32.5z" />
    <glyph glyph-name="zero.numr" horiz-adv-x="464" 
d="M41 445q0 134 49 203.5t142 69.5q92 0 141.5 -71t49.5 -202q0 -134 -50 -204.5t-141 -70.5q-93 0 -142 71t-49 204zM349 444q0 212 -117 212t-117 -211q0 -212 117 -212t117 211z" />
    <glyph glyph-name="one.numr" horiz-adv-x="377" 
d="M51 617l168 93h56v-533h-72v449l-152 -80v71z" />
    <glyph glyph-name="two.numr" horiz-adv-x="446" 
d="M400 240v-63h-345v46q150 117 210 196q58 76 58 136q0 45 -27.5 72t-72.5 27t-72 -26t-27 -69q0 -13 1 -17h-71q-4 80 43 127q48 48 128 48q77 0 124 -43.5t47 -114.5q0 -144 -232 -320l34 1h202z" />
    <glyph glyph-name="three.numr" horiz-adv-x="454" 
d="M405 343q0 -77 -54 -125.5t-140 -48.5q-84 0 -136 46t-52 123h71q1 -47 34 -77t84 -30t84.5 32t33.5 82t-33 79t-85 29q-35 0 -60 -13l-27 44l160 162h-228v64h318v-64l-140 -141q76 1 123 -44.5t47 -117.5z" />
    <glyph glyph-name="four.numr" horiz-adv-x="489" 
d="M25 370l255 340h99v-333h77v-63h-77v-137h-71v137h-283v56zM308 377v268l-203 -268h203z" />
    <glyph glyph-name="five.numr" horiz-adv-x="471" 
d="M428 352q0 -80 -55.5 -131.5t-143.5 -51.5q-83 0 -136 47q-51 46 -53 123h70q1 -50 32.5 -78.5t85.5 -28.5q57 0 91.5 32.5t34.5 85.5t-33.5 85.5t-87.5 32.5q-35 0 -64.5 -14.5t-43.5 -38.5h-67l44 295h298v-64h-240l-24 -151q41 35 109 35q79 0 131 -50t52 -128z" />
    <glyph glyph-name="six.numr" horiz-adv-x="477" 
d="M442 349q0 -79 -55 -129t-143 -50q-89 0 -142 52.5t-53 128.5q0 65 40 129q14 22 44 65l117 165h90l-150 -196q30 12 69 12q80 0 131.5 -50t51.5 -127zM367 349q0 52 -34 84t-89 32t-88 -32t-33 -84t33.5 -84t88.5 -32t88.5 32t33.5 84z" />
    <glyph glyph-name="seven.numr" horiz-adv-x="423" 
d="M387 710v-57l-49 -79q-58 -92 -89 -149q-28 -53 -41 -109q-14 -61 -14 -139h-76q0 154 64 271q35 62 100 162q18 28 23 36h-268v64h350z" />
    <glyph glyph-name="eight.numr" horiz-adv-x="471" 
d="M424 332q0 -73 -51.5 -117.5t-138.5 -44.5q-86 0 -137.5 44.5t-51.5 116.5q0 48 25 86.5t67 55.5q-65 36 -65 109q0 62 44 99t118 37t118.5 -37.5t44.5 -98.5q0 -71 -63 -109q40 -18 65 -56t25 -85zM144 578q0 -36 25.5 -58.5t64.5 -22.5q41 0 66 22.5t25 58.5
q0 35 -25 56.5t-65 21.5q-41 0 -66 -21.5t-25 -56.5zM351 336q0 45 -33 75t-84 30t-83.5 -30t-32.5 -75q0 -46 32.5 -75t83.5 -29q52 0 84.5 28.5t32.5 75.5z" />
    <glyph glyph-name="nine.numr" horiz-adv-x="477" 
d="M439 529q0 -53 -22 -94q-22 -44 -61 -99l-118 -165h-90l150 197q-32 -13 -69 -13q-81 0 -131.5 49.5t-50.5 127.5t55 128.5t142 50.5q89 0 142 -52.5t53 -129.5zM244 416q55 0 87.5 31.5t32.5 83.5q0 54 -33 86t-89 32q-54 0 -88 -32t-34 -84t34 -84.5t90 -32.5z" />
    </font>
</defs>
</svg>
