<svg width="73" height="54" viewBox="0 0 73 54" fill="none" xmlns="http://www.w3.org/2000/svg">
<g opacity="0.8">
<path d="M66.5652 8.91304V1H58.6522" stroke="white" stroke-width="2"/>
<path d="M66.5652 1L42.8261 24.7391L33.7826 15.6957L14.5652 34.913" stroke="white" stroke-width="2"/>
<path fill-rule="evenodd" clip-rule="evenodd" d="M66.5652 52.9999H5.52174L1 48.4782V46.2173H28.1304L30.3913 48.4782H41.6957L43.9565 46.2173H71.087V48.4782L66.5652 52.9999Z" stroke="white" stroke-width="2"/>
<path d="M54.1304 1H8.91303C7.04103 1 5.52173 2.51817 5.52173 4.3913V42.8261" stroke="white" stroke-width="2"/>
<path d="M66.5652 42.8261V13.4348" stroke="white" stroke-width="2"/>
<path d="M54.1304 5.52173H10.0435V39.4348H62.0435V13.4348" stroke="white" stroke-width="2"/>
<path d="M27 36.0436V29.261" stroke="white" stroke-width="2"/>
<path d="M22.4782 36.0436V33.7827" stroke="white" stroke-width="2"/>
<path d="M31.5218 36.0434V24.739" stroke="white" stroke-width="2"/>
<path d="M36.0435 36.0434V24.739" stroke="white" stroke-width="2"/>
<path d="M40.5652 36.0436V29.261" stroke="white" stroke-width="2"/>
<path d="M45.0869 36.0436V29.261" stroke="white" stroke-width="2"/>
<path d="M49.6087 36.0434V24.739" stroke="white" stroke-width="2"/>
<path d="M54.1304 36.0434V20.2173" stroke="white" stroke-width="2"/>
</g>
</svg>
