<svg width="64" height="64" viewBox="0 0 64 64" fill="none" xmlns="http://www.w3.org/2000/svg">
<g opacity="0.8">
<path d="M56 23H63V63H1V23H8" stroke="white" stroke-width="2"/>
<path d="M53 33V9L45 1H11V33" stroke="white" stroke-width="2"/>
<path d="M63 63L32 39L1 63" stroke="white" stroke-width="2"/>
<path d="M1 23L21 43" stroke="white" stroke-width="2"/>
<path d="M63 23L43 43" stroke="white" stroke-width="2"/>
<path d="M53 9H45V1" stroke="white" stroke-width="2"/>
<path d="M31 59H33" stroke="white" stroke-width="2"/>
<path d="M35 59H37" stroke="white" stroke-width="2"/>
<path d="M27 59H29" stroke="white" stroke-width="2"/>
<path fill-rule="evenodd" clip-rule="evenodd" d="M17 11H39V1H17V11Z" stroke="white" stroke-width="2"/>
<path d="M20 5H22" stroke="white" stroke-width="2"/>
<path d="M24 5H26" stroke="white" stroke-width="2"/>
<path d="M28 5H30" stroke="white" stroke-width="2"/>
<path d="M16 15H48" stroke="white" stroke-width="2"/>
<path d="M16 19H48" stroke="white" stroke-width="2"/>
<path d="M16 23H48" stroke="white" stroke-width="2"/>
<path d="M16 27H48" stroke="white" stroke-width="2"/>
<path d="M16 31H48" stroke="white" stroke-width="2"/>
</g>
</svg>
