<svg width="265" height="401" viewBox="0 0 265 401" fill="none" xmlns="http://www.w3.org/2000/svg">
<mask id="mask0" mask-type="alpha" maskUnits="userSpaceOnUse" x="114" y="0" width="143" height="187">
<path fill-rule="evenodd" clip-rule="evenodd" d="M256.945 0.98877H114.511V186.63H256.945V0.98877Z" fill="white"/>
</mask>
<g mask="url(#mask0)">
<path fill-rule="evenodd" clip-rule="evenodd" d="M126.289 180.996C140.151 191.569 139.888 184.017 139.888 184.017L143.731 134.825L148.784 101.918L164.342 65.3241L195.576 30.8777L215.502 20.3956L256.945 6.71374C256.945 6.71374 243.502 0.934279 228.587 0.988663C213.672 1.04403 205.291 12.2569 191.701 11.8989C190.228 11.8604 188.86 12.0117 187.576 12.3212C184.199 13.1359 182.262 16.6975 183.316 20.008L183.685 21.1649C184.218 22.8359 183.417 24.6405 181.821 25.3662C181.21 25.6441 180.488 25.4443 180.108 24.8926L177.6 21.2558C177.032 20.4332 175.851 20.3442 175.167 21.0739C170.82 25.7103 166.328 31.0577 159.685 34.4384C152.071 38.3203 143.406 44.2511 136.281 50.7415C135.072 51.842 134.96 53.7059 136.013 54.9557C137.595 56.8354 137.464 59.6149 135.712 61.3363V61.3373C135.166 61.8733 134.32 61.9534 133.683 61.5301L130.389 59.336C129.552 58.7774 128.421 58.9603 127.804 59.7553C125.815 62.3152 124.221 64.8554 123.166 67.2997C118.108 79.0317 129.257 103.008 120.283 114.716C111.31 126.424 112.421 170.427 126.289 180.996Z" fill="#FFB0B0"/>
</g>
<mask id="mask1" mask-type="alpha" maskUnits="userSpaceOnUse" x="120" y="5" width="145" height="183">
<path fill-rule="evenodd" clip-rule="evenodd" d="M264.94 5.87134H120.675V187.411H264.94V5.87134Z" fill="white"/>
</mask>
<g mask="url(#mask1)">
<path fill-rule="evenodd" clip-rule="evenodd" d="M140.336 187.345L143.076 187.411C143.229 187.414 143.358 187.3 143.364 187.147C143.581 181.627 147.421 93.2869 171.272 65.229C195.352 36.9023 215.852 21.9419 252.347 13.4255C255.068 12.7857 257.938 12.8638 260.552 13.8556C261.301 14.1404 262.04 14.5003 262.739 14.9611C263.816 15.675 265.216 14.7346 264.893 13.4808C264.229 10.8714 262.282 7.73302 256.946 6.71358C252.387 5.84246 244.901 5.63481 236.925 6.14799C235.747 6.22314 234.747 7.04087 234.448 8.18391L233.305 12.5385C233.041 13.5451 232.242 14.3253 231.228 14.5636C231.08 14.5982 230.932 14.5082 230.893 14.3619L229.557 9.33288C229.183 7.92287 227.809 7.01615 226.366 7.2238C223.065 7.69841 219.862 8.29762 216.933 9.02734C214.468 9.64039 212.96 12.1292 213.542 14.6021L213.561 14.6832C213.883 16.0537 213.046 17.4053 211.694 17.7237C211.405 17.791 211.101 17.6951 210.904 17.4726L206.942 12.9983C206.854 12.8984 206.709 12.8727 206.592 12.937C199.933 16.6361 193.661 22.4571 186.91 27.6877C186.812 27.7639 186.777 27.8944 186.821 28.0091L188.917 33.3792C189.415 34.6528 188.669 36.0717 187.338 36.3841C186.811 36.5077 186.258 36.3505 185.876 35.9678L184.349 34.4382C182.731 32.8196 180.229 32.515 178.257 33.6768C176.865 34.4965 175.442 35.2539 173.983 35.9293C171.527 37.0713 168.813 38.6672 165.988 40.6102C165.842 40.7101 165.822 40.9217 165.949 41.0453L170.644 45.6451C172.136 47.1046 172.7 49.267 172.114 51.2693C172.063 51.4394 171.872 51.5215 171.714 51.4394L159.963 45.3099C159.864 45.2575 159.742 45.2684 159.655 45.3396C149.832 53.2736 139.769 64.0049 134.513 72.9307C132.747 75.9297 133.926 79.7968 137.047 81.3344L142.365 83.9517C144.475 84.99 145.652 87.2919 145.258 89.6096C145.183 90.0516 144.785 90.364 144.338 90.3314L135.803 89.7045C132.833 89.486 130.365 91.9668 130.606 94.9342C131.498 105.905 133.843 117.443 128.674 124.699C127.949 125.715 127.253 126.951 126.597 128.369C124.894 132.047 126.869 136.378 130.775 137.46L132.504 137.94C134.647 138.533 136.086 140.538 135.964 142.758C135.955 142.905 135.835 143.02 135.688 143.023L131.745 143.093C126.115 143.194 121.426 147.525 120.983 153.137C120.536 158.793 120.555 164.566 121.173 169.86C122.313 179.658 130.481 187.119 140.336 187.345Z" fill="#FCC2C2"/>
</g>
<path fill-rule="evenodd" clip-rule="evenodd" d="M240.929 16.036C235.708 17.6734 230.578 19.8062 225.58 22.121C220.589 24.4713 215.705 27.057 210.995 29.9274C201.568 35.6486 192.74 42.3842 184.981 50.2006C177.223 58.006 170.56 66.9041 165.489 76.6546C160.504 86.4465 157.081 97.0009 154.42 107.699C153.074 113.051 151.993 118.47 150.975 123.899C150.022 129.34 149.155 134.799 148.447 140.282C147.008 151.246 146.018 162.271 145.326 173.314C143.941 195.409 142.066 348.495 142.478 370.655C142.492 371.418 141.883 372.05 141.12 372.063C140.356 372.078 139.724 371.47 139.71 370.705V370.699V370.688C139.413 348.505 141.404 195.327 142.91 173.156C143.661 162.072 144.713 151.002 146.218 139.984C146.958 134.473 147.86 128.984 148.848 123.508C149.902 118.045 151.02 112.59 152.406 107.194C155.15 96.4086 158.662 85.7425 163.801 75.7756C169.02 65.8669 175.846 56.8541 183.757 48.9774C191.669 41.0909 200.638 34.3236 210.192 28.5936C214.966 25.7192 219.909 23.1345 224.961 20.7881C230.033 18.4723 235.175 16.3603 240.546 14.7061C240.911 14.5943 241.298 14.799 241.41 15.1639C241.523 15.5277 241.319 15.9143 240.956 16.0281L240.929 16.036Z" fill="#FFB0B0"/>
<path fill-rule="evenodd" clip-rule="evenodd" d="M140.985 301.722L123.195 320.339L119.939 318.995L97.6366 300.184C89.2012 293.076 85.0918 282.074 86.8083 271.18L90.5895 247.144C90.808 245.754 91.9372 244.686 93.3373 244.545L99.9889 243.871C101.158 243.754 102.076 242.818 102.174 241.646C102.455 238.247 100.833 234.969 97.9589 233.132L95.1804 231.356C93.9197 230.549 93.1514 229.159 93.1395 227.663L93.0318 213.988C92.9586 205.102 90.5638 196.403 86.0707 188.736L79.3914 177.337C78.5915 175.975 79.4626 174.253 81.0269 174.083L89.4543 173.167C92.0904 172.878 93.631 170.043 92.4395 167.68L92.3722 167.53C90.2889 163.4 86.3298 160.575 81.7655 159.97C80.8361 159.838 79.9115 159.717 79.0691 159.604C76.7168 159.289 74.6374 157.89 73.4637 155.816L55.9166 124.898C54.8221 122.971 54.9822 120.581 56.3309 118.817L57.2535 117.596C58.9235 115.407 58.2007 112.249 55.7515 110.992L47.245 106.66C45.0756 105.56 43.3749 103.713 42.4563 101.456L28.4679 67.1709C27.49 64.7671 26.9521 62.2121 26.8769 59.6294L26.6357 50.7847C26.5724 48.2821 25.7448 45.8566 24.2606 43.8305L23.6476 42.998C21.4623 40.0148 18.4426 37.7584 14.9719 36.5007L1.11209 31.4984C0.32402 31.2106 0.433792 30.0666 1.25844 29.9381C3.84906 29.5366 6.48022 29.5465 9.06294 29.9578L20.6209 31.7218C25.7863 32.5455 30.6739 34.621 34.8693 37.7525L39.8113 41.3793C43.1435 43.8266 45.7657 47.1064 47.421 50.8954C48.5749 53.5236 50.3745 55.8255 52.6507 57.5796L52.6942 57.6083C56.2301 60.3285 59.3833 63.5054 62.0877 67.0552L114.908 136.519C128.547 154.438 137.502 175.414 141.073 197.556C141.679 201.323 141.092 205.181 139.373 208.589L130.121 226.891C129.721 227.678 130.071 228.643 130.89 228.99C131.422 229.216 132.043 229.123 132.487 228.74L141.511 220.987C142.381 220.24 143.726 220.783 143.844 221.92L149.581 276.547C150.552 285.795 147.411 295.004 140.985 301.722Z" fill="#4D77F6"/>
<path fill-rule="evenodd" clip-rule="evenodd" d="M119.397 348.135C119.982 341.316 120.483 334.465 120.95 327.625C121.421 320.783 121.841 313.936 122.176 307.09C122.512 300.243 122.775 293.396 122.919 286.554L122.997 281.423L123.006 276.299C122.953 272.901 122.884 269.544 122.584 266.158C121.529 252.629 118.791 239.194 115.948 225.786C114.521 219.078 113.027 212.365 111.678 205.598C110.345 198.828 109.081 192.011 108.477 185.018C108.398 184.147 108.323 183.245 108.23 182.494L108.099 181.313C108.036 180.918 107.948 180.519 107.875 180.123L107.647 178.93L107.338 177.738C107.139 176.942 106.928 176.148 106.66 175.358C105.674 172.191 104.428 169.057 103.035 165.976C100.273 159.801 97.0211 153.792 93.6582 147.848C86.8811 135.973 79.5176 124.386 72.2965 112.682C68.6825 106.832 65.105 100.945 61.6769 94.9475C59.9791 91.9386 58.2992 88.9149 56.731 85.8141C55.1499 82.7261 53.7251 79.4829 52.3526 76.4186C50.9624 73.3158 49.4248 70.2941 47.8428 67.303C47.4581 66.5476 47.0082 65.8356 46.5949 65.099C46.1658 64.3722 45.7663 63.6247 45.2996 62.9246L43.9598 60.78L42.528 58.7015C40.5683 55.9616 38.4157 53.3878 36.0673 50.8812C34.9134 49.6175 33.7249 48.3262 32.6609 46.9261C31.5782 45.5329 30.718 43.9716 29.9981 42.3816C29.92 42.2086 29.9971 42.0029 30.1712 41.9248C30.3294 41.8526 30.5143 41.9109 30.6052 42.0543L30.6141 42.0691C31.5248 43.5019 32.5225 44.8466 33.6883 46.0579C34.8639 47.2623 36.097 48.4112 37.3844 49.5622C39.9414 51.8631 42.441 54.3667 44.6233 57.1106C49.0333 62.5845 52.4406 68.7308 55.4208 74.9879C56.9317 78.1579 58.2715 81.2073 59.8378 84.2281C61.3862 87.2478 63.0582 90.2231 64.752 93.1865C68.1752 99.1004 71.7635 104.937 75.4013 110.755C82.6689 122.396 90.1115 133.967 97.0201 145.923C100.451 151.917 103.783 157.987 106.667 164.341C108.12 167.51 109.44 170.765 110.514 174.15C110.802 174.987 111.037 175.85 111.261 176.72L111.604 178.02L111.869 179.356C111.954 179.802 112.052 180.243 112.126 180.695L112.288 182.074C112.405 183.027 112.476 183.837 112.557 184.675C113.16 191.372 114.369 198.096 115.692 204.799C117.024 211.506 118.509 218.208 119.935 224.938C122.774 238.393 125.541 251.961 126.616 265.851C126.917 269.31 126.996 272.825 127.037 276.295L126.991 281.473L126.879 286.645C126.689 293.538 126.377 300.419 125.994 307.292C125.223 321.042 124.167 334.749 122.836 348.46C122.743 349.409 121.899 350.103 120.95 350.011C120.007 349.92 119.316 349.088 119.396 348.147L119.397 348.135Z" fill="#2B50DC"/>
<path fill-rule="evenodd" clip-rule="evenodd" d="M106.663 173.689L112.642 148.908C112.698 148.676 112.931 148.534 113.164 148.589C113.38 148.642 113.52 148.851 113.491 149.068L110.058 174.327C109.929 175.274 109.057 175.936 108.112 175.809C107.166 175.68 106.502 174.808 106.631 173.862C106.639 173.803 106.65 173.745 106.663 173.689Z" fill="#2B50DC"/>
<path fill-rule="evenodd" clip-rule="evenodd" d="M90.7326 141.84L67.1016 132.279C66.8801 132.189 66.7733 131.937 66.8623 131.717C66.9463 131.51 67.1737 131.403 67.3843 131.464L91.8638 138.577C92.7804 138.844 93.3074 139.802 93.0414 140.72C92.7744 141.637 91.8153 142.164 90.8977 141.898C90.8423 141.881 90.786 141.862 90.7326 141.84Z" fill="#2B50DC"/>
<path fill-rule="evenodd" clip-rule="evenodd" d="M66.9278 103.52L48.7054 95.0693C48.4888 94.9695 48.3949 94.7124 48.4948 94.4948C48.5877 94.2961 48.8132 94.2002 49.0178 94.2654L68.1756 100.299C69.0873 100.587 69.5935 101.559 69.3058 102.469C69.019 103.381 68.0471 103.887 67.1354 103.601C67.0672 103.579 66.992 103.548 66.9278 103.52Z" fill="#2B50DC"/>
<path fill-rule="evenodd" clip-rule="evenodd" d="M113.2 209.718L125.895 181.68C125.992 181.462 126.249 181.365 126.466 181.464C126.672 181.557 126.769 181.793 126.695 182.002L116.403 211.009C116.084 211.909 115.095 212.378 114.196 212.059C113.296 211.741 112.826 210.753 113.145 209.853C113.161 209.808 113.18 209.761 113.2 209.718Z" fill="#2B50DC"/>
<path fill-rule="evenodd" clip-rule="evenodd" d="M123.632 280.264L139.453 253.863C139.575 253.658 139.841 253.591 140.046 253.713C140.239 253.831 140.308 254.076 140.212 254.275L126.667 281.914C126.246 282.77 125.211 283.125 124.354 282.705C123.497 282.284 123.143 281.249 123.563 280.392C123.584 280.349 123.608 280.305 123.632 280.264Z" fill="#2B50DC"/>
<path fill-rule="evenodd" clip-rule="evenodd" d="M123.048 303.37L95.4829 270.34C95.3306 270.156 95.3553 269.884 95.5382 269.731C95.7142 269.585 95.9733 269.604 96.1285 269.768L125.632 301.079C126.287 301.773 126.254 302.865 125.56 303.52C124.865 304.174 123.771 304.142 123.117 303.448C123.095 303.424 123.069 303.394 123.048 303.37Z" fill="#2B50DC"/>
<path fill-rule="evenodd" clip-rule="evenodd" d="M152.037 348.365H87.7281L96.4186 400.727H143.346L152.037 348.365Z" fill="#D2DBFF"/>
<path fill-rule="evenodd" clip-rule="evenodd" d="M154.748 348.365L151.472 368.11H88.2935L85.0166 348.365H154.748Z" fill="#D2DBFF"/>
<path fill-rule="evenodd" clip-rule="evenodd" d="M91.0049 368.11H148.76L143.346 400.727H130.745L132.967 380.73C133.521 375.75 129.623 371.395 124.613 371.395H91.5814L91.0049 368.11Z" fill="#B8C9FF"/>
<path fill-rule="evenodd" clip-rule="evenodd" d="M134.903 314.227C142.275 320.736 142.433 316.475 142.433 316.475L146.585 288.95L150.758 270.637L160.992 250.674L179.96 232.552L191.596 227.46L215.47 221.436C215.47 221.436 208.139 217.64 199.744 217.069C191.349 216.496 186.18 222.466 178.547 221.717C177.72 221.635 176.944 221.665 176.209 221.788C174.276 222.109 173.042 224.036 173.501 225.941L173.662 226.607C173.894 227.568 173.37 228.552 172.442 228.895C172.087 229.027 171.69 228.885 171.498 228.559L170.233 226.412C169.947 225.926 169.286 225.828 168.872 226.211C166.238 228.644 163.495 231.472 159.62 233.106C155.178 234.981 150.063 237.97 145.791 241.333C145.067 241.904 144.927 242.948 145.47 243.695C146.284 244.816 146.098 246.375 145.042 247.273C144.714 247.553 144.234 247.564 143.892 247.299L142.128 245.932C141.68 245.583 141.036 245.641 140.656 246.063C139.434 247.422 138.434 248.788 137.742 250.121C134.421 256.518 139.726 270.461 134.203 276.687C128.68 282.912 127.527 307.718 134.903 314.227Z" fill="#B8C9FF"/>
<path fill-rule="evenodd" clip-rule="evenodd" d="M142.551 318.366L144.091 318.514C144.177 318.523 144.253 318.463 144.262 318.377C144.608 315.28 150.34 265.725 164.896 250.9C179.59 235.933 191.731 228.344 212.612 225.028C214.169 224.778 215.781 224.937 217.212 225.601C217.622 225.791 218.023 226.024 218.397 226.311C218.976 226.756 219.8 226.284 219.669 225.565C219.401 224.071 218.433 222.226 215.471 221.437C212.941 220.761 208.737 220.342 204.228 220.308C203.562 220.303 202.966 220.724 202.752 221.354L201.933 223.758C201.743 224.314 201.261 224.72 200.682 224.814C200.598 224.827 200.518 224.771 200.501 224.687L199.953 221.803C199.799 220.994 199.063 220.428 198.243 220.487C196.366 220.621 194.54 220.828 192.862 221.12C191.449 221.366 190.501 222.705 190.728 224.121L190.735 224.167C190.861 224.951 190.335 225.678 189.562 225.802C189.396 225.829 189.23 225.763 189.127 225.629L187.078 222.951C187.033 222.891 186.953 222.871 186.885 222.903C182.988 224.714 179.223 227.737 175.213 230.408C175.155 230.446 175.129 230.519 175.15 230.586L176.112 233.691C176.34 234.427 175.863 235.197 175.102 235.319C174.801 235.368 174.496 235.256 174.296 235.026L173.498 234.102C172.654 233.126 171.258 232.854 170.101 233.429C169.285 233.833 168.454 234.202 167.605 234.523C166.177 235.066 164.585 235.854 162.917 236.833C162.831 236.884 162.811 237.002 162.878 237.077L165.334 239.856C166.114 240.737 166.343 241.976 165.933 243.078C165.898 243.172 165.787 243.211 165.702 243.158L159.337 239.235C159.283 239.201 159.215 239.202 159.163 239.239C153.314 243.307 147.217 248.938 143.899 253.748C142.785 255.365 143.291 257.589 144.986 258.579L147.872 260.267C149.018 260.938 149.586 262.279 149.271 263.569C149.212 263.814 148.974 263.973 148.724 263.937L143.947 263.24C142.284 262.996 140.795 264.293 140.811 265.973C140.87 272.182 141.723 278.768 138.521 282.643C138.072 283.185 137.63 283.854 137.204 284.625C136.097 286.625 137.033 289.142 139.187 289.909L140.141 290.248C141.322 290.67 142.052 291.855 141.893 293.1C141.882 293.182 141.81 293.242 141.728 293.238L139.505 293.119C136.333 292.947 133.52 295.194 133.043 298.336C132.563 301.5 132.341 304.749 132.474 307.754C132.72 313.313 137.014 317.841 142.551 318.366Z" fill="#D2DBFF"/>
<path fill-rule="evenodd" clip-rule="evenodd" d="M206.081 226.035C203.076 226.746 200.104 227.738 197.198 228.839C194.294 229.96 191.441 231.217 188.675 232.642C183.14 235.48 177.899 238.914 173.217 242.997C168.536 247.076 164.428 251.814 161.18 257.095C157.979 262.404 155.626 268.204 153.696 274.118C152.722 277.075 151.895 280.081 151.103 283.095C150.346 286.118 149.637 289.155 149.017 292.212C147.765 298.322 146.761 304.487 145.927 310.674C144.253 323.051 143.279 335.508 142.614 347.994C142.591 348.424 142.224 348.755 141.793 348.732C141.362 348.709 141.032 348.341 141.055 347.912V347.907L141.056 347.902C141.785 335.406 142.829 322.902 144.573 310.487C145.444 304.28 146.483 298.093 147.776 291.953C148.415 288.883 149.144 285.831 149.922 282.789C150.735 279.757 151.584 276.733 152.583 273.753C154.563 267.794 156.971 261.935 160.265 256.534C163.603 251.169 167.807 246.373 172.577 242.261C177.348 238.142 182.67 234.697 188.277 231.859C191.08 230.434 193.966 229.18 196.903 228.064C199.852 226.965 202.83 225.984 205.919 225.271C206.129 225.223 206.338 225.354 206.388 225.563C206.435 225.773 206.306 225.981 206.097 226.031L206.081 226.035Z" fill="#B8C9FF"/>
</svg>
