<svg width="568" height="382" viewBox="0 0 568 382" fill="none" xmlns="http://www.w3.org/2000/svg">
<path fill-rule="evenodd" clip-rule="evenodd" d="M71 0L568 0L347 251V330L294 382V251L71 0Z" fill="white"/>
<mask id="mask0" mask-type="alpha" maskUnits="userSpaceOnUse" x="71" y="0" width="497" height="382">
<path fill-rule="evenodd" clip-rule="evenodd" d="M71 0L568 0L347 251V330L294 382V251L71 0Z" fill="white"/>
</mask>
<g mask="url(#mask0)">
<rect x="7" width="580" height="73" fill="#07A47B"/>
<rect x="7" y="78" width="580" height="73" fill="#1489E6"/>
<rect x="7" y="155" width="580" height="73" fill="#293EEC"/>
<rect x="7" y="233" width="580" height="73" fill="#B929EC"/>
<rect x="7" y="310" width="580" height="73" fill="#EC2984"/>
</g>
<path d="M3.69916 40.534H9.24316L10.1972 43H12.5552L7.65916 30.4H5.26516L0.405164 43H2.78116L3.69916 40.534ZM4.34716 38.662L6.47116 32.74L8.57716 38.662H4.34716ZM14.862 33.892H12.486L15.762 43H17.724L19.542 37.258L21.342 43H23.322L26.598 33.892H24.204L22.242 39.994L20.37 34.144H18.696L16.842 39.994L14.862 33.892ZM34.9071 35.242C34.1691 34.216 33.1431 33.694 31.8111 33.694C30.4611 33.694 29.3631 34.144 28.5531 35.062C27.7431 35.962 27.3291 37.078 27.3291 38.41C27.3291 39.76 27.7431 40.912 28.5711 41.83C29.3991 42.748 30.4791 43.198 31.7931 43.198C33.1791 43.198 34.2231 42.676 34.9071 41.632V43H37.1211V33.892H34.9071V35.242ZM29.5611 38.428C29.5611 37.618 29.7951 36.934 30.2631 36.376C30.7491 35.818 31.3791 35.548 32.1891 35.548C32.9991 35.548 33.6651 35.818 34.1871 36.376C34.7091 36.934 34.9611 37.636 34.9611 38.518C34.9611 40.264 33.8091 41.344 32.2431 41.344C31.4331 41.344 30.7851 41.074 30.2991 40.516C29.8131 39.958 29.5611 39.256 29.5611 38.428ZM39.6477 33.892V43H41.8617V38.788C41.8617 36.286 43.1937 35.818 44.0217 35.818C44.3997 35.818 44.7417 35.872 45.0657 35.998V33.82C44.7597 33.73 44.5077 33.694 44.3097 33.694C43.2297 33.694 42.1137 34.468 41.8257 35.908V33.892H39.6477ZM48.7699 43V38.446C48.7699 36.628 49.7419 35.566 51.1099 35.566C52.2079 35.566 52.8739 36.412 52.8739 37.978V43H55.0879V37.96C55.0879 35.278 53.9539 33.694 51.7219 33.694C50.3179 33.694 49.3279 34.27 48.7699 35.422V33.892H46.5559V43H48.7699ZM64.9595 40.21C64.1495 40.948 63.2315 41.326 62.2055 41.326C60.2795 41.326 59.0735 40.246 59.0735 38.752H66.6335C66.6335 37.096 66.1655 35.836 65.2475 34.99C64.3295 34.126 63.1955 33.694 61.8455 33.694C60.4235 33.694 59.2355 34.162 58.2815 35.08C57.3275 35.998 56.8595 37.132 56.8595 38.482C56.8595 39.832 57.3275 40.948 58.2815 41.848C59.2355 42.748 60.4955 43.198 62.0975 43.198C63.8075 43.198 65.1755 42.622 66.2195 41.452L64.9595 40.21ZM61.8455 35.458C62.9795 35.458 64.0595 35.98 64.3655 37.258H59.1815C59.6135 35.98 60.6935 35.458 61.8455 35.458ZM67.5959 40.84C67.8299 41.65 68.2979 42.244 68.9819 42.622C69.6839 43 70.4399 43.198 71.2679 43.198C72.2579 43.198 73.1039 42.946 73.7879 42.46C74.4899 41.974 74.8319 41.29 74.8319 40.426C74.8319 39.202 74.0579 38.338 72.5099 37.816L71.1599 37.33C70.5299 37.096 70.2059 36.79 70.2059 36.394C70.2059 35.8 70.7639 35.44 71.3939 35.44C72.1319 35.44 72.5819 35.746 72.7799 36.376L74.5619 35.728C74.0759 34.378 73.0139 33.694 71.3759 33.694C70.4219 33.694 69.6119 33.946 68.9819 34.45C68.3519 34.954 68.0459 35.62 68.0459 36.448C68.0459 37.564 68.8019 38.41 70.3319 38.986L71.6639 39.49C72.3299 39.76 72.6539 40.084 72.6539 40.462C72.6539 41.128 72.0239 41.416 71.2859 41.416C70.4039 41.416 69.5579 40.948 69.3419 40.102L67.5959 40.84ZM75.9104 40.84C76.1444 41.65 76.6124 42.244 77.2964 42.622C77.9984 43 78.7544 43.198 79.5824 43.198C80.5724 43.198 81.4184 42.946 82.1024 42.46C82.8044 41.974 83.1464 41.29 83.1464 40.426C83.1464 39.202 82.3724 38.338 80.8244 37.816L79.4744 37.33C78.8444 37.096 78.5204 36.79 78.5204 36.394C78.5204 35.8 79.0784 35.44 79.7084 35.44C80.4464 35.44 80.8964 35.746 81.0944 36.376L82.8764 35.728C82.3904 34.378 81.3284 33.694 79.6904 33.694C78.7364 33.694 77.9264 33.946 77.2964 34.45C76.6664 34.954 76.3604 35.62 76.3604 36.448C76.3604 37.564 77.1164 38.41 78.6464 38.986L79.9784 39.49C80.6444 39.76 80.9684 40.084 80.9684 40.462C80.9684 41.128 80.3384 41.416 79.6004 41.416C78.7184 41.416 77.8724 40.948 77.6564 40.102L75.9104 40.84Z" fill="#898B97"/>
<path d="M41.9855 112.202C39.9155 112.202 38.2595 112.832 36.9995 114.092C35.7395 115.334 35.1095 116.882 35.1095 118.7C35.1095 120.518 35.7395 122.066 36.9995 123.326C38.2595 124.568 39.9155 125.198 41.9855 125.198C43.5875 125.198 45.0455 124.712 46.3235 123.74L45.4055 121.994C44.3795 122.768 43.2455 123.146 42.0035 123.146C40.6175 123.146 39.5015 122.732 38.6915 121.886C37.8815 121.04 37.4675 119.978 37.4675 118.7C37.4675 117.422 37.8815 116.378 38.6915 115.532C39.5015 114.686 40.6175 114.254 42.0035 114.254C43.2275 114.254 44.3615 114.632 45.4055 115.406L46.3235 113.678C45.0095 112.688 43.5695 112.202 41.9855 112.202ZM52.1675 115.694C50.8535 115.694 49.7015 116.162 48.7115 117.098C47.7215 118.016 47.2355 119.132 47.2355 120.446C47.2355 121.76 47.7215 122.876 48.6935 123.812C49.6835 124.73 50.8355 125.198 52.1675 125.198C53.5175 125.198 54.6695 124.73 55.6415 123.812C56.6315 122.876 57.1175 121.76 57.1175 120.446C57.1175 119.15 56.6315 118.034 55.6415 117.098C54.6695 116.162 53.5175 115.694 52.1675 115.694ZM54.8855 120.446C54.8855 121.256 54.6155 121.922 54.0935 122.48C53.5715 123.038 52.9415 123.308 52.1675 123.308C51.3935 123.308 50.7635 123.038 50.2415 122.48C49.7195 121.922 49.4675 121.256 49.4675 120.446C49.4675 119.636 49.7195 118.97 50.2415 118.412C50.7635 117.854 51.3935 117.584 52.1675 117.584C52.9415 117.584 53.5715 117.872 54.0935 118.43C54.6155 118.988 54.8855 119.654 54.8855 120.446ZM61.224 125V120.446C61.224 118.628 62.196 117.566 63.564 117.566C64.662 117.566 65.328 118.412 65.328 119.978V125H67.542V119.96C67.542 117.278 66.408 115.694 64.176 115.694C62.772 115.694 61.782 116.27 61.224 117.422V115.892H59.01V125H61.224ZM69.1516 122.84C69.3856 123.65 69.8536 124.244 70.5376 124.622C71.2396 125 71.9956 125.198 72.8236 125.198C73.8136 125.198 74.6596 124.946 75.3436 124.46C76.0456 123.974 76.3876 123.29 76.3876 122.426C76.3876 121.202 75.6136 120.338 74.0656 119.816L72.7156 119.33C72.0856 119.096 71.7616 118.79 71.7616 118.394C71.7616 117.8 72.3196 117.44 72.9496 117.44C73.6876 117.44 74.1376 117.746 74.3356 118.376L76.1176 117.728C75.6316 116.378 74.5696 115.694 72.9316 115.694C71.9776 115.694 71.1676 115.946 70.5376 116.45C69.9076 116.954 69.6016 117.62 69.6016 118.448C69.6016 119.564 70.3576 120.41 71.8876 120.986L73.2196 121.49C73.8856 121.76 74.2096 122.084 74.2096 122.462C74.2096 123.128 73.5796 123.416 72.8416 123.416C71.9596 123.416 71.1136 122.948 70.8976 122.102L69.1516 122.84ZM80.508 115.892H78.294V125H80.508V115.892ZM79.41 111.788C78.6 111.788 77.97 112.4 77.97 113.192C77.97 113.984 78.6 114.578 79.41 114.578C80.256 114.578 80.886 113.984 80.886 113.192C80.886 112.4 80.256 111.788 79.41 111.788ZM84.6949 120.428C84.6949 119.618 84.9289 118.934 85.3969 118.376C85.8649 117.818 86.4949 117.548 87.3049 117.548C88.9609 117.548 90.0769 118.736 90.0769 120.518C90.0769 122.264 88.9429 123.344 87.3769 123.344C86.5669 123.344 85.9189 123.074 85.4329 122.516C84.9469 121.958 84.6949 121.256 84.6949 120.428ZM90.0409 117.242C89.3029 116.216 88.2589 115.694 86.9269 115.694C85.5769 115.694 84.4789 116.144 83.6689 117.062C82.8589 117.962 82.4629 119.078 82.4629 120.41C82.4629 121.76 82.8769 122.912 83.6869 123.83C84.5149 124.748 85.5949 125.198 86.9089 125.198C88.2949 125.198 89.3389 124.676 90.0409 123.632V125H92.2549V111.986H90.0409V117.242ZM102.251 122.21C101.441 122.948 100.523 123.326 99.4975 123.326C97.5715 123.326 96.3655 122.246 96.3655 120.752H103.925C103.925 119.096 103.457 117.836 102.539 116.99C101.621 116.126 100.487 115.694 99.1375 115.694C97.7155 115.694 96.5275 116.162 95.5735 117.08C94.6195 117.998 94.1515 119.132 94.1515 120.482C94.1515 121.832 94.6195 122.948 95.5735 123.848C96.5275 124.748 97.7875 125.198 99.3895 125.198C101.099 125.198 102.467 124.622 103.511 123.452L102.251 122.21ZM99.1375 117.458C100.271 117.458 101.351 117.98 101.657 119.258H96.4735C96.9055 117.98 97.9855 117.458 99.1375 117.458ZM105.68 115.892V125H107.894V120.788C107.894 118.286 109.226 117.818 110.054 117.818C110.432 117.818 110.774 117.872 111.098 117.998V115.82C110.792 115.73 110.54 115.694 110.342 115.694C109.262 115.694 108.146 116.468 107.858 117.908V115.892H105.68ZM119.432 117.242C118.694 116.216 117.668 115.694 116.336 115.694C114.986 115.694 113.888 116.144 113.078 117.062C112.268 117.962 111.854 119.078 111.854 120.41C111.854 121.76 112.268 122.912 113.096 123.83C113.924 124.748 115.004 125.198 116.318 125.198C117.704 125.198 118.748 124.676 119.432 123.632V125H121.646V115.892H119.432V117.242ZM114.086 120.428C114.086 119.618 114.32 118.934 114.788 118.376C115.274 117.818 115.904 117.548 116.714 117.548C117.524 117.548 118.19 117.818 118.712 118.376C119.234 118.934 119.486 119.636 119.486 120.518C119.486 122.264 118.334 123.344 116.768 123.344C115.958 123.344 115.31 123.074 114.824 122.516C114.338 121.958 114.086 121.256 114.086 120.428ZM125.198 113.462L124.802 115.892H123.272V117.584H124.694V122.048C124.694 123.2 124.982 124.01 125.54 124.496C126.098 124.964 126.818 125.198 127.7 125.198C129.572 125.198 130.58 124.118 130.58 122.678C130.58 122.264 130.508 121.922 130.382 121.652H128.564C128.654 121.832 128.69 122.084 128.69 122.408C128.69 122.966 128.312 123.344 127.79 123.344C127.196 123.344 126.908 123.02 126.908 122.354V117.584H129.626V115.892H126.908V113.462H125.198ZM134.28 115.892H132.066V125H134.28V115.892ZM133.182 111.788C132.372 111.788 131.742 112.4 131.742 113.192C131.742 113.984 132.372 114.578 133.182 114.578C134.028 114.578 134.658 113.984 134.658 113.192C134.658 112.4 134.028 111.788 133.182 111.788ZM141.13 115.694C139.816 115.694 138.664 116.162 137.674 117.098C136.684 118.016 136.198 119.132 136.198 120.446C136.198 121.76 136.684 122.876 137.656 123.812C138.646 124.73 139.798 125.198 141.13 125.198C142.48 125.198 143.632 124.73 144.604 123.812C145.594 122.876 146.08 121.76 146.08 120.446C146.08 119.15 145.594 118.034 144.604 117.098C143.632 116.162 142.48 115.694 141.13 115.694ZM143.848 120.446C143.848 121.256 143.578 121.922 143.056 122.48C142.534 123.038 141.904 123.308 141.13 123.308C140.356 123.308 139.726 123.038 139.204 122.48C138.682 121.922 138.43 121.256 138.43 120.446C138.43 119.636 138.682 118.97 139.204 118.412C139.726 117.854 140.356 117.584 141.13 117.584C141.904 117.584 142.534 117.872 143.056 118.43C143.578 118.988 143.848 119.654 143.848 120.446ZM150.187 125V120.446C150.187 118.628 151.159 117.566 152.527 117.566C153.625 117.566 154.291 118.412 154.291 119.978V125H156.505V119.96C156.505 117.278 155.371 115.694 153.139 115.694C151.735 115.694 150.745 116.27 150.187 117.422V115.892H147.973V125H150.187Z" fill="#898B97"/>
<path d="M138.66 190.202C136.59 190.202 134.934 190.832 133.674 192.092C132.414 193.334 131.784 194.882 131.784 196.7C131.784 198.518 132.414 200.066 133.674 201.326C134.934 202.568 136.59 203.198 138.66 203.198C140.262 203.198 141.72 202.712 142.998 201.74L142.08 199.994C141.054 200.768 139.92 201.146 138.678 201.146C137.292 201.146 136.176 200.732 135.366 199.886C134.556 199.04 134.142 197.978 134.142 196.7C134.142 195.422 134.556 194.378 135.366 193.532C136.176 192.686 137.292 192.254 138.678 192.254C139.902 192.254 141.036 192.632 142.08 193.406L142.998 191.678C141.684 190.688 140.244 190.202 138.66 190.202ZM148.842 193.694C147.528 193.694 146.376 194.162 145.386 195.098C144.396 196.016 143.91 197.132 143.91 198.446C143.91 199.76 144.396 200.876 145.368 201.812C146.358 202.73 147.51 203.198 148.842 203.198C150.192 203.198 151.344 202.73 152.316 201.812C153.306 200.876 153.792 199.76 153.792 198.446C153.792 197.15 153.306 196.034 152.316 195.098C151.344 194.162 150.192 193.694 148.842 193.694ZM151.56 198.446C151.56 199.256 151.29 199.922 150.768 200.48C150.246 201.038 149.616 201.308 148.842 201.308C148.068 201.308 147.438 201.038 146.916 200.48C146.394 199.922 146.142 199.256 146.142 198.446C146.142 197.636 146.394 196.97 146.916 196.412C147.438 195.854 148.068 195.584 148.842 195.584C149.616 195.584 150.246 195.872 150.768 196.43C151.29 196.988 151.56 197.654 151.56 198.446ZM157.899 203V198.446C157.899 196.628 158.871 195.566 160.239 195.566C161.337 195.566 162.003 196.412 162.003 197.978V203H164.217V197.96C164.217 195.278 163.083 193.694 160.851 193.694C159.447 193.694 158.457 194.27 157.899 195.422V193.892H155.685V203H157.899ZM172.673 193.892L170.225 200.534L167.795 193.892H165.401L169.073 203H171.395L175.067 193.892H172.673ZM183.704 200.21C182.894 200.948 181.976 201.326 180.95 201.326C179.024 201.326 177.818 200.246 177.818 198.752H185.378C185.378 197.096 184.91 195.836 183.992 194.99C183.074 194.126 181.94 193.694 180.59 193.694C179.168 193.694 177.98 194.162 177.026 195.08C176.072 195.998 175.604 197.132 175.604 198.482C175.604 199.832 176.072 200.948 177.026 201.848C177.98 202.748 179.24 203.198 180.842 203.198C182.552 203.198 183.92 202.622 184.964 201.452L183.704 200.21ZM180.59 195.458C181.724 195.458 182.804 195.98 183.11 197.258H177.926C178.358 195.98 179.438 195.458 180.59 195.458ZM187.132 193.892V203H189.346V198.788C189.346 196.286 190.678 195.818 191.506 195.818C191.884 195.818 192.226 195.872 192.55 195.998V193.82C192.244 193.73 191.992 193.694 191.794 193.694C190.714 193.694 189.598 194.468 189.31 195.908V193.892H187.132ZM193.248 200.84C193.482 201.65 193.95 202.244 194.634 202.622C195.336 203 196.092 203.198 196.92 203.198C197.91 203.198 198.756 202.946 199.44 202.46C200.142 201.974 200.484 201.29 200.484 200.426C200.484 199.202 199.71 198.338 198.162 197.816L196.812 197.33C196.182 197.096 195.858 196.79 195.858 196.394C195.858 195.8 196.416 195.44 197.046 195.44C197.784 195.44 198.234 195.746 198.432 196.376L200.214 195.728C199.728 194.378 198.666 193.694 197.028 193.694C196.074 193.694 195.264 193.946 194.634 194.45C194.004 194.954 193.698 195.62 193.698 196.448C193.698 197.564 194.454 198.41 195.984 198.986L197.316 199.49C197.982 199.76 198.306 200.084 198.306 200.462C198.306 201.128 197.676 201.416 196.938 201.416C196.056 201.416 195.21 200.948 194.994 200.102L193.248 200.84ZM204.605 193.892H202.391V203H204.605V193.892ZM203.507 189.788C202.697 189.788 202.067 190.4 202.067 191.192C202.067 191.984 202.697 192.578 203.507 192.578C204.353 192.578 204.983 191.984 204.983 191.192C204.983 190.4 204.353 189.788 203.507 189.788ZM211.456 193.694C210.142 193.694 208.99 194.162 208 195.098C207.01 196.016 206.524 197.132 206.524 198.446C206.524 199.76 207.01 200.876 207.982 201.812C208.972 202.73 210.124 203.198 211.456 203.198C212.806 203.198 213.958 202.73 214.93 201.812C215.92 200.876 216.406 199.76 216.406 198.446C216.406 197.15 215.92 196.034 214.93 195.098C213.958 194.162 212.806 193.694 211.456 193.694ZM214.174 198.446C214.174 199.256 213.904 199.922 213.382 200.48C212.86 201.038 212.23 201.308 211.456 201.308C210.682 201.308 210.052 201.038 209.53 200.48C209.008 199.922 208.756 199.256 208.756 198.446C208.756 197.636 209.008 196.97 209.53 196.412C210.052 195.854 210.682 195.584 211.456 195.584C212.23 195.584 212.86 195.872 213.382 196.43C213.904 196.988 214.174 197.654 214.174 198.446ZM220.512 203V198.446C220.512 196.628 221.484 195.566 222.852 195.566C223.95 195.566 224.616 196.412 224.616 197.978V203H226.83V197.96C226.83 195.278 225.696 193.694 223.464 193.694C222.06 193.694 221.07 194.27 220.512 195.422V193.892H218.298V203H220.512Z" fill="#898B97"/>
<path d="M200.036 264.4H197.732V277H205.76V275.164H200.036V264.4ZM211.325 267.694C210.011 267.694 208.859 268.162 207.869 269.098C206.879 270.016 206.393 271.132 206.393 272.446C206.393 273.76 206.879 274.876 207.851 275.812C208.841 276.73 209.993 277.198 211.325 277.198C212.675 277.198 213.827 276.73 214.799 275.812C215.789 274.876 216.275 273.76 216.275 272.446C216.275 271.15 215.789 270.034 214.799 269.098C213.827 268.162 212.675 267.694 211.325 267.694ZM214.043 272.446C214.043 273.256 213.773 273.922 213.251 274.48C212.729 275.038 212.099 275.308 211.325 275.308C210.551 275.308 209.921 275.038 209.399 274.48C208.877 273.922 208.625 273.256 208.625 272.446C208.625 271.636 208.877 270.97 209.399 270.412C209.921 269.854 210.551 269.584 211.325 269.584C212.099 269.584 212.729 269.872 213.251 270.43C213.773 270.988 214.043 271.654 214.043 272.446ZM219.239 267.892H216.737L220.607 276.46L218.753 281.122H220.931L226.583 267.892H224.099L221.723 274.138L219.239 267.892ZM234.731 269.242C233.993 268.216 232.967 267.694 231.635 267.694C230.285 267.694 229.187 268.144 228.377 269.062C227.567 269.962 227.153 271.078 227.153 272.41C227.153 273.76 227.567 274.912 228.395 275.83C229.223 276.748 230.303 277.198 231.617 277.198C233.003 277.198 234.047 276.676 234.731 275.632V277H236.945V267.892H234.731V269.242ZM229.385 272.428C229.385 271.618 229.619 270.934 230.087 270.376C230.573 269.818 231.203 269.548 232.013 269.548C232.823 269.548 233.489 269.818 234.011 270.376C234.533 270.934 234.785 271.636 234.785 272.518C234.785 274.264 233.633 275.344 232.067 275.344C231.257 275.344 230.609 275.074 230.123 274.516C229.637 273.958 229.385 273.256 229.385 272.428ZM241.722 263.986H239.508V277H241.722V263.986ZM245.297 265.462L244.901 267.892H243.371V269.584H244.793V274.048C244.793 275.2 245.081 276.01 245.639 276.496C246.197 276.964 246.917 277.198 247.799 277.198C249.671 277.198 250.679 276.118 250.679 274.678C250.679 274.264 250.607 273.922 250.481 273.652H248.663C248.753 273.832 248.789 274.084 248.789 274.408C248.789 274.966 248.411 275.344 247.889 275.344C247.295 275.344 247.007 275.02 247.007 274.354V269.584H249.725V267.892H247.007V265.462H245.297ZM253.306 267.892H250.804L254.674 276.46L252.82 281.122H254.998L260.65 267.892H258.166L255.79 274.138L253.306 267.892Z" fill="#898B97"/>
<path d="M188.881 343.534H194.425L195.379 346H197.737L192.841 333.4H190.447L185.587 346H187.963L188.881 343.534ZM189.529 341.662L191.653 335.74L193.759 341.662H189.529ZM200.575 341.428C200.575 340.618 200.809 339.934 201.277 339.376C201.745 338.818 202.375 338.548 203.185 338.548C204.841 338.548 205.957 339.736 205.957 341.518C205.957 343.264 204.823 344.344 203.257 344.344C202.447 344.344 201.799 344.074 201.313 343.516C200.827 342.958 200.575 342.256 200.575 341.428ZM205.921 338.242C205.183 337.216 204.139 336.694 202.807 336.694C201.457 336.694 200.359 337.144 199.549 338.062C198.739 338.962 198.343 340.078 198.343 341.41C198.343 342.76 198.757 343.912 199.567 344.83C200.395 345.748 201.475 346.198 202.789 346.198C204.175 346.198 205.219 345.676 205.921 344.632V346H208.135V332.986H205.921V338.242ZM216.979 336.892L214.531 343.534L212.101 336.892H209.707L213.379 346H215.701L219.373 336.892H216.979ZM224.842 336.694C223.528 336.694 222.376 337.162 221.386 338.098C220.396 339.016 219.91 340.132 219.91 341.446C219.91 342.76 220.396 343.876 221.368 344.812C222.358 345.73 223.51 346.198 224.842 346.198C226.192 346.198 227.344 345.73 228.316 344.812C229.306 343.876 229.792 342.76 229.792 341.446C229.792 340.15 229.306 339.034 228.316 338.098C227.344 337.162 226.192 336.694 224.842 336.694ZM227.56 341.446C227.56 342.256 227.29 342.922 226.768 343.48C226.246 344.038 225.616 344.308 224.842 344.308C224.068 344.308 223.438 344.038 222.916 343.48C222.394 342.922 222.142 342.256 222.142 341.446C222.142 340.636 222.394 339.97 222.916 339.412C223.438 338.854 224.068 338.584 224.842 338.584C225.616 338.584 226.246 338.872 226.768 339.43C227.29 339.988 227.56 340.654 227.56 341.446ZM231.055 341.5C231.055 342.85 231.523 343.984 232.459 344.866C233.395 345.748 234.637 346.198 236.185 346.198C237.409 346.198 238.579 345.784 239.695 344.956L238.669 343.39C237.985 343.948 237.193 344.218 236.293 344.218C235.411 344.218 234.691 343.966 234.133 343.444C233.575 342.922 233.287 342.256 233.287 341.446C233.287 339.808 234.511 338.674 236.293 338.674C237.211 338.674 238.003 338.944 238.669 339.502L239.695 337.918C238.579 337.108 237.409 336.694 236.185 336.694C234.619 336.694 233.359 337.144 232.441 338.062C231.523 338.962 231.055 340.114 231.055 341.5ZM248.214 338.242C247.476 337.216 246.45 336.694 245.118 336.694C243.768 336.694 242.67 337.144 241.86 338.062C241.05 338.962 240.636 340.078 240.636 341.41C240.636 342.76 241.05 343.912 241.878 344.83C242.706 345.748 243.786 346.198 245.1 346.198C246.486 346.198 247.53 345.676 248.214 344.632V346H250.428V336.892H248.214V338.242ZM242.868 341.428C242.868 340.618 243.102 339.934 243.57 339.376C244.056 338.818 244.686 338.548 245.496 338.548C246.306 338.548 246.972 338.818 247.494 339.376C248.016 339.934 248.268 340.636 248.268 341.518C248.268 343.264 247.116 344.344 245.55 344.344C244.74 344.344 244.092 344.074 243.606 343.516C243.12 342.958 242.868 342.256 242.868 341.428ZM252.324 341.5C252.324 342.85 252.792 343.984 253.728 344.866C254.664 345.748 255.906 346.198 257.454 346.198C258.678 346.198 259.848 345.784 260.964 344.956L259.938 343.39C259.254 343.948 258.462 344.218 257.562 344.218C256.68 344.218 255.96 343.966 255.402 343.444C254.844 342.922 254.556 342.256 254.556 341.446C254.556 339.808 255.78 338.674 257.562 338.674C258.48 338.674 259.272 338.944 259.938 339.502L260.964 337.918C259.848 337.108 258.678 336.694 257.454 336.694C255.888 336.694 254.628 337.144 253.71 338.062C252.792 338.962 252.324 340.114 252.324 341.5ZM263.993 336.892H261.491L265.361 345.46L263.507 350.122H265.685L271.337 336.892H268.853L266.477 343.138L263.993 336.892Z" fill="#898B97"/>
</svg>
