<svg width="292" height="391" viewBox="0 0 292 391" fill="none" xmlns="http://www.w3.org/2000/svg">
<mask id="mask0" mask-type="alpha" maskUnits="userSpaceOnUse" x="0" y="157" width="113" height="54">
<path fill-rule="evenodd" clip-rule="evenodd" d="M112.128 157.54H0.74173V210.633H112.128V157.54Z" fill="white"/>
</mask>
<g mask="url(#mask0)">
<path fill-rule="evenodd" clip-rule="evenodd" d="M23.7016 157.54H89.1674C101.848 157.54 112.128 167.819 112.128 180.5V210.633H0.74173V180.5C0.74173 167.819 11.0214 157.54 23.7016 157.54Z" fill="#233EE1"/>
</g>
<path fill-rule="evenodd" clip-rule="evenodd" d="M66.2049 180.502V210.633H112.126V180.502C112.126 167.819 101.848 157.541 89.1654 157.541C84.285 157.541 79.7607 159.063 76.0402 161.658C70.0977 165.809 66.2049 172.699 66.2049 180.502Z" fill="#1423A3"/>
<path fill-rule="evenodd" clip-rule="evenodd" d="M66.2049 180.502V210.633H100.356V184.579C100.356 171.902 90.0783 161.618 77.3952 161.618C76.9416 161.618 76.488 161.629 76.0402 161.658C70.0976 165.809 66.2049 172.699 66.2049 180.502Z" fill="#0F207F"/>
<path fill-rule="evenodd" clip-rule="evenodd" d="M66.2049 210.634V240.765C66.2049 253.449 76.488 263.726 89.1654 263.726C89.5845 263.726 89.9979 263.714 90.4113 263.692C102.514 263.048 112.126 253.029 112.126 240.765V210.634H66.2049Z" fill="#1423A3"/>
<path fill-rule="evenodd" clip-rule="evenodd" d="M68.6966 210.634V240.765C68.6966 253.029 78.308 263.048 90.4112 263.692C102.514 263.048 112.126 253.029 112.126 240.765V210.634H68.6966Z" fill="#233EE1"/>
<path fill-rule="evenodd" clip-rule="evenodd" d="M50.9203 387.761C53.9656 387.761 56.4344 385.292 56.4344 382.247V210.633H45.4061V382.247C45.4061 385.292 47.8749 387.761 50.9203 387.761Z" fill="#16182C"/>
<path fill-rule="evenodd" clip-rule="evenodd" d="M96.8765 383.408C96.8765 383.408 86.1093 374.158 85.4485 371.563C84.7876 368.968 84.7537 365.166 81.6395 364.245C78.5253 363.325 73.3229 363.268 71.3214 363.349C69.3199 363.43 68.7629 359.437 64.6577 364.826C60.5525 370.215 60.4876 368.653 58.1479 370.457C55.8088 372.261 51.6123 378.058 51.4384 379.107C51.2655 380.157 49.0441 382.534 51.567 382.866C54.0898 383.199 59.0402 384.284 62.4541 384.586C65.8686 384.887 68.9679 389.593 73.1305 389.033C77.2932 388.471 81.3054 386.242 82.9222 386.187C84.5384 386.131 85.3514 386.104 88.081 386.01C90.8099 385.917 95.6323 387.425 96.8765 383.408Z" fill="#495888"/>
<path fill-rule="evenodd" clip-rule="evenodd" d="M83.2913 366.208C83.2913 366.208 81.4838 364.898 78.3541 368.856C75.2255 372.814 77.2345 378.106 73.928 380.694C70.622 383.283 71.8082 389.789 75.6579 388.507C79.507 387.225 78.7227 387.248 87.3247 386.758C95.9267 386.268 95.6276 386.889 96.8764 383.408C98.1252 379.928 92.4089 378.585 89.1764 374.896C85.9433 371.207 84.942 366.739 83.2913 366.208Z" fill="#363F63"/>
<path fill-rule="evenodd" clip-rule="evenodd" d="M63.4384 366.367C63.4384 366.367 64.7073 365.962 65.607 369.358C66.5067 372.753 65.4818 374.282 65.2613 376.43C65.0414 378.58 64.0304 380.284 62.1374 379.465C60.2449 378.646 58.7343 377.432 56.7977 378.082C54.8611 378.732 53.3901 378.676 52.9095 378.941C52.429 379.207 51.8686 380.427 51.4385 379.107C51.0091 377.787 56.7845 371.307 58.1481 370.457C59.5117 369.607 63.4384 366.367 63.4384 366.367Z" fill="#363F63"/>
<mask id="mask1" mask-type="alpha" maskUnits="userSpaceOnUse" x="40" y="377" width="22" height="14">
<path fill-rule="evenodd" clip-rule="evenodd" d="M61.1897 377.924H40.2606V390.11H61.1897V377.924Z" fill="white"/>
</mask>
<g mask="url(#mask1)">
<path fill-rule="evenodd" clip-rule="evenodd" d="M61.1897 387.558C61.1897 387.558 56.3438 383.395 56.0464 382.227C55.7496 381.06 55.7341 379.349 54.3326 378.934C52.931 378.52 50.5896 378.495 49.6888 378.531C48.7885 378.568 48.5376 376.77 46.6905 379.196C44.8429 381.621 44.8136 380.918 43.7612 381.73C42.7082 382.541 40.8192 385.15 40.7411 385.622C40.6636 386.095 39.664 387.165 40.7991 387.314C41.9348 387.464 44.1625 387.953 45.699 388.088C47.2354 388.224 48.63 390.342 50.5035 390.089C52.3764 389.837 54.1821 388.834 54.9096 388.809C55.637 388.784 56.0028 388.771 57.2309 388.729C58.4596 388.687 60.6293 389.366 61.1897 387.558Z" fill="#293EEC"/>
</g>
<path fill-rule="evenodd" clip-rule="evenodd" d="M55.0758 379.817C55.0758 379.817 54.2623 379.228 52.8539 381.009C51.446 382.79 52.3503 385.172 50.8621 386.337C49.3739 387.502 49.9084 390.429 51.6407 389.853C53.3729 389.276 53.0198 389.286 56.8913 389.066C60.7623 388.845 60.6274 389.124 61.1895 387.558C61.7516 385.992 59.1788 385.388 57.7244 383.728C56.2695 382.067 55.8182 380.056 55.0758 379.817Z" fill="#4F5ED9"/>
<path fill-rule="evenodd" clip-rule="evenodd" d="M46.1416 379.889C46.1416 379.889 46.7123 379.707 47.1177 381.235C47.5225 382.763 47.0614 383.451 46.9621 384.418C46.8627 385.385 46.408 386.152 45.556 385.783C44.7045 385.415 44.0241 384.869 43.1526 385.162C42.2816 385.453 41.6196 385.428 41.4031 385.547C41.1872 385.667 40.9346 386.217 40.7411 385.622C40.5482 385.028 43.1468 382.112 43.7612 381.73C44.3744 381.347 46.1416 379.889 46.1416 379.889Z" fill="#4F5ED9"/>
<path fill-rule="evenodd" clip-rule="evenodd" d="M43.0847 383.251C43.0847 383.251 38.2394 379.088 37.942 377.92C37.6446 376.753 37.6291 375.041 36.2276 374.627C34.8261 374.213 32.4852 374.187 31.5844 374.224C30.6835 374.26 30.4332 372.463 28.5856 374.888C26.7379 377.314 26.7092 376.611 25.6562 377.423C24.6032 378.235 22.7142 380.843 22.6367 381.316C22.5587 381.788 21.559 382.857 22.6947 383.007C23.8298 383.156 26.0576 383.645 27.594 383.781C29.1304 383.916 30.5251 386.035 32.3985 385.782C34.272 385.53 36.0771 384.526 36.8046 384.502C37.5326 384.477 37.8984 384.464 39.1265 384.422C40.3546 384.38 42.5249 385.058 43.0847 383.251Z" fill="#263154"/>
<path fill-rule="evenodd" clip-rule="evenodd" d="M36.9711 375.51C36.9711 375.51 36.1575 374.922 34.7491 376.702C33.3413 378.484 34.2456 380.865 32.7574 382.03C31.2692 383.195 31.8037 386.122 33.5359 385.546C35.2682 384.969 34.9151 384.979 38.7866 384.759C42.657 384.538 42.5226 384.817 43.0847 383.251C43.6468 381.685 41.074 381.081 39.6197 379.421C38.1648 377.76 37.7135 375.749 36.9711 375.51Z" fill="#181E39"/>
<path fill-rule="evenodd" clip-rule="evenodd" d="M28.0366 375.582C28.0366 375.582 28.6079 375.4 29.0127 376.928C29.4175 378.456 28.9564 379.144 28.8571 380.111C28.7578 381.078 28.303 381.845 27.451 381.477C26.5995 381.107 25.9197 380.561 25.0481 380.854C24.1766 381.146 23.5146 381.121 23.2987 381.24C23.0822 381.36 22.8302 381.91 22.6367 381.315C22.4432 380.721 25.0424 377.805 25.6562 377.423C26.2694 377.04 28.0366 375.582 28.0366 375.582Z" fill="#181E39"/>
<path fill-rule="evenodd" clip-rule="evenodd" d="M75.6033 197.056L87.482 224.134C87.865 225.007 88.8789 225.402 89.7517 225.019L138.124 203.799C138.996 203.416 139.392 202.402 139.01 201.529L127.13 174.451C126.911 173.952 126.484 173.606 125.996 173.482C125.634 173.384 125.234 173.402 124.861 173.566L76.4887 194.787C76.1155 194.95 75.8312 195.232 75.6579 195.565C75.4196 196.008 75.384 196.556 75.6033 197.056Z" fill="#DEE8FF"/>
<path fill-rule="evenodd" clip-rule="evenodd" d="M75.6577 195.565L104.352 198.946C106.176 199.162 107.975 198.373 109.052 196.884L125.996 173.482C125.633 173.384 125.234 173.402 124.861 173.566L76.4885 194.787C76.1153 194.951 75.8311 195.232 75.6577 195.565Z" fill="#F0F4FF"/>
<path fill-rule="evenodd" clip-rule="evenodd" d="M107.502 155.752C117.323 159.723 128.28 159.599 138.251 156.02C159.609 148.352 169.431 132.233 173.645 117.259C179.071 97.9966 184.05 58.8673 175.042 55.6061C168.135 53.1028 163.059 55.0893 159.143 59.6539C147.884 72.7906 146.294 107.309 138.635 117.712C128.323 131.733 115.404 120.514 100.855 134.156C90.8563 143.531 96.6237 151.353 107.502 155.752Z" fill="#D2DBFF"/>
<path fill-rule="evenodd" clip-rule="evenodd" d="M79.5801 144.566C79.1718 144.839 79.185 145.454 79.6116 145.709C80.1031 145.99 80.6928 146.041 81.2158 145.832C82.4537 145.351 84.8422 144.4 86.8437 143.576C87.3071 143.38 87.686 144.013 87.2749 144.329C86.118 145.239 84.802 146.265 83.7232 147.075C82.5151 147.974 83.5521 149.964 84.9484 149.396C84.9559 149.389 84.9708 149.39 84.9783 149.383C85.9871 148.956 87.3782 148.337 87.9742 147.978C88.9698 147.369 92.6289 144.833 94.2319 144.678C94.2319 144.678 90.6883 148.141 87.8646 150.212C87.485 150.486 87.5086 151.051 87.8915 151.304C88.685 151.826 89.6754 151.933 90.5556 151.596C91.0626 151.401 91.6201 151.37 92.1219 151.585L92.6013 151.806C93.288 152.118 94.1045 152.033 94.7263 151.596C96.2966 150.465 99.319 148.367 100.683 147.87C101.711 147.497 102.747 147.254 104.074 147.517C104.078 147.518 104.082 147.519 104.087 147.52C106.058 147.963 107.759 146.142 107.131 144.221C106.568 142.499 106.126 140.755 105.781 139.092C105.528 137.88 104.432 137.033 103.193 137.075C100.981 137.152 97.875 137.266 97.771 137.27C95.3596 137.35 92.4147 137.718 90.6607 137.968C89.6731 138.11 88.7333 138.474 87.8938 139.026L79.5801 144.566Z" fill="#F0A387"/>
<path fill-rule="evenodd" clip-rule="evenodd" d="M163.369 72.6124C163.191 69.3225 164.121 66.6182 165.43 64.4824C169.03 58.6202 176.581 56.8748 182.385 60.5666C192.605 67.0776 201.889 85.617 210.502 107.55C221.985 136.797 242.029 131.727 242.029 131.727C232.021 111.483 217.328 92.3519 202.079 72.9454C194.54 63.3513 186.887 54.2681 179.853 46.2472C179.853 46.2472 163.576 57.8624 157.553 62.025C159.746 65.4068 161.693 68.9436 163.369 72.6124Z" fill="#B8C9FF"/>
<path fill-rule="evenodd" clip-rule="evenodd" d="M193.966 161.618V233.807C193.966 236.896 194.167 239.973 194.586 243.028C196.366 255.952 202.992 287.077 226.48 303.854C237.895 312.007 246.3 320.607 252.34 328.158L281.64 318.437C272.298 301.597 259.678 296.608 254.66 287.777C246.668 273.71 235.38 219.74 240.26 198.37C245.14 177 245.428 166.343 245.428 166.343L193.966 161.618Z" fill="#0F207F"/>
<path fill-rule="evenodd" clip-rule="evenodd" d="M133.301 283.471C134.001 298.37 136.958 320.946 134.656 337.54L166.194 338.108C172.527 323.048 177.809 302.027 173.371 278.493C173.371 278.493 171.264 267.206 185.043 258.593C198.823 249.981 257.961 210.358 254.516 173.423C253.15 158.782 248.603 145.014 242.028 131.727C242.028 131.727 229.785 132.146 218.302 102.899C209.69 80.9661 194.5 63.3338 184.28 56.8234C178.475 53.131 169.03 58.6199 165.43 64.4821C164.121 66.6185 163.191 69.3228 163.369 72.6127C172.492 92.5411 198.823 155.423 181.093 181.834C159.878 213.424 132.267 261.653 133.301 283.471Z" fill="#1423A3"/>
<path fill-rule="evenodd" clip-rule="evenodd" d="M106.344 371.507H132.657C139.817 371.507 146.65 368.527 151.518 363.279L152.512 362.205C152.648 362.058 152.777 361.906 152.899 361.747C153.266 361.269 154.129 360.125 155.308 358.381V358.376L168.214 342.445C169.61 340.722 168.411 338.147 166.194 338.108L134.655 337.54L131.77 337.486C130.399 337.461 129.232 338.483 129.077 339.847L128.042 348.946C127.541 353.364 125.267 357.405 121.718 360.083C115.712 364.616 109.925 367.594 105.89 369.37C104.788 369.859 105.132 371.507 106.344 371.507Z" fill="#181C38"/>
<path fill-rule="evenodd" clip-rule="evenodd" d="M181.983 58.402C191.541 57.7262 214.71 93.7125 217.581 113.521C220.452 133.329 215.858 161.763 183.419 178.55C150.979 195.338 138.347 178.688 146.099 160.315C153.85 141.942 170.213 146.946 173.945 129.946C177.677 112.947 153.563 60.4115 181.983 58.402Z" fill="#B8C9FF"/>
<path fill-rule="evenodd" clip-rule="evenodd" d="M133.292 177.38L124.693 185.019L121.298 192.904C121.191 193.151 121.326 193.434 121.585 193.508C122.527 193.778 123.532 193.367 124.016 192.514L127.355 187.513L129.664 185.482L133.292 177.38Z" fill="#F0A387"/>
<path fill-rule="evenodd" clip-rule="evenodd" d="M136.535 179.304L127.935 186.943L124.54 194.828C124.434 195.074 124.569 195.359 124.827 195.432C125.77 195.702 126.775 195.291 127.259 194.438L130.598 189.436L132.906 187.406L136.535 179.304Z" fill="#F0A387"/>
<path fill-rule="evenodd" clip-rule="evenodd" d="M141.152 178.789L132.552 186.429L129.157 194.313C129.051 194.56 129.186 194.845 129.444 194.919C130.387 195.188 131.392 194.777 131.876 193.924L135.215 188.923L137.523 186.892L141.152 178.789Z" fill="#F0A387"/>
<path fill-rule="evenodd" clip-rule="evenodd" d="M133.299 175.244L126.119 180.247L120.754 184.446L117.33 187.299C117.189 187.42 117.163 187.627 117.27 187.779C117.765 188.485 118.666 188.61 119.443 188.141L123.98 185.562L131.026 180.577L133.299 175.244Z" fill="#F0A387"/>
<path fill-rule="evenodd" clip-rule="evenodd" d="M148.885 170.192C152.422 172.586 152.158 177.876 148.4 179.908C145.164 181.659 141.848 183.538 140.209 184.728C139.175 185.469 138.279 186.191 137.544 186.856C137.538 186.862 137.538 186.862 137.532 186.863C137.474 186.921 137.411 186.978 137.354 187.036C137.29 187.094 137.226 187.152 137.168 187.21L137.162 187.211L134.131 186.949L133.155 186.85L132.404 186.781H132.399L128.626 186.395H128.621L128.554 186.393L127.308 186.271C127.308 186.271 127.559 184.606 128.226 182.562L128.226 182.556C128.33 182.235 128.434 181.907 128.562 181.585V181.578C129.249 179.684 130.281 177.649 131.757 176.32C131.769 176.307 131.78 176.301 131.792 176.294C132.365 175.771 132.942 175.34 133.536 174.968C135.388 173.788 140.026 171.397 143.125 169.828C144.969 168.895 147.173 169.033 148.885 170.192Z" fill="#F0A387"/>
<path fill-rule="evenodd" clip-rule="evenodd" d="M248.04 364.14H284.642C288.966 364.14 292.365 360.425 291.968 356.125C291.509 351.101 290.843 346.531 290.011 342.362L290.005 342.345L286.587 320.158C286.33 318.486 284.631 317.446 283.025 317.979L281.639 318.437L252.34 328.158C250.38 328.808 249.821 331.312 251.317 332.735L261.454 342.367C262.271 343.143 262.955 344.049 263.477 345.046L263.485 345.061C264.914 347.816 263.973 351.199 261.326 352.817L247.27 361.43C246.013 362.2 246.558 364.14 248.04 364.14Z" fill="#1A1D38"/>
<path fill-rule="evenodd" clip-rule="evenodd" d="M122.845 29.2636L135.327 46.6548C137.343 49.4624 140.592 51.1274 144.049 51.1274C146.03 51.1274 147.947 51.6269 149.641 52.5399C151.335 53.4528 152.805 54.7848 153.89 56.4441L157.335 61.6919C157.409 61.801 157.478 61.9101 157.553 62.0249C163.576 57.8623 179.853 46.2471 179.853 46.2471C163.312 27.3804 150.215 14.3815 150.215 14.3815L131.458 15.3403L122.845 29.2636Z" fill="#F0A387"/>
<mask id="mask2" mask-type="alpha" maskUnits="userSpaceOnUse" x="122" y="0" width="37" height="20">
<path fill-rule="evenodd" clip-rule="evenodd" d="M158.936 0.574097H122.298V19.5055H158.936V0.574097Z" fill="white"/>
</mask>
<g mask="url(#mask2)">
<path fill-rule="evenodd" clip-rule="evenodd" d="M134.297 14.3157C134.297 14.3157 148.021 15.3256 158.936 19.5055C158.936 19.5055 157.226 4.43563 145.172 1.23644C133.118 -1.96276 125.748 7.17665 122.713 12.5594C119.678 17.9415 134.297 14.3157 134.297 14.3157Z" fill="#1423A3"/>
</g>
<path fill-rule="evenodd" clip-rule="evenodd" d="M119.74 32.6102C119.74 32.6102 123.48 21.7139 134.297 14.3159C134.297 14.3159 112.654 6.53664 103.122 23.6453C97.0394 34.5635 119.74 32.6102 119.74 32.6102Z" fill="#233EE1"/>
<path fill-rule="evenodd" clip-rule="evenodd" d="M125.232 33.8154C125.183 33.9181 124.567 38.3116 119.298 39.5076C114.029 40.7041 113.37 39.4633 111.726 36.3514C110.082 33.2401 115.406 34.1622 115.097 31.5934C114.787 29.024 115.876 29.7354 119.389 26.2842C122.903 22.8335 121.049 21.0921 124.334 18.7317C127.618 16.3708 130.513 13.492 135.456 14.2217C140.399 14.9515 138.512 11.3659 148.474 13.2951C158.436 15.2242 157.739 13.1027 160.093 17.9916C162.446 22.8812 163.036 24.1678 165.483 30.0529C165.483 30.0529 159.58 32.0476 156.51 29.531C153.44 27.0134 157.145 23.8228 154.183 22.3638C151.221 20.9055 149.167 20.832 145.769 19.9179C142.371 19.0045 138.838 19.3093 136.776 21.1621C134.714 23.0144 133.793 20.6994 129.844 24.6938C125.894 28.6882 126.769 30.6323 125.232 33.8154Z" fill="#FCC2C2"/>
<path fill-rule="evenodd" clip-rule="evenodd" d="M136.589 41.3893C137.138 41.2199 137.39 40.5929 137.112 40.0888C135.19 36.6014 133.378 32.9073 131.739 29.3027C131.578 28.9496 131.052 29.069 131.059 29.4572L131.198 37.485C131.246 40.257 133.94 42.208 136.589 41.3893Z" fill="#FF3355"/>
<path fill-rule="evenodd" clip-rule="evenodd" d="M150.136 26.3785C151.754 28.12 154.478 28.2204 156.22 26.6025C157.961 24.9845 158.062 22.2607 156.444 20.5187C154.826 18.7773 152.102 18.6768 150.361 20.2948C148.619 21.9133 148.518 24.6366 150.136 26.3785Z" fill="#F0A387"/>
</svg>
