<svg width="687" height="502" viewBox="0 0 687 502" fill="none" xmlns="http://www.w3.org/2000/svg">
<path fill-rule="evenodd" clip-rule="evenodd" d="M62.2342 248.343C41.4897 246.51 20.7446 244.677 6.86646e-05 242.844C4.85544 187.79 33.9903 137.772 79.4628 106.424C91.275 123.592 103.088 140.761 114.899 157.929C84.7614 178.705 65.4519 211.855 62.2342 248.343Z" fill="#F0F4FF"/>
<path fill-rule="evenodd" clip-rule="evenodd" d="M79.7698 182.155C66.8559 172.665 53.9427 163.175 41.0281 153.684C50.5905 140.646 61.9575 128.866 74.8985 118.742C84.7649 131.377 94.6307 144.011 104.497 156.645C95.0487 164.037 86.7511 172.636 79.7698 182.155Z" fill="#D2DBFF"/>
<path fill-rule="evenodd" clip-rule="evenodd" d="M73.7867 191.061C60.1354 182.668 46.4842 174.276 32.833 165.884C33.779 164.342 34.7489 162.814 35.742 161.301L75.9106 187.716C75.1852 188.82 74.4776 189.935 73.7867 191.061Z" fill="#D2DBFF"/>
<path fill-rule="evenodd" clip-rule="evenodd" d="M69.7596 198.109C55.6122 190.585 41.4648 183.061 27.3167 175.537C28.1653 173.939 29.0378 172.354 29.9342 170.782C43.8464 178.734 57.758 186.686 71.6703 194.637C71.0157 195.785 70.3791 196.942 69.7596 198.109Z" fill="#D2DBFF"/>
<path fill-rule="evenodd" clip-rule="evenodd" d="M66.1775 205.398C51.5881 198.772 36.9995 192.147 22.4102 185.521C23.1575 183.872 23.9306 182.234 24.7282 180.609C39.1082 187.676 53.4888 194.744 67.8694 201.811C67.2871 202.998 66.7233 204.194 66.1775 205.398Z" fill="#D2DBFF"/>
<path fill-rule="evenodd" clip-rule="evenodd" d="M63.052 212.908C48.0777 207.208 33.1035 201.509 18.1286 195.809C18.7739 194.112 19.4437 192.426 20.1393 190.752C34.9327 196.906 49.726 203.061 64.5194 209.216C64.0119 210.438 63.5223 211.669 63.052 212.908Z" fill="#D2DBFF"/>
<path fill-rule="evenodd" clip-rule="evenodd" d="M60.3962 220.618C45.094 215.869 29.7925 211.119 14.4911 206.37C15.0297 204.631 15.5948 202.901 16.1857 201.183C31.3348 206.399 46.4839 211.615 61.633 216.831C61.2018 218.086 60.789 219.348 60.3962 220.618Z" fill="#D2DBFF"/>
<path fill-rule="evenodd" clip-rule="evenodd" d="M58.2214 228.507C42.6516 224.73 27.0825 220.953 11.5127 217.176C11.9427 215.399 12.3991 213.631 12.8827 211.873C28.3293 216.127 43.7759 220.381 59.2218 224.635C58.8693 225.919 58.5354 227.21 58.2214 228.507Z" fill="#D2DBFF"/>
<path fill-rule="evenodd" clip-rule="evenodd" d="M56.5406 236.554C40.7641 233.768 24.987 230.983 9.20984 228.198C9.5285 226.388 9.87498 224.587 10.2486 222.793C25.9317 226.065 41.6154 229.336 57.2985 232.608C57.0262 233.917 56.7738 235.233 56.5406 236.554Z" fill="#D2DBFF"/>
<path fill-rule="evenodd" clip-rule="evenodd" d="M44.8905 156.523C51.6823 152.599 58.608 149.249 65.5873 146.462C64.2213 150.601 63.0559 154.735 62.0841 158.848C69.9047 154.44 77.9261 150.836 86.0138 148.021C81.1478 158.428 77.8215 168.967 75.8837 179.299C65.5529 171.707 55.222 164.115 44.8905 156.523Z" fill="#E9EEFF"/>
<path fill-rule="evenodd" clip-rule="evenodd" d="M75.9394 145.364C74.3898 146.845 72.2348 147.154 71.0794 146.012C69.9253 144.871 70.2619 142.657 71.8803 141.11C73.4975 139.563 75.7281 139.323 76.8132 140.529C77.899 141.736 77.4876 143.882 75.9394 145.364Z" fill="#E9EEFF"/>
<path fill-rule="evenodd" clip-rule="evenodd" d="M518.213 77.8086L506.242 64.8202C517.709 54.2298 533.298 49.3113 548.759 51.4055C547.97 57.2431 547.181 63.0808 546.392 68.9178C536.145 67.5298 525.813 70.7899 518.213 77.8086Z" fill="#F0F4FF"/>
<path fill-rule="evenodd" clip-rule="evenodd" d="M534.446 67.3019C533.547 62.8608 532.648 58.4191 531.749 53.978C536.224 53.0702 540.837 52.7691 545.466 53.1133C545.131 57.6326 544.796 62.1513 544.46 66.6706C541.082 66.4193 537.714 66.6388 534.446 67.3019Z" fill="#D2DBFF"/>
<path fill-rule="evenodd" clip-rule="evenodd" d="M531.504 68.0264L527.719 54.9711C528.209 54.8285 528.702 54.6932 529.198 54.5659C530.326 58.9539 531.455 63.3426 532.583 67.7307C532.222 67.8242 531.862 67.9223 531.504 68.0264Z" fill="#D2DBFF"/>
<path fill-rule="evenodd" clip-rule="evenodd" d="M529.323 68.7341C527.793 64.4694 526.263 60.2047 524.732 55.9401C525.213 55.767 525.696 55.6019 526.183 55.4434C527.582 59.7531 528.982 64.0622 530.383 68.372C530.028 68.4867 529.675 68.6081 529.323 68.7341Z" fill="#D2DBFF"/>
<path fill-rule="evenodd" clip-rule="evenodd" d="M527.19 69.5773C525.398 65.4167 523.604 61.2555 521.811 57.0949C522.281 56.892 522.753 56.6964 523.229 56.5081C524.894 60.7217 526.56 64.9353 528.225 69.1489C527.879 69.2868 527.534 69.4294 527.19 69.5773Z" fill="#D2DBFF"/>
<path fill-rule="evenodd" clip-rule="evenodd" d="M525.111 70.5535C523.061 66.513 521.012 62.4725 518.963 58.4319C519.42 58.1998 519.88 57.9743 520.343 57.7568L526.119 70.0601C525.781 70.2193 525.445 70.3838 525.111 70.5535Z" fill="#D2DBFF"/>
<path fill-rule="evenodd" clip-rule="evenodd" d="M523.092 71.6606C520.794 67.7567 518.496 63.8528 516.197 59.9482C516.64 59.6875 517.086 59.4336 517.536 59.1855C519.713 63.1584 521.892 67.1313 524.07 71.1042C523.741 71.2846 523.415 71.4696 523.092 71.6606Z" fill="#D2DBFF"/>
<path fill-rule="evenodd" clip-rule="evenodd" d="M521.139 72.897C518.601 69.1449 516.061 65.3935 513.522 61.6421C513.949 61.3523 514.381 61.0692 514.816 60.7939C517.238 64.6216 519.661 68.4493 522.084 72.2776C521.766 72.4792 521.451 72.6854 521.139 72.897Z" fill="#D2DBFF"/>
<path fill-rule="evenodd" clip-rule="evenodd" d="M519.261 74.2599C516.489 70.6762 513.719 67.0926 510.948 63.509C511.358 63.1913 511.772 62.8803 512.191 62.5759C514.85 66.2438 517.509 69.911 520.168 73.5788C519.862 73.801 519.56 74.0278 519.261 74.2599Z" fill="#D2DBFF"/>
<path fill-rule="evenodd" clip-rule="evenodd" d="M532.018 55.3064C534.183 55.7779 536.267 56.3946 538.256 57.1393C537.185 57.7454 536.156 58.388 535.172 59.0638C537.645 59.6294 540.006 60.4013 542.232 61.351C539.238 62.6016 536.542 64.1733 534.176 65.9658C533.456 62.4126 532.737 58.8595 532.018 55.3064Z" fill="#E9EEFF"/>
<path fill-rule="evenodd" clip-rule="evenodd" d="M540.63 58.879C540.024 58.8936 539.515 58.5487 539.49 58.0905C539.465 57.6323 539.956 57.2331 540.589 57.2178C541.221 57.2012 541.732 57.5753 541.73 58.0341C541.728 58.493 541.235 58.8637 540.63 58.879Z" fill="#E9EEFF"/>
<path fill-rule="evenodd" clip-rule="evenodd" d="M518.837 215.876C506.902 195.197 494.968 174.518 483.033 153.839C532.644 159.901 537.143 87.7977 586.754 93.8601C598.688 114.539 610.623 135.218 622.557 155.897C572.946 149.835 568.448 221.938 518.837 215.876Z" fill="#F0F4FF"/>
<path fill-rule="evenodd" clip-rule="evenodd" d="M576.532 167.06C567.351 151.153 558.17 135.245 548.99 119.337C557.828 109.76 567.724 102.014 581.405 100.828C590.586 116.735 599.766 132.643 608.948 148.55C595.266 149.736 585.371 157.483 576.532 167.06Z" fill="#D2DBFF"/>
<path fill-rule="evenodd" clip-rule="evenodd" d="M568.707 176.148L541.164 128.425C542.11 127.277 543.059 126.133 544.015 125.001C553.196 140.908 562.377 156.816 571.558 172.724C570.602 173.856 569.653 175 568.707 176.148Z" fill="#D2DBFF"/>
<path fill-rule="evenodd" clip-rule="evenodd" d="M562.893 183.214L535.35 135.491C536.301 134.35 537.247 133.2 538.191 132.048C547.372 147.956 556.553 163.864 565.734 179.771C564.789 180.923 563.844 182.073 562.893 183.214Z" fill="#D2DBFF"/>
<path fill-rule="evenodd" clip-rule="evenodd" d="M556.954 190.063C547.774 174.155 538.592 158.247 529.412 142.34C530.399 141.262 531.373 140.161 532.338 139.046C541.519 154.953 550.701 170.861 559.881 186.769C558.916 187.884 557.941 188.985 556.954 190.063Z" fill="#D2DBFF"/>
<path fill-rule="evenodd" clip-rule="evenodd" d="M550.693 196.352L523.15 148.629C524.206 147.67 525.24 146.675 526.259 145.65C535.44 161.559 544.621 177.466 553.801 193.374C552.783 194.398 551.749 195.393 550.693 196.352Z" fill="#D2DBFF"/>
<path fill-rule="evenodd" clip-rule="evenodd" d="M543.909 201.738C534.728 185.83 525.548 169.922 516.367 154.015C517.524 153.23 518.652 152.397 519.755 151.52C528.936 167.428 538.117 183.336 547.297 199.243C546.194 200.12 545.066 200.953 543.909 201.738Z" fill="#D2DBFF"/>
<path fill-rule="evenodd" clip-rule="evenodd" d="M536.408 205.878C527.227 189.97 518.046 174.062 508.865 158.155C510.155 157.601 511.408 156.984 512.628 156.311C521.81 172.219 530.991 188.126 540.171 204.034C538.95 204.708 537.697 205.324 536.408 205.878Z" fill="#D2DBFF"/>
<path fill-rule="evenodd" clip-rule="evenodd" d="M527.989 208.43C518.808 192.521 509.627 176.614 500.446 160.706C501.901 160.439 503.312 160.095 504.682 159.681C513.863 175.589 523.044 191.496 532.225 207.404C530.854 207.818 529.444 208.162 527.989 208.43Z" fill="#D2DBFF"/>
<path fill-rule="evenodd" clip-rule="evenodd" d="M551.735 124.095C557.579 122.856 563.643 121.998 570.187 121.973C568.509 125.636 566.993 129.577 565.586 133.709C572.89 131.896 580.729 131.009 589.638 131.977C582.872 139.518 578.004 150.347 573.77 162.273C566.425 149.547 559.08 136.821 551.735 124.095Z" fill="#E9EEFF"/>
<path fill-rule="evenodd" clip-rule="evenodd" d="M579.916 125.111C578.225 125.901 576.17 125.355 575.239 123.741C574.31 122.133 574.858 120.067 576.549 119.276C578.238 118.483 580.434 119.274 581.364 120.884C582.295 122.497 581.605 124.318 579.916 125.111Z" fill="#E9EEFF"/>
<path fill-rule="evenodd" clip-rule="evenodd" d="M135.845 299.39C129.288 306.639 111.122 324.614 90.6101 326.628C89.4514 326.743 88.7134 325.254 89.458 324.323C94.4147 318.125 109.341 302.111 134.614 297.05C135.849 296.802 136.708 298.436 135.845 299.39Z" fill="#FCC2C2"/>
<path fill-rule="evenodd" clip-rule="evenodd" d="M60.1836 291.753C60.1836 291.753 60.0379 291.749 59.759 291.733C56.4505 291.53 34.397 289.47 14.7045 269.953C14.1222 269.375 14.5767 268.368 15.3438 268.545C23.3043 270.38 47.9243 277.055 60.1836 291.753Z" fill="#FCC2C2"/>
<path fill-rule="evenodd" clip-rule="evenodd" d="M80.5797 297.366C73.7925 293.609 51.8423 280.411 41.2014 261.493C40.9285 261.008 41.33 260.434 41.8381 260.574C46.3854 261.83 62.3441 268.057 81.3032 296.451C81.6649 296.993 81.1309 297.671 80.5797 297.366Z" fill="#FCC2C2"/>
<path fill-rule="evenodd" clip-rule="evenodd" d="M100.086 300.754C93.7152 304.758 72.281 317.111 51.9983 315.979C51.4782 315.95 51.2258 315.261 51.5909 314.881C54.8642 311.481 67.7854 300.585 99.7266 299.58C100.335 299.561 100.604 300.429 100.086 300.754Z" fill="#FCC2C2"/>
<path fill-rule="evenodd" clip-rule="evenodd" d="M77.8014 297.883C71.7688 299.847 52.5394 304.791 32.3428 296.122C31.7499 295.867 31.8347 294.946 32.4601 294.882C39.4738 294.163 61.2014 292.442 77.7179 296.641C78.3234 296.795 78.3857 297.693 77.8014 297.883Z" fill="#FCC2C2"/>
<path fill-rule="evenodd" clip-rule="evenodd" d="M101.054 299.966C94.5323 297.442 75.9568 288.823 67.2404 269.855C66.9105 269.137 67.5127 268.373 68.2196 268.625C73.1703 270.385 87.8239 277.121 101.979 298.619C102.454 299.34 101.825 300.265 101.054 299.966Z" fill="#FCC2C2"/>
<path fill-rule="evenodd" clip-rule="evenodd" d="M129.777 297.546C129.777 297.546 129.647 297.52 129.401 297.467C125.475 296.625 91.989 288.896 82.3458 268.435C82.0245 267.752 82.6028 267.013 83.2779 267.254C89.7531 269.56 113.47 278.928 129.777 297.546Z" fill="#FCC2C2"/>
<path fill-rule="evenodd" clip-rule="evenodd" d="M156.618 292.818C152.084 294.525 147.563 295.777 142.947 296.88C138.343 297.972 133.688 298.831 129.003 299.48C119.632 300.792 110.128 301.187 100.634 300.738C95.8861 300.471 91.1434 299.991 86.4212 299.287C81.7069 298.51 77.0052 297.596 72.3652 296.338C63.0751 293.893 54.0169 290.328 45.3575 285.87C45.0998 285.738 44.9839 285.412 45.0978 285.143C45.2091 284.875 45.5039 284.764 45.759 284.889L45.7649 284.892C54.425 289.152 63.4441 292.508 72.6633 294.751C77.2676 295.908 81.9255 296.722 86.5894 297.4C91.262 298.006 95.9477 298.39 100.632 298.563C110 298.826 119.357 298.256 128.555 296.784C133.155 296.058 137.718 295.123 142.217 293.962C146.698 292.805 151.204 291.45 155.423 289.766L155.479 289.743C156.257 289.434 157.15 289.867 157.471 290.714C157.792 291.561 157.422 292.498 156.644 292.808C156.637 292.811 156.624 292.816 156.618 292.818Z" fill="#FFB0B0"/>
<path fill-rule="evenodd" clip-rule="evenodd" d="M179.043 31.8212C179.555 27.0074 181.587 14.5118 189.208 7.71855C189.638 7.33526 190.367 7.71524 190.34 8.30544C190.162 12.2319 188.855 22.9961 180.217 32.3988C179.795 32.8583 178.975 32.4552 179.043 31.8212Z" fill="#FCC2C2"/>
<path fill-rule="evenodd" clip-rule="evenodd" d="M211.542 12.7918C211.542 12.7918 211.601 12.7507 211.717 12.6764C213.101 11.7918 222.525 6.17828 236.09 8.23933C236.491 8.30034 236.602 8.83616 236.244 8.98934C232.525 10.5789 220.729 15.0949 211.542 12.7918Z" fill="#FCC2C2"/>
<path fill-rule="evenodd" clip-rule="evenodd" d="M201.746 16.4997C205.555 16.0216 218.183 14.8956 227.952 19.3592C228.203 19.4732 228.209 19.8201 227.965 19.9122C225.78 20.7372 217.58 22.9037 201.722 17.0766C201.42 16.9659 201.436 16.5388 201.746 16.4997Z" fill="#FCC2C2"/>
<mask id="mask0" mask-type="alpha" maskUnits="userSpaceOnUse" x="192" y="0" width="17" height="22">
<path fill-rule="evenodd" clip-rule="evenodd" d="M192.932 0.663086H208.245V21.2639H192.932V0.663086Z" fill="white"/>
</mask>
<g mask="url(#mask0)">
<path fill-rule="evenodd" clip-rule="evenodd" d="M192.953 20.8379C194.337 17.3763 199.315 6.17711 207.759 0.708821C207.976 0.568898 208.277 0.771157 208.242 1.02978C207.924 3.34548 205.928 11.477 193.44 21.2026C193.202 21.3883 192.841 21.1191 192.953 20.8379Z" fill="#FCC2C2"/>
</g>
<path fill-rule="evenodd" clip-rule="evenodd" d="M202.707 15.4815C204.548 12.935 210.802 5.34334 221.409 2.9169C221.72 2.84594 221.955 3.23919 221.723 3.44741C219.126 5.78301 210.933 12.8137 203.102 15.9543C202.815 16.069 202.528 15.7282 202.707 15.4815Z" fill="#FCC2C2"/>
<path fill-rule="evenodd" clip-rule="evenodd" d="M192.796 21.4353C196.141 20.5413 206.084 18.5685 215.098 23.6137C215.439 23.8047 215.42 24.2861 215.064 24.3916C212.57 25.1329 204.745 26.7145 192.818 22.2443C192.418 22.0944 192.4 21.5414 192.796 21.4353Z" fill="#FCC2C2"/>
<path fill-rule="evenodd" clip-rule="evenodd" d="M182.008 30.7884C182.008 30.7884 182.068 30.7605 182.182 30.7101C183.997 29.9011 199.647 23.2192 209.467 28.5914C209.795 28.7711 209.778 29.2353 209.438 29.3361C206.176 30.3036 193.957 33.4781 182.008 30.7884Z" fill="#FCC2C2"/>
<path fill-rule="evenodd" clip-rule="evenodd" d="M172.646 40.5147C173.962 38.5087 175.406 36.6877 176.933 34.8992C178.457 33.118 180.069 31.4157 181.755 29.7883C185.122 26.5283 188.809 23.5959 192.739 21.0043C194.717 19.7251 196.754 18.5328 198.849 17.436C200.961 16.371 203.108 15.3643 205.332 14.5135C209.762 12.78 214.424 11.5618 219.188 10.8178C219.329 10.7959 219.471 10.8927 219.504 11.0333C219.537 11.1726 219.451 11.3039 219.313 11.3277L219.31 11.3284C214.603 12.1514 210.017 13.4412 205.675 15.235C203.495 16.1163 201.395 17.1501 199.331 18.2404C197.284 19.3617 195.298 20.5759 193.373 21.8737C189.549 24.5031 185.971 27.4627 182.719 30.736C181.09 32.37 179.536 34.0756 178.074 35.8535C176.619 37.6247 175.211 39.4822 174.013 41.3867L173.997 41.4126C173.776 41.7641 173.292 41.8509 172.918 41.6062C172.543 41.3609 172.417 40.8774 172.639 40.526C172.64 40.5233 172.644 40.5174 172.646 40.5147Z" fill="#FFB0B0"/>
<path fill-rule="evenodd" clip-rule="evenodd" d="M681.524 149.988C684.169 142.401 690.045 122.148 684.057 105.939C683.718 105.023 682.426 105.009 682.051 105.911C679.555 111.907 673.869 129.002 679.465 149.913C679.739 150.935 681.176 150.987 681.524 149.988Z" fill="#4D77F6"/>
<path fill-rule="evenodd" clip-rule="evenodd" d="M649.035 95.6907C649.035 95.6907 648.98 95.5819 648.868 95.3783C647.538 92.9558 638.182 77.0689 617.625 69.3227C617.016 69.0939 616.485 69.8035 616.883 70.3181C621.013 75.6551 634.477 91.7967 649.035 95.6907Z" fill="#4D77F6"/>
<path fill-rule="evenodd" clip-rule="evenodd" d="M660.246 109.033C655.211 105.281 638.204 93.5305 621.315 92.3945C620.883 92.3653 620.63 92.8773 620.91 93.2088C623.413 96.183 633.453 105.953 659.875 109.912C660.379 109.987 660.655 109.337 660.246 109.033Z" fill="#4D77F6"/>
<path fill-rule="evenodd" clip-rule="evenodd" d="M669.603 122.515C670.075 116.249 670.893 95.579 662.816 80.6901C662.609 80.3081 662.042 80.3684 661.911 80.7829C660.741 84.4905 657.866 98.2083 668.662 122.671C668.869 123.137 669.564 123.023 669.603 122.515Z" fill="#4D77F6"/>
<path fill-rule="evenodd" clip-rule="evenodd" d="M659.605 106.748C658.79 101.482 655.286 85.1736 642.036 73.0958C641.647 72.741 641.041 73.1409 641.222 73.6356C643.248 79.1888 649.877 96.2077 658.717 107.138C659.041 107.539 659.683 107.258 659.605 106.748Z" fill="#4D77F6"/>
<path fill-rule="evenodd" clip-rule="evenodd" d="M669.407 123.531C665.318 119.531 652.686 108.658 636.455 108.993C635.84 109.005 635.53 109.737 635.958 110.179C638.954 113.273 648.876 121.874 668.809 124.72C669.478 124.815 669.89 124.004 669.407 123.531Z" fill="#4D77F6"/>
<path fill-rule="evenodd" clip-rule="evenodd" d="M678.068 146.082C678.068 146.082 678.003 145.993 677.878 145.827C675.885 143.172 658.504 120.726 640.908 120.905C640.321 120.911 640.019 121.616 640.428 122.038C644.35 126.083 659.348 140.563 678.068 146.082Z" fill="#4D77F6"/>
<path fill-rule="evenodd" clip-rule="evenodd" d="M684.459 168.053C684.006 164.012 683.245 160.144 682.346 156.26C681.443 152.389 680.362 148.564 679.124 144.793C676.659 137.246 673.513 129.933 669.788 122.933C667.897 119.449 665.86 116.046 663.674 112.739C661.442 109.466 659.12 106.252 656.582 103.21C651.552 97.0924 645.833 91.5571 639.64 86.6485C639.456 86.5026 639.19 86.5338 639.044 86.7182C638.9 86.8999 638.929 87.1625 639.107 87.309L639.112 87.313C645.167 92.2939 650.729 97.8749 655.594 104.013C658.049 107.065 660.287 110.283 662.433 113.554C664.531 116.858 666.482 120.253 668.287 123.724C671.838 130.697 674.81 137.963 677.103 145.438C678.256 149.172 679.252 152.955 680.069 156.773C680.882 160.575 681.566 164.468 681.922 168.264L681.927 168.315C681.992 169.015 682.613 169.53 683.313 169.463C684.013 169.398 684.528 168.777 684.462 168.076C684.461 168.071 684.46 168.059 684.459 168.053Z" fill="#2B50DC"/>
<path fill-rule="evenodd" clip-rule="evenodd" d="M628.73 354.036C634.422 355.26 649.513 357.673 660.628 351.902C661.257 351.577 661.151 350.644 660.469 350.455C655.933 349.195 643.13 346.635 628.598 352.546C627.888 352.835 627.98 353.875 628.73 354.036Z" fill="#4D77F6"/>
<path fill-rule="evenodd" clip-rule="evenodd" d="M664.85 325.75C664.85 325.75 664.923 325.701 665.059 325.601C666.682 324.426 677.264 316.258 680.986 300.751C681.096 300.292 680.538 299.973 680.204 300.306C676.737 303.761 666.341 314.912 664.85 325.75Z" fill="#4D77F6"/>
<path fill-rule="evenodd" clip-rule="evenodd" d="M656.264 335.027C658.509 331.062 665.43 317.752 664.728 305.484C664.71 305.169 664.32 305.033 664.106 305.265C662.193 307.335 656.071 315.447 655.599 334.838C655.59 335.208 656.082 335.348 656.264 335.027Z" fill="#4D77F6"/>
<path fill-rule="evenodd" clip-rule="evenodd" d="M647.412 342.979C651.959 342.756 666.894 341.487 676.875 334.33C677.13 334.147 677.036 333.744 676.726 333.687C673.954 333.177 663.834 332.338 647.214 342.315C646.898 342.506 647.042 342.996 647.412 342.979Z" fill="#4D77F6"/>
<path fill-rule="evenodd" clip-rule="evenodd" d="M657.849 334.358C661.563 333.298 672.973 329.309 680.467 318.678C680.687 318.365 680.345 317.964 680.005 318.139C676.194 320.098 664.554 326.403 657.49 333.754C657.23 334.023 657.49 334.461 657.849 334.358Z" fill="#4D77F6"/>
<path fill-rule="evenodd" clip-rule="evenodd" d="M646.663 342.929C649.172 339.624 655.854 329.545 654.155 317.883C654.091 317.441 653.537 317.283 653.257 317.632C651.302 320.068 646.01 327.989 645.754 342.606C645.746 343.096 646.367 343.32 646.663 342.929Z" fill="#4D77F6"/>
<path fill-rule="evenodd" clip-rule="evenodd" d="M631.227 351.196C631.227 351.196 631.285 351.142 631.393 351.036C633.123 349.361 647.7 334.822 645.99 322.162C645.932 321.739 645.399 321.585 645.132 321.917C642.576 325.106 633.513 337.213 631.227 351.196Z" fill="#4D77F6"/>
<path fill-rule="evenodd" clip-rule="evenodd" d="M616.004 357.775C618.869 357.086 621.581 356.189 624.294 355.191C626.996 354.195 629.649 353.072 632.249 351.841C637.453 349.388 642.43 346.462 647.127 343.15C649.463 341.474 651.727 339.7 653.908 337.829C656.061 335.927 658.163 333.965 660.122 331.863C664.068 327.689 667.534 323.072 670.508 318.169C670.595 318.023 670.549 317.834 670.404 317.746C670.26 317.659 670.073 317.702 669.983 317.844L669.982 317.848C666.945 322.659 663.431 327.167 659.455 331.223C657.481 333.266 655.369 335.167 653.21 337.008C651.022 338.817 648.757 340.527 646.423 342.139C641.73 345.324 636.772 348.118 631.604 350.443C629.021 351.608 626.392 352.666 623.72 353.598C621.059 354.526 618.322 355.368 615.624 355.966L615.589 355.974C615.091 356.084 614.776 356.577 614.886 357.076C614.996 357.574 615.49 357.889 615.988 357.779C615.991 357.778 616 357.776 616.004 357.775Z" fill="#2B50DC"/>
<path fill-rule="evenodd" clip-rule="evenodd" d="M576.37 263.015L656.863 275.946V239.639L576.37 263.015Z" fill="#B8C9FF"/>
<path fill-rule="evenodd" clip-rule="evenodd" d="M576.37 263.015L646.144 222.471L656.863 239.639L576.37 263.015Z" fill="#F0F4FF"/>
<path fill-rule="evenodd" clip-rule="evenodd" d="M576.37 263.015L661.39 248.37L676.516 272.907L576.37 263.015Z" fill="#F0F4FF"/>
<path fill-rule="evenodd" clip-rule="evenodd" d="M386.798 38.0429L409.84 41.7446V31.3518L386.798 38.0429Z" fill="#B8C9FF"/>
<path fill-rule="evenodd" clip-rule="evenodd" d="M386.798 38.0429L406.771 26.4373L409.84 31.3518L386.798 38.0429Z" fill="#F0F4FF"/>
<path fill-rule="evenodd" clip-rule="evenodd" d="M386.798 38.0431L411.136 33.8513L415.466 40.8747L386.798 38.0431Z" fill="#F0F4FF"/>
<path fill-rule="evenodd" clip-rule="evenodd" d="M535.753 287.296L499.898 256.999L515.723 243.369L535.753 287.296Z" fill="#B8C9FF"/>
<path fill-rule="evenodd" clip-rule="evenodd" d="M535.753 287.296L527.229 241.604L515.723 243.369L535.753 287.296Z" fill="#F0F4FF"/>
<path fill-rule="evenodd" clip-rule="evenodd" d="M535.753 287.296L510.217 244.67L493.844 247.275L535.753 287.296Z" fill="#F0F4FF"/>
<path fill-rule="evenodd" clip-rule="evenodd" d="M225.449 129.387L189.594 99.0895L205.419 85.4592L225.449 129.387Z" fill="#B8C9FF"/>
<path fill-rule="evenodd" clip-rule="evenodd" d="M225.449 129.387L216.925 83.6946L205.419 85.4592L225.449 129.387Z" fill="#F0F4FF"/>
<path fill-rule="evenodd" clip-rule="evenodd" d="M225.449 129.387L199.914 86.7605L183.54 89.3653L225.449 129.387Z" fill="#F0F4FF"/>
<path fill-rule="evenodd" clip-rule="evenodd" d="M207.953 41.343L270.892 93.2075L289.217 61.874L207.953 41.343Z" fill="#B8C9FF"/>
<path fill-rule="evenodd" clip-rule="evenodd" d="M207.953 41.343L288.631 41.6381L289.217 61.874L207.953 41.343Z" fill="#F0F4FF"/>
<path fill-rule="evenodd" clip-rule="evenodd" d="M207.953 41.343L288.717 71.6991L289.388 100.523L207.953 41.343Z" fill="#F0F4FF"/>
<path fill-rule="evenodd" clip-rule="evenodd" d="M166.591 88.9397C159.284 93.2429 151.977 97.546 144.671 101.848C136.427 96.8577 140.019 84.8972 131.775 79.9064C139.082 75.6039 146.388 71.3008 153.695 66.9983C161.94 71.9884 158.347 83.9496 166.591 88.9397Z" fill="#4D77F6"/>
<path fill-rule="evenodd" clip-rule="evenodd" d="M153.358 74.9087C149.248 77.3286 145.138 79.749 141.029 82.1695C140.358 82.5647 139.553 82.3081 139.153 81.643C138.754 80.9765 138.901 80.1595 139.571 79.7649C143.681 77.3445 147.791 74.924 151.901 72.5035C152.569 72.1103 153.506 72.2887 153.904 72.9558C154.305 73.6209 154.025 74.5162 153.358 74.9087Z" fill="#F0F4FF"/>
<path fill-rule="evenodd" clip-rule="evenodd" d="M155.048 79.7054C150.937 82.1259 146.827 84.5464 142.717 86.9669C142.048 87.3608 141.333 87.0511 141.101 86.2871C140.868 85.5225 141.194 84.6001 141.863 84.2062C145.973 81.7857 150.083 79.3652 154.193 76.9448C154.862 76.5515 155.621 76.8353 155.852 77.5993C156.086 78.3632 155.715 79.3122 155.048 79.7054Z" fill="#F0F4FF"/>
<path fill-rule="evenodd" clip-rule="evenodd" d="M156.503 84.6402C152.393 87.0601 148.283 89.4805 144.173 91.901C143.504 92.2956 142.746 92.0111 142.513 91.2465C142.281 90.4825 142.65 89.5342 143.319 89.141C147.428 86.7205 151.538 84.3 155.648 81.8796C156.318 81.4857 157.033 81.7954 157.265 82.5593C157.498 83.3239 157.172 84.2463 156.503 84.6402Z" fill="#F0F4FF"/>
<path fill-rule="evenodd" clip-rule="evenodd" d="M158.795 89.0817C154.685 91.5021 150.575 93.922 146.465 96.3424C145.797 96.7357 144.86 96.5573 144.462 95.8908C144.061 95.2257 144.341 94.3305 145.008 93.9379C149.118 91.5174 153.228 89.0969 157.337 86.6764C158.008 86.2819 158.813 86.5385 159.213 87.2036C159.612 87.8701 159.464 88.6878 158.795 89.0817Z" fill="#F0F4FF"/>
<path fill-rule="evenodd" clip-rule="evenodd" d="M153.496 71.4195C153.151 71.1437 153.096 70.641 153.371 70.2962L157.968 64.548C158.243 64.2032 158.745 64.1475 159.09 64.4234C159.434 64.6992 159.49 65.2026 159.214 65.5474L154.618 71.2955C154.342 71.6397 153.84 71.6954 153.496 71.4195Z" fill="#1436C6"/>
<path fill-rule="evenodd" clip-rule="evenodd" d="M161.297 66.6169C160.764 67.284 159.25 66.9591 157.917 65.8908C156.583 64.8225 155.935 63.4153 156.468 62.7481C157.002 62.0804 158.515 62.4053 159.849 63.4743C161.183 64.5426 161.831 65.9498 161.297 66.6169Z" fill="#FF3355"/>
<path fill-rule="evenodd" clip-rule="evenodd" d="M485.317 56.4025C477.887 60.778 470.457 65.1534 463.027 69.5288C454.644 64.4544 458.298 52.2917 449.915 47.2173C457.344 42.8419 464.774 38.4665 472.204 34.0911C480.587 39.1654 476.934 51.3282 485.317 56.4025Z" fill="#FFB0B0"/>
<path fill-rule="evenodd" clip-rule="evenodd" d="M471.862 42.135L459.323 49.5184C458.642 49.9203 457.824 49.6597 457.416 48.9826C457.011 48.3049 457.161 47.4746 457.841 47.0728C462.021 44.6118 466.2 42.1502 470.38 39.6893C471.059 39.2894 472.012 39.4711 472.417 40.1489C472.824 40.8253 472.539 41.7358 471.862 42.135Z" fill="#F0F4FF"/>
<path fill-rule="evenodd" clip-rule="evenodd" d="M473.579 47.0127L461.041 54.3961C460.361 54.7973 459.634 54.4823 459.398 53.7051C459.161 52.9279 459.492 51.9896 460.173 51.589C464.352 49.1281 468.531 46.6672 472.71 44.2063C473.391 43.8057 474.162 44.0942 474.398 44.8714C474.635 45.6479 474.258 46.6128 473.579 47.0127Z" fill="#F0F4FF"/>
<path fill-rule="evenodd" clip-rule="evenodd" d="M475.059 52.0305C470.879 54.4914 466.7 56.9524 462.521 59.414C461.841 59.8145 461.07 59.5254 460.833 58.7482C460.598 57.971 460.973 57.0074 461.653 56.6069C465.831 54.146 470.011 51.685 474.19 49.2234C474.871 48.8222 475.598 49.1372 475.835 49.9144C476.071 50.6916 475.739 51.63 475.059 52.0305Z" fill="#F0F4FF"/>
<path fill-rule="evenodd" clip-rule="evenodd" d="M477.39 56.5471C473.21 59.008 469.031 61.4696 464.852 63.9305C464.173 64.3304 463.22 64.1494 462.815 63.471C462.408 62.7946 462.691 61.8841 463.37 61.4848L475.908 54.1014C476.589 53.7002 477.408 53.9615 477.816 54.6372C478.221 55.315 478.07 56.1465 477.39 56.5471Z" fill="#F0F4FF"/>
<path fill-rule="evenodd" clip-rule="evenodd" d="M463.505 41.9529C463.453 42.3912 463.056 42.7049 462.618 42.6532L455.314 41.7904C454.876 41.7387 454.563 41.3415 454.614 40.9031C454.665 40.4641 455.063 40.1511 455.501 40.2029L462.805 41.0656C463.243 41.1173 463.557 41.5146 463.505 41.9529Z" fill="#1436C6"/>
<path fill-rule="evenodd" clip-rule="evenodd" d="M455.305 37.8675C456.153 37.9676 456.679 39.4252 456.479 41.1229C456.278 42.8212 455.429 44.1163 454.581 44.0162C453.733 43.916 453.207 42.4584 453.407 40.7601C453.607 39.0625 454.457 37.7674 455.305 37.8675Z" fill="#FF3355"/>
<path fill-rule="evenodd" clip-rule="evenodd" d="M168.323 188.794C156.992 187.993 145.662 187.193 134.332 186.394C149.945 168.421 122.731 147.425 138.345 129.452C149.675 130.252 161.005 131.052 172.335 131.852C156.721 149.825 183.936 170.821 168.323 188.794Z" fill="#F0F4FF"/>
<path fill-rule="evenodd" clip-rule="evenodd" d="M164.466 153.001C155.749 152.385 147.034 151.77 138.318 151.155C136.9 145.112 136.485 139.14 139.664 133.421C148.38 134.037 157.096 134.652 165.812 135.268C162.633 140.986 163.047 146.957 164.466 153.001Z" fill="#D2DBFF"/>
<path fill-rule="evenodd" clip-rule="evenodd" d="M165.961 158.513C157.244 157.898 148.529 157.282 139.813 156.667C139.612 155.987 139.415 155.307 139.223 154.628C147.939 155.244 156.655 155.859 165.371 156.475C165.563 157.154 165.76 157.833 165.961 158.513Z" fill="#D2DBFF"/>
<path fill-rule="evenodd" clip-rule="evenodd" d="M167.196 162.692C158.479 162.077 149.763 161.461 141.048 160.846C140.851 160.166 140.65 159.486 140.448 158.807C149.164 159.421 157.88 160.037 166.596 160.652C166.798 161.333 166.999 162.012 167.196 162.692Z" fill="#D2DBFF"/>
<path fill-rule="evenodd" clip-rule="evenodd" d="M168.311 166.863C159.596 166.247 150.88 165.632 142.163 165.017C142.002 164.339 141.828 163.661 141.645 162.983C150.361 163.598 159.077 164.213 167.793 164.829C167.976 165.507 168.15 166.186 168.311 166.863Z" fill="#D2DBFF"/>
<path fill-rule="evenodd" clip-rule="evenodd" d="M169.12 171.011C160.405 170.396 151.689 169.781 142.973 169.165C142.876 168.493 142.76 167.819 142.628 167.143C151.344 167.759 160.059 168.374 168.776 168.99C168.908 169.665 169.024 170.339 169.12 171.011Z" fill="#D2DBFF"/>
<path fill-rule="evenodd" clip-rule="evenodd" d="M169.435 175.125C160.719 174.51 152.003 173.895 143.287 173.279C143.286 172.614 143.258 171.946 143.207 171.277C151.923 171.892 160.639 172.507 169.355 173.122C169.406 173.792 169.434 174.46 169.435 175.125Z" fill="#D2DBFF"/>
<path fill-rule="evenodd" clip-rule="evenodd" d="M169.066 179.191C160.351 178.576 151.635 177.96 142.918 177.345C143.044 176.688 143.135 176.029 143.195 175.367C151.911 175.983 160.627 176.598 169.343 177.214C169.283 177.875 169.192 178.534 169.066 179.191Z" fill="#D2DBFF"/>
<path fill-rule="evenodd" clip-rule="evenodd" d="M167.828 183.195C159.112 182.58 150.396 181.964 141.68 181.349C141.963 180.704 142.203 180.055 142.405 179.403C151.121 180.019 159.837 180.634 168.553 181.25C168.351 181.901 168.11 182.549 167.828 183.195Z" fill="#D2DBFF"/>
<path fill-rule="evenodd" clip-rule="evenodd" d="M140.924 151.338C141.994 148.701 143.272 146.078 145.007 143.487C146.003 145.126 147.152 146.775 148.405 148.433C149.637 145.065 151.377 141.734 154.134 138.474C155.302 143.156 158.272 147.964 161.842 152.816C154.87 152.323 147.897 151.831 140.924 151.338Z" fill="#E9EEFF"/>
<path fill-rule="evenodd" clip-rule="evenodd" d="M148.837 140.482C148.698 141.36 147.934 142.027 147.05 141.964C146.169 141.902 145.501 141.135 145.64 140.257C145.777 139.378 146.675 138.722 147.556 138.784C148.44 138.846 148.974 139.604 148.837 140.482Z" fill="#E9EEFF"/>
<path fill-rule="evenodd" clip-rule="evenodd" d="M356.61 401.512C345.261 400.172 327.513 396.432 321.028 395.027C316.562 383.209 312.296 369.807 309.182 355.576C301.345 319.779 267.618 290.714 251.055 278.3C245.444 274.089 238.627 271.801 231.611 271.801H228.703C222.31 271.801 216.228 269.003 212.068 264.142L192.789 241.628L279.251 222.768C306.419 240.275 324.512 280.866 338.649 310.482C348.475 331.079 353.178 373.262 356.61 401.512Z" fill="#0F207F"/>
<path fill-rule="evenodd" clip-rule="evenodd" d="M379.578 462.687L349.845 445.836C345.374 443.297 341.71 439.563 339.26 435.041C338.034 432.773 336.57 430.008 334.959 426.798L369.35 444.491C373.496 451.208 378.021 457.621 380.745 461.381C381.314 462.163 380.42 463.165 379.578 462.687Z" fill="#0F207F"/>
<path fill-rule="evenodd" clip-rule="evenodd" d="M369.349 444.491L334.96 426.797C330.899 418.7 325.85 407.792 321.028 395.027C327.513 396.432 345.261 400.173 356.61 401.512C358.12 413.893 359.379 423.602 360.73 427.64C362.32 432.415 365.686 438.568 369.349 444.491Z" fill="#E59177"/>
<mask id="mask1" mask-type="alpha" maskUnits="userSpaceOnUse" x="421" y="345" width="156" height="157">
<path fill-rule="evenodd" clip-rule="evenodd" d="M421.09 345.944H576.37V501.379H421.09V345.944Z" fill="white"/>
</mask>
<g mask="url(#mask1)">
<path fill-rule="evenodd" clip-rule="evenodd" d="M498.73 357.217C462.129 357.217 432.352 387.024 432.352 423.661C432.352 460.298 462.129 490.105 498.73 490.105C535.331 490.105 565.108 460.298 565.108 423.661C565.108 387.024 535.331 357.217 498.73 357.217ZM498.73 501.379C455.919 501.379 421.09 466.515 421.09 423.661C421.09 380.807 455.919 345.944 498.73 345.944C541.541 345.944 576.37 380.807 576.37 423.661C576.37 466.515 541.541 501.379 498.73 501.379Z" fill="#1423A3"/>
</g>
<path fill-rule="evenodd" clip-rule="evenodd" d="M508.737 423.661C508.737 428.883 504.508 433.116 499.291 433.116C494.075 433.116 489.846 428.883 489.846 423.661C489.846 418.44 494.075 414.207 499.291 414.207C504.508 414.207 508.737 418.44 508.737 423.661Z" fill="#1423A3"/>
<path fill-rule="evenodd" clip-rule="evenodd" d="M527.569 391.389L517.559 384.343C514.001 381.839 513.144 376.921 515.646 373.359C518.148 369.796 523.061 368.939 526.62 371.444L536.63 378.489C540.189 380.994 541.045 385.912 538.542 389.473C536.04 393.036 531.127 393.893 527.569 391.389Z" fill="#FCC2C2"/>
<path fill-rule="evenodd" clip-rule="evenodd" d="M457.427 465.689C457.168 465.689 456.909 465.589 456.715 465.388C456.332 464.994 456.34 464.365 456.734 463.982L487.22 434.287C487.612 433.904 488.243 433.911 488.625 434.306C489.008 434.7 488.999 435.329 488.605 435.713L458.12 465.407C457.927 465.595 457.676 465.689 457.427 465.689Z" fill="#4D77F6"/>
<path fill-rule="evenodd" clip-rule="evenodd" d="M559.035 424.656H511.778C511.229 424.656 510.784 424.21 510.784 423.661C510.784 423.112 511.229 422.667 511.778 422.667H559.035C559.584 422.667 560.029 423.112 560.029 423.661C560.029 424.21 559.584 424.656 559.035 424.656Z" fill="#4D77F6"/>
<path fill-rule="evenodd" clip-rule="evenodd" d="M440.559 434.702C440.09 434.702 439.672 434.368 439.583 433.889C439.483 433.349 439.839 432.83 440.379 432.729L483.772 424.659C484.313 424.556 484.83 424.915 484.931 425.455C485.031 425.995 484.675 426.514 484.135 426.615L440.742 434.686C440.681 434.697 440.619 434.702 440.559 434.702Z" fill="#4D77F6"/>
<path fill-rule="evenodd" clip-rule="evenodd" d="M174.079 423.661C174.079 428.883 169.85 433.116 164.634 433.116C159.417 433.116 155.189 428.883 155.189 423.661C155.189 418.44 159.417 414.207 164.634 414.207C169.85 414.207 174.079 418.44 174.079 423.661Z" fill="#1423A3"/>
<mask id="mask2" mask-type="alpha" maskUnits="userSpaceOnUse" x="86" y="345" width="157" height="157">
<path fill-rule="evenodd" clip-rule="evenodd" d="M86.9936 345.944H242.274V501.379H86.9936V345.944Z" fill="white"/>
</mask>
<g mask="url(#mask2)">
<path fill-rule="evenodd" clip-rule="evenodd" d="M164.634 357.217C128.033 357.217 98.2559 387.024 98.2559 423.661C98.2559 460.298 128.033 490.105 164.634 490.105C201.235 490.105 231.012 460.298 231.012 423.661C231.012 387.024 201.235 357.217 164.634 357.217ZM164.634 501.379C121.823 501.379 86.9936 466.515 86.9936 423.661C86.9936 380.807 121.823 345.944 164.634 345.944C207.445 345.944 242.274 380.807 242.274 423.661C242.274 466.515 207.445 501.379 164.634 501.379Z" fill="#1423A3"/>
</g>
<path fill-rule="evenodd" clip-rule="evenodd" d="M106.077 429.786V417.537C106.077 413.183 109.604 409.653 113.954 409.653C118.304 409.653 121.83 413.183 121.83 417.537V429.786C121.83 434.14 118.304 437.67 113.954 437.67C109.604 437.67 106.077 434.14 106.077 429.786Z" fill="#FCC2C2"/>
<path fill-rule="evenodd" clip-rule="evenodd" d="M159.335 412.719C158.977 412.719 158.632 412.526 158.455 412.187L136.372 370.189C136.116 369.703 136.303 369.102 136.789 368.846C137.275 368.591 137.876 368.776 138.131 369.263L160.213 411.262C160.469 411.747 160.282 412.349 159.797 412.605C159.649 412.682 159.491 412.719 159.335 412.719Z" fill="#4D77F6"/>
<path fill-rule="evenodd" clip-rule="evenodd" d="M143.103 482.018C142.991 482.018 142.878 481.999 142.766 481.959C142.25 481.773 141.982 481.203 142.168 480.686L158.399 435.592C158.585 435.075 159.154 434.807 159.671 434.994C160.187 435.179 160.455 435.75 160.269 436.267L144.038 481.361C143.892 481.766 143.51 482.018 143.103 482.018Z" fill="#4D77F6"/>
<path fill-rule="evenodd" clip-rule="evenodd" d="M204.983 471.267C204.698 471.267 204.415 471.145 204.219 470.909L173.315 433.752C172.964 433.33 173.022 432.703 173.443 432.351C173.866 432 174.492 432.057 174.843 432.479L205.746 469.636C206.098 470.058 206.04 470.686 205.619 471.036C205.432 471.192 205.207 471.267 204.983 471.267Z" fill="#4D77F6"/>
<path fill-rule="evenodd" clip-rule="evenodd" d="M330.839 423.661C330.839 427.249 330.044 430.657 328.619 433.707C327.871 435.326 326.937 436.845 325.857 438.237C321.511 443.847 314.714 447.455 307.069 447.455C293.938 447.455 283.299 436.805 283.299 423.661C283.299 420.538 283.902 417.554 284.995 414.822C285.657 413.164 286.505 411.592 287.505 410.146C291.792 403.933 298.953 399.868 307.069 399.868C320.199 399.868 330.839 410.518 330.839 423.661Z" fill="#1423A3"/>
<path fill-rule="evenodd" clip-rule="evenodd" d="M370.535 460.791C370.052 461.646 369.157 462.124 368.236 462.124C367.792 462.124 367.336 462.011 366.925 461.772L325.857 438.237C326.937 436.845 327.871 435.326 328.62 433.707L369.555 457.17C370.826 457.899 371.264 459.518 370.535 460.791Z" fill="#4D77F6"/>
<path fill-rule="evenodd" clip-rule="evenodd" d="M307.069 429.298L164.634 426.645C162.975 426.614 161.654 425.243 161.685 423.582C161.7 422.803 162.014 422.094 162.509 421.568L257.494 321.137C258.548 320.022 259.964 319.457 261.385 319.452H261.509H453.729C456.839 319.452 459.36 321.976 459.36 325.089C459.36 327.026 458.355 328.755 456.869 329.769L310.208 428.341C307.626 430.077 304.127 429.388 302.394 426.803C300.661 424.219 301.348 420.717 303.93 418.981L450.59 320.41L453.729 330.726H261.509L265.523 329.043L166.759 425.753L164.634 420.677L307.069 418.025C310.179 417.967 312.747 420.443 312.805 423.556C312.863 426.669 310.389 429.24 307.278 429.298C307.217 429.299 307.13 429.299 307.069 429.298Z" fill="#B8C9FF"/>
<path fill-rule="evenodd" clip-rule="evenodd" d="M249.243 285.129L310.676 421.991C311.576 423.995 310.682 426.35 308.68 427.251C306.705 428.139 304.389 427.277 303.461 425.332L239.022 289.863C237.685 287.051 238.877 283.688 241.685 282.35C244.494 281.012 247.854 282.205 249.191 285.016C249.205 285.045 249.23 285.1 249.243 285.129Z" fill="#B8C9FF"/>
<path fill-rule="evenodd" clip-rule="evenodd" d="M494.181 426.028L455.553 341.558L453.14 336.276C452.39 334.426 451.582 332.602 450.885 330.733L449.818 327.94C449.465 327.009 449.15 326.062 448.815 325.124C448.134 323.253 447.543 321.35 446.932 319.456C444.544 311.862 442.739 304.103 441.406 296.287C440.098 288.463 439.357 280.563 439.108 272.666C439.081 270.69 439.025 268.716 439.05 266.743C439.077 264.768 439.098 262.787 439.163 260.866L439.488 249.255V249.243C439.535 247.596 440.906 246.297 442.553 246.343C444.145 246.387 445.409 247.68 445.45 249.255L445.732 260.866C445.768 262.819 445.849 264.703 445.921 266.596C445.996 268.489 446.149 270.378 446.273 272.266C446.908 279.812 448.009 287.307 449.641 294.677C451.296 302.038 453.388 309.293 456.018 316.34C456.687 318.097 457.336 319.86 458.072 321.59C458.433 322.457 458.775 323.332 459.153 324.191L460.295 326.765C461.04 328.487 461.892 330.162 462.683 331.86L465.137 337.12L504.403 421.294C505.72 424.115 504.503 427.469 501.686 428.788C498.869 430.107 495.517 428.889 494.2 426.069L494.181 426.028Z" fill="#B8C9FF"/>
<path fill-rule="evenodd" clip-rule="evenodd" d="M277.091 290.701H209.186C203.972 290.701 199.746 286.47 199.746 281.251C199.746 276.032 203.972 271.801 209.186 271.801H277.091C282.305 271.801 286.532 276.032 286.532 281.251C286.532 286.47 282.305 290.701 277.091 290.701Z" fill="#4D77F6"/>
<path fill-rule="evenodd" clip-rule="evenodd" d="M480.048 211.842C478.84 210.634 476.883 210.634 475.675 211.842L440.463 247.089C439.256 248.298 439.256 250.257 440.463 251.465C441.67 252.674 443.628 252.674 444.836 251.465L480.048 216.219C481.255 215.01 481.255 213.051 480.048 211.842Z" fill="#4D77F6"/>
<path fill-rule="evenodd" clip-rule="evenodd" d="M307.061 423.775C306.696 424.924 305.627 425.64 304.422 425.637C304.415 425.637 304.407 425.637 304.4 425.637C304.072 425.633 303.752 425.523 303.467 425.359L302.391 424.741L283.609 413.979L246.729 392.844C245.463 392.122 245.019 390.497 245.748 389.23C246.476 387.957 248.093 387.513 249.365 388.242L286.12 409.304L305.041 420.146L306.091 420.749C306.372 420.91 306.624 421.125 306.795 421.401C307.202 422.06 307.339 422.903 307.061 423.775Z" fill="#4D77F6"/>
<path fill-rule="evenodd" clip-rule="evenodd" d="M285.717 407.116C286.194 407.931 285.28 408.847 284.465 408.376L254.54 390.875C247.24 386.599 243.96 377.719 246.822 369.748C247.392 368.163 248.008 366.584 248.67 365.013L276.296 391.048L276.303 391.054C276.568 391.598 276.866 392.142 277.177 392.672L285.717 407.116Z" fill="#1423A3"/>
<path fill-rule="evenodd" clip-rule="evenodd" d="M330.686 320.211C313.389 330.801 299.231 343.414 288.83 354.171C277.363 348.354 269.227 342.506 264.212 338.401V338.394C280.105 316.809 300.715 299.103 311.541 290.489C314.177 288.393 312.965 284.156 309.619 283.778L221.371 273.671C211.18 272.504 202.26 266.286 197.632 257.123L190.14 242.291L230.883 222.769C278.582 222.152 358.247 243.784 368.35 259.533C379.386 276.742 369.674 296.338 330.686 320.211Z" fill="#1423A3"/>
<path fill-rule="evenodd" clip-rule="evenodd" d="M279.668 364.204C273.216 371.697 271.97 382.288 276.296 391.048L248.671 365.013C252.566 355.762 258.032 346.789 264.213 338.401C269.228 342.505 277.363 348.354 288.831 354.17C285.346 357.771 282.285 361.166 279.668 364.204Z" fill="#F0A387"/>
<path fill-rule="evenodd" clip-rule="evenodd" d="M446.54 216.474L449.271 226.192C452.495 225.75 455.546 225.399 458.088 225.223C458.088 225.223 459.757 227.831 463.948 228.927L465.203 231.242L463.118 233.227C462.544 233.776 462.272 234.578 462.392 235.366C462.394 235.389 462.399 235.41 462.404 235.427C462.497 235.757 462.889 235.918 463.184 235.725L468.223 232.522C469.276 231.852 469.918 230.692 469.925 229.443L469.955 224.006C469.962 222.738 469.19 221.596 468.008 221.14C464.732 219.876 457.714 217.491 449.802 216.76C448.864 216.673 447.768 216.576 446.54 216.474Z" fill="#E59177"/>
<path fill-rule="evenodd" clip-rule="evenodd" d="M453.445 226.144C435.314 228.478 415.153 226.257 394.902 219.4L394.895 219.393C388.462 217.218 382.022 214.572 375.637 211.455C349.137 198.524 326.751 169.133 320.318 147.13C314.813 128.31 326.486 112.09 343.446 111.314C346.314 111.188 349.336 111.5 352.45 112.315C373.981 117.952 387.893 176.64 402.136 191.561C416.38 206.482 449.802 216.76 449.802 216.76L453.445 226.144Z" fill="#1436C6"/>
<path fill-rule="evenodd" clip-rule="evenodd" d="M463.065 233.253L461.324 231.971C461.15 231.843 461.089 231.612 461.177 231.415C461.474 230.749 462.224 230.414 462.917 230.637L465.08 231.333L463.065 233.253Z" fill="#E59177"/>
<path fill-rule="evenodd" clip-rule="evenodd" d="M394.895 219.393C388.462 217.218 382.023 214.572 375.637 211.455C349.137 198.524 326.751 169.133 320.318 147.13C314.813 128.31 326.486 112.09 343.446 111.314V111.32C338.649 130.107 362.81 203.902 394.895 219.393Z" fill="#1423A3"/>
<path fill-rule="evenodd" clip-rule="evenodd" d="M378.213 116.619L368.501 124.517C363.917 128.237 359.637 132.322 355.702 136.725L316.397 180.725C308.162 189.943 302.902 201.435 301.305 213.703C300.696 218.398 298.417 222.529 295.111 225.514C291.805 228.498 287.472 230.328 282.742 230.414C278.158 230.5 272.434 230.049 265.332 228.697C237.508 223.391 207.033 264.506 186.496 257.212C165.959 249.917 199.746 180.287 238.833 149.783C275.336 121.294 313.839 102.494 359.107 96.6846C359.107 96.6846 362.791 107.335 378.213 116.619Z" fill="#1436C6"/>
<path fill-rule="evenodd" clip-rule="evenodd" d="M399.871 99.3241L392.9 104.682L392.874 104.702L378.214 116.619C362.79 107.335 359.108 96.6848 359.108 96.6848C362.579 96.2405 363.745 91.7908 360.956 89.6753L351.9 82.8052L388.337 61.3657L401.692 75.305C408.35 82.2548 407.502 93.4553 399.871 99.3241Z" fill="#F0A387"/>
<path fill-rule="evenodd" clip-rule="evenodd" d="M393.49 63.7198C389.88 60.9214 379.604 62.4665 374.199 65.4506C368.793 68.4348 366.362 73.3023 363.599 79.821C360.843 86.3397 359.85 85.345 356.312 83.9126C352.781 82.4735 347.037 88.7734 341.518 85.6765C338.961 84.2441 336.457 85.1858 334.377 86.6248C338.259 82.3741 338.418 79.0716 337.377 76.8368C336.218 74.35 327.771 74.35 331.912 70.2054C336.052 66.0607 360.4 65.3976 360.896 63.4082C361.393 61.4187 356.921 62.9108 356.921 59.2635C356.914 55.6162 377.459 55.4504 386.196 57.7714C390.8 58.9982 392.715 61.5646 393.49 63.7198Z" fill="#FCC2C2"/>
<path fill-rule="evenodd" clip-rule="evenodd" d="M393.981 67.2544C381.679 66.956 378.452 77.9973 379.041 84.9603C379.631 91.9233 377.956 95.5706 370.668 96.6847C363.381 97.7988 362.486 92.3478 351.899 94.9075C341.313 97.4672 327.606 93.0838 332.906 88.1103C333.449 87.5996 333.939 87.1089 334.376 86.6248C336.457 85.1858 338.961 84.2441 341.518 85.6765C347.037 88.7734 352.781 82.4735 356.312 83.9126C359.849 85.345 360.843 86.3397 363.599 79.821C366.362 73.3023 368.793 68.4348 374.199 65.4506C379.605 62.4665 389.88 60.9214 393.49 63.7198L393.498 63.7265C394.193 65.6562 393.981 67.2544 393.981 67.2544Z" fill="#FFB0B0"/>
<path fill-rule="evenodd" clip-rule="evenodd" d="M383.887 83.1783C383.887 85.8567 381.719 88.0272 379.043 88.0272C376.367 88.0272 374.198 85.8567 374.198 83.1783C374.198 80.4998 376.367 78.3293 379.043 78.3293C381.719 78.3293 383.887 80.4998 383.887 83.1783Z" fill="#F0A387"/>
<path fill-rule="evenodd" clip-rule="evenodd" d="M403.975 80.7238C405.541 79.6834 405.644 77.4187 404.177 76.2417L397.674 71.0207C397.35 70.7601 396.901 71.1308 397.095 71.4988L401.644 80.129C402.092 80.9785 403.176 81.255 403.975 80.7238Z" fill="#FF3355"/>
<path fill-rule="evenodd" clip-rule="evenodd" d="M458.853 224.395L469.274 225.585L475.942 229.69C476.151 229.819 476.2 230.101 476.045 230.293C475.484 230.989 474.518 231.209 473.71 230.827L468.596 228.845L465.809 228.54L458.853 224.395Z" fill="#F0A387"/>
<path fill-rule="evenodd" clip-rule="evenodd" d="M457.443 227.534L467.864 228.724L474.532 232.829C474.741 232.958 474.789 233.24 474.635 233.431C474.074 234.128 473.108 234.348 472.3 233.966L467.187 231.984L464.4 231.679L457.443 227.534Z" fill="#F0A387"/>
<path fill-rule="evenodd" clip-rule="evenodd" d="M453.729 229.574L464.15 230.764L470.818 234.869C471.027 234.998 471.076 235.28 470.922 235.471C470.36 236.168 469.394 236.388 468.586 236.006L463.473 234.024L460.686 233.719L453.729 229.574Z" fill="#F0A387"/>
<path fill-rule="evenodd" clip-rule="evenodd" d="M457.728 222.804L465.708 222.771L471.913 223.09L475.963 223.422C476.131 223.439 476.259 223.58 476.259 223.748C476.26 224.537 475.654 225.103 474.828 225.16L470.091 225.616L462.221 225.593L457.728 222.804Z" fill="#F0A387"/>
<path fill-rule="evenodd" clip-rule="evenodd" d="M439.32 217.886L426.72 227.911C426.72 227.911 428.302 229.197 430.597 230.676C434.065 232.909 439.157 235.576 442.87 234.886C448.82 233.769 456.449 233.173 460.655 233.704C460.811 233.725 460.967 233.746 461.117 233.767L463.244 231.978L463.919 231.393L464.444 230.946L467.066 228.675L467.114 228.635L467.977 227.893C467.977 227.893 466.917 226.782 465.348 225.601C465.104 225.411 464.854 225.228 464.585 225.048C463.079 223.999 461.241 223.019 459.445 222.795C455.267 222.274 452.541 224.244 447.999 223.36C445.631 222.901 443.597 221.256 442.2 219.786L442.192 219.78L439.32 217.886Z" fill="#F0A387"/>
<path fill-rule="evenodd" clip-rule="evenodd" d="M443.207 220.41C443.207 220.41 417.524 199.519 406.187 176.64C394.849 153.762 376.962 102.037 348.475 108.668C319.987 115.3 331.912 144.798 341.849 159.724C351.787 174.651 390.079 217.617 429.766 230.129L443.207 220.41Z" fill="#233EE1"/>
</svg>
