<svg width="207" height="414" viewBox="0 0 207 414" fill="none" xmlns="http://www.w3.org/2000/svg">
<mask id="mask0" mask-type="alpha" maskUnits="userSpaceOnUse" x="0" y="0" width="88" height="114">
<path fill-rule="evenodd" clip-rule="evenodd" d="M0 0.316895H87.9397V113.94H0V0.316895Z" fill="white"/>
</mask>
<g mask="url(#mask0)">
<path fill-rule="evenodd" clip-rule="evenodd" d="M86.5961 113.84C87.3415 114.212 88.1711 113.477 87.8801 112.696C84.1797 102.791 67.395 61.4018 38.8192 42.4904C6.23089 20.9242 -0.000488281 0.31665 -0.000488281 0.31665C-0.000488281 0.31665 2.82944 71.9893 86.5961 113.84Z" fill="#4D77F6"/>
</g>
<path fill-rule="evenodd" clip-rule="evenodd" d="M111.663 144.306C111.386 144.601 110.884 144.404 110.886 144C110.909 138.864 111.614 117.188 121.464 103.775C132.698 88.4787 132.079 78.0439 132.079 78.0439C132.079 78.0439 142.814 111.18 111.663 144.306Z" fill="#4D77F6"/>
<path fill-rule="evenodd" clip-rule="evenodd" d="M122.541 413.984H120.263L120.144 409.942L119.46 385.066L119.381 381.826L118.841 362.35L113.389 163.675C113.02 150.35 107.911 137.536 98.9956 127.62L86.6566 113.873L71.1045 96.53L72.8032 95.0024L87.2755 111.106L87.2887 111.134L100.707 126.079C105 130.874 108.437 136.285 110.913 142.105C111.229 142.791 111.519 143.475 111.769 144.186C114.153 150.35 115.483 156.92 115.667 163.623L121.119 362.35L121.659 381.826L121.738 385.066L122.541 413.984Z" fill="#4D77F6"/>
<path fill-rule="evenodd" clip-rule="evenodd" d="M153.387 188.672C152.92 188.927 152.373 188.478 152.542 187.973C154.681 181.571 164.457 154.796 182.258 142.095C202.56 127.61 206.071 114.325 206.071 114.325C206.071 114.325 205.875 160.102 153.387 188.672Z" fill="#233EE1"/>
<path fill-rule="evenodd" clip-rule="evenodd" d="M138.083 208.666C138.267 208.849 138.582 208.712 138.573 208.454C138.441 205.18 137.506 191.369 130.923 183.036C123.414 173.532 123.575 166.862 123.575 166.862C123.575 166.862 117.471 188.237 138.083 208.666Z" fill="#233EE1"/>
<path fill-rule="evenodd" clip-rule="evenodd" d="M138.688 385.28L137.42 221.063C137.355 212.551 140.325 204.268 145.785 197.737L162.883 177.286L161.761 176.349L144.663 196.8C138.981 203.595 135.89 212.216 135.959 221.075L137.227 385.292L138.688 385.28Z" fill="#233EE1"/>
<path fill-rule="evenodd" clip-rule="evenodd" d="M80.0954 227.175C80.5905 227.367 81.0751 226.851 80.8433 226.373C77.9001 220.299 64.7645 195.002 45.4791 184.693C23.4849 172.936 18.2952 160.213 18.2952 160.213C18.2952 160.213 24.3725 205.584 80.0954 227.175Z" fill="#233EE1"/>
<path fill-rule="evenodd" clip-rule="evenodd" d="M97.8415 245.036C97.6835 245.24 97.353 245.146 97.3293 244.889C97.0383 241.624 96.1928 227.809 101.65 218.699C107.875 208.309 106.858 201.716 106.858 201.716C106.858 201.716 115.657 222.128 97.8415 245.036Z" fill="#233EE1"/>
<path fill-rule="evenodd" clip-rule="evenodd" d="M120.645 413.984H119.17L115.654 385.066L115.259 381.826L112.888 362.35L100.089 257.239C99.0615 248.798 95.0582 240.962 88.8031 235.182L80.1382 227.187L69.2214 217.1L70.2091 216.035L80.3621 225.396L80.3752 225.424L89.7908 234.114C92.7932 236.894 95.3084 240.132 97.2442 243.674C97.4681 244.096 97.6919 244.519 97.9026 244.953C99.7857 248.718 101.024 252.827 101.537 257.067L114.35 362.35L116.721 381.826L117.116 385.066L120.144 409.942L120.645 413.984Z" fill="#233EE1"/>
<path fill-rule="evenodd" clip-rule="evenodd" d="M157.306 362.35L154.08 381.826H154.066L148.733 413.984H102.472L97.2703 382.67L97.1386 381.826H97.1255L93.8992 362.35H157.306Z" fill="#D2DBFF"/>
<path fill-rule="evenodd" clip-rule="evenodd" d="M159.978 362.355L156.747 381.822H94.4534L91.2231 362.355H159.978Z" fill="#D2DBFF"/>
<path fill-rule="evenodd" clip-rule="evenodd" d="M97.1277 381.823H154.073L148.735 413.983H136.311L138.501 394.264C139.047 389.356 135.205 385.062 130.264 385.062H97.6966L97.1277 381.823Z" fill="#B8C9FF"/>
</svg>
