<svg width="20" height="20" viewBox="0 0 20 20" fill="none" xmlns="http://www.w3.org/2000/svg">
<path fill-rule="evenodd" clip-rule="evenodd" d="M11 13.5H11.5002C12.0524 13.5 12.5 13.9439 12.5 14.5C12.5 15.0523 12.0563 15.5 11.5002 15.5H8.49981C7.94763 15.5 7.5 15.0561 7.5 14.5C7.5 13.9477 7.94372 13.5 8.49981 13.5H9V10.5H8.50296C7.94904 10.5 7.5 10.0561 7.5 9.5C7.5 8.94771 7.94328 8.5 8.50296 8.5H9.99704C10.2757 8.5 10.5253 8.61174 10.7062 8.79261C10.8881 8.97282 11 9.22243 11 9.5V13.5ZM10 20C4.47715 20 0 15.5228 0 10C0 4.47715 4.47715 0 10 0C15.5228 0 20 4.47715 20 10C20 15.5228 15.5228 20 10 20ZM10 18C14.4183 18 18 14.4183 18 10C18 5.58172 14.4183 2 10 2C5.58172 2 2 5.58172 2 10C2 14.4183 5.58172 18 10 18ZM10 7.5C9.17157 7.5 8.5 6.82843 8.5 6C8.5 5.17157 9.17157 4.5 10 4.5C10.8284 4.5 11.5 5.17157 11.5 6C11.5 6.82843 10.8284 7.5 10 7.5Z" fill="black"/>
</svg>
