<svg width="64" height="58" viewBox="0 0 64 58" fill="none" xmlns="http://www.w3.org/2000/svg">
<path fill-rule="evenodd" clip-rule="evenodd" d="M17 57H63V27H17V57Z" stroke="#222829" stroke-width="2" stroke-linejoin="round"/>
<path d="M63 27L40 48L17 27" stroke="#222829" stroke-width="2" stroke-linejoin="round"/>
<path d="M17 57L30 44" stroke="#222829" stroke-width="2" stroke-linejoin="round"/>
<path d="M63 57L50 44" stroke="#222829" stroke-width="2" stroke-linejoin="round"/>
<path d="M2 39H4" stroke="#222829" stroke-width="2" stroke-linejoin="round"/>
<path d="M6 39H8" stroke="#222829" stroke-width="2" stroke-linejoin="round"/>
<path d="M10 39H12" stroke="#222829" stroke-width="2" stroke-linejoin="round"/>
<path d="M4 46H6" stroke="#222829" stroke-width="2" stroke-linejoin="round"/>
<path d="M8 46H10" stroke="#222829" stroke-width="2" stroke-linejoin="round"/>
<path d="M12 46H14" stroke="#222829" stroke-width="2" stroke-linejoin="round"/>
<path d="M2 53H4" stroke="#222829" stroke-width="2" stroke-linejoin="round"/>
<path d="M6 53H8" stroke="#222829" stroke-width="2" stroke-linejoin="round"/>
<path d="M10 53H12" stroke="#222829" stroke-width="2" stroke-linejoin="round"/>
<path d="M47 24V1H1V33H14" stroke="#844BEF" stroke-width="2" stroke-linejoin="round"/>
<path d="M62 5H60" stroke="#222829" stroke-width="2" stroke-linejoin="round"/>
<path d="M58 5H56" stroke="#222829" stroke-width="2" stroke-linejoin="round"/>
<path d="M54 5H52" stroke="#222829" stroke-width="2" stroke-linejoin="round"/>
<path d="M60 12H58" stroke="#222829" stroke-width="2" stroke-linejoin="round"/>
<path d="M56 12H54" stroke="#222829" stroke-width="2" stroke-linejoin="round"/>
<path d="M52 12H50" stroke="#222829" stroke-width="2" stroke-linejoin="round"/>
<path d="M62 19H60" stroke="#222829" stroke-width="2" stroke-linejoin="round"/>
<path d="M58 19H56" stroke="#222829" stroke-width="2" stroke-linejoin="round"/>
<path d="M54 19H52" stroke="#222829" stroke-width="2" stroke-linejoin="round"/>
<path fill-rule="evenodd" clip-rule="evenodd" d="M5 15H15V5H5V15Z" stroke="#844BEF" stroke-width="2" stroke-linejoin="round"/>
<path d="M44 5H18" stroke="#222829" stroke-width="2" stroke-linejoin="round"/>
<path d="M44 9H18" stroke="#222829" stroke-width="2" stroke-linejoin="round"/>
<path d="M4 23H44" stroke="#222829" stroke-width="2" stroke-linejoin="round"/>
<path d="M4 19H44" stroke="#222829" stroke-width="2" stroke-linejoin="round"/>
<path d="M4 27H14" stroke="#222829" stroke-width="2" stroke-linejoin="round"/>
</svg>
