<svg width="16" height="16" viewBox="0 0 16 16" fill="none" xmlns="http://www.w3.org/2000/svg">
<path fill-rule="evenodd" clip-rule="evenodd" d="M13.3396 14.5154C13.5248 15.6432 12.5896 16.3517 11.6205 15.8197C11.6205 15.8197 7.98108 13.8425 8.01644 13.8231L4.37954 15.8197C3.40969 16.3522 2.47537 15.6423 2.66046 14.5154C2.66046 14.5154 3.33658 10.2899 3.36519 10.3191L0.422877 7.32409C-0.361754 6.52542 -0.00400114 5.37816 1.07951 5.21375C1.07951 5.21375 5.13681 4.57949 5.11912 4.6169L6.93757 0.769251C7.4225 -0.256806 8.57792 -0.256028 9.06248 0.769251C9.06248 0.769251 10.8939 4.60275 10.8544 4.59675L14.9205 5.21375C16.0049 5.37828 16.3612 6.52602 15.5772 7.32409C15.5772 7.32409 12.6518 10.3276 12.645 10.2865L13.3396 14.5154ZM4.3613 13.9589L7.27828 12.3569C7.70552 12.1223 8.29556 12.1229 8.72177 12.3569L11.6459 13.9622L11.0816 10.5665C11 10.0697 11.1828 9.48387 11.5276 9.13289L13.8839 6.73449L10.6263 6.23601C10.1486 6.16353 9.67157 5.8009 9.45846 5.35L8.00101 2.26617L6.54159 5.35C6.32797 5.80199 5.8503 6.1637 5.37379 6.23601L2.11245 6.73088L4.47242 9.13289C4.81807 9.48472 4.99988 10.0709 4.91848 10.5665L4.3613 13.9589Z" fill="#FB4686"/>
</svg>
