<svg width="54" height="39" viewBox="0 0 54 39" fill="none" xmlns="http://www.w3.org/2000/svg">
<path d="M52.6912 3.70847C52.6877 3.70847 52.6842 3.70847 52.6808 3.70847H49.1683V2.50439C49.1872 2.02782 48.8795 1.59952 48.4223 1.4664C45.9837 0.826214 43.4726 0.505213 40.9517 0.511441C36.8071 0.511441 31.1601 1.44564 26.9845 5.70142C22.8399 1.40412 17.1515 0.511441 13.0173 0.511441C10.4964 0.505213 7.98529 0.826214 5.54673 1.4664C5.08953 1.59952 4.7818 2.02782 4.8007 2.50439V3.69809H1.30891C0.736699 3.69809 0.272766 4.16285 0.272766 4.73609V37.8897C0.272766 38.4629 0.736699 38.9277 1.30891 38.9277C1.48687 38.9272 1.66171 38.8807 1.81662 38.7927C1.92023 38.7408 12.2816 33.063 26.7462 36.7168H26.9016H26.9949C27.0775 36.7267 27.1609 36.7267 27.2435 36.7168C41.7495 33.0319 52.1109 38.6993 52.1731 38.7927C52.4937 38.9782 52.8887 38.9782 53.2092 38.7927C53.5279 38.6085 53.7251 38.2687 53.7273 37.9001V4.74647C53.7273 4.17323 53.2635 3.70847 52.6912 3.70847ZM2.34505 36.2393V5.78446H4.82143V31.8174C4.81495 32.3906 5.27357 32.8606 5.84578 32.8671C5.90173 32.8677 5.95769 32.8638 6.01299 32.8554C8.15651 32.5275 10.3206 32.3541 12.4889 32.3364C15.4924 32.2843 18.4833 32.7368 21.3375 33.6754C14.8921 32.8946 8.35428 33.7771 2.34505 36.2393ZM12.4889 30.2708C10.6043 30.2751 8.72185 30.3964 6.85227 30.6341V3.32441C8.86963 2.87418 10.9297 2.64439 12.9966 2.63933C16.8718 2.63933 22.2182 3.53201 25.9276 7.72552L25.9587 33.582C23.8035 32.1703 19.5968 30.2708 12.4889 30.2708ZM28.031 7.72552C31.7404 3.57353 37.0869 2.63933 40.962 2.63933C43.0288 2.64543 45.0889 2.87509 47.1064 3.32441V30.6341C45.2473 30.3942 43.3752 30.2694 41.5008 30.2604C34.4344 30.2604 30.2173 32.1599 28.031 33.5716V7.72552ZM51.6447 36.2393C45.6226 33.7704 39.0698 32.8877 32.6107 33.6754C35.4784 32.7334 38.4836 32.2807 41.5008 32.3364C43.6827 32.3486 45.8608 32.5186 48.0182 32.845C48.5839 32.931 49.1122 32.5413 49.1981 31.9745C49.2065 31.9191 49.2104 31.8631 49.2097 31.807V5.78446H51.6861L51.6447 36.2393Z" fill="white"/>
</svg>
