<svg width="22" height="16" viewBox="0 0 22 16" fill="none" xmlns="http://www.w3.org/2000/svg">
<path d="M21.4861 1.35048H21.4819H20.0482V0.859019C20.0559 0.6645 19.9303 0.489683 19.7437 0.435347C18.7484 0.174047 17.7234 0.0430265 16.6945 0.0455685C15.0028 0.0455685 12.6979 0.426874 10.9936 2.16393C9.30191 0.409927 6.98011 0.0455685 5.29267 0.0455685C4.26372 0.0430265 3.23879 0.174047 2.24346 0.435347C2.05685 0.489683 1.93124 0.6645 1.93896 0.859019V1.34624H0.513735C0.28018 1.34624 0.0908203 1.53594 0.0908203 1.76991V15.302C0.0908203 15.536 0.28018 15.7257 0.513735 15.7257C0.586371 15.7255 0.657738 15.7065 0.720964 15.6706C0.763255 15.6494 4.9924 13.3319 10.8963 14.8232H10.9597H10.9978C11.0315 14.8273 11.0656 14.8273 11.0993 14.8232C17.0201 13.3192 21.2493 15.6325 21.2746 15.6706C21.4055 15.7463 21.5667 15.7463 21.6975 15.6706C21.8276 15.5954 21.9081 15.4567 21.909 15.3062V1.77415C21.909 1.54018 21.7197 1.35048 21.4861 1.35048ZM0.93665 14.6284V2.19782H1.94742V12.8235C1.94477 13.0575 2.13197 13.2493 2.36552 13.252C2.38836 13.2522 2.4112 13.2506 2.43377 13.2472C3.30867 13.1134 4.19199 13.0426 5.07699 13.0354C6.30291 13.0141 7.52371 13.1988 8.68868 13.5819C6.05789 13.2632 3.3894 13.6234 0.93665 14.6284ZM5.07699 12.1922C4.30776 12.194 3.53943 12.2435 2.77633 12.3405V1.19372C3.59975 1.00995 4.44061 0.916162 5.28422 0.914096C6.86592 0.914096 9.04816 1.27845 10.5622 2.99009L10.5749 13.5438C9.69522 12.9676 7.97818 12.1922 5.07699 12.1922ZM11.4207 2.99009C12.9347 1.2954 15.117 0.914096 16.6987 0.914096C17.5422 0.916585 18.3831 1.01032 19.2066 1.19372V12.3405C18.4478 12.2426 17.6837 12.1917 16.9186 12.188C14.0343 12.188 12.3131 12.9633 11.4207 13.5395V2.99009ZM21.0589 14.6284C18.601 13.6207 15.9263 13.2604 13.29 13.5819C14.4605 13.1974 15.6871 13.0126 16.9186 13.0354C17.8092 13.0403 18.6982 13.1097 19.5787 13.243C19.8097 13.2781 20.0253 13.119 20.0603 12.8876C20.0638 12.865 20.0654 12.8422 20.0651 12.8193V2.19782H21.0759L21.0589 14.6284Z" fill="white"/>
</svg>
