<svg width="76" height="87" viewBox="0 0 76 87" fill="none" xmlns="http://www.w3.org/2000/svg">
<path d="M63 18.313L61.5268 17.0688L59.4935 16.9996L59.25 17.4144L62.2817 19.4996L63 18.313Z" fill="#260E0C"/>
<path d="M65.5 12.8238L64.25 12.0002L65.2774 13.2502L65.5 12.8238Z" fill="#260E0C"/>
<path d="M63 17.0934L61.75 16.9996L62.6912 18.2496L63 17.0934Z" fill="#260E0C"/>
<path d="M63.3482 14.3824H63.323L64.4304 15.7496L65.5 13.8225L63.9522 11.5309L62.6435 10.7496L61.75 12.4033L63.323 14.3694L63.3482 14.3824Z" fill="#260E0C"/>
<path d="M55.7419 22L55.5 22.5195L56.75 23.25L55.7419 22Z" fill="#260E0C"/>
<path d="M64.25 16.0745L62.5153 13.818L60.9464 13.2498L60.5 14.2725L63.8291 16.9998L64.25 16.0745Z" fill="#260E0C"/>
<path d="M57.2457 24.6017H57.2198L58.1379 25.7504L59.25 23.7233L57.8534 21.6558L56.3793 20.7504L55.5 22.426L57.2198 24.5882L57.2457 24.6017Z" fill="#260E0C"/>
<path d="M60.5275 14.5004L59.25 17.0004L64.25 16.6411L60.5275 14.5004Z" fill="#260E0C"/>
<path d="M61.75 20.4529L58.2365 18.2502L56.75 20.1628L60.5188 22.0002L61.75 20.4529Z" fill="#260E0C"/>
<path d="M60.5 22.8221L59.25 22L60.28 23.25L60.5 22.8221Z" fill="#260E0C"/>
<path d="M13 18.313L13.7183 19.4996L16.75 17.4144L16.4943 16.9996L14.461 17.0688L13 18.313Z" fill="#260E0C"/>
<path d="M10.7211 13.2502L11.75 12.0002L10.5 12.8238L10.7211 13.2502Z" fill="#260E0C"/>
<path d="M13.3088 18.2496L14.25 16.9996L13 17.0934L13.3088 18.2496Z" fill="#260E0C"/>
<path d="M10.5 13.8225L11.5696 15.7496L12.677 14.3824H12.6518L12.677 14.3694L14.25 12.4033L13.3691 10.7496L12.0478 11.5309L10.5 13.8225Z" fill="#260E0C"/>
<path d="M20.5 22.5195L20.2581 22L19.25 23.25L20.5 22.5195Z" fill="#260E0C"/>
<path d="M11.75 16.0745L12.1709 16.9998L15.5 14.2725L15.0536 13.2498L13.4847 13.818L11.75 16.0745Z" fill="#260E0C"/>
<path d="M16.75 23.7233L17.8582 25.7504L18.7732 24.6017H18.7603L18.7861 24.5882L20.5 22.426L19.6108 20.7504L18.1418 21.6558L16.75 23.7233Z" fill="#260E0C"/>
<path d="M16.75 17.0004L15.4863 14.5004L11.75 16.6411L16.75 17.0004Z" fill="#260E0C"/>
<path d="M15.4812 22.0002L19.25 20.1628L17.7635 18.2502L14.25 20.4529L15.4812 22.0002Z" fill="#260E0C"/>
<path d="M15.72 23.25L16.75 22L15.5 22.8221L15.72 23.25Z" fill="#260E0C"/>
<path fill-rule="evenodd" clip-rule="evenodd" d="M36.9577 75.2832C13.7595 64.7022 1.59082 46.5352 0.54848 20.586L0.5 19.2112L1.59082 18.401C26.8736 -0.134163 49.1264 -0.134163 74.4092 18.401L75.5 19.2112L75.4515 20.586C74.4092 46.5352 62.2405 64.7022 39.0423 75.2832L38 75.7496L36.9577 75.2832Z" fill="#260E0C"/>
<path fill-rule="evenodd" clip-rule="evenodd" d="M38 73.2498C17.0632 63.6444 4.0687 47.1004 3 20.4819C27.4587 2.50578 48.5413 2.50578 73 20.4819C71.9313 47.1251 58.9368 63.6444 38 73.2498ZM38 69.1015C57.4795 59.6442 67.7536 44.3596 69.1867 22.3586C47.3026 6.90105 28.6974 6.90105 6.81332 22.3586C8.24636 44.3596 18.5205 59.6442 38 69.1015Z" fill="#EC7B23"/>
<path fill-rule="evenodd" clip-rule="evenodd" d="M37.9875 65.7498C55.6684 56.9219 65.0566 43.1812 66.75 23.4805C46.5291 9.83959 29.4709 9.83959 9.25 23.4805C10.9185 43.1563 20.3067 56.9219 37.9875 65.7498Z" fill="#D04F27"/>
<path d="M62.9924 26.3008L60.3892 20.2162C59.3727 17.5381 56.9925 15.2593 55.381 13.4973C56.0008 13.8732 56.5958 14.2726 57.1413 14.7189C60.6123 12.8865 61.0338 7.06034 58.5793 4.49963C58.4305 7.71813 52.0588 7.29526 50.9183 10.1849C51.3398 10.5842 51.7117 10.9836 52.0588 11.43C43.8027 5.62728 31.4807 5.62728 23.2247 11.43C23.5718 10.9836 23.9685 10.5842 24.3651 10.1849C23.2247 7.29526 16.8529 7.71813 16.7041 4.49963C14.2497 7.06034 14.6711 12.8865 18.1421 14.7189C18.7124 14.2961 19.3074 13.8732 19.9024 13.4973C15.9852 17.7965 13.3323 25.925 14.5472 32.3385C14.9934 31.4692 16.1339 30.553 17.076 30.2006C17.0265 35.5569 19.1338 40.4434 22.4065 42.5108C22.3817 41.6651 22.7536 40.185 23.3238 39.2453C23.6214 39.8796 23.9932 40.4904 24.4643 41.1012C29.3981 45.7998 28.4064 41.7355 26.8196 38.9164C25.1337 37.8827 23.9685 36.3087 23.4974 34.5938C21.1173 32.2915 20.0264 28.2977 20.795 25.4551C19.8528 26.2539 19.2826 27.0761 18.3405 28.5091C17.8942 25.0557 18.8611 18.8537 23.0015 15.4237C21.7619 17.1152 20.2495 22.1661 20.3983 23.8576C21.2164 22.9179 21.8611 22.2601 23.1255 21.8137C22.1586 24.5154 22.4065 28.3212 23.6709 30.7175C24.266 29.3314 25.5056 28.1333 27.489 27.452C26.7948 27.9923 26.2494 28.6266 25.9023 29.2844C26.4229 30.741 28.1337 32.0096 29.646 32.6204C27.8857 32.3619 26.4229 31.7511 25.3569 30.8584C25.2577 31.3753 25.2329 31.8921 25.2825 32.4089C26.8444 34.2414 29.5964 35.5804 31.4807 36.0503C29.3733 36.0033 27.4642 35.4395 25.9767 34.6642C27.5138 37.5303 31.3319 39.3863 35.7451 37.037C34.5302 36.6376 33.5137 35.7684 33.5881 34.2883C32.7699 33.4661 32.6955 31.2578 33.241 30.459C32.8195 36.6611 42.4639 36.6611 42.0424 30.459C42.5879 31.2578 42.5135 33.4426 41.6953 34.2883C41.7697 35.7449 40.7532 36.6376 39.5384 37.037C43.9515 39.3628 47.7696 37.5303 49.3067 34.6642C47.844 35.4395 45.9101 36.0033 43.8027 36.0503C45.6622 35.5804 48.4142 34.2414 50.0009 32.4089C50.0505 31.8921 50.0257 31.3753 49.9266 30.8584C48.8605 31.7511 47.3729 32.3854 45.6374 32.6204C47.1498 32.0331 48.8605 30.7644 49.3811 29.2844C49.0092 28.6266 48.4886 27.9923 47.7944 27.452C49.7778 28.1333 50.9927 29.3314 51.6125 30.7175C52.9017 28.3212 53.1249 24.5154 52.1579 21.8137C53.4224 22.2601 54.067 22.8944 54.8851 23.8576C55.0587 22.1426 53.5215 17.1152 52.2819 15.4237C56.4223 18.8537 57.3892 25.0322 56.9429 28.5091C56.0008 27.0761 55.4306 26.2539 54.4885 25.4551C55.257 28.2977 54.1661 32.2915 51.786 34.5938C51.315 36.2852 50.1497 37.8827 48.4638 38.9164C46.8771 41.7355 45.8853 45.7998 50.8191 41.1012C51.2654 40.4904 51.6621 39.8796 51.9596 39.2453C52.5298 40.185 52.9017 41.6416 52.8769 42.5108C56.1248 40.4434 58.257 35.5569 58.2074 30.2006C59.1743 30.553 60.29 31.4692 60.7363 32.3385C61.0586 30.694 63.1412 28.0863 62.9924 26.3008Z" fill="#FAC94F"/>
<path fill-rule="evenodd" clip-rule="evenodd" d="M30.8508 24.743C29.514 25.1067 28.499 25.5916 27.8058 26.9734C28.5485 26.3431 29.514 25.931 30.4795 25.9552C30.1576 26.1734 29.8853 26.5613 29.8111 27.0704C31.4202 25.2522 33.8711 25.6401 35.0347 26.7553C35.0347 26.7553 34.5891 25.3249 33.3513 24.8885C32.1134 24.4279 30.8508 24.743 30.8508 24.743ZM45.1602 24.743C46.497 25.1067 47.512 25.5916 48.2052 26.9734C47.4625 26.3431 46.497 25.931 45.5315 25.9552C45.8533 26.1734 46.1257 26.5613 46.1999 27.0704C44.5908 25.2522 42.1399 25.6401 40.9763 26.7553C40.9763 26.7553 41.4219 25.3249 42.6597 24.8885C43.8976 24.4279 45.1602 24.743 45.1602 24.743ZM60.4845 4.49963C61.0292 7.86949 58.6278 11.8212 56.0036 13.0334L58.0584 14.9971C61.5738 13.1061 62.9849 7.99071 60.4845 4.49963ZM53.1566 15.579C54.023 17.5669 54.3944 21.155 54.0478 23.6278L52.8595 21.9308C53.0575 24.6703 52.2158 27.5553 50.3838 29.2281C50.3838 29.2281 51.9187 32.6222 51.7949 32.4767C51.6712 32.3313 53.1813 30.4403 53.5527 28.2584C53.924 26.0764 54.4687 23.9672 54.4687 23.9672L56.5977 25.7855C56.5977 25.7855 56.0036 20.8156 55.3599 19.3367C54.6667 17.8821 53.1566 15.579 53.1566 15.579ZM44.6403 27.4826C42.4369 27.822 41.2486 30.5373 41.5457 31.8464C42.0161 31.7252 42.3132 31.0949 42.3874 30.3675C42.3874 30.3675 43.0559 32.2828 41.8675 33.7132C40.704 35.1435 37.9807 35.7496 37.9807 35.7496C37.9807 35.7496 35.2575 35.1435 34.0939 33.7132C32.9304 32.2828 33.5741 30.3675 33.5741 30.3675C33.6731 31.0949 33.9702 31.7252 34.4158 31.8464C34.7376 30.5373 33.5245 27.8462 31.3212 27.4826L32.7818 27.3856L34.5891 28.0159C36.2973 29.4221 37.7579 29.2039 37.956 26.2704C38.154 29.2039 39.6147 29.4221 41.3229 28.0159L43.1301 27.3856L44.6403 27.4826ZM15.5265 4.49963C14.9818 7.86949 17.3832 11.8212 20.0074 13.0334L17.9526 14.9971C14.4372 13.1061 13.0013 7.99071 15.5265 4.49963ZM22.8544 15.579C21.988 17.5669 21.6166 21.155 21.9632 23.6278L23.1515 21.9308C22.9535 24.6703 23.7952 27.5553 25.6272 29.2281C25.6272 29.2281 24.0923 32.6222 24.2161 32.4767C24.3398 32.3313 22.8297 30.4403 22.4583 28.2584C22.087 26.0764 21.5423 23.9672 21.5423 23.9672L19.4133 25.7855C19.4133 25.7855 20.0074 20.8156 20.6511 19.3367C21.3443 17.8821 22.8544 15.579 22.8544 15.579Z" fill="#D04F27"/>
<path fill-rule="evenodd" clip-rule="evenodd" d="M16.8613 4.49963C15.8357 8.91273 22.1898 8.14219 23.8659 10.8975L25.2918 9.91677C25.7171 6.32091 19.7132 5.27017 16.8613 4.49963ZM26.7177 9.49648C33.9224 6.97471 42.0526 6.97471 49.2573 9.49648C42.1777 4.77983 33.8223 4.77983 26.7177 9.49648ZM31.0705 15.474C35.3983 13.8862 40.6267 13.8862 44.9295 15.474L41.2771 13.536L42.2778 12.9756L38 12.1583L33.7222 12.9756L34.7229 13.536L31.0705 15.474ZM26.5176 13.7461C29.9448 12.4619 33.5221 11.2477 38 11.201C42.4779 11.2477 46.0302 12.4619 49.4824 13.7461C49.4824 13.7461 49.0571 13.1857 46.8557 12.1583C44.6543 11.131 43.4535 10.6873 43.4535 10.6873L44.9295 10.3838C44.9295 10.3838 44.5042 10.1736 42.3528 9.63657C40.1764 9.07618 38 8.81933 38 8.81933C38 8.81933 35.8236 9.07618 33.6722 9.61322C31.5208 10.1503 31.0955 10.3604 31.0955 10.3604L32.5715 10.664C32.5715 10.664 31.3707 11.131 29.1693 12.135C26.9679 13.1857 26.5176 13.7461 26.5176 13.7461ZM59.1387 4.49963C60.1643 8.91273 53.8102 8.14219 52.1341 10.8975L50.7082 9.91677C50.2829 6.32091 56.2868 5.27017 59.1387 4.49963ZM42.4028 31.562C41.8775 33.4533 39.9763 34.3172 38 34.2939C36.0237 34.3172 34.1475 33.4533 33.5972 31.562C33.5471 34.3873 36.0487 35.9984 38 35.7182C39.9513 35.9751 42.4529 34.3639 42.4028 31.562ZM41.0019 26.9154C40.7268 25.4443 41.152 24.0434 42.3028 23.1327C41.127 23.5063 39.3759 23.6231 38.6504 24.487C38.9506 21.615 43.6787 21.0079 40.6517 17.5054C42.8281 17.0851 44.5292 18.6029 46.5305 17.9257C45.1796 17.7156 43.5786 17.1085 43.2034 16.4547C44.154 17.3887 52.6595 16.3379 51.6588 19.7003C51.3086 20.8678 50.1328 21.9652 48.2566 21.8952C50.2579 22.2454 51.5838 21.5449 52.1591 20.9845C51.7089 24.0667 48.5318 25.2575 45.6299 24.9773L42.7781 25.0707L41.4772 26.0281L41.0019 26.9154ZM34.9981 26.9154C35.2732 25.4443 34.848 24.0434 33.6972 23.1327C34.873 23.5063 36.6241 23.6231 37.3496 24.487C37.0494 21.615 32.3213 21.0079 35.3483 17.5054C33.1719 17.0851 31.4708 18.6029 29.4695 17.9257C30.8204 17.7156 32.4214 17.1085 32.7966 16.4547C31.846 17.3887 23.3405 16.3379 24.3412 19.7003C24.6914 20.8678 25.8672 21.9652 27.7434 21.8952C25.7421 22.2454 24.4162 21.5449 23.8409 20.9845C24.2911 24.0667 27.4682 25.2575 30.3701 24.9773L33.2219 25.0707L34.4977 25.958L34.9981 26.9154Z" fill="white"/>
<path d="M43.6664 56.545C44.0739 55.7832 44.4559 55.1002 44.7869 54.5223C44.8124 54.4697 44.8379 54.4435 44.8633 54.3909C45.1435 53.6816 45.3727 52.8673 45.5 52.0004C39.8718 56.834 36.1282 56.834 30.5 52.0004C31.0857 55.7569 33.3014 57.9636 35.084 59.1457C34.8548 58.6991 34.8548 58.1737 34.9312 57.7272C36.1791 60.0914 39.8464 60.0914 41.0942 57.7272C41.1706 58.1737 41.1706 58.6991 40.9414 59.1457C41.8328 58.5678 42.826 57.7272 43.6664 56.545Z" fill="#EC7B23"/>
<path fill-rule="evenodd" clip-rule="evenodd" d="M33.8718 39.5004C33.3046 41.5335 33.5567 44.5455 34.25 45.7504C31.729 44.1941 30.5945 42.1108 30.5 39.8267C31.5399 39.8267 32.6744 39.7263 33.8718 39.5004Z" fill="white"/>
<path fill-rule="evenodd" clip-rule="evenodd" d="M16.6151 17.5356C18.4897 14.8694 17.4291 15.9907 20.3396 13.2498C18.687 17.0621 18.0704 19.1053 17.8237 21.597C18.7117 19.6535 20.8082 17.112 22.6088 16.4392C22.6088 16.4392 20.6602 20.3761 20.2409 22.9426C19.7969 25.509 19.4763 26.6303 19.4763 26.6303L22.4855 23.9891C22.4855 23.9891 21.4742 28.4742 22.9541 31.1901C24.434 33.8812 24.656 33.4576 24.656 33.4576C24.656 33.4576 24.8287 31.1154 25.6673 30.1685C28.3312 27.2034 29.4904 30.7416 31.0444 31.7881C30.7237 31.2649 30.5511 30.7915 30.5264 30.2433C31.4883 31.9376 32.6969 31.539 33.5356 33.0091C33.6342 33.2084 34.5962 35.6005 34.5962 35.6005L38 37.2201L41.4038 35.6005C41.4038 35.6005 42.3658 33.2084 42.4644 33.0091C43.2784 31.539 44.487 31.9626 45.4736 30.2433C45.4489 30.7665 45.2763 31.2649 44.9556 31.7881C46.5096 30.7416 47.6688 27.1785 50.3327 30.1685C51.1713 31.1154 51.344 33.4576 51.344 33.4576C51.344 33.4576 51.566 33.9061 53.0459 31.1901C54.5258 28.4991 53.5145 23.9891 53.5145 23.9891L56.5237 26.6303C56.5237 26.6303 56.2031 25.509 55.7591 22.9426C55.3151 20.3761 53.3912 16.4392 53.3912 16.4392C55.1918 17.112 57.2883 19.6535 58.1763 21.597C57.9296 19.1053 57.313 17.0621 55.6604 13.2498C58.5956 15.9907 57.5103 14.8694 59.3849 17.5356C59.3849 17.5356 63.0354 25.2349 64.1206 30.642C65.2059 36.049 59.2122 41.6802 55.4878 45.5424C51.7633 49.4045 47.3975 48.5324 46.4356 46.6387C45.449 44.7699 46.9782 40.2101 46.9782 40.2101C46.9782 40.2101 41.7738 40.1852 40.1705 39.4875C38.592 38.7898 38 39.1636 38 39.1636C38 39.1636 37.408 38.8148 35.8294 39.4875C34.2509 40.1852 29.0218 40.2101 29.0218 40.2101C29.0218 40.2101 30.5511 44.7699 29.5644 46.6387C28.5778 48.5075 24.212 49.4045 20.5122 45.5424C16.7878 41.6802 10.7941 36.049 11.8794 30.642C12.9646 25.2599 16.6151 17.5356 16.6151 17.5356Z" fill="white"/>
<path fill-rule="evenodd" clip-rule="evenodd" d="M42.1281 39.5004C42.6954 41.5335 42.4433 44.5455 41.75 45.7504C44.271 44.1941 45.4055 42.1108 45.5 39.8267C44.4601 39.8267 43.3256 39.7263 42.1281 39.5004Z" fill="white"/>
<path fill-rule="evenodd" clip-rule="evenodd" d="M25.784 30.0847C25.367 36.0496 31.0828 38.1016 34.4681 36.3359L37.4118 37.1472L40.3555 36.3359C43.7408 38.1016 49.432 36.0496 49.0395 30.0847C49.0395 30.0847 49.7019 30.204 50.2661 31.2538C50.8548 32.3036 50.9775 33.7591 50.0208 36.1689C49.0641 38.5788 46.3411 39.8433 43.8389 40.1774C41.3368 40.5114 37.4363 38.8412 37.4363 38.8412C37.4363 38.8412 33.5359 40.5353 31.0337 40.1774C28.5315 39.8433 25.784 38.5549 24.8519 36.1689C23.8951 33.7591 24.0423 32.3036 24.6066 31.2538C25.1217 30.204 25.784 30.0847 25.784 30.0847ZM57.7236 18.2502C60.2257 23.7857 59.7106 29.1303 58.8029 33.9261L57.7236 31.1584C57.1348 35.978 53.9948 40.8693 51.3945 42.2293L51.5662 40.1535C50.1434 42.2055 47.0771 44.1381 47.0525 40.6784C47.0525 40.6784 45.2617 43.4462 45.9241 45.4504C46.5864 47.4546 47.0035 49.7929 50.9775 46.882C54.9515 43.9711 61.1334 38.4833 62.5562 34.2124C63.979 29.9415 61.624 23.9288 60.4956 21.4235C59.3181 18.9183 57.7236 18.2502 57.7236 18.2502ZM41.5085 40.6784C41.9501 42.6111 41.7538 45.4743 41.2141 46.6195C42.5143 44.2813 42.7596 42.1339 42.7596 40.917C42.3671 40.8455 41.9501 40.7739 41.5085 40.6784ZM17.0264 18.2502C14.5243 23.7857 15.0394 29.1303 15.9471 33.9261L17.0264 31.1584C17.6152 35.978 20.7552 40.8693 23.3555 42.2293L23.1837 40.1535C24.6066 42.2055 27.6729 44.1381 27.6975 40.6784C27.6975 40.6784 29.4882 43.4462 28.8259 45.4504C28.1636 47.4546 27.7465 49.7929 23.7725 46.882C19.7985 43.9711 13.6166 38.4833 12.1938 34.2124C10.771 29.9415 13.126 23.9288 14.2544 21.4235C15.4564 18.9183 17.0264 18.2502 17.0264 18.2502ZM33.266 40.6784C32.8245 42.6111 33.0207 45.4743 33.5604 46.6195C32.2603 44.2813 32.015 42.1339 32.015 40.917C32.4074 40.8455 32.8245 40.7739 33.266 40.6784Z" fill="#D1CACA"/>
<path fill-rule="evenodd" clip-rule="evenodd" d="M29.7466 19.9532C29.4488 20.9448 29.5977 21.6462 30.0197 22.1782C28.58 21.7429 26.8424 21.6945 24.9063 22.275C26.8672 22.7587 26.2963 24.9838 30.2431 25.1289C29.5977 25.2498 28.9771 25.7335 28.6544 26.1447C29.7714 25.4191 33.6685 24.8387 35.0338 27.1605C34.7855 25.927 33.8919 24.5242 32.5267 23.4601C34.3884 23.8954 36.5727 23.9922 37.367 24.6452C36.1011 22.2266 30.6402 23.0247 29.7466 19.9532ZM48.1647 22.541C47.2215 22.4443 45.335 23.0247 44.8882 23.8471C46.303 24.7903 48.264 24.2098 48.1647 22.541ZM27.7857 22.541C28.7289 22.4443 30.6154 23.0247 31.0622 23.8471C29.6722 24.7903 27.7112 24.2098 27.7857 22.541ZM36.4486 42.3974C36.7217 45.1546 33.0231 49.0001 37.9876 49.0001C42.952 49.0001 39.2535 45.1787 39.5266 42.3974C38.3599 42.8569 37.9876 44.8401 37.9876 45.7834C37.9876 44.8643 37.6153 42.8569 36.4486 42.3974ZM30.665 51.1042C31.2359 54.5627 33.3955 56.5943 35.133 57.6827C34.9096 57.2715 34.9096 56.7878 34.9841 56.3767C36.2004 58.5534 39.7748 58.5534 40.9911 56.3767C41.0655 56.7878 41.0655 57.2715 40.8421 57.6827C42.5797 56.6185 44.7392 54.5869 45.3101 51.1042C39.7996 55.5785 36.1507 55.5785 30.665 51.1042ZM33.3955 51.1768C32.7997 50.3786 32.5019 48.6373 33.3955 47.3554C33.4699 48.2503 33.8671 49.5563 34.7111 50.1126C34.7359 49.8949 41.2145 49.8949 41.2393 50.1126C42.0833 49.5563 42.4804 48.2503 42.5549 47.3554C43.4485 48.6373 43.1754 50.3786 42.5549 51.1768C39.9485 53.0874 36.0266 53.0874 33.3955 51.1768ZM34.8103 39.9305C34.7607 40.6077 34.86 41.43 35.1827 42.0346C35.282 41.7928 35.3813 41.5509 35.5798 41.309C36.4734 41.0914 39.5018 41.0914 40.3953 41.309C40.5939 41.5509 40.6932 41.7686 40.7925 42.0346C41.1152 41.4058 41.2145 40.6077 41.1648 39.9305C38.4344 38.963 37.4415 38.9872 34.8103 39.9305ZM42.1577 40.2449C42.6045 42.2039 42.4059 45.1062 41.8599 46.2671C43.8456 44.7676 44.7392 42.7602 44.8137 40.5593C43.9946 40.5593 43.101 40.4626 42.1577 40.2449ZM33.8175 40.2449C33.3707 42.2039 33.5692 45.1062 34.1153 46.2671C32.1295 44.7676 31.2359 42.7602 31.1615 40.5593C31.9806 40.5593 32.8742 40.4626 33.8175 40.2449ZM33.1224 9.89197C33.9664 9.94034 35.0089 10.1096 36.0515 10.3999C31.9806 11.0045 28.58 12.1896 25.3531 14.6323C27.2148 12.4315 29.3246 11.1496 31.1118 10.6417C30.6402 10.6175 29.7218 10.6901 28.8034 10.8352C34.5869 6.89295 41.3882 6.89295 47.1718 10.8352C46.2286 10.6901 45.335 10.6175 44.8633 10.6417C46.6505 11.1496 48.7604 12.4315 50.6221 14.6323C47.3952 12.1896 43.9946 11.0045 39.9237 10.3999C40.9663 10.1338 42.0088 9.94034 42.8527 9.89197C39.7996 8.70687 36.1756 8.70687 33.1224 9.89197ZM20.2149 13.2054C16.293 17.6314 13.637 25.9996 14.8533 32.6022C15.3001 31.7074 16.4419 30.7641 17.3852 30.4013C17.3355 35.9157 19.4454 40.9463 22.7219 43.0746C22.6971 42.2039 23.0694 40.6802 23.6404 39.7128C23.9382 40.3658 24.3106 40.9946 24.7822 41.6235C29.7218 46.4606 28.7289 42.2765 27.1403 39.3742C25.4524 38.31 24.2857 36.6896 23.8141 34.924C21.4312 32.5539 20.339 28.4423 21.1085 25.5159C20.1652 26.3382 19.5943 27.1847 18.6511 28.66C18.2043 25.1047 19.1724 18.7197 23.3177 15.1886C22.0766 16.93 20.5624 22.1299 20.7113 23.8712C21.5305 22.9038 22.1758 22.2266 23.4418 21.7671C22.4737 24.5484 22.7219 28.4665 23.9879 30.9334C24.5836 29.5065 25.8247 28.273 27.8105 27.5716C27.1155 28.1279 26.5694 28.7809 26.2219 29.4581C26.7431 30.9576 28.4559 32.2636 29.97 32.8925C28.2076 32.6264 26.7431 31.9976 25.6758 31.0785C25.5765 31.6106 25.5517 32.1427 25.6013 32.6748C27.1651 34.5613 29.9204 35.9398 31.8069 36.4236C29.697 36.3752 27.7857 35.7947 26.2963 34.9966C27.8353 37.9472 31.6579 39.8579 36.0763 37.4394C34.86 37.0282 33.8423 36.1333 33.9167 34.6096C33.0976 33.7631 33.0231 31.4897 33.5692 30.6674C33.1473 37.0524 42.8031 37.0524 42.3811 30.6674C42.9272 31.4897 42.8527 33.739 42.0336 34.6096C42.1081 36.1091 41.0904 37.0282 39.8741 37.4394C44.2924 39.8337 48.1151 37.9472 49.654 34.9966C48.1895 35.7947 46.2534 36.3752 44.1435 36.4236C46.0052 35.9398 48.7604 34.5613 50.349 32.6748C50.3987 32.1427 50.3739 31.6106 50.2746 31.0785C49.2072 31.9976 47.7179 32.6506 45.9803 32.8925C47.4945 32.2878 49.2072 30.9818 49.7285 29.4581C49.3562 28.7809 48.8349 28.1279 48.1399 27.5716C50.1256 28.273 51.3419 29.5065 51.9625 30.9334C53.2532 28.4665 53.4767 24.5484 52.5086 21.7671C53.7745 22.2266 54.4199 22.8796 55.239 23.8712C55.4128 22.1057 53.8738 16.93 52.6327 15.1886C56.778 18.7197 57.7461 25.0805 57.2993 28.66C56.356 27.1847 55.7851 26.3382 54.8419 25.5159C55.6114 28.4423 54.5192 32.5539 52.1362 34.924C51.6646 36.6654 50.498 38.31 48.8101 39.3742C47.2215 42.2765 46.2286 46.4606 51.1682 41.6235C51.615 40.9946 52.0121 40.3658 52.31 39.7128C52.8809 40.6802 53.2533 42.1797 53.2284 43.0746C56.4801 40.9463 58.6148 35.9157 58.5652 30.4013C59.5333 30.7641 60.6503 31.7074 61.0971 32.6022C62.3134 25.9996 59.6326 17.6314 55.7355 13.2054C56.356 13.5924 56.9518 14.0035 57.4979 14.463C60.973 12.5766 61.3949 6.57854 58.9375 3.94231C58.7886 7.25574 52.4093 6.8204 51.2675 9.79522C51.6895 10.2064 52.0618 10.6175 52.4093 11.0771C44.1435 5.10322 31.8069 5.10322 23.5411 11.0771C23.8886 10.6175 24.2857 10.2064 24.6829 9.79522C23.5411 6.8204 17.1618 7.25574 17.0128 3.94231C14.5554 6.57854 14.9774 12.5766 18.4525 14.463C19.0234 14.0277 19.6192 13.5924 20.2149 13.2054ZM59.0616 15.7691C66.9055 23.0731 69.3132 35.3594 63.6289 43.776C63.4304 42.5425 62.9339 41.9862 62.0651 41.1881C58.7886 47.428 53.3029 49.0726 48.0158 52.0716C44.5407 54.0548 48.6363 58.6017 43.2747 61.1654C43.7712 60.5608 44.0194 59.545 44.0442 58.771C42.1329 63.0761 33.8671 63.0761 31.9558 58.771C31.9806 59.5208 32.2288 60.5366 32.7253 61.1654C27.3637 58.5776 31.4593 54.0307 27.9842 52.0716C22.6971 49.0726 17.2114 47.428 13.9349 41.1881C13.0661 42.0104 12.5696 42.5425 12.3711 43.776C6.68678 35.3594 9.09453 23.0489 16.9384 15.7691C11.1051 12.7217 11.13 3.72464 16.5908 0.749817C20.761 4.01487 26.7928 2.46699 30.2182 6.23994C35.7784 3.84557 40.2464 3.84557 45.8066 6.23994C49.2321 2.46699 55.2639 4.01487 59.434 0.749817C64.8452 3.72464 64.87 12.7217 59.0616 15.7691ZM32.9735 13.4714C32.3281 13.3505 31.4097 13.3021 30.5906 13.3989C36.0018 10.6659 39.9734 10.6659 45.3846 13.3989C44.5655 13.3263 43.6471 13.3505 43.0017 13.4714C44.3173 14.0035 46.7498 15.89 47.6683 17.7039C45.7321 15.7932 42.7286 14.0277 38.8067 13.3263C39.328 13.0603 39.8989 12.8668 40.4202 12.8184C38.7074 12.3347 37.2677 12.3347 35.5798 12.8184C36.1011 12.8668 36.6968 13.0603 37.1933 13.3263C33.2714 14.0277 30.2679 15.7932 28.3318 17.7039C29.2502 15.89 31.6579 14.0035 32.9735 13.4714ZM42.2322 16.93C39.5514 15.5756 36.4238 15.5756 33.743 16.93C36.2252 14.5356 39.75 14.5356 42.2322 16.93ZM40.9663 27.1605C41.2145 25.927 42.0833 24.5242 43.4733 23.4601C41.6116 23.8954 39.4273 23.9922 38.633 24.6452C39.8741 22.2508 45.335 23.0489 46.2286 19.9774C46.5264 20.969 46.3775 21.6703 45.9555 22.2024C47.3952 21.7671 49.1328 21.7187 51.0689 22.2992C49.1079 22.7829 49.6789 25.008 45.7321 25.1531C46.3775 25.274 46.9981 25.7577 47.3207 26.1689C46.2286 25.4191 42.3315 24.8387 40.9663 27.1605ZM39.4769 32.1427C40.2712 29.2404 42.4804 27.8619 44.6399 27.886C41.7854 26.9428 39.7003 28.0312 39.4769 32.1427ZM36.4734 32.1427C35.6791 29.2404 33.4699 27.8619 31.3104 27.886C34.1898 26.9428 36.2749 28.0312 36.4734 32.1427Z" fill="#260E0C"/>
<path fill-rule="evenodd" clip-rule="evenodd" d="M30.5 52.0004C31.0847 55.7569 33.2966 57.9636 35.0763 59.1457C34.8475 58.6991 34.8475 58.1737 34.9237 57.7272C36.1695 60.0914 39.8305 60.0914 41.0763 57.7272C41.1525 58.1737 41.1525 58.6991 40.9237 59.1457C42.7034 57.9899 44.9153 55.7832 45.5 52.0004C39.8559 56.8603 36.1186 56.8603 30.5 52.0004Z" fill="#D1CACA"/>
<path fill-rule="evenodd" clip-rule="evenodd" d="M45.5 52.0004C39.8718 56.5775 36.1282 56.5775 30.5 52.0004C34.32 58.667 41.6545 58.667 45.5 52.0004Z" fill="white"/>
<path fill-rule="evenodd" clip-rule="evenodd" d="M34.2642 40.1354C34.2058 40.7356 34.3226 41.4645 34.702 42.0004C34.8187 41.786 34.9355 41.5716 35.169 41.3573C36.2197 41.1644 39.7803 41.1644 40.831 41.3573C41.0645 41.5716 41.1813 41.7646 41.298 42.0004C41.6774 41.443 41.7942 40.7356 41.7358 40.1354C38.5253 39.278 37.3579 39.2994 34.2642 40.1354Z" fill="#D1CACA"/>
<path fill-rule="evenodd" clip-rule="evenodd" d="M34.25 40.4595C34.3091 41.0168 34.4567 41.5414 34.6634 42.0004C34.7815 41.6725 34.8996 41.3447 35.1358 41.0168C36.1988 40.7218 39.8012 40.7218 40.8642 41.0168C41.1004 41.3447 41.2185 41.6397 41.3366 42.0004C41.5433 41.5414 41.6909 40.984 41.75 40.4595C38.5315 39.1481 37.3504 39.2137 34.25 40.4595Z" fill="white"/>
<path fill-rule="evenodd" clip-rule="evenodd" d="M36.525 41.9996C36.7867 45.1315 33.2418 49.4996 38 49.4996C42.7582 49.4996 39.2133 45.159 39.475 41.9996C38.3569 42.5216 38 44.7744 38 45.8458C38 44.8018 37.6431 42.5216 36.525 41.9996Z" fill="#EC7B23"/>
<path fill-rule="evenodd" clip-rule="evenodd" d="M36.1325 41.9996C36.2229 43.2641 35.8614 44.7092 35.5 46.082C36.0422 47.3103 36.9759 48.1051 38 48.2496C38.994 48.1051 39.9578 47.3103 40.5 46.082C40.1386 44.7092 39.7771 43.3002 39.8675 41.9996C38.4518 42.686 38 45.6485 38 47.0574C38 45.6846 37.5482 42.686 36.1325 41.9996Z" fill="#D04F27"/>
<path fill-rule="evenodd" clip-rule="evenodd" d="M47.9972 22.0149C47.2783 21.8781 45.8405 22.6987 45.5 23.8613C46.5784 25.1948 48.0729 24.3742 47.9972 22.0149Z" fill="white"/>
<path fill-rule="evenodd" clip-rule="evenodd" d="M26.7524 22.0149C27.8312 21.8781 29.989 22.6987 30.5 23.8613C28.9101 25.1948 26.6672 24.3742 26.7524 22.0149Z" fill="white"/>
<path fill-rule="evenodd" clip-rule="evenodd" d="M32.3663 51.886C31.7153 51.1265 31.3898 49.4694 32.3663 48.2496C32.4476 49.1012 32.8816 50.344 33.8038 50.8733C33.8309 50.6662 40.91 50.6662 40.9371 50.8733C41.8593 50.344 42.2932 49.1012 42.3746 48.2496C43.351 49.4694 43.0527 51.1265 42.3746 51.886C39.5267 53.7042 35.2413 53.7042 32.3663 51.886Z" fill="#D1CACA"/>
<path fill-rule="evenodd" clip-rule="evenodd" d="M33 49.4837C33.0726 49.0581 33.2179 48.6326 33.5327 48.2496C33.6053 49.0369 33.9927 50.1858 34.816 50.6752C34.8402 50.4837 41.1598 50.4837 41.184 50.6752C42.0073 50.1858 42.3947 49.0369 42.4673 48.2496C42.7579 48.6326 42.9274 49.0581 43 49.4837C42.9274 49.9943 42.7337 50.4411 42.4673 50.739C39.9007 52.4198 36.0508 52.4198 33.4843 50.739C33.2663 50.4411 33.0726 49.9943 33 49.4837Z" fill="white"/>
<path d="M9.25 63.2498H65.5V81.9998H9.25V63.2498Z" fill="#260E0C"/>
<path d="M16.3265 62.7103L13.9444 60.7496H5.5V63.2086L6.74858 63.53V69.2353L5.5 69.5568V71.9996H11.3979V69.5728L10.1493 69.2514V68.1264H13.9444L16.3265 66.1818V62.7103ZM12.4986 63.53L12.9258 63.8675V64.9925L12.4986 65.3461H10.1493V63.53H12.4986Z" fill="url(#paint0_linear)"/>
<path d="M27.1932 69.9907V62.7103L24.7946 60.7496H19.9153L17.5167 62.7103V69.9907L19.9975 71.9996H24.6961C25.1123 71.6675 25.5285 71.3353 25.9447 71.0032C26.3608 70.6603 26.777 70.3228 27.1932 69.9907ZM23.3653 63.53L23.8089 63.8675V68.8657L23.3489 69.2353H21.361L20.901 68.8657V63.8675L21.3446 63.53H23.3653Z" fill="url(#paint1_linear)"/>
<path d="M46.6362 63.2086V60.7496H42.2169V63.2086L42.9069 63.53L41.6419 68.4318L40.229 63.53L41.034 63.2086V60.7496H35.1033V63.2086L35.8754 63.53L34.5118 68.4318L33.1647 63.53L33.9204 63.2086V60.7496H28.4004V63.2086L29.4025 63.53L31.6204 71.9996H36.1712L37.6004 67.0336L38.964 71.9996H43.2519L45.6177 63.53L46.6362 63.2086Z" fill="url(#paint2_linear)"/>
<path d="M57.7993 64.7032V60.7496H47.6628V63.2086L48.9114 63.53V69.2353L47.6628 69.5568V71.9996H57.8157V68.0621H55.3843L55.0557 69.2353H52.2957V67.2746H55.0557V65.3461H52.2957V63.53H55.0557L55.3843 64.7032H57.7993Z" fill="url(#paint3_linear)"/>
<path d="M63.8956 63.53H66.2285L66.6228 63.8514V65.0407L66.2285 65.3621H63.8956V63.53ZM65.1442 71.9996V69.5568L63.8956 69.2353V67.6121H64.7499L67.3785 71.9996H70.5V69.3961L69.6293 69.2353L68.3807 67.2907L70.0071 65.9407V62.5818L67.7893 60.7496H59.2463V63.2086L60.4949 63.53V69.2353L59.2463 69.5568V71.9996H65.1442Z" fill="url(#paint4_linear)"/>
<path fill-rule="evenodd" clip-rule="evenodd" d="M17.823 63.2225L20.1857 61.2417H24.9921L27.3548 63.2225V70.5775C26.9449 70.9131 26.5349 71.254 26.1249 71.6004L24.895 72.6071H20.2667L17.823 70.5775V63.2225ZM16.6506 66.7296V63.2225L14.3041 61.2417H5.986V63.7258L7.21591 64.0506V69.8144L5.986 70.1392V72.6071H11.7957V70.1554L10.5658 69.8307V68.6941H14.3041L16.6506 66.7296ZM13.5317 70.4358H14.9333L16.087 69.4699V71.3968L19.6413 74.3488H25.5133L27.2328 72.9414L27.2432 72.9327C27.6463 72.5921 28.0493 72.2569 28.4522 71.9271L29.0908 71.4044V69.345L30.3684 74.3488H34.199L34.5539 75.6731L34.9131 74.3488H37.5132L37.567 74.157L37.6184 74.3488H41.2863L41.6801 75.75L42.0327 74.3488H44.4987L45.7823 69.6357V74.3488H71.75V68.533L70.2231 68.244L70.1966 68.2015L71.2645 67.2924V62.2838L67.9787 59.5H26.8079V60.4943L25.622 59.5H19.5559L17.2386 61.4427L14.9373 59.5H4.25V65.0685L5.47991 65.3932V68.4718L4.25 68.7965V74.3488H13.5317V70.4358ZM28.5439 63.7258L29.5311 64.0506L31.7158 72.6071H36.1985L37.6064 67.5901L38.9496 72.6071H43.1734L45.5038 64.0506L46.5071 63.7258V61.2417H42.1539V63.7258L42.8336 64.0506L41.5875 69.0026L40.1957 64.0506L40.9887 63.7258V61.2417H35.1466V63.7258L35.9072 64.0506L34.564 69.0026L33.237 64.0506L33.9814 63.7258V61.2417H28.5439V63.7258ZM46.9308 65.4188L46.0286 68.7315L47.0122 68.4718V65.3932L47.0109 65.3929L46.9308 65.4188ZM48.7482 64.0506V69.8144L47.5183 70.1392V72.6071H57.5194V68.6292H55.1243L54.8007 69.8144H52.0819V67.8336H54.8007V65.8853H52.0819V64.0506H54.8007L55.1243 65.2358H57.5032V61.2417H47.5183V63.7258L48.7482 64.0506ZM58.9286 70.1392V72.6071H64.7383V70.1392L63.5084 69.8144V68.1746H64.3499L66.9392 72.6071H70.014V69.9768L69.1563 69.8144L67.9264 67.8499L69.5285 66.486V63.0926L67.3438 61.2417H58.9286V63.7258L60.1585 64.0506V69.8144L58.9286 70.1392ZM12.88 65.8853H10.5658V64.0506H12.88L13.3007 64.3915V65.5281L12.88 65.8853ZM21.5937 64.0506L21.1567 64.3915V69.441L21.6099 69.8144H23.568L24.0211 69.441V64.3915L23.5842 64.0506H21.5937ZM65.8064 64.0506H63.5084V65.9015H65.8064L66.1948 65.5768V64.3753L65.8064 64.0506Z" fill="#260E0C"/>
<path d="M16.5595 76.6859V74.5002H11.6158V76.6859L12.292 76.9716V78.5859H9.7525V76.9716L10.4437 76.6859V74.5002H5.5V76.6859L6.64201 76.9716V82.043L5.5 82.3288V84.5002H10.4437V82.3288L9.7525 82.043V80.3002H12.292V82.043L11.6158 82.3288V84.5002H16.5595V82.3288L15.4175 82.043V76.9716L16.5595 76.6859Z" fill="url(#paint5_linear)"/>
<path d="M26.7651 82.7145V76.243L24.5712 74.5002H20.1084L17.9145 76.243V82.7145L20.1835 84.5002H24.4811C24.8617 84.2049 25.2424 83.9097 25.6231 83.6145C26.0038 83.3097 26.3844 83.0097 26.7651 82.7145ZM23.2639 76.9716L23.6696 77.2716V81.7145L23.2489 82.043H21.4307L21.0099 81.7145V77.2716L21.4157 76.9716H23.2639Z" fill="url(#paint6_linear)"/>
<path d="M36.7992 76.1288L34.7556 74.5002H30.4129L28.0838 76.343V82.5859L30.5031 84.5002H34.6654C35.016 84.224 35.3717 83.9478 35.7323 83.6716C36.0929 83.3859 36.4486 83.1002 36.7992 82.8145V81.0002H33.9892L33.6887 82.043H31.6301L31.1793 81.7002V77.3002L31.615 76.9716H33.6887L33.9892 78.0145H36.7992V76.1288Z" fill="url(#paint7_linear)"/>
<path d="M49.1201 76.6859V74.5002H44.1012V76.6859L44.8375 76.9716L42.4934 78.9145V76.9716L43.2147 76.6859V74.5002H38.1357V76.6859L39.2777 76.9716V82.043L38.1357 82.3288V84.5002H43.2447V82.3288L42.4934 82.043V81.0002L43.6955 80.043L44.8676 82.043L44.1163 82.3288V84.5002H49.1201V82.3288L48.0532 82.043L45.9645 78.3145L47.6625 76.9716L49.1201 76.6859Z" fill="url(#paint8_linear)"/>
<path d="M59.4694 78.0145V74.5002H50.198V76.6859L51.34 76.9716V82.043L50.198 82.3288V84.5002H59.4844V81.0002H57.2605L56.9599 82.043H54.4355V80.3002H56.9599V78.5859H54.4355V76.9716H56.9599L57.2605 78.0145H59.4694Z" fill="url(#paint9_linear)"/>
<path d="M70.5 76.6859V74.5002H66.3377V76.6859L66.9688 76.9716L65.7967 78.643L64.6397 76.9716L65.2557 76.6859V74.5002H60.4022V76.6859L61.3188 76.9716L63.8883 80.2288V82.043L62.5961 82.3288V84.5002H68.2761V82.3288L66.9988 82.043V80.2145L69.5383 76.9716L70.5 76.6859Z" fill="url(#paint10_linear)"/>
<path fill-rule="evenodd" clip-rule="evenodd" d="M14.7214 77.5222V82.7417L15.867 83.0358V85.2706H10.9077V83.0358L11.586 82.7417V80.948H9.03853V82.7417L9.73193 83.0358V85.2706H4.77263V83.0358L5.91825 82.7417V77.5222L4.77263 77.2282V74.9786H9.73193V77.2282L9.03853 77.5222V79.1837H11.586V77.5222L10.9077 77.2282V74.9786H15.867V77.2282L14.7214 77.5222ZM17.6396 73.2496V74.1823L18.7839 73.2496H24.5471L26.8304 75.1106L29.1229 73.2496H34.765L35.7385 74.0456V73.2496H71.75V78.4993L70.0908 79.0051L68.277 81.3813L69.5191 81.6664V86.9996H35.7385V86.1388C35.5444 86.2933 35.3519 86.4476 35.1609 86.602L34.6689 86.9996H29.2133L26.8448 85.0769C26.5969 85.2763 26.3489 85.4779 26.1009 85.6816L26.0903 85.6903L24.4448 86.9996H18.8639L17.6396 86.0111V86.9996H3V81.7029L4.14561 81.4089V78.8551L3 78.561V73.2496H17.6396ZM19.5024 85.2706H23.8135L24.9591 84.3591C25.191 84.1685 25.423 83.9798 25.6549 83.7929C25.8049 83.6721 25.9548 83.5521 26.1047 83.4328V76.7724L23.9039 74.9786H19.427L17.2262 76.7724V83.4328L19.5024 85.2706ZM29.8545 85.2706H34.0299C34.3816 84.9864 34.7384 84.7021 35.1001 84.4179C35.3147 84.2435 35.5275 84.0691 35.7385 83.8947C35.8833 83.775 36.0273 83.6554 36.1704 83.5357V81.6684H33.3516L33.0501 82.7417H30.985L30.5328 82.3889V77.8604L30.9699 77.5222H33.0501L33.3516 78.5955H36.1704V76.6548L34.1203 74.9786H29.764L27.4276 76.8753V83.3004L29.8545 85.2706ZM37.5111 83.0358V85.2706H42.6362V83.0358L41.8826 82.7417V81.6684L43.0885 80.6833L44.2642 82.7417L43.5105 83.0358V85.2706H48.5301V83.0358L47.4599 82.7417L45.3646 78.9043L47.068 77.5222L48.5301 77.2282V74.9786H43.4955V77.2282L44.2341 77.5222L41.8826 79.5218V77.5222L42.6061 77.2282V74.9786H37.5111V77.2282L38.6567 77.5222V82.7417L37.5111 83.0358ZM47.6074 79.3336L47.8605 79.1282L48.9844 78.9022V81.3643L48.6688 81.2776L47.6074 79.3336ZM49.6114 83.0358V85.2706H58.9271V81.6684H56.6961L56.3947 82.7417H53.8623V80.948H56.3947V79.1837H53.8623V77.5222H56.3947L56.6961 78.5955H58.912V74.9786H49.6114V77.2282L50.757 77.5222V82.7417L49.6114 83.0358ZM60.6997 80.3161V81.5666L61.5185 81.3809L60.6997 80.3161ZM63.3449 82.7417L62.0485 83.0358V85.2706H67.7464V83.0358L66.4652 82.7417V80.8598L69.0126 77.5222L69.9774 77.2282V74.9786H65.8019V77.2282L66.435 77.5222L65.2593 79.2425L64.0986 77.5222L64.7166 77.2282V74.9786H59.8477V77.2282L60.7672 77.5222L63.3449 80.8745V82.7417ZM20.7384 77.5222L20.3314 77.831V82.4036L20.7535 82.7417H22.5774L22.9995 82.4036V77.831L22.5925 77.5222H20.7384Z" fill="#260E0C"/>
<defs>
<linearGradient id="paint0_linear" x1="37.7813" y1="58.6776" x2="37.7813" y2="75.61" gradientUnits="userSpaceOnUse">
<stop stop-color="#D04F27"/>
<stop offset="1" stop-color="#EC7B23"/>
</linearGradient>
<linearGradient id="paint1_linear" x1="37.7813" y1="58.6776" x2="37.7813" y2="75.61" gradientUnits="userSpaceOnUse">
<stop stop-color="#D04F27"/>
<stop offset="1" stop-color="#EC7B23"/>
</linearGradient>
<linearGradient id="paint2_linear" x1="37.7813" y1="58.6776" x2="37.7813" y2="75.61" gradientUnits="userSpaceOnUse">
<stop stop-color="#D04F27"/>
<stop offset="1" stop-color="#EC7B23"/>
</linearGradient>
<linearGradient id="paint3_linear" x1="37.7813" y1="58.6776" x2="37.7813" y2="75.61" gradientUnits="userSpaceOnUse">
<stop stop-color="#D04F27"/>
<stop offset="1" stop-color="#EC7B23"/>
</linearGradient>
<linearGradient id="paint4_linear" x1="37.7813" y1="58.6776" x2="37.7813" y2="75.61" gradientUnits="userSpaceOnUse">
<stop stop-color="#D04F27"/>
<stop offset="1" stop-color="#EC7B23"/>
</linearGradient>
<linearGradient id="paint5_linear" x1="37.9311" y1="72.7405" x2="37.9311" y2="89.24" gradientUnits="userSpaceOnUse">
<stop stop-color="#D04F27"/>
<stop offset="1" stop-color="#EC7B23"/>
</linearGradient>
<linearGradient id="paint6_linear" x1="37.9311" y1="72.7405" x2="37.9311" y2="89.24" gradientUnits="userSpaceOnUse">
<stop stop-color="#D04F27"/>
<stop offset="1" stop-color="#EC7B23"/>
</linearGradient>
<linearGradient id="paint7_linear" x1="37.9311" y1="72.7405" x2="37.9311" y2="89.24" gradientUnits="userSpaceOnUse">
<stop stop-color="#D04F27"/>
<stop offset="1" stop-color="#EC7B23"/>
</linearGradient>
<linearGradient id="paint8_linear" x1="37.9311" y1="72.7405" x2="37.9311" y2="89.24" gradientUnits="userSpaceOnUse">
<stop stop-color="#D04F27"/>
<stop offset="1" stop-color="#EC7B23"/>
</linearGradient>
<linearGradient id="paint9_linear" x1="37.9311" y1="72.7405" x2="37.9311" y2="89.24" gradientUnits="userSpaceOnUse">
<stop stop-color="#D04F27"/>
<stop offset="1" stop-color="#EC7B23"/>
</linearGradient>
<linearGradient id="paint10_linear" x1="37.9311" y1="72.7405" x2="37.9311" y2="89.24" gradientUnits="userSpaceOnUse">
<stop stop-color="#D04F27"/>
<stop offset="1" stop-color="#EC7B23"/>
</linearGradient>
</defs>
</svg>
