<svg xmlns="http://www.w3.org/2000/svg" viewBox="0 0 169.5 37.94"><defs><style>.cls-1{fill:#fff;}</style></defs><title>logo</title><g id="Слой_2" data-name="Слой 2"><g id="Слой_1-2" data-name="Слой 1"><polygon class="cls-1" points="64.4 10.28 64.4 29 62.5 29 62.5 14.02 55.15 26.62 54.21 26.62 46.85 14.1 46.85 29 44.95 29 44.95 10.28 46.59 10.28 54.72 24.16 62.77 10.28 64.4 10.28"/><polygon class="cls-1" points="76.92 22.53 76.92 29 74.97 29 74.97 22.53 67.48 10.28 69.59 10.28 76.01 20.79 82.43 10.28 84.41 10.28 76.92 22.53"/><path class="cls-1" d="M99.47,26.51a3,3,0,0,0,1.28-2.67q0-3.51-5.08-3.51h-6.6v7h6.6a6.79,6.79,0,0,0,3.8-.86m-10.4-14.6V18.7h6a6,6,0,0,0,3.5-.87,2.87,2.87,0,0,0,1.24-2.52,2.89,2.89,0,0,0-1.24-2.53,6,6,0,0,0-3.5-.87Zm12.66,9a4.56,4.56,0,0,1,1,3.06A4.3,4.3,0,0,1,101,27.7,8.85,8.85,0,0,1,95.7,29H87.09V10.28h8.08A8.18,8.18,0,0,1,100,11.53a4.15,4.15,0,0,1,1.72,3.56,4.47,4.47,0,0,1-.76,2.64,4.54,4.54,0,0,1-2.1,1.61,5,5,0,0,1,2.85,1.6"/><path class="cls-1" d="M118.47,20.15a4.25,4.25,0,0,0,1.47-3.45,4.27,4.27,0,0,0-1.47-3.49A6.55,6.55,0,0,0,114.21,12h-5v9.39h5a6.5,6.5,0,0,0,4.26-1.23M120,29l-4.28-6a12.07,12.07,0,0,1-1.49.08h-5V29h-2V10.28h7A8.45,8.45,0,0,1,119.88,12a5.81,5.81,0,0,1,2,4.71,5.81,5.81,0,0,1-4.28,5.88L122.21,29Z"/><path class="cls-1" d="M137.62,22.4l-4.5-10.06L128.63,22.4Zm.72,1.6H127.91l-2.25,5H123.6l8.56-18.72h2L142.67,29h-2.08Z"/><rect class="cls-1" x="145.78" y="10.28" width="1.98" height="18.72"/><polygon class="cls-1" points="169.5 10.28 169.5 29 167.87 29 155.83 13.81 155.83 29 153.85 29 153.85 10.28 155.49 10.28 167.55 25.47 167.55 10.28 169.5 10.28"/><path class="cls-1" d="M27.35,15.33a9.2,9.2,0,0,1-1.68-4.92,36,36,0,0,0-1.4-6.56c-.09-.33-.19-.66-.28-1h-.15c.12.43.25.86.37,1.29a42,42,0,0,1,1.48,7.45A6.47,6.47,0,0,0,27,15a2.55,2.55,0,0,1,.21,2.94c-.84,1.61-1.88,3.08-2.86,4.6a29.22,29.22,0,0,0-2.14,3.87,9.1,9.1,0,0,0-.12,7.49c.4,1,.8,1.91,1.24,2.85l.14,0c-.42-1-.83-1.89-1.23-2.84a9.13,9.13,0,0,1,.25-7.76,47.89,47.89,0,0,1,3.24-5.42,23.07,23.07,0,0,0,1.74-3,2.18,2.18,0,0,0-.08-2.32"/><path class="cls-1" d="M23.29,36.83a.13.13,0,0,1-.12-.07c-.4-.86-.77-1.75-1.13-2.62l-.1-.23a9.3,9.3,0,0,1,.11-7.59,28.09,28.09,0,0,1,2.16-3.88c.24-.38.49-.76.74-1.14a38.92,38.92,0,0,0,2.11-3.46,2.42,2.42,0,0,0-.2-2.8,6.61,6.61,0,0,1-1.29-3.42,41.15,41.15,0,0,0-1.48-7.43L23.72,2.9a.1.1,0,0,1,0-.1.15.15,0,0,1,.09-.06H24a.1.1,0,0,1,.12.09l.29,1a35.16,35.16,0,0,1,1.39,6.55,9.08,9.08,0,0,0,1.66,4.85h0a2.3,2.3,0,0,1,.1,2.45,22.38,22.38,0,0,1-1.75,3l-.52.8a38.24,38.24,0,0,0-2.72,4.61,9,9,0,0,0-.25,7.65c.33.78.77,1.81,1.23,2.84a.17.17,0,0,1,0,.1.16.16,0,0,1-.09.07l-.13,0Z"/><path class="cls-1" d="M28.73,9.73h.11v0l-.12-.06v.08"/><path class="cls-1" d="M28.84,9.86h-.11a.13.13,0,0,1-.12-.11V9.66a.12.12,0,0,1,.17-.12.46.46,0,0,1,.14.07.22.22,0,0,1,.05.08v0a.1.1,0,0,1,0,.09A.12.12,0,0,1,28.84,9.86Z"/><path class="cls-1" d="M30.06,14.07a13.87,13.87,0,0,1-1.22-4.34h-.11l.15,1.21a7.47,7.47,0,0,0,.79,2.56,6.2,6.2,0,0,1-.34,6.43c-.81,1.36-1.81,2.58-2.73,3.86a14.71,14.71,0,0,0-2,3.39,7.17,7.17,0,0,0,0,5.06,19.06,19.06,0,0,0,1.25,2.67,1.09,1.09,0,0,0,.23.09c-.31-.6-.63-1.2-.93-1.81a7.47,7.47,0,0,1,.51-7.84c.76-1.18,1.61-2.28,2.44-3.4a13.33,13.33,0,0,0,2.09-3.71,5.38,5.38,0,0,0-.18-4.17"/><path class="cls-1" d="M26.13,35.13h0a.93.93,0,0,1-.2-.08l-.06,0a.09.09,0,0,1-.06-.06,17.89,17.89,0,0,1-1.25-2.68,7.25,7.25,0,0,1,0-5.15,15.29,15.29,0,0,1,2-3.42c.26-.37.54-.73.81-1.1a31.28,31.28,0,0,0,1.91-2.75,6,6,0,0,0,.34-6.31A8,8,0,0,1,28.75,11c-.05-.41-.09-.81-.14-1.21a.17.17,0,0,1,0-.1.11.11,0,0,1,.09,0h.11a.12.12,0,0,1,.12.11A13.67,13.67,0,0,0,30.17,14a5.54,5.54,0,0,1,.19,4.27A13.19,13.19,0,0,1,28.25,22l-.68.91c-.59.8-1.21,1.63-1.76,2.48a7.4,7.4,0,0,0-.5,7.72c.31.63.64,1.26.93,1.82a.12.12,0,0,1-.11.18Z"/><path class="cls-1" d="M28.88,15.07a11.45,11.45,0,0,1-1.51-4.9c-.09-.9-.24-1.8-.41-2.69a1.46,1.46,0,0,0-.19-.16c.29,1.5.53,3,.71,4.54a6.76,6.76,0,0,0,1.05,2.83,3.43,3.43,0,0,1,.2,3.37,25.93,25.93,0,0,1-3,4.74,21.63,21.63,0,0,0-2.32,3.82,7.87,7.87,0,0,0-.14,6.15A32.91,32.91,0,0,0,24.76,36h.17c-.49-1-1-2-1.43-3.09A7.88,7.88,0,0,1,23.86,26a36.68,36.68,0,0,1,2.91-4.39,16.77,16.77,0,0,0,2.26-4,3,3,0,0,0-.15-2.6"/><path class="cls-1" d="M24.93,36.15h-.17a.11.11,0,0,1-.11-.07,35.36,35.36,0,0,1-1.49-3.27,8,8,0,0,1,.15-6.24,21.61,21.61,0,0,1,2.33-3.84l.43-.6A22.51,22.51,0,0,0,28.62,18a3.31,3.31,0,0,0-.2-3.26,6.9,6.9,0,0,1-1.07-2.87c-.16-1.44-.39-2.92-.7-4.54a.11.11,0,0,1,.05-.12.12.12,0,0,1,.13,0l.14.11.07.06a.13.13,0,0,1,.05.07c.18,1,.32,1.87.4,2.71A11.41,11.41,0,0,0,29,15a3,3,0,0,1,.15,2.7,16.35,16.35,0,0,1-2.27,4l-.61.84A27.12,27.12,0,0,0,24,26.09a7.74,7.74,0,0,0-.36,6.81c.36.88.78,1.75,1.2,2.58L25,36a.13.13,0,0,1,0,.12A.11.11,0,0,1,24.93,36.15Z"/><path class="cls-1" d="M21.36,2.5l-.48-1-.17,0L21,2a12.27,12.27,0,0,1,1.37,7.7c-.39,2.86-.71,5.73-1.15,8.57A45.27,45.27,0,0,1,18.56,27,24.86,24.86,0,0,0,17,33.41a10.49,10.49,0,0,0,.21,3.26q.12.57.27,1.14l.15,0a.19.19,0,0,1,0-.07,13.2,13.2,0,0,1,.11-7.55c.58-2.15,1.41-4.21,2.15-6.31a40.27,40.27,0,0,0,2-9.46c.17-1.65.42-3.29.62-4.94a11.65,11.65,0,0,0-1.11-7"/><path class="cls-1" d="M17.46,37.94a.12.12,0,0,1-.12-.1c-.09-.36-.18-.73-.27-1.14a10.71,10.71,0,0,1-.21-3.3A25.38,25.38,0,0,1,18.45,27l.18-.51a42.92,42.92,0,0,0,2.42-8.22c.28-1.77.5-3.58.72-5.33.14-1.07.28-2.17.42-3.25A12,12,0,0,0,20.84,2l-.24-.45a.12.12,0,0,1,0-.13.11.11,0,0,1,.12-.05h.05l.12,0a.11.11,0,0,1,.09.07l.48,1a11.81,11.81,0,0,1,1.13,7c-.08.63-.17,1.27-.25,1.89-.13,1-.27,2-.37,3a40.49,40.49,0,0,1-2,9.49c-.2.59-.41,1.17-.63,1.75-.53,1.48-1.09,3-1.51,4.55a12.94,12.94,0,0,0-.11,7.49l0,.06a.16.16,0,0,1,0,.1.16.16,0,0,1-.08.06l-.18,0Z"/><path class="cls-1" d="M24.75,15.18a43.72,43.72,0,0,1-.55-5.59,25.26,25.26,0,0,0-1.61-6.8c-.12-.34-.23-.68-.34-1a.46.46,0,0,0-.21-.1c.33,1,.67,1.94,1,2.92a22.27,22.27,0,0,1,1.08,6,29.58,29.58,0,0,0,.45,4.3,10,10,0,0,1-.8,5.73C23,22.48,22,24.21,21.08,26a15.74,15.74,0,0,0-1.7,5.27,9.83,9.83,0,0,0,.49,3.92c.23.75.49,1.49.79,2.22a1.33,1.33,0,0,1,.2,0c-.21-.54-.42-1.08-.64-1.62a10.1,10.1,0,0,1,.09-7.71c.78-2,1.85-3.78,2.79-5.66a15.15,15.15,0,0,0,1.68-5.07,7.24,7.24,0,0,0,0-2.18"/><path class="cls-1" d="M20.86,37.55h-.2a.12.12,0,0,1-.12-.08c-.32-.79-.58-1.52-.79-2.22a10.1,10.1,0,0,1-.5-4A16.15,16.15,0,0,1,21,26c.31-.64.65-1.28,1-1.9a38.43,38.43,0,0,0,1.7-3.47,9.74,9.74,0,0,0,.8-5.67A29.82,29.82,0,0,1,24,10.6a22.12,22.12,0,0,0-1.08-6c-.24-.72-.49-1.45-.73-2.15l-.27-.77a.13.13,0,0,1,0-.12.12.12,0,0,1,.11-.05.63.63,0,0,1,.26.14.07.07,0,0,1,0,.05l.35,1a26,26,0,0,1,1.62,6.83l0,.34a40.27,40.27,0,0,0,.52,5.23h0a7.34,7.34,0,0,1,0,2.22,15.23,15.23,0,0,1-1.69,5.11c-.3.61-.61,1.21-.92,1.79-.66,1.25-1.33,2.54-1.87,3.87a9.92,9.92,0,0,0-.08,7.62L21,37.38a.13.13,0,0,1,0,.12A.12.12,0,0,1,20.86,37.55Z"/><path class="cls-1" d="M19.22,2.22a10.12,10.12,0,0,1-1-2.1l-.14,0c0,.11.08.22.13.33a17.85,17.85,0,0,0,.95,2,8.17,8.17,0,0,1,.89,6c-1.23,6.17-2.38,12.36-3.95,18.47A31.6,31.6,0,0,0,15,34a15.4,15.4,0,0,0,.24,3.12l.15.08a19.61,19.61,0,0,1,.1-6.83c.63-3.55,1.68-7,2.4-10.53q1.15-5.65,2.27-11.31a8.77,8.77,0,0,0-1-6.35"/><path class="cls-1" d="M15.41,37.36h-.05l0,0-.11,0a.16.16,0,0,1-.07-.09A15.36,15.36,0,0,1,14.9,34,31.21,31.21,0,0,1,16,26.9c1.33-5.16,2.37-10.46,3.38-15.59l.57-2.88a8,8,0,0,0-.87-5.92A16.35,16.35,0,0,1,18.12.58l0,0c0-.11-.09-.22-.13-.34a.11.11,0,0,1,0-.1S18,0,18.05,0l.16,0a.13.13,0,0,1,.13.09,9.87,9.87,0,0,0,1,2.07,8.78,8.78,0,0,1,1,6.43c-.76,3.89-1.54,7.72-2.27,11.31-.32,1.55-.7,3.1-1.07,4.6-.48,1.93-1,3.93-1.32,5.93a19.23,19.23,0,0,0-.1,6.79.15.15,0,0,1,0,.12Z"/><path class="cls-1" d="M6,20.88a32.24,32.24,0,0,0,2.26-3.8,11.82,11.82,0,0,0,1.14-5.85c-.14-2.85-.25-5.7-.28-8.55a.33.33,0,0,0-.14,0c0,2.75.14,5.49.27,8.24a14.38,14.38,0,0,1-.12,2.93,14.36,14.36,0,0,1-2.41,5.67c-.84,1.3-1.72,2.56-2.43,3.94a6.4,6.4,0,0,0,.17,6.67c.78,1.31,1.57,2.61,2.3,3.95a6.77,6.77,0,0,1,.81,2.56h.15a6.5,6.5,0,0,0-.74-2.45c-.61-1.16-1.29-2.28-2-3.4-.26-.43-.49-.87-.73-1.31a5.76,5.76,0,0,1-.16-5.31A22.29,22.29,0,0,1,6,20.88"/><path class="cls-1" d="M7.53,36.77a.13.13,0,0,1-.08,0,.13.13,0,0,1,0-.09,6.7,6.7,0,0,0-.8-2.51C6,33,5.29,31.83,4.62,30.72l-.31-.52a6.52,6.52,0,0,1-.17-6.8c.57-1.1,1.26-2.15,1.92-3.17q.27-.37.51-.78A14.2,14.2,0,0,0,9,13.83a15,15,0,0,0,.12-2.91c-.16-3.31-.24-5.85-.27-8.24a.13.13,0,0,1,.09-.12.31.31,0,0,1,.19,0,.12.12,0,0,1,.1.12c0,2.53.12,5.25.28,8.55a12.22,12.22,0,0,1-1.14,5.91A32.52,32.52,0,0,1,6.06,21a22.79,22.79,0,0,0-1.85,3.27,5.56,5.56,0,0,0,.15,5.2l.11.2c.19.37.4.74.61,1.1l0,.08c.65,1.08,1.32,2.19,1.92,3.34a6.71,6.71,0,0,1,.75,2.49.11.11,0,0,1,0,.09.12.12,0,0,1-.1,0H7.53Z"/><path class="cls-1" d="M9.85,17.51a11.19,11.19,0,0,0,1.91-6.92c-.07-1.29-.19-2.58-.34-3.87a17.44,17.44,0,0,1-.06-5c0-.09,0-.17,0-.26h-.2a14.13,14.13,0,0,0-.14,2.68c.09,1.54.29,3.07.43,4.6a16.13,16.13,0,0,1-.12,5,14.6,14.6,0,0,1-2.48,5,25.39,25.39,0,0,0-2.36,3.86,6.29,6.29,0,0,0-.2,4.89,21.66,21.66,0,0,0,1.61,3.19,9.52,9.52,0,0,1,1.31,5.83c0,.3-.07.6-.12.89a.45.45,0,0,0,.16,0,10,10,0,0,0-1.23-6.78q-.51-.86-1-1.74a7.83,7.83,0,0,1-1-3.4,7.46,7.46,0,0,1,1.29-4.12C8.16,20,9,18.77,9.85,17.51"/><path class="cls-1" d="M9.13,37.49a.18.18,0,0,1-.09,0,.19.19,0,0,1,0-.1c.05-.33.08-.62.11-.9a9.33,9.33,0,0,0-1.28-5.74l-.13-.22a21,21,0,0,1-1.49-3,6.39,6.39,0,0,1,.2-5,20.46,20.46,0,0,1,2-3.38l.34-.5a14.67,14.67,0,0,0,2.45-5,16,16,0,0,0,.13-5c0-.57-.12-1.15-.17-1.72C11.1,6,11,5.06,10.93,4.1a15.09,15.09,0,0,1,.15-2.71.12.12,0,0,1,.12-.1h.2a.12.12,0,0,1,.1,0,.17.17,0,0,1,0,.1c0,.09,0,.18,0,.27a17,17,0,0,0,.06,5v0c.16,1.47.27,2.7.33,3.87a11.32,11.32,0,0,1-1.93,7c-.28.44-.57.87-.86,1.3-.54.81-1.1,1.64-1.63,2.48A7.16,7.16,0,0,0,6.2,25.41a7.69,7.69,0,0,0,1,3.34c.25.48.58,1.12,1,1.74a9.94,9.94,0,0,1,1.25,6.86.16.16,0,0,1-.1.11l-.16,0Zm.16-.16Z"/><path class="cls-1" d="M2.37,13l-.13,0a3.77,3.77,0,0,1-1,3.14L1,16.35l.17.08A4.45,4.45,0,0,0,2.37,13"/><path class="cls-1" d="M1.15,16.56l-.06,0-.16-.08a.11.11,0,0,1-.07-.08.14.14,0,0,1,0-.11L1.12,16a3.72,3.72,0,0,0,1-3,.1.1,0,0,1,0-.1.13.13,0,0,1,.1,0l.15,0a.13.13,0,0,1,.09.11,4.53,4.53,0,0,1-1.25,3.55A.11.11,0,0,1,1.15,16.56Z"/><path class="cls-1" d="M29.84,29.84a.57.57,0,0,0,.13-.08A6.21,6.21,0,0,1,31,26l.36-.52a1.13,1.13,0,0,0-.1-.13,7,7,0,0,0-1.44,4.48"/><path class="cls-1" d="M29.84,30a.1.1,0,0,1-.07,0,.11.11,0,0,1-.05-.09,7.05,7.05,0,0,1,1.46-4.56.14.14,0,0,1,.1-.05.1.1,0,0,1,.1,0,1.3,1.3,0,0,1,.1.15.12.12,0,0,1,0,.14l-.35.51a6,6,0,0,0-1,3.67.14.14,0,0,1,0,.09.57.57,0,0,1-.18.12Z"/><path class="cls-1" d="M29.63,25.69a7,7,0,0,0-.84,6.12l.14,0a6.82,6.82,0,0,1-.2-3.65,9.05,9.05,0,0,1,1.85-3.54c.43-.54.87-1.08,1.31-1.61l-.06-.13a28.92,28.92,0,0,0-2.2,2.83"/><path class="cls-1" d="M28.79,31.93a.12.12,0,0,1-.12-.08,7.17,7.17,0,0,1,.86-6.22h0a27.9,27.9,0,0,1,2.2-2.85.16.16,0,0,1,.11-.05.13.13,0,0,1,.1.07l.07.14a.12.12,0,0,1,0,.13c-.51.61-.92,1.12-1.31,1.61a9.08,9.08,0,0,0-1.83,3.49,6.67,6.67,0,0,0,.2,3.58.11.11,0,0,1,0,.1.16.16,0,0,1-.08.06l-.16,0Z"/><path class="cls-1" d="M31.49,21.6c-.95,1.26-2,2.46-2.92,3.72a6.94,6.94,0,0,0-1.49,5,7.61,7.61,0,0,0,.79,2.57H28a3.55,3.55,0,0,1-.21-.44,6.5,6.5,0,0,1,.51-6.54,20.3,20.3,0,0,1,1.36-1.84c.74-.9,1.52-1.78,2.18-2.75a.48.48,0,0,0-.06-.18c-.1.15-.21.29-.32.44"/><path class="cls-1" d="M27.94,33.05h-.09a.14.14,0,0,1-.1-.07A7.75,7.75,0,0,1,27,30.36a7,7,0,0,1,1.52-5.12c.48-.65,1-1.3,1.5-1.92s1-1.19,1.41-1.8h0c.11-.14.22-.28.32-.43a.11.11,0,0,1,.11-.06.14.14,0,0,1,.1.07.81.81,0,0,1,.07.22.15.15,0,0,1,0,.09,25.53,25.53,0,0,1-1.69,2.16l-.49.6A20.27,20.27,0,0,0,28.43,26a6.47,6.47,0,0,0-.5,6.43l.21.44a.2.2,0,0,1,0,.11.15.15,0,0,1-.09.07Z"/><path class="cls-1" d="M30.14,21.22c-.95,1.29-2,2.53-2.93,3.83a7.21,7.21,0,0,0-.55,8.31l.31.57.18.06a14.92,14.92,0,0,1-1-2.06,6.57,6.57,0,0,1,.34-5.48,16.65,16.65,0,0,1,1.95-2.82,34.46,34.46,0,0,0,2.29-3.07,8.46,8.46,0,0,0,.73-1.48l-.13,0a9.78,9.78,0,0,1-1.22,2.18"/><path class="cls-1" d="M27.15,34.11h0l-.13,0,0,0a.12.12,0,0,1-.08-.06l-.05-.09c-.09-.16-.18-.32-.26-.48A7.33,7.33,0,0,1,27.11,25c.49-.67,1-1.32,1.5-2s1-1.25,1.43-1.88h0A9.09,9.09,0,0,0,31.24,19a.12.12,0,0,1,.15-.07l.14,0a.12.12,0,0,1,.07.07.1.1,0,0,1,0,.09,8.16,8.16,0,0,1-.75,1.51,29,29,0,0,1-2,2.72l-.29.35a17.49,17.49,0,0,0-1.93,2.81,6.41,6.41,0,0,0-.33,5.38,13.92,13.92,0,0,0,1,2,.12.12,0,0,1-.11.18Zm3-12.89Z"/><path class="cls-1" d="M12.06,16.85A9.59,9.59,0,0,0,14,10.94a14.91,14.91,0,0,0-.55-3.18,10.74,10.74,0,0,1-.31-5A10,10,0,0,0,13.26.31l-.12,0V.67c0,1-.2,2-.3,3a13.31,13.31,0,0,0,.53,4.61,11.28,11.28,0,0,1,.4,4.09,11.16,11.16,0,0,1-2,4.67,31.86,31.86,0,0,0-2.73,4.33,7.73,7.73,0,0,0-.36,5.95A19.83,19.83,0,0,0,9.78,29.8a10.9,10.9,0,0,1,.88,7.26c0,.18-.07.37-.11.55l.14,0c0-.07,0-.13.05-.2a11.38,11.38,0,0,0-1-8c-.22-.42-.39-.87-.59-1.31a7.89,7.89,0,0,1,.47-7.62c.74-1.27,1.62-2.43,2.42-3.65"/><path class="cls-1" d="M10.69,37.77h0a.31.31,0,0,0-.13,0,.15.15,0,0,1-.09-.06.13.13,0,0,1,0-.09l.12-.56a10.78,10.78,0,0,0-.87-7.18,18,18,0,0,1-1.09-2.52,7.91,7.91,0,0,1,.35-6,22.78,22.78,0,0,1,2-3.25c.25-.36.51-.72.75-1.09a10.88,10.88,0,0,0,2-4.62,11.11,11.11,0,0,0-.39-4,13.6,13.6,0,0,1-.54-4.66c0-.29.07-.58.11-.88A17.89,17.89,0,0,0,13,.67c0-.13,0-.25,0-.37a.12.12,0,0,1,0-.1.17.17,0,0,1,.1,0l.13,0a.12.12,0,0,1,.1.11,9.77,9.77,0,0,1-.17,2.51,10.68,10.68,0,0,0,.31,4.92,16.2,16.2,0,0,1,.56,3.2,9.87,9.87,0,0,1-1.92,6h0c-.3.46-.62.92-.92,1.36-.51.74-1,1.5-1.49,2.28a7.75,7.75,0,0,0-.47,7.51c.07.14.13.29.2.44a8.36,8.36,0,0,0,.39.86,11.46,11.46,0,0,1,1,8.11l0,.19a.1.1,0,0,1-.05.08Zm1.37-20.92Z"/><path class="cls-1" d="M14.46,15.1a10.54,10.54,0,0,0,1.29-5.5,16.22,16.22,0,0,0-.66-3.06,9.06,9.06,0,0,1-.17-4.9A7.44,7.44,0,0,0,15.14.25.49.49,0,0,1,15,.14a8.47,8.47,0,0,1-.25,1.63,8.37,8.37,0,0,0,.12,4.52c.19.62.34,1.25.5,1.87a8.22,8.22,0,0,1-.15,4.66A24.31,24.31,0,0,1,13.34,17a18.31,18.31,0,0,0-2.23,9.07A28.86,28.86,0,0,0,12,32.19a21,21,0,0,1,.65,5.45l.11,0a17.16,17.16,0,0,0-.28-3.77c-.32-1.76-.83-3.49-1-5.27a19,19,0,0,1,1-9.16c.56-1.49,1.4-2.85,2.07-4.3"/><path class="cls-1" d="M12.63,37.76l-.08,0a.16.16,0,0,1-.05-.11,20.75,20.75,0,0,0-.64-5.41A29.2,29.2,0,0,1,11,26.06a18.38,18.38,0,0,1,2.24-9.13,24.63,24.63,0,0,0,1.87-4.15,8.15,8.15,0,0,0,.15-4.59l-.11-.44c-.12-.47-.24-1-.38-1.43a8.42,8.42,0,0,1-.13-4.58,8,8,0,0,0,.24-1.6A.12.12,0,0,1,15,0a.11.11,0,0,1,.12,0l0,0,.09.06a.14.14,0,0,1,.07.12A8.29,8.29,0,0,1,15,1.67a8.91,8.91,0,0,0,.17,4.84,15.67,15.67,0,0,1,.66,3.08,10.69,10.69,0,0,1-1.3,5.57h0c-.25.54-.53,1.08-.8,1.6a25.44,25.44,0,0,0-1.27,2.69,18.86,18.86,0,0,0-.95,9.1,32.7,32.7,0,0,0,.62,3.28c.14.64.29,1.31.41,2a16.57,16.57,0,0,1,.28,3.79.12.12,0,0,1-.08.11l-.12,0ZM14.46,15.1Z"/><path class="cls-1" d="M1.07,20.54c.78-1.17,1.67-2.27,2.42-3.47a6.43,6.43,0,0,0,.94-4.81c-.2-1-.41-2-.52-3l-.14,0a19.76,19.76,0,0,0,.44,2.61,6.43,6.43,0,0,1-1,5.44L1.82,19.22c-.59.84-1.19,1.67-1.7,2.57l.16,0c.24-.44.51-.86.79-1.28"/><path class="cls-1" d="M.28,21.94h0l-.14,0a.14.14,0,0,1-.1-.07.13.13,0,0,1,0-.12c.47-.84,1-1.64,1.58-2.42l.12-.17c.48-.67.91-1.28,1.34-1.91a6.28,6.28,0,0,0,1-5.34,19.76,19.76,0,0,1-.44-2.63.11.11,0,0,1,.07-.12.41.41,0,0,1,.18-.05A.12.12,0,0,1,4,9.2c.1.93.29,1.86.46,2.77l.06.27a6.48,6.48,0,0,1-1,4.9c-.43.68-.91,1.34-1.37,2-.35.48-.71,1-1.05,1.48h0c-.33.5-.57.89-.79,1.27A.11.11,0,0,1,.28,21.94Z"/><path class="cls-1" d="M3.23,33c-.6-1.24-1.29-2.43-1.78-3.73a5.85,5.85,0,0,1,0-4.18,15.78,15.78,0,0,1,1.3-2.68c.78-1.33,1.68-2.58,2.44-3.93a11.5,11.5,0,0,0,1.6-6.77,61.22,61.22,0,0,1-.29-6.5.91.91,0,0,0,0-.17H6.33c0,.24,0,.48,0,.72,0,2,.1,4,.29,6A11.57,11.57,0,0,1,4.71,19c-1,1.6-2.06,3.12-2.91,4.8a6.76,6.76,0,0,0-.17,6.36C2.1,31.09,2.58,32,3,33c.24.52.48,1,.69,1.56l.17,0c-.21-.49-.42-1-.66-1.46"/><path class="cls-1" d="M3.72,34.65a.12.12,0,0,1-.11-.08c-.22-.52-.45-1-.7-1.56S2.33,31.82,2,31.24c-.17-.34-.35-.69-.52-1a6.83,6.83,0,0,1,.17-6.46,33.71,33.71,0,0,1,1.9-3.2c.34-.53.69-1.07,1-1.62a11.4,11.4,0,0,0,1.88-7.11,59.32,59.32,0,0,1-.29-6V5.07A.12.12,0,0,1,6.32,5h.16a.12.12,0,0,1,.11.12v.18a58.31,58.31,0,0,0,.29,6.48,11.5,11.5,0,0,1-1.62,6.84c-.43.75-.9,1.48-1.35,2.19s-.75,1.15-1.1,1.74a15.52,15.52,0,0,0-1.28,2.66,5.69,5.69,0,0,0,0,4.1,24.87,24.87,0,0,0,1.19,2.56L3.34,33h0c.23.48.46,1,.66,1.48a.09.09,0,0,1,0,.11.11.11,0,0,1-.1.06H3.72Z"/><path class="cls-1" d="M18.17,6.36a12,12,0,0,0-.84-2.6,10.74,10.74,0,0,1-.67-2.08,5.9,5.9,0,0,1-.06-.59.38.38,0,0,0-.15,0c0,.2,0,.4.07.6a12.68,12.68,0,0,0,1,2.82A8,8,0,0,1,18,9c-.28,1.88-.77,3.7-1.13,5.56-.69,3.51-1.32,7-2,10.55-.36,1.87-.7,3.75-.9,5.65a20.65,20.65,0,0,0,.28,6l.12,0a23.7,23.7,0,0,1,.18-9.19c1.14-5.59,2-11.23,3.28-16.79a11.35,11.35,0,0,0,.37-4.38"/><path class="cls-1" d="M14.34,36.84h0l-.13,0a.14.14,0,0,1-.11-.1,21.47,21.47,0,0,1-.28-6c.2-1.81.5-3.57.91-5.65.31-1.6.61-3.24.91-4.81.35-1.89.71-3.83,1.09-5.75.13-.7.29-1.41.45-2.1.25-1.13.51-2.29.68-3.44a8,8,0,0,0-.48-4.37l-.16-.39a10.76,10.76,0,0,1-.81-2.46,4.07,4.07,0,0,1-.07-.61A.14.14,0,0,1,16.42,1a.45.45,0,0,1,.2,0,.13.13,0,0,1,.1.11,4.93,4.93,0,0,0,.06.58,10.67,10.67,0,0,0,.66,2.05l.09.22a10.91,10.91,0,0,1,.76,2.41h0a11.42,11.42,0,0,1-.37,4.43c-.79,3.37-1.42,6.83-2,10.18-.39,2.17-.8,4.41-1.25,6.6a23.38,23.38,0,0,0-.18,9.14.11.11,0,0,1,0,.11A.1.1,0,0,1,14.34,36.84Z"/></g></g></svg>