<svg width="1382" height="507" viewBox="0 0 1382 507" fill="none" xmlns="http://www.w3.org/2000/svg"><g opacity=".4"><path stroke="#fff" d="M1035.56 18.491v488"/><path opacity=".2" d="M346.739 472.929c-174.347 0-174.347-86.265-345.739-86.265V505.43h1380V386.664c-171.39 0-171.39-369.98-345.74-369.98-171.391 0-171.391 289.466-345.738 289.466-171.392 0-171.392 166.779-342.783 166.779z" fill="url(#paint0_linear_345_356)"/><path d="M1 386.664c171.392 0 171.392 86.265 345.739 86.265 171.391 0 171.391-166.779 342.783-166.779 174.347 0 174.347-289.466 345.738-289.466 174.35 0 174.35 369.98 345.74 369.98" stroke="#E5E5E5" stroke-width="2" stroke-linecap="round"/></g><circle cx="1036.39" cy="18.741" r="18" fill="#fff"/><defs><linearGradient id="paint0_linear_345_356" x1="691" y1="16.684" x2="676.662" y2="539.085" gradientUnits="userSpaceOnUse"><stop stop-color="#fff"/><stop offset=".255" stop-color="#fff"/><stop offset="1" stop-color="#fff" stop-opacity="0"/></linearGradient></defs></svg>