<svg width="1294" height="589" viewBox="0 0 1294 589" fill="none" xmlns="http://www.w3.org/2000/svg"><g opacity=".4" filter="url(#filter0_d_45_3039)"><path d="M248.934 381H1149l115 138H112.736l136.198-138z" fill="#0B1D26"/></g><g opacity=".4" filter="url(#filter1_d_45_3039)"><path d="M248.934 311H1149l115 138H112.736l136.198-138z" fill="#112C39"/></g><g filter="url(#filter2_d_45_3039)"><path d="M248.934 231H1149l115 138H112.736l136.198-138z" fill="#0E2633"/></g><path opacity=".2" d="M285.06 342.661c-142.739 0-142.739-64.599-283.06-64.599V367l1262 2-76.5-90.5c-147-5-200-279.56-338.738-277.5-140.305 2.083-140.32 216.768-283.06 216.768-21.215 0-39.223 2.855-54.993 7.702-88.535 27.209-106.543 117.191-225.649 117.191z" fill="url(#paint0_linear_45_3039)"/><path d="M1 278.336c140.267 0 140.267 64.664 282.953 64.664 140.268 0 140.268-125.017 280.535-125.017C707.174 217.983 707.174 1 847.441 1 990.127 1 1047.23 278.5 1187.5 278.5" stroke="url(#paint1_linear_45_3039)" stroke-width="2" stroke-linecap="round"/><g clip-path="url(#clip0_45_3039)"><path fill-rule="evenodd" clip-rule="evenodd" d="M195.141 402.803a.657.657 0 00-.485-.22.657.657 0 00-.485.22l-5.814 6.364a.783.783 0 00-.201.53c0 .199.072.39.201.53.128.141.303.22.484.22a.657.657 0 00.485-.22l4.645-5.084-.001 21.524c0 .099.018.197.052.288a.754.754 0 00.149.243.69.69 0 00.222.163.636.636 0 00.526 0 .69.69 0 00.222-.163.754.754 0 00.149-.243.825.825 0 00.052-.288l-.001-21.524 4.645 5.084c.129.141.303.22.485.22a.653.653 0 00.484-.22.783.783 0 00.201-.53.783.783 0 00-.201-.53l-5.814-6.364z" fill="#183646"/></g><g clip-path="url(#clip1_45_3039)"><path fill-rule="evenodd" clip-rule="evenodd" d="M581.009 402.803a.657.657 0 00-.485-.22.653.653 0 00-.484.22l-5.815 6.364a.783.783 0 00-.201.53c0 .199.072.39.201.53.128.141.303.22.484.22a.657.657 0 00.485-.22l4.645-5.084-.001 21.524c0 .099.018.197.052.288a.754.754 0 00.149.243c.064.07.139.125.223.163a.628.628 0 00.525 0 .737.737 0 00.371-.406.803.803 0 00.052-.288l-.001-21.524 4.645 5.084c.129.141.303.22.485.22a.657.657 0 00.485-.22c.128-.14.2-.331.2-.53a.787.787 0 00-.2-.53l-5.815-6.364z" fill="#183646"/></g><g clip-path="url(#clip2_45_3039)"><path fill-rule="evenodd" clip-rule="evenodd" d="M966.591 402.803a.655.655 0 00-.484-.22.657.657 0 00-.485.22l-5.815 6.364a.787.787 0 00-.2.53c0 .199.072.39.2.53.129.141.303.22.485.22a.653.653 0 00.484-.22l4.646-5.084-.001 21.524c0 .099.017.197.052.288a.737.737 0 00.371.406.632.632 0 00.525 0 .683.683 0 00.223-.163.754.754 0 00.149-.243.825.825 0 00.052-.288l-.001-21.524 4.645 5.084c.128.141.303.22.484.22a.655.655 0 00.485-.22.783.783 0 00.201-.53.783.783 0 00-.201-.53l-5.815-6.364z" fill="#183646"/></g><g clip-path="url(#clip3_45_3039)"><path fill-rule="evenodd" clip-rule="evenodd" d="M388.218 402.803a.655.655 0 00-.484-.22.657.657 0 00-.485.22l-5.815 6.364a.787.787 0 00-.2.53c0 .199.072.39.2.53.129.141.303.22.485.22a.653.653 0 00.484-.22l4.645-5.084v21.524a.803.803 0 00.2.531c.064.07.14.125.223.163a.632.632 0 00.525 0 .693.693 0 00.223-.163.754.754 0 00.149-.243.825.825 0 00.052-.288l-.001-21.524 4.645 5.084c.128.141.303.22.484.22a.657.657 0 00.485-.22.788.788 0 00.201-.53.788.788 0 00-.201-.53l-5.815-6.364z" fill="#183646"/></g><g clip-path="url(#clip4_45_3039)"><path fill-rule="evenodd" clip-rule="evenodd" d="M774.086 402.803a.653.653 0 00-.484-.22.657.657 0 00-.485.22l-5.815 6.364a.787.787 0 00-.2.53c0 .199.072.39.2.53.129.141.303.22.485.22a.657.657 0 00.485-.22l4.645-5.084-.001 21.524c0 .099.017.197.052.288a.737.737 0 00.371.406.632.632 0 00.525 0 .683.683 0 00.223-.163.754.754 0 00.149-.243.825.825 0 00.052-.288l-.001-21.524 4.645 5.084c.129.141.303.22.485.22a.655.655 0 00.484-.22.783.783 0 00.201-.53.783.783 0 00-.201-.53l-5.815-6.364z" fill="#183646"/></g><g clip-path="url(#clip5_45_3039)"><path fill-rule="evenodd" clip-rule="evenodd" d="M295.647 474.803a.653.653 0 00-.484-.22.657.657 0 00-.485.22l-5.814 6.364a.783.783 0 00-.201.53c0 .199.072.39.201.53.128.141.302.22.484.22a.657.657 0 00.485-.22l4.645-5.084-.001 21.524c0 .099.017.197.052.288a.737.737 0 00.371.406.636.636 0 00.525 0 .683.683 0 00.223-.163.754.754 0 00.149-.243.825.825 0 00.052-.288l-.001-21.524 4.645 5.084c.129.141.303.22.485.22a.655.655 0 00.484-.22.783.783 0 00.201-.53.783.783 0 00-.201-.53l-5.815-6.364z" fill="#0F2734"/></g><g clip-path="url(#clip6_45_3039)"><path fill-rule="evenodd" clip-rule="evenodd" d="M681.516 474.803a.655.655 0 00-.484-.22.655.655 0 00-.485.22l-5.815 6.364a.788.788 0 00-.201.53c0 .199.073.39.201.53.129.141.303.22.485.22a.655.655 0 00.484-.22l4.645-5.084-.001 21.524a.804.804 0 00.201.531c.064.07.14.125.223.163a.629.629 0 00.525 0 .693.693 0 00.223-.163.804.804 0 00.201-.531l-.001-21.524 4.645 5.084c.128.141.303.22.484.22a.657.657 0 00.485-.22.788.788 0 00.201-.53.788.788 0 00-.201-.53l-5.815-6.364z" fill="#0F2734"/></g><g clip-path="url(#clip7_45_3039)"><path fill-rule="evenodd" clip-rule="evenodd" d="M1067.1 474.803a.656.656 0 00-.49-.22c-.18 0-.35.079-.48.22l-5.82 6.364c-.12.14-.2.331-.2.53s.08.39.2.53c.13.141.31.22.49.22s.35-.079.48-.22l4.65-5.084v21.524c0 .099.02.197.05.288.03.091.08.174.15.243.06.07.14.125.22.163.08.038.17.057.26.057a.69.69 0 00.27-.057.794.794 0 00.22-.163.956.956 0 00.15-.243.927.927 0 00.05-.288v-21.524l4.64 5.084c.13.141.31.22.49.22s.35-.079.48-.22c.13-.14.2-.331.2-.53s-.07-.39-.2-.53l-5.81-6.364z" fill="#0F2734"/></g><g clip-path="url(#clip8_45_3039)"><path fill-rule="evenodd" clip-rule="evenodd" d="M488.725 474.803a.655.655 0 00-.485-.22.655.655 0 00-.484.22l-5.815 6.364a.788.788 0 00-.201.53c0 .199.073.39.201.53.129.141.303.22.485.22a.655.655 0 00.484-.22l4.645-5.084-.001 21.524a.804.804 0 00.201.531c.064.07.14.125.223.163a.628.628 0 00.525 0 .693.693 0 00.223-.163.804.804 0 00.201-.531l-.001-21.524 4.645 5.084c.128.141.303.22.484.22a.657.657 0 00.485-.22.788.788 0 00.201-.53.788.788 0 00-.201-.53l-5.815-6.364z" fill="#0F2734"/></g><g clip-path="url(#clip9_45_3039)"><path fill-rule="evenodd" clip-rule="evenodd" d="M874.593 474.803a.655.655 0 00-.484-.22.657.657 0 00-.485.22l-5.815 6.364a.787.787 0 00-.2.53c0 .199.072.39.2.53.129.141.303.22.485.22a.653.653 0 00.484-.22l4.645-5.084v21.524a.803.803 0 00.2.531c.064.07.14.125.223.163a.632.632 0 00.525 0 .693.693 0 00.223-.163.754.754 0 00.149-.243.825.825 0 00.052-.288l-.001-21.524 4.645 5.084c.128.141.303.22.484.22a.657.657 0 00.485-.22.788.788 0 00.201-.53.788.788 0 00-.201-.53l-5.815-6.364z" fill="#0F2734"/></g><g clip-path="url(#clip10_45_3039)"><path fill-rule="evenodd" clip-rule="evenodd" d="M1159.67 402.803a.656.656 0 00-.49-.22c-.18 0-.35.079-.48.22l-5.82 6.364c-.12.14-.2.331-.2.53s.08.39.2.53c.13.141.31.22.49.22s.36-.079.48-.22l4.65-5.084v21.524c0 .099.02.197.05.288.03.091.08.174.15.243.06.07.14.125.22.163.08.038.17.057.26.057a.69.69 0 00.27-.057.671.671 0 00.22-.163.956.956 0 00.15-.243.927.927 0 00.05-.288v-21.524l4.64 5.084c.13.141.31.22.49.22s.35-.079.48-.22c.13-.14.2-.331.2-.53s-.07-.39-.2-.53l-5.81-6.364z" fill="#183646"/></g><defs><clipPath id="clip0_45_3039"><path fill="#fff" transform="matrix(.67453 -.73824 .67453 .73824 179.15 415)" d="M0 0h22.988v22.988H0z"/></clipPath><clipPath id="clip1_45_3039"><path fill="#fff" transform="matrix(.67453 -.73824 .67453 .73824 565.018 415)" d="M0 0h22.988v22.988H0z"/></clipPath><clipPath id="clip2_45_3039"><path fill="#fff" transform="matrix(.67453 -.73824 .67453 .73824 950.601 415)" d="M0 0h22.988v22.988H0z"/></clipPath><clipPath id="clip3_45_3039"><path fill="#fff" transform="matrix(.67453 -.73824 .67453 .73824 372.228 415)" d="M0 0h22.988v22.988H0z"/></clipPath><clipPath id="clip4_45_3039"><path fill="#fff" transform="matrix(.67453 -.73824 .67453 .73824 758.096 415)" d="M0 0h22.988v22.988H0z"/></clipPath><clipPath id="clip5_45_3039"><path fill="#fff" transform="matrix(.67453 -.73824 .67453 .73824 279.657 487)" d="M0 0h22.988v22.988H0z"/></clipPath><clipPath id="clip6_45_3039"><path fill="#fff" transform="matrix(.67453 -.73824 .67453 .73824 665.525 487)" d="M0 0h22.988v22.988H0z"/></clipPath><clipPath id="clip7_45_3039"><path fill="#fff" transform="matrix(.67453 -.73824 .67453 .73824 1051.11 487)" d="M0 0h22.988v22.988H0z"/></clipPath><clipPath id="clip8_45_3039"><path fill="#fff" transform="matrix(.67453 -.73824 .67453 .73824 472.734 487)" d="M0 0h22.988v22.988H0z"/></clipPath><clipPath id="clip9_45_3039"><path fill="#fff" transform="matrix(.67453 -.73824 .67453 .73824 858.603 487)" d="M0 0h22.988v22.988H0z"/></clipPath><clipPath id="clip10_45_3039"><path fill="#fff" transform="matrix(.67453 -.73824 .67453 .73824 1143.68 415)" d="M0 0h22.988v22.988H0z"/></clipPath><filter id="filter0_d_45_3039" x="42.736" y="351" width="1251.26" height="238" filterUnits="userSpaceOnUse" color-interpolation-filters="sRGB"><feFlood flood-opacity="0" result="BackgroundImageFix"/><feColorMatrix in="SourceAlpha" values="0 0 0 0 0 0 0 0 0 0 0 0 0 0 0 0 0 0 127 0" result="hardAlpha"/><feOffset dx="-20" dy="20"/><feGaussianBlur stdDeviation="25"/><feColorMatrix values="0 0 0 0 0 0 0 0 0 0 0 0 0 0 0 0 0 0 0.25 0"/><feBlend in2="BackgroundImageFix" result="effect1_dropShadow_45_3039"/><feBlend in="SourceGraphic" in2="effect1_dropShadow_45_3039" result="shape"/></filter><filter id="filter1_d_45_3039" x="42.736" y="281" width="1251.26" height="238" filterUnits="userSpaceOnUse" color-interpolation-filters="sRGB"><feFlood flood-opacity="0" result="BackgroundImageFix"/><feColorMatrix in="SourceAlpha" values="0 0 0 0 0 0 0 0 0 0 0 0 0 0 0 0 0 0 127 0" result="hardAlpha"/><feOffset dx="-20" dy="20"/><feGaussianBlur stdDeviation="25"/><feColorMatrix values="0 0 0 0 0 0 0 0 0 0 0 0 0 0 0 0 0 0 0.25 0"/><feBlend in2="BackgroundImageFix" result="effect1_dropShadow_45_3039"/><feBlend in="SourceGraphic" in2="effect1_dropShadow_45_3039" result="shape"/></filter><filter id="filter2_d_45_3039" x="42.736" y="201" width="1251.26" height="238" filterUnits="userSpaceOnUse" color-interpolation-filters="sRGB"><feFlood flood-opacity="0" result="BackgroundImageFix"/><feColorMatrix in="SourceAlpha" values="0 0 0 0 0 0 0 0 0 0 0 0 0 0 0 0 0 0 127 0" result="hardAlpha"/><feOffset dx="-20" dy="20"/><feGaussianBlur stdDeviation="25"/><feColorMatrix values="0 0 0 0 0 0 0 0 0 0 0 0 0 0 0 0 0 0 0.25 0"/><feBlend in2="BackgroundImageFix" result="effect1_dropShadow_45_3039"/><feBlend in="SourceGraphic" in2="effect1_dropShadow_45_3039" result="shape"/></filter><linearGradient id="paint0_linear_45_3039" x1="566.911" y1="1" x2="557.089" y2="392.251" gradientUnits="userSpaceOnUse"><stop stop-color="#fff" stop-opacity=".51"/><stop offset=".255" stop-color="#fff" stop-opacity=".29"/><stop offset="1" stop-color="#fff" stop-opacity="0"/></linearGradient><linearGradient id="paint1_linear_45_3039" x1="249.74" y1="356.385" x2="358.485" y2="87.015" gradientUnits="userSpaceOnUse"><stop offset=".13" stop-color="#50E3C2"/><stop offset=".245" stop-color="#31D0AD"/><stop offset=".359" stop-color="#2BB596"/><stop offset=".484" stop-color="#4AD3B5"/><stop offset=".745" stop-color="#76F5D9"/></linearGradient></defs></svg>