<svg width="152" height="26" viewBox="0 0 152 26" fill="none" xmlns="http://www.w3.org/2000/svg"><path d="M18.842 5.72H6.386c-.422 0-.791.364-.791.78v1.196c0 .416.37.78.791.78h4.803v11.18c0 .416.37.78.792.78h1.214c.422 0 .791-.364.791-.78V8.476h4.803c.422 0 .792-.364.792-.78V6.5c.053-.416-.317-.78-.739-.78zm15.886 0H22.272c-.422 0-.791.364-.791.78v1.196c0 .416.369.78.791.78h12.456c.422 0 .791-.364.791-.78V6.5a.771.771 0 00-.791-.78zm15.886 0H38.212c-.423 0-.792.364-.792.78v13.156c0 .416.37.78.792.78h12.455c.422 0 .792-.364.792-.78V18.46c0-.416-.37-.78-.792-.78h-10.45V8.476h10.45c.422 0 .792-.364.792-.78V6.5c-.053-.416-.37-.78-.845-.78zM34.728 17.732H22.272c-.422 0-.791.364-.791.78v1.196c0 .416.369.78.791.78h12.456c.422 0 .791-.364.791-.78v-1.196c0-.468-.316-.78-.791-.78zm0-6.448H22.272c-.422 0-.791.364-.791.78v1.196c0 .416.369.78.791.78h12.456c.422 0 .791-.364.791-.78v-1.196c0-.468-.316-.78-.791-.78zM98.325 5.72H85.87c-.422 0-.792.364-.792.78v1.196c0 .416.37.78.792.78h12.455c.423 0 .792-.364.792-.78V6.5c0-.416-.37-.78-.792-.78zm0 12.012H85.87c-.422 0-.792.364-.792.78v1.196c0 .416.37.78.792.78h12.455c.423 0 .792-.364.792-.78v-1.196c0-.468-.37-.78-.792-.78zm47.711 0h-12.455c-.422 0-.792.364-.792.78v1.196c0 .416.37.78.792.78h12.455c.423 0 .792-.364.792-.78v-1.196c0-.468-.369-.78-.792-.78zm-47.711-6.448H85.87c-.422 0-.792.364-.792.78v1.196c0 .416.37.78.792.78h12.455c.423 0 .792-.364.792-.78v-1.196c0-.468-.37-.78-.792-.78zm15.886-5.564h-12.455c-.423 0-.792.364-.792.78v13.156c0 .416.369.78.792.78h1.213c.423 0 .792-.364.792-.78V8.476h10.45c.422 0 .792-.364.792-.78V6.5c0-.416-.37-.78-.792-.78zm31.825 0h-1.214c-.422 0-.791.364-.791.78v4.732h-8.392V6.5c0-.416-.369-.78-.792-.78h-1.214c-.422 0-.791.364-.791.78v6.708c0 .416.369.78.791.78h12.403c.422 0 .792-.364.792-.78V6.5c0-.416-.37-.78-.792-.78zm-15.938 0h-12.403c-.422 0-.792.364-.792.78v13.156c0 .416.37.78.792.78h1.214c.422 0 .792-.364.792-.78V8.476h10.45c.422 0 .791-.364.791-.78V6.5c-.053-.416-.369-.78-.844-.78zm-47.658 0H70.037c-.422 0-.792.364-.792.78v13.156c0 .416.37.78.792.78H82.44c.422 0 .791-.364.791-.78V6.552c0-.468-.37-.832-.791-.832zm-10.45 8.32h8.391v3.692H71.99V14.04zm0-2.756V8.528h8.391v2.756H71.99zM66.553 5.72h-1.214c-.422 0-.792.364-.792.78v4.732h-8.391V6.5c0-.416-.37-.78-.792-.78H54.15c-.422 0-.792.364-.792.78v13.156c0 .416.37.78.792.78h1.214c.422 0 .792-.364.792-.78V14.04h8.391v5.668c0 .416.37.78.792.78h1.214c.422 0 .791-.364.791-.78V6.5c0-.416-.369-.78-.791-.78z" fill="#fff"/></svg>