<svg width="60" height="44" viewBox="0 0 60 44" fill="none" xmlns="http://www.w3.org/2000/svg"><path d="M6.625.75C3.129.75.25 3.63.25 7.125v29.75c0 3.496 2.88 6.375 6.375 6.375h46.75c3.496 0 6.375-2.88 6.375-6.375V7.125c0-3.496-2.88-6.375-6.375-6.375H6.625zm0 4.25h46.75c1.2 0 2.125.924 2.125 2.125v29.75c0 1.2-.924 2.125-2.125 2.125H6.625c-1.2 0-2.125-.924-2.125-2.125V7.125C4.5 5.925 5.424 5 6.625 5zM21.5 7.125C13.31 7.125 6.625 13.81 6.625 22c0 8.19 6.685 14.875 14.875 14.875 3.04.011 6.008-.916 8.5-2.656a14.759 14.759 0 008.5 2.656c8.19 0 14.875-6.685 14.875-14.875 0-8.19-6.685-14.875-14.875-14.875-3.162 0-6.099.973-8.5 2.656a14.752 14.752 0 00-8.5-2.656zm0 4.25c2.724 0 5.164 1.054 7.04 2.72a12.776 12.776 0 00-2.061 3.655h4.717c.298.676.578 1.381.73 2.125H25.95a12.507 12.507 0 00-.2 2.125c0 .727.085 1.432.2 2.125h5.975c-.149.744-.433 1.45-.729 2.125H26.48a12.778 12.778 0 002.061 3.655c-1.876 1.664-4.314 2.72-7.04 2.72A10.594 10.594 0 0110.875 22 10.594 10.594 0 0121.5 11.375zm17 0c5.895 0 10.625 4.73 10.625 10.625S44.395 32.625 38.5 32.625a10.54 10.54 0 01-5.313-1.462A14.718 14.718 0 0036.376 22c0-3.464-1.19-6.63-3.188-9.165a10.54 10.54 0 015.313-1.46z" fill="#fff"/></svg>