<svg width="60" height="44" viewBox="0 0 60 44" fill="none" xmlns="http://www.w3.org/2000/svg"><path d="M6.625.75C3.129.75.25 3.63.25 7.125v29.75c0 3.496 2.88 6.375 6.375 6.375h46.75c3.496 0 6.375-2.88 6.375-6.375V7.125c0-3.496-2.88-6.375-6.375-6.375H6.625zm0 4.25h46.75c1.2 0 2.125.924 2.125 2.125v29.75c0 1.2-.924 2.125-2.125 2.125H6.625c-1.2 0-2.125-.924-2.125-2.125V7.125C4.5 5.925 5.424 5 6.625 5zm30.613 9.297c-4.093 0-6.241 2.019-6.241 4.581 0 4.64 5.44 3.995 5.44 6.375 0 .41-.34 1.333-2.593 1.333-2.252 0-3.719-.797-3.719-.797l-.658 3.06s1.392.86 4.186.86c2.784 0 6.702-2.142 6.702-5.248 0-3.732-5.446-3.978-5.446-5.642 0-.85.722-1.53 2.656-1.53 1.262 0 2.656.999 2.656.999l.668-3.252s-1.85-.733-3.656-.733l.005-.006zm-17.463.265l-3.587 10.494s-.179-.91-.266-1.462c-2.03-4.548-5.313-6.244-5.313-6.244l3.124 11.888h4.25l5.971-14.675h-4.18zm5.71 0L23.16 29.239h3.922l2.323-14.675h-3.92zm21.118 0l-6.375 14.676h3.85l.797-2.057h4.915l.398 2.057h3.518L50.72 14.563H46.6h.003zm-40.312.064s7.644 2.348 9.431 8.105l-1.324-6.64s-.584-1.467-2.125-1.467h-5.98l-.002.002zm41.772 4.187l1.126 5.512H46l2.062-5.512z" fill="#fff"/></svg>