<svg width="500" height="117" viewBox="0 0 500 117" fill="none" xmlns="http://www.w3.org/2000/svg">
<path d="M124.77 86.5227V9.63897H170.267V19.2781H134.191V42.9169H166.59V52.556H134.191V76.6539H172.794V86.2935H124.77V86.5227Z" fill="black"/>
<path d="M220.588 86.5222L204.963 66.0964L189.338 86.5222H178.308L199.678 59.2114L177.159 30.9824H189.567L204.963 52.0968L220.588 30.9824H232.766L211.396 59.2114L231.617 86.5222H220.588Z" fill="black"/>
<path d="M246.782 78.2606V116.128H237.362V59.441C237.362 44.9823 248.391 29.6056 265.624 29.6056C283.088 29.6056 296.185 40.6219 296.185 58.7527C296.185 76.4243 282.858 88.5881 267.692 88.5881C260.339 88.5881 250.459 85.3752 246.782 78.2606ZM286.304 58.7527C286.304 46.3594 278.262 39.0152 264.016 39.704C257.123 39.9331 246.553 44.9823 247.472 62.6539C247.702 68.3919 253.676 79.1785 266.773 79.1785C278.032 79.1785 286.304 72.7523 286.304 58.7527Z" fill="black"/>
<path d="M304.227 86.5231V30.983H313.649V36.9501C318.244 31.6715 325.367 29.8355 332.95 29.8355V39.9335C331.801 39.7039 320.542 38.3273 313.649 53.0152V86.7522H304.227V86.5231Z" fill="black"/>
<path d="M335.477 58.7527C335.477 42.6873 346.966 29.6056 362.821 29.6056C382.582 29.6056 389.935 42.6873 389.935 59.441V64.031H345.817C346.507 74.5885 355.928 80.0964 364.659 79.8668C371.093 79.6373 375.459 77.8014 380.055 73.2114L386.259 79.6373C380.514 85.1456 373.161 88.8177 364.2 88.8177C347.426 88.5881 335.477 76.1948 335.477 58.7527ZM362.132 39.0152C353.17 39.0152 346.277 46.8185 345.817 55.3102H380.055C380.055 47.0477 374.08 39.0152 362.132 39.0152Z" fill="black"/>
<path d="M394.761 78.7193L401.654 72.5227C401.424 72.5227 405.101 76.1947 405.56 76.4243C407.169 77.8014 408.777 78.7193 410.845 79.1785C416.82 80.7847 427.62 80.326 428.537 72.0635C428.999 67.4735 425.549 64.9489 421.645 63.3427C416.589 61.5064 411.075 60.8181 406.02 58.5231C400.275 55.9985 396.599 51.6377 396.599 45.2118C396.599 28.4579 420.495 25.7039 431.295 33.507C431.754 33.966 437.041 38.7856 436.812 38.7856L429.916 44.2935C426.47 40.1627 423.254 38.0971 415.9 38.0971C412.224 38.0971 407.169 39.7035 406.249 43.6052C404.871 49.1131 411.075 51.1789 415.211 52.3264C420.724 53.7035 426.699 54.6214 431.524 57.6048C438.187 61.736 439.799 70.6868 437.27 77.5718C434.512 85.1456 426.241 88.1289 418.887 88.3585C410.156 88.8176 402.573 86.0635 396.369 79.8668C395.909 79.8668 394.761 78.7193 394.761 78.7193Z" fill="black"/>
<path d="M443.245 78.7193L450.137 72.5227C449.908 72.5227 453.583 76.1947 454.045 76.4243C455.653 77.8014 457.262 78.7193 459.328 79.1785C465.303 80.7847 476.103 80.326 477.02 72.0635C477.483 67.4735 474.033 64.9489 470.128 63.3427C465.074 61.5064 459.558 60.8181 454.503 58.5231C448.758 55.9985 445.083 51.6377 445.083 45.2118C445.083 28.4579 468.978 25.7039 479.778 33.507C480.237 33.966 485.524 38.7856 485.295 38.7856L478.399 44.2935C474.953 40.1627 471.737 38.0971 464.383 38.0971C460.708 38.0971 455.653 39.7035 454.733 43.6052C453.353 49.1131 459.558 51.1789 463.695 52.3264C469.208 53.7035 475.183 54.6214 480.008 57.6048C486.67 61.736 488.283 70.6868 485.753 77.5718C482.995 85.1456 474.724 88.1289 467.37 88.3585C458.641 88.8176 451.058 86.0635 444.853 79.8668C444.391 79.8668 443.245 78.7193 443.245 78.7193Z" fill="black"/>
<path d="M488.05 30.9824V25.0153H485.983V23.8678H491.5V25.0153H489.429V30.9824H488.05Z" fill="black"/>
<path d="M498.392 30.9824V25.4743L496.325 30.9824H495.862L493.796 25.4743V30.9824H492.646V23.8678H494.483L496.325 28.6874L498.162 23.8678H500V30.9824H498.392Z" fill="black"/>
<path d="M60.8916 86.5227L53.9983 68.1623H16.7739L9.8805 86.5227H0L29.8713 9.63897H40.6709L70.3124 86.5227H60.8916ZM34.9264 20.6552L20.9099 58.7527H50.092L34.9264 20.6552Z" fill="black"/>
<path d="M76.5168 86.5227V9.63897H86.1673V86.5227H76.5168Z" fill="black"/>
<path d="M100.643 86.5235V32.1309H110.294V86.5235H100.643Z" fill="black"/>
<path d="M119.486 14.4587C119.486 14.2292 119.486 14.2292 119.486 13.9997C119.486 13.7702 119.486 13.7702 119.486 13.5407C112.133 13.3112 106.159 7.34414 105.929 0C105.699 0 105.469 0 105.24 0C105.01 0 104.78 0 104.55 0C104.32 7.34414 98.3463 13.3112 90.9934 13.5407C90.9934 13.7702 90.9934 13.7702 90.9934 13.9997C90.9934 14.2292 90.9934 14.2292 90.9934 14.4587C98.3463 14.6882 104.32 20.6553 104.55 27.9995C104.78 27.9995 105.01 27.9995 105.24 27.9995C105.469 27.9995 105.699 27.9995 105.929 27.9995C106.159 20.6553 112.133 14.6882 119.486 14.4587Z" fill="black"/>
</svg>
