<svg width="126" height="44" viewBox="0 0 126 44" fill="none" xmlns="http://www.w3.org/2000/svg">
<path fill-rule="evenodd" clip-rule="evenodd" d="M23.7115 29.8215C23.7115 29.8215 23.2985 33.1606 23.371 33.839C23.3759 33.8847 23.3803 33.9284 23.3846 33.9701C23.4769 34.873 23.4809 34.9118 25.7448 36.1847C28.5057 37.7371 32.7902 40.5455 33.0829 40.8366C33.2751 41.1101 33.3766 41.4076 33.4749 41.6955C33.6384 42.1745 33.7929 42.6271 34.3405 42.899C34.8381 43.1633 35.1964 42.7898 35.1964 42.7898C35.1964 42.7898 35.7731 43.2525 36.2547 43.2525C36.699 43.332 39.2221 43.2769 39.3448 43.1633C39.5245 42.9969 39.1663 42.0767 38.8735 41.7609C38.6516 41.5394 38.1146 41.4173 37.5717 41.2938C37.0432 41.1736 36.5092 41.0521 36.2547 40.8366C35.5248 40.3276 34.9282 39.7625 34.3405 39.1799C33.8077 38.5826 32.4583 37.5793 31.0592 36.539C29.3892 35.2972 27.6483 34.0028 27.1408 33.2835C26.7372 32.7116 27.4321 30.2062 27.4321 30.2062C27.4321 30.2062 26.1434 30.1364 25.3425 30.0482C24.5415 29.9601 23.7115 29.8215 23.7115 29.8215ZM4.61258 25.734C5.29772 25.351 6.04118 24.9354 6.33414 25.1949C6.60819 25.4377 6.47711 26.0571 6.35543 26.6322C6.24918 27.1342 6.15011 27.6024 6.33414 27.7564C6.65952 28.0287 7.98006 27.6277 8.93296 27.3384C9.13625 27.2766 9.3228 27.22 9.47939 27.1761C9.61468 27.1383 9.739 27.1025 9.85355 27.0695C10.6179 26.8493 10.9469 26.7545 11.1934 27.0383C10.9244 27.4513 10.4783 27.7506 10.034 28.0487C9.48884 28.4144 8.9465 28.7783 8.73789 29.3481C8.59047 29.7507 8.33299 31.2006 8.03757 32.864C7.57435 35.4724 7.01785 38.6059 6.64609 39.0512C6.47437 39.2576 6.17574 39.4319 5.86378 39.614C5.16241 40.0235 4.39371 40.4722 4.8488 41.4132C2.96638 42.7676 2.96413 42.9398 3.61193 43.683C3.72175 43.8429 4.64643 43.6198 5.10436 43.4452C6.09827 43.0674 9.02605 41.2271 9.26649 40.7615C9.40581 40.4956 9.43551 40.0199 9.46255 39.5867C9.47817 39.3365 9.4929 39.1005 9.52736 38.9273C9.75747 37.7781 11.0132 32.5458 11.2456 32.0431C11.6834 31.1118 15.2414 29.1107 16.3782 28.8208C17.69 28.4876 20.2032 28.4434 23.415 28.8208C23.504 28.8313 23.5929 28.8418 23.6817 28.8523C25.9107 29.1159 28.1065 29.3757 30.634 28.5674C32.5862 27.9432 34.0801 26.5213 34.0801 23.5674C34.0801 21.7509 33.946 21.6154 33.9252 21.6083C33.9358 21.6051 33.9793 21.575 34.0801 21.3647C34.41 20.6722 34.8658 20.1131 35.3361 19.5361C35.4932 19.3435 35.6519 19.1488 35.808 18.9466C37.7861 16.1808 37.8002 12.217 36.2514 9.83304L36.222 9.78781C34.6976 7.44147 34.3072 6.84045 34.2359 5.17633C34.1756 3.85935 34.877 3.11396 35.9885 3.23265C36.4631 3.28344 38.5565 2.79604 38.4202 2.17604C38.3214 1.72665 37.3777 1.5168 36.5549 1.33385C36.2426 1.26439 35.9477 1.19881 35.723 1.12547C35.41 1.02326 35.1718 0.816561 34.9314 0.607872C34.5448 0.272389 34.1524 -0.0682386 33.4333 0.011824C32.2671 0.14169 31.4936 0.845897 31.1751 1.44961C30.4653 2.80881 30.4962 4.66225 31.0597 6.06539C31.3937 6.89774 31.7588 7.60947 32.1154 8.30454C32.7167 9.47688 33.2938 10.6019 33.6567 12.1784C33.9586 13.4895 33.489 15.2445 32.1016 16.0229C31.5457 16.3348 30.8203 15.9998 29.7305 15.4966C28.1004 14.7439 25.6552 13.6149 21.7433 13.7115C16.7219 13.8355 13.8291 15.9057 11.7475 17.3953C11.1232 17.842 10.5719 18.2365 10.0581 18.5107C7.71073 17.7258 4.68554 18.0246 2.64266 19.1973C0.599789 20.37 0 22.2014 0 23.8821C0 25.5629 0.536308 26.9709 1.47975 26.6175C1.76315 26.5603 1.95003 26.1743 2.14145 25.7789C2.34516 25.3581 2.55401 24.9266 2.8898 24.8697C3.12234 24.8303 3.118 25.1233 3.11317 25.4493C3.10802 25.7966 3.10232 26.1815 3.382 26.2416C3.61477 26.2917 4.09717 26.0221 4.61258 25.734ZM33.9225 21.6082C33.9225 21.608 33.9235 21.6077 33.9252 21.6083C33.9233 21.6088 33.9224 21.6085 33.9225 21.6082ZM53.2786 24.6075H58.4702C62.5606 24.6075 65.412 21.9904 65.412 17.9856C65.412 14.0204 62.5606 11.3836 58.4506 11.3836H53.2786V24.6075ZM62.5606 17.9856C62.5606 20.2458 61.0464 22.1292 58.4506 22.1292H56.0711V13.8618H58.4702C61.1447 13.8618 62.5606 15.666 62.5606 17.9856ZM66.7296 19.8096C66.7296 22.8826 68.9124 24.8454 71.8031 24.8454C73.278 24.8454 74.7726 24.3894 75.7165 23.517L74.5956 21.8517C73.986 22.4464 72.8847 22.7835 72.0785 22.7835C70.4659 22.7835 69.522 21.812 69.345 20.6423H76.4048V20.0475C76.4048 16.9348 74.4973 14.7936 71.6458 14.7936C68.7747 14.7936 66.7296 17.034 66.7296 19.8096ZM71.6458 16.8555C73.2977 16.8555 73.927 17.9856 74.0056 18.8976H69.3253C69.4237 17.946 70.0923 16.8555 71.6458 16.8555ZM78.214 22.2085C78.214 23.9334 79.1382 24.8454 80.8884 24.8454C81.911 24.8454 82.5993 24.5678 82.9729 24.2308L82.4419 22.3077C82.3043 22.4663 81.9503 22.605 81.5767 22.605C81.0261 22.605 80.7114 22.149 80.7114 21.5344V11.3836H78.214V22.2085ZM83.8382 12.4938C83.8382 13.3265 84.5068 14.0006 85.3131 14.0006C86.139 14.0006 86.8076 13.3265 86.8076 12.4938C86.8076 11.6611 86.139 11.0069 85.3131 11.0069C84.5068 11.0069 83.8382 11.6611 83.8382 12.4938ZM84.0742 24.6075H86.5716V15.0315H84.0742V24.6075ZM91.5076 24.6075H94.2017L98.0167 15.0315H95.3422L92.8448 21.6931L90.367 15.0315H87.6925L91.5076 24.6075ZM98.528 19.8096C98.528 22.8826 100.711 24.8454 103.602 24.8454C105.076 24.8454 106.571 24.3894 107.515 23.517L106.394 21.8517C105.784 22.4464 104.683 22.7835 103.877 22.7835C102.264 22.7835 101.32 21.812 101.143 20.6423H108.203V20.0475C108.203 16.9348 106.296 14.7936 103.444 14.7936C100.573 14.7936 98.528 17.034 98.528 19.8096ZM103.444 16.8555C105.096 16.8555 105.725 17.9856 105.804 18.8976H101.124C101.222 17.946 101.891 16.8555 103.444 16.8555ZM110.012 24.6075H112.51V18.283C112.923 17.6684 114.024 17.1926 114.85 17.1926C115.145 17.1926 115.361 17.2124 115.538 17.252V14.7936C114.358 14.7936 113.198 15.4875 112.51 16.3202V15.0315H110.012V24.6075ZM116.974 27.0659C118.075 28.0373 119.353 28.4933 120.946 28.4933C123.975 28.4933 126 26.8478 126 23.973V15.0315H123.503V21.0983C123.07 21.6534 122.303 22.1887 121.339 22.1887C120.278 22.1887 119.589 21.7525 119.589 20.4242V15.0315H117.092V21.4155C117.092 23.2791 118.075 24.429 120.16 24.429C121.713 24.429 122.854 23.6955 123.503 22.9817V23.973C123.503 25.3212 122.559 26.4314 120.946 26.4314C119.943 26.4314 118.783 26.0944 118.095 25.2617L116.974 27.0659ZM52.4277 36.029C52.4277 40.0933 55.4758 42.8689 59.4285 42.8689C62.2996 42.8689 63.9711 41.263 64.8953 39.6175L62.4962 38.4478C61.9456 39.5184 60.7657 40.3709 59.4285 40.3709C57.0293 40.3709 55.2988 38.5271 55.2988 36.029C55.2988 33.5309 57.0293 31.6871 59.4285 31.6871C60.7657 31.6871 61.9456 32.5396 62.4962 33.6102L64.8953 32.4207C63.9711 30.7553 62.2996 29.1891 59.4285 29.1891C55.4758 29.1891 52.4277 31.9449 52.4277 36.029ZM66.7296 40.2321C66.7296 41.957 67.6538 42.8689 69.404 42.8689C70.4266 42.8689 71.1149 42.5914 71.4885 42.2543L70.9576 40.3312C70.8199 40.4898 70.4659 40.6286 70.0923 40.6286C69.5417 40.6286 69.227 40.1726 69.227 39.558V29.4071H66.7296V40.2321ZM79.0006 42.631H81.498V33.0551H79.0006V39.5382C78.5679 40.0933 77.801 40.6286 76.8374 40.6286C75.7755 40.6286 75.0872 40.1924 75.0872 38.8641V33.0551H72.5898V39.8554C72.5898 41.719 73.573 42.8689 75.6575 42.8689C77.211 42.8689 78.3516 42.1354 79.0006 41.4217V42.631ZM88.6365 40.6286C87.8105 40.6286 86.9059 40.1726 86.4733 39.558V36.1678C86.9059 35.5334 87.8105 35.0575 88.6365 35.0575C90.072 35.0575 91.0356 36.1876 91.0356 37.8332C91.0356 39.4985 90.072 40.6286 88.6365 40.6286ZM83.9758 42.631H86.4733V41.4018C87.2206 42.3535 88.2628 42.8689 89.4034 42.8689C91.8025 42.8689 93.6117 41.045 93.6117 37.8332C93.6117 34.7205 91.8222 32.8172 89.4034 32.8172C88.2825 32.8172 87.2206 33.293 86.4733 34.2843V29.4071H83.9758V42.631Z" fill="black"/>
</svg>
