<svg width="125" height="16" viewBox="0 0 125 16" fill="none" xmlns="http://www.w3.org/2000/svg">
<path fill-rule="evenodd" clip-rule="evenodd" d="M7.1158 7.81002C7.1158 8.33069 7.20257 9.19847 7.28935 9.37203C7.28935 9.37203 13.6241 4.85957 14.9258 3.90501C16.3143 2.95045 16.9217 2.69012 16.9217 2.69012H14.2316C9.11169 2.69012 7.1158 5.03312 7.1158 7.81002ZM38.3559 0L28.55 7.28935L39.3104 14.6655H33.8434L26.0334 9.02491L23.083 11.3679C21.7813 12.4093 18.0498 15.0126 13.9713 15.0126C11.5415 15.0126 9.19847 13.7977 8.07036 12.4093L5.03312 14.6655H0L6.59513 9.89269C6.33479 9.37203 6.16124 8.33069 6.16124 7.46291C6.16124 3.38434 9.19847 0.086778 15.0994 0.086778H24.645L8.85136 11.8886C9.89269 13.1035 11.8018 13.3638 13.1903 13.3638C16.5746 13.3638 18.9176 11.4547 20.5664 10.0662L23.7772 7.37613L19.6118 4.3389H24.2111L26.1202 5.55379L33.4963 0H38.3559ZM93.6335 3.81824C94.8484 3.81824 96.15 4.51246 96.4104 6.07447H90.8566C91.1169 4.59924 92.4186 3.81824 93.6335 3.81824ZM93.7203 13.7109C97.7988 13.7109 98.9269 11.1944 99.274 10.3266L96.4971 9.63237C95.9765 10.5001 95.0219 11.1076 93.807 11.1076C92.5054 11.1076 91.8111 10.5001 91.464 10.0663C91.0301 9.54559 90.8566 8.85136 90.8566 8.15714H99.5344V7.8968C99.5344 6.59514 99.3608 4.85958 98.1459 3.38435C97.3649 2.42979 95.9765 1.47523 93.6335 1.47523C92.1582 1.47523 90.5962 1.82234 89.2078 3.12401C88.4268 3.99179 87.4722 5.38024 87.4722 7.63647C87.4722 9.37203 87.9929 10.8473 89.2946 12.0622C90.4227 13.1903 91.8111 13.7109 93.7203 13.7109ZM48.6825 3.81824C49.8974 3.81824 51.199 4.51246 51.4594 6.07447H45.9056C46.1659 4.59924 47.4676 3.81824 48.6825 3.81824ZM48.7692 13.7109C52.8478 13.7109 53.9759 11.1944 54.323 10.3266L51.5461 9.63237C51.0255 10.5001 50.0709 11.1076 48.856 11.1076C47.5543 11.1076 46.8601 10.5001 46.513 10.0663C46.0791 9.54559 45.9056 8.85136 45.9056 8.15714H54.5834V7.8968C54.5834 6.59514 54.4098 4.85958 53.1949 3.38435C52.4139 2.42979 51.0255 1.47523 48.6825 1.47523C47.2072 1.47523 45.6452 1.82234 44.2568 3.12401C43.4758 3.99179 42.5212 5.38024 42.5212 7.63647C42.5212 9.37203 43.0419 10.8473 44.3436 12.0622C45.4717 13.1903 46.8601 13.7109 48.7692 13.7109ZM75.9308 1.73557H72.3729V13.277H75.9308V5.98769C76.5382 5.20669 77.5795 4.51246 78.7944 4.51246C79.8358 4.51246 80.53 5.38024 80.53 6.76869V13.4506H83.9143V6.59514C83.9143 2.95046 82.4391 1.56201 79.8358 1.56201C77.781 1.56201 76.6554 2.82902 75.9589 3.613L75.9308 3.64468V1.73557ZM115.849 9.63237L114.894 12.1489C116.543 13.3638 118.452 13.6242 120.014 13.6242C122.704 13.6242 124.7 12.4093 124.7 9.80592V9.71914C124.7 7.54969 122.791 6.76869 121.055 6.24802C120.888 6.19217 120.723 6.13919 120.563 6.08779C119.482 5.73992 118.626 5.46443 118.626 4.85957V4.7728C118.626 4.33891 119.059 3.99179 119.927 3.99179C120.795 3.99179 122.27 4.42568 123.485 5.11991L124.179 2.60335C122.878 1.82234 121.489 1.47523 119.927 1.47523C117.497 1.47523 115.502 2.86368 115.502 5.20669C115.502 7.54969 117.411 8.24392 119.146 8.76458C119.343 8.83033 119.539 8.89208 119.728 8.95197C120.788 9.28732 121.663 9.56399 121.663 10.153V10.2398C121.663 10.7605 121.229 11.1076 120.188 11.1076C119.059 11.1076 117.15 10.5869 115.849 9.63237ZM103.526 9.63237L102.572 12.1489C104.22 13.3638 106.13 13.6242 107.692 13.6242C110.382 13.6242 112.378 12.4093 112.378 9.80592V9.71914C112.378 7.54969 110.468 6.76869 108.733 6.24802C108.565 6.19217 108.401 6.13919 108.241 6.08779C107.159 5.73992 106.303 5.46443 106.303 4.85957V4.7728C106.303 4.33891 106.737 3.99179 107.605 3.99179C108.473 3.99179 109.948 4.42568 111.163 5.11991L111.857 2.60335C110.555 1.82234 109.167 1.47523 107.605 1.47523C105.175 1.47523 103.179 2.86368 103.179 5.20669C103.179 7.54969 105.088 8.24392 106.824 8.76458C107.021 8.83033 107.216 8.89208 107.406 8.95197C108.466 9.28733 109.34 9.564 109.34 10.153V10.2398C109.34 10.7605 108.82 11.1076 107.865 11.1076C106.737 11.1076 104.828 10.5869 103.526 9.63237ZM65.0835 1.73557L62.6537 5.11991L60.3107 1.73557H56.3189L60.7446 7.46291L56.0586 13.4506H59.8768L62.4802 9.80592L65.0835 13.4506H69.0753L64.4761 7.46291L68.9017 1.73557H65.0835Z" fill="black"/>
</svg>
