<svg width="115" height="32" viewBox="0 0 115 32" fill="none" xmlns="http://www.w3.org/2000/svg">
<mask id="mask0" mask-type="alpha" maskUnits="userSpaceOnUse" x="0" y="0" width="20" height="32">
<path d="M10.9259 2.63228C11.2825 4.35114 10.202 6.03891 8.51093 6.40188C6.82069 6.76485 5.16077 5.66588 4.80418 3.94611C4.44759 2.22725 5.52717 0.539481 7.21918 0.17651C8.90941 -0.186462 10.5693 0.914338 10.9259 2.6332V2.63228ZM0.00270851 31.6663L1.98178 19.5978C1.98914 19.5524 2.01242 19.5114 2.04723 19.4824C2.08204 19.4535 2.12598 19.4385 2.17077 19.4405L6.55503 19.6325C6.69143 19.6389 6.77434 19.7879 6.70926 19.9095L0.346817 31.7861C0.246972 31.9708 -0.030276 31.8748 0.00270851 31.6673V31.6663ZM2.27864 17.6385L2.93476 13.729C2.9467 13.6482 2.98817 13.575 3.05075 13.5244C3.11333 13.4738 3.19234 13.4496 3.27174 13.4565L15.6686 14.4979C15.7176 14.5015 15.7408 14.5619 15.7087 14.5985L4.52515 27.5566C4.41996 27.6773 4.23096 27.5457 4.30496 27.4021L8.78372 18.6689C8.79744 18.6416 8.80431 18.6113 8.8037 18.5807C8.80309 18.5501 8.79502 18.5201 8.78023 18.4934C8.76543 18.4668 8.74438 18.4444 8.71899 18.4283C8.6936 18.4121 8.66467 18.4027 8.63484 18.401L2.56926 18.0033C2.52616 18.0007 2.48405 17.9889 2.44561 17.9688C2.40716 17.9487 2.3732 17.9206 2.34588 17.8863C2.31857 17.852 2.29849 17.8123 2.28691 17.7696C2.27534 17.7269 2.27252 17.6823 2.27864 17.6385ZM5.89802 7.52005L18.6193 8.77902C19.6089 8.87685 19.8852 9.58268 19.2345 10.347L16.9238 13.0542C16.9053 13.0749 16.8824 13.0909 16.8569 13.1011C16.8314 13.1112 16.8039 13.1152 16.7767 13.1127L3.50352 11.9745C3.4786 11.9724 3.45436 11.9651 3.43238 11.9529C3.41041 11.9406 3.39119 11.9238 3.37597 11.9034C3.36075 11.8831 3.34988 11.8597 3.34406 11.8347C3.33823 11.8098 3.33759 11.7839 3.34217 11.7587L3.7879 9.15479C3.95728 8.15822 4.90759 7.42222 5.89802 7.52005Z" fill="white"/>
</mask>
<g mask="url(#mask0)">
<path d="M10.9259 2.63228C11.2825 4.35114 10.202 6.03891 8.51093 6.40188C6.82069 6.76485 5.16077 5.66588 4.80418 3.94611C4.44759 2.22725 5.52717 0.539481 7.21918 0.17651C8.90941 -0.186462 10.5693 0.914338 10.9259 2.6332V2.63228ZM0.00270851 31.6663L1.98178 19.5978C1.98914 19.5524 2.01242 19.5114 2.04723 19.4824C2.08204 19.4535 2.12598 19.4385 2.17077 19.4405L6.55503 19.6325C6.69143 19.6389 6.77434 19.7879 6.70926 19.9095L0.346817 31.7861C0.246972 31.9708 -0.030276 31.8748 0.00270851 31.6673V31.6663ZM2.27864 17.6385L2.93476 13.729C2.9467 13.6482 2.98817 13.575 3.05075 13.5244C3.11333 13.4738 3.19234 13.4496 3.27174 13.4565L15.6686 14.4979C15.7176 14.5015 15.7408 14.5619 15.7087 14.5985L4.52515 27.5566C4.41996 27.6773 4.23096 27.5457 4.30496 27.4021L8.78372 18.6689C8.79744 18.6416 8.80431 18.6113 8.8037 18.5807C8.80309 18.5501 8.79502 18.5201 8.78023 18.4934C8.76543 18.4668 8.74438 18.4444 8.71899 18.4283C8.6936 18.4121 8.66467 18.4027 8.63484 18.401L2.56926 18.0033C2.52616 18.0007 2.48405 17.9889 2.44561 17.9688C2.40716 17.9487 2.3732 17.9206 2.34588 17.8863C2.31857 17.852 2.29849 17.8123 2.28691 17.7696C2.27534 17.7269 2.27252 17.6823 2.27864 17.6385ZM5.89802 7.52005L18.6193 8.77902C19.6089 8.87685 19.8852 9.58268 19.2345 10.347L16.9238 13.0542C16.9053 13.0749 16.8824 13.0909 16.8569 13.1011C16.8314 13.1112 16.8039 13.1152 16.7767 13.1127L3.50352 11.9745C3.4786 11.9724 3.45436 11.9651 3.43238 11.9529C3.41041 11.9406 3.39119 11.9238 3.37597 11.9034C3.36075 11.8831 3.34988 11.8597 3.34406 11.8347C3.33823 11.8098 3.33759 11.7839 3.34217 11.7587L3.7879 9.15479C3.95728 8.15822 4.90759 7.42222 5.89802 7.52005Z" fill="black"/>
<path fill-rule="evenodd" clip-rule="evenodd" d="M0 0H19.6124V32H0V0Z" fill="black"/>
</g>
<mask id="mask1" mask-type="alpha" maskUnits="userSpaceOnUse" x="32" y="6" width="83" height="19">
<path d="M44.1725 6.40006C44.3526 6.40006 44.5086 6.46863 44.6405 6.60577C44.7716 6.74291 44.8375 6.90566 44.8375 7.094V8.91891C44.8387 9.00967 44.822 9.09973 44.7883 9.18364C44.7546 9.26756 44.7046 9.34359 44.6414 9.40714C44.5814 9.47291 44.5088 9.52517 44.4281 9.56058C44.3473 9.596 44.2603 9.6138 44.1725 9.61286H36.3115V14.5985H43.6795C43.8596 14.5985 44.0156 14.6679 44.1475 14.8042C44.2786 14.9413 44.3446 15.105 44.3446 15.2924V17.1173C44.3457 17.2081 44.3289 17.2981 44.2952 17.382C44.2615 17.4659 44.2116 17.542 44.1484 17.6055C44.0885 17.6713 44.0158 17.7236 43.9351 17.759C43.8543 17.7944 43.7673 17.8122 43.6795 17.8113H36.3115V23.6974C36.3125 23.7882 36.2955 23.8783 36.2617 23.9622C36.2278 24.0461 36.1777 24.1221 36.1145 24.1857C36.0544 24.2513 35.9817 24.3035 35.901 24.3389C35.8203 24.3743 35.7333 24.3921 35.6456 24.3914H33.6496C33.5619 24.3921 33.4751 24.3742 33.3945 24.3388C33.314 24.3034 33.2415 24.2512 33.1815 24.1857C33.1184 24.1221 33.0685 24.046 33.0348 23.9621C33.001 23.8782 32.9843 23.7882 32.9854 23.6974V7.094C32.9845 6.90566 33.0487 6.74291 33.1806 6.60577C33.2407 6.54013 33.3134 6.48797 33.3941 6.45256C33.4748 6.41716 33.5618 6.39928 33.6496 6.40006H44.1725ZM48.3615 24.3914C48.2737 24.3922 48.1868 24.3743 48.106 24.3389C48.0253 24.3035 47.9527 24.2513 47.8926 24.1857C47.8294 24.1221 47.7795 24.0461 47.7458 23.9622C47.7121 23.8782 47.6953 23.7882 47.6965 23.6974V7.094C47.6965 6.90566 47.7616 6.74291 47.8926 6.60577C47.9528 6.54002 48.0256 6.48779 48.1065 6.45238C48.1873 6.41697 48.2745 6.39915 48.3624 6.40006H50.3584C50.5385 6.40006 50.6945 6.46863 50.8265 6.60577C50.9575 6.74291 51.0235 6.90566 51.0235 7.094V23.6974C51.0245 23.7882 51.0075 23.8783 50.9736 23.9622C50.9398 24.0461 50.8897 24.1221 50.8265 24.1857C50.7665 24.2512 50.6939 24.3033 50.6134 24.3387C50.5329 24.3741 50.4461 24.392 50.3584 24.3914H48.3615ZM66.3497 6.40006C66.5306 6.40006 66.6866 6.46863 66.8186 6.60577C66.9496 6.74291 67.0147 6.90566 67.0147 7.094V8.91891C67.0159 9.00967 66.9991 9.09973 66.9654 9.18364C66.9317 9.26756 66.8818 9.34359 66.8186 9.40714C66.7586 9.47291 66.686 9.52517 66.6052 9.56058C66.5245 9.596 66.4375 9.6138 66.3497 9.61286H61.9146V23.6974C61.9156 23.7882 61.8986 23.8783 61.8648 23.9622C61.8309 24.0461 61.7808 24.1221 61.7176 24.1857C61.6575 24.2513 61.5848 24.3035 61.5041 24.3389C61.4234 24.3743 61.3364 24.3921 61.2487 24.3914H59.2527C59.165 24.3921 59.0782 24.3742 58.9976 24.3388C58.9171 24.3034 58.8446 24.2512 58.7846 24.1857C58.7215 24.1221 58.6716 24.046 58.6379 23.9621C58.6041 23.8782 58.5874 23.7882 58.5885 23.6974V9.61286H54.1516C54.064 9.61367 53.9771 9.59581 53.8966 9.5604C53.816 9.52499 53.7435 9.4728 53.6836 9.40714C53.6202 9.3437 53.5701 9.26771 53.5362 9.18378C53.5024 9.09985 53.4855 9.00974 53.4866 8.91891V7.094C53.4866 6.90566 53.5517 6.74291 53.6836 6.60577C53.7436 6.54025 53.8161 6.48815 53.8967 6.45275C53.9772 6.41735 54.064 6.39941 54.1516 6.40006H66.3497ZM75.8617 6.40006C76.1247 6.40006 76.3217 6.4732 76.4536 6.61949C76.5847 6.76394 76.6997 6.98246 76.7986 7.27411L82.8357 23.5173C82.8685 23.6342 82.8698 23.758 82.8393 23.8756C82.8089 23.9932 82.7478 24.1 82.6627 24.1847C82.603 24.2504 82.5307 24.3027 82.4503 24.3382C82.3699 24.3738 82.2832 24.3919 82.1956 24.3914H80.4216C80.0917 24.3914 79.8617 24.3182 79.7307 24.1719C79.614 24.0505 79.5219 23.9067 79.4597 23.7486L78.3997 20.8961H70.6136L69.5545 23.7486C69.4923 23.9069 69.4002 24.0511 69.2835 24.1729C69.1516 24.3191 68.9216 24.3923 68.5935 24.3923H66.8195C66.7316 24.3931 66.6445 24.3752 66.5638 24.3396C66.4831 24.304 66.4105 24.2516 66.3506 24.1857C66.2872 24.1222 66.237 24.0462 66.2032 23.9623C66.1693 23.8784 66.1524 23.7883 66.1535 23.6974C66.1535 23.6298 66.1616 23.5694 66.1785 23.5173L72.2147 7.27411C72.3127 6.98246 72.4286 6.76394 72.5597 6.61857C72.6907 6.47229 72.8886 6.40006 73.1507 6.40006H75.8617ZM77.2167 17.6823L74.5066 10.358L71.7966 17.6833H77.2167V17.6823ZM92.3718 6.40006C94.3597 6.40006 95.9047 6.88829 97.0048 7.86474C98.1057 8.84211 98.6558 10.273 98.6558 12.1573C98.6558 14.0426 98.1057 15.4817 97.0048 16.4755C95.9047 17.4693 94.3597 17.9658 92.3727 17.9658H88.4297V23.6974C88.4305 23.7882 88.4136 23.8783 88.3797 23.9621C88.3458 24.046 88.2958 24.1221 88.2327 24.1857C88.1726 24.2513 88.0999 24.3035 88.0192 24.3389C87.9385 24.3743 87.8515 24.3921 87.7637 24.3914H85.7686C85.681 24.3921 85.5941 24.3742 85.5136 24.3388C85.433 24.3034 85.3605 24.2513 85.3006 24.1857C85.2374 24.1221 85.1875 24.0461 85.1538 23.9622C85.12 23.8782 85.1033 23.7882 85.1045 23.6974V7.094C85.1045 6.90566 85.1687 6.74291 85.3006 6.60577C85.3605 6.5402 85.4331 6.48808 85.5136 6.45267C85.5942 6.41727 85.681 6.39935 85.7686 6.40006H92.3736H92.3718ZM88.4297 14.753H92.2496C93.1857 14.753 93.9327 14.561 94.4917 14.1751C95.0498 13.7893 95.3297 13.1173 95.3297 12.1573C95.3297 11.1973 95.0498 10.5345 94.4917 10.1651C93.9327 9.79754 93.1857 9.61286 92.2496 9.61286H88.4297V14.753ZM108.613 6.40006C110.6 6.40006 112.144 6.88829 113.245 7.86474C114.346 8.84211 114.896 10.273 114.896 12.1573C114.896 14.0426 114.346 15.4817 113.245 16.4755C112.144 17.4693 110.6 17.9658 108.613 17.9658H104.67V23.6974C104.67 23.7883 104.653 23.8784 104.619 23.9623C104.585 24.0462 104.535 24.1222 104.472 24.1857C104.412 24.2512 104.339 24.3034 104.259 24.3388C104.178 24.3742 104.091 24.3921 104.004 24.3914H102.008C101.92 24.3922 101.833 24.3743 101.753 24.3389C101.672 24.3035 101.6 24.2513 101.54 24.1857C101.476 24.1222 101.426 24.0462 101.392 23.9623C101.358 23.8783 101.342 23.7882 101.343 23.6974V7.094C101.343 6.90566 101.408 6.74291 101.54 6.60577C101.6 6.5402 101.672 6.48808 101.753 6.45267C101.833 6.41727 101.92 6.39935 102.008 6.40006H108.613ZM104.67 14.753H108.489C109.425 14.753 110.173 14.561 110.732 14.1751C111.29 13.7893 111.57 13.1173 111.57 12.1573C111.57 11.1973 111.29 10.5345 110.732 10.1651C110.173 9.79754 109.426 9.61286 108.489 9.61286H104.67V14.753Z" fill="white"/>
</mask>
<g mask="url(#mask1)">
<path d="M44.1725 6.40006C44.3526 6.40006 44.5086 6.46863 44.6405 6.60577C44.7716 6.74291 44.8375 6.90566 44.8375 7.094V8.91891C44.8387 9.00967 44.822 9.09973 44.7883 9.18364C44.7546 9.26756 44.7046 9.34359 44.6414 9.40714C44.5814 9.47291 44.5088 9.52517 44.4281 9.56058C44.3473 9.596 44.2603 9.6138 44.1725 9.61286H36.3115V14.5985H43.6795C43.8596 14.5985 44.0156 14.6679 44.1475 14.8042C44.2786 14.9413 44.3446 15.105 44.3446 15.2924V17.1173C44.3457 17.2081 44.3289 17.2981 44.2952 17.382C44.2615 17.4659 44.2116 17.542 44.1484 17.6055C44.0885 17.6713 44.0158 17.7236 43.9351 17.759C43.8543 17.7944 43.7673 17.8122 43.6795 17.8113H36.3115V23.6974C36.3125 23.7882 36.2955 23.8783 36.2617 23.9622C36.2278 24.0461 36.1777 24.1221 36.1145 24.1857C36.0544 24.2513 35.9817 24.3035 35.901 24.3389C35.8203 24.3743 35.7333 24.3921 35.6456 24.3914H33.6496C33.5619 24.3921 33.4751 24.3742 33.3945 24.3388C33.314 24.3034 33.2415 24.2512 33.1815 24.1857C33.1184 24.1221 33.0685 24.046 33.0348 23.9621C33.001 23.8782 32.9843 23.7882 32.9854 23.6974V7.094C32.9845 6.90566 33.0487 6.74291 33.1806 6.60577C33.2407 6.54013 33.3134 6.48797 33.3941 6.45256C33.4748 6.41716 33.5618 6.39928 33.6496 6.40006H44.1725ZM48.3615 24.3914C48.2737 24.3922 48.1868 24.3743 48.106 24.3389C48.0253 24.3035 47.9527 24.2513 47.8926 24.1857C47.8294 24.1221 47.7795 24.0461 47.7458 23.9622C47.7121 23.8782 47.6953 23.7882 47.6965 23.6974V7.094C47.6965 6.90566 47.7616 6.74291 47.8926 6.60577C47.9528 6.54002 48.0256 6.48779 48.1065 6.45238C48.1873 6.41697 48.2745 6.39915 48.3624 6.40006H50.3584C50.5385 6.40006 50.6945 6.46863 50.8265 6.60577C50.9575 6.74291 51.0235 6.90566 51.0235 7.094V23.6974C51.0245 23.7882 51.0075 23.8783 50.9736 23.9622C50.9398 24.0461 50.8897 24.1221 50.8265 24.1857C50.7665 24.2512 50.6939 24.3033 50.6134 24.3387C50.5329 24.3741 50.4461 24.392 50.3584 24.3914H48.3615ZM66.3497 6.40006C66.5306 6.40006 66.6866 6.46863 66.8186 6.60577C66.9496 6.74291 67.0147 6.90566 67.0147 7.094V8.91891C67.0159 9.00967 66.9991 9.09973 66.9654 9.18364C66.9317 9.26756 66.8818 9.34359 66.8186 9.40714C66.7586 9.47291 66.686 9.52517 66.6052 9.56058C66.5245 9.596 66.4375 9.6138 66.3497 9.61286H61.9146V23.6974C61.9156 23.7882 61.8986 23.8783 61.8648 23.9622C61.8309 24.0461 61.7808 24.1221 61.7176 24.1857C61.6575 24.2513 61.5848 24.3035 61.5041 24.3389C61.4234 24.3743 61.3364 24.3921 61.2487 24.3914H59.2527C59.165 24.3921 59.0782 24.3742 58.9976 24.3388C58.9171 24.3034 58.8446 24.2512 58.7846 24.1857C58.7215 24.1221 58.6716 24.046 58.6379 23.9621C58.6041 23.8782 58.5874 23.7882 58.5885 23.6974V9.61286H54.1516C54.064 9.61367 53.9771 9.59581 53.8966 9.5604C53.816 9.52499 53.7435 9.4728 53.6836 9.40714C53.6202 9.3437 53.5701 9.26771 53.5362 9.18378C53.5024 9.09985 53.4855 9.00974 53.4866 8.91891V7.094C53.4866 6.90566 53.5517 6.74291 53.6836 6.60577C53.7436 6.54025 53.8161 6.48815 53.8967 6.45275C53.9772 6.41735 54.064 6.39941 54.1516 6.40006H66.3497ZM75.8617 6.40006C76.1247 6.40006 76.3217 6.4732 76.4536 6.61949C76.5847 6.76394 76.6997 6.98246 76.7986 7.27411L82.8357 23.5173C82.8685 23.6342 82.8698 23.758 82.8393 23.8756C82.8089 23.9932 82.7478 24.1 82.6627 24.1847C82.603 24.2504 82.5307 24.3027 82.4503 24.3382C82.3699 24.3738 82.2832 24.3919 82.1956 24.3914H80.4216C80.0917 24.3914 79.8617 24.3182 79.7307 24.1719C79.614 24.0505 79.5219 23.9067 79.4597 23.7486L78.3997 20.8961H70.6136L69.5545 23.7486C69.4923 23.9069 69.4002 24.0511 69.2835 24.1729C69.1516 24.3191 68.9216 24.3923 68.5935 24.3923H66.8195C66.7316 24.3931 66.6445 24.3752 66.5638 24.3396C66.4831 24.304 66.4105 24.2516 66.3506 24.1857C66.2872 24.1222 66.237 24.0462 66.2032 23.9623C66.1693 23.8784 66.1524 23.7883 66.1535 23.6974C66.1535 23.6298 66.1616 23.5694 66.1785 23.5173L72.2147 7.27411C72.3127 6.98246 72.4286 6.76394 72.5597 6.61857C72.6907 6.47229 72.8886 6.40006 73.1507 6.40006H75.8617ZM77.2167 17.6823L74.5066 10.358L71.7966 17.6833H77.2167V17.6823ZM92.3718 6.40006C94.3597 6.40006 95.9047 6.88829 97.0048 7.86474C98.1057 8.84211 98.6558 10.273 98.6558 12.1573C98.6558 14.0426 98.1057 15.4817 97.0048 16.4755C95.9047 17.4693 94.3597 17.9658 92.3727 17.9658H88.4297V23.6974C88.4305 23.7882 88.4136 23.8783 88.3797 23.9621C88.3458 24.046 88.2958 24.1221 88.2327 24.1857C88.1726 24.2513 88.0999 24.3035 88.0192 24.3389C87.9385 24.3743 87.8515 24.3921 87.7637 24.3914H85.7686C85.681 24.3921 85.5941 24.3742 85.5136 24.3388C85.433 24.3034 85.3605 24.2513 85.3006 24.1857C85.2374 24.1221 85.1875 24.0461 85.1538 23.9622C85.12 23.8782 85.1033 23.7882 85.1045 23.6974V7.094C85.1045 6.90566 85.1687 6.74291 85.3006 6.60577C85.3605 6.5402 85.4331 6.48808 85.5136 6.45267C85.5942 6.41727 85.681 6.39935 85.7686 6.40006H92.3736H92.3718ZM88.4297 14.753H92.2496C93.1857 14.753 93.9327 14.561 94.4917 14.1751C95.0498 13.7893 95.3297 13.1173 95.3297 12.1573C95.3297 11.1973 95.0498 10.5345 94.4917 10.1651C93.9327 9.79754 93.1857 9.61286 92.2496 9.61286H88.4297V14.753ZM108.613 6.40006C110.6 6.40006 112.144 6.88829 113.245 7.86474C114.346 8.84211 114.896 10.273 114.896 12.1573C114.896 14.0426 114.346 15.4817 113.245 16.4755C112.144 17.4693 110.6 17.9658 108.613 17.9658H104.67V23.6974C104.67 23.7883 104.653 23.8784 104.619 23.9623C104.585 24.0462 104.535 24.1222 104.472 24.1857C104.412 24.2512 104.339 24.3034 104.259 24.3388C104.178 24.3742 104.091 24.3921 104.004 24.3914H102.008C101.92 24.3922 101.833 24.3743 101.753 24.3389C101.672 24.3035 101.6 24.2513 101.54 24.1857C101.476 24.1222 101.426 24.0462 101.392 23.9623C101.358 23.8783 101.342 23.7882 101.343 23.6974V7.094C101.343 6.90566 101.408 6.74291 101.54 6.60577C101.6 6.5402 101.672 6.48808 101.753 6.45267C101.833 6.41727 101.92 6.39935 102.008 6.40006H108.613ZM104.67 14.753H108.489C109.425 14.753 110.173 14.561 110.732 14.1751C111.29 13.7893 111.57 13.1173 111.57 12.1573C111.57 11.1973 111.29 10.5345 110.732 10.1651C110.173 9.79754 109.426 9.61286 108.489 9.61286H104.67V14.753Z" fill="black"/>
<path fill-rule="evenodd" clip-rule="evenodd" d="M32.9844 6.40002H115V24.6857H32.9844V6.40002Z" fill="black"/>
</g>
</svg>
