<svg width="500" height="113" viewBox="0 0 500 113" fill="none" xmlns="http://www.w3.org/2000/svg">
<path d="M183.672 76.7503V23.5263C183.672 21.5467 184.427 19.8528 185.933 18.4447C187.44 17.0325 189.248 16.3264 191.358 16.3264C193.468 16.3264 195.256 17.0325 196.717 18.4447C198.227 19.8528 198.978 21.5467 198.978 23.5222V76.746C198.978 84.0114 196.243 90.2154 190.774 95.3786C185.264 100.501 178.635 103.06 170.885 103.06C168.774 103.06 166.987 102.354 165.526 100.942C164.806 100.32 164.23 99.549 163.84 98.6816C163.449 97.8146 163.253 96.8725 163.264 95.9213C163.264 93.9461 164.019 92.252 165.526 90.8438C166.232 90.1517 167.071 89.6081 167.991 89.2441C168.912 88.8805 169.895 88.7043 170.885 88.7258C174.415 88.7258 177.427 87.5543 179.925 85.2155C182.423 82.8767 183.672 80.0561 183.672 76.7503ZM288.332 90.3174C279.838 98.8114 269.61 103.06 257.651 103.06C245.692 103.06 235.488 98.8152 227.027 90.3174C218.533 81.8604 214.284 71.6522 214.284 59.6934C214.284 47.7342 218.529 37.5057 227.027 29.012C235.484 20.5549 245.692 16.3264 257.651 16.3264C269.61 16.3264 279.838 20.5549 288.332 29.012C296.789 37.5057 301.018 47.7342 301.018 59.6934C301.018 71.6522 296.789 81.8565 288.332 90.3174ZM277.508 39.8363C271.998 34.367 265.378 31.6283 257.655 31.6283C249.933 31.6283 243.333 34.3629 237.86 39.8363C232.349 45.3466 229.594 51.9668 229.594 59.6891C229.594 67.4115 232.349 74.0116 237.86 79.4847C243.333 84.9952 249.933 87.7502 257.655 87.7502C265.378 87.7502 271.998 84.9952 277.508 79.4847C282.977 74.0116 285.716 67.4115 285.716 59.6891C285.716 51.9668 282.981 45.3466 277.508 39.8363ZM385.274 90.3136C376.78 98.8071 366.552 103.056 354.593 103.056C342.634 103.056 332.43 98.8114 323.969 90.3136C315.475 81.8565 311.226 71.6484 311.226 59.6891C311.226 47.7304 315.471 37.5017 323.969 29.0079C332.422 20.5549 342.63 16.3264 354.589 16.3264C366.548 16.3264 376.776 20.5549 385.27 29.012C393.727 37.5057 397.956 47.7342 397.956 59.6934C397.956 71.6522 393.727 81.8565 385.27 90.3174L385.274 90.3136ZM374.446 39.8363C368.936 34.367 362.316 31.6283 354.593 31.6283C346.87 31.6283 340.271 34.3629 334.797 39.8363C329.283 45.3504 326.528 51.9711 326.528 59.6934C326.528 67.4158 329.283 74.0154 334.793 79.489C340.266 84.999 346.867 87.754 354.589 87.754C362.311 87.754 368.931 84.999 374.442 79.489C379.911 74.0154 382.65 67.4158 382.65 59.6934C382.65 51.9711 379.915 45.3504 374.442 39.8404L374.446 39.8363ZM450.384 86.2194C449.812 85.1992 442.249 72.7993 427.71 49.0197V95.9376C427.71 97.909 427.001 99.5787 425.58 100.946C424.914 101.627 424.116 102.165 423.236 102.528C422.355 102.89 421.41 103.07 420.457 103.056C419.514 103.074 418.577 102.896 417.705 102.532C416.834 102.169 416.048 101.629 415.396 100.946C414.709 100.308 414.165 99.5317 413.798 98.6686C413.431 97.806 413.25 96.8754 413.266 95.9376V23.4528C413.266 21.8447 413.756 20.4161 414.727 19.1672C415.682 17.8997 417.034 16.9886 418.568 16.5794C420.083 16.1607 421.693 16.2461 423.155 16.8226C424.617 17.3991 425.852 18.4354 426.674 19.7753L456.661 68.8033L486.651 19.7753C487.465 18.408 488.62 17.4202 490.124 16.8202C491.604 16.2564 493.227 16.1708 494.76 16.5753C496.302 17.0202 497.562 17.8815 498.539 19.1712C499.516 20.4161 500 21.8447 500 23.4528V95.9419C500 97.9133 499.305 99.5825 497.926 100.95C497.26 101.63 496.465 102.168 495.584 102.531C494.703 102.894 493.759 103.074 492.806 103.06C491.857 103.074 490.909 102.895 490.028 102.532C489.151 102.169 488.351 101.631 487.686 100.95C487.015 100.302 486.484 99.5236 486.129 98.6619C485.77 97.8003 485.597 96.874 485.617 95.9419V49.024C471.216 72.8032 463.636 85.1868 462.882 86.1749C461.747 87.6563 459.694 90.305 456.633 90.305C453.572 90.305 451.249 87.754 450.388 86.2237L450.384 86.2194ZM76.5302 78.9095C76.5302 97.3175 61.6814 112.244 43.3674 112.244V33.3344C43.3674 14.9264 58.2161 0 76.5302 0V78.9095Z" fill="black"/>
<path d="M16.5835 112.248C25.7423 112.248 33.167 104.824 33.167 95.6651C33.167 86.5058 25.7423 79.0814 16.5835 79.0814C7.42471 79.0814 0 86.5058 0 95.6651C0 104.824 7.42471 112.248 16.5835 112.248Z" fill="black"/>
</svg>
