<svg width="500" height="96" viewBox="0 0 500 96" fill="none" xmlns="http://www.w3.org/2000/svg">
<path fill-rule="evenodd" clip-rule="evenodd" d="M34.2982 56.3223C36.5503 37.8939 51.211 25.0597 70.0849 27.3872C76.8004 28.0751 82.8658 31.7186 86.6442 37.3379L88.9493 37.6206L89.6814 31.6213L105.515 33.5718L97.9328 95.5879L82.0992 93.6344L82.8343 87.632L80.5292 87.349C75.5088 91.8815 68.7462 93.9455 62.0647 92.9812C43.1938 90.6537 32.046 74.7476 34.2982 56.3223ZM10.2127 0L26.9879 2.06993L16.7751 85.5802L0 83.5132L10.2127 0ZM414.502 0.490313V83.3376H398.553V77.2912H396.228C391.721 82.4239 385.187 85.298 378.374 85.1406C359.359 85.1406 346.366 70.7142 346.366 52.1505C346.366 33.5872 359.359 19.0537 378.374 19.0537C384.645 18.8942 390.643 21.553 394.75 26.2755L395.275 26.9031H397.599V0.490313H414.502ZM298.04 19.0537C319.169 19.0537 332.266 33.5872 332.266 52.1505C332.266 70.7142 319.169 85.1406 298.04 85.1406C276.914 85.1406 263.814 70.7142 263.814 52.1505C263.814 33.5872 276.914 19.0537 298.04 19.0537ZM481.138 26.2489L481.725 26.9031H484.05V20.8567H500V83.3376H484.05V77.2912H481.725C477.294 82.4019 470.831 85.279 464.084 85.1406C445.071 85.1406 432.077 70.7142 432.077 52.1505C432.077 33.5872 445.071 19.0537 464.084 19.0537C470.538 18.9215 476.729 21.5453 481.138 26.2489ZM195.555 28.2446L196.095 28.9209H198.419C203.925 22.5855 211.91 18.9828 220.284 19.055C234.401 19.055 246.167 28.6778 246.575 46.8215L246.587 47.8017V83.3389H229.473V50.6629C229.473 39.5281 226.308 35.7087 214.897 35.7087C203.738 35.7087 200.46 39.3639 200.323 49.9472L200.318 50.6629V83.3389H183.205V50.6629C183.205 39.5281 180.037 35.7087 168.629 35.7087C157.469 35.7087 154.093 39.3639 153.951 49.9472L153.946 50.6629V83.3389H136.937V20.8579H152.889V27.7525H155.213C160.349 22.0295 167.719 18.854 175.388 19.055C183.173 18.8551 190.6 22.2534 195.555 28.2446ZM70.3571 43.4534C57.6703 41.8891 52.947 45.6869 51.3892 58.4268C49.8313 71.1668 53.51 75.8969 66.1969 77.4612C78.8838 79.0256 83.5945 75.3287 85.1524 62.5918C86.7098 49.8484 83.044 45.0177 70.3571 43.4534ZM380.592 34.9661C367.811 34.9661 363.585 39.3164 363.585 52.1505C363.585 64.9849 367.811 69.2284 380.592 69.2284C393.373 69.2284 397.599 64.9849 397.599 52.1505C397.599 39.3164 393.373 34.9661 380.592 34.9661ZM298.04 34.9661C285.259 34.9661 281.034 39.3164 281.034 52.1505C281.034 64.9849 285.259 69.2284 298.04 69.2284C310.824 69.2284 315.047 64.9849 315.047 52.1505C315.047 39.3164 310.824 34.9661 298.04 34.9661ZM466.302 34.9661C453.518 34.9661 449.295 39.3164 449.295 52.1505C449.295 64.9849 453.518 69.2284 466.302 69.2284C479.085 69.2284 483.308 64.9849 483.308 52.1505C483.308 39.3164 479.085 34.9661 466.302 34.9661Z" fill="black"/>
</svg>
