<svg width="268" height="32" viewBox="0 0 268 32" fill="none" xmlns="http://www.w3.org/2000/svg">
<path d="M147.145 7.16455C144.073 7.16455 141.989 9.72408 140.856 12.759C140.015 8.95622 137.419 7.16455 134.603 7.16455C131.714 7.16455 129.521 9.32187 128.643 12.1374H128.131L128.643 7.45707H126.01V26.5439H128.643V15.2819C128.643 11.4792 130.873 9.46813 133.908 9.46813C136.76 9.46813 138.625 11.5523 138.625 14.5506V26.5439H141.258V14.5506C141.258 11.6255 143.708 9.46813 146.633 9.46813C149.522 9.46813 151.313 11.1135 151.313 15.026V26.5439H153.946V15.026C154.019 9.83378 151.277 7.16455 147.145 7.16455Z" fill="black"/>
<path d="M201.114 13.0881C199.871 9.39506 196.361 7.20117 193.034 7.20117C187.512 7.20117 182.978 11.4427 182.978 17.0005C182.978 22.5584 187.512 26.7999 193.034 26.7999C196.324 26.7999 199.835 24.606 201.114 20.913H201.626L201.114 26.5805H203.747V7.45713H201.114L201.626 13.0881H201.114ZM193.472 24.4963C189.085 24.4963 185.684 21.1689 185.684 16.9274C185.684 12.7225 189.048 9.46819 193.472 9.46819C197.824 9.46819 201.078 12.759 201.078 16.9274C201.114 21.1689 197.86 24.4963 193.472 24.4963Z" fill="black"/>
<path d="M118.405 13.0881C117.162 9.39506 113.652 7.20117 110.324 7.20117C104.803 7.20117 100.269 11.4427 100.269 17.0005C100.269 22.5584 104.803 26.7999 110.324 26.7999C113.615 26.7999 117.125 24.606 118.405 20.913H118.917L118.405 26.5805H121.038V7.45713H118.405L118.917 13.0881H118.405ZM110.8 24.4963C106.412 24.4963 103.011 21.1689 103.011 16.9274C103.011 12.7225 106.375 9.46819 110.8 9.46819C115.151 9.46819 118.405 12.759 118.405 16.9274C118.405 21.1689 115.151 24.4963 110.8 24.4963Z" fill="black"/>
<path d="M18.8026 13.0881C17.5594 9.39506 14.0492 7.20117 10.7218 7.20117C5.20053 7.20117 0.666504 11.4427 0.666504 17.0005C0.666504 22.5584 5.20053 26.7999 10.7218 26.7999C14.0126 26.7999 17.5228 24.606 18.8026 20.913H19.3145L18.8026 26.5805H21.4353V7.45713H18.8026L19.3145 13.0881H18.8026ZM11.1971 24.4963C6.80938 24.4963 3.40886 21.1689 3.40886 16.9274C3.40886 12.7225 6.77281 9.46819 11.1971 9.46819C15.5484 9.46819 18.8026 12.759 18.8026 16.9274C18.8026 21.1689 15.5484 24.4963 11.1971 24.4963Z" fill="black"/>
<path d="M43.9957 13.0881C42.7525 9.39509 39.2423 7.20121 35.9149 7.20121C30.3936 7.20121 25.8596 11.4427 25.8596 17.0006C25.8596 22.5584 30.3936 26.7999 35.9149 26.7999C39.2057 26.7999 42.716 24.606 43.9957 20.913H44.5076L43.9957 26.5805H46.6284V0.729248H43.9957L44.5076 13.0881H43.9957ZM36.3537 24.4963C31.9659 24.4963 28.5654 21.1689 28.5654 16.9274C28.5654 12.7225 31.9294 9.46822 36.3537 9.46822C40.7049 9.46822 43.9592 12.7591 43.9592 16.9274C43.9957 21.1689 40.7415 24.4963 36.3537 24.4963Z" fill="black"/>
<path d="M169.705 7.20117C166.415 7.20117 162.904 9.39506 161.625 13.0881H161.113L161.625 7.45713H158.992V31.8824H161.625L161.113 20.913H161.625C162.868 24.606 166.378 26.7999 169.705 26.7999C175.227 26.7999 179.761 22.5584 179.761 17.0005C179.761 11.4427 175.227 7.20117 169.705 7.20117ZM169.267 24.4963C164.915 24.4963 161.661 21.1689 161.661 16.9274C161.661 12.759 164.952 9.46819 169.267 9.46819C173.654 9.46819 177.055 12.7225 177.055 16.9274C177.018 21.2055 173.654 24.4963 169.267 24.4963Z" fill="black"/>
<path d="M265.359 21.3882C263.311 23.8746 261.117 24.5693 258.814 24.5693C254.901 24.5693 251.866 21.827 251.683 18.0608V17.5854C253.292 18.0974 259.362 19.7793 263.823 18.0242C268.211 16.3057 267.37 10.7478 263.677 8.51739C262.287 7.6764 260.532 7.12793 258.594 7.12793C253.036 7.12793 249.124 11.406 249.124 16.9273C249.124 22.4851 253.036 26.7998 258.814 26.7998C262.104 26.7998 264.993 25.5931 267.333 22.6314L265.359 21.3882ZM258.667 9.46807C260.13 9.46807 261.483 9.90685 262.507 10.565C264.847 12.0276 265.432 15.4647 262.287 16.781C258.594 18.3533 253.11 17.3295 251.683 17.0004V16.7445C251.903 12.5029 254.792 9.46807 258.667 9.46807Z" fill="black"/>
<path d="M245.979 15.94V26.5437H243.31V15.099C243.091 11.2962 241.555 8.80984 237.24 9.39487C233.876 9.83365 231.024 12.832 230.732 16.1594V26.5803H228.063V7.45694H230.732L230.22 13.2707H230.732C231.317 11.3694 232.45 9.83365 233.694 8.73671C234.9 7.67633 236.509 7.16443 237.972 7.12786C243.493 6.87191 245.979 10.3821 245.979 15.94Z" fill="black"/>
<path d="M97.0512 15.9402V26.544H94.4186V15.0992C94.1992 11.2965 92.6635 8.81005 88.3488 9.39509C84.9849 9.83387 82.1328 12.8322 81.8403 16.1596V26.5805H79.2076V0.729248H81.8403L81.3284 13.271H81.8403C82.4253 11.3696 83.5588 9.83387 84.802 8.73693C86.0087 7.67655 87.6175 7.16464 89.0801 7.12808C94.5648 6.87213 97.0512 10.3823 97.0512 15.9402Z" fill="black"/>
<path d="M73.211 19.6699C71.2731 22.5219 67.9457 24.3867 64.2161 24.3867C58.256 24.3867 53.3929 19.6333 53.3929 13.7464C53.3929 7.85947 57.8173 2.88666 63.9236 2.59414C68.1651 2.37475 71.4559 4.86116 73.211 7.96916H75.149V0.729342H72.5163L73.6864 6.5797H73.1379C72.37 5.11711 71.4194 3.94704 70.359 3.03292C66.7391 -0.0385164 61.6931 0.0711755 57.5979 2.26506C53.4295 4.49551 50.614 8.81015 50.614 13.783C50.614 21.0228 56.7203 26.8731 64.2527 26.8731C68.8964 26.8731 72.9916 24.6427 75.4415 21.2422L73.211 19.6699Z" fill="black"/>
<path d="M225.028 25.9955C224.26 24.7523 222.944 24.021 221.152 23.6188C218.483 23.0338 214.936 23.8748 212.194 25.4836H211.682L214.241 21.6809C214.79 21.7906 215.375 21.8637 215.96 21.8637C220.348 21.8637 223.894 18.5363 223.894 14.4045C223.894 11.845 222.542 9.61454 220.494 8.26164L223.675 3.14258H221.042L218.775 7.38409C217.898 7.09157 216.984 6.90875 215.997 6.90875C211.609 6.90875 208.062 10.2361 208.062 14.368C208.062 17.2566 209.817 19.7795 212.377 21.0227L209.086 26.4343H211.718C217.423 23.9479 221.774 24.5695 223.163 26.8C224.626 29.1401 219.105 32.3578 208.391 27.641L207.404 29.2498C211.645 31.078 215.521 31.8825 218.3 31.8825C221.042 31.8825 223.017 31.1877 224.187 30.2371C225.576 29.0304 225.906 27.4216 225.028 25.9955ZM210.658 14.4045C210.658 11.589 212.998 9.28546 215.887 9.28546C218.775 9.28546 221.116 11.589 221.116 14.4045C221.116 17.22 218.775 19.5236 215.887 19.5236C212.998 19.5236 210.658 17.22 210.658 14.4045Z" fill="black"/>
</svg>
