<svg width="26" height="28" viewBox="0 0 26 28" fill="none" xmlns="http://www.w3.org/2000/svg">
<path d="M23.6642 20.1104C21.6348 23.1286 18.1502 25.1021 14.2445 25.1021C8.00295 25.1021 2.91016 20.0717 2.91016 13.8417C2.91016 7.61181 7.54344 2.34926 13.9381 2.0397C18.38 1.80753 21.8262 4.4388 23.6642 7.7279H25.6937V0.066241H22.9367L24.162 6.25748H23.5876C22.7835 4.70967 21.7879 3.47142 20.6775 2.50404C16.8866 -0.746358 11.6024 -0.630274 7.3137 1.69144C2.94846 4.05185 0 8.61789 0 13.8804C0 21.5421 6.39471 27.7333 14.2828 27.7333C19.1458 27.7333 23.4345 25.3729 26 21.7743L23.6642 20.1104Z" fill="black"/>
</svg>
