<svg width="115" height="30" viewBox="0 0 115 30" fill="none" xmlns="http://www.w3.org/2000/svg">
<path fill-rule="evenodd" clip-rule="evenodd" d="M50.915 12.4899C50.943 12.4799 50.96 12.4619 50.95 12.4269C50.9491 12.4387 50.9407 12.4455 50.9323 12.4525C50.931 12.4535 50.9297 12.4545 50.9285 12.4556C51.0379 12.2396 51.1339 12.0548 51.197 11.9359C51.2053 11.9204 51.2139 11.9042 51.2229 11.8874C51.4636 11.4382 51.9452 10.5392 51.309 9.95986C50.649 9.35986 49.819 8.98786 48.959 8.70286C48.099 8.41786 47.44 8.41886 47.154 8.81986C46.868 9.22086 46.754 9.33586 46.525 9.47986C46.296 9.62286 45.925 10.3099 45.754 10.7979C45.583 11.2849 45.097 12.4029 44.296 13.1779C43.9409 13.5214 43.6305 13.8369 43.3676 14.104C43.0383 14.4386 42.7836 14.6974 42.609 14.8409C42.294 15.0989 42.209 15.2709 42.552 15.0709C42.895 14.8689 43.01 15.0119 42.724 15.2409C42.438 15.4709 41.78 15.9309 41.75 15.6439C41.721 15.3579 41.92 13.8109 42.29 12.1199C42.3393 11.8948 42.3911 11.6672 42.4428 11.4401C42.7794 9.96125 43.1119 8.50052 42.714 7.87986C42.254 7.16486 41.537 6.39286 40.564 6.39386C39.59 6.39586 38.056 7.30386 37.398 8.04986C36.9529 8.55449 36.4245 9.4563 35.9521 10.2625C35.7262 10.6481 35.5131 11.0119 35.328 11.2999C35.0969 11.6599 34.7762 12.2037 34.4575 12.7441C33.9901 13.5367 33.527 14.322 33.357 14.5099C33.071 14.8249 32.227 14.8139 32.627 13.8969C33.027 12.9799 34.161 10.6069 34.417 10.1329C34.675 9.66086 35.017 8.55686 34.774 8.92986C34.531 9.30286 34.644 8.45786 34.83 8.15686C35.016 7.85586 35.259 7.28186 34.958 7.55486C34.658 7.82686 34.443 7.82786 34.515 7.61286C34.585 7.39786 34.5 7.35486 34.271 7.71286C34.043 8.07186 33.613 8.14286 33.671 7.98586C33.6972 7.91231 33.6829 7.85127 33.669 7.79246C33.6533 7.72573 33.6383 7.66187 33.684 7.58586C33.77 7.44186 33.684 7.31286 33.555 7.51386C33.426 7.71386 33.097 8.02986 33.369 7.41386C33.639 6.79786 33.711 6.42486 33.482 6.68386C33.4033 6.77218 33.2823 6.84727 33.1418 6.93449C32.8734 7.10109 32.5337 7.31197 32.281 7.74386C31.895 8.40386 30.189 11.5229 29.89 12.5689C29.7742 12.9723 29.5052 13.6875 29.2054 14.4845C28.7286 15.752 28.174 17.2265 28.034 17.9829C27.9047 18.6845 28.1656 19.4502 28.4143 20.1805C28.6024 20.7326 28.7836 21.2644 28.784 21.7329C28.7843 21.8913 28.7809 22.0516 28.7776 22.2099C28.758 23.1406 28.7399 24.005 29.474 24.0529C30.334 24.1089 31.678 22.1879 32.021 21.6429C32.1748 21.3982 32.5605 20.8632 32.9747 20.2886C33.4814 19.5857 34.0309 18.8235 34.251 18.4609C34.4133 18.193 34.6649 17.7272 34.9314 17.2338C35.3217 16.5113 35.744 15.7295 35.965 15.4229C36.336 14.9069 37.08 14.0179 37.08 14.0179C37.08 14.0179 37.538 13.6739 37.625 14.4179C37.6523 14.6546 37.6625 14.9172 37.6729 15.1856C37.6952 15.762 37.7185 16.365 37.915 16.7949C38.0909 17.1823 38.4949 17.656 38.8533 18.0764C39.0778 18.3395 39.2843 18.5818 39.406 18.7689C39.722 19.2549 40.726 20.5139 41.213 20.5139C41.7 20.5139 42.787 19.8529 43.503 19.1359C44.217 18.4189 44.99 17.5869 44.99 17.5869C44.99 17.5869 45.649 18.0449 46.596 19.3029C46.9119 19.7232 47.1575 20.0222 47.3498 20.2564C47.7341 20.7243 47.906 20.9337 48.002 21.3349C48.146 21.9359 48.548 22.7089 48.548 22.7089C48.548 22.7089 48.692 23.0529 48.921 23.0519C49.0489 23.0519 49.2124 22.7926 49.3567 22.5637C49.4708 22.3828 49.5729 22.2209 49.636 22.2209C49.779 22.2209 49.663 20.9029 49.548 20.5019L49.5394 20.4721C49.421 20.0644 49.202 19.3101 49.201 18.5549C49.201 17.7819 49.227 16.4649 49.541 15.8909C49.7628 15.4861 49.8848 15.053 49.9979 14.6513C50.045 14.4843 50.0905 14.3227 50.141 14.1709C50.2619 13.8045 50.6297 13.0461 50.9141 12.484C50.9142 12.4859 50.9145 12.4878 50.915 12.4899ZM114.177 19.4979C113.851 19.4689 113.681 19.5679 113.681 19.5679C113.681 19.5679 113.031 19.4979 112.861 19.5679C112.835 19.5789 112.782 19.6016 112.712 19.632L112.712 19.6321C112.333 19.7971 111.433 20.1888 111.289 20.1779C111.119 20.1629 110.766 20.0209 110.652 19.7099C110.539 19.3979 109.109 14.2889 109.152 13.7649C109.191 13.2859 109.289 12.2859 109.413 11.7509C109.425 11.7009 109.437 11.6549 109.449 11.6129C109.591 11.1329 110.185 8.28686 110.143 8.04586C110.121 7.92107 110.041 7.79601 109.968 7.68094C109.9 7.5747 109.838 7.47699 109.831 7.39586C109.817 7.22586 109.633 6.77186 109.279 6.77186C108.925 6.77186 108.274 7.01186 107.637 7.76286C107 8.51286 104.155 12.5329 103.915 12.8869C103.674 13.2409 103.405 13.6799 103.405 13.6799C103.405 13.6799 103.15 13.8639 103.179 13.5239C103.193 13.3488 103.279 12.9675 103.364 12.5866L103.364 12.5863C103.445 12.2275 103.526 11.8691 103.546 11.6839C103.589 11.3019 103.688 10.6369 103.758 10.4239C103.822 10.2366 103.818 9.65116 103.816 9.37111V9.37015C103.816 9.33364 103.816 9.30235 103.816 9.27786C103.816 9.22226 103.859 9.10698 103.912 8.96443C104.061 8.56088 104.292 7.9388 103.863 7.83386C103.283 7.69186 102.018 8.45686 102.018 8.45686C102.018 8.45686 100.078 12.4339 100.078 12.7319C100.078 12.9009 100.106 13.0609 100.129 13.1988L100.129 13.1989C100.147 13.3031 100.163 13.3947 100.163 13.4679C100.163 13.5313 100.084 13.8175 99.9839 14.1816C99.8154 14.7929 99.5865 15.6237 99.569 15.9879C99.5538 16.2922 99.3631 17.3761 99.1853 18.3865L99.1852 18.3874C99.0243 19.302 98.874 20.1563 98.874 20.3179L98.8739 20.3678C98.8733 20.7028 98.8725 21.1469 99.101 21.5639C99.1222 21.6025 99.1429 21.6409 99.1634 21.6788C99.376 22.072 99.5608 22.4139 99.922 22.4139C100.319 22.4139 101.027 22.1869 101.423 21.5499C101.819 20.9129 102.442 19.8659 102.442 19.8659C102.442 19.8659 102.556 19.7099 102.81 19.5969C103.065 19.4839 103.518 18.8319 103.674 18.3089C103.83 17.7849 104.863 15.0389 105.004 14.7689C105.146 14.5009 105.315 14.2179 105.315 14.2179C105.315 14.2179 105.528 13.9909 105.542 14.3589C105.544 14.406 105.544 14.5252 105.544 14.7018C105.544 15.905 105.545 19.7705 106.109 21.6209C106.299 22.2469 107.028 23.2909 107.637 23.7159C108.246 24.1409 108.812 24.3949 108.982 24.3949C109.152 24.3949 111.462 23.8269 112.974 22.5689C113.559 22.0829 114.162 21.4649 114.261 21.2529C114.361 21.0409 114.488 20.6729 114.488 20.2899L114.488 20.2442C114.489 19.878 114.489 19.5247 114.178 19.4979H114.177ZM87.3763 3.58918L87.3762 3.589C87.2303 3.25359 87.0925 2.93677 86.794 2.64586C86.3518 2.22268 85.9003 1.80925 85.44 1.40586C85.4257 1.39388 85.4071 1.37788 85.385 1.35878L85.3849 1.35874C85.1779 1.18027 84.6568 0.731184 84.356 0.752863C84.024 0.777863 83.667 1.03586 83.47 1.42986C83.273 1.82386 83.088 2.63586 83.113 3.15286C83.113 3.15286 83.076 4.24886 83.495 5.12286L83.5608 5.26069C83.9717 6.12314 84.5152 7.26386 85.181 7.26386C85.882 7.26386 86.757 6.64886 87.138 6.00886C87.4045 5.55997 87.4969 5.32262 87.558 5.16568C87.584 5.09887 87.6043 5.04664 87.63 4.99886C87.716 4.83886 87.794 4.43286 87.59 4.04786V4.04586C87.5073 3.8904 87.441 3.73796 87.3763 3.58918ZM99.685 8.61386C99.685 8.61386 99.751 8.29186 99.337 8.42386C98.921 8.55686 98.337 8.74586 97.421 9.41586C96.506 10.0859 91.164 14.6339 91.164 14.6339C91.164 14.6339 90.956 14.8229 90.966 14.6139C90.976 14.4079 90.956 11.9069 90.946 11.5579C90.937 11.2079 90.749 10.0199 90.683 9.71786C90.617 9.41586 89.947 8.63186 89.721 8.60386C89.494 8.57586 87.776 8.55686 87.729 9.18886C87.729 9.18886 87.389 11.1709 87.352 12.3029C87.3504 12.3497 87.3488 12.3973 87.3471 12.4457C87.3452 12.5005 87.3433 12.5562 87.3413 12.6129C87.3025 13.7173 87.2522 15.1519 87.389 16.1149C87.541 17.1719 88.201 20.8339 88.371 21.5319C88.541 22.2309 89.145 23.3439 89.296 23.4949C89.446 23.6459 89.711 23.7779 90.088 23.7779C90.466 23.7779 90.853 23.5239 90.853 23.5239C90.853 23.5239 91.061 23.2499 91.061 22.9949C91.061 22.8651 91.0289 22.7551 91.0025 22.6645C90.977 22.5771 90.9568 22.5079 90.976 22.4569C90.9905 22.4161 92.1329 20.7505 93.5197 18.7286C95.6714 15.5916 98.4114 11.5968 98.44 11.4819C98.4637 11.3873 98.5567 11.266 98.6469 11.1486L98.6469 11.1485C98.7359 11.0326 98.8221 10.9203 98.836 10.8409C98.848 10.7744 98.9932 10.5336 99.1603 10.2565C99.3956 9.86624 99.6743 9.40396 99.686 9.25486C99.704 8.99986 99.686 8.61386 99.686 8.61386H99.685ZM85.163 9.80786C84.427 9.41186 83.978 9.35786 83.978 9.35786C83.978 9.35786 83.355 9.07486 82.714 9.39586C82.072 9.71586 81.771 10.1319 81.678 10.3389C81.583 10.5469 81.508 11.0569 81.508 11.0569C81.508 11.0569 80.168 12.3589 79.809 13.1139C79.45 13.8689 78.336 16.6049 78.336 17.2089C78.336 17.8129 78.784 19.0289 78.784 19.0289C78.784 19.0289 78.199 18.8799 77.776 19.3299C77.291 19.8449 76.57 20.3969 75.704 20.3969C74.005 20.3969 73.475 19.2109 73.475 18.3049C73.475 17.5642 73.8366 17.1162 74.1079 16.7801L74.108 16.78C74.1685 16.7051 74.2245 16.6357 74.271 16.5699C74.711 15.9479 78.06 10.5239 79.229 8.44786C80.399 6.37186 81.647 2.60386 81.647 1.86786C81.647 1.13186 81.647 0.0938628 80.533 0.0178628C79.42 -0.0571372 78.795 0.110863 77.927 0.393863C77.8555 0.417168 77.7839 0.436119 77.7104 0.455534C76.8924 0.671873 75.8569 0.945702 72.435 7.94186C72.006 8.81686 69.682 15.0579 69.625 15.6619C69.568 16.2659 69.53 16.4549 69.53 16.4549C69.53 16.4549 69.323 17.2849 68.474 17.9649C67.624 18.6449 66.624 19.1349 66.624 19.1349L67.946 10.8859C67.946 10.8859 68.267 9.97986 67.965 9.60286C67.663 9.22586 66.663 8.69686 65.681 8.67786C64.561 8.65586 63.491 9.22586 63.341 10.2259C63.19 11.2259 62.907 12.1129 62.02 13.2829C61.133 14.4529 57.886 17.9449 57.112 18.4169C56.339 18.8889 55.98 19.0399 55.905 18.9639C55.829 18.8889 57.339 14.7929 57.509 14.4339C57.679 14.0759 57.83 13.1139 57.83 13.1139C57.83 13.1139 58.849 11.9809 59.056 11.5469C59.264 11.1129 59.378 10.1869 59.019 9.69686C58.66 9.20686 57.943 8.71586 57.377 8.71586C56.49 8.71586 55.905 9.13086 55.905 9.13086C55.905 9.13086 54.621 10.1509 53.98 11.2069C53.338 12.2639 51.72 15.9999 51.545 18.1149C51.487 18.8109 52.055 20.0399 53.281 21.2479C54.508 22.4559 55.659 23.1349 55.942 23.1349C56.226 23.1349 57.698 22.7579 58.698 21.9649C59.698 21.1719 60.491 20.3979 60.661 20.2289C60.831 20.0589 61.246 19.6059 61.246 19.6059C61.246 19.6059 61.378 19.4159 61.359 19.7939C61.34 20.1719 61.322 20.3789 61.322 20.3789C61.322 20.3789 59.468 23.2599 59.147 24.9019C59.0601 25.3478 58.9454 25.7797 58.8365 26.1898C58.5444 27.2899 58.294 28.2328 58.734 28.8659C59.248 29.6059 60.206 29.8089 60.848 29.8089C61.489 29.8089 62.198 29.3329 62.329 28.6159C62.4126 28.1616 62.7203 27.5137 63.0121 26.8993C63.1808 26.544 63.3443 26.1999 63.456 25.9109C64.808 22.4189 65.964 21.7579 65.964 21.7579C65.964 21.7579 66.584 21.7939 67.134 21.5119C67.833 21.1539 69.474 20.1149 69.474 20.1149C69.474 20.1149 70.135 21.6249 71.362 22.3799C72.589 23.1349 74.76 23.1059 75.362 23.0199C77.758 22.6779 79.583 21.3089 79.583 21.3089C79.583 21.3089 80.03 22.8679 81.106 22.8289C82.182 22.7919 86.178 12.6429 86.122 11.3829C86.084 10.5349 85.9 10.2029 85.164 9.80686L85.163 9.80786ZM11.9025 15.7367C12.0007 20.2731 12.85 23.8169 13.884 23.8169C14.259 23.8169 14.6098 23.3506 14.9093 22.54C15.3737 23.1465 15.9005 23.4889 16.459 23.4889C16.9574 23.4889 17.4308 23.2159 17.8571 22.7257C18.2536 22.911 18.6706 23.0099 19.101 23.0099C21.721 23.0099 23.845 19.3459 23.845 14.8269C23.845 10.3069 21.721 6.64386 19.101 6.64386C18.6345 6.64386 18.1838 6.75998 17.7579 6.97638C17.3579 6.55531 16.9192 6.32286 16.459 6.32286C15.9213 6.32286 15.4129 6.6404 14.9614 7.2056L14.936 7.17986L14.9205 7.19986C14.6186 6.37125 14.2638 5.89386 13.884 5.89386C12.8501 5.89386 12.0009 9.43892 11.9025 13.9742C11.8043 9.43856 10.955 5.89386 9.921 5.89386C9.53926 5.89386 9.18257 6.37704 8.87952 7.21489L8.86717 7.22765C8.41124 6.64931 7.89662 6.32386 7.352 6.32386C6.89615 6.32386 6.46132 6.55181 6.06432 6.96517C5.64515 6.75598 5.20213 6.64386 4.744 6.64386C2.124 6.64386 0 10.3079 0 14.8269C0 19.3469 2.124 23.0099 4.744 23.0099C5.16557 23.0099 5.5743 22.915 5.96341 22.737C6.38717 23.2201 6.85721 23.4889 7.352 23.4889C7.90856 23.4889 8.43385 23.1484 8.89718 22.5453C9.19629 23.3527 9.5465 23.8169 9.921 23.8169C10.9549 23.8169 11.8041 20.2727 11.9025 15.7367Z" fill="black"/>
</svg>
