<svg width="500" height="139" viewBox="0 0 500 139" fill="none" xmlns="http://www.w3.org/2000/svg">
<path fill-rule="evenodd" clip-rule="evenodd" d="M68.4882 85.6264C59.164 85.6264 51.6041 78.0482 51.6041 68.7422C51.6041 59.418 59.164 51.8617 68.4882 51.8617C77.7942 51.8617 85.3505 59.418 85.3505 68.7422C85.3505 78.0482 77.7942 85.6264 68.4882 85.6264ZM68.4882 26.2621C59.6962 26.2621 51.5312 28.9011 44.7112 33.4976C21.6194 48.7452 6.42651 74.9535 6.42651 104.654C6.42651 108.984 6.76915 113.162 7.37789 117.284C7.37789 117.415 7.37789 117.55 7.43257 117.627C7.64034 118.972 7.85175 120.321 8.11785 121.669C8.17252 121.881 8.17252 122.088 8.32562 122.355C11.1542 131.336 19.589 137.945 29.5183 137.945C39.2435 137.945 47.4851 131.661 50.5215 123.018C52.6684 116.143 59.0875 111.15 66.6657 111.15C67.2525 111.208 67.8613 111.208 68.4882 111.208C91.981 111.208 111.008 92.1585 111.008 68.7422C111.008 45.2349 91.981 26.2621 68.4882 26.2621Z" fill="black"/>
<path fill-rule="evenodd" clip-rule="evenodd" d="M42.5613 6.42061C35.5846 1.78767 27.8606 -1.40545 19.4549 0.621237C12.2522 2.35996 5.82951 7.32825 2.53432 13.9952C-0.647862 20.4324 -0.800956 28.233 1.89278 34.8671C3.03735 37.6811 4.52456 41.2132 7.50261 42.4526C10.3021 43.619 13.6228 42.8535 15.6166 40.5644C23.2349 31.8307 32.1837 24.289 42.1494 18.2527C46.5053 15.6099 46.8042 9.23829 42.5613 6.42061Z" fill="black"/>
<path fill-rule="evenodd" clip-rule="evenodd" d="M217.542 118.715C217.542 122.305 217.44 125.896 216.824 129.074C215.694 134.509 212.209 138.304 205.746 138.304C198.051 138.304 193.542 133.587 192.31 126.92C191.388 121.587 191.286 115.434 191.286 109.38V105.381V100.358C191.286 84.5602 192.001 65.0734 207.182 65.0734C211.797 65.0734 214.567 66.2034 217.44 68.6675C224.413 74.6127 223.695 87.2284 229.848 93.3813C229.95 93.4834 230.056 93.5855 230.158 93.5855C230.872 93.5855 231.182 90.6111 231.182 89.4847V88.4568C231.182 85.1762 231.288 81.9977 231.288 78.6113C231.288 73.2785 232.104 69.3819 235.283 66.5132C237.339 64.6651 240.105 63.7429 242.773 63.7429C246.67 63.7429 251.183 65.6894 253.541 68.5618C256.618 72.3563 257.438 76.7669 257.438 82.7157V83.74C257.438 88.9708 257.543 94.4056 257.336 99.5343C257.128 105.997 256.822 112.15 256.005 118.409C254.565 128.458 251.795 138.716 240.105 138.716C230.566 138.716 227.078 135.125 224.001 125.484C222.977 122.407 221.234 115.536 219.08 113.28C218.872 113.072 218.672 112.868 218.464 112.868C217.848 112.868 217.44 113.998 217.44 115.434L217.542 117.997V118.715Z" fill="black"/>
<mask id="mask0" mask-type="alpha" maskUnits="userSpaceOnUse" x="422" y="63" width="78" height="76">
<path d="M500 63.6375V138.304H422.569V63.6375H500Z" fill="white"/>
</mask>
<g mask="url(#mask0)">
<path fill-rule="evenodd" clip-rule="evenodd" d="M461.284 111.556C455.448 111.556 450.702 106.807 450.702 100.971C450.702 95.1349 455.448 90.3853 461.284 90.3853C467.12 90.3853 471.866 95.1349 471.866 100.971C471.866 106.807 467.12 111.556 461.284 111.556ZM487.284 73.1767C480.206 67.0238 470.772 63.6375 461.335 63.6375H459.797C449.641 64.0493 439.592 68.562 432.615 75.9434C426.258 82.716 422.569 91.8433 422.569 101.175C422.569 102.097 422.569 102.921 422.671 103.843C423.386 113.175 427.898 122.101 434.875 128.353C441.852 134.611 451.081 138.1 460.413 138.304H461.233C471.388 138.304 481.438 134.407 488.721 127.329C495.796 120.457 500.002 110.612 500.002 100.767V99.3304C499.59 89.3829 494.772 79.7379 487.284 73.1767Z" fill="black"/>
</g>
<path fill-rule="evenodd" clip-rule="evenodd" d="M380.814 101.226C374.978 101.226 370.232 96.4765 370.232 90.6443C370.232 84.8085 374.978 80.0589 380.814 80.0589C386.65 80.0589 391.396 84.8085 391.396 90.6443C391.396 96.4765 386.65 101.226 380.814 101.226ZM414.451 116.353C414.451 72.663 397.84 63.9438 377.635 63.9438C361.735 63.9438 346.969 74.9193 346.969 116.561V119.535C346.969 125.896 347.888 137.896 360.299 137.896C371.785 137.896 373.017 133.073 374.763 122.204C377.019 122.51 379.378 122.612 381.63 122.612C383.581 122.612 385.531 122.51 387.375 122.306C389.836 132.355 391.684 137.896 401.737 137.896C413.223 137.896 414.659 127.639 414.659 120.972C414.659 119.025 414.451 117.279 414.451 116.353Z" fill="black"/>
<path fill-rule="evenodd" clip-rule="evenodd" d="M147.102 101.226C141.266 101.226 136.52 96.4765 136.52 90.6443C136.52 84.8085 141.266 80.0589 147.102 80.0589C152.938 80.0589 157.683 84.8085 157.683 90.6443C157.683 96.4765 152.938 101.226 147.102 101.226ZM180.739 116.353C180.739 72.663 164.128 63.9438 143.923 63.9438C128.023 63.9438 113.257 74.9193 113.257 116.561V119.535C113.257 125.896 114.175 137.896 126.587 137.896C138.073 137.896 139.305 133.073 141.051 122.204C143.307 122.51 145.666 122.612 147.918 122.612C149.868 122.612 151.818 122.51 153.663 122.306C156.123 132.355 157.971 137.896 168.025 137.896C179.51 137.896 180.947 127.639 180.947 120.972C180.947 119.025 180.739 117.279 180.739 116.353Z" fill="black"/>
<path fill-rule="evenodd" clip-rule="evenodd" d="M303.523 111.094C297.687 111.094 292.941 106.344 292.941 100.508C292.941 94.6726 297.687 89.923 303.523 89.923C309.358 89.923 314.104 94.6726 314.104 100.508C314.104 106.344 309.358 111.094 303.523 111.094ZM288.804 62.8179C282.239 62.8179 275.575 63.6381 271.981 67.2285C268.187 71.0231 267.881 79.6401 267.881 88.6654V93.7941V98.4088C267.779 101.281 267.779 104.664 267.779 108.05C267.779 117.382 268.085 127.023 269.317 129.793C271.165 134.102 275.058 137.28 280.598 137.896C282.749 138.1 284.703 138.203 286.547 138.203C290.444 138.203 294.136 137.896 298.853 137.896H300.905H301.729C311.775 137.896 320.702 133.996 327.985 126.921C335.06 120.05 339.263 110.204 339.263 100.359V98.9191C338.191 72.893 316.237 62.8179 288.804 62.8179Z" fill="black"/>
</svg>
