<svg width="96" height="43" viewBox="0 0 96 43" fill="none" xmlns="http://www.w3.org/2000/svg">
<path fill-rule="evenodd" clip-rule="evenodd" d="M24.7373 6.7748C24.7712 6.72621 24.8047 6.67808 24.8404 6.635C24.8126 6.56797 24.7897 6.50813 24.769 6.45368L24.7689 6.45365C24.7297 6.35079 24.6978 6.26717 24.6536 6.19063C24.1416 5.3036 23.6285 4.41725 23.1153 3.5309C22.5007 2.46919 21.886 1.40748 21.2733 0.344605C21.0588 -0.0275422 20.7752 -0.0887815 20.4203 0.115138C19.9855 0.364981 19.5519 0.617013 19.1183 0.869044C18.7522 1.08185 18.3861 1.29466 18.0192 1.50614C17.6458 1.72146 17.6075 2.00686 17.8135 2.36234C18.9421 4.30985 20.0694 6.2581 21.1939 8.20793C21.3997 8.56477 21.6757 8.67555 22.0418 8.46754L22.1143 8.42632C22.9079 7.97539 23.7016 7.52434 24.4832 7.05321C24.5871 6.99058 24.663 6.88158 24.7373 6.7748ZM51.5858 12.2556L49.979 14.8727C49.8097 14.7738 49.6447 14.672 49.4814 14.5712L49.4807 14.5708L49.4807 14.5707C49.127 14.3524 48.7809 14.1387 48.4144 13.9692C47.0234 13.326 45.5951 13.24 44.2311 14.0035C42.6412 14.8934 41.971 17.0332 42.5956 18.9688C43.3898 21.4299 45.9067 22.4759 48.3105 21.305C48.7473 21.0923 49.1541 20.8179 49.5834 20.5284L49.5834 20.5284C49.7875 20.3907 49.9967 20.2496 50.2167 20.1101L50.369 20.3233C50.4965 20.5015 50.6378 20.699 50.7782 20.8972C50.8776 21.0374 50.9757 21.1788 51.0737 21.3201C51.2922 21.6352 51.5108 21.9503 51.7446 22.2537C51.9385 22.5053 51.9026 22.6562 51.6729 22.8654C49.9432 24.441 47.9026 25.0881 45.5892 24.9416C42.3212 24.7346 39.9106 22.8293 39.0532 19.7787C38.1682 16.63 39.2712 13.3848 41.8437 11.5685C44.5053 9.68914 48.8214 9.89963 51.2723 12.0266C51.3346 12.0807 51.4029 12.1278 51.4759 12.1783C51.5115 12.2029 51.5482 12.2282 51.5858 12.2556ZM32.3431 30.0471C34.4771 21.4608 29.5503 13.6285 22.5188 10.8758C22.5011 10.9331 22.4829 10.987 22.4655 11.0386C22.4301 11.1436 22.3977 11.2397 22.3776 11.3383C22.2876 11.7791 22.1932 12.2193 22.0987 12.6594C21.8697 13.7266 21.6407 14.7939 21.475 15.8709C21.1882 17.7362 21.1025 19.6199 21.5062 21.4863C22.2486 24.919 23.712 28.0548 25.5292 31.0328C26.1469 32.045 26.2181 33.0722 25.794 34.13C25.0533 35.9776 23.7276 37.4026 22.3069 38.7415C21.9918 39.0384 21.562 38.913 21.2827 38.687C21.1019 38.5407 20.9799 38.1727 21.0206 37.9367C21.081 37.5871 21.2644 37.2345 21.4744 36.9394C21.889 36.3565 22.3239 35.7881 22.7588 35.2196L22.7588 35.2195C22.9423 34.9798 23.1257 34.74 23.3076 34.4991C23.5593 34.1659 23.7763 33.7859 23.5486 33.3898C23.1287 32.6592 22.6797 31.9397 22.1743 31.267C22.0041 31.0405 21.6185 30.8356 21.3444 30.8511C20.0616 30.9241 19.1168 31.0471 18.592 32.6364C18.2675 33.6189 18.0865 34.6739 18.0116 35.7087C17.8309 38.208 17.097 40.4505 15.3335 42.2914C15.3171 42.3085 15.3128 42.3372 15.3084 42.3667C15.3063 42.3807 15.3041 42.395 15.3007 42.4082C21.8894 43.1077 30.1533 38.8579 32.3431 30.0471ZM50.7086 28.23H41.19L41.1903 28.4283C41.1905 28.559 41.1907 28.6805 41.1899 28.8019C41.1863 29.3491 41.1847 29.8965 41.183 30.4438L41.183 30.4471C41.179 31.7652 41.175 33.0834 41.1447 34.401C41.1185 35.5446 40.9623 36.6771 40.5017 37.7433C40.2159 38.405 39.7789 38.924 39.094 39.201C39.0188 39.2314 38.9325 39.2547 38.8464 39.278C38.6625 39.3277 38.4798 39.377 38.4101 39.4944C38.3216 39.6436 38.3367 39.8556 38.3516 40.0658C38.3575 40.1485 38.3634 40.231 38.3629 40.3093C38.3607 40.6802 38.3611 41.0512 38.3615 41.4222C38.3617 41.5758 38.3619 41.7293 38.3619 41.8829V42.5338C40.162 42.5477 41.651 42.0384 42.7385 40.6224C43.3793 39.788 43.757 38.8294 44.0055 37.8181C44.4923 35.8378 44.5362 33.8189 44.5067 31.7947C44.5048 31.6639 44.5053 31.5331 44.5058 31.4019V31.4017V31.4015V31.4013V31.4011V31.4009V31.4007V31.4005V31.4003L44.5061 31.316L44.5063 31.2164H47.2533V42.3511H50.7086V28.23ZM80.4941 31.177V28.2371H68.4578V31.2062H72.7368V42.3466H76.2289V31.177H80.4941ZM60.2731 24.6976H56.7989V13.5406H52.4937V10.5645H64.5495V13.5135H60.2731V24.6976ZM19.2268 14.8785C19.2484 14.5365 19.2686 14.2157 19.2878 13.9245C19.2603 13.4963 19.2334 13.1003 19.208 12.7269C19.1479 11.8429 19.0964 11.0857 19.0664 10.3277C19.0521 9.96573 18.9037 9.8645 18.5777 9.82045C16.5024 9.54009 14.4508 9.66752 12.4238 10.1698C4.93765 12.025 -0.202475 18.8239 0.00612392 26.5822C0.189073 33.3866 4.62774 39.4218 11.0538 41.6233C11.4022 41.7427 11.6438 41.7058 11.9244 41.4626C13.2498 40.314 14.0531 38.848 14.6117 37.2144C15.5465 34.4806 16.0325 31.6893 15.7063 28.7971C15.5387 27.311 15.0897 25.9563 13.7019 25.1239C13.5469 25.0309 13.3947 24.9325 13.2425 24.8341L13.2425 24.834C12.9663 24.6554 12.6903 24.4768 12.3978 24.3313C11.5445 23.9068 10.688 23.4889 9.83149 23.0709L9.83147 23.0709L9.83145 23.0709C8.5681 22.4544 7.30478 21.838 6.05206 21.2007C5.51399 20.9269 5.01106 20.5394 4.57762 20.1164C4.079 19.6298 4.21894 19.1124 4.86355 18.8465C5.09795 18.7498 5.38528 18.6707 5.62323 18.716C6.14651 18.8156 6.67891 18.9436 7.16236 19.1607C8.24494 19.6468 9.30998 20.1751 10.3639 20.7215C12.1889 21.6677 14.0887 21.7608 16.028 21.2172C17.8081 20.7183 18.8946 19.5761 19.0385 17.6709C19.112 16.6977 19.1735 15.7236 19.2268 14.8785ZM13.5951 12.8518C15.3609 12.8416 16.8057 14.2782 16.8086 16.0468C16.8114 17.8024 15.3548 19.2482 13.5903 19.2412C13.4813 19.2408 13.3735 19.2348 13.2671 19.2235C11.6718 19.0539 10.4051 17.6923 10.3986 16.0653C10.3977 15.8445 10.4193 15.6289 10.4612 15.4205C10.7543 13.9621 12.0427 12.8608 13.5951 12.8518ZM65.1934 17.5445C65.1839 13.4232 68.4014 10.281 72.635 10.2772C76.8616 10.2733 80.0715 13.4139 80.0678 17.5495C80.064 21.763 76.8889 24.9397 72.6537 24.9673C68.4382 24.9947 65.2032 21.7759 65.1934 17.5445ZM76.4587 17.4844L76.4576 17.4629L76.4562 17.4302L76.4549 17.3972C76.4512 17.3052 76.4463 17.1814 76.4345 17.0582L76.4344 17.0579C76.2767 15.4138 75.1543 14.0372 73.6318 13.6175C72.2968 13.2495 70.9157 13.6348 69.9631 14.6049C69.8271 14.7435 69.6997 14.894 69.5825 15.056C68.4503 16.6203 68.5701 18.9727 69.8582 20.4709C70.912 21.6968 72.5154 22.0897 74.0104 21.4886C75.4707 20.9014 76.4543 19.3256 76.4587 17.4844ZM52.9332 35.1608C52.9212 39.4298 56.082 42.6163 60.3388 42.6265C64.5632 42.6366 67.7741 39.4813 67.7925 35.3018C67.811 31.1125 64.6694 27.9807 60.4339 27.9661C56.149 27.9513 52.9449 31.0248 52.9332 35.1608ZM56.548 35.4309C56.5412 35.3611 56.5342 35.2914 56.5264 35.2218C56.5275 35.0611 56.5366 34.9031 56.5534 34.7482C56.8057 32.4253 58.7827 30.8078 61.0314 31.2085C62.739 31.5129 63.9384 32.8909 64.163 34.8067L64.1631 34.807C64.3905 36.7481 63.223 38.6996 61.4983 39.2612C59.3173 39.9714 57.0307 38.5069 56.6312 36.1389C56.6301 36.1325 56.629 36.1261 56.628 36.1198C56.6248 36.1002 56.6217 36.0807 56.6187 36.0612C56.5912 35.8795 56.5735 35.6963 56.5559 35.513L56.548 35.4309ZM88.5381 42.6264C84.2643 42.6135 81.1439 39.4326 81.155 35.1001C81.1656 31.0115 84.3904 27.9462 88.6608 27.9659C92.8767 27.9853 96.0206 31.1141 95.9999 35.2699C95.9789 39.4989 92.7937 42.6392 88.5381 42.6264ZM92.3685 34.7543L92.3685 34.7536C92.1625 33.0947 91.3309 31.9043 89.7275 31.3386L89.727 31.3384C88.3403 30.8494 86.7504 31.302 85.7704 32.4166L85.7699 32.4172C84.5085 33.8524 84.4346 36.1345 85.4871 37.7265C85.6375 37.9539 85.8108 38.1673 86.007 38.3621C87.2999 39.646 89.2407 39.783 90.6498 38.7879C90.8511 38.6458 91.0416 38.4805 91.2178 38.2922C91.9767 37.4809 92.3418 36.5191 92.3842 35.3764C92.387 35.3003 92.3884 35.2233 92.3884 35.1455C92.3879 35.1366 92.3876 35.127 92.3873 35.1167C92.3868 35.1002 92.3865 35.0819 92.3861 35.0621C92.3845 34.977 92.3823 34.8649 92.3685 34.7543Z" fill="black"/>
</svg>
