<?xml version="1.0" encoding="utf-8"?>
<!-- Generator: Adobe Illustrator 23.0.2, SVG Export Plug-In . SVG Version: 6.00 Build 0)  -->
<svg version="1.1" id="Layer_1" xmlns="http://www.w3.org/2000/svg" xmlns:xlink="http://www.w3.org/1999/xlink" x="0px" y="0px"
	 viewBox="0 0 24 32" style="enable-background:new 0 0 24 32;" xml:space="preserve">
<style type="text/css">
	.st0{fill:#E3E1E0;}
</style>
<g id="Group_54" transform="translate(-924 -570.001)">
	<circle id="Ellipse_14" class="st0" cx="936" cy="582.28" r="8"/>
	<path id="Path_20" d="M936,570c-6.67,0.05-12.04,5.49-12,12.16c0,3.35,1.2,6.11,3.62,9.74c2.49,3.37,4.68,6.33,7.18,9.45
		c0.43,0.66,1.32,0.85,1.98,0.42c0.17-0.11,0.31-0.25,0.42-0.42c2.56-3.38,4.86-6.31,7.18-9.45c2.43-3.63,3.62-6.39,3.62-9.74
		C948.05,575.49,942.67,570.05,936,570C936,570,936,570,936,570z M936,587.5c-2.95,0.04-5.37-2.32-5.41-5.27
		c-0.04-2.95,2.32-5.37,5.27-5.41c2.95-0.04,5.37,2.32,5.41,5.27c0,0.02,0,0.05,0,0.07C941.29,585.09,938.93,587.48,936,587.5
		L936,587.5L936,587.5z"/>
</g>
</svg>
