<svg xmlns="http://www.w3.org/2000/svg" viewBox="0 0 143.84 25.9"><defs><style>.cls-1{fill:#fff;}</style></defs><title>logo-white</title><g id="Слой_2" data-name="Слой 2"><g id="cut"><path class="cls-1" d="M.45,4.64a103.08,103.08,0,0,0,10.1,3.93,18.26,18.26,0,0,0,5.62,0c2.1-.39,8.32-3.14,9.94-3.86l0,0,.05,0c-.83-.32-3.45-1.34-10.37-4.13a6.56,6.56,0,0,0-5.25,0C3.84,3.24,1.25,4.26.37,4.61l0,0Z"/><path class="cls-1" d="M13,25.75c0-1.81-.17-9.09-.74-11.23a12.73,12.73,0,0,0-2.59-4.4C8.13,8.66,1.78,5.79.09,5.05h0L0,5c.18,1.1.28,1.9,1.87,9.61.71,3.45.77,3.84,2.56,5.12,5.94,4.26,7.9,5.69,8.53,6.16v-.14Z"/><path class="cls-1" d="M26.36,5.2h0c-1.52.7-7.54,3.49-9.1,4.83a13.63,13.63,0,0,0-3,4.52c-.71,2.09-.77,9.42-.78,11.21v.14c.9-.63,4-2.84,8.6-6.39,1.61-1.25,1.74-2,2.26-4.28,1-4.31,1.85-8.85,2.09-10.08Z"/><path class="cls-1" d="M41.51,9.11h2.28a.27.27,0,0,1,.27.27v9.85a.27.27,0,0,1-.27.26h-2a.27.27,0,0,1-.21-.1l-3.9-5.06a.27.27,0,0,0-.48.16v4.74a.27.27,0,0,1-.27.26H34.62a.27.27,0,0,1-.27-.26V9.38a.27.27,0,0,1,.27-.27h2.05a.26.26,0,0,1,.21.11l3.88,5a.26.26,0,0,0,.48-.16V9.38A.27.27,0,0,1,41.51,9.11Z"/><path class="cls-1" d="M55.72,10.44a5.29,5.29,0,0,1,0,7.73,6,6,0,0,1-8.2,0,5.29,5.29,0,0,1,0-7.73,6,6,0,0,1,8.2,0Zm-6.16,1.75a2.86,2.86,0,0,0-.83,2.11,2.91,2.91,0,0,0,.83,2.13,2.95,2.95,0,0,0,4.12,0,3,3,0,0,0,.83-2.13,2.9,2.9,0,0,0-.83-2.11,2.92,2.92,0,0,0-4.12,0Z"/><path class="cls-1" d="M61.19,19.32,57.67,9.47a.27.27,0,0,1,.25-.36h2.47a.27.27,0,0,1,.25.19l1.92,6.11a.27.27,0,0,0,.51,0L65,9.3a.27.27,0,0,1,.25-.19H67.7a.27.27,0,0,1,.25.36l-3.52,9.85a.27.27,0,0,1-.25.17H61.44A.25.25,0,0,1,61.19,19.32Z"/><path class="cls-1" d="M74,17.27H71a.27.27,0,0,0-.25.18l-.62,1.86a.25.25,0,0,1-.25.18H67.42a.26.26,0,0,1-.25-.36L70.9,9.29a.27.27,0,0,1,.25-.18h2.74a.27.27,0,0,1,.25.18l3.73,9.84a.27.27,0,0,1-.25.36H75.16a.27.27,0,0,1-.26-.18l-.62-1.86A.27.27,0,0,0,74,17.27Zm-.91-2.22a.26.26,0,0,0,.25-.35L72.52,12l-.85,2.69a.26.26,0,0,0,.25.35Z"/><path class="cls-1" d="M84.39,19.49h-4.7a.26.26,0,0,1-.26-.26V9.38a.26.26,0,0,1,.26-.26H84.1a3.9,3.9,0,0,1,2.57.81,2.4,2.4,0,0,1,.84,2.74,1.89,1.89,0,0,1-.33.62,3,3,0,0,1-.39.4,1.52,1.52,0,0,1-.34.25l-.13.07.2.08a4.12,4.12,0,0,1,.44.26,3.14,3.14,0,0,1,.57.45,2.49,2.49,0,0,1,.44.69,2.39,2.39,0,0,1,.2,1,2.72,2.72,0,0,1-1.06,2.13A4,4,0,0,1,84.39,19.49ZM82.24,17a.27.27,0,0,0,.27.26h1.66A1.14,1.14,0,0,0,85,17a1.05,1.05,0,0,0,0-1.49,1.1,1.1,0,0,0-.8-.3H82.51a.27.27,0,0,0-.27.27Zm1.56-5.67H82.51a.27.27,0,0,0-.27.27v1.24a.27.27,0,0,0,.27.27H83.8a1,1,0,0,0,.7-.25.92.92,0,0,0,0-1.28A1,1,0,0,0,83.8,11.34Z"/><path class="cls-1" d="M90,19.23V9.38a.26.26,0,0,1,.26-.26h4.63a3.75,3.75,0,0,1,2.71,1,3.57,3.57,0,0,1,.88,3.7,2.94,2.94,0,0,1-.44.87,4.33,4.33,0,0,1-.52.58,2.59,2.59,0,0,1-.44.32l-.19.11,1.92,3.37a.27.27,0,0,1-.23.4H96.19a.28.28,0,0,1-.24-.13l-1.63-3a.24.24,0,0,0-.23-.14H93a.27.27,0,0,0-.27.27v2.73a.26.26,0,0,1-.26.26H90.21A.26.26,0,0,1,90,19.23Zm5.54-5.82a1,1,0,0,0,0-1.47,1.1,1.1,0,0,0-.8-.3H93a.27.27,0,0,0-.27.27v1.53a.27.27,0,0,0,.27.27h1.66A1.1,1.1,0,0,0,95.49,13.41Z"/><path class="cls-1" d="M110.08,10.44a5.26,5.26,0,0,1,0,7.73,6,6,0,0,1-8.19,0,5.29,5.29,0,0,1,0-7.73,6,6,0,0,1,8.19,0Zm-6.15,1.75a2.86,2.86,0,0,0-.83,2.11,2.91,2.91,0,0,0,.83,2.13,2.95,2.95,0,0,0,4.12,0,3,3,0,0,0,.83-2.13,2.9,2.9,0,0,0-.83-2.11,2.92,2.92,0,0,0-4.12,0Z"/><path class="cls-1" d="M117.25,15.83l-.82.92a.29.29,0,0,0-.07.18v2.3a.27.27,0,0,1-.27.26h-2.28a.26.26,0,0,1-.26-.26V9.38a.26.26,0,0,1,.26-.26h2.28a.27.27,0,0,1,.27.26v3a.27.27,0,0,0,.47.18l2.86-3.36a.27.27,0,0,1,.21-.09h2.55a.27.27,0,0,1,.21.44l-3.2,3.7a.27.27,0,0,0,0,.32l3.62,5.5a.26.26,0,0,1-.22.41h-2.63a.25.25,0,0,1-.22-.12l-2.32-3.51A.26.26,0,0,0,117.25,15.83Z"/><path class="cls-1" d="M128.15,17.12H133a.27.27,0,0,1,.26.27v1.84a.26.26,0,0,1-.26.26h-7.62a.27.27,0,0,1-.27-.26V9.38a.27.27,0,0,1,.27-.26h7.47a.27.27,0,0,1,.27.26v1.84a.27.27,0,0,1-.27.27h-4.65a.27.27,0,0,0-.27.27v1.09a.27.27,0,0,0,.27.27h3.46a.27.27,0,0,1,.27.27v1.69a.27.27,0,0,1-.27.27h-3.46a.27.27,0,0,0-.27.26v1.24A.27.27,0,0,0,128.15,17.12Z"/><path class="cls-1" d="M135,19.23V9.38a.27.27,0,0,1,.27-.26h4.63a3.79,3.79,0,0,1,2.71,1,3.37,3.37,0,0,1,1.06,2.54,3.66,3.66,0,0,1-.18,1.16,2.94,2.94,0,0,1-.44.87,4.36,4.36,0,0,1-.53.58,2.23,2.23,0,0,1-.43.32l-.2.11,1.93,3.37a.27.27,0,0,1-.23.4h-2.35a.25.25,0,0,1-.23-.13l-1.63-3a.27.27,0,0,0-.24-.14h-1a.27.27,0,0,0-.27.27v2.73a.27.27,0,0,1-.27.26h-2.28A.27.27,0,0,1,135,19.23Zm5.55-5.82a1,1,0,0,0,0-1.47,1.13,1.13,0,0,0-.81-.3h-1.65a.27.27,0,0,0-.27.27v1.53a.27.27,0,0,0,.27.27h1.65A1.13,1.13,0,0,0,140.54,13.41Z"/></g></g></svg>