<svg xmlns="http://www.w3.org/2000/svg" viewBox="0 0 2404.54 668.63"><defs><style>.cls-1{fill:none;stroke:#565656;stroke-miterlimit:10;stroke-width:11.57px;}</style></defs><title>Ресурс 1</title><g id="Слой_2" data-name="Слой 2"><g id="Layer_1" data-name="Layer 1"><path class="cls-1" d="M418.32,378.84a62.51,62.51,0,0,0-43.3-1.1,129,129,0,0,1-81.41,0,62.51,62.51,0,0,0-43.3,1.1c-31.38,12.53-52.9,37.49-52.9,66.06h0c0,41.06,44.4,36.67,98.66,36.67h76.49c54.27,0,98.66,4.39,98.66-36.67h0C471.22,416.33,449.7,391.37,418.32,378.84Z"/><path class="cls-1" d="M334.32,186.93a84.58,84.58,0,1,0,84.57,84.57A84.57,84.57,0,0,0,334.32,186.93Z"/><path class="cls-1" d="M1032.84,238.55a86.49,86.49,0,0,0-117.41,34.26q-1.87,3.42-3.55,6.9-1.67-3.48-3.54-6.9A86.49,86.49,0,1,0,756.66,356c41.83,76.29,145.26,126,154.84,128.22,0,.1.73.1.77,0,9.57-2.19,113-51.93,154.83-128.22A86.5,86.5,0,0,0,1032.84,238.55Z"/><path class="cls-1" d="M1527.32,295c.06-8-5-18.68-11.47-23.43l-.13-.09c-23.21-17-48.67-39.36-60.61-65.71l-7.42-15.26c-4.16-10.34-11.36-13.37-20.27-12.34-20.09,2.34-32,23.87-24.43,42.63l12.35,30.71a.06.06,0,0,1-.06.09l-38.91-.4-20.19-.21-4.21,0c-12.69-.13-24.14,8.75-26,21.29a25.25,25.25,0,0,0,24.69,29.19l-4.21,0c-12.68-.13-24.14,8.75-26.05,21.29A25.26,25.26,0,0,0,1345,351.87l10.1.11a25.25,25.25,0,1,0-.52,50.49V403a25.25,25.25,0,0,0-.5,49.48v.5l5.05.05,25.25.26,70.69.73a100.7,100.7,0,0,0,72.19-29.34s0-.05,0-.05S1527.06,330.2,1527.32,295Z"/><rect class="cls-1" x="1555.7" y="251.29" width="107.43" height="205.34" rx="26.93" transform="translate(3218.82 707.92) rotate(180)"/><path class="cls-1" d="M2080.87,178.46l36.88,74.73a11.88,11.88,0,0,0,8.94,6.5l82.46,12a11.87,11.87,0,0,1,6.58,20.25l-59.67,58.17a11.82,11.82,0,0,0-3.41,10.5l14.08,82.14a11.87,11.87,0,0,1-17.22,12.51l-73.76-38.78a11.86,11.86,0,0,0-11.05,0l-73.76,38.78a11.87,11.87,0,0,1-17.23-12.51l14.09-82.14a11.84,11.84,0,0,0-3.41-10.5l-59.68-58.17a11.88,11.88,0,0,1,6.58-20.25l82.47-12a11.88,11.88,0,0,0,8.94-6.5l36.88-74.73A11.87,11.87,0,0,1,2080.87,178.46Z"/><line class="cls-1" x1="1967.11" y1="185.35" x2="1992.47" y2="219.91"/><line class="cls-1" x1="2175.02" y1="185.35" x2="2149.67" y2="219.91"/><line class="cls-1" x1="2237.19" y1="381.15" x2="2195.11" y2="366.79"/><line class="cls-1" x1="1903.26" y1="381.15" x2="1945.33" y2="366.79"/><line class="cls-1" x1="2070.22" y1="496.79" x2="2070.22" y2="452.33"/><circle class="cls-1" cx="2070.22" cy="334.32" r="328.53"/><path class="cls-1" d="M1758.16,142.29C1698.5,59.61,1601.34,5.78,1491.59,5.78c-181.45,0-328.54,147.09-328.54,328.54s147.09,328.53,328.54,328.53c109.75,0,206.91-53.83,266.57-136.51"/><path class="cls-1" d="M1178.94,141.49C1119.23,59.26,1022.35,5.78,913,5.78c-181.44,0-328.53,147.09-328.53,328.54S731.51,662.85,913,662.85c109.4,0,206.28-53.48,266-135.71"/><path class="cls-1" d="M600.31,141.49C540.6,59.26,443.71,5.78,334.32,5.78,152.87,5.78,5.78,152.87,5.78,334.32S152.87,662.85,334.32,662.85c109.39,0,206.28-53.48,266-135.71"/></g></g></svg>