<svg xmlns="http://www.w3.org/2000/svg" viewBox="0 0 313.06 313.71"><defs><style>.cls-1,.cls-2{fill:#fff;}.cls-2{font-size:127.89px;font-family:MyriadPro-Regular, Myriad Pro;}</style></defs><title>europa</title><g id="Слой_2" data-name="Слой 2"><g id="Layer_1" data-name="Layer 1"><polygon class="cls-1" points="156.2 0 163.09 13.95 178.48 16.19 167.34 27.05 169.97 42.38 156.2 35.14 142.43 42.38 145.06 27.05 133.92 16.19 149.32 13.95 156.2 0"/><polygon class="cls-1" points="156.2 271.33 163.09 285.28 178.48 287.52 167.34 298.38 169.97 313.71 156.2 306.47 142.43 313.71 145.06 298.38 133.92 287.52 149.32 285.28 156.2 271.33"/><polygon class="cls-1" points="86.2 254.29 93.09 268.24 108.48 270.47 97.34 281.33 99.97 296.67 86.2 289.43 72.43 296.67 75.06 281.33 63.92 270.47 79.32 268.24 86.2 254.29"/><polygon class="cls-1" points="37.7 205.79 44.59 219.74 59.98 221.97 48.84 232.83 51.47 248.16 37.7 240.93 23.93 248.16 26.56 232.83 15.42 221.97 30.82 219.74 37.7 205.79"/><polygon class="cls-1" points="225.04 254.29 231.92 268.24 247.32 270.47 236.18 281.33 238.81 296.67 225.04 289.43 211.27 296.67 213.9 281.33 202.76 270.47 218.15 268.24 225.04 254.29"/><polygon class="cls-1" points="274.87 205.79 281.75 219.74 297.15 221.97 286.01 232.83 288.64 248.16 274.87 240.93 261.1 248.16 263.73 232.83 252.59 221.97 267.99 219.74 274.87 205.79"/><polygon class="cls-1" points="274.87 66.95 281.75 80.9 297.15 83.14 286.01 94 288.64 109.33 274.87 102.09 261.1 109.33 263.73 94 252.59 83.14 267.99 80.9 274.87 66.95"/><polygon class="cls-1" points="222.87 18.29 229.75 32.24 245.15 34.47 234.01 45.33 236.64 60.66 222.87 53.43 209.1 60.66 211.73 45.33 200.59 34.47 215.99 32.24 222.87 18.29"/><polygon class="cls-1" points="87.2 18.29 94.09 32.24 109.48 34.47 98.34 45.33 100.97 60.66 87.2 53.43 73.43 60.66 76.06 45.33 64.92 34.47 80.32 32.24 87.2 18.29"/><polygon class="cls-1" points="37.2 70.29 44.09 84.24 59.48 86.47 48.34 97.33 50.97 112.67 37.2 105.43 23.43 112.67 26.06 97.33 14.92 86.47 30.32 84.24 37.2 70.29"/><polygon class="cls-1" points="290.78 135.24 297.66 149.19 313.06 151.42 301.92 162.28 304.55 177.62 290.78 170.38 277.01 177.62 279.64 162.28 268.5 151.42 283.89 149.19 290.78 135.24"/><polygon class="cls-1" points="22.28 135.24 29.16 149.19 44.56 151.42 33.42 162.28 36.05 177.62 22.28 170.38 8.51 177.62 11.14 162.28 0 151.42 15.39 149.19 22.28 135.24"/><text class="cls-2" transform="translate(82.2 206.79)">UE</text></g></g></svg>