<svg xmlns="http://www.w3.org/2000/svg" viewBox="0 0 812.07 899.59"><defs><style>.cls-1{fill:none;stroke:#396def;stroke-miterlimit:10;stroke-width:40px;}.cls-2{fill:#396def;}</style></defs><title>file</title><g id="Слой_2" data-name="Слой 2"><g id="Layer_1" data-name="Layer 1"><path class="cls-1" d="M740.07,676.74v125a77.87,77.87,0,0,1-77.87,77.88H97.88A77.88,77.88,0,0,1,20,801.71V389.82a134.89,134.89,0,0,1,39.51-95.39L294.43,59.51A134.89,134.89,0,0,1,389.82,20H662.2a77.87,77.87,0,0,1,77.87,77.88V291.94"/><path class="cls-2" d="M812.07,291.94H359.26v384.8H812.07ZM720.26,580H463.34c-30.11-26.46-11.76-60,14.42-60H734.68C764.8,546.41,746.45,580,720.26,580Zm0-137.19H463.34c-30.11-26.46-11.76-60,14.42-60H734.68C764.8,409.22,746.45,442.76,720.26,442.76Z"/></g></g></svg>