<svg xmlns="http://www.w3.org/2000/svg" viewBox="0 0 128 128"><defs><style>.cls-1{fill:none;}.cls-2{fill:#a1a2a5;}</style></defs><title>G-google_1</title><g id="Слой_2" data-name="Слой 2"><g id="Social_Icons" data-name="Social Icons"><g id="Google"><rect class="cls-1" width="128" height="128"/><path class="cls-2" d="M27.58,64a37.63,37.63,0,0,1,1.93-11.88L7.94,35.65a64.45,64.45,0,0,0,0,56.68l21.56-16.5A37.88,37.88,0,0,1,27.58,64"/><path class="cls-2" d="M65.46,26.18a37,37,0,0,1,23.59,8.44L107.7,16A64,64,0,0,0,7.94,35.65L29.51,52.12A37.76,37.76,0,0,1,65.46,26.18"/><path class="cls-2" d="M65.46,101.82A37.77,37.77,0,0,1,29.51,75.88L7.94,92.35A63.89,63.89,0,0,0,65.46,128a61.06,61.06,0,0,0,41.75-16L86.74,96.22c-5.78,3.64-13,5.6-21.28,5.6"/><path class="cls-2" d="M126.63,64a53.36,53.36,0,0,0-1.45-11.64H65.46V77.09H99.83A28.81,28.81,0,0,1,86.74,96.22l20.47,15.83c11.77-10.92,19.42-27.19,19.42-48"/></g></g></g></svg>