<svg xmlns="http://www.w3.org/2000/svg" viewBox="0 0 123.66 104.39"><defs><style>.cls-1,.cls-2{fill:none;stroke:#fff;stroke-linejoin:round;}.cls-1{stroke-width:6px;}.cls-2{stroke-width:5.33px;}</style></defs><title>hend-like</title><g id="Слой_2" data-name="Слой 2"><g id="OBJECTS"><path class="cls-1" d="M76.89,44.71a11.55,11.55,0,0,0-4.1-8.35l0,0c-8.27-6.06-17.35-14-21.61-23.42L48.5,7.47c-1.48-3.69-4-4.77-7.23-4.4-7.16.83-11.4,8.5-8.7,15.19l4.4,11s0,0,0,0L23.08,29.1,15.88,29l-1.5,0A9.2,9.2,0,0,0,5.09,36.6,9,9,0,0,0,13.89,47l-1.5,0a9.2,9.2,0,0,0-9.28,7.59A9,9,0,0,0,11.91,65l3.6,0a9,9,0,0,0-.19,18v.18a9,9,0,0,0-.18,17.64V101l1.8,0,9,.09,25.2.26A35.91,35.91,0,0,0,76.87,90.93v0S76.79,57.26,76.89,44.71Z"/><rect class="cls-2" x="90" y="30.07" width="31" height="71.32" rx="8.52" transform="translate(211 131.46) rotate(180)"/></g></g></svg>