<svg xmlns="http://www.w3.org/2000/svg" viewBox="0 0 157.67 144.19"><defs><style>.cls-1{fill:none;stroke:#fff;stroke-miterlimit:10;stroke-width:13px;}.cls-2{fill:#fff;}</style></defs><title>Ресурс 1</title><g id="Слой_2" data-name="Слой 2"><g id="Layer_1" data-name="Layer 1"><path class="cls-1" d="M47.5,27.83h0A21.39,21.39,0,0,1,68.83,6.5h20a21.4,21.4,0,0,1,21.34,21.33"/><path class="cls-2" d="M149.71,40a12,12,0,0,0-9.32-6.23A12,12,0,0,1,149.71,40Z"/><path class="cls-2" d="M6.75,43.28A12,12,0,0,1,8,40,12,12,0,0,0,6.75,43.28Z"/><path class="cls-2" d="M149.71,40a11.7,11.7,0,0,1,1.21,3.29A11.7,11.7,0,0,0,149.71,40Z"/><path class="cls-2" d="M17.28,33.76A12.07,12.07,0,0,0,8,40,12.07,12.07,0,0,1,17.28,33.76Z"/><path class="cls-2" d="M139.17,27.19H18.5A18.52,18.52,0,0,0,0,45.69v80a18.52,18.52,0,0,0,18.5,18.5H139.17a18.52,18.52,0,0,0,18.5-18.5v-80A18.52,18.52,0,0,0,139.17,27.19Zm-19.85,43L72,117.52a8,8,0,0,1-11.31,0L38.34,95.18A8,8,0,0,1,49.66,83.87l16.67,16.68L108,58.87a8,8,0,0,1,11.31,11.31Z"/></g></g></svg>