<svg xmlns="http://www.w3.org/2000/svg" viewBox="0 0 464.96 466.17"><defs><style>.cls-1{fill:#fff;}</style></defs><title>lang-ico</title><g id="Слой_2" data-name="Слой 2"><g id="Layer_1" data-name="Layer 1"><path class="cls-1" d="M.05,223.51c-1.29,73.56,22,132.18,70.63,176.59q72.91,66.06,163,66.07A237.92,237.92,0,0,0,347,438c35.29-19.11,63.81-46.33,85.88-82.61,21.67-36,32.39-77.75,32.05-125.7-.64-46-11.68-86.16-33.35-120.86-21.42-34.62-49.89-61.54-85.21-80.28C311.06,9.42,273.81,0,235.25,0c-26.55,0-53.14,4.84-80,14.24A249.79,249.79,0,0,0,79.77,58a221.28,221.28,0,0,0-56.4,70.61c-14.25,27.18-22,59-23.32,94.9ZM130,120.2q-7.78,14.56-15.55,46.62c-5.21,21.36-8.1,40.18-8.42,56.7H21.79C27,167.16,44.78,122.76,75.21,91c3.26,3.26,7.47,6.19,13.29,9.4s12.32,6.48,19.42,9.72c7.48,3.24,14.6,6.49,22,10.08Zm43.75-89.45A333.75,333.75,0,0,0,135.48,102c-24.6-11.66-39.85-20.08-46-25.58,21-21.38,48.92-36.62,84.24-45.68Zm27.82-6.13c2.32-.34,4.56-.68,6.51-1a50.42,50.42,0,0,1,7.47-.34H223V124.37c-7.77,0-17.8-1.3-30.45-4.17-12.63-2.61-25.6-6.17-38.55-10.08a394.87,394.87,0,0,1,47.59-85.5Zm21.4,121.13v77.77H125.75q0-45.24,21.38-96.22,47.64,18.44,75.81,18.45Zm0,97.5V322c-19.09,0-44.06,6.19-74.51,18.49-4.5-8.76-9.38-24-14.89-46-5.17-22.36-7.79-39.2-7.79-51.2Zm-116.94,0c0,25.28,7.46,59.94,22.66,104q-50,25.28-53.46,28.2C58.68,357.65,46.07,335.93,37,310.67S23.37,263,23.37,243.25Zm116.94,97.2V445.09l-21.41-1.28A414.17,414.17,0,0,1,154,357q13.62-6.76,69-16.53Zm-87.47,24.62c16.84,35,29.81,59,39.53,71.94q-42.24-12.63-85.55-46.66a343.16,343.16,0,0,1,46-25.27h0Zm129,78.74-21.06,1.28V341.75c22,1.28,45,6.48,69,15.24-19.45,42.76-35.64,71.6-47.94,86.82Zm112.42-53.46c-21.68,22.66-49.57,37.92-84.25,45A197.26,197.26,0,0,0,310.4,408.8a243.59,243.59,0,0,0,13.29-28.52c3.9-9.7,6.17-14.86,6.52-15.21q38.84,19,46.63,25.28Zm66.76-147.1c0,23.32-4.89,47.64-15.25,72.92s-22.36,45-36.6,59.28c-3.56-2.92-10-6.5-19.47-11.34s-21-11-34.62-18.13c16.51-42.45,24.6-76.47,24.6-102.72H443.6Zm-103,0c0,28.54-7.13,60.6-21.39,97.2-8.1-4.52-20.08-9.09-36-13.26-15.55-4.56-28.82-6.17-39.84-5.23V243.24Zm-97.19-97.5q30.13,0,75.79-18.46c4.53,7.45,9.4,22,14.26,43.1,4.54,20.72,7.13,38.54,7.13,53.13H243.36V145.75ZM390.45,91c16.21,15.58,29.14,35.32,38.88,60s14.28,48.93,14.28,72.56H361c0-31.12-7.77-65.45-23.3-103.33C361.28,108.79,379.1,99.11,390.45,91ZM376.84,76.43c-5.2,4.54-20.09,13.6-45.35,26.88C319.81,74.49,305.87,49.85,290,29.47c30.76,9.06,59.91,24.61,86.81,47ZM263.13,24.62C282.24,48,298.77,75.77,312.37,108.8q-18.94,12.24-69,15.57V23.29h7.45c6.49,0,10.67.34,12.31,1.33Z"/></g></g></svg>