<svg xmlns="http://www.w3.org/2000/svg" viewBox="0 0 1222.58 848"><defs><style>.cls-1{fill:#fff;}.cls-2{fill:none;stroke:#fff;stroke-miterlimit:10;stroke-width:46px;}</style></defs><title>Ресурс 1</title><g id="Слой_2" data-name="Слой 2"><g id="Layer_1" data-name="Layer 1"><path class="cls-1" d="M611.29,0c-234.17,0-424,189.83-424,424s189.83,424,424,424,424-189.83,424-424S845.46,0,611.29,0Zm213,454h-183V637a30,30,0,0,1-60,0V454h-183a30,30,0,1,1,0-60h183V211a30,30,0,0,1,60,0V394h183a30,30,0,0,1,0,60Z"/><path class="cls-2" d="M927.39,176.42c44.71-28.08,94.12-38.26,140.69-24.62,108.13,31.67,159.93,179.81,115.69,330.88S1016,730.55,907.86,698.88c-45.77-13.41-81.45-47.68-104-94.22"/><path class="cls-2" d="M295.19,176.42c-44.71-28.08-94.13-38.26-140.69-24.62C46.36,183.47-5.43,331.61,38.81,482.68s167.77,247.87,275.9,216.2c45.78-13.41,81.46-47.68,104-94.22"/></g></g></svg>