<svg xmlns="http://www.w3.org/2000/svg" viewBox="0 0 455.5 53.34"><defs><style>.cls-1{fill:#e0ab33;}</style></defs><title>review-stars</title><g id="Слой_2" data-name="Слой 2"><g id="cut"><path class="cls-1" d="M53.76,25.82l-6.69,6.53a5.72,5.72,0,0,0-1.65,5.07L47,46.63a5.73,5.73,0,0,1-8.31,6l-8.28-4.35a5.71,5.71,0,0,0-5.33,0l-8.27,4.35a5.73,5.73,0,0,1-8.31-6l1.58-9.21a5.72,5.72,0,0,0-1.65-5.07L1.74,25.82a5.73,5.73,0,0,1,3.17-9.77l9.25-1.34a5.7,5.7,0,0,0,4.31-3.13l4.14-8.39a5.73,5.73,0,0,1,10.27,0L37,11.58a5.74,5.74,0,0,0,4.31,3.13l9.26,1.34A5.73,5.73,0,0,1,53.76,25.82Z"/><path class="cls-1" d="M153.76,25.82l-6.69,6.53a5.72,5.72,0,0,0-1.65,5.07L147,46.63a5.73,5.73,0,0,1-8.31,6l-8.28-4.35a5.71,5.71,0,0,0-5.33,0l-8.27,4.35a5.73,5.73,0,0,1-8.31-6l1.58-9.21a5.72,5.72,0,0,0-1.65-5.07l-6.69-6.53a5.73,5.73,0,0,1,3.17-9.77l9.25-1.34a5.7,5.7,0,0,0,4.31-3.13l4.14-8.39a5.73,5.73,0,0,1,10.27,0L137,11.58a5.74,5.74,0,0,0,4.31,3.13l9.26,1.34A5.73,5.73,0,0,1,153.76,25.82Z"/><path class="cls-1" d="M253.76,25.82l-6.69,6.53a5.72,5.72,0,0,0-1.65,5.07L247,46.63a5.73,5.73,0,0,1-8.31,6l-8.28-4.35a5.71,5.71,0,0,0-5.33,0l-8.27,4.35a5.73,5.73,0,0,1-8.31-6l1.58-9.21a5.72,5.72,0,0,0-1.65-5.07l-6.69-6.53a5.73,5.73,0,0,1,3.17-9.77l9.25-1.34a5.7,5.7,0,0,0,4.31-3.13l4.14-8.39a5.73,5.73,0,0,1,10.27,0L237,11.58a5.74,5.74,0,0,0,4.31,3.13l9.26,1.34A5.73,5.73,0,0,1,253.76,25.82Z"/><path class="cls-1" d="M353.76,25.82l-6.69,6.53a5.72,5.72,0,0,0-1.65,5.07L347,46.63a5.73,5.73,0,0,1-8.31,6l-8.28-4.35a5.71,5.71,0,0,0-5.33,0l-8.27,4.35a5.73,5.73,0,0,1-8.31-6l1.58-9.21a5.72,5.72,0,0,0-1.65-5.07l-6.69-6.53a5.73,5.73,0,0,1,3.17-9.77l9.25-1.34a5.7,5.7,0,0,0,4.31-3.13l4.14-8.39a5.73,5.73,0,0,1,10.27,0L337,11.58a5.74,5.74,0,0,0,4.31,3.13l9.26,1.34A5.73,5.73,0,0,1,353.76,25.82Z"/><path class="cls-1" d="M453.76,25.82l-6.69,6.53a5.72,5.72,0,0,0-1.65,5.07L447,46.63a5.73,5.73,0,0,1-8.31,6l-8.28-4.35a5.71,5.71,0,0,0-5.33,0l-8.27,4.35a5.73,5.73,0,0,1-8.31-6l1.58-9.21a5.72,5.72,0,0,0-1.65-5.07l-6.69-6.53a5.73,5.73,0,0,1,3.17-9.77l9.25-1.34a5.7,5.7,0,0,0,4.31-3.13l4.14-8.39a5.73,5.73,0,0,1,10.27,0L437,11.58a5.74,5.74,0,0,0,4.31,3.13l9.26,1.34A5.73,5.73,0,0,1,453.76,25.82Z"/></g></g></svg>