<svg xmlns="http://www.w3.org/2000/svg" viewBox="0 0 2935.34 2884.17"><defs><style>.cls-1{fill:none;stroke:#fff;stroke-miterlimit:10;stroke-width:150px;}</style></defs><title>star</title><g id="Слой_2" data-name="Слой 2"><g id="Layer_1" data-name="Layer 1"><path class="cls-1" d="M1559.7,132.21l318.84,646a102.62,102.62,0,0,0,77.27,56.14l713,103.6c84.18,12.23,117.79,115.67,56.88,175l-515.9,502.87a102.62,102.62,0,0,0-29.51,90.84L2302,2416.82c14.38,83.83-73.61,147.76-148.9,108.18l-637.68-335.25a102.69,102.69,0,0,0-95.52,0L782.23,2525c-75.29,39.58-163.28-24.35-148.9-108.18l121.78-710.07a102.62,102.62,0,0,0-29.51-90.84L209.7,1113c-60.91-59.38-27.3-162.82,56.88-175l713-103.6a102.62,102.62,0,0,0,77.27-56.14l318.84-646C1413.29,55.93,1522.05,55.93,1559.7,132.21Z"/><line class="cls-1" x1="576.23" y1="191.77" x2="795.46" y2="490.47"/><line class="cls-1" x1="2373.69" y1="191.77" x2="2154.47" y2="490.47"/><line class="cls-1" x1="2911.11" y1="1884.49" x2="2547.37" y2="1760.31"/><line class="cls-1" x1="24.23" y1="1884.49" x2="387.97" y2="1760.31"/><line class="cls-1" x1="1467.67" y1="2884.17" x2="1467.67" y2="2499.82"/></g></g></svg>