<svg xmlns="http://www.w3.org/2000/svg" viewBox="0 0 415.33 415.33"><defs><style>.cls-1{fill:none;stroke:#636363;stroke-miterlimit:10;stroke-width:10px;}</style></defs><title>Ресурс 1</title><g id="Слой_2" data-name="Слой 2"><g id="Capa_1" data-name="Capa 1"><path class="cls-1" d="M378.33,271.88a231.68,231.68,0,0,1-72.7-11.56c-11.33-3.91-24.19-.9-31.64,6.7l-46,34.75c-52.8-28.18-86.6-61.95-114.39-114.37l33.81-44.93a32.31,32.31,0,0,0,7.92-32.64A231.43,231.43,0,0,1,143.67,37a32,32,0,0,0-32-32H37A32,32,0,0,0,5,37C5,242.85,172.49,410.33,378.33,410.33a32,32,0,0,0,32-32V303.88A32,32,0,0,0,378.33,271.88Z"/></g></g></svg>