<svg xmlns="http://www.w3.org/2000/svg" viewBox="0 0 105.07 92.53"><defs><style>.cls-1{fill:#3a3a3a;}</style></defs><title>Ресурс 1</title><g id="Слой_2" data-name="Слой 2"><g id="Layer_1" data-name="Layer 1"><path class="cls-1" d="M27.06,75.39H5.8A5.8,5.8,0,0,1,0,69.59V39a5.8,5.8,0,0,1,9-4.84L24.48,44.33a5.78,5.78,0,0,0,3.2,1H83a5.79,5.79,0,0,1,4.36,2l16.22,18.49a5.8,5.8,0,0,1-4.36,9.63H55.6"/><polyline class="cls-1" points="33.8 64.74 16.21 92.53 40.75 92.53 64.83 64.74"/><path class="cls-1" d="M102.75,7.73,76,34.51a4.55,4.55,0,0,1-6.41,0L56.93,21.87a4.53,4.53,0,1,1,6.4-6.4l9.44,9.44L96.35,1.33a4.53,4.53,0,0,1,6.4,6.4Z"/></g></g></svg>