<svg xmlns="http://www.w3.org/2000/svg" viewBox="0 0 281.09 277.76"><defs><style>.cls-1,.cls-2{fill:none;stroke:#fff;stroke-miterlimit:10;stroke-width:18px;}.cls-1{stroke-linecap:round;}</style></defs><title>write</title><g id="Слой_2" data-name="Слой 2"><g id="Layer_1" data-name="Layer 1"><path class="cls-1" d="M248.11,110.55a122.17,122.17,0,1,1-72.75-78.07"/><path class="cls-2" d="M271,41.58,131.47,181.14a3.56,3.56,0,0,1-1.8,1L96,189.34a3.61,3.61,0,0,1-4.29-4.29L99,151.42a3.64,3.64,0,0,1,1-1.79L239.52,10.06a3.62,3.62,0,0,1,5.11,0L271,36.47A3.6,3.6,0,0,1,271,41.58Z"/><path class="cls-2" d="M246,66.61l21.48-21.48a8.63,8.63,0,0,0,0-12.22l-19.3-19.3a8.64,8.64,0,0,0-12.21,0L214.48,35.1Z"/></g></g></svg>